<svg width="254" height="158" viewBox="0 0 254 158" fill="none" xmlns="http://www.w3.org/2000/svg">
<rect width="238" height="132.523" rx="66.2614" transform="matrix(-1 0 0 1 238.666 12)" fill="white" fill-opacity="0.1"/>
<rect x="-0.5" y="0.5" width="237" height="131.523" rx="65.7614" transform="matrix(-1 0 0 1 237.666 12)" stroke="#601DAA" stroke-opacity="0.2"/>
<g opacity="0.1" clip-path="url(#clip0_1182_173902)">
<path d="M62.0013 51.4609V56.3776M62.0013 100.628V105.544M88.5846 78.5026H83.7513M40.2513 78.5026H35.418M80.7986 59.3813L77.3809 62.8579M46.6217 94.1473L43.204 97.624M80.7986 97.624L77.3809 94.1473M46.6217 62.8579L43.204 59.3813M76.5013 78.5026C76.5013 86.6488 70.0094 93.2526 62.0013 93.2526C53.9932 93.2526 47.5013 86.6488 47.5013 78.5026C47.5013 70.3564 53.9932 63.7526 62.0013 63.7526C70.0094 63.7526 76.5013 70.3564 76.5013 78.5026Z" stroke="white" stroke-width="3" stroke-linecap="round"/>
</g>
<g filter="url(#filter0_d_1182_173902)">
<rect width="109.42" height="109.42" rx="54.71" transform="matrix(-1 0 0 1 226.494 24.1719)" fill="#601DAA" shape-rendering="crispEdges"/>
<path d="M171.781 80.242C179.754 93.8194 194.734 89.8424 185.2 95.254C175.666 100.666 163.475 97.4541 157.971 88.0809C152.466 78.7077 155.733 66.7223 165.267 61.3106C174.801 55.899 163.808 66.6647 171.781 80.242Z" stroke="white" stroke-width="3"/>
</g>
<defs>
<filter id="filter0_d_1182_173902" x="96.0742" y="0.171875" width="157.42" height="157.42" filterUnits="userSpaceOnUse" color-interpolation-filters="sRGB">
<feFlood flood-opacity="0" result="BackgroundImageFix"/>
<feColorMatrix in="SourceAlpha" type="matrix" values="0 0 0 0 0 0 0 0 0 0 0 0 0 0 0 0 0 0 127 0" result="hardAlpha"/>
<feOffset dx="3"/>
<feGaussianBlur stdDeviation="12"/>
<feComposite in2="hardAlpha" operator="out"/>
<feColorMatrix type="matrix" values="0 0 0 0 0.208484 0 0 0 0 0.0949132 0 0 0 0 0.320833 0 0 0 0.4 0"/>
<feBlend mode="normal" in2="BackgroundImageFix" result="effect1_dropShadow_1182_173902"/>
<feBlend mode="normal" in="SourceGraphic" in2="effect1_dropShadow_1182_173902" result="shape"/>
</filter>
<clipPath id="clip0_1182_173902">
<rect width="58" height="59" fill="white" transform="translate(33 49)"/>
</clipPath>
</defs>
</svg>
