<svg width="1422" height="493" viewBox="0 0 1422 493" fill="none" xmlns="http://www.w3.org/2000/svg">
<path d="M63.375 180V17.625H0.5V-7.15256e-06H144.625V17.625H81.75V180H63.375ZM249.67 180V111.125C249.67 103.625 248.962 96.75 247.545 90.5C246.128 84.1667 243.837 78.6667 240.67 74C237.587 69.25 233.545 65.5833 228.545 63C223.628 60.4167 217.628 59.125 210.545 59.125C204.045 59.125 198.295 60.25 193.295 62.5C188.378 64.75 184.212 68 180.795 72.25C177.462 76.4167 174.92 81.5 173.17 87.5C171.42 93.5 170.545 100.333 170.545 108L157.545 105.125C157.545 91.2917 159.962 79.6667 164.795 70.25C169.628 60.8333 176.295 53.7083 184.795 48.875C193.295 44.0417 203.045 41.625 214.045 41.625C222.128 41.625 229.17 42.875 235.17 45.375C241.253 47.875 246.378 51.25 250.545 55.5C254.795 59.75 258.212 64.625 260.795 70.125C263.378 75.5417 265.253 81.3333 266.42 87.5C267.587 93.5833 268.17 99.6667 268.17 105.75V180H249.67ZM152.045 180V-7.15256e-06H168.67V101.625H170.545V180H152.045ZM345.232 183.75C332.066 183.75 320.649 180.833 310.982 175C301.399 169.167 293.941 160.958 288.607 150.375C283.274 139.792 280.607 127.375 280.607 113.125C280.607 98.375 283.232 85.625 288.482 74.875C293.732 64.125 301.107 55.8333 310.607 50C320.191 44.1667 331.482 41.25 344.482 41.25C357.816 41.25 369.191 44.3333 378.607 50.5C388.024 56.5833 395.149 65.3333 399.982 76.75C404.816 88.1667 407.024 101.792 406.607 117.625H387.857V111.125C387.524 93.625 383.732 80.4167 376.482 71.5C369.316 62.5833 358.816 58.125 344.982 58.125C330.482 58.125 319.357 62.8333 311.607 72.25C303.941 81.6667 300.107 95.0833 300.107 112.5C300.107 129.5 303.941 142.708 311.607 152.125C319.357 161.458 330.316 166.125 344.482 166.125C354.149 166.125 362.566 163.917 369.732 159.5C376.982 155 382.691 148.542 386.857 140.125L403.982 146.75C398.649 158.5 390.774 167.625 380.357 174.125C370.024 180.542 358.316 183.75 345.232 183.75ZM293.607 117.625V102.25H396.732V117.625H293.607ZM547.32 183.625C531.487 183.625 518.445 180.208 508.195 173.375C498.029 166.542 491.779 157.042 489.445 144.875L508.195 141.75C510.195 149.417 514.737 155.542 521.82 160.125C528.987 164.625 537.82 166.875 548.32 166.875C558.57 166.875 566.654 164.75 572.57 160.5C578.487 156.167 581.445 150.292 581.445 142.875C581.445 138.708 580.487 135.333 578.57 132.75C576.737 130.083 572.945 127.625 567.195 125.375C561.445 123.125 552.862 120.458 541.445 117.375C529.195 114.042 519.612 110.708 512.695 107.375C505.779 104.042 500.862 100.208 497.945 95.875C495.029 91.4583 493.57 86.0833 493.57 79.75C493.57 72.0833 495.737 65.375 500.07 59.625C504.404 53.7917 510.404 49.2917 518.07 46.125C525.737 42.875 534.654 41.25 544.82 41.25C554.987 41.25 564.07 42.9167 572.07 46.25C580.154 49.5 586.654 54.0833 591.57 60C596.487 65.9167 599.404 72.7917 600.32 80.625L581.57 84C580.32 76.0833 576.362 69.8333 569.695 65.25C563.112 60.5833 554.737 58.1667 544.57 58C534.987 57.75 527.195 59.5833 521.195 63.5C515.195 67.3333 512.195 72.4583 512.195 78.875C512.195 82.4583 513.279 85.5417 515.445 88.125C517.612 90.625 521.529 93 527.195 95.25C532.945 97.5 541.112 99.9583 551.695 102.625C564.112 105.792 573.862 109.125 580.945 112.625C588.029 116.125 593.07 120.25 596.07 125C599.07 129.75 600.57 135.625 600.57 142.625C600.57 155.375 595.82 165.417 586.32 172.75C576.904 180 563.904 183.625 547.32 183.625ZM689.293 180C681.71 181.583 674.21 182.208 666.793 181.875C659.46 181.542 652.876 179.958 647.043 177.125C641.293 174.292 636.918 169.875 633.918 163.875C631.501 158.875 630.168 153.833 629.918 148.75C629.751 143.583 629.668 137.708 629.668 131.125V7.49999H647.918V130.375C647.918 136.042 647.96 140.792 648.043 144.625C648.21 148.375 649.085 151.708 650.668 154.625C653.668 160.208 658.418 163.542 664.918 164.625C671.501 165.708 679.626 165.458 689.293 163.875V180ZM600.793 60.75V45H689.293V60.75H600.793ZM742.016 183.75C731.849 183.75 723.307 181.917 716.391 178.25C709.557 174.583 704.432 169.708 701.016 163.625C697.599 157.542 695.891 150.917 695.891 143.75C695.891 136.417 697.349 130.167 700.266 125C703.266 119.75 707.307 115.458 712.391 112.125C717.557 108.792 723.516 106.25 730.266 104.5C737.099 102.833 744.641 101.375 752.891 100.125C761.224 98.7917 769.349 97.6667 777.266 96.75C785.266 95.75 792.266 94.7917 798.266 93.875L791.766 97.875C792.016 84.5417 789.432 74.6667 784.016 68.25C778.599 61.8333 769.182 58.625 755.766 58.625C746.516 58.625 738.682 60.7083 732.266 64.875C725.932 69.0417 721.474 75.625 718.891 84.625L701.016 79.375C704.099 67.2917 710.307 57.9167 719.641 51.25C728.974 44.5833 741.099 41.25 756.016 41.25C768.349 41.25 778.807 43.5833 787.391 48.25C796.057 52.8333 802.182 59.5 805.766 68.25C807.432 72.1667 808.516 76.5417 809.016 81.375C809.516 86.2083 809.766 91.125 809.766 96.125V180H793.391V146.125L798.141 148.125C793.557 159.708 786.432 168.542 776.766 174.625C767.099 180.708 755.516 183.75 742.016 183.75ZM744.141 167.875C752.724 167.875 760.224 166.333 766.641 163.25C773.057 160.167 778.224 155.958 782.141 150.625C786.057 145.208 788.599 139.125 789.766 132.375C790.766 128.042 791.307 123.292 791.391 118.125C791.474 112.875 791.516 108.958 791.516 106.375L798.516 110C792.266 110.833 785.474 111.667 778.141 112.5C770.891 113.333 763.724 114.292 756.641 115.375C749.641 116.458 743.307 117.75 737.641 119.25C733.807 120.333 730.099 121.875 726.516 123.875C722.932 125.792 719.974 128.375 717.641 131.625C715.391 134.875 714.266 138.917 714.266 143.75C714.266 147.667 715.224 151.458 717.141 155.125C719.141 158.792 722.307 161.833 726.641 164.25C731.057 166.667 736.891 167.875 744.141 167.875ZM829.807 180V45H846.307V77.5L843.057 73.25C844.557 69.25 846.515 65.5833 848.932 62.25C851.348 58.8333 853.973 56.0417 856.807 53.875C860.307 50.7917 864.39 48.4583 869.057 46.875C873.723 45.2083 878.432 44.25 883.182 44C887.932 43.6667 892.265 44 896.182 45V62.25C891.265 61 885.89 60.7083 880.057 61.375C874.223 62.0417 868.848 64.375 863.932 68.375C859.432 71.875 856.057 76.0833 853.807 81C851.557 85.8333 850.057 91 849.307 96.5C848.557 101.917 848.182 107.292 848.182 112.625V180H829.807ZM980.895 180C973.311 181.583 965.811 182.208 958.395 181.875C951.061 181.542 944.478 179.958 938.645 177.125C932.895 174.292 928.52 169.875 925.52 163.875C923.103 158.875 921.77 153.833 921.52 148.75C921.353 143.583 921.27 137.708 921.27 131.125V7.49999H939.52V130.375C939.52 136.042 939.561 140.792 939.645 144.625C939.811 148.375 940.686 151.708 942.27 154.625C945.27 160.208 950.02 163.542 956.52 164.625C963.103 165.708 971.228 165.458 980.895 163.875V180ZM892.395 60.75V45H980.895V60.75H892.395ZM672.656 432.75C659.24 432.75 647.781 429.708 638.281 423.625C628.781 417.542 621.49 409.125 616.406 398.375C611.323 387.625 608.781 375.292 608.781 361.375C608.781 347.208 611.365 334.792 616.531 324.125C621.698 313.458 629.031 305.167 638.531 299.25C648.115 293.25 659.49 290.25 672.656 290.25C686.156 290.25 697.656 293.292 707.156 299.375C716.74 305.375 724.031 313.75 729.031 324.5C734.115 335.167 736.656 347.458 736.656 361.375C736.656 375.542 734.115 388 729.031 398.75C723.948 409.417 716.615 417.75 707.031 423.75C697.448 429.75 685.99 432.75 672.656 432.75ZM672.656 415.125C687.656 415.125 698.823 410.167 706.156 400.25C713.49 390.25 717.156 377.292 717.156 361.375C717.156 345.042 713.448 332.042 706.031 322.375C698.698 312.708 687.573 307.875 672.656 307.875C662.573 307.875 654.24 310.167 647.656 314.75C641.156 319.25 636.281 325.542 633.031 333.625C629.865 341.625 628.281 350.875 628.281 361.375C628.281 377.625 632.031 390.667 639.531 400.5C647.031 410.25 658.073 415.125 672.656 415.125ZM765.105 429V284C765.105 280.5 765.272 277.042 765.605 273.625C766.022 270.208 766.814 266.958 767.98 263.875C769.147 260.708 770.98 257.792 773.48 255.125C776.23 252.125 779.23 249.958 782.48 248.625C785.73 247.208 789.105 246.292 792.605 245.875C796.189 245.458 799.689 245.25 803.105 245.25H820.355V260.75H804.355C797.355 260.75 792.105 262.458 788.605 265.875C785.189 269.292 783.48 274.667 783.48 282V429H765.105ZM741.73 309.75V294H820.355V309.75H741.73ZM976.451 429C968.868 430.583 961.368 431.208 953.951 430.875C946.618 430.542 940.035 428.958 934.201 426.125C928.451 423.292 924.076 418.875 921.076 412.875C918.66 407.875 917.326 402.833 917.076 397.75C916.91 392.583 916.826 386.708 916.826 380.125V256.5H935.076V379.375C935.076 385.042 935.118 389.792 935.201 393.625C935.368 397.375 936.243 400.708 937.826 403.625C940.826 409.208 945.576 412.542 952.076 413.625C958.66 414.708 966.785 414.458 976.451 412.875V429ZM887.951 309.75V294H976.451V309.75H887.951ZM1088.05 429V360.125C1088.05 352.625 1087.34 345.75 1085.92 339.5C1084.51 333.167 1082.22 327.667 1079.05 323C1075.97 318.25 1071.92 314.583 1066.92 312C1062.01 309.417 1056.01 308.125 1048.92 308.125C1042.42 308.125 1036.67 309.25 1031.67 311.5C1026.76 313.75 1022.59 317 1019.17 321.25C1015.84 325.417 1013.3 330.5 1011.55 336.5C1009.8 342.5 1008.92 349.333 1008.92 357L995.924 354.125C995.924 340.292 998.34 328.667 1003.17 319.25C1008.01 309.833 1014.67 302.708 1023.17 297.875C1031.67 293.042 1041.42 290.625 1052.42 290.625C1060.51 290.625 1067.55 291.875 1073.55 294.375C1079.63 296.875 1084.76 300.25 1088.92 304.5C1093.17 308.75 1096.59 313.625 1099.17 319.125C1101.76 324.542 1103.63 330.333 1104.8 336.5C1105.97 342.583 1106.55 348.667 1106.55 354.75V429H1088.05ZM990.424 429V249H1007.05V350.625H1008.92V429H990.424ZM1128.99 268.375V247.75H1147.36V268.375H1128.99ZM1128.99 429V294H1147.36V429H1128.99ZM1269.84 429V360.125C1269.84 352.625 1269.13 345.75 1267.71 339.5C1266.29 333.167 1264 327.667 1260.84 323C1257.75 318.25 1253.71 314.583 1248.71 312C1243.79 309.417 1237.79 308.125 1230.71 308.125C1224.21 308.125 1218.46 309.25 1213.46 311.5C1208.54 313.75 1204.38 317 1200.96 321.25C1197.63 325.417 1195.09 330.5 1193.34 336.5C1191.59 342.5 1190.71 349.333 1190.71 357L1177.71 354.125C1177.71 340.292 1180.13 328.667 1184.96 319.25C1189.79 309.833 1196.46 302.708 1204.96 297.875C1213.46 293.042 1223.21 290.625 1234.21 290.625C1242.29 290.625 1249.34 291.875 1255.34 294.375C1261.42 296.875 1266.54 300.25 1270.71 304.5C1274.96 308.75 1278.38 313.625 1280.96 319.125C1283.54 324.542 1285.42 330.333 1286.59 336.5C1287.75 342.583 1288.34 348.667 1288.34 354.75V429H1269.84ZM1172.21 429V294H1188.84V327.25H1190.71V429H1172.21ZM1361.9 492.75C1354.98 492.75 1348.15 491.708 1341.4 489.625C1334.73 487.625 1328.57 484.417 1322.9 480C1317.23 475.667 1312.48 470 1308.65 463L1325.27 453.75C1329.02 461.25 1334.27 466.625 1341.02 469.875C1347.86 473.208 1354.82 474.875 1361.9 474.875C1371.65 474.875 1379.52 473.042 1385.52 469.375C1391.61 465.792 1396.02 460.458 1398.77 453.375C1401.52 446.292 1402.86 437.458 1402.77 426.875V390.875H1404.9V294H1421.27V427.125C1421.27 430.958 1421.15 434.625 1420.9 438.125C1420.73 441.708 1420.36 445.208 1419.77 448.625C1418.19 458.708 1414.9 467 1409.9 473.5C1404.98 480 1398.48 484.833 1390.4 488C1382.4 491.167 1372.9 492.75 1361.9 492.75ZM1360.65 432.75C1348.07 432.75 1337.32 429.625 1328.4 423.375C1319.48 417.042 1312.65 408.5 1307.9 397.75C1303.15 387 1300.77 374.875 1300.77 361.375C1300.77 347.958 1303.11 335.875 1307.77 325.125C1312.52 314.375 1319.32 305.875 1328.15 299.625C1336.98 293.375 1347.57 290.25 1359.9 290.25C1372.57 290.25 1383.23 293.333 1391.9 299.5C1400.57 305.667 1407.11 314.125 1411.52 324.875C1416.02 335.542 1418.27 347.708 1418.27 361.375C1418.27 374.792 1416.07 386.917 1411.65 397.75C1407.23 408.5 1400.73 417.042 1392.15 423.375C1383.57 429.625 1373.07 432.75 1360.65 432.75ZM1362.52 415.625C1372.11 415.625 1380.02 413.292 1386.27 408.625C1392.52 403.958 1397.19 397.542 1400.27 389.375C1403.36 381.125 1404.9 371.792 1404.9 361.375C1404.9 350.792 1403.36 341.458 1400.27 333.375C1397.19 325.208 1392.52 318.833 1386.27 314.25C1380.11 309.667 1372.32 307.375 1362.9 307.375C1353.23 307.375 1345.23 309.75 1338.9 314.5C1332.57 319.25 1327.86 325.708 1324.77 333.875C1321.77 342.042 1320.27 351.208 1320.27 361.375C1320.27 371.625 1321.82 380.875 1324.9 389.125C1328.07 397.292 1332.77 403.75 1339.02 408.5C1345.27 413.25 1353.11 415.625 1362.52 415.625Z" fill="#E5E5E5"/>
</svg>
