<svg width="44" height="44" viewBox="0 0 44 44" fill="none" xmlns="http://www.w3.org/2000/svg">
<mask id="mask0_2025_1388" style="mask-type:alpha" maskUnits="userSpaceOnUse" x="0" y="0" width="44" height="44">
<rect width="44" height="44" fill="#D9D9D9"/>
</mask>
<g mask="url(#mask0_2025_1388)">
<path d="M35.2917 30.1583L32.5417 27.3167C33.7639 26.9806 34.7569 26.3313 35.5208 25.3688C36.2847 24.4062 36.6667 23.2833 36.6667 22C36.6667 20.4722 36.1319 19.1736 35.0625 18.1042C33.9931 17.0347 32.6944 16.5 31.1667 16.5H23.8333V12.8333H31.1667C33.7028 12.8333 35.8646 13.7271 37.6521 15.5146C39.4396 17.3021 40.3333 19.4639 40.3333 22C40.3333 23.7417 39.8826 25.3458 38.9813 26.8125C38.0799 28.2792 36.85 29.3944 35.2917 30.1583ZM29.0583 23.8333L25.3917 20.1667H29.3333V23.8333H29.0583ZM36.3 41.4333L2.56667 7.7L5.13333 5.13333L38.8667 38.8667L36.3 41.4333ZM20.1667 31.1667H12.8333C10.2972 31.1667 8.13542 30.2729 6.34792 28.4854C4.56042 26.6979 3.66667 24.5361 3.66667 22C3.66667 19.8917 4.30833 18.0125 5.59167 16.3625C6.875 14.7125 8.525 13.6278 10.5417 13.1083L13.9333 16.5H12.8333C11.3056 16.5 10.0069 17.0347 8.9375 18.1042C7.86805 19.1736 7.33333 20.4722 7.33333 22C7.33333 23.5278 7.86805 24.8264 8.9375 25.8958C10.0069 26.9653 11.3056 27.5 12.8333 27.5H20.1667V31.1667ZM14.6667 23.8333V20.1667H17.6458L21.2667 23.8333H14.6667Z" fill="#C90057"/>
</g>
</svg>
