<svg width="166" height="40" viewBox="0 0 166 40" fill="none" xmlns="http://www.w3.org/2000/svg">
<path d="M16.1192 1.15237H27.4053L43.3446 39.411H31.4158L21.3381 14.0077L14.6796 30.6786H22.5978L25.76 39.411H0L16.1192 1.15237ZM56.6359 9.09091C57.7928 9.09091 59.0525 9.19334 60.3122 9.50064V0.0256063H70.2871V37.7209C67.9991 38.7452 63.063 40 58.127 40C49.1804 40 41.4936 34.9296 41.4936 24.8143C41.4936 14.6991 48.8976 9.11652 56.6359 9.11652V9.09091ZM57.8956 31.8054C58.8211 31.8054 59.5667 31.6261 60.3122 31.3956V17.516C59.5667 17.2343 58.8211 17.1063 57.8442 17.1063C54.5792 17.1063 51.5456 19.5134 51.5456 24.5839C51.5456 29.6543 54.6306 31.7798 57.8956 31.7798V31.8054ZM88.0517 9.09091C96.3556 9.09091 103.425 14.6735 103.425 24.507C103.425 34.3406 96.3813 39.9232 88.0517 39.9232C79.7222 39.9232 72.6266 34.3406 72.6266 24.507C72.6266 14.6735 79.6193 9.09091 88.0517 9.09091ZM88.0517 31.6517C90.9054 31.6517 93.5533 29.3726 93.5533 24.507C93.5533 19.6415 90.9054 17.3624 88.0517 17.3624C85.1981 17.3624 82.6015 19.6415 82.6015 24.507C82.6015 29.3726 85.0695 31.6517 88.0517 31.6517ZM105.816 0.0256063H115.843V9.50064C117.051 9.27016 118.311 9.09091 119.57 9.09091C127.36 9.09091 134.584 14.1613 134.584 24.0973C134.584 34.5967 126.897 39.9232 117.796 39.9232C113.889 39.9232 108.901 39.1293 105.816 37.6953V0V0.0256063ZM118.028 31.7542C121.473 31.7542 124.609 29.2958 124.609 24.2254C124.609 19.4878 121.524 17.2599 118.182 17.2599C117.257 17.2599 116.511 17.3624 115.843 17.6697V31.37C116.408 31.6005 117.154 31.7798 118.028 31.7798V31.7542ZM151.603 9.09091C159.11 9.09091 166 13.8796 166 23.5339C166 24.8399 165.949 26.0948 165.769 27.3496H147.079C148.107 30.7298 151.089 32.3175 154.817 32.3175C157.85 32.3175 160.653 31.5749 163.815 30.2177V37.8233C160.884 39.3086 157.388 39.9232 153.788 39.9232C144.276 39.9232 136.872 34.2126 136.872 24.507C136.872 14.8015 143.582 9.09091 151.603 9.09091ZM156.642 21.1268C156.128 17.8745 153.943 16.5685 151.706 16.5685C149.469 16.5685 147.644 17.9513 146.899 21.1268H156.642Z" fill="black"/>
</svg>
