<svg width="200" height="60" viewBox="0 0 200 60" fill="none" xmlns="http://www.w3.org/2000/svg">
<path d="M28.6763 40.0576C27.5891 39.0783 28.563 37.7432 29.8677 38.5059C44.8012 47.1638 63.2658 52.373 82.3394 52.373C95.2029 52.373 109.354 49.7211 122.366 44.2178C124.331 43.3858 125.975 45.4996 124.053 46.9209C112.442 55.4489 95.6126 59.9999 81.1226 60C60.8053 60 42.514 52.5115 28.6763 40.0576Z" fill="black"/>
<path d="M115.042 39.4072C121.679 34.7532 132.568 36.0963 133.838 37.6562C135.108 39.2249 133.507 50.1026 127.271 55.2939C126.314 56.0908 125.402 55.6656 125.828 54.6084C127.228 51.1242 130.368 43.3159 128.88 41.418C127.402 39.5287 119.07 40.5258 115.33 40.9678C114.19 41.1064 114.016 40.1179 115.042 39.4072Z" fill="black"/>
<path fill-rule="evenodd" clip-rule="evenodd" d="M155.739 0.302734C164.914 0.302906 169.88 8.15487 169.88 18.1387C169.88 27.7847 164.393 35.4373 155.739 35.4375C146.728 35.4375 141.823 27.5855 141.823 17.8008C141.823 7.95549 146.789 0.302734 155.739 0.302734ZM155.791 6.75977C151.233 6.75988 150.946 12.948 150.946 16.8047C150.946 20.6702 150.886 28.9209 155.739 28.9209C160.531 28.9206 160.757 22.264 160.757 18.208C160.757 15.5389 160.644 12.3498 159.835 9.81934C159.14 7.61799 157.756 6.75977 155.791 6.75977Z" fill="black"/>
<path fill-rule="evenodd" clip-rule="evenodd" d="M14.9595 0C17.9688 0 21.9005 0.796761 24.2749 3.06738C27.2843 5.86673 26.9976 9.6023 26.9976 13.667V23.2695C26.9976 26.1556 28.1979 27.4214 29.3286 28.9814C29.7284 29.536 29.8152 30.2032 29.311 30.6191C28.0499 31.6678 25.8059 33.6179 24.5708 34.71L24.5532 34.6924C24.1445 35.0563 23.5532 35.0824 23.0923 34.8398C21.0397 33.1412 20.6741 32.3521 19.5435 30.7314C16.1515 34.1807 13.7509 35.2129 9.3501 35.2129C4.14895 35.2129 0.0952148 32.0141 0.0952148 25.6094C0.0953808 20.6091 2.81788 17.2031 6.68799 15.5391C10.0452 14.0657 14.7335 13.8058 18.3169 13.3984V12.6006C18.3169 11.136 18.4298 9.40291 17.5688 8.1377C16.8122 7.00251 15.3688 6.53428 14.0991 6.53418C11.7421 6.53418 9.63669 7.73933 9.12354 10.2354C9.01907 10.7898 8.61057 11.3352 8.0542 11.3613L2.05225 10.7207C1.54786 10.608 0.991234 10.1999 1.13037 9.42871C2.51335 2.18362 9.08006 7.7685e-05 14.9595 0ZM18.3169 18.3389C13.8464 18.3389 9.12354 19.292 9.12354 24.5439C9.12358 27.2046 10.507 29.0068 12.8813 29.0068C14.6207 29.0067 16.1779 27.9413 17.1606 26.208C18.2261 24.3425 18.3119 22.5763 18.3169 20.5557V18.3389Z" fill="black"/>
<path fill-rule="evenodd" clip-rule="evenodd" d="M96.0298 0C99.0391 1.817e-05 102.971 0.79672 105.345 3.06738C108.354 5.86672 108.067 9.60236 108.067 13.667V23.2695C108.067 26.1556 109.267 27.4214 110.398 28.9814C110.798 29.5361 110.885 30.2032 110.38 30.6191C109.119 31.6678 106.875 33.618 105.64 34.71L105.624 34.6924C105.215 35.0564 104.623 35.0825 104.162 34.8398C102.109 33.1413 101.744 32.3521 100.614 30.7314C97.2217 34.1808 94.8204 35.2129 90.4194 35.2129C85.2184 35.2128 81.1655 32.014 81.1655 25.6094C81.1657 20.6089 83.888 17.203 87.7583 15.5391C91.1156 14.0657 95.8038 13.8058 99.3872 13.3984V12.6006C99.3872 11.136 99.5 9.4029 98.6392 8.1377C97.8825 7.00235 96.4383 6.53418 95.1685 6.53418C92.8115 6.53424 90.707 7.73938 90.1938 10.2354C90.0894 10.7899 89.6801 11.3353 89.1235 11.3613L83.1226 10.7207C82.6181 10.608 82.0615 10.2 82.2007 9.42871C83.5837 2.18355 90.1503 0 96.0298 0ZM99.3872 18.3389C94.9167 18.3389 90.1938 19.2919 90.1938 24.5439C90.1939 27.2045 91.5765 29.0067 93.9507 29.0068C95.6901 29.0068 97.2471 27.9412 98.23 26.208C99.2954 24.3425 99.3822 22.5763 99.3872 20.5557V18.3389Z" fill="black"/>
<path d="M67.0581 0.302734C69.6499 0.302744 72.4855 1.36877 74.2163 3.76074C76.1733 6.42144 75.7729 10.2871 75.7729 13.6758L75.7642 33.6348C75.7642 34.2674 75.2338 34.7793 74.5728 34.7793H68.3979C67.7804 34.736 67.2847 34.2414 67.2847 33.6348V16.874C67.2847 15.5393 67.4056 12.2107 67.1099 10.9453C66.6488 8.82247 65.2665 8.2247 63.4751 8.22461C61.9791 8.22461 60.4128 9.22079 59.7778 10.8154C59.3016 12.0114 59.2172 13.8122 59.2046 15.3945V33.6348C59.2046 34.2674 58.6732 34.7793 58.0122 34.7793H51.8374C51.2112 34.736 50.7241 34.2414 50.7241 33.6348L50.7153 16.874C50.7153 13.3467 51.298 8.15527 46.9058 8.15527C42.4614 8.15532 42.6353 13.2167 42.6353 16.874V33.6348C42.6353 34.2674 42.1048 34.7792 41.4438 34.7793H35.2603C34.6688 34.736 34.1983 34.2938 34.1548 33.7305V2.10547C34.1549 1.47285 34.6862 0.970703 35.3472 0.970703H41.1128C41.7128 0.996683 42.1912 1.45546 42.2349 2.02734V6.16211H42.3481C43.8528 2.16689 46.6795 0.302881 50.4888 0.302734C54.3592 0.302734 56.7776 2.16673 58.5171 6.16211C60.0131 2.16673 63.4138 0.302734 67.0581 0.302734Z" fill="black"/>
<path d="M191.068 0.302734C193.842 0.302734 196.547 1.29956 198.287 4.0293C199.904 6.55998 199.905 10.8156 199.905 13.875V33.7822C199.835 34.3368 199.322 34.7792 198.713 34.7793H192.512C191.947 34.736 191.476 34.3196 191.416 33.7822V16.6055C191.416 13.1474 191.816 8.08594 187.545 8.08594C186.041 8.08598 184.658 9.09103 183.971 10.6162C183.101 12.5489 182.988 14.4734 182.988 16.6055V33.6348C182.979 34.2674 182.44 34.7793 181.779 34.7793H175.622C175.004 34.736 174.508 34.2414 174.508 33.6348L174.5 2.00195C174.552 1.42128 175.065 0.970703 175.691 0.970703H181.422C181.962 0.996687 182.405 1.36049 182.527 1.85449V6.69043H182.64C184.371 2.36577 186.797 0.302776 191.068 0.302734Z" fill="black"/>
<path d="M137.065 0.883789C137.717 0.883841 138.239 1.35151 138.239 2.02734V5.90137C138.23 6.55133 137.683 7.40093 136.708 8.74414L126.175 23.7295C130.089 23.6342 134.22 24.2147 137.769 26.208C138.569 26.6586 138.787 27.3169 138.848 27.9668V32.7949C138.848 33.4534 138.117 34.2245 137.352 33.8262C131.098 30.5588 122.792 30.203 115.877 33.8604C115.173 34.2417 114.434 33.479 114.434 32.8203V28.2363C114.434 27.4997 114.443 26.242 115.182 25.124L127.384 7.68652H116.765C116.113 7.68652 115.59 7.2277 115.59 6.55176V2.02734C115.59 1.3428 116.113 0.883789 116.739 0.883789H137.065Z" fill="black"/>
</svg>
