<svg width="190" height="45" viewBox="0 0 190 45" fill="none" xmlns="http://www.w3.org/2000/svg">
<path d="M156.944 32.376H174.604L161.994 45H144.334V27.3262L156.944 14.7168V32.376Z" fill="black"/>
<path d="M189.321 44.6221L177.061 32.3623V12.2588H156.958L144.712 0H189.321V44.6221Z" fill="black"/>
<path fill-rule="evenodd" clip-rule="evenodd" d="M45.0454 42.0029H34.5278L31.3276 34.2803H13.8843L10.9673 42.0029H0.679199L16.395 3.01074H27.6558L45.0454 42.0029ZM16.4624 27.4883H28.4653L22.2417 12.2998L16.4624 27.4883Z" fill="black"/>
<path d="M70.4683 17.5107L82.9839 3.01074H91.4497V42.0029H81.728V17.7002L71.2104 29.9326H69.7251L59.2085 17.6465V41.9482H49.4868V3.01074H57.9526L70.4683 17.5107Z" fill="black"/>
<path fill-rule="evenodd" clip-rule="evenodd" d="M116.076 3.01074C130.306 3.01079 137.678 11.8676 137.678 22.5605C137.678 33.7666 130.589 42.0029 115.036 42.0029H98.8618V3.01074H116.076ZM108.583 34.8604H114.928C124.703 34.8602 127.62 28.2313 127.62 22.5068C127.62 15.7562 124.014 10.1533 114.82 10.1533H108.583V34.8604Z" fill="black"/>
</svg>
