<svg width="344" height="40" viewBox="0 0 344 40" fill="none" xmlns="http://www.w3.org/2000/svg">
<path d="M11.5801 17.9844C11.9383 17.9844 12.3778 18.1238 13.8223 20.2949L13.834 20.2832C15.5676 22.8821 17.8094 27.7908 17.8096 32.8496C17.8096 34.6631 17.6707 36.1766 17.2314 37.9092C16.8616 39.2721 16.2145 40 15.3477 40H2.41406C1.3278 39.9999 0.819336 39.4222 0.819336 38.8447C0.819351 38.556 0.888814 38.3363 1.17773 37.7588L10.3545 19.4277C11.0016 18.1343 11.2218 17.9844 11.5801 17.9844Z" fill="black"/>
<path d="M20.9766 0C21.4158 0 21.7745 0.138552 22.1328 0.935547L40.4863 37.6201L40.4746 37.6094C40.8444 38.3369 40.9141 38.5561 40.9141 38.9141C40.9141 39.6417 40.4058 39.9999 39.4697 40H26.7559C25.7503 40 25.3113 39.7801 24.7334 38.625C19.5324 28.1604 15.9953 21.6577 15.9951 14.7275C15.9951 9.74927 17.1505 4.97821 19.751 0.866211C20.1786 0.150093 20.6183 9.4717e-06 20.9766 0Z" fill="black"/>
<path d="M234.72 3.96191C239.505 3.96191 243.562 4.9435 246.255 6.29492V14.2646C242.452 12.5437 238.523 11.3194 234.478 11.3193C231.161 11.3193 229.322 12.1743 229.322 14.1377C229.322 15.7317 230.547 16.8296 235.575 17.9385C244.775 19.9021 247.966 22.7202 247.966 28.8535V28.8652C247.966 35.3682 244.047 39.7803 234.35 39.7803C227.357 39.7802 223.671 38.1863 220.851 36.835V28.4951C224.41 30.5741 229.807 32.1689 234.35 32.1689C238.279 32.1689 239.505 31.0708 239.505 29.2227C239.505 27.3749 238.279 26.5202 232.755 25.2959C223.312 23.4593 220.978 19.4162 220.978 14.2646C220.978 7.88894 225.635 3.96194 234.72 3.96191Z" fill="black"/>
<path d="M214.089 28.8652C214.089 35.241 210.286 39.6532 200.474 39.6533C193.481 39.6533 189.794 38.0594 186.974 36.708V28.3682C190.534 30.4473 195.931 32.042 200.474 32.042C204.403 32.0419 205.628 30.9438 205.628 29.0957C205.628 27.2479 204.402 26.3932 198.878 25.1689C189.73 23.3897 187.253 19.5398 187.107 14.6172L214.089 28.8652Z" fill="black"/>
<path fill-rule="evenodd" clip-rule="evenodd" d="M79.1367 4.33105C79.1367 4.33105 91.2742 39.2556 91.4111 39.2842H82.084L80.3623 33.3926C78.2703 34.0048 76.0621 34.375 73.8545 34.375C71.647 34.375 69.428 34.0047 67.3477 33.3926L65.625 39.2842H56.2979L68.4453 4.33105H79.1367ZM69.3125 26.4043C70.6648 26.7739 72.1325 27.0166 73.7275 27.0166C75.3225 27.0166 76.7903 26.7739 78.1426 26.4043L73.7275 11.2041L69.3125 26.4043Z" fill="black"/>
<path d="M117.891 11.8047H108.193V39.2842H99.9756V11.8164H91.0186V4.32031H117.891V11.8047Z" fill="black"/>
<path d="M132.131 31.6836H143.296L140.718 39.2842H124.028V4.33105H132.131V31.6836Z" fill="black"/>
<path fill-rule="evenodd" clip-rule="evenodd" d="M181.715 39.2842H172.388L170.665 33.3926C168.573 34.0047 166.366 34.375 164.158 34.375C161.951 34.375 159.731 34.0048 157.65 33.3926L155.929 39.2842H146.602L158.876 4.33105H169.567L181.715 39.2842ZM159.743 26.4043C161.095 26.7739 162.563 27.0166 164.158 27.0166C165.753 27.0166 167.221 26.7739 168.573 26.4043L164.158 11.2041L159.743 26.4043Z" fill="black"/>
<path d="M265.384 39.2842H257.281V4.33105H265.384V39.2842Z" fill="black"/>
<path fill-rule="evenodd" clip-rule="evenodd" d="M294.729 4.33105L307.004 39.2842H297.677L295.954 33.3926C293.862 34.0047 291.655 34.375 289.447 34.375C287.24 34.375 285.021 34.0047 282.94 33.3926L281.218 39.2842H271.891L284.038 4.33105H294.729ZM285.021 26.4043C286.373 26.7739 287.841 27.0166 289.436 27.0166C290.903 27.0166 292.498 26.7739 293.851 26.4043L289.436 11.2041L285.021 26.4043Z" fill="black"/>
<path d="M332.998 20.2715L335.818 26.8896V4.33105H343.181V39.2842H333.854L323.301 19.6592L320.238 12.6709V39.2842H312.748V4.33105H324.537L332.998 20.2715Z" fill="black"/>
<path d="M200.854 4.08887C205.639 4.08887 209.685 5.07047 212.39 6.42188V14.3926C208.587 12.6716 204.658 11.4464 200.612 11.4463C197.295 11.4463 195.457 12.3013 195.457 14.2646C195.457 15.8586 196.682 16.9566 201.71 18.0654C210.623 19.9677 213.895 22.6718 214.091 28.415L187.112 14.3926C187.112 8.01666 191.77 4.08893 200.854 4.08887Z" fill="black"/>
</svg>
