<svg version="1.1" id="Layer_1" xmlns="http://www.w3.org/2000/svg" xmlns:xlink="http://www.w3.org/1999/xlink" x="0px"
     y="0px" viewBox="0 0 174.2 43.8" style="enable-background:new 0 0 174.2 43.8;" xml:space="preserve">
 <style type="text/css">
  .st0{fill:#000;}
	.st1{fill:none;}
 </style>
    <polyline class="st0" points="53.3,43.6 49.3,43.6 49.3,43 50.4,43 50.4,34.8 49.3,34.8 49.3,34.2 53.3,34.2 53.3,34.8 52.2,34.8
	52.2,43 53.3,43 53.3,43.6 ">
 </polyline>
    <polyline class="st0" points="68.9,43.8 67.9,43.8 62.9,36.8 62.9,43 64.1,43 64.1,43.6 60.8,43.6 60.8,43 62,43 62,35.5 61.5,34.8
	60.5,34.8 60.5,34.2 63.4,34.2 68,40.8 68,34.8 66.9,34.8 66.9,34.2 70.1,34.2 70.1,34.8 68.9,34.8 68.9,43.8 ">
 </polyline>
    <path class="st0" d="M78.7,43.8h-0.8v-2.6h0.8v1.1c0.6,0.5,1.1,0.7,1.8,0.7c0.9,0,1.5-0.5,1.5-1.3c0-0.6-0.4-1.1-1.7-2
	c-1.4-0.9-1.6-1-1.9-1.5c-0.4-0.4-0.5-1-0.5-1.6c0-1.6,1.2-2.6,2.9-2.6c0.6,0,1,0.1,1.5,0.3v-0.4h0.8v2.4h-0.8v-1
	c-0.6-0.4-1-0.5-1.5-0.5c-0.7,0-1.3,0.5-1.3,1.2c0,0.6,0.3,0.9,1.7,1.8c0.7,0.4,1.1,0.7,1.2,0.8c0.3,0.2,0.6,0.5,0.9,0.9
	c0.3,0.4,0.4,0.9,0.4,1.5c0,1.6-1.2,2.8-2.9,2.8c-0.8,0-1.4-0.2-2.1-0.6V43.8">
 </path>
    <polyline class="st0" points="97.4,43.6 92.8,43.6 92.8,43 94.2,43 94.2,35 91.7,35 91.7,36.2 91,36.2 91,33.8 91.7,33.8 91.7,34.2
	98.5,34.2 98.5,33.8 99.3,33.8 99.3,36.2 98.5,36.2 98.5,35 96.1,35 96.1,43 97.4,43 97.4,43.6 ">
 </polyline>
    <polyline class="st0" points="109.5,43.6 105.5,43.6 105.5,43 106.6,43 106.6,34.8 105.5,34.8 105.5,34.2 109.5,34.2 109.5,34.8
	108.4,34.8 108.4,43 109.5,43 109.5,43.6 ">
 </polyline>
    <polyline class="st0" points="121.9,43.6 117.3,43.6 117.3,43 118.7,43 118.7,35 116.2,35 116.2,36.2 115.4,36.2 115.4,33.8
	116.2,33.8 116.2,34.2 123,34.2 123,33.8 123.8,33.8 123.8,36.2 123,36.2 123,35 120.5,35 120.5,43 121.9,43 121.9,43.6 ">
 </polyline>
    <path class="st0" d="M140.7,34.8h-1.2v5.4c0,1.6-0.6,2.6-1.8,3.2c-0.6,0.3-1.3,0.4-2.1,0.4c-2.3,0-3.8-1.3-3.8-3.2v-5.8h-1.1v-0.6h4
	v0.6h-1.1v5.3c0,1.4,0.3,2.1,1,2.5c0.3,0.2,0.8,0.3,1.2,0.3c1.7,0,2.7-1,2.7-2.8v-5.3h-1.2v-0.6h3.3V34.8">
 </path>
    <polyline class="st0" points="153.8,43.6 149.2,43.6 149.2,43 150.6,43 150.6,35 148.1,35 148.1,36.2 147.4,36.2 147.4,33.8
	148.1,33.8 148.1,34.2 154.9,34.2 154.9,33.8 155.7,33.8 155.7,36.2 154.9,36.2 154.9,35 152.5,35 152.5,43 153.8,43 153.8,43.6 ">
 </polyline>
    <polyline class="st0" points="169.5,43.6 162.7,43.6 162.7,43 163.7,43 163.7,34.8 162.7,34.8 162.7,34.2 168.6,34.2 168.6,33.8
	169.3,33.8 169.3,36.1 168.6,36.1 168.6,35 165.6,35 165.6,38.4 167.9,38.4 167.9,37.4 168.7,37.4 168.7,40.2 167.9,40.2
	167.9,39.2 165.6,39.2 165.6,42.8 168.7,42.8 168.7,41.7 169.5,41.7 169.5,43.6 ">
 </polyline>
    <path class="st0" d="M47.6,27.1v-1.5h3V2.3h-3V0.8h12.1c3.6,0,6.6,2.9,6.6,6.5c0,3-2.6,5.6-5.8,5.9c1.6,0.2,2.2,0.4,3.2,0.8
	c2.5,1.2,3.9,3.5,3.9,6.2c0,3.9-3,6.8-7.1,6.8H47.6L47.6,27.1z M54.1,12.6h4.1c2.6,0,4.4-2.1,4.4-5c0-2.8-1.7-4.8-4.1-4.8h-4.4V12.6
	L54.1,12.6z M54.1,25.3h4.5c3.3,0,5.4-2,5.4-5.2c0-3.3-2.3-5.7-5.4-5.7h-4.5V25.3">
 </path>
    <path class="st0" d="M94.6,27.1h-3.4c-2.3,0-2.8-0.2-4.1-2.3l-5.9-9.4h-3.1v10.3h3v1.5h-9.5v-1.5h3V2.3h-3V0.8h11.1
	c3.9,0,6,1.1,7.2,3.5c0.5,1.1,0.8,2.3,0.8,3.5c0,3.9-2.1,6.3-6,6.9l5.7,8.8c1,1.5,1.6,1.9,2.6,1.9h1.5V27.1L94.6,27.1z M78.1,13.5
	h3.8c3,0,5.1-2.2,5.1-5.5c0-3.4-1.9-5.3-5.2-5.3h-3.7V13.5">
 </path>
    <path class="st0" d="M95.7,14c0-7.5,5.8-13.6,12.8-13.6c6.9,0,12.7,6.2,12.7,13.6c0,7.4-5.8,13.6-12.7,13.6
	C101.5,27.6,95.7,21.4,95.7,14L95.7,14z M99.6,14c0,6.7,3.7,11.6,8.9,11.6c5.1,0,8.8-4.9,8.8-11.6c0-6.7-3.7-11.5-8.7-11.5
	C103.3,2.4,99.6,7.2,99.6,14">
 </path>
    <path class="st0" d="M147,27.1h-9.1v-1.5h3.2l-2.8-7.2l-10.2,0l-2.9,7.2h3.3v1.5H121v-1.5h2.1L133.4,0h1.4l9.9,25.6h2.3V27.1
	L147,27.1z M137.7,16.5l-4.3-11.2l-4.5,11.2H137.7">
 </path>
    <path class="st0" d="M149.5,27.1v-1.5h3V2.3h-3V0.8h11.7c7.2,0,13,5.9,13,13.1c0,7.4-5.7,13.2-13,13.2H149.5L149.5,27.1z M156,25.1
	h4.8c5.4,0,9.6-4.8,9.5-11.1c0-6.1-4.2-11.1-9.5-11.1H156V25.1">
 </path>
    <path class="st1" d="M117.2,22.2c-2.2-1.4-4.4-2.7-6.7-3.9c-2.4,1.4-4.9,2.8-7.5,4c2.5,1.2,5,2.5,7.4,3.9
	C112.7,24.9,115,23.6,117.2,22.2z">
 </path>
    <path class="st1" d="M124.3,26.6c1.8-1.4,3.6-2.9,5.3-4.5c-1.7-1.5-3.4-3-5.3-4.4c-1.8,1.6-3.6,3-5.5,4.5
	C120.6,23.6,122.5,25.1,124.3,26.6z">
 </path>
    <path class="st1" d="M118,21.6c2-1.3,4-2.7,5.9-4.2c-1.9-1.5-3.9-2.9-5.9-4.2c-2,1.5-4.1,2.9-6.3,4.2C113.9,18.8,116,20.2,118,21.6z
	">
 </path>
    <path class="st1" d="M111.7,27c2.1,1.3,4.2,2.7,6.3,4.2c2-1.3,4-2.7,5.9-4.2c-1.9-1.5-3.9-2.9-5.9-4.2C116,24.2,113.9,25.6,111.7,27
	z">
 </path>
    <path class="st1" d="M124.3,26.6c1.8-1.4,3.6-2.9,5.3-4.5c-1.7-1.5-3.4-3-5.3-4.4c-1.8,1.6-3.6,3-5.5,4.5
	C120.6,23.6,122.5,25.1,124.3,26.6z">
 </path>
    <path class="st1" d="M111.7,27c2.1,1.3,4.2,2.7,6.3,4.2c2-1.3,4-2.7,5.9-4.2c-1.9-1.5-3.9-2.9-5.9-4.2C116,24.2,113.9,25.6,111.7,27
	z">
 </path>
    <path class="st1" d="M123.9,17.4c-1.9-1.5-3.9-2.9-5.9-4.2c-2,1.5-4.1,2.9-6.3,4.2c2.1,1.3,4.2,2.7,6.2,4.2
	C120,20.3,122,18.9,123.9,17.4z">
 </path>
    <path class="st1" d="M110.4,18.3c-2.4,1.4-4.9,2.8-7.5,4c2.5,1.2,5,2.5,7.4,3.9c2.3-1.2,4.6-2.5,6.8-4
	C115,20.8,112.7,19.5,110.4,18.3z">
 </path>
    <g>
  <path class="st0" d="M12.3,22.2c2.2,1.4,4.4,2.7,6.8,4c2.4-1.4,4.9-2.7,7.4-3.9c-2.5-1.2-5-2.5-7.5-4
		C16.7,19.5,14.5,20.8,12.3,22.2z">
  </path>
        <path class="st0" d="M17.7,17.5c-2.1-1.3-4.2-2.7-6.3-4.2c-2,1.3-4,2.7-5.9,4.2c1.9,1.5,3.9,2.9,5.9,4.2
		C13.5,20.2,15.5,18.8,17.7,17.5z">
  </path>
        <path class="st0" d="M11.5,22.8c-2,1.3-4,2.7-5.9,4.2c1.9,1.5,3.9,2.9,5.9,4.2c2-1.5,4.1-2.9,6.2-4.2
		C15.6,25.7,13.5,24.3,11.5,22.8z">
  </path>
        <path class="st0"
              d="M5.2,17.8c-1.8,1.4-3.6,2.9-5.2,4.4c1.7,1.6,3.5,3,5.3,4.5c1.8-1.5,3.6-3,5.5-4.4C8.8,20.8,7,19.3,5.2,17.8z">
  </path>
        <path class="st0" d="M0,22.2v-0.1C0,22.1,0,22.2,0,22.2C0,22.2,0,22.2,0,22.2z">
  </path>
        <path class="st0"
              d="M19,16.7c6.4-3.8,13.4-6.8,20.7-8.9v-7h0c-9.9,2.6-19.1,6.7-27.4,12C14.4,14.2,16.7,15.5,19,16.7z">
  </path>
        <path class="st0" d="M32.3,0.8H0v2.5c3.5,3.2,7.3,6.2,11.4,8.9C17.8,7.5,24.8,3.7,32.3,0.8z">
  </path>
        <path class="st0" d="M10.7,12.7C6.9,9.9,3.3,6.8,0,3.4v9.4c1.7,1.5,3.4,3,5.2,4.4C6.9,15.6,8.8,14.1,10.7,12.7z">
  </path>
        <path class="st0"
              d="M28.8,21.2c3.5-1.5,7.2-2.9,10.9-3.9v-7c-6.7,1.8-13.1,4.2-19.1,7.2C23.2,18.9,25.9,20.1,28.8,21.2z">
  </path>
        <path class="st0"
              d="M12.3,31.7c8.3,5.3,17.5,9.4,27.3,12v-7c-7.3-2.1-14.2-5.1-20.6-8.9C16.8,29,14.5,30.3,12.3,31.7z">
  </path>
        <path class="st0" d="M20.6,27c6,3,12.4,5.5,19.1,7.2v-7c-3.7-1.1-7.4-2.4-10.9-4C26,24.4,23.2,25.7,20.6,27z">
  </path>
        <path class="st0" d="M39.6,24.8v-5c-2.7,0.7-5.4,1.5-8.1,2.5C34.2,23.2,36.9,24.1,39.6,24.8z">
  </path>
        <path class="st0"
              d="M19,26.2c2.4-1.4,4.9-2.7,7.4-3.9c-2.5-1.2-5-2.5-7.5-4c-2.3,1.2-4.6,2.5-6.7,3.9C14.5,23.6,16.7,25,19,26.2z">
  </path>
        <path class="st0" d="M17.7,17.5c-2.1-1.3-4.2-2.7-6.3-4.2c-2,1.3-4,2.7-5.9,4.2c1.9,1.5,3.9,2.9,5.9,4.2
		C13.5,20.2,15.5,18.8,17.7,17.5z">
  </path>
        <path class="st0" d="M11.5,22.8c-2,1.3-4,2.7-5.9,4.2c1.9,1.5,3.9,2.9,5.9,4.2c2-1.5,4.1-2.9,6.2-4.2
		C15.6,25.7,13.5,24.3,11.5,22.8z">
  </path>
        <path class="st0" d="M0,41.1v2.6h32.4c-7.5-2.9-14.5-6.8-20.9-11.5C7.4,34.9,3.6,37.9,0,41.1z">
  </path>
        <path class="st0" d="M5.2,26.6c1.8-1.5,3.6-3,5.5-4.4c-1.9-1.4-3.7-2.9-5.5-4.5c-1.8,1.4-3.5,2.8-5.2,4.4v0.1
		C1.7,23.8,3.4,25.2,5.2,26.6z">
  </path>
        <path class="st0" d="M0,22.3v9.2c1.6-1.6,3.2-3.1,4.9-4.6C3.2,25.5,1.6,23.9,0,22.3z">
  </path>
        <path class="st0" d="M5.2,27.2c-1.8,1.4-3.5,2.9-5.2,4.4V41c3.4-3.4,6.9-6.5,10.7-9.3C8.8,30.3,7,28.8,5.2,27.2z">
  </path>
        <path class="st0" d="M0,12.9V22c1.6-1.6,3.2-3.1,4.8-4.5C3.2,16,1.6,14.5,0,12.9z">
  </path>
 </g>
</svg>