<svg version="1.1" id="Layer_1" xmlns:x="ns_extend;" xmlns:i="ns_ai;" xmlns:graph="ns_graphs;" xmlns="http://www.w3.org/2000/svg" xmlns:xlink="http://www.w3.org/1999/xlink" x="0px" y="0px" viewBox="0 0 1069.1 145" style="enable-background:new 0 0 1069.1 145;" xml:space="preserve">
 <style type="text/css">
  .st0{fill:none;}
	.st1{fill:#FFFFFF;}
 </style>
 <metadata>
  <sfw xmlns="ns_sfw;">
   <slices>
   </slices>
   <sliceSourceBounds bottomLeftOrigin="true" height="145" width="1069.1" x="-814.7" y="-204.1">
   </sliceSourceBounds>
  </sfw>
 </metadata>
 <g>
  <path class="st0" d="M111.4,109.1c-3.6,2-7.5,3.7-12.2,3.7c-5,0-9.2-1.5-12.5-4.4c3.2,2.9,7.5,4.4,12.5,4.4
		C103.9,112.8,107.9,111.1,111.4,109.1z">
  </path>
  <path class="st0" d="M324.8,41H303v26.3h21.8c8.3,0,14.6-5,14.6-13.2C339.5,46,333.2,41,324.8,41z">
  </path>
  <path class="st0" d="M131.6,102.5c1,0.3,2,0.6,2.9,1C133.6,103.1,132.6,102.8,131.6,102.5c-2.8-0.8-5.7-0.9-8.5,0.1
		c-0.2,0.1-0.3,0.1-0.5,0.2c0.2-0.1,0.3-0.1,0.5-0.2C125.9,101.6,128.8,101.7,131.6,102.5z">
  </path>
  <path class="st0" d="M60.9,105.4c-3.4,4.8-8.6,7.4-15.1,7.4c-4.5,0-8.3-1.5-11.7-3.3c3.4,1.9,7.2,3.3,11.7,3.3
		C52.3,112.8,57.5,110.1,60.9,105.4z">
  </path>
  <path class="st0" d="M230.2,79.7h-26.8v22.7h26.8c7.9,0,12.6-4.2,12.6-11.3C242.8,84.9,238.4,79.7,230.2,79.7z">
  </path>
  <path class="st0" d="M73,61.7c1.5,7.1,5.7,27.2,7.2,34.4C78.7,88.8,74.5,68.7,73,61.7z">
  </path>
  <path class="st0" d="M22.1,102.6c-0.1,0-0.1-0.1-0.2-0.1c-0.2-0.1-0.5-0.1-0.7-0.2c0.2,0.1,0.5,0.1,0.7,0.2
		C22,102.6,22,102.6,22.1,102.6z">
  </path>
  <path class="st0" d="M240.9,51.3c0-6.1-4.4-10.7-11.4-10.7h-26.1v21.2h26.1C236.5,61.8,240.9,57.4,240.9,51.3z">
  </path>
  <path class="st0" d="M72.5,59.2C72.5,59.2,72.5,59.2,72.5,59.2c-2.4,12.1-6.2,29.7-7.9,37.6c-0.5,2.5-1.4,4.8-2.5,6.8
		c1.1-2,1.9-4.2,2.5-6.8C66.3,88.9,70.1,71.3,72.5,59.2z">
  </path>
  <path class="st0" d="M94.8,99.9c-1.3-0.9-2.4-2.6-3-5.6c-0.6-2.6-1.4-6.3-2.2-10.5c0.9,4.2,1.7,7.9,2.2,10.5
		C92.4,97.3,93.5,99,94.8,99.9z">
  </path>
  <path class="st0" d="M20.7,102.2c0,0,0.1,0,0.1,0C20.8,102.2,20.8,102.2,20.7,102.2z">
  </path>
  <path class="st0" d="M82.8,51c0.7,3.8,1.7,8.9,2.9,14.3C84.6,59.9,83.6,54.8,82.8,51c-1.2-6.6-1.9-10.2-2.6-12.6
		c-0.2-0.8-0.5-1.4-0.8-2.1c0.3,0.6,0.6,1.3,0.8,2.1C80.9,40.8,81.6,44.4,82.8,51z">
  </path>
  <path class="st0" d="M119.5,91.4c-2.2,0.7-4.4,1.8-6.6,3.1c0,0-1.4,0.9-2.5,1.5c1.1-0.7,2.5-1.5,2.5-1.5
		C115.1,93.2,117.3,92.1,119.5,91.4z">
  </path>
  <path class="st0" d="M35,96.3c-1.1-0.7-2.9-1.8-2.9-1.8c-2.1-1.3-4.2-2.3-6.3-3c2.1,0.7,4.2,1.7,6.3,3C32.1,94.5,33.9,95.6,35,96.3
		z">
  </path>
  <path class="st0" d="M64.8,38.4c0.1-0.2,0.1-0.3,0.2-0.5C64.9,38.1,64.8,38.2,64.8,38.4c-0.7,2.4-1.4,6-2.6,12.6
		c-0.2,1.1-0.4,2.2-0.7,3.5c0.2-1.2,0.5-2.4,0.7-3.5C63.4,44.4,64.1,40.8,64.8,38.4z">
  </path>
  <path class="st0" d="M75.3,31.9c-0.6-0.2-1.2-0.4-1.8-0.5c0,0-0.1,0-0.3,0c0.2,0,0.3,0,0.3,0C74.1,31.5,74.7,31.7,75.3,31.9z">
  </path>
  <path class="st0" d="M641.1,41h-17.7v61h17.7c19.3,0,30.6-13.9,30.6-30.4C671.7,54.3,661.1,41,641.1,41z">
  </path>
  <polygon class="st0" points="518.7,85.5 549.2,85.5 534,43.5 	">
  </polygon>
  <path class="st0" d="M1059.1,27.7l-2.3,0l0,2.7l2.3,0c0.9,0,1.5-0.5,1.5-1.4C1060.6,28.2,1060,27.7,1059.1,27.7z">
  </path>
  <path class="st0" d="M1058.4,22.2c-4.7,0-8.6,3.9-8.6,8.6c0,4.7,3.9,8.6,8.6,8.6c4.7,0,8.6-3.9,8.6-8.6
		C1067,26.1,1063.2,22.2,1058.4,22.2z M1060.5,35.9l-2-3.6l-1.6,0l0,3.6l-2.2,0l-0.1-10.1l4.7,0c2.1,0,3.4,1.3,3.4,3.2
		c0,1.8-1.1,2.8-2.2,3l2.3,3.8L1060.5,35.9z">
  </path>
  <path class="st0" d="M426.6,40.5c-17.3,0-31.3,14-31.3,31.3c0,17.3,14,31.3,31.3,31.3c17.3,0,31.3-14,31.3-31.3
		C457.9,54.5,443.9,40.5,426.6,40.5z">
  </path>
  <path class="st0" d="M867.4,40.5c-17.3,0-31.3,14-31.3,31.3c0,17.3,14,31.3,31.3,31.3c17.3,0,31.3-14,31.3-31.3
		C898.7,54.5,884.7,40.5,867.4,40.5z">
  </path>
  <path class="st1" d="M1058.4,20.1c-5.9,0-10.7,4.8-10.7,10.7c0,5.9,4.8,10.7,10.7,10.7c5.9,0,10.7-4.8,10.7-10.7
		C1069.1,24.9,1064.3,20.1,1058.4,20.1z M1058.4,39.4c-4.7,0-8.6-3.9-8.6-8.6c0-4.7,3.9-8.6,8.6-8.6c4.7,0,8.6,3.9,8.6,8.6
		C1067,35.6,1063.2,39.4,1058.4,39.4z">
  </path>
  <path class="st1" d="M1062.8,29c0-1.9-1.3-3.2-3.4-3.2l-4.7,0l0.1,10.1l2.2,0l0-3.6l1.6,0l2,3.6l2.5,0l-2.3-3.8
		C1061.8,31.8,1062.9,30.8,1062.8,29z M1059.1,30.4l-2.3,0l0-2.7l2.3,0c0.9,0,1.5,0.5,1.5,1.3C1060.7,29.9,1060,30.4,1059.1,30.4z">
  </path>
  <path class="st1" d="M867.4,20.3C839,20.3,816,43.4,816,71.8c0,28.4,23.1,51.5,51.5,51.5c28.4,0,51.5-23,51.5-51.5
		C918.9,43.4,895.9,20.3,867.4,20.3z M867.4,103.1c-17.3,0-31.3-14-31.3-31.3c0-17.3,14-31.3,31.3-31.3c17.3,0,31.3,14,31.3,31.3
		C898.7,89.1,884.7,103.1,867.4,103.1z">
  </path>
  <path class="st1" d="M245.3,70c9.2-1.9,16.8-10.1,16.8-22.4c0-13-9.5-24.9-28.1-24.9h-51.4v97.6h53c18.6,0,28.4-11.7,28.4-26.4
		C264,81.7,255.7,71.6,245.3,70z M203.4,40.6h26.1c7,0,11.4,4.5,11.4,10.7c0,6.2-4.4,10.5-11.4,10.5h-26.1V40.6z M230.2,102.3h-26.8
		V79.7h26.8c8.2,0,12.6,5.3,12.6,11.4C242.8,98.1,238.1,102.3,230.2,102.3z">
  </path>
  <path class="st1" d="M360.7,54.2c0-18.2-12.4-31.5-32.8-31.5h-45.7v97.6H303V85.7h15.2l19.2,34.7h23.9l-22-37.2
		C349.9,80.7,360.7,71.4,360.7,54.2z M324.8,67.4H303V41h21.8c8.3,0,14.6,5,14.6,13.2C339.5,62.4,333.2,67.4,324.8,67.4z">
  </path>
  <path class="st1" d="M520.9,22.7l-37.8,97.6h23.7l6.2-16.5h41.9l6,16.5h23.7L547,22.7H520.9z M518.7,85.5l15.2-42l15.2,42H518.7z">
  </path>
  <path class="st1" d="M641.1,22.7h-38.5v97.6h38.5c30.6,0,51.8-19.3,51.8-48.7S671.7,22.7,641.1,22.7z M641.1,102h-17.7V41h17.7
		c20.1,0,30.6,13.3,30.6,30.6C671.7,88.1,660.4,102,641.1,102z">
  </path>
  <path class="st1" d="M982.2,64.1l-25.6-41.4h-23v97.7h20.8V56.5l22.4,34c2.6,3.9,8.3,3.9,10.8,0l22.4-34v63.8h20.8V22.7h-23
		L982.2,64.1z">
  </path>
  <path class="st1" d="M426.6,20.3c-28.4,0-51.5,23.1-51.5,51.5c0,28.4,23,51.5,51.5,51.5c28.4,0,51.5-23,51.5-51.5
		C478.1,43.4,455,20.3,426.6,20.3z M426.6,103.1c-17.3,0-31.3-14-31.3-31.3c0-17.3,14-31.3,31.3-31.3c17.3,0,31.3,14,31.3,31.3
		C457.9,89.1,443.9,103.1,426.6,103.1z">
  </path>
  <path class="st1" d="M759,103.1c-17.3,0-31.3-14-31.3-31.3c0-17.3,14-31.3,31.3-31.3c11.7,0,21.9,6.4,27.2,15.9l14.6-14.6
		c-9.3-13-24.6-21.5-41.8-21.5c-28.4,0-51.5,23.1-51.5,51.5c0,28.4,23,51.5,51.5,51.5c17.3,0,32.7-8.6,42-21.7l-14.6-14.6
		C781.1,96.5,770.8,103.1,759,103.1z">
  </path>
  <path class="st1" d="M72.5,0C32.5,0,0,32.5,0,72.5c0,7.6,1.2,15,3.4,21.9c1.7-0.8,3.4-1.6,5.2-2.3c4.2-1.7,8.3-2.2,12.2-1.7
		c1.7,0.2,3.3,0.6,5,1.2c2.1,0.7,4.2,1.7,6.3,3c0,0,1.8,1.1,2.9,1.8c0.3,0.2,0.5,0.3,0.7,0.4c3.5,2.2,6.9,4.3,10.1,4.3
		c3.1,0,6.1-0.8,7.4-6.8c1.8-8.4,6-27.8,8.3-39.8c0.2-1.2,0.5-2.4,0.7-3.5c1.2-6.6,1.9-10.2,2.6-12.6c0.1-0.2,0.1-0.3,0.2-0.5
		c1.3-3.9,3.5-6.1,6.6-6.5c0,0,0.6-0.1,1-0.1c0.2,0,0.5,0,0.6,0c0.2,0,0.3,0,0.3,0c0.7,0.1,1.3,0.3,1.8,0.5c1.8,0.7,3.2,2.2,4.2,4.4
		c0.3,0.6,0.6,1.3,0.8,2.1c0.7,2.4,1.4,6,2.6,12.6c0.7,3.8,1.7,8.9,2.9,14.3c1.3,6.2,2.7,12.8,3.9,18.4c0.9,4.2,1.7,7.9,2.2,10.5
		c0.6,3,1.7,4.7,3,5.6c1.3,0.9,2.8,1.1,4.3,1.1c3.2,0,6.6-2.1,10.1-4.3c0.2-0.1,0.6-0.4,1.1-0.7c1.1-0.7,2.5-1.5,2.5-1.5
		c2.2-1.3,4.4-2.4,6.6-3.1c1.6-0.5,3.2-0.9,4.8-1.1c3.9-0.5,7.9,0.1,12.1,1.7c1.8,0.7,3.5,1.5,5.2,2.3c2.2-6.9,3.4-14.3,3.4-21.9
		C145,32.5,112.5,0,72.5,0z">
  </path>
  <path class="st1" d="M131.6,102.5c-2.8-0.8-5.7-0.9-8.5,0.1c-0.2,0.1-0.3,0.1-0.5,0.2c-2.6,0.9-4.8,2.5-7.1,3.9
		c-1.3,0.8-2.7,1.7-4.1,2.5c-3.6,2-7.5,3.7-12.2,3.7c-5,0-9.2-1.5-12.5-4.4c-3.1-2.7-5.3-6.6-6.3-11.6c0-0.2-0.1-0.5-0.2-0.7
		c-1.5-7.2-5.7-27.3-7.2-34.4c-0.3-1.6-0.5-2.5-0.5-2.5c-2.4,12.1-6.2,29.7-7.9,37.6c-0.5,2.5-1.4,4.8-2.5,6.8
		c-0.4,0.7-0.8,1.3-1.2,1.8c-3.4,4.8-8.6,7.4-15.1,7.4c-4.4,0-8.3-1.5-11.7-3.3c-1.6-0.9-3.2-1.9-4.7-2.8c-2.4-1.5-4.7-3.1-7.4-4
		c-0.1,0-0.1-0.1-0.2-0.1c-0.2-0.1-0.5-0.1-0.7-0.2c-0.1,0-0.2-0.1-0.4-0.1c0,0-0.1,0-0.1,0c-0.3-0.1-0.6-0.1-1-0.2
		c-2.1-0.3-4.3-0.2-6.4,0.5c-2,0.6-3.9,1.4-5.7,2.3C19.5,128.6,43.5,145,72,145c28.4,0,53.5-16.4,65.4-40.2
		c-0.9-0.4-1.8-0.9-2.8-1.3c0,0,0,0,0,0C133.6,103.1,132.6,102.8,131.6,102.5z">
  </path>
  <path class="st1" d="M71.5,31.5c0,0,0.6-0.1,1-0.1c0.2,0,0.4,0,0.6,0c-0.2,0-0.4,0-0.6,0C72.1,31.4,71.5,31.5,71.5,31.5
		c-3.1,0.4-5.3,2.5-6.6,6.5C66.2,34,68.4,31.8,71.5,31.5z">
  </path>
  <path class="st1" d="M20.8,90.4c1.7,0.2,3.3,0.6,5,1.2C24.1,90.9,22.5,90.6,20.8,90.4z">
  </path>
  <path class="st1" d="M109.3,96.7c0.2-0.2,0.6-0.4,1.1-0.7C109.9,96.3,109.5,96.6,109.3,96.7c-3.6,2.2-6.9,4.3-10.1,4.3
		c-1.5,0-3.1-0.2-4.3-1.1c1.3,0.9,2.8,1.2,4.4,1.2C102.4,101.1,105.7,98.9,109.3,96.7z">
  </path>
  <path class="st1" d="M79.4,36.3c-1-2.2-2.4-3.7-4.2-4.4C77,32.7,78.4,34.1,79.4,36.3z">
  </path>
  <path class="st1" d="M85.7,65.4c1.3,6.2,2.7,12.8,3.9,18.4C88.4,78.1,87,71.5,85.7,65.4z">
  </path>
  <path class="st1" d="M124.3,90.3c-1.6,0.2-3.2,0.6-4.8,1.1C121.1,90.9,122.7,90.5,124.3,90.3z">
  </path>
  <path class="st1" d="M45.8,101.1c3.1,0,6.1-0.8,7.4-6.8c1.8-8.4,6-27.8,8.3-39.8c-2.3,12-6.5,31.4-8.3,39.8
		C51.9,100.2,48.9,101,45.8,101.1c-3.2,0-6.6-2.1-10.1-4.3c-0.2-0.1-0.4-0.3-0.7-0.4c0.3,0.2,0.5,0.3,0.7,0.4
		C39.3,98.9,42.6,101.1,45.8,101.1z">
  </path>
  <path class="st1" d="M122.6,102.7c-2.6,0.9-4.8,2.5-7.1,3.9c-1.3,0.8-2.7,1.7-4.1,2.5c1.4-0.8,2.8-1.6,4.1-2.5
		C117.8,105.2,120.1,103.7,122.6,102.7z">
  </path>
  <path class="st1" d="M34.1,109.4c-1.6-0.9-3.2-1.9-4.7-2.8c-2.4-1.5-4.7-3.1-7.4-4c2.7,0.9,5,2.5,7.4,4
		C31,107.6,32.5,108.5,34.1,109.4z">
  </path>
  <path class="st1" d="M134.6,103.6C134.6,103.6,134.6,103.5,134.6,103.6C134.6,103.5,134.6,103.6,134.6,103.6z">
  </path>
  <path class="st1" d="M86.7,108.3c-3.1-2.7-5.3-6.6-6.3-11.6c0-0.2-0.1-0.5-0.2-0.7c0.1,0.3,0.1,0.5,0.2,0.7
		C81.4,101.7,83.6,105.6,86.7,108.3z">
  </path>
  <path class="st1" d="M20.8,102.3c0.1,0,0.2,0.1,0.4,0.1C21.1,102.3,21,102.3,20.8,102.3z">
  </path>
  <path class="st1" d="M19.8,102c0.3,0.1,0.6,0.1,1,0.2C20.4,102.2,20.1,102.1,19.8,102z">
  </path>
  <path class="st1" d="M72.5,59.2C72.5,59.2,72.5,59.2,72.5,59.2c0,0,0.2,0.9,0.5,2.5C72.7,60.1,72.5,59.2,72.5,59.2z">
  </path>
  <path class="st1" d="M60.9,105.4c0.4-0.6,0.8-1.2,1.2-1.8C61.8,104.2,61.4,104.8,60.9,105.4z">
  </path>
 </g>
</svg>