<svg version="1.1" id="Layer_1" xmlns="http://www.w3.org/2000/svg" xmlns:xlink="http://www.w3.org/1999/xlink" x="0px" y="0px" viewBox="0 0 174.2 43.8" style="enable-background:new 0 0 174.2 43.8;" xml:space="preserve">
 <style type="text/css">
  .st0{clip-path:url(#SVGID_2_);fill:#FFFFFF;}
 </style>
 <polyline points="53.3,43.6 49.3,43.6 49.3,43 50.4,43 50.4,34.8 49.3,34.8 49.3,34.2 53.3,34.2 53.3,34.8 52.2,34.8 52.2,43 
	53.3,43 53.3,43.6 ">
 </polyline>
 <polyline points="68.9,43.8 67.9,43.8 62.9,36.8 62.9,43 64.1,43 64.1,43.6 60.8,43.6 60.8,43 62,43 62,35.5 61.5,34.8 60.5,34.8 
	60.5,34.2 63.4,34.2 68,40.8 68,34.8 66.9,34.8 66.9,34.2 70.1,34.2 70.1,34.8 68.9,34.8 68.9,43.8 ">
 </polyline>
 <path d="M78.7,43.8h-0.8v-2.6h0.8v1.1c0.6,0.5,1.1,0.7,1.8,0.7c0.9,0,1.5-0.5,1.5-1.3c0-0.6-0.4-1.1-1.7-2c-1.4-0.9-1.6-1-1.9-1.5
	c-0.4-0.4-0.5-1-0.5-1.6c0-1.6,1.2-2.6,2.9-2.6c0.6,0,1,0.1,1.5,0.3v-0.4h0.8v2.4h-0.8v-1c-0.6-0.4-1-0.5-1.5-0.5
	c-0.7,0-1.3,0.5-1.3,1.2c0,0.6,0.3,0.9,1.7,1.8c0.7,0.4,1.1,0.7,1.2,0.8c0.3,0.2,0.6,0.5,0.9,0.9c0.3,0.4,0.4,0.9,0.4,1.5
	c0,1.6-1.2,2.8-2.9,2.8c-0.8,0-1.4-0.2-2.1-0.6V43.8">
 </path>
 <polyline points="97.4,43.6 92.8,43.6 92.8,43 94.2,43 94.2,35 91.7,35 91.7,36.2 91,36.2 91,33.8 91.7,33.8 91.7,34.2 98.5,34.2 
	98.5,33.8 99.3,33.8 99.3,36.2 98.5,36.2 98.5,35 96.1,35 96.1,43 97.4,43 97.4,43.6 ">
 </polyline>
 <polyline points="109.5,43.6 105.5,43.6 105.5,43 106.6,43 106.6,34.8 105.5,34.8 105.5,34.2 109.5,34.2 109.5,34.8 108.4,34.8 
	108.4,43 109.5,43 109.5,43.6 ">
 </polyline>
 <polyline points="121.9,43.6 117.3,43.6 117.3,43 118.7,43 118.7,35 116.2,35 116.2,36.2 115.4,36.2 115.4,33.8 116.2,33.8 
	116.2,34.2 123,34.2 123,33.8 123.8,33.8 123.8,36.2 123,36.2 123,35 120.5,35 120.5,43 121.9,43 121.9,43.6 ">
 </polyline>
 <path d="M140.7,34.8h-1.2v5.4c0,1.6-0.6,2.6-1.8,3.2c-0.6,0.3-1.3,0.4-2.1,0.4c-2.3,0-3.8-1.3-3.8-3.2v-5.8h-1.1v-0.6h4v0.6h-1.1
	v5.3c0,1.4,0.3,2.1,1,2.5c0.3,0.2,0.8,0.3,1.2,0.3c1.7,0,2.7-1,2.7-2.8v-5.3h-1.2v-0.6h3.3V34.8">
 </path>
 <polyline points="153.8,43.6 149.2,43.6 149.2,43 150.6,43 150.6,35 148.1,35 148.1,36.2 147.4,36.2 147.4,33.8 148.1,33.8 
	148.1,34.2 154.9,34.2 154.9,33.8 155.7,33.8 155.7,36.2 154.9,36.2 154.9,35 152.5,35 152.5,43 153.8,43 153.8,43.6 ">
 </polyline>
 <polyline points="169.5,43.6 162.7,43.6 162.7,43 163.7,43 163.7,34.8 162.7,34.8 162.7,34.2 168.6,34.2 168.6,33.8 169.3,33.8 
	169.3,36.1 168.6,36.1 168.6,35 165.6,35 165.6,38.4 167.9,38.4 167.9,37.4 168.7,37.4 168.7,40.2 167.9,40.2 167.9,39.2 
	165.6,39.2 165.6,42.8 168.7,42.8 168.7,41.7 169.5,41.7 169.5,43.6 ">
 </polyline>
 <path d="M47.6,27.1v-1.5h3V2.3h-3V0.8h12.1c3.6,0,6.6,2.9,6.6,6.5c0,3-2.6,5.6-5.8,5.9c1.6,0.2,2.2,0.4,3.2,0.8
	c2.5,1.2,3.9,3.5,3.9,6.2c0,3.9-3,6.8-7.1,6.8H47.6L47.6,27.1z M54.1,12.6h4.1c2.6,0,4.4-2.1,4.4-5c0-2.8-1.7-4.8-4.1-4.8h-4.4V12.6
	L54.1,12.6z M54.1,25.3h4.5c3.3,0,5.4-2,5.4-5.2c0-3.3-2.3-5.7-5.4-5.7h-4.5V25.3">
 </path>
 <path d="M94.6,27.1h-3.4c-2.3,0-2.8-0.2-4.1-2.3l-5.9-9.4h-3.1v10.3h3v1.5h-9.5v-1.5h3V2.3h-3V0.8h11.1c3.9,0,6,1.1,7.2,3.5
	c0.5,1.1,0.8,2.3,0.8,3.5c0,3.9-2.1,6.3-6,6.9l5.7,8.8c1,1.5,1.6,1.9,2.6,1.9h1.5V27.1L94.6,27.1z M78.1,13.5h3.8
	c3,0,5.1-2.2,5.1-5.5c0-3.4-1.9-5.3-5.2-5.3h-3.7V13.5">
 </path>
 <path d="M95.7,14c0-7.5,5.8-13.6,12.8-13.6c6.9,0,12.7,6.2,12.7,13.6c0,7.4-5.8,13.6-12.7,13.6C101.5,27.6,95.7,21.4,95.7,14
	L95.7,14z M99.6,14c0,6.7,3.7,11.6,8.9,11.6c5.1,0,8.8-4.9,8.8-11.6c0-6.7-3.7-11.5-8.7-11.5C103.3,2.4,99.6,7.2,99.6,14">
 </path>
 <path d="M147,27.1h-9.1v-1.5h3.2l-2.8-7.2l-10.2,0l-2.9,7.2h3.3v1.5H121v-1.5h2.1L133.4,0h1.4l9.9,25.6h2.3V27.1L147,27.1z
	 M137.7,16.5l-4.3-11.2l-4.5,11.2H137.7">
 </path>
 <path d="M149.5,27.1v-1.5h3V2.3h-3V0.8h11.7c7.2,0,13,5.9,13,13.1c0,7.4-5.7,13.2-13,13.2H149.5L149.5,27.1z M156,25.1h4.8
	c5.4,0,9.6-4.8,9.5-11.1c0-6.1-4.2-11.1-9.5-11.1H156V25.1">
 </path>
 <g>
  <defs>
   <polyline id="SVGID_1_" points="0,0.8 39.6,0.8 39.6,43.7 0,43.7 0,0.8 		">
   </polyline>
  </defs>
  <use href="#SVGID_1_" style="overflow:visible;fill:#00609F;">
  </use>
  <clipPath id="SVGID_2_">
   <use xlink:href="#SVGID_1_" style="overflow:visible;">
   </use>
  </clipPath>
  <path class="st0" d="M130.8,32.8c-2-2.1-4-4-6.2-5.9c1.7-1.5,3.4-3.1,5-4.7c0.4,0.4,0.8,0.7,1.2,1.1c-0.4-0.4-0.8-0.8-1.1-1.2
		c0.2-0.2,0.3-0.3,0.5-0.5c-0.2,0.1-0.3,0.3-0.5,0.4c-1.6-1.6-3.3-3.2-5-4.7c1.9-1.7,3.7-3.4,5.5-5.2c-1.8,1.7-3.8,3.4-5.8,4.9
		c-1.8-1.5-3.6-3-5.5-4.4c4-3,7.8-6.3,11.3-10c-3.7,3.5-7.7,6.6-12,9.4C102.9,1.2,84.6-5.3,64.7-5.3c-19.8,0-38.2,6.5-53.3,17.5
		C7,9.3,2.8,6-1,2.4c3.6,3.8,7.5,7.2,11.6,10.3c-1.9,1.4-3.7,2.9-5.5,4.4C3,15.5,1,13.7-1,11.9c1.9,1.9,3.8,3.8,5.8,5.6
		c-1.7,1.5-3.4,3.1-5,4.7c-0.3-0.3-0.6-0.5-0.8-0.8c0.3,0.3,0.5,0.5,0.8,0.8C-0.4,22.4-0.7,22.7-1,23c0.3-0.3,0.6-0.5,0.9-0.8
		c1.6,1.6,3.3,3.2,5,4.7c-2,1.8-4,3.6-5.8,5.5c2-1.8,4-3.6,6.2-5.2c1.8,1.6,3.6,3.1,5.5,4.5C6.6,34.8,2.6,38.2-1,42
		c3.8-3.6,8-6.8,12.5-9.7c15.1,11,33.4,17.5,53.2,17.5c19.8,0,38.2-6.5,53.2-17.5c4.6,3,8.9,6.4,12.8,10.1c-3.7-3.9-7.8-7.4-12-10.6
		c1.9-1.4,3.7-2.9,5.5-4.5C126.5,29,128.7,30.8,130.8,32.8z M129.5,22.1c-1.7,1.6-3.5,3-5.3,4.5c-1.8-1.5-3.6-3-5.5-4.4
		c1.9-1.4,3.7-2.9,5.5-4.5C126.1,19.1,127.8,20.6,129.5,22.1z M123.9,17.4c-1.9,1.5-3.9,2.9-5.9,4.2c-2-1.5-4.1-2.9-6.2-4.2
		c2.1-1.3,4.2-2.7,6.3-4.2C120,14.6,122,16,123.9,17.4z M64.7,13.7c-12.8,0-24.9,2.7-36,7.5c-2.8-1.1-5.6-2.4-8.3-3.7
		C33.7,10.8,48.7,7.1,64.7,7.1c16,0,31,3.8,44.2,10.4c-2.7,1.4-5.4,2.6-8.2,3.7C89.6,16.4,77.5,13.7,64.7,13.7z M97.9,22.3
		C87.6,26,76.4,28,64.7,28c-11.7,0-22.8-2-33.1-5.7c10.3-3.7,21.5-5.7,33.2-5.7C76.4,16.6,87.6,18.6,97.9,22.3z M26.5,22.3
		c-2.5,1.2-5,2.5-7.4,3.9c-2.3-1.2-4.6-2.6-6.8-4c2.2-1.4,4.4-2.7,6.7-3.9C21.4,19.7,23.9,21.1,26.5,22.3z M28.8,23.3
		c11.1,4.8,23.2,7.5,35.9,7.5c12.7,0,24.9-2.7,35.9-7.5c2.8,1.1,5.6,2.3,8.2,3.7c-13.1,6.7-28.2,10.5-44.2,10.5
		c-16,0-31-3.8-44.1-10.5C23.2,25.7,26,24.4,28.8,23.3z M103,22.3c2.5-1.2,5-2.5,7.5-4c2.3,1.2,4.6,2.5,6.7,3.9
		c-2.2,1.4-4.4,2.7-6.8,4C108,24.8,105.5,23.4,103,22.3z M64.7-2.4c19.4,0,37.5,5.6,52.5,15.2c-2.2,1.4-4.4,2.7-6.8,4
		C96.9,8.7,81.3,4.2,64.7,4.2C48.1,4.2,32.5,8.8,19,16.7c-2.3-1.2-4.6-2.6-6.8-4C27.2,3.2,45.3-2.4,64.7-2.4z M11.4,13.3
		c2,1.5,4.1,2.9,6.3,4.2c-2.1,1.3-4.2,2.7-6.2,4.2c-2-1.3-4-2.7-5.9-4.2C7.4,16,9.4,14.6,11.4,13.3z M-0.1,22.2
		c1.7-1.5,3.4-3,5.2-4.4c1.8,1.6,3.6,3.1,5.5,4.5c-1.9,1.4-3.7,2.9-5.5,4.4C3.4,25.2,1.6,23.7-0.1,22.2z M5.6,26.9
		c1.9-1.5,3.9-2.8,5.9-4.2c2,1.5,4.1,2.9,6.3,4.2c-2.1,1.3-4.2,2.7-6.2,4.2C9.4,29.8,7.5,28.4,5.6,26.9z M64.7,46.9
		c-19.4,0-37.5-5.6-52.4-15.2c2.2-1.4,4.4-2.7,6.7-3.9c13.5,8,29,12.5,45.6,12.5c16.6,0,32.2-4.6,45.7-12.5c2.3,1.2,4.6,2.5,6.7,3.9
		C102.2,41.3,84.2,46.9,64.7,46.9z M118,31.1c-2-1.5-4.1-2.9-6.3-4.2c2.1-1.3,4.2-2.7,6.3-4.2c2,1.3,4,2.7,5.9,4.2
		C122,28.4,120,29.8,118,31.1z">
  </path>
 </g>
</svg>