<svg width="292" height="60" viewBox="0 0 292 60" fill="none" xmlns="http://www.w3.org/2000/svg"
     xmlns:xlink="http://www.w3.org/1999/xlink">
    <path d="M49.0128 23.5807C49.019 23.0642 49.2241 22.5705 49.5843 22.2053C49.9445 21.84 50.4313 21.632 50.9407 21.6258H53.5826C54.092 21.632 54.5788 21.84 54.939 22.2053C55.2992 22.5705 55.5043 23.0642 55.5105 23.5807V42.6964C55.5105 46.4133 56.3322 49.1889 57.9756 51.0232C59.619 52.8575 62.0104 53.777 65.1499 53.7816C68.1512 53.7816 70.5075 52.8621 72.2189 51.0232C73.9303 49.1843 74.7915 46.4087 74.8026 42.6964V23.5807C74.8108 23.0647 75.0164 22.5721 75.3766 22.2072C75.7361 21.8423 76.2221 21.6337 76.731 21.6258H79.3725C79.8829 21.6302 80.3703 21.8376 80.7313 22.2033C81.0915 22.569 81.2964 23.0636 81.3008 23.5807V57.3227C81.2964 57.8398 81.0915 58.3344 80.7313 58.7001C80.3703 59.0658 79.8829 59.2732 79.3725 59.2777H76.731C76.2221 59.2697 75.7361 59.0611 75.3766 58.6962C75.0164 58.3313 74.8108 57.8387 74.8026 57.3227V55.0781C73.7329 56.4308 72.4257 57.5717 70.9472 58.4433C69.2721 59.4777 66.9827 59.9949 64.0789 59.9949C61.9801 60.0199 59.8959 59.6384 57.9382 58.8708C56.1116 58.1642 54.4609 57.0583 53.1034 55.6317C51.7459 54.205 50.7149 52.4927 50.0838 50.6164C49.3396 48.4208 48.9772 46.1108 49.0128 43.7894V23.5807Z"
          fill="#000">
    </path>
    <path d="M95.6392 13.9507C95.6333 14.4673 95.4284 14.9609 95.0682 15.3262C94.708 15.6916 94.2212 15.8995 93.7116 15.9058H89.6314C89.1255 15.8942 88.6439 15.6839 88.2881 15.3191C87.9323 14.9544 87.7297 14.4638 87.7238 13.9507V9.81319C87.7297 9.29667 87.9353 8.80299 88.2955 8.43773C88.6558 8.07246 89.1425 7.86448 89.6514 7.85815H93.7323C94.2412 7.86448 94.7279 8.07246 95.0882 8.43773C95.4484 8.80299 95.6533 9.29667 95.6599 9.81319L95.6392 13.9507ZM94.9254 57.323C94.9195 57.8395 94.7139 58.3331 94.3536 58.6984C93.9934 59.0637 93.5067 59.2717 92.9978 59.2779H90.3556C89.8459 59.2717 89.3592 59.0637 88.999 58.6984C88.6388 58.3331 88.4339 57.8395 88.4279 57.323V23.581C88.4339 23.0644 88.6388 22.5708 88.999 22.2055C89.3592 21.8402 89.8459 21.6322 90.3556 21.626H92.9978C93.5067 21.6322 93.9934 21.8402 94.3536 22.2055C94.7139 22.5708 94.9195 23.0644 94.9254 23.581V57.323Z"
          fill="#000">
    </path>
    <path d="M108.563 57.3229C108.557 57.8395 108.353 58.3331 107.992 58.6983C107.632 59.0637 107.145 59.2717 106.636 59.2779H103.994C103.485 59.2717 102.998 59.0637 102.638 58.6983C102.277 58.3331 102.072 57.8395 102.066 57.3229V9.82348C102.072 9.30688 102.277 8.81328 102.638 8.44801C102.998 8.08267 103.485 7.87469 103.994 7.86844H106.636C107.145 7.87469 107.632 8.08267 107.992 8.44801C108.353 8.81328 108.557 9.30688 108.563 9.82348V57.3229Z"
          fill="#000">
    </path>
    <path d="M130.128 20.9018C133.075 20.9018 135.431 21.4202 137.197 22.4569C138.734 23.3038 140.092 24.4483 141.195 25.8255V9.82348C141.202 9.30688 141.407 8.81328 141.767 8.44801C142.127 8.08267 142.614 7.87469 143.124 7.86844H145.765C146.275 7.87469 146.762 8.08267 147.122 8.44801C147.482 8.81328 147.687 9.30688 147.694 9.82348V57.3228C147.687 57.8394 147.482 58.333 147.122 58.6983C146.762 59.0636 146.275 59.2716 145.765 59.2779H143.124C142.614 59.2716 142.127 59.0636 141.767 58.6983C141.407 58.333 141.202 57.8394 141.195 57.3228V55.0782C140.095 56.5112 138.703 57.6872 137.115 58.5262C135.361 59.5054 133.031 59.995 130.128 59.995C127.989 60.0133 125.867 59.6069 123.882 58.7986C121.983 58.0206 120.267 56.8458 118.846 55.3506C117.371 53.78 116.208 51.9363 115.419 49.9201C114.523 47.6344 114.011 45.2125 113.906 42.7551C113.858 42.031 113.834 41.246 113.834 40.4002C113.834 39.5543 113.858 38.7704 113.906 38.0486C114.006 35.591 114.514 33.1679 115.405 30.8802C116.196 28.8813 117.365 27.0586 118.846 25.5152C120.276 24.0419 121.991 22.8835 123.882 22.1121C125.866 21.299 127.988 20.8879 130.128 20.9018ZM141.195 43.5654C141.243 42.8413 141.267 41.8874 141.267 40.7036C141.267 39.5197 141.243 38.567 141.195 37.8452C141.053 34.4179 140.041 31.7745 138.163 29.9149C136.283 28.0553 133.843 27.1266 130.842 27.1289C127.711 27.1289 125.239 28.1426 123.426 30.17C121.613 32.1974 120.613 34.9489 120.427 38.4245C120.38 39.7761 120.38 41.1277 120.427 42.4793C120.618 45.9548 121.617 48.7063 123.426 50.7337C125.235 52.7612 127.707 53.7794 130.842 53.7887C133.789 53.7887 136.216 52.8692 138.125 51.0303C140.034 49.1914 141.057 46.7031 141.195 43.5654Z"
          fill="#000">
    </path>
    <path d="M153.119 36.8314C153.297 34.6796 153.834 32.574 154.707 30.6043C155.526 28.7298 156.662 27.0146 158.063 25.5358C159.469 24.0693 161.158 22.911 163.024 22.1327C165.074 21.2885 167.271 20.8699 169.484 20.9017C171.84 20.8611 174.18 21.291 176.373 22.1672C178.343 22.9796 180.108 24.2298 181.537 25.8255C183.015 27.5054 184.134 29.4778 184.822 31.6181C185.61 34.066 185.996 36.6287 185.965 39.2036V41.1587C185.959 41.6752 185.753 42.1689 185.393 42.5341C185.033 42.8994 184.546 43.1074 184.037 43.1136H159.467V43.5481C159.563 46.8306 160.549 49.3522 162.429 51.1129C164.308 52.8738 166.655 53.7656 169.47 53.7886C172.089 53.7886 174.052 53.4139 175.36 52.6645C176.547 52.014 177.62 51.1708 178.539 50.1683C178.829 49.8523 179.167 49.5836 179.538 49.3718C179.946 49.2041 180.384 49.1299 180.824 49.1545H182.966C183.497 49.1573 184.007 49.3643 184.393 49.7338C184.594 49.8948 184.746 50.1089 184.835 50.3521C184.923 50.5954 184.943 50.8587 184.893 51.1129C184.685 52.1397 184.272 53.1123 183.68 53.9714C182.907 55.1161 181.925 56.0993 180.786 56.8677C179.335 57.8521 177.747 58.6088 176.073 59.1123C173.93 59.7456 171.702 60.0433 169.47 59.9949C167.264 60.0294 165.076 59.5972 163.044 58.7261C161.18 57.9099 159.493 56.7288 158.08 55.2506C156.645 53.736 155.492 51.9695 154.68 50.0372C153.804 47.9561 153.273 45.7425 153.109 43.486C152.874 41.274 152.878 39.0427 153.119 36.8314ZM159.474 37.0486H179.535V36.8314C179.535 33.8868 178.618 31.533 176.784 29.7699C174.95 28.0069 172.511 27.1265 169.467 27.1288C168.151 27.1177 166.844 27.3515 165.611 27.8184C164.45 28.2592 163.383 28.9229 162.47 29.7734C161.552 30.6374 160.822 31.6861 160.327 32.8524C159.792 34.1106 159.5 35.4614 159.467 36.8314L159.474 37.0486Z"
          fill="#000">
    </path>
    <path d="M209.885 21.6258C210.397 21.6275 210.888 21.8335 211.252 22.1992C211.616 22.565 211.823 23.0612 211.83 23.5807V25.8978C211.824 26.4144 211.619 26.9079 211.258 27.2732C210.898 27.6386 210.411 27.8465 209.902 27.8528H205.744C200.28 27.8528 197.55 30.6284 197.55 36.1796V57.3227C197.543 57.8392 197.338 58.3329 196.978 58.6981C196.618 59.0634 196.131 59.2714 195.621 59.2776H192.98C192.47 59.2714 191.983 59.0634 191.623 58.6981C191.263 58.3329 191.058 57.8392 191.051 57.3227V23.5807C191.058 23.0642 191.263 22.5705 191.623 22.2053C191.983 21.84 192.47 21.632 192.98 21.6258H195.621C196.131 21.632 196.618 21.84 196.978 22.2053C197.338 22.5705 197.543 23.0642 197.55 23.5807V25.8254C198.386 24.4784 199.559 23.3794 200.949 22.6395C202.28 21.9636 204.017 21.6258 206.162 21.6258H209.885Z"
          fill="#000">
    </path>
    <path fill-rule="evenodd" clip-rule="evenodd"
          d="M23.5393 0H0V59.3191H24.5288L24.9741 59.3156L25.4162 59.3019L25.8548 59.2846L26.29 59.2605L26.7219 59.226L27.1468 59.1846L27.5684 59.1398L27.9901 59.0847L28.4015 59.0226L28.8129 58.9536L29.2175 58.8777L29.6188 58.795L30.0166 58.7019L30.4076 58.6054L30.7952 58.5019L31.1761 58.3881L31.5535 58.2709L31.9275 58.1433L32.2947 58.0089L32.6551 57.8709L33.0121 57.7227L33.3657 57.5675L33.7126 57.4089L34.0526 57.2399L34.3892 57.0641L34.7156 56.8814L35.042 56.6917L35.3582 56.4986L35.6711 56.2952L35.9771 56.0849L36.2797 55.8677L36.5721 55.6435L36.8611 55.416L37.1433 55.1781L37.4187 54.9333L37.6874 54.6816L37.9526 54.4264L38.2075 54.1609L38.4558 53.8919L38.7006 53.6126L38.9352 53.3299L39.1664 53.0369L39.3874 52.7403L39.6016 52.4369L39.8124 52.1231L40.0131 51.806L40.2068 51.4818L40.3904 51.1508L40.5707 50.8164L40.7441 50.4716L40.9073 50.1199L41.0637 49.7613L41.2099 49.3992L41.3493 49.0303L41.4819 48.6545L41.6078 48.2717L41.7267 47.8821L41.8321 47.4856L41.9341 47.0822L42.026 46.6753L42.1076 46.2581L42.1858 45.8375L42.2503 45.41L42.3082 44.9755L42.3591 44.5341L42.4 44.0894L42.4306 43.6342L42.4543 43.1756L42.4679 42.7102L42.4713 42.2378L42.4611 41.6551L42.4374 41.0827L42.3966 40.5276L42.3421 39.9863L42.2707 39.4621L42.1824 38.9519L42.0837 38.4554L41.9715 37.9726L41.8457 37.5072L41.7098 37.052L41.5601 36.6107L41.3969 36.1832L41.2269 35.7694L41.0433 35.3694L40.8529 34.9832L40.6523 34.6074L40.4415 34.2454L40.2239 33.8937L39.9994 33.5558L39.7648 33.2316L39.5268 32.9179L39.2786 32.6145L39.0304 32.3214L38.772 32.0421L38.5136 31.7732L38.2484 31.5146L37.9798 31.2663L37.7077 31.0284L37.4323 30.8008L37.1569 30.5801L36.8815 30.3733L36.6027 30.1768L36.3239 29.9871L36.045 29.8078L35.4909 29.4733L34.9434 29.1734L34.4062 28.9079L34.6544 28.7837L35.1712 28.4976L35.7017 28.1562L36.2422 27.7666L36.5143 27.5494L36.7863 27.3253L37.0583 27.0839L37.3303 26.8322L37.5989 26.5667L37.8676 26.2909L38.1293 26.0012L38.3912 25.6978L38.6462 25.3875L38.8944 25.0599L39.1358 24.722L39.3738 24.3738L39.6016 24.0117L39.8227 23.6394L40.0369 23.2532L40.2375 22.8567L40.4279 22.4498L40.6081 22.0292L40.7781 21.5947L40.9311 21.1534L41.0739 20.6982L41.2031 20.2327L41.3187 19.7569L41.4139 19.2673L41.4955 18.7708L41.5601 18.2571L41.6078 17.7364L41.6383 17.2054L41.6485 16.6641L41.6417 16.2296L41.6315 15.7986L41.6112 15.3746L41.5839 14.9573L41.5465 14.5401L41.5023 14.1298L41.4513 13.7264L41.3901 13.3265L41.3221 12.9299L41.2439 12.5403L41.1623 12.1542L41.0705 11.7714L40.9685 11.3956L40.8631 11.0266L40.7475 10.6611L40.6251 10.3026L40.4958 9.94744L40.3565 9.59572L40.2137 9.25442L40.0573 8.91305L39.8974 8.58202L39.7309 8.2545L39.554 7.93039L39.3738 7.61656L39.1834 7.30283L38.9862 6.9994L38.7822 6.69943L38.568 6.40635L38.3504 6.12017L38.1225 5.83744L37.888 5.56159L37.65 5.29266L37.4017 5.02716L37.1467 4.77201L36.8849 4.5203L36.6163 4.2755L36.3409 4.03759L36.0552 3.80312L35.7663 3.57901L35.4704 3.35833L35.1678 3.14456L34.855 2.93768L34.5388 2.7377L34.2158 2.54461L33.8859 2.35842L33.5494 2.17913L33.2025 2.00328L32.8523 1.83778L32.4953 1.67917L32.1315 1.524L31.7643 1.37919L31.3868 1.24127L31.0026 1.11025L30.615 0.986124L30.2172 0.868891L29.816 0.75856L29.408 0.655117L28.9932 0.558573L28.5715 0.468925L28.1465 0.389622L27.7113 0.317214L27.2726 0.251703L26.8273 0.193087L26.375 0.141367L25.916 0.0999917L25.4536 0.0620637L24.9843 0.0344798L24.5083 0.0172399L24.0289 0.00344798L23.5393 0Z"
          fill="#000">
    </path>
    <path d="M230.651 58.2295C228.685 57.2764 227.126 55.9828 225.94 54.3488C224.787 52.7148 224.211 50.8765 224.211 48.8681C224.211 45.7363 225.499 43.1491 228.041 41.1406C230.583 39.1322 234.108 37.8046 238.514 37.1237L249.19 35.6259V33.5494C249.19 28.6474 246.377 26.1964 240.717 26.1964C238.548 26.1964 236.785 26.6389 235.463 27.524C234.142 28.4091 233.159 29.4303 232.549 30.6218C232.345 31.0984 232.142 31.4047 231.939 31.575C231.735 31.7452 231.43 31.8132 231.057 31.8132H228.278C227.838 31.8132 227.499 31.643 227.16 31.3367C226.855 31.0303 226.685 30.6558 226.685 30.2133C226.685 29.124 227.194 27.8304 228.21 26.4006C229.227 24.9368 230.82 23.6773 232.955 22.622C235.091 21.5667 237.7 21.0221 240.784 21.0221C246.106 21.0221 249.902 22.2476 252.206 24.7326C254.511 27.2176 255.663 30.3154 255.663 34.026V57.2423C255.663 57.7189 255.494 58.1274 255.189 58.4338C254.884 58.7402 254.477 58.9104 254.003 58.9104H250.884C250.41 58.9104 250.037 58.7402 249.732 58.4338C249.461 58.1274 249.292 57.7189 249.292 57.2423V54.1105C248.241 55.6764 246.716 57.004 244.75 58.0253C242.784 59.0465 240.208 59.5912 237.056 59.5912C234.785 59.6593 232.616 59.1827 230.651 58.2295ZM246.207 51.3531C248.207 49.3106 249.19 46.315 249.19 42.4342V40.4258L240.852 41.6513C237.429 42.1279 234.853 42.9448 233.091 44.0682C231.328 45.2256 230.447 46.6554 230.447 48.3575C230.447 50.2978 231.227 51.8297 232.82 52.851C234.413 53.9062 236.311 54.4169 238.48 54.4169C241.666 54.4169 244.208 53.3956 246.207 51.3531Z"
          fill="#000">
    </path>
    <path d="M262.408 14.2818C262.103 13.9754 261.934 13.5669 261.934 13.0904V9.37983C261.934 8.90325 262.103 8.49475 262.408 8.15433C262.713 7.81392 263.12 7.64371 263.594 7.64371H267.763C268.238 7.64371 268.644 7.81392 268.983 8.15433C269.322 8.49475 269.492 8.90325 269.492 9.37983V13.1244C269.492 13.601 269.322 14.0095 268.983 14.3159C268.644 14.6222 268.238 14.7924 267.763 14.7924H263.56C263.086 14.7584 262.713 14.5882 262.408 14.2818ZM262.95 58.4678C262.645 58.1614 262.476 57.7529 262.476 57.2764V23.405C262.476 22.9284 262.645 22.5199 262.95 22.2135C263.255 21.9071 263.662 21.7369 264.137 21.7369H267.255C267.729 21.7369 268.136 21.9071 268.441 22.2135C268.746 22.5199 268.915 22.9284 268.915 23.405V57.2764C268.915 57.7529 268.746 58.1614 268.441 58.4678C268.136 58.7742 267.729 58.9444 267.255 58.9444H264.137C263.662 58.9444 263.289 58.7742 262.95 58.4678Z"
          fill="#000">
    </path>
    <path d="M212.518 58.4677C212.213 58.1614 212.044 57.7529 212.044 57.2763V52.3402C212.044 51.8637 212.213 51.4552 212.518 51.1147C212.823 50.7743 213.23 50.6041 213.704 50.6041H218.619C219.093 50.6041 219.5 50.7743 219.805 51.1147C220.11 51.4552 220.28 51.8637 220.28 52.3402V57.2763C220.28 57.7529 220.11 58.1614 219.805 58.4677C219.5 58.7741 219.093 58.9443 218.619 58.9443H213.704C213.196 58.9443 212.823 58.7741 212.518 58.4677Z"
          fill="#000">
    </path>
    <path d="M291.25 7.5C291.25 11.2279 288.228 14.25 284.5 14.25C280.772 14.25 277.75 11.2279 277.75 7.5C277.75 3.77208 280.772 0.75 284.5 0.75C288.228 0.75 291.25 3.77208 291.25 7.5Z"
          stroke="#000" stroke-width="1.5">
    </path>
    <path d="M284.095 6.89913C284.507 6.89913 284.807 6.81663 284.987 6.65914C285.167 6.50915 285.265 6.25416 285.265 5.89418C285.265 5.54169 285.167 5.2942 284.987 5.13671C284.807 4.98672 284.507 4.91172 284.095 4.91172H283.255V6.89913H284.095ZM283.255 8.27156V11.1964H281.26V3.46429H284.305C285.325 3.46429 286.067 3.63679 286.539 3.98177C287.019 4.31925 287.252 4.85923 287.252 5.60169C287.252 6.11166 287.132 6.53164 286.884 6.86163C286.637 7.18411 286.269 7.4316 285.767 7.58159C286.044 7.64909 286.284 7.79158 286.502 8.00907C286.719 8.22656 286.937 8.55654 287.154 9.00652L288.242 11.1964H286.119L285.175 9.27651C284.987 8.89403 284.792 8.62404 284.597 8.48905C284.402 8.34656 284.14 8.27156 283.817 8.27156H283.255Z"
          fill="#000">
    </path>
</svg>