<svg width="290" height="50" viewBox="0 0 290 50" fill="none" xmlns="http://www.w3.org/2000/svg">
<path d="M126.371 11.4209V17.0898H130.862V20.5518H126.371V35.0273C126.371 35.7196 126.527 36.2247 126.84 36.542C127.169 36.8592 127.687 37.0176 128.395 37.0176H130.862V40.9336H128.222C125.852 40.9336 124.166 40.5224 123.162 39.7002C122.159 38.8635 121.657 37.4715 121.657 35.5244V20.5518L116.68 20.4043L103.309 50H99.0127L103.22 40.3496L93.2256 17.0898H97.9668L104.132 31.8037C104.236 32.0202 104.415 32.5393 104.667 33.3613C104.934 34.1835 105.253 35.244 105.624 36.542C106.04 35.3159 106.388 34.2839 106.67 33.4473C106.966 32.5968 107.167 32.0491 107.271 31.8037L113.525 17.0898H121.657V11.4209H126.371Z" fill="black"/>
<path d="M50.9775 2.55664V42.291L42.1201 44.4541V0L50.9775 2.55664Z" fill="black"/>
<path d="M22.6348 22.2275V41.3066L13.9746 43.0771V20.0635L22.6348 22.2275Z" fill="black"/>
<path d="M8.85742 4.52441V39.9307L0 42.4873V1.9668L8.85742 4.52441Z" fill="black"/>
<path fill-rule="evenodd" clip-rule="evenodd" d="M144.996 16.5059C148.609 16.5059 151.527 17.7243 153.749 20.1621C155.985 22.5855 157.104 25.7883 157.104 29.7695V30.0723H137.19C137.334 32.2069 138.165 33.9376 139.685 35.2646C141.219 36.5917 143.147 37.2559 145.47 37.2559C146.961 37.2558 148.351 36.9384 149.642 36.3037C150.932 35.6691 152.114 34.7315 153.189 33.4912L156.136 35.8711C154.659 37.6021 153.039 38.879 151.275 39.7012C149.527 40.5232 147.548 40.9335 145.341 40.9336C143.52 40.9336 141.821 40.602 140.244 39.9385C138.667 39.275 137.312 38.3305 136.18 37.1045C135.191 36.0227 134.431 34.7748 133.9 33.3613C133.37 31.9333 133.104 30.4397 133.104 28.8818C133.105 25.1894 134.201 22.2038 136.395 19.9248C138.588 17.6457 141.455 16.5059 144.996 16.5059ZM144.953 20.1406C142.917 20.1407 141.168 20.7685 139.706 22.0234C138.258 23.2639 137.42 24.8505 137.19 26.7832H152.565C152.307 24.8071 151.476 23.2055 150.071 21.9795C148.666 20.7535 146.96 20.1406 144.953 20.1406Z" fill="black"/>
<path d="M254.966 16.5059C256.65 16.5059 258.173 16.7508 259.532 17.2412C260.906 17.7316 262.155 18.4745 263.278 19.4697L260.596 22.499C259.872 21.6914 259.044 21.0996 258.113 20.7246C257.197 20.3352 256.148 20.1406 254.966 20.1406C252.675 20.1406 250.791 20.9489 249.313 22.5645C247.851 24.1655 247.119 26.2208 247.119 28.7305C247.119 31.2404 247.843 33.2893 249.291 34.876C250.754 36.4627 252.646 37.2559 254.966 37.2559C256.222 37.2559 257.33 37.0392 258.291 36.6064C259.266 36.1737 260.094 35.5316 260.773 34.6807L263.5 37.7314C262.259 38.8421 260.95 39.6575 259.576 40.1768C258.217 40.6816 256.68 40.9336 254.966 40.9336C253.207 40.9336 251.581 40.6453 250.089 40.0684C248.597 39.4914 247.303 38.6548 246.21 37.5586C245.043 36.4046 244.156 35.0843 243.55 33.5986C242.959 32.0986 242.663 30.4757 242.663 28.7305C242.663 26.9852 242.959 25.3624 243.55 23.8623C244.156 22.3621 245.043 21.0348 246.21 19.8809C247.318 18.7703 248.611 17.9336 250.089 17.3711C251.567 16.7941 253.193 16.5059 254.966 16.5059Z" fill="black"/>
<path fill-rule="evenodd" clip-rule="evenodd" d="M277.694 16.5059C281.366 16.5059 284.331 17.7246 286.59 20.1621C288.863 22.5855 290 25.7883 290 29.7695V30.0723H269.761C269.906 32.207 270.751 33.9376 272.296 35.2646C273.855 36.5917 275.815 37.2559 278.176 37.2559C279.691 37.2558 281.105 36.9383 282.416 36.3037C283.727 35.669 284.93 34.7316 286.022 33.4912L289.017 35.8711C287.516 37.602 285.869 38.879 284.077 39.7012C282.299 40.5234 280.288 40.9336 278.044 40.9336C276.194 40.9336 274.467 40.602 272.864 39.9385C271.262 39.275 269.884 38.3305 268.733 37.1045C267.728 36.0227 266.955 34.7749 266.416 33.3613C265.877 31.9333 265.607 30.4397 265.607 28.8818C265.607 25.1893 266.723 22.2038 268.952 19.9248C271.182 17.6458 274.095 16.5059 277.694 16.5059ZM277.65 20.1406C275.581 20.1407 273.804 20.7686 272.317 22.0234C270.846 23.2639 269.994 24.8505 269.761 26.7832H285.388C285.125 24.8071 284.28 23.2055 282.853 21.9795C281.425 20.7536 279.69 20.1406 277.65 20.1406Z" fill="black"/>
<path fill-rule="evenodd" clip-rule="evenodd" d="M203.719 16.6357C205.498 16.6358 207.127 17.0038 208.604 17.7393C210.083 18.4605 211.346 19.5137 212.394 20.8984V17.0898H216.183V40.3496H212.093V36.542C211.117 37.9123 209.925 38.9434 208.519 39.6357C207.127 40.3136 205.527 40.6523 203.719 40.6523C202.111 40.6523 200.575 40.35 199.111 39.7441C197.662 39.1239 196.37 38.2289 195.236 37.0605C194.16 35.9356 193.35 34.6663 192.805 33.2529C192.259 31.8394 191.986 30.3032 191.986 28.6445C191.986 25.0529 193.055 22.1532 195.193 19.9463C197.346 17.7393 200.188 16.6357 203.719 16.6357ZM204.278 20.2705C201.939 20.2705 200.016 21.0567 198.509 22.6289C197.002 24.2012 196.248 26.2209 196.248 28.6875C196.248 31.1685 197.002 33.1953 198.509 34.7676C200.016 36.3254 201.939 37.1045 204.278 37.1045C206.617 37.1044 208.54 36.3181 210.047 34.7461C211.554 33.1738 212.308 31.1541 212.308 28.6875C212.308 26.2353 211.554 24.2227 210.047 22.6504C208.54 21.064 206.617 20.2706 204.278 20.2705Z" fill="black"/>
<path fill-rule="evenodd" clip-rule="evenodd" d="M74.2832 6.48828C76.8169 6.48828 78.816 6.60319 80.2803 6.83398C81.7609 7.05034 82.9864 7.41121 83.957 7.91602C85.6187 8.7815 86.8779 9.87801 87.7334 11.2051C88.6052 12.5176 89.041 14.0034 89.041 15.6621C89.041 17.0324 88.6382 18.2873 87.832 19.4268C87.0424 20.5662 85.9153 21.4966 84.4512 22.2178C86.8531 22.9102 88.6714 23.9926 89.9053 25.4639C91.1555 26.9207 91.7803 28.7239 91.7803 30.873C91.7802 33.5415 90.5797 35.7921 88.1777 37.624C85.7922 39.4414 82.8141 40.3495 79.2441 40.3496H67.7188V6.48828H74.2832ZM72.7285 36.3682H77.8369C80.7161 36.3682 82.8962 35.8854 84.377 34.9189C85.8741 33.9525 86.623 32.5244 86.623 30.6348C86.623 28.7741 85.8987 27.368 84.4512 26.416C83.0033 25.4496 80.864 24.9658 78.0342 24.9658H72.7285V36.3682ZM72.7285 21.0713H76.875C79.178 21.0712 80.9548 20.6025 82.2051 19.665C83.4719 18.7274 84.1055 17.4072 84.1055 15.7051C84.1054 13.9165 83.4719 12.5679 82.2051 11.6592C80.9383 10.7505 79.0464 10.2959 76.5293 10.2959H72.7285V21.0713Z" fill="black"/>
<path fill-rule="evenodd" clip-rule="evenodd" d="M170.282 6.48828C176.577 6.48828 181.363 7.93049 184.64 10.8154C187.93 13.6859 189.575 17.8908 189.575 23.4297C189.575 28.9542 187.93 33.159 184.64 36.0439C181.363 38.9145 176.577 40.3496 170.282 40.3496H163.329V6.48828H170.282ZM167.729 36.3682H170.948C175.64 36.3681 179.174 35.2795 181.549 33.1016C183.938 30.9234 185.133 27.6994 185.133 23.4297C185.133 19.1455 183.938 15.9215 181.549 13.7578C179.174 11.5799 175.641 10.4903 170.948 10.4902H167.729V36.3682Z" fill="black"/>
<path d="M231.407 16.6357C234.129 16.6358 236.277 17.5448 237.852 19.3623C239.426 21.1798 240.213 23.6825 240.213 26.8701V40.3496H236.02V27.2812C236.02 24.8436 235.586 23.0617 234.718 21.9365C233.864 20.797 232.518 20.2275 230.679 20.2275C228.59 20.2275 227.015 20.8333 225.956 22.0449C224.911 23.2422 224.389 25.0452 224.389 27.4541V40.3496H220.24V17.0898H224.389V19.751C225.433 18.698 226.53 17.9189 227.678 17.4141C228.84 16.8949 230.083 16.6357 231.407 16.6357Z" fill="black"/>
<path d="M36.8057 37.5693L28.7363 35.209V16.3262L36.8057 14.1621V37.5693Z" fill="black"/>
</svg>
