<svg width="200" height="40" viewBox="0 0 200 40" fill="none" xmlns="http://www.w3.org/2000/svg">
<path d="M198.775 2.81829L198.79 2.79342V2.76358C198.765 2.28116 198.75 1.6545 198.75 1.00795V0.878644L198.626 0.908484C198.462 0.943298 197.641 0.943298 196.846 0.943298H194.389C193.886 0.943298 193.439 0.933352 192.847 0.903511H192.822L192.797 0.913458C192.688 0.968166 192.668 1.12234 192.663 1.17208C192.653 1.28647 192.688 1.38096 192.757 1.42572L193.016 1.47048C193.692 1.55006 193.727 1.62466 193.727 3.05204V7.86137C193.727 9.27383 193.692 9.34844 193.016 9.42801L192.648 9.47277L192.613 9.49764C192.539 9.57224 192.524 9.69658 192.539 9.7861C192.553 9.88557 192.598 9.96017 192.663 9.99499L192.688 10.0049H192.713C193.339 9.98007 193.787 9.96515 194.379 9.96515C194.916 9.96515 195.378 9.98007 196.154 10.0049H196.179L196.204 9.99499C196.293 9.95022 196.328 9.83086 196.333 9.73637C196.338 9.62198 196.308 9.52748 196.239 9.48769L195.736 9.43299C195.055 9.37331 195.015 9.28876 195.015 7.86635V6.01125C195.015 5.75263 195.015 5.75263 195.354 5.75263H196.264C196.731 5.75263 197.084 5.76258 197.258 5.81231C197.447 5.87199 197.547 5.99633 197.616 6.245L197.756 6.79705L197.781 6.81695C197.91 6.93134 198.198 6.92636 198.278 6.79705L198.298 6.77219V6.74235C198.298 6.60309 198.288 6.42405 198.278 6.22511C198.263 5.98141 198.248 5.70787 198.248 5.44428C198.248 5.17571 198.263 4.88725 198.278 4.6336C198.288 4.42472 198.298 4.2407 198.298 4.0915V4.06165L198.278 4.03679C198.213 3.94229 198.079 3.93234 198.024 3.93234C197.915 3.93234 197.815 3.96716 197.766 4.02684L197.626 4.60376C197.552 4.92704 197.462 4.96185 197.358 4.99666C197.219 5.04143 196.806 5.07127 196.254 5.07127H195.344C195.005 5.07127 195.005 5.07127 195.005 4.81265V1.9927C195.005 1.56001 195.005 1.56001 195.304 1.56001H196.119C196.671 1.56001 197.109 1.56001 197.388 1.63958C197.96 1.78879 198.134 2.17174 198.248 2.82824L198.253 2.86305L198.283 2.88792C198.333 2.93268 198.407 2.95755 198.487 2.95755C198.601 2.95755 198.726 2.91279 198.775 2.81829ZM189.808 5.41443C189.808 3.15649 188.326 0.729441 185.068 0.729441C182.298 0.729441 180.209 2.80337 180.209 5.54872C180.209 7.85143 181.88 10.179 185.068 10.179C187.774 10.184 189.808 8.13491 189.808 5.41443ZM188.266 5.8322C188.266 8.5875 186.635 9.5623 185.242 9.5623C182.487 9.5623 181.751 6.77219 181.751 5.121C181.751 2.33587 183.417 1.35112 184.845 1.35112C187.371 1.35112 188.266 3.76325 188.266 5.8322ZM176.519 28.6653C176.519 34.4345 180.816 39.5323 187.933 39.5323C194.12 39.5323 199.059 34.8175 199.059 28.3421C199.059 22.7022 195.339 17.3457 187.933 17.3457C181.328 17.3457 176.519 22.2546 176.519 28.6653ZM179.727 27.6408C179.727 20.6183 184.054 18.3454 187.391 18.3454C193.513 18.3454 195.856 24.05 195.856 29.3417C195.856 35.658 192.2 38.5426 188.356 38.5426C182.035 38.5376 179.727 32.3855 179.727 27.6408ZM173.46 1.42075C173.53 1.36107 173.565 1.26657 173.555 1.16213C173.545 1.05769 173.495 0.968166 173.421 0.923405L173.391 0.903511H173.361C172.411 0.958219 171.849 0.958219 170.849 0.903511H170.824L170.8 0.913458C170.725 0.953246 170.675 1.02785 170.66 1.11737C170.64 1.22679 170.675 1.3362 170.75 1.4108L170.775 1.43567L171.048 1.46551C171.307 1.49535 171.471 1.56001 171.516 1.59482C171.476 1.78381 171.008 2.65417 170.725 3.18135L170.665 3.29574C170.342 3.91743 169.974 4.58884 169.501 5.39454C169.148 4.75794 168.805 4.05668 168.472 3.38029C168.343 3.1167 168.213 2.84813 168.079 2.58951C167.985 2.39555 167.681 1.71418 167.676 1.60477C167.676 1.5799 167.736 1.52519 168.149 1.46551L168.358 1.43567L168.382 1.4108C168.457 1.3362 168.487 1.20689 168.457 1.0925C168.437 1.00298 168.377 0.933351 168.298 0.908484L168.278 0.903511H168.258C167.93 0.928378 167.452 0.943298 166.836 0.943298C166.219 0.943298 165.727 0.928378 165.294 0.903511H165.264L165.239 0.918431C165.175 0.958219 165.13 1.02785 165.115 1.11737C165.095 1.22679 165.125 1.3362 165.189 1.4108L165.214 1.44064L165.622 1.51525C165.975 1.57493 166.154 1.60477 166.602 2.47512L168.179 5.54872C168.557 6.27484 168.596 6.42404 168.596 7.16012V7.84148C168.596 9.29373 168.562 9.36336 167.89 9.43796L167.438 9.48272L167.413 9.50759C167.338 9.58219 167.328 9.70653 167.343 9.80102C167.358 9.90049 167.403 9.97509 167.467 10.0049L167.492 10.0149H167.517C168.238 9.99001 168.706 9.97509 169.263 9.97509C169.805 9.97509 170.282 9.99001 171.078 10.0149H171.103L171.128 10.0049C171.192 9.97509 171.237 9.89552 171.252 9.80102C171.267 9.7115 171.257 9.58716 171.178 9.50759L171.153 9.48272L170.606 9.43796C169.989 9.3932 169.899 9.28876 169.899 7.84148V7.1452C169.899 6.14553 169.929 6.04606 170.511 5.03148L171.352 3.57426C171.426 3.44495 171.501 3.31564 171.57 3.1913C172.098 2.27121 172.476 1.60974 173.043 1.51027L173.445 1.44064L173.46 1.42075ZM168.283 17.7685C167.736 17.6392 166.04 17.2861 164.21 17.2861C159.366 17.2861 156.193 18.793 154.049 21.0361C152.06 23.1498 151.164 25.91 151.164 28.6355C151.164 31.4554 152.189 33.9869 154.114 35.9117C156.58 38.4133 160.077 39.4727 163.891 39.4727C165.622 39.4727 167.93 39.0897 169.631 38.6371C170.238 38.478 170.819 38.3486 171.202 38.3486C171.332 38.2542 171.332 38.0602 171.237 37.9657C170.66 37.7419 170.466 36.971 170.466 35.6879V33.8924C170.466 32.2562 170.496 31.3609 171.844 31.1968L172.356 31.1322C172.58 30.9382 172.55 30.4607 172.326 30.3314C171.267 30.3961 170.178 30.4259 168.93 30.4259C167.04 30.4259 165.274 30.3961 164.344 30.3314C164.12 30.4259 164.085 31.0029 164.344 31.1322L165.756 31.2913C167.746 31.5151 167.84 31.7091 167.84 34.3997V35.6829C167.84 36.7074 167.681 37.2843 167.522 37.5081C167.169 38.0502 165.98 38.468 163.996 38.468C157.55 38.468 154.377 33.6239 154.377 27.4717C154.377 22.6624 157.103 18.236 163.324 18.236C166.597 18.236 168.999 19.3252 169.894 22.7867C170.088 22.9807 170.665 22.9459 170.76 22.6922C170.471 20.7675 170.277 19.1014 170.277 18.042C169.884 18.1216 168.895 17.8978 168.283 17.7685ZM163.314 0.739386L163.324 0.704572L163.31 0.669758C163.26 0.570289 163.121 0.560343 163.066 0.560343C163.031 0.560343 162.981 0.565315 162.941 0.580236L162.907 0.595157L162.887 0.624997C162.718 0.923404 162.643 0.948272 161.932 0.948272H156.411C155.815 0.948272 155.546 0.918432 155.491 0.620024L155.486 0.590183L155.461 0.565316C155.427 0.530502 155.362 0.510608 155.277 0.510608C155.248 0.510608 155.138 0.515582 155.078 0.550396L155.044 0.575263L155.034 0.620024C154.939 1.15218 154.74 1.99767 154.531 2.59449L154.516 2.63427L154.536 2.67406C154.616 2.83321 154.889 2.91279 155.039 2.80337L155.059 2.78845L155.069 2.76358C155.203 2.45523 155.332 2.16179 155.645 1.87831C155.939 1.60974 156.605 1.56995 157.222 1.56995H157.958C158.257 1.56995 158.257 1.56995 158.257 1.89323V7.86635C158.257 9.31362 158.172 9.37828 157.52 9.43299L157.038 9.47277L156.993 9.48769C156.914 9.53743 156.869 9.6369 156.874 9.75626C156.879 9.84578 156.914 9.96017 157.003 9.99996L157.028 10.0099H157.053C157.869 9.98504 158.361 9.97012 158.908 9.97012C159.43 9.97012 159.863 9.98504 160.654 10.0099H160.679L160.703 9.99996C160.813 9.94525 160.833 9.79107 160.833 9.74134C160.838 9.62695 160.808 9.53245 160.738 9.48769L160.261 9.43299C159.594 9.37331 159.555 9.28876 159.555 7.86635V1.87334C159.555 1.73905 159.555 1.60974 159.574 1.58985C159.599 1.56498 159.744 1.56498 159.838 1.56498H160.783C161.499 1.56498 161.987 1.66942 162.27 1.87831C162.394 1.9728 162.504 2.311 162.564 2.78348L162.568 2.81332L162.588 2.83818C162.638 2.89787 162.728 2.93268 162.832 2.93268C162.956 2.93268 163.066 2.87797 163.111 2.78845L163.126 2.76358L163.121 2.73374C163.081 2.35079 163.17 1.27652 163.314 0.739386ZM151.135 7.83651V3.07691C151.135 1.61471 151.174 1.52519 151.856 1.47048L152.219 1.44064L152.239 1.42572C152.303 1.38096 152.338 1.28647 152.333 1.17208C152.328 1.12732 152.313 0.968166 152.204 0.913458L152.179 0.903511H152.154C151.522 0.928378 151.05 0.943298 150.503 0.943298C149.931 0.943298 149.468 0.928378 148.822 0.903511H148.797L148.772 0.913458C148.663 0.968166 148.643 1.12732 148.643 1.17208C148.638 1.28647 148.668 1.38096 148.737 1.42572L148.757 1.44064L149.115 1.47048C149.797 1.53017 149.836 1.61969 149.836 3.07691V7.83153C149.836 9.26886 149.802 9.34346 149.11 9.42801L148.742 9.47277L148.717 9.49764C148.643 9.57224 148.628 9.69658 148.643 9.79108C148.658 9.89054 148.702 9.96515 148.767 9.99499L148.792 10.0049H148.817C149.498 9.98007 149.946 9.96515 150.498 9.96515C151.03 9.96515 151.473 9.98007 152.149 10.0049H152.174L152.199 9.99499C152.308 9.94028 152.328 9.78113 152.328 9.73637C152.333 9.62198 152.303 9.52748 152.234 9.48272L151.856 9.42801C151.169 9.34844 151.135 9.27383 151.135 7.83651ZM148.439 38.1597C147.061 38.0005 146.644 37.5181 145.713 34.7628L141.322 21.8766C140.839 20.4641 140.327 18.992 139.909 17.5795C139.845 17.3557 139.621 17.291 139.427 17.291C139.074 17.7088 138.532 18.2857 137.761 18.5095C137.855 19.0218 137.666 19.6286 137.214 20.7874L133.946 29.4462C132.598 33.037 131.703 35.1209 131.126 36.598C130.679 37.7518 129.972 38.1049 129.202 38.1696L128.142 38.2641C127.948 38.4233 128.013 38.9355 128.207 39.0648C129.072 39.035 130.226 38.9703 131.285 38.9703C132.792 39.0002 133.787 39.0002 134.623 39.0648C134.911 38.9355 134.911 38.4233 134.687 38.2641L133.628 38.1696C132.857 38.1049 132.698 37.911 132.698 37.528C132.698 37.1749 132.922 36.3095 133.404 34.8672L134.528 31.5002C134.752 30.8288 134.946 30.7293 135.747 30.7293H140.586C141.546 30.7293 141.675 30.8238 141.899 31.53L143.306 35.8918C143.565 36.6626 143.724 37.2396 143.724 37.5927C143.724 37.916 143.276 38.1049 142.605 38.1696L141.675 38.2641C141.451 38.4233 141.481 38.9355 141.74 39.0648C142.67 39.035 143.888 38.9703 145.425 38.9703C146.867 38.9703 147.991 39.0002 149.304 39.0648C149.463 38.9355 149.528 38.4233 149.304 38.2641L148.439 38.1597ZM140.168 29.4362H136.224C135.324 29.4362 135.294 29.4064 135.553 28.6653L137.572 23.0851C137.925 22.1252 138.243 21.3544 138.343 21.1952H138.402C138.596 21.5782 138.885 22.4485 139.139 23.2144L140.869 28.4415C141.158 29.3119 141.093 29.4362 140.168 29.4362ZM141.973 2.73374C141.973 2.2165 142.167 1.35112 143.46 1.35112C144.639 1.35112 144.997 2.11703 145.181 2.78348L145.201 2.82326C145.246 2.873 145.316 2.90284 145.405 2.90284C145.505 2.90284 145.644 2.86305 145.699 2.77353L145.713 2.74866V2.71882C145.713 2.17174 145.599 1.4108 145.47 1.05271L145.445 0.988059H145.375C145.281 0.988059 145.102 0.963193 144.933 0.913458C144.614 0.82891 144.112 0.734414 143.664 0.734414C141.973 0.734414 140.835 1.69926 140.835 3.13659C140.835 4.35509 141.765 5.15581 142.322 5.51888L143.59 6.34944C144.51 6.94129 144.639 7.55799 144.639 8.13491C144.639 8.84612 144.157 9.56727 143.073 9.56727C141.72 9.56727 141.128 8.52284 140.874 7.65249L140.859 7.62265C140.82 7.56297 140.745 7.52815 140.655 7.52815C140.566 7.52815 140.437 7.56297 140.372 7.65746L140.352 7.6873V7.72212C140.377 8.3239 140.551 9.31362 140.725 9.6369L140.74 9.66177L140.765 9.67668C141.028 9.83086 141.76 10.184 142.898 10.184C144.659 10.184 145.848 9.1495 145.848 7.60773C145.848 6.53843 145.286 5.67306 144.132 4.95688L143.063 4.29043C142.655 4.03679 141.973 3.49965 141.973 2.73374ZM138.606 10.0248C138.666 9.97509 138.701 9.89552 138.686 9.82092C138.676 9.74631 138.631 9.69161 138.567 9.66177L138.537 9.65679C138.218 9.63192 137.895 9.50261 137.671 9.30865C136.751 8.53776 136.02 7.40879 135.006 5.7775C134.936 5.66311 134.926 5.61337 134.926 5.59348C135.369 5.40946 136.622 4.75296 136.622 3.28082C136.622 2.16179 135.99 1.59482 135.458 1.32128C134.787 0.958219 133.931 0.908484 133.18 0.908484C131.957 0.908484 131.007 0.943299 130.191 1.01293L130.156 1.02287C130.077 1.06266 130.027 1.14721 130.017 1.25165C130.007 1.36604 130.052 1.47546 130.127 1.53017L130.147 1.54509L130.599 1.5998C131.037 1.6545 131.096 1.749 131.096 3.06199V7.86137C131.096 9.27383 131.062 9.34844 130.385 9.42801L130.012 9.47277L129.987 9.50261C129.913 9.59214 129.903 9.71647 129.923 9.806C129.943 9.89552 129.982 9.96017 130.047 9.99499L130.072 10.0049H130.097C130.689 9.98007 131.176 9.96515 131.763 9.96515C132.315 9.96515 132.777 9.98007 133.349 10.0049H133.374L133.399 9.99499C133.499 9.94525 133.524 9.81594 133.529 9.76621C133.543 9.64684 133.509 9.54738 133.444 9.49267L133.429 9.47277L133.121 9.42801C132.434 9.33352 132.409 9.27383 132.409 7.86137V6.17537C132.409 5.98638 132.409 5.98638 132.937 5.98638C133.449 5.98638 133.623 6.11072 133.802 6.36934C134.006 6.66277 134.24 7.03578 134.468 7.39884C134.707 7.77683 134.931 8.13491 135.11 8.38359C136.025 9.69161 136.721 10.1094 137.96 10.1094C138.218 10.1094 138.442 10.0845 138.582 10.0397L138.606 10.0248ZM134.578 5.05634C134.195 5.34481 133.678 5.38459 133.265 5.38459C132.663 5.38459 132.474 5.35973 132.419 5.34481C132.404 5.2901 132.404 5.13095 132.404 4.97677V1.84847C132.404 1.55006 132.404 1.52519 133.17 1.52519C134.672 1.52519 135.205 2.57957 135.205 3.47976C135.21 4.22081 135.006 4.72312 134.578 5.05634ZM127.675 8.07026L127.68 8.04042L127.665 8.01058C127.605 7.88127 127.466 7.82656 127.351 7.82656C127.287 7.82656 127.227 7.84645 127.177 7.87629L127.148 7.91608C126.765 8.68199 126.421 9.06992 126.242 9.16442C125.954 9.30865 125.551 9.35341 124.576 9.35341C123.462 9.35341 123.179 9.21913 123.035 9.07987C122.846 8.88093 122.806 8.44327 122.806 7.76191V5.87697C122.806 5.61835 122.806 5.61835 123.144 5.61835H123.92C124.387 5.61835 124.735 5.62829 124.924 5.683C125.108 5.72776 125.203 5.8521 125.263 6.11569L125.382 6.6379L125.402 6.68266C125.452 6.74235 125.546 6.77716 125.651 6.77716C125.775 6.77716 125.874 6.7324 125.914 6.65283L125.929 6.62796V6.59812C125.929 6.46881 125.919 6.29474 125.909 6.10077C125.894 5.85707 125.879 5.58353 125.879 5.31496C125.879 5.03645 125.894 4.74799 125.909 4.49932C125.919 4.29541 125.929 4.11139 125.929 3.96716V3.94229L125.914 3.91743C125.869 3.83785 125.77 3.79309 125.646 3.79309C125.541 3.79309 125.447 3.8279 125.397 3.88758L125.268 4.47942C125.208 4.7828 125.133 4.83254 125.014 4.86736C124.87 4.91709 124.467 4.94196 123.91 4.94196H123.134C122.796 4.94196 122.796 4.94196 122.796 4.66842V1.99767C122.796 1.56498 122.796 1.56498 123.094 1.56498H124.054C124.621 1.56498 125.054 1.5799 125.327 1.64455C125.934 1.79873 126.058 2.18169 126.242 2.76358L126.267 2.84316L126.287 2.87797C126.332 2.93268 126.411 2.96252 126.506 2.96252C126.595 2.96252 126.725 2.93268 126.784 2.84316L126.804 2.81332L126.784 2.61438C126.715 1.83852 126.65 1.17705 126.581 0.973139L126.551 0.883617L126.461 0.903511C126.312 0.938325 125.486 0.938325 124.681 0.938325H122.169C121.652 0.938325 121.214 0.928377 120.598 0.898537H120.573L120.548 0.908484C120.438 0.963192 120.418 1.11737 120.413 1.1671C120.404 1.28647 120.438 1.37599 120.508 1.42075L120.767 1.46551C121.453 1.54509 121.493 1.63461 121.493 3.04707V7.8564C121.493 9.30368 121.408 9.36833 120.757 9.42304L120.279 9.4678L120.254 9.49267C120.18 9.56727 120.165 9.6916 120.18 9.78113C120.195 9.8806 120.239 9.9552 120.304 9.99001L120.329 9.99996H120.354C121.125 9.97509 121.592 9.96017 122.169 9.96017H123.373C124.536 9.96017 125.71 9.97509 126.954 9.99996H127.018L127.048 9.94028C127.247 9.57224 127.58 8.53776 127.675 8.07026ZM118.514 1.41578C118.588 1.34117 118.598 1.21684 118.588 1.12732C118.573 1.02785 118.534 0.958219 118.469 0.918431L118.444 0.903511H118.414C117.967 0.928378 117.559 0.943298 117.126 0.943298C116.599 0.943298 116.097 0.928378 115.743 0.903511H115.714L115.689 0.918431C115.614 0.963192 115.564 1.04774 115.554 1.15716C115.544 1.2616 115.579 1.36107 115.644 1.42075L115.669 1.44064L115.937 1.47048C116.405 1.52519 116.45 1.61969 116.45 1.61969C116.45 1.70921 116.435 1.83852 116.335 2.10211C116.106 2.68401 115.47 4.21583 115.092 5.09116C114.992 5.31994 114.868 5.61337 114.729 5.94162C114.475 6.54341 114.167 7.27451 113.903 7.84645C113.272 6.3942 112.69 4.93698 112.098 3.44992C111.705 2.49004 111.481 1.79376 111.441 1.61969C111.461 1.5799 111.576 1.52022 111.979 1.46551L112.207 1.43567L112.232 1.41578C112.302 1.35609 112.337 1.25663 112.327 1.15218C112.317 1.04774 112.267 0.958219 112.192 0.913458L112.168 0.898537H112.138C111.546 0.928377 111.078 0.938325 110.526 0.938325C109.969 0.938325 109.542 0.928377 109.144 0.898537H109.109L109.079 0.918431C108.999 0.968165 108.95 1.05769 108.945 1.15716C108.935 1.2616 108.975 1.35609 109.039 1.41578L109.064 1.43567L109.338 1.46551C109.855 1.52519 110.034 1.76392 110.337 2.49999L112.69 8.29904C112.968 8.99532 113.177 9.58716 113.301 10.0646L113.316 10.1143L113.366 10.1342C113.446 10.1641 113.525 10.184 113.605 10.184C113.679 10.184 113.754 10.1641 113.809 10.1293L113.839 10.1094L113.849 10.0746C114.077 9.35839 114.719 7.7818 115.236 6.59812L115.957 4.95688C116.579 3.55436 117.091 2.49502 117.449 1.8982C117.618 1.62466 117.797 1.50033 118.061 1.48043L118.499 1.45059L118.514 1.41578ZM109.79 20.0115C107.353 21.9014 105.752 24.9502 105.752 28.5062C105.752 32.6441 107.741 35.5585 110.302 37.3241C112.645 38.8957 115.4 39.4727 118.285 39.4727C120.339 39.4727 122.647 38.9902 123.353 38.7366C123.706 38.6073 124.089 38.4829 124.477 38.4183C124.959 37.8115 125.79 35.6928 126.014 34.0267C125.884 33.8029 125.402 33.7383 125.183 33.8974C124.447 35.7873 122.617 38.4829 118.484 38.4829C113.227 38.4829 108.96 34.7628 108.96 28.0287C108.96 21.3941 113.127 18.2808 118.031 18.2808C122.681 18.2808 124.124 20.7824 124.606 22.9608C124.83 23.1547 125.312 23.1199 125.471 22.8961C125.218 20.9416 125.054 18.9223 125.024 18.1813C124.735 18.2161 124.512 18.1515 124.129 18.052C122.622 17.6342 120.185 17.2811 118.454 17.2811C115.112 17.2861 112.128 18.1863 109.79 20.0115ZM105.687 7.83651V3.07691C105.687 1.62963 105.732 1.52519 106.408 1.47048L106.766 1.44064L106.786 1.42572C106.851 1.38096 106.886 1.28647 106.881 1.17208C106.876 1.12732 106.861 0.968166 106.751 0.913458L106.727 0.903511H106.702C106.07 0.928378 105.598 0.943298 105.05 0.943298C104.479 0.943298 104.016 0.928378 103.369 0.903511H103.345L103.32 0.913458C103.21 0.968166 103.19 1.12234 103.185 1.17208C103.18 1.28647 103.21 1.38096 103.28 1.42572L103.3 1.44064L103.658 1.47048C104.334 1.53017 104.379 1.63461 104.379 3.07691V7.83153C104.379 9.26886 104.344 9.34346 103.653 9.42801L103.285 9.47277L103.26 9.49764C103.185 9.57224 103.171 9.69658 103.185 9.79108C103.2 9.89054 103.245 9.96515 103.31 9.99499L103.335 10.0049H103.36C104.036 9.98007 104.484 9.96515 105.041 9.96515C105.568 9.96515 106.03 9.98007 106.692 10.0049H106.717L106.741 9.99499C106.851 9.94028 106.871 9.78113 106.876 9.73637C106.881 9.62198 106.851 9.52748 106.781 9.48272L106.403 9.42801C105.722 9.34844 105.687 9.27383 105.687 7.83651ZM98.9829 34.0864V22.6723C98.9829 19.2754 99.0475 18.7284 100.937 18.5692L101.738 18.5046C101.932 18.3753 101.867 17.7983 101.674 17.7038C100.072 17.7685 98.9829 17.7983 97.6997 17.7983C96.3519 17.7983 95.2627 17.7635 93.6613 17.7038C93.4673 17.7983 93.4027 18.3753 93.5966 18.5046L94.3974 18.5692C96.2873 18.7284 96.3519 19.2754 96.3519 22.6723V34.0864C96.3519 37.4833 96.2873 37.9359 94.3974 38.1597L93.5966 38.2542C93.4027 38.4481 93.4673 38.9604 93.6613 39.0549C95.2627 38.9902 96.3569 38.9604 97.6997 38.9604C98.9829 38.9604 100.072 38.9902 101.674 39.0549C101.867 38.9604 101.932 38.3835 101.738 38.2542L100.937 38.1597C99.0475 37.9359 98.9829 37.4882 98.9829 34.0864ZM100.639 1.41578C100.704 1.35112 100.734 1.24668 100.724 1.14224C100.714 1.04774 100.664 0.968166 100.594 0.923405L100.564 0.903511H100.53C100.092 0.928378 99.7438 0.943298 99.1619 0.943298C98.6894 0.943298 98.2518 0.933352 97.5903 0.903511H97.5704L97.5505 0.908484C97.4709 0.938324 97.4162 1.00795 97.4013 1.10742C97.3814 1.22679 97.4162 1.34615 97.4908 1.41578L97.5157 1.43567L97.7743 1.46551C98.2319 1.52519 98.4656 1.58985 98.5303 1.68434C98.6894 1.93799 98.7839 2.92273 98.7839 4.39488V7.25461C98.7839 7.38392 98.7839 7.53313 98.774 7.63757C98.3115 7.16012 97.8241 6.61801 97.2223 5.94162L95.3622 3.85774C94.0393 2.37565 93.2833 1.40086 93.1142 0.968167L93.0844 0.893564L93.0048 0.903511C92.8456 0.928378 92.6268 0.943298 92.403 0.943298C92.1692 0.943298 91.458 0.943299 90.901 0.903511H90.8712L90.8463 0.918431C90.7767 0.953245 90.7269 1.02785 90.712 1.11737C90.6921 1.22679 90.7269 1.34615 90.7916 1.41578L90.8165 1.44064L91.0801 1.47048C91.4381 1.51525 91.7017 1.61472 91.846 1.75895C92.0946 2.03249 92.1145 2.27618 92.1145 2.64919V6.63293C92.1145 7.27948 92.1145 8.79141 91.9504 9.2241C91.9206 9.29373 91.8062 9.38325 91.4431 9.43299L91.0452 9.47775L91.0204 9.50261C90.9607 9.5623 90.9309 9.65679 90.9408 9.75626C90.9508 9.85573 90.9955 9.94028 91.0602 9.99001L91.09 10.0099H91.1248C91.5873 9.98504 91.9454 9.97012 92.5074 9.97012C92.96 9.97012 93.4126 9.98006 94.0641 10.0099H94.0989L94.1288 9.99001C94.1934 9.94525 94.2332 9.87562 94.2481 9.79108C94.2631 9.69161 94.2382 9.59214 94.1785 9.51256L94.1536 9.47775L93.6911 9.43299C93.3728 9.40812 93.149 9.33352 93.0893 9.22907C92.9451 8.97543 92.8605 7.98571 92.8605 6.51357V3.59912C92.8605 3.3604 92.8655 3.10675 92.8904 2.92273C93.1043 3.16146 93.4574 3.57923 93.7757 3.95224C93.9945 4.21086 94.1934 4.44958 94.3277 4.59879L97.4262 8.12497C98.4557 9.2987 98.9481 9.8806 99.1271 10.1342L99.1569 10.179H99.2117C99.3857 10.179 99.52 10.0994 99.5648 9.96017L99.5697 9.94028L99.5648 9.92038C99.5449 9.76621 99.525 9.23405 99.525 7.59281V4.2208C99.525 3.53447 99.52 2.11206 99.714 1.69429C99.7289 1.65948 99.893 1.54509 100.385 1.47048L100.604 1.44064L100.639 1.41578ZM88.663 1.39588C88.7226 1.32625 88.7525 1.21187 88.7326 1.11737C88.7177 1.03282 88.6779 0.968166 88.6083 0.923405L88.5784 0.908484H88.5436C88.0811 0.933351 87.718 0.948272 87.1461 0.948272C86.6338 0.948272 86.1364 0.933351 85.6292 0.908484H85.5943L85.5645 0.928378C85.5048 0.968166 85.4601 1.04774 85.4451 1.13726C85.4302 1.23673 85.4551 1.3362 85.5148 1.40086L85.5446 1.43567L85.9226 1.46551C86.2309 1.49038 86.4398 1.57493 86.5095 1.69429C86.6636 1.96783 86.7532 2.93268 86.7532 4.4098V5.94659C86.7532 7.52318 86.3055 9.39817 84.1819 9.39817C82.4014 9.39817 81.5708 8.29904 81.5708 5.93167V3.04707C81.5708 1.62466 81.6156 1.52519 82.277 1.46551L82.6252 1.43567L82.6451 1.42075C82.7097 1.37599 82.7445 1.28647 82.7396 1.17208C82.7346 1.07758 82.6948 0.963192 82.6103 0.918431L82.5854 0.908484H82.5605C81.9289 0.933351 81.4763 0.948272 80.9243 0.948272C80.3772 0.948272 79.9047 0.933351 79.2731 0.908484H79.2482L79.2233 0.918431C79.1338 0.963192 79.099 1.07758 79.0891 1.1671C79.0791 1.28149 79.1139 1.37102 79.1835 1.41578L79.2084 1.4307L79.5665 1.46054C80.228 1.52022 80.2727 1.61969 80.2727 3.0421V6.19527C80.2727 7.81164 80.606 8.80633 81.352 9.42801C81.9388 9.93033 82.8042 10.1889 83.9183 10.1889C84.9726 10.1889 85.9773 9.80102 86.5443 9.17934C87.1908 8.48306 87.5091 7.41874 87.5091 5.91675V4.40482C87.5091 3.72843 87.5091 2.1419 87.6882 1.72413C87.7478 1.58985 87.9766 1.4854 88.2701 1.46054L88.6331 1.4307L88.663 1.39588ZM73.3049 18.5046C73.4989 18.3753 73.4342 17.7983 73.2403 17.7038C71.8626 17.7685 70.7734 17.7983 69.5201 17.7983C68.1425 17.7983 67.0533 17.7337 65.4817 17.7038C65.2877 17.7983 65.2231 18.3753 65.417 18.5046L66.2526 18.5692C67.9187 18.6985 68.1425 19.2406 68.1425 22.6077V34.1511C68.1425 37.5181 68.0778 37.8364 66.2824 38.1597L65.7403 38.2542C65.5463 38.4481 65.611 38.9604 65.805 39.0549C67.0533 39.025 68.1475 38.9604 69.5251 38.9604C70.7734 38.9604 71.8676 38.9902 73.5984 39.0549C73.7923 38.9604 73.857 38.3835 73.663 38.2542L72.733 38.1597C70.9376 37.9657 70.7784 37.5181 70.7784 34.1511V29.6302C70.7784 28.6703 70.8431 28.6056 72.3799 28.6056H81.5509C83.0877 28.6056 83.1524 28.6703 83.1524 29.6302V34.1511C83.1524 37.5181 83.1524 37.8364 81.1978 38.1597L80.591 38.2542C80.3971 38.4481 80.4617 38.9604 80.6557 39.0549C82.0682 38.9902 83.222 38.9604 84.535 38.9604C85.7833 38.9604 86.8775 38.9902 88.4143 39.0549C88.6083 38.9604 88.6729 38.3835 88.4789 38.2542L87.7081 38.1597C85.848 37.9359 85.7833 37.5181 85.7833 34.1511V22.6077C85.7833 19.2406 85.848 18.7582 87.7081 18.5692L88.3795 18.5046C88.5734 18.3753 88.5088 17.7983 88.3148 17.7038C86.8725 17.7685 85.7833 17.7983 84.53 17.7983C83.217 17.7983 82.1278 17.7635 80.6507 17.7038C80.4568 17.7983 80.3921 18.3753 80.5861 18.5046L81.1928 18.5692C83.0827 18.7632 83.1474 19.2406 83.1474 22.6077V26.293C83.1474 27.2877 83.0827 27.3175 81.5459 27.3175H72.3749C70.8381 27.3175 70.7734 27.2877 70.7734 26.293V22.6077C70.7734 19.2406 70.8381 18.7582 72.6982 18.5692L73.3049 18.5046ZM72.0118 8.07026L72.0168 8.04042L72.0019 8.01058C71.9422 7.88127 71.8029 7.82656 71.6886 7.82656C71.6239 7.82656 71.5642 7.84645 71.5145 7.87629L71.4797 7.91608C71.0967 8.68199 70.7535 9.06992 70.5795 9.16442C70.291 9.30865 69.8882 9.35341 68.9134 9.35341C67.7993 9.35341 67.5158 9.21913 67.3716 9.07987C67.1826 8.87596 67.1428 8.44327 67.1428 7.76191V5.87697C67.1428 5.61835 67.1428 5.61835 67.481 5.61835H68.2569C68.7244 5.61835 69.0725 5.62829 69.2615 5.683C69.4455 5.72776 69.545 5.8521 69.5997 6.11569L69.7191 6.6379L69.739 6.68266C69.7887 6.74235 69.8832 6.77716 69.9876 6.77716C70.112 6.77716 70.2065 6.7324 70.2512 6.65283L70.2662 6.62796V6.59812C70.2662 6.46881 70.2562 6.29474 70.2463 6.10077C70.2313 5.85707 70.2164 5.58353 70.2164 5.31496C70.2164 5.03645 70.2313 4.74799 70.2463 4.49932C70.2562 4.29541 70.2711 4.11139 70.2711 3.96716V3.94229L70.2562 3.91743C70.2114 3.83785 70.112 3.79309 69.9876 3.79309C69.8832 3.79309 69.7887 3.8279 69.739 3.88758L69.6096 4.47942C69.55 4.7828 69.4754 4.83254 69.356 4.86736C69.2118 4.91709 68.8139 4.94196 68.2519 4.94196H67.476C67.1378 4.94196 67.1378 4.94196 67.1378 4.66842V1.99767C67.1378 1.56498 67.1378 1.56498 67.4362 1.56498H68.3961C68.9631 1.56498 69.3958 1.5799 69.6693 1.64455C70.2811 1.79873 70.4004 2.18169 70.5844 2.76358L70.6093 2.84316L70.6292 2.87797C70.674 2.93268 70.7535 2.96252 70.848 2.96252C70.9425 2.96252 71.0669 2.93268 71.1266 2.84316L71.1465 2.81332L71.1266 2.61438C71.0569 1.83852 70.9923 1.17705 70.9226 0.973139L70.8928 0.883617L70.8033 0.903511C70.6541 0.938325 69.8285 0.938325 69.0228 0.938325H66.5112C65.9989 0.938325 65.5563 0.928377 64.9396 0.898537H64.9147L64.8898 0.908484C64.7804 0.963192 64.7605 1.11737 64.7605 1.1671C64.7506 1.28647 64.7854 1.37599 64.855 1.42075L65.1136 1.46551C65.8 1.54509 65.8398 1.63461 65.8398 3.04707V7.8564C65.8398 9.30368 65.7552 9.36833 65.1037 9.42304L64.6263 9.4678L64.6014 9.49267C64.5268 9.56727 64.5119 9.69161 64.5268 9.7861C64.5417 9.88557 64.5865 9.96017 64.6511 9.99001L64.676 9.99996H64.7009C65.4717 9.97509 65.9392 9.96017 66.5162 9.96017H67.7197C68.8835 9.96017 70.0573 9.97509 71.2957 9.99996H71.3603L71.3901 9.94028C71.5791 9.57722 71.9173 8.53776 72.0118 8.07026ZM60.8464 7.86137V3.05204C60.8464 1.62964 60.8862 1.54011 61.5527 1.47048L61.8312 1.44562L61.8759 1.4307C61.9406 1.38594 61.9754 1.29641 61.9704 1.17705C61.9655 1.13229 61.9505 0.973139 61.8411 0.918431L61.8162 0.908484H61.7914C61.1448 0.938324 60.7022 0.948272 60.2198 0.948272C59.6428 0.948272 59.1753 0.933351 58.6084 0.908484H58.5835L58.5586 0.918431C58.4492 0.973139 58.4293 1.12732 58.4293 1.17705C58.4194 1.29144 58.4542 1.38594 58.5238 1.4307L58.8222 1.47546C59.5036 1.54509 59.5434 1.63461 59.5434 3.05702V4.59381C59.5434 4.91709 59.5434 4.91709 58.9764 4.91709H55.1568C54.5898 4.91709 54.5898 4.91709 54.5898 4.59381V3.05702C54.5898 1.63461 54.6296 1.54509 55.301 1.47546L55.5547 1.45059L55.5994 1.43567C55.6641 1.39091 55.6989 1.29641 55.6939 1.18203C55.6889 1.13726 55.674 0.978113 55.5596 0.923405L55.5348 0.913458H55.5099C54.9031 0.943299 54.4555 0.953245 53.9632 0.953245C53.615 0.953245 53.3116 0.943299 52.9784 0.933353C52.7646 0.928379 52.5408 0.918432 52.2821 0.913458H52.2573L52.2374 0.923405C52.128 0.978113 52.1081 1.13229 52.1031 1.18203C52.0931 1.30139 52.128 1.39091 52.1976 1.43567L52.2225 1.45059L52.5955 1.48043C53.1823 1.52519 53.2868 1.64456 53.2868 3.06199V7.87132C53.2868 9.26389 53.2619 9.3186 52.5955 9.43796L52.3368 9.48272L52.312 9.50759C52.2374 9.58219 52.2225 9.70653 52.2374 9.80102C52.2523 9.90049 52.2971 9.97509 52.3617 10.0049L52.3866 10.0149H52.4114C52.5955 10.0099 52.7695 10.0049 52.9436 9.99996C53.2619 9.99001 53.5852 9.97509 53.9582 9.97509C54.4605 9.97509 54.8882 9.98504 55.6541 10.0149H55.679L55.7039 10.0049C55.7934 9.96017 55.8282 9.84081 55.8332 9.74631C55.8382 9.63192 55.8033 9.53743 55.7387 9.49764L55.306 9.44293C54.6644 9.3733 54.5848 9.30865 54.5848 7.87629V5.99135C54.5848 5.66808 54.5848 5.66808 55.1518 5.66808H58.9714C59.5384 5.66808 59.5384 5.66808 59.5384 5.99135V7.87629C59.5384 9.2987 59.5235 9.32854 58.8123 9.44293L58.5238 9.48769L58.499 9.51256C58.4244 9.58716 58.4094 9.7115 58.4244 9.806C58.4393 9.90547 58.489 9.98006 58.5487 10.0099L58.5736 10.0199H58.5984C59.24 9.99001 59.7025 9.98007 60.2098 9.98007C60.737 9.98007 61.1995 9.99499 61.8212 10.0199H61.8461L61.871 10.0099C61.9804 9.9552 62.0003 9.80102 62.0052 9.75129C62.0152 9.6369 61.9804 9.5424 61.9107 9.49764L61.5477 9.44293C60.8763 9.34844 60.8464 9.27383 60.8464 7.86137ZM49.8601 0.739386L49.87 0.6996L49.8501 0.664786C49.8004 0.565316 49.6512 0.555369 49.6064 0.555369C49.5716 0.555369 49.5219 0.560343 49.4821 0.575263L49.4473 0.590183L49.4274 0.620024C49.2533 0.918432 49.1837 0.943298 48.4725 0.943298H42.9519C42.3551 0.943298 42.0866 0.913457 42.0318 0.61505L42.0269 0.58521L42.002 0.560343C41.9672 0.525529 41.9025 0.505635 41.818 0.505635C41.7881 0.505635 41.6787 0.510609 41.619 0.550396L41.5842 0.575263L41.5743 0.620024C41.4798 1.15218 41.2809 1.99767 41.072 2.59449L41.057 2.63427L41.0769 2.67406C41.1565 2.83321 41.4301 2.91279 41.5793 2.80337L41.5992 2.78845L41.6091 2.76358C41.7434 2.45523 41.8727 2.16179 42.186 1.87831C42.4795 1.60974 43.1459 1.56995 43.7576 1.56995H44.4937C44.7921 1.56995 44.7921 1.56995 44.7921 1.89323V7.86635C44.7921 9.31362 44.7076 9.37828 44.056 9.43299L43.5736 9.47277L43.5289 9.48769C43.4493 9.53743 43.4045 9.6369 43.4095 9.75626C43.4145 9.84578 43.4493 9.96017 43.5338 9.99996L43.5587 10.0099H43.5836C44.3992 9.98504 44.8966 9.97012 45.4387 9.97012C45.9609 9.97012 46.3936 9.98504 47.1843 10.0099H47.2092L47.2341 9.99996C47.3236 9.9552 47.3584 9.83583 47.3634 9.74134C47.3684 9.62695 47.3385 9.53246 47.2689 9.49267L46.7914 9.43796C46.125 9.37828 46.0852 9.29373 46.0852 7.87132V1.87334C46.0852 1.73905 46.0852 1.60974 46.1051 1.58487C46.13 1.56001 46.2742 1.56001 46.3687 1.56001H47.3186C48.0348 1.56001 48.5222 1.66445 48.8057 1.87334C48.93 1.96783 49.0394 2.30603 49.0991 2.7785L49.1041 2.80834L49.124 2.83321C49.1737 2.89289 49.2632 2.92771 49.3677 2.92771C49.492 2.92771 49.6014 2.873 49.6412 2.78348L49.6562 2.75861L49.6512 2.72877C49.6263 2.35079 49.7158 1.27155 49.8601 0.739386ZM40.7636 28.5112C40.7636 32.6491 42.753 35.5635 45.3143 37.3291C47.6568 38.9007 50.4121 39.4776 53.2967 39.4776C55.3508 39.4776 57.6584 38.9952 58.3597 38.7416C58.7128 38.6122 59.0958 38.4879 59.4837 38.4233C59.9661 37.8165 60.7967 35.6978 61.0205 34.0317C60.8912 33.8079 60.4137 33.7432 60.185 33.9024C59.4489 35.7923 57.6186 38.4879 53.4857 38.4879C48.2288 38.4879 43.9615 34.7678 43.9615 28.0337C43.9615 21.3991 48.1293 18.2857 53.0331 18.2857C57.6833 18.2857 59.1256 20.7874 59.608 22.9658C59.8318 23.1597 60.3143 23.1249 60.4734 22.9011C60.2148 20.9465 60.0556 18.9273 60.0258 18.1863C59.7373 18.2211 59.5135 18.1564 59.1306 18.057C57.6236 17.6392 55.1866 17.2861 53.4559 17.2861C50.1237 17.2861 47.1396 18.1813 44.7971 20.0115C42.3651 21.9064 40.7636 24.9502 40.7636 28.5112ZM32.4231 23.1V0.769228C14.4839 -0.961535 0.941162 0.769228 0.941162 0.769228C0.941162 0.769228 0.941162 23.1 0.941162 23.105C2.36854 38.2442 16.5479 40.0197 16.6821 39.9998C19.2186 39.5373 31.1052 37.15 32.4231 23.1ZM5.99419 28.6753C6.28265 28.8692 6.62085 28.9538 6.9292 29.0881C7.31216 30.0877 6.93915 31.0775 6.72529 30.6647C6.34731 29.9485 6.1981 29.3517 5.99419 28.6753ZM6.01409 17.6989L5.98922 17.674C5.95938 17.674 3.99486 18.9124 2.72166 18.3205C3.67159 17.7934 6.96899 15.6995 7.86918 15.1077C8.29193 15.1972 8.466 15.048 8.60028 14.9535C8.25711 14.9734 7.11322 15.1525 7.69014 14.1329C7.91395 15.048 9.51042 14.2075 10.0873 14.0732C11.6888 13.7052 11.6789 15.416 11.5396 16.1223C11.4899 16.3859 12.032 16.5749 12.2956 16.5351C11.838 17.6641 11.0522 16.5997 10.9577 17.0324C10.9179 17.2065 10.3957 17.3458 10.3957 17.7784C10.4007 18.3703 10.6295 18.047 10.6543 18.5095C10.6792 18.9572 10.4653 18.609 10.5151 19.0914C10.5897 19.8573 11.8579 18.992 12.3801 19.1959C12.6437 19.3003 12.8178 19.5341 13.0714 19.4893C13.146 19.4296 13.1112 19.1362 13.1013 19.0367C13.0764 18.793 12.6238 18.7632 12.4149 18.4349C12.2309 18.1465 12.6238 17.2761 12.8327 17.0175C13.1361 18.4548 14.4839 18.0022 14.6828 19.5142C14.8121 19.9419 14.2203 20.4144 14.6977 21.1107C14.3446 21.4538 13.9169 23.0901 14.658 23.861C14.5336 24.2091 14.3645 25.0098 15.026 25.4823C14.8022 25.9548 14.8569 26.5367 15.0409 27.1285C14.6281 27.1285 14.7127 24.8159 12.2409 24.7413C12.1861 24.7264 12.1712 25.0049 12.2409 25.1292C12.5393 25.6514 12.9322 25.6216 12.8476 26.845C12.8178 27.2628 12.5741 26.7704 12.4398 26.6561C12.1414 26.3925 11.9076 26.3576 11.7783 25.4972C10.7737 26.283 10.8732 27.238 10.9378 27.7204C10.9378 27.7204 10.714 27.1186 10.4604 26.4969C10.4454 26.4621 11.4799 25.2237 11.644 24.9253C13.7279 21.1753 10.2962 26.1388 10.2913 26.1239C10.1072 25.6962 9.94312 25.3281 9.83867 25.2088C9.86354 25.159 10.4355 24.5175 10.6941 23.9803C12.3055 20.6233 9.73423 25.0994 9.64471 25.0148C9.45074 24.8407 9.29159 24.6219 9.16726 24.7015C9.13742 25.2187 9.01308 25.1491 9.05287 25.6713C8.7843 26.0294 8.20738 26.5914 7.80453 26.8749C7.80453 26.8749 7.70506 25.9449 7.72993 25.91C7.93384 25.6614 8.72462 24.8109 8.88874 24.5573C11.5296 20.4094 7.65035 25.5569 7.64538 25.5122C7.61554 25.348 7.40665 25.0745 7.17788 24.8457C7.17788 24.8457 8.03331 23.677 8.24717 23.2443C9.85359 19.9369 6.95407 24.7065 6.92423 24.6915C6.8546 24.6567 6.84963 24.6567 6.76508 24.6269C6.6855 24.602 6.8546 23.677 6.96402 23.1199C7.18285 22.0208 6.59598 22.9061 6.43683 24.6518C6.28763 24.6766 5.92456 24.7114 5.79028 24.8358C5.8798 25.3033 5.98922 24.9452 6.18318 25.3928C6.41694 25.9299 5.85991 26.8053 6.34233 27.4518C6.53133 27.7005 6.54127 27.6607 6.50646 27.8198C6.20805 27.8 6.02403 27.795 5.83504 28.0486C5.46701 26.3775 5.47695 25.5718 5.56647 23.8759C5.60626 23.105 5.85991 21.9362 5.74054 21.9114C5.63113 21.8915 3.88047 26.3974 3.45773 27.2827C2.72166 27.034 3.91529 23.1299 5.43717 21.2549C5.5814 20.6581 4.64141 21.8616 4.07941 22.3391C3.56217 22.7768 2.91065 23.3537 2.19945 23.1547C3.11456 22.1899 5.20341 20.3845 5.43717 19.9319C5.63113 19.544 4.00978 21.1355 2.29394 20.5437C3.41794 19.9419 6.00911 18.619 6.01409 17.6989ZM9.1026 26.1736C9.10757 26.5864 9.07773 26.8898 9.20207 27.3076C9.39604 27.9392 9.29657 27.7452 9.03297 27.5264C8.82409 27.2927 8.62515 27.0987 8.52568 26.8252C8.49584 26.6362 8.65499 26.6212 9.1026 26.1736ZM13.2455 16.0178C12.9968 15.5901 13.5439 15.1823 13.5439 15.1823C13.529 16.3809 15.0608 15.5603 15.8615 15.9383C16.0555 16.0278 16.1898 16.1969 16.2693 16.3759C15.4089 15.7791 13.8174 16.9926 13.2455 16.0178ZM4.22862 6.43399C2.86092 6.43399 2.89076 4.37995 4.22862 4.37995C5.57145 4.37995 5.57145 6.43399 4.22862 6.43399ZM4.22862 10.5321C2.83108 10.5321 2.83108 8.48306 4.22862 8.48306C5.57145 8.48306 5.5814 10.5321 4.22862 10.5321ZM6.82476 6.10574H5.63113V4.93201H6.82476V6.10574ZM6.82476 10.1939H5.63113V9.02019H6.82476V10.1939ZM16.4633 12.2131C16.4633 12.2131 15.215 11.5368 13.7478 11.4373C12.3304 11.3428 9.46566 12.4767 7.2674 12.3275V2.66909C7.2674 2.66909 9.77402 3.00231 10.8035 2.60443C14.3048 1.25165 16.4583 2.76358 16.4583 2.76358V12.2131H16.4633ZM18.8804 13.7848C18.9401 14.1478 18.6019 14.2423 18.6019 14.2423C19.1291 14.3667 19.3778 14.0533 19.4822 13.8544C19.6861 14.6949 18.8357 14.7397 18.5721 14.7894C18.5721 14.7894 18.9998 14.9137 19.0246 15.1922C19.0794 15.9035 19.5369 15.8438 19.6364 15.7841C19.6215 15.8686 19.4772 16.2964 18.965 15.9134C18.8804 15.9979 19.1042 16.1322 19.149 16.4853C19.2087 16.933 19.1937 17.3458 19.706 17.6143C19.3927 17.863 19.0197 17.2115 18.9849 17.291C18.95 17.3806 19.4225 17.6193 18.9003 18.8527C18.6616 18.7134 18.7959 18.7433 18.5173 18.415C18.3035 18.236 18.2239 18.1962 18.398 18.4896C18.7063 18.8726 18.7809 19.7579 18.6715 19.9916C18.4179 19.8822 18.4825 19.6783 18.1841 19.3998C18.1543 19.5192 18.2786 20.101 18.587 20.3796C19.1241 20.862 19.3131 21.4489 19.323 21.5632C19.3678 22.0009 19.2286 22.5828 19.1738 23.1448C18.9152 23.11 18.6964 22.3789 18.6367 22.4187C18.5621 22.4684 18.6666 23.1349 19.154 23.5874C19.3877 24.2738 19.2932 24.6418 19.2335 24.6667C19.149 24.7015 18.8904 23.9654 18.7461 24.0947C19.4374 25.8504 18.955 26.4571 18.771 26.9992C18.6268 26.4472 18.5571 26.0294 18.3781 25.4027C18.0001 25.6962 17.9106 26.1338 17.453 26.5367C17.453 25.8205 17.0402 24.0947 16.712 23.6919C16.6971 23.672 16.1201 25.2386 15.8566 25.9349C15.5134 26.8401 15.4636 27.9691 15.8566 28.8494C15.0061 27.6358 14.9116 25.3829 15.6477 25.0795C15.7123 24.9203 15.6029 24.3882 15.4388 24.4528C15.394 24.7114 15.4239 24.9352 15.21 25.1889C14.648 25.0248 14.9016 24.3335 14.9514 24.1096C15.6825 23.2343 15.2249 23.0304 15.1901 23.0553C15.1105 23.2542 15.0409 23.5029 14.8171 23.5924C14.3496 22.7867 14.648 21.5185 15.5383 20.5735C15.578 20.2204 15.1404 20.8371 14.8569 20.8172C14.7823 20.1359 15.031 18.9571 16.2892 18.9124C16.0505 18.8428 15.9212 18.798 15.8615 18.5991C16.2395 18.5444 17.4331 18.4499 17.2392 17.5099C17.1248 17.6243 17.09 17.7934 16.7816 17.9824C16.5727 18.1117 16.3439 18.1216 16.2246 17.9376C16.7766 17.7536 16.5976 17.0822 15.8715 17.2811C15.6526 17.3408 15.3244 17.112 15.3095 16.8534C15.4686 17.0125 15.7969 16.8932 15.9859 16.7738C16.7965 16.2466 17.2939 17.0125 17.4033 17.1767C17.4381 17.1767 17.7664 16.4107 16.6125 16.2068C16.518 15.9383 16.2544 15.4608 15.4686 15.5205C15.21 14.6104 14.4292 15.058 14.454 15.4708C13.6235 14.859 14.469 14.0881 14.8022 13.9688C15.0359 13.9887 14.9812 14.7247 15.389 14.6004C15.4885 14.5706 15.0707 14.0931 15.2299 13.8793C15.6029 13.6654 15.5979 14.1528 15.7819 13.9737C15.8715 13.6554 16.2395 13.4764 16.5429 13.4416C17.4083 13.3123 18.0697 14.2423 18.8804 13.7848ZM26.5147 12.3624C24.6745 12.4867 20.8499 11.4373 19.8801 11.4373C17.8758 11.4373 16.906 12.2181 16.906 12.2181C16.906 12.2181 16.9109 3.1167 16.906 2.78845C16.906 2.78845 19.5419 1.55503 21.4567 2.26126C23.8041 3.12665 26.5147 2.74369 26.5147 2.74369V12.3624ZM28.9417 8.64718C29.9563 8.49798 30.1105 9.69658 30.1105 9.69658C29.8618 9.49764 29.3595 9.40812 29.0163 9.62695C27.8824 10.358 26.8578 10.363 26.8578 10.363V8.53279C26.8578 8.53279 27.0717 8.92072 28.9417 8.64718ZM30.1403 6.14056C30.1304 6.08585 30.1204 6.0013 30.1055 5.88691C30.0806 5.7029 29.5534 5.59845 29.1854 5.76258C28.6682 5.99136 27.3651 6.7324 26.8926 6.59314V4.76291C28.0614 5.2702 28.519 4.81265 28.897 4.81265C30.0508 4.81265 30.1105 5.89189 30.1105 5.89189C30.1254 6.0013 30.1353 6.08585 30.1403 6.14056ZM28.8323 25.1093C28.4891 25.1988 27.5889 25.5569 27.3701 25.915C27.4845 23.9654 26.8578 22.0506 26.6539 21.5881C26.261 20.6879 26.828 23.6869 26.8678 24.3782C26.8678 24.4081 23.6301 20.2154 25.5846 23.4432C26.0919 24.2787 26.8827 24.8258 26.8827 24.8407C26.8976 25.4226 26.8578 25.8504 26.7484 26.1637C26.5495 26.3228 22.3419 20.5636 24.6645 24.5523C24.953 25.0447 26.639 26.5417 26.6291 26.5765C26.5196 26.8053 26.3306 27.1335 26.072 27.3772C26.0273 27.3324 25.1022 26.6511 25.0923 26.6063C25.0226 26.1587 25.0177 25.7409 24.4706 26.0543C24.4706 26.0543 22.3966 23.6421 23.3565 25.3331C23.7743 26.0742 24.0528 26.1537 24.1622 26.288C24.1622 26.288 23.8389 26.7257 23.7395 27.1882C23.6997 27.3722 21.9391 25.2386 22.6304 26.5815C22.8492 27.0092 23.6549 27.4817 23.645 27.5115C23.5604 27.79 23.4809 28.0635 23.3913 28.2376C23.2819 28.4614 21.7402 29.6899 21.7402 29.6899C21.7402 29.6899 22.0435 28.7151 22.6951 28.2376C23.0681 27.9641 23.0681 28.0238 23.3167 27.8696C23.3118 27.7254 23.1725 27.4916 22.9935 27.4269C22.7697 27.3474 22.0386 27.4817 22.0386 27.4817C22.1082 27.1186 21.7849 26.3278 21.7899 25.4624C21.5163 25.4873 21.0339 25.915 20.9146 26.1537C20.83 27.5861 20.5167 27.1584 20.2282 28.1929C19.9099 27.7602 20.2481 27.1385 19.9398 26.7356C19.512 26.1786 19.4474 25.8006 19.3827 25.1193C19.4822 25.0646 19.9199 24.5821 19.522 23.5675C19.4573 21.976 20.1685 21.3693 18.8953 20.2602C18.9998 20.2254 19.0794 19.4296 19.0794 19.4296C20.0144 19.927 19.8303 18.8527 20.1934 18.6388C20.7703 18.3007 20.6659 17.9525 20.4073 17.5198C22.0634 17.9923 20.3327 19.1213 21.0837 19.1461C21.6258 19.1611 21.9888 19.0268 22.2276 18.6587C22.4812 18.2708 22.1828 18.0371 22.884 17.4104C22.9537 17.3507 23.1427 16.928 22.5856 16.8136C22.4613 16.7887 22.5856 16.3113 22.5856 16.3113C22.138 16.6893 21.9988 17.2214 21.2826 16.8832C20.9146 16.7091 20.6758 16.8782 20.5266 16.9528C20.5266 16.9528 20.452 16.6544 20.7554 16.55C21.5412 16.2864 21.7352 15.9731 21.6904 15.804C21.586 15.3962 21.5512 15.804 21.576 15.3763C21.586 15.2072 21.7849 14.9734 21.949 14.7745C22.4812 14.1329 22.8592 14.3716 22.9935 14.4313C23.3018 14.1926 23.3565 14.2075 23.645 14.0931C24.1374 13.8991 25.2066 14.2224 25.8035 14.496C26.0919 14.6253 26.4401 14.7048 26.7733 14.6302C26.7683 14.8043 26.649 14.8988 26.5246 14.9336C26.3406 14.9933 26.1168 14.9336 26.1317 15.0679C26.1417 15.1475 26.3953 15.1624 26.5545 15.2072C27.4397 15.4509 28.5836 16.2416 27.8326 16.0725C27.7431 16.0527 28.3747 16.545 28.8522 17.1816L30.5382 18.8179C30.4586 18.9124 29.8717 18.8278 27.9968 17.0722C27.7282 17.3109 30.2746 19.2257 31.324 21.2599C31.2345 21.3245 29.9265 20.8471 29.454 20.3597C28.7279 19.6087 27.8923 17.6939 27.5491 17.9774C27.5094 17.9923 28.9318 20.2105 29.633 21.5235C29.9861 22.1899 30.2796 23.1398 30.3044 23.861C30.4188 27.4021 29.8817 27.1285 29.8867 27.1285C29.0561 24.3384 28.6682 21.1007 27.4596 19.6037C26.9822 19.0019 28.7577 22.2098 28.8323 25.1093ZM25.1669 28.2923C24.7938 28.6206 24.5501 28.735 24.6297 28.5758C24.7192 28.3918 24.7889 28.2426 24.8386 28.1033C24.8585 28.0536 25.1669 28.2923 25.1669 28.2923ZM24.9232 27.8497C25.0077 27.5513 25.0077 27.3474 25.0425 27.0838C25.0574 26.9694 25.0624 26.9843 25.0674 26.8898C25.0674 26.86 25.8781 27.5612 25.9228 27.5911C25.7189 27.8447 25.5448 27.9392 25.3509 28.1183C25.2166 28.0039 24.9132 27.8795 24.9232 27.8497ZM27.5491 28.7499C26.4251 29.859 24.7391 29.4561 23.4112 30.0529C22.2077 30.4906 21.3373 31.6046 20.074 31.8881C19.701 32.0075 19.6414 32.1915 19.8801 32.1865C20.0193 32.1816 20.7902 32.9873 22.0187 32.3656C22.4315 32.1567 23.7047 31.4455 23.9235 31.4057C23.2322 32.0622 22.884 32.654 22.2673 32.9972C21.8894 33.2111 20.3476 33.7582 18.8158 33.4597C18.1344 33.3255 17.6122 33.9571 17.7863 33.9422C18.1493 33.8427 18.5571 33.8924 18.8058 34.2157C19.2534 34.5639 19.895 35.0015 20.452 34.35C20.636 34.1361 21.5163 33.6786 22.3469 34.5191C21.4666 34.4743 21.5512 36.0559 19.885 35.8719C19.2683 35.8669 17.9006 34.4544 17.5127 34.8921C16.8214 35.668 18.9948 36.404 18.0548 37.3788C17.2044 38.2591 16.1898 36.6776 16.1898 36.6776C16.7219 36.9014 17.6967 37.0456 17.269 36.1802C17.0999 35.8371 16.7717 35.5287 16.7717 34.8971C16.6971 34.5837 14.7524 37.4037 13.4643 36.1305C12.957 35.6282 11.9325 34.534 11.0074 34.1162C13.4643 33.9074 13.8373 34.8921 13.9567 35.0463C14.7425 36.1056 15.4686 35.0314 15.6377 34.8424C15.8914 34.5489 16.2544 34.1511 16.1251 34.0914C15.1702 33.6388 14.086 33.5443 13.2704 33.9173C15.0111 31.5251 16.3638 33.7631 16.3638 33.7631C16.5528 33.8825 16.3141 32.3457 14.5933 32.2611C13.519 32.2064 12.5741 33.1763 11.8281 33.1763C11.2263 33.1763 9.39604 31.9428 8.96832 30.8437C10.0326 31.6395 11.3904 32.097 12.2359 31.5897C13.8274 30.6398 15.8267 32.0722 15.9212 31.8981C15.4786 31.5499 14.464 30.1972 11.7336 30.968C10.6742 31.5748 10.2266 30.5155 9.58005 30.5005C10.6842 29.5208 11.455 30.0181 11.838 30.048C11.9275 30.048 11.3755 29.5904 10.9875 29.5506C7.97363 29.2373 6.05885 28.4067 6.05885 28.4067C6.04393 28.4067 6.31249 27.8 7.60559 28.2376C7.60559 28.2376 6.4418 27.5264 6.45175 26.6113C6.49154 26.0493 6.7601 25.4425 6.33239 24.975C8.08304 24.9054 6.83968 27.3424 8.06812 27.974C8.09299 27.984 7.70506 27.3921 8.25214 26.9296C8.50579 27.6458 9.13244 28.0188 9.57011 28.1332C9.67455 28.0785 9.79888 27.8547 9.79888 27.8596C9.33635 27.0937 9.27667 26.2035 9.40101 25.1839L9.4209 25.174C9.52037 25.1789 9.68947 25.5271 9.80883 25.7807C10.0625 26.3278 10.0575 27.1186 10.5648 27.7701C10.8483 28.1282 11.0224 28.4863 11.276 28.6604C11.3854 28.4067 11.3058 27.9691 11.2859 27.8547C11.2263 27.4419 10.9676 26.7157 11.6788 26.0742C12.0121 27.0291 12.4597 26.7555 12.5243 27.2131C12.6089 27.8547 12.579 27.7552 12.5144 28.2476C12.5492 28.9289 13.1659 29.1179 13.713 29.5556C14.9514 30.227 15.772 30.595 16.3091 31.4554C16.5727 29.9982 12.6437 29.7098 13.151 26.8998C13.0963 25.7807 13.2902 25.6862 12.4945 24.9999C14.0711 25.0447 14.9315 27.6309 15.016 28.1033C15.1752 28.9687 15.7024 29.0135 16.4235 30.1474C16.528 30.1872 15.1304 27.1335 16.7965 24.5224C16.7965 24.5224 17.3585 25.8802 17.0949 26.7704C16.9358 27.3076 17.085 27.8994 17.1148 28.2376C17.1447 28.5808 17.0452 26.9992 18.2339 26.1836C18.3085 26.7804 18.8804 27.7104 18.3383 28.7001C17.6768 29.9087 17.6271 29.476 17.6172 30.9581C17.6768 30.9332 17.8459 29.9336 18.3035 29.3666C19.2634 28.168 18.577 27.5264 19.512 26.487C19.5866 27.0042 19.7209 26.8003 19.7756 27.2628C19.9 28.3023 18.8158 29.4362 19.0595 29.4014C19.333 29.3616 19.7756 29.1229 19.9248 28.3371C19.9248 28.3371 20.3227 29.0533 19.9597 29.297C19.2982 29.7297 19.1589 30.1972 19.2634 30.7243C19.7955 30.0927 20.5167 29.3915 20.3923 28.4863C20.452 27.9442 21.0439 27.7204 21.1583 26.4571C21.1782 26.2482 21.387 25.9946 21.5959 25.8802C21.5064 26.5914 22.0585 27.3275 21.4268 28.1929C21.5711 28.2675 22.0982 27.5165 22.8741 27.79C21.3174 28.0685 21.77 29.7595 20.5813 30.5354C20.2232 30.7691 20.2829 31.0327 20.1735 31.0625C21.2378 31.0029 22.0585 29.7346 22.2027 29.6352C23.272 28.909 23.5057 28.7996 23.9334 27.6259C24.1025 27.1783 23.9782 26.9843 24.57 26.3825C24.8287 26.9744 24.4507 28.2078 24.3612 28.4714C24.1672 29.0383 23.4958 29.5257 23.64 29.5257C26.5097 28.2575 26.4749 27.407 27.1612 26.5019C27.3651 26.1537 28.3897 25.5519 28.7676 25.4972C28.6731 25.6862 28.2753 26.0045 28.2603 26.3477C28.2255 26.9793 28.0216 27.3673 27.6984 27.8795C27.8774 28.1033 28.2206 27.4618 28.5687 27.785C28.1161 27.9342 27.9072 28.4465 27.5491 28.7499ZM28.0266 28.5858C27.8575 29.4213 27.569 30.1972 27.0667 30.9183C26.7136 31.4306 26.5694 30.4359 26.8728 29.476C27.3054 29.3019 27.7381 28.9637 28.0266 28.5858ZM25.8433 7.37397C25.7786 7.34911 25.6393 7.32424 25.5498 7.32424C25.4603 7.32424 25.4155 7.44858 25.525 7.47842C25.5946 7.49831 25.7239 7.51821 25.8482 7.52815C25.9328 7.53313 25.9079 7.39884 25.8433 7.37397ZM25.52 7.77683C25.5896 7.79672 25.7139 7.81661 25.8433 7.82656C25.9228 7.83651 25.898 7.70222 25.8333 7.67736C25.7687 7.65249 25.6294 7.62762 25.5448 7.62762C25.4503 7.62265 25.4106 7.74201 25.52 7.77683ZM25.52 9.60208C25.4553 9.52748 25.2862 9.38822 25.132 9.27881C25.0425 9.35341 24.8635 9.48272 24.7491 9.5424C24.6645 9.44791 24.5502 9.31362 24.3761 9.17437C24.2716 9.24399 23.9683 9.52251 23.8439 9.59214C24.0279 9.59711 24.3015 9.65679 24.3114 9.83086C24.3164 9.97012 24.3015 10.8355 24.3114 10.9947C24.4258 11.0195 24.5551 11.0096 24.7192 10.9996C24.7292 10.8753 24.7242 9.8806 24.7292 9.76123C24.7839 9.73139 24.8486 9.70155 24.8784 9.67171C24.9431 9.71647 25.132 9.94028 25.2464 9.99996C25.321 9.94028 25.5249 9.76621 25.6095 9.68166C25.699 9.58716 25.5996 9.52748 25.52 9.60208ZM25.0127 8.14983C25.1171 7.96084 25.2713 7.65249 25.2614 7.41874C25.2464 7.13028 25.0724 6.70753 24.6496 6.5633C24.1175 6.75229 23.7842 7.17504 23.7693 7.67238C23.7594 7.96582 24.008 8.56263 24.5203 8.56761C24.6795 8.42337 24.8486 8.25925 25.0127 8.14983ZM24.6894 8.26422C24.5899 8.21449 24.2318 7.93598 24.1473 7.72212C24.0379 7.43366 24.0379 7.11536 24.3462 6.93134C24.585 7.02086 24.8635 7.25461 24.8883 7.46847C24.9182 7.75196 24.8386 8.08021 24.6894 8.26422ZM24.6745 6.04109L25.0574 5.62332C25.0574 5.62332 24.8883 5.48904 24.7839 5.3647C24.7839 5.27518 24.7839 4.43466 24.8187 4.3899C24.5303 4.13128 24.3214 4.10144 24.197 4.11636C23.9633 4.15118 23.7246 4.44958 23.65 4.55403C23.5952 4.6336 23.6102 4.73307 23.65 4.76789C23.6947 4.80767 23.7544 4.84249 23.8191 4.88228C23.8091 4.8773 23.7992 4.86735 23.7892 4.86238C23.6798 4.96682 23.5206 5.26026 23.5256 5.46417C23.5256 5.66808 23.7096 5.96151 23.834 6.07093C23.9683 5.96649 24.1722 5.79242 24.4656 5.73274C24.4954 5.87697 24.5651 5.96151 24.6745 6.04109ZM24.4457 5.07127C24.2567 5.00164 23.8837 4.82757 23.7494 4.71815C23.7146 4.68831 23.7096 4.67339 23.7544 4.60376C23.8389 4.47445 23.9384 4.36504 24.008 4.37001C24.0677 4.37001 24.4457 4.57392 24.4358 4.67836C24.4407 4.75296 24.4457 4.91212 24.4457 5.07127ZM24.4457 5.64321C24.3462 5.64819 24.2617 5.67305 24.1374 5.73274C24.0329 5.64819 23.7643 5.32491 23.9633 4.96185C23.9334 4.94693 23.9086 4.93201 23.8787 4.91212C24.0628 5.01656 24.2716 5.10111 24.4407 5.15581C24.4407 5.30004 24.4358 5.42936 24.4358 5.47909C24.4358 5.54374 24.4407 5.59348 24.4457 5.64321ZM23.3416 3.91743C23.2521 3.91743 22.6453 3.93235 22.6304 3.89753C22.5856 3.76822 22.5757 3.60907 22.6801 3.39024C22.7299 3.28082 22.6304 3.23606 22.5906 3.34548C22.5508 3.45489 22.2474 3.87266 21.9341 4.00695C21.77 4.0716 22.1331 4.22081 22.1082 4.21583C22.1082 4.61868 22.1629 5.22544 22.2524 5.46914C22.3071 5.61337 22.4712 5.84712 22.5856 5.7775C22.6602 5.73274 22.8194 5.41443 22.8691 5.37465C22.9586 5.30502 22.8691 5.18068 22.7995 5.25528C22.7199 5.32491 22.6503 5.2155 22.6254 5.14089C22.6006 5.07127 22.526 4.18102 22.5608 4.16112C22.5608 4.16112 23.2769 4.07658 23.3515 4.07658C23.3913 4.0716 23.3963 3.91743 23.3416 3.91743ZM21.3721 5.55369L21.6705 5.17073C21.4567 5.13592 21.3671 5.09613 21.2179 4.92206L21.2229 3.96716L20.9195 3.66378L20.8151 3.67373L20.3376 4.0915C20.2879 4.1661 20.4172 4.1661 20.4819 4.07658L20.825 4.27551L20.84 5.20058C20.8648 5.30999 20.9593 5.41941 21.0936 5.55369H21.3721ZM21.1135 3.43003L21.2776 3.2858V3.05204L21.0538 2.83321L20.83 3.0222L20.835 3.29077L20.9742 3.43003H21.1135ZM20.3526 3.13659C20.2232 3.12167 19.8055 3.15649 19.6513 3.18135C19.4971 3.20622 19.4971 3.28082 19.6264 3.29574C19.7508 3.31066 19.7756 3.33553 19.8453 3.50463C19.9049 3.67373 19.6016 4.44958 19.527 4.6336C19.4374 4.49932 19.1142 3.79309 19.1142 3.69362C19.1142 3.62399 19.2584 3.55436 19.3181 3.53944C19.4374 3.50463 19.4325 3.42008 19.3429 3.40516C19.0893 3.37034 18.204 3.29077 18.0449 3.27087C17.9305 3.26093 17.8808 3.39024 18.015 3.39024C18.1593 3.39521 18.3035 3.35045 18.4626 3.57923C18.6417 3.83785 19.2037 5.0464 19.338 5.55369C19.4026 5.44427 19.9646 3.81795 19.9994 3.64388C20.0392 3.47479 20.1586 3.31066 20.3227 3.26093C20.4968 3.22114 20.4819 3.14654 20.3526 3.13659ZM17.6868 7.07557C17.6967 7.75196 17.9653 7.81164 18.2737 7.98571C18.5671 8.14983 19.0545 8.11999 19.4225 8.02052C19.5618 7.98074 19.6364 7.97079 19.6314 8.09015C19.6314 8.16475 19.7358 8.14983 19.7358 8.09513C19.7358 8.04042 19.7408 7.47344 19.7408 7.40879C19.7408 7.33916 19.6364 7.34911 19.6364 7.40879C19.6364 7.50328 19.6364 7.53313 19.5419 7.66741C19.2882 8.04042 18.6566 8.0255 18.3184 7.56794C18.204 7.41376 18.0946 7.20488 18.2289 7.16509C18.3632 7.1253 18.771 7.20985 19.0396 7.22975C19.1987 7.23969 19.5717 7.27948 19.6215 7.30435C19.6612 7.33419 19.7259 7.37397 19.7259 7.2944C19.7309 7.21482 19.7309 6.95123 19.7309 6.87166C19.7309 6.79208 19.6712 6.83187 19.6264 6.85674C19.5817 6.88658 19.1838 6.95621 19.0246 6.98107C18.8655 7.01091 18.3731 7.0507 18.2438 7.00594C18.1095 6.96118 18.1543 6.69759 18.2737 6.54341C18.6168 6.09082 19.3081 6.12067 19.5618 6.49865C19.6463 6.62796 19.6463 6.66277 19.6463 6.75727C19.6463 6.81695 19.7458 6.82192 19.7458 6.75727C19.7508 6.69261 19.7557 6.00628 19.7557 5.95157C19.7557 5.89686 19.6563 5.87697 19.6563 5.95157C19.6563 6.0013 19.5469 6.03114 19.4374 6.0013C19.2236 5.93167 18.5969 6.03114 18.3184 6.18532C18.0648 6.33452 17.6818 6.66277 17.6868 7.07557ZM17.8061 8.27417C17.8161 8.46814 17.8857 10.1243 17.8658 10.3531C17.8509 10.4824 18.03 10.6216 18.1891 10.7311C18.2687 10.6366 18.4378 10.3879 18.577 10.2834C18.6616 10.2138 18.6019 10.1691 18.5372 10.1939C18.4129 10.2536 18.2836 10.2088 18.2687 10.0596C18.2587 9.91541 18.2587 8.48803 18.2687 8.28412C18.1742 8.28909 17.9006 8.28412 17.8061 8.27417ZM19.1738 9.63192C19.0644 9.73637 18.8655 10.0049 18.8705 10.2039C18.8754 10.4078 18.9699 10.6017 19.0893 10.7112C19.2882 10.5719 19.4175 10.3779 19.7508 10.2486C19.7906 10.4028 19.9 10.4277 20.0343 10.5271C20.1138 10.4426 20.3973 10.0945 20.457 10.0298C20.5217 9.97012 20.4819 9.91044 20.3923 9.97012C20.3028 10.0298 20.2431 9.99498 20.0939 9.83086C20.0989 9.74134 20.084 9.03014 20.1188 8.99035C19.9845 8.84612 19.8552 8.64221 19.6961 8.65713C19.4623 8.67702 19.1639 9.08484 19.0893 9.18929C19.0296 9.26389 19.0943 9.55732 19.1341 9.59711C19.154 9.617 19.1589 9.617 19.1738 9.63192ZM19.338 9.74631C19.4673 9.82091 19.5319 9.77615 19.7358 9.75129C19.7358 9.8806 19.7309 9.99499 19.7309 10.0547C19.6414 10.1193 19.5319 10.174 19.4026 10.2387C19.3081 10.1591 19.1589 10.0895 19.338 9.74631ZM19.2335 9.15944C19.3181 9.03014 19.3728 9.00527 19.4424 9.00527C19.5021 9.01024 19.7408 9.17437 19.7309 9.28378C19.7408 9.35341 19.7458 9.50261 19.7458 9.65679C19.5667 9.67668 19.4424 9.69658 19.2435 9.53245C19.1987 9.49764 19.1888 9.22907 19.2335 9.15944ZM20.6659 8.89585C20.5167 8.97045 20.8698 9.10971 20.8449 9.10474C20.84 9.50759 20.7604 10.1641 20.8996 10.368C20.9842 10.4973 21.1781 10.5769 21.3075 10.5271C21.4318 10.4774 21.5909 10.2287 21.6407 10.1889C21.7352 10.1193 21.6556 10.0447 21.576 10.1193C21.5014 10.189 21.2925 10.1392 21.2627 10.0696C21.2428 9.99499 21.213 9.11966 21.2528 9.09976C21.2528 9.09976 21.5014 9.09479 21.5711 9.09479C21.6258 9.09479 21.6258 8.93564 21.576 8.93564C21.4865 8.93564 21.2826 8.91575 21.2726 8.88093C21.2428 8.79638 21.2776 8.53279 21.3323 8.42337C21.387 8.31396 21.2826 8.26422 21.2428 8.37364C21.1931 8.493 20.9344 8.76654 20.6659 8.89585ZM20.7405 7.07557C20.7554 7.45355 20.5565 7.85143 20.3426 8.03545C20.7156 7.94095 20.7604 7.71714 20.9643 7.45852C21.0787 7.62265 21.2826 7.82656 21.4368 7.91111C21.5462 7.84148 21.8496 7.49831 21.9142 7.42868C21.6954 7.369 21.2726 7.1452 21.1682 6.91144C21.0837 6.73737 21.1035 6.65282 21.1881 6.51357C21.2627 6.61304 21.775 6.84679 22.0087 6.45389C21.7551 6.35939 21.5263 6.19527 21.4517 6.06098C21.3821 6.11569 21.1583 6.36437 21.0289 6.43897C20.9991 6.30468 20.7902 6.15548 20.6211 6.12564C20.5664 6.18532 20.1685 6.4887 19.9895 6.57325C19.9348 6.59812 19.9547 6.72245 20.0343 6.69261C20.1089 6.66277 20.2282 6.56828 20.3724 6.49865C20.5366 6.56828 20.7206 6.7324 20.7405 7.07557ZM22.516 7.14022C22.5608 6.91144 22.7249 6.81695 22.7945 6.74732C22.899 6.86171 23.0034 6.99599 23.1626 6.99599C23.3167 6.99599 23.4759 6.92636 23.5256 6.86171C23.3963 6.75727 23.1078 6.45389 23.0531 6.39918C22.9089 6.47875 22.2723 6.81198 22.2176 7.19493C22.138 7.75693 22.3171 7.87132 22.5657 8.17968C22.705 8.35375 22.9388 8.36369 23.0432 8.33385C23.1576 8.25428 23.5754 7.86137 23.6201 7.81164C23.6599 7.7619 23.6002 7.71714 23.5505 7.76688C23.5008 7.81661 23.5206 7.83651 23.451 7.84645C23.3814 7.8564 23.0979 7.90614 22.9338 7.82159C22.7249 7.70222 22.4563 7.44858 22.516 7.14022ZM22.2027 8.93564C22.1082 9.03014 21.9441 9.13955 21.7899 9.31362C21.9192 9.32357 22.0236 9.34844 22.0833 9.47277C22.148 9.59214 22.0933 10.1044 22.1032 10.3033C22.1132 10.4923 22.2275 10.5371 22.3817 10.6913C22.5309 10.6515 22.9537 10.4774 23.0979 10.3779C23.083 10.5371 23.2819 10.7112 23.4013 10.746C23.4809 10.6614 23.5654 10.6117 23.6798 10.5073C23.5654 10.4326 23.5803 10.4227 23.5405 10.2735C23.5057 10.1293 23.5505 9.58219 23.5505 9.34844C23.461 9.21415 23.3167 9.05003 23.1626 8.94061C23.0581 9.03511 22.9139 9.16442 22.7448 9.34346C22.8691 9.32854 23.1128 9.37828 23.1277 9.48272C23.1377 9.617 23.1576 9.91541 23.1277 10.1442C23.0979 10.3779 22.4762 10.2685 22.4663 10.1143C22.4514 9.9552 22.4961 9.49267 22.5011 9.27383C22.4215 9.1296 22.3668 9.055 22.2027 8.93564ZM18.0697 14.5407V14.5159C17.7117 14.4661 17.4282 14.2125 17.0949 14.0881C16.6374 13.9141 16.155 14.2672 16.155 14.3219C16.155 14.4462 16.2843 14.5059 16.6523 14.2771C16.3638 14.6104 16.6921 14.8839 16.6921 14.8839C16.5727 14.864 16.3987 14.8242 16.2892 14.7645C16.2694 14.8839 16.4335 14.9287 16.513 14.9834C17.1298 15.232 17.5326 14.6452 18.0697 14.5407ZM17.0353 14.8491C17.0353 14.8491 17.1994 14.675 17.1994 14.5457C17.1994 14.3766 17.0402 14.2523 17.0402 14.2523C17.1795 14.292 17.5077 14.4761 17.6221 14.5556L17.0353 14.8491ZM13.6832 10.2138L13.8572 10.0199C13.6583 9.98504 13.7528 9.98504 13.6483 9.89054L13.6434 9.08484L13.3847 8.70686L13.2853 8.72178L12.8824 9.09976C12.778 9.19426 12.8725 9.23902 12.9918 9.13458L13.2604 9.27383L13.2654 10.1243C13.2853 10.2287 13.3798 10.2536 13.5091 10.3879L13.6832 10.2138ZM13.7727 7.41376C13.907 7.80169 14.2302 7.92106 14.469 7.94095C14.5386 7.80667 14.6729 7.60773 14.7425 7.51323C14.8519 7.369 14.7425 7.28445 14.6629 7.44858C14.6032 7.57291 14.2949 7.43863 14.1855 7.32921C14.0363 7.18996 13.9418 6.82192 14.0611 6.69261C14.1805 6.5633 14.3546 6.62298 14.5784 6.61304C14.7276 6.60806 14.7574 6.46881 14.7823 6.39918C14.7127 6.36436 14.6032 6.30468 14.464 6.22013C14.3198 6.31463 14.096 6.50362 14.0015 6.5832C13.8821 6.68764 13.6384 7.04075 13.7727 7.41376ZM14.3546 9.53743C14.2103 9.68663 14.1009 9.85075 14.1009 10.0596C14.1059 10.2586 14.1755 10.4575 14.3745 10.547C14.5535 10.4128 14.7823 10.2536 15.0061 10.2138C15.1155 10.3431 15.2796 10.4326 15.3841 10.5122C15.4537 10.4277 15.6725 10.2486 15.7372 10.1939C15.7969 10.1342 15.7372 10.0497 15.6775 10.1293C15.6327 10.1989 15.4736 10.1492 15.4288 10.0746C15.4288 9.99001 15.3493 9.09976 15.3841 9.055C15.2548 8.91077 15.031 8.5875 14.8818 8.60242C14.6629 8.62231 14.3397 8.93564 14.27 9.03511C14.2153 9.10971 14.2849 9.47775 14.3297 9.51256C14.3396 9.52748 14.3446 9.52748 14.3546 9.53743ZM14.9265 9.617C14.7624 9.62198 14.6231 9.57224 14.4441 9.41309C14.4093 9.38325 14.3794 9.17934 14.4192 9.11468C14.4988 8.99035 14.4988 8.95056 14.5684 8.95056C14.6231 8.95056 14.9514 9.1495 14.9365 9.25891C14.9414 9.33352 14.9365 9.47775 14.9265 9.617ZM14.4889 9.64684C14.6381 9.74631 14.7276 9.73637 14.9166 9.71647C14.9066 9.82092 14.9016 9.91541 14.9016 9.9552C14.9016 9.99996 14.9215 10.0348 14.9315 10.0746C14.832 10.1094 14.7077 10.1293 14.6132 10.179C14.5286 10.1044 14.2054 9.88557 14.4889 9.64684ZM15.7272 7.99068L15.9063 7.79672C15.7024 7.75693 15.7024 7.77185 15.5979 7.67736L15.6079 6.74732L15.4338 6.4887L15.3393 6.49865L14.9365 6.87166C14.827 6.97113 14.9265 7.01589 15.0459 6.90647L15.2548 7.03578L15.2647 7.91111C15.2846 8.01555 15.3791 8.05037 15.5084 8.18465L15.7272 7.99068ZM15.4139 4.73307C15.3294 4.7281 15.205 4.88227 15.6924 4.93201C15.767 4.94196 15.8665 4.76291 15.4139 4.73307ZM15.4189 4.44461C15.3393 4.43964 15.215 4.66344 15.6974 4.64355C15.772 4.63858 15.8317 4.4645 15.4189 4.44461ZM15.5134 5.90681L15.3045 5.69295L15.0956 5.88194L15.1006 6.14056L15.2299 6.26987H15.3592L15.5134 6.13061V5.90681ZM15.0857 3.91245C14.9464 3.81298 14.7922 3.57923 14.4491 3.56431C14.1059 3.54939 13.718 3.86272 13.5936 4.05668C13.4245 4.3153 13.6334 4.53911 13.8473 4.7082C13.708 4.82757 13.5141 5.01158 13.335 5.18068C13.4046 5.26026 13.7975 5.44427 14.0213 5.4393C14.3546 5.42935 14.6629 5.26026 14.8519 5.10608C15.2001 4.83254 15.0807 4.53911 14.7276 4.3352C14.6928 4.3153 14.6629 4.31033 14.6281 4.30038C14.8469 4.13128 15.0409 3.97711 15.0857 3.91245ZM14.2103 4.6336C14.3247 4.68334 14.4441 4.73805 14.5734 4.81265C14.7574 4.91709 14.6629 5.11603 14.464 5.21052C14.2601 5.30502 13.897 5.04142 13.8373 4.93201C13.9119 4.86735 14.0562 4.75794 14.2103 4.6336ZM14.5784 4.14123C14.5485 4.1661 14.459 4.23572 14.3645 4.31033C14.3098 4.32027 14.2501 4.32525 14.1954 4.32027C14.0213 4.29541 13.9368 4.1661 13.8572 4.05668C13.7727 3.94727 13.9865 3.85277 14.0959 3.86769C14.2004 3.88261 14.4391 4.01192 14.5784 4.14123ZM13.146 4.89719C12.6338 5.0265 12.395 4.61868 12.3453 4.50927C12.5492 4.30038 12.9023 3.95224 13.1162 3.77817C12.9769 3.64886 12.9172 3.435 12.6636 3.41511C12.4448 3.42008 11.9325 3.66875 11.843 4.3153C11.7584 4.93698 12.3403 5.27518 12.8029 5.2901C12.957 5.2901 13.151 5.09116 13.2455 5.04143C13.4544 4.94196 13.3798 4.84249 13.146 4.89719ZM12.3055 4.38493C12.1762 3.97213 12.2259 3.8279 12.4846 3.62399C12.5442 3.76822 12.6885 3.86769 12.773 3.91743C12.6288 4.06166 12.4 4.3153 12.3055 4.38493ZM11.7186 4.01689C11.8082 3.93234 11.7137 3.86769 11.6341 3.94229C11.5744 3.87266 11.4302 3.72346 11.3506 3.62896C11.2661 3.69859 11.0771 3.81298 10.9676 3.87266C10.8831 3.77817 10.7787 3.77817 10.6145 3.64388C10.52 3.71351 10.3161 3.86769 10.2067 4.00197C10.4007 4.05668 10.5499 4.0716 10.5598 4.23573C10.5648 4.37001 10.5449 5.21052 10.5548 5.3647C10.6593 5.38957 10.7886 5.37465 10.9378 5.36967C10.9478 5.25031 10.9428 4.19594 10.9428 4.08155C10.9975 4.05171 11.0572 4.02187 11.082 3.99203C11.1417 4.03679 11.2661 4.21583 11.3655 4.27551C11.4401 4.2208 11.6341 4.10144 11.7186 4.01689ZM10.1072 6.19029C9.88343 6.21019 9.56513 6.46881 9.47064 6.69261C9.43085 6.78213 9.48556 7.10541 9.52534 7.14022C9.55519 7.16509 9.57508 7.18498 9.59995 7.20488C9.45572 7.33916 9.31646 7.45355 9.32143 7.65746C9.32641 7.85143 9.48058 8.0255 9.67952 8.11502C9.78396 7.9509 9.95306 7.85143 10.1321 7.81164C10.147 7.96582 10.1818 8.0802 10.2863 8.15481C10.3609 8.07523 10.6493 7.82159 10.709 7.76688C10.7687 7.7072 10.7239 7.63757 10.6543 7.7072C10.6096 7.74698 10.5051 7.6873 10.4753 7.63757C10.4753 7.55302 10.4753 6.66277 10.5151 6.62298C10.3808 6.47875 10.2564 6.17537 10.1072 6.19029ZM10.1222 7.09546C9.87349 7.25461 9.79391 7.24964 9.62481 7.06065C9.54027 6.96118 9.55021 6.77716 9.58503 6.70753C9.65963 6.58817 9.79391 6.46383 9.85857 6.46881C9.91327 6.47378 10.1122 6.71251 10.0973 6.82192C10.1172 6.87663 10.1222 6.98107 10.1222 7.09546ZM10.1271 7.54307C10.1271 7.59281 10.1271 7.63259 10.1271 7.67736C10.0774 7.6873 10.0277 7.70222 9.95804 7.73206C9.86851 7.65746 9.43582 7.51323 9.71931 7.28943C9.89338 7.3889 9.95804 7.30932 10.1271 7.20985C10.1271 7.35408 10.1271 7.48836 10.1271 7.54307ZM9.93317 5.65316C9.90333 5.61337 9.84365 5.55369 9.84365 5.47412C9.84365 5.42438 9.84862 4.88725 9.84862 4.81762C9.84862 4.75296 9.72428 4.76291 9.72428 4.81762C9.71931 4.91212 9.73423 5.07624 9.64968 5.20555C9.41593 5.56861 8.96334 5.72279 8.65002 5.27518C8.5406 5.12597 8.51573 4.90217 8.50579 4.74302C8.48589 4.52916 8.64504 4.25065 8.65499 4.22578C9.05784 3.69859 9.61487 4.0915 9.65963 4.30535C9.68947 4.44958 9.71931 4.62366 9.71931 4.71318C9.71434 4.77286 9.84862 4.76789 9.84862 4.70323C9.84862 4.63858 9.85359 3.8279 9.85359 3.77319C9.85359 3.71849 9.74915 3.70357 9.74418 3.77319C9.7392 3.9025 9.6646 3.91245 9.56513 3.88261C9.36122 3.82293 8.91361 3.72346 8.65002 3.87764C8.42124 4.01192 8.06812 4.33022 8.0731 4.7281C8.07807 5.38459 8.32674 5.4393 8.6152 5.61835C8.88377 5.7775 9.25678 5.67305 9.59995 5.57358C9.73423 5.53877 9.75412 5.62332 9.81878 5.71782C9.92322 5.86702 10.0127 5.77252 9.93317 5.65316ZM8.11288 6.5832C7.8841 6.93134 7.75977 7.47842 8.15267 7.80169C8.33669 7.95587 8.49087 8.07523 8.86885 8.01058C8.94345 7.86137 8.97826 7.81164 9.11255 7.63757C8.85393 7.67736 8.65002 7.63259 8.46103 7.48836C8.06812 7.18498 8.19246 6.69261 8.30685 6.52849C8.52071 6.21516 8.81911 6.66277 8.87382 6.72245C8.94345 6.6379 9.06281 6.51854 9.18218 6.42902C9.06779 6.27484 8.96832 6.13061 8.88874 6.03612C8.64007 6.12564 8.27203 6.34944 8.11288 6.5832ZM8.27701 9.58716C8.19246 10.2138 8.7843 10.5819 9.06779 10.7062C9.13742 10.562 9.28662 10.3282 9.42587 10.1641C9.53529 10.0397 9.41593 10.0049 9.31646 10.0994C9.18715 10.2437 8.79425 10.1044 8.69478 9.92038C8.88377 9.77615 9.37117 9.36833 9.58503 9.19426C9.44577 9.05998 9.22694 8.73173 9.19212 8.54274C8.99816 8.67702 8.3715 8.94061 8.27701 9.58716ZM8.88377 8.91077C8.93848 9.055 9.1225 9.33352 9.20207 9.37828C9.06281 9.51754 8.71467 9.75626 8.62018 9.82092C8.44113 9.60208 8.34664 9.23902 8.88377 8.91077ZM10.1719 8.68697C10.0476 8.80136 9.95306 8.9058 9.77402 9.05003C9.85857 9.14453 9.99782 9.26389 10.0127 9.42801C10.0227 9.59214 10.0177 10.363 10.0277 10.557C10.157 10.557 10.1371 10.5719 10.3609 10.562C10.341 10.4326 10.3559 9.43299 10.3559 9.28876C10.4405 9.20918 10.4504 9.19426 10.5499 9.12463C10.6195 9.18431 10.7836 9.21913 10.7836 9.32854C10.7836 9.43796 10.8135 9.91044 10.7787 10.0845C10.7339 10.2984 10.7538 10.4525 10.8682 10.6664C10.9577 10.5669 11.281 10.3382 11.3556 10.2834C11.4252 10.2238 11.3904 10.179 11.3009 10.2039C11.2064 10.2238 11.1865 10.2437 11.1865 10.184C11.1865 10.0696 11.1417 9.54737 11.1318 9.21415C11.1218 8.88093 10.9577 8.78146 10.8632 8.7367C10.7687 8.84114 10.5548 8.97543 10.4255 9.08484C10.3261 9.01024 10.2813 8.85109 10.1719 8.68697ZM11.5147 7.88127C11.6291 7.79175 11.7087 7.64254 11.7535 7.60276C11.838 7.53313 11.7684 7.45852 11.6938 7.52815C11.6341 7.58286 11.4849 7.45355 11.4749 7.4436C11.4252 7.38392 11.3506 6.62298 11.3854 6.60806C11.3854 6.60806 11.8678 6.54838 11.9325 6.54838C11.9822 6.55335 11.9872 6.39918 11.9375 6.39421C11.8579 6.39421 11.4899 6.44394 11.4749 6.40913C11.455 6.32955 11.4053 6.05601 11.5247 5.82226C11.5794 5.72279 11.5247 5.62332 11.4849 5.72776C11.4401 5.83221 11.1367 6.30468 10.9428 6.38426C10.7836 6.44891 10.7985 6.4887 10.903 6.51357C10.9826 6.52849 11.0721 6.62796 11.0522 6.62796C11.0373 7.02086 10.9975 7.50329 11.1168 7.7072C11.2064 7.83153 11.4153 7.96582 11.5147 7.88127ZM13.1808 8.05036C13.1212 8.16973 13.0267 8.27914 12.8476 8.35872C12.957 8.45321 13.0963 8.57258 13.1858 8.63226C13.2903 8.5129 13.3897 8.40348 13.5091 8.28909C13.3897 8.2692 13.2505 8.20454 13.1808 8.05036ZM12.4149 7.62265C12.5691 7.60773 12.8178 7.70222 13.0913 7.67736C13.4196 7.65249 13.6732 7.1452 13.5339 6.75229C13.4046 6.37928 12.9869 6.44394 12.7034 6.35442C12.4448 6.28479 12.3403 6.12066 12.6188 5.93665C12.9521 5.72279 13.3599 6.06596 13.3997 6.14056C13.4593 6.24997 13.5091 6.24997 13.5091 6.10574C13.519 5.79739 13.4892 5.97146 13.4593 5.67803C13.4494 5.57358 13.3748 5.56364 13.3649 5.66311C13.3599 5.76258 13.2355 5.73274 13.141 5.73274C13.0466 5.73274 12.768 5.68797 12.5293 5.82226C12.3751 5.91178 12.032 6.18532 12.2259 6.50859C12.3403 6.69759 13.0068 6.85674 13.1759 6.96615C13.345 7.07557 13.3798 7.35408 13.2206 7.48339C13.0217 7.64254 12.4796 7.50826 12.4 7.41376C12.2906 7.2944 12.2508 7.19493 12.2259 7.0507C12.2011 6.90647 12.0817 6.92139 12.0817 7.0507C12.0817 7.18001 12.1115 7.63259 12.1364 7.73704C12.1563 7.84645 12.2657 7.81164 12.2757 7.72709C12.2906 7.64752 12.3453 7.62762 12.4149 7.62265ZM11.7137 9.02019C11.5844 9.11468 11.8629 9.24897 11.838 9.23902C11.8479 9.63192 11.7932 10.0348 11.9226 10.2337C12.0071 10.358 12.2707 10.4476 12.3155 10.3282C12.3602 10.2088 12.5592 9.96515 12.6039 9.92536C12.6885 9.85076 12.6139 9.7861 12.5442 9.85573C12.4 10.0099 12.3204 9.94028 12.211 9.83584C12.1613 9.77615 12.1414 9.22907 12.1762 9.21415C12.1762 9.21415 12.4398 9.17437 12.5044 9.17437C12.5542 9.17437 12.5492 9.02019 12.4995 9.02019C12.4199 9.02019 12.1861 9.02019 12.1712 8.98537C12.1414 8.91077 12.216 8.53776 12.2309 8.37364C12.2408 8.25925 12.1812 8.21946 12.1464 8.32888C12.1165 8.44327 11.8629 8.91077 11.7137 9.02019Z" fill="black"/>
</svg>
