<svg width="152" height="80" viewBox="0 0 152 80" fill="none" xmlns="http://www.w3.org/2000/svg">
<path d="M68.5265 52.843C71.6844 52.843 74.8424 53.6848 75.0529 53.6848V59.1585C75.0529 59.1585 72.105 58.3167 69.7892 58.3167C67.053 58.3168 65.5796 59.1583 65.5792 60.4212C65.5792 62.1053 67.4739 62.5265 68.5265 62.9475L70.421 63.5794C74.6316 65.0531 76.7374 68.0006 76.7374 71.1585C76.7374 77.6848 70.8418 80.0003 65.7892 80.0003C62.2115 80.0002 58.8443 79.3698 58.632 79.3694V73.2639C59.264 73.4746 62.0005 74.3166 64.9474 74.3167C68.3156 74.3167 69.789 73.2639 69.7892 71.7903C69.7892 70.5272 68.5261 69.685 66.8419 69.2639C66.4209 69.0534 65.7893 68.843 65.3683 68.843C61.5789 67.5799 58.632 65.474 58.632 61.053C58.6321 56.211 62.4214 52.843 68.5265 52.843Z" fill="black"/>
<path fill-rule="evenodd" clip-rule="evenodd" d="M124.316 52.6321C132.526 52.6321 138.21 58.7377 138.21 66.3167C138.21 73.8955 132.315 80.0003 124.316 80.0003C116.316 80.0001 110.421 73.8954 110.421 66.3167C110.421 58.7378 116.316 52.6323 124.316 52.6321ZM124.316 59.3694C120.316 59.3696 117.368 62.5273 117.368 66.3167C117.368 70.1059 120.316 73.2638 124.316 73.2639C128.315 73.2639 131.263 70.106 131.263 66.3167C131.263 62.5272 128.316 59.3694 124.316 59.3694Z" fill="black"/>
<path d="M27.8947 52.2112C31.0524 52.2112 33.3684 53.0529 34.0001 53.053V60.6321C33.7891 60.4213 31.6842 59.1586 28.3166 59.1585C24.1061 59.1585 20.9475 62.1058 20.9474 66.1057C20.9474 70.1057 23.8955 73.053 28.3166 73.053C31.4741 73.0529 33.579 71.7899 34.0001 71.5794V78.7376C33.1579 78.9481 30.8419 79.5794 27.8947 79.5794C20.5265 79.5792 13.7904 74.5269 13.7902 65.8958C13.7902 58.1064 19.6843 52.2114 27.8947 52.2112Z" fill="black"/>
<path d="M97.3683 52.2112C100.526 52.2112 102.842 53.053 103.474 53.053V60.6321C103.263 60.4215 101.157 59.1585 97.7892 59.1585C93.5789 59.1587 90.4211 62.1059 90.421 66.1057C90.421 70.1056 93.3684 73.0528 97.7892 73.053C100.947 73.053 103.053 71.7899 103.474 71.5794V78.7376C102.632 78.9481 100.316 79.5794 97.3683 79.5794C89.7896 79.5793 83.2631 74.527 83.2628 65.8958C83.2628 58.1064 89.1579 52.2113 97.3683 52.2112Z" fill="black"/>
<path d="M50.0001 79.3694H43.2638V53.053H50.0001V79.3694Z" fill="black"/>
<path d="M39.8947 0.000269144C40.3386 -0.00538606 40.7794 0.078136 41.1906 0.245386C41.6018 0.412663 41.9753 0.660958 42.2892 0.974878C42.6031 1.28879 42.8514 1.6623 43.0187 2.07351C43.1859 2.48468 43.2695 2.92557 43.2638 3.36941V38.3167C43.2694 38.7605 43.1859 39.2014 43.0187 39.6126C42.8514 40.0237 42.603 40.3974 42.2892 40.7112C41.9754 41.025 41.6017 41.2725 41.1906 41.4397C40.7794 41.607 40.3386 41.6905 39.8947 41.6848C39.4509 41.6905 39.0099 41.607 38.5988 41.4397C38.1877 41.2725 37.8139 41.025 37.5001 40.7112C37.1864 40.3974 36.9389 40.0236 36.7716 39.6126C36.6044 39.2014 36.5209 38.7605 36.5265 38.3167V3.36941C36.5209 2.92552 36.6044 2.48473 36.7716 2.07351C36.9389 1.66242 37.1864 1.28873 37.5001 0.974878C37.814 0.661047 38.1877 0.412661 38.5988 0.245386C39.0099 0.0781431 39.4509 -0.00535035 39.8947 0.000269144Z" fill="black"/>
<path d="M112.316 0.000269144C113.209 0.000269144 114.066 0.355873 114.697 0.987574C115.329 1.61927 115.685 2.47606 115.685 3.36941V38.3167C115.685 39.2099 115.329 40.0669 114.697 40.6985C114.066 41.33 113.209 41.6848 112.316 41.6848C111.422 41.6848 110.565 41.3301 109.934 40.6985C109.302 40.0669 108.947 39.2099 108.947 38.3167V3.36941C108.947 2.47621 109.302 1.61924 109.934 0.987574C110.565 0.355949 111.422 0.000354612 112.316 0.000269144Z" fill="black"/>
<path d="M3.47378 21.4739C3.91765 21.4682 4.35848 21.5518 4.76968 21.719C5.18091 21.8863 5.55439 22.1346 5.86831 22.4485C6.18222 22.7624 6.43053 23.1359 6.5978 23.5471C6.76503 23.9583 6.84858 24.3992 6.84292 24.843V31.7903C6.84855 32.2341 6.76505 32.675 6.5978 33.0862C6.43053 33.4973 6.18216 33.871 5.86831 34.1848C5.55445 34.4986 5.18079 34.7461 4.76968 34.9134C4.35845 35.0806 3.91769 35.1641 3.47378 35.1585C3.02995 35.1641 2.58903 35.0806 2.17788 34.9134C1.76684 34.7461 1.39304 34.4986 1.07925 34.1848C0.76545 33.871 0.518003 33.4973 0.350733 33.0862C0.183484 32.675 0.0999895 32.2341 0.105616 31.7903V24.843C0.0999603 24.3991 0.183461 23.9584 0.350733 23.5471C0.517959 23.136 0.765463 22.7624 1.07925 22.4485C1.39308 22.1347 1.76678 21.8863 2.17788 21.719C2.58903 21.5518 3.02996 21.4683 3.47378 21.4739Z" fill="black"/>
<path d="M21.5792 12.4221C22.0231 12.4165 22.4639 12.499 22.8751 12.6663C23.2863 12.8336 23.6599 13.0819 23.9738 13.3958C24.2876 13.7096 24.535 14.0833 24.7023 14.4944C24.8696 14.9056 24.9531 15.3464 24.9474 15.7903H25.1583V31.7903C25.164 32.2341 25.0805 32.675 24.9132 33.0862C24.746 33.4973 24.4976 33.871 24.1837 34.1848C23.8699 34.4986 23.4962 34.7461 23.0851 34.9134C22.6741 35.0805 22.2339 35.1641 21.7902 35.1585C21.3463 35.1641 20.9055 35.0806 20.4943 34.9134C20.0832 34.7461 19.7095 34.4986 19.3957 34.1848C19.0818 33.871 18.8334 33.4973 18.6662 33.0862C18.4989 32.675 18.4154 32.2341 18.421 31.7903V15.7903C18.421 13.8956 19.6845 12.4221 21.5792 12.4221Z" fill="black"/>
<path d="M58.0001 12.4221C58.4441 12.4165 58.8848 12.499 59.296 12.6663C59.7073 12.8336 60.0808 13.0819 60.3947 13.3958C60.7086 13.7097 60.9569 14.0832 61.1242 14.4944C61.2914 14.9056 61.374 15.3465 61.3683 15.7903V31.7903C61.3739 32.2341 61.2914 32.675 61.1242 33.0862C60.9569 33.4974 60.7085 33.871 60.3947 34.1848C60.0808 34.4986 59.7071 34.7461 59.296 34.9134C58.8848 35.0806 58.4441 35.1641 58.0001 35.1585C57.5562 35.1641 57.1155 35.0806 56.7043 34.9134C56.2932 34.7461 55.9194 34.4986 55.6056 34.1848C55.2918 33.8711 55.0444 33.4972 54.8771 33.0862C54.7099 32.675 54.6264 32.2341 54.632 31.7903V15.7903C54.6263 15.3464 54.7098 14.9056 54.8771 14.4944C55.0444 14.0833 55.2918 13.7096 55.6056 13.3958C55.9195 13.0819 56.2931 12.8336 56.7043 12.6663C57.1155 12.499 57.5562 12.4165 58.0001 12.4221Z" fill="black"/>
<path d="M76.1056 21.4739C76.5495 21.4683 76.9903 21.5518 77.4015 21.719C77.8127 21.8863 78.1863 22.1346 78.5001 22.4485C78.8139 22.7624 79.0614 23.136 79.2287 23.5471C79.3959 23.9584 79.4794 24.3991 79.4738 24.843V31.7903C79.4794 32.2341 79.3959 32.675 79.2287 33.0862C79.0614 33.4973 78.8139 33.871 78.5001 34.1848C78.1863 34.4986 77.8126 34.7461 77.4015 34.9134C76.9903 35.0806 76.5495 35.1641 76.1056 35.1585C75.6617 35.1641 75.2209 35.0806 74.8097 34.9134C74.3986 34.7461 74.0249 34.4986 73.7111 34.1848C73.3972 33.871 73.1489 33.4973 72.9816 33.0862C72.8143 32.675 72.7318 32.2342 72.7374 31.7903V24.843C72.7318 24.3992 72.8144 23.9583 72.9816 23.5471C73.1488 23.136 73.3972 22.7624 73.7111 22.4485C74.025 22.1346 74.3985 21.8863 74.8097 21.719C75.2209 21.5517 75.6617 21.4682 76.1056 21.4739Z" fill="black"/>
<path d="M94.2111 12.4221C95.1043 12.4223 95.9613 12.7769 96.5929 13.4085C97.2244 14.0401 97.5792 14.8971 97.5792 15.7903V31.7903C97.5792 32.6835 97.2245 33.5405 96.5929 34.1721C95.9613 34.8037 95.1043 35.1584 94.2111 35.1585C93.3179 35.1585 92.4609 34.8036 91.8292 34.1721C91.1976 33.5405 90.842 32.6836 90.8419 31.7903V15.7903C90.8419 14.8969 91.1975 14.0402 91.8292 13.4085C92.4609 12.7768 93.3178 12.4221 94.2111 12.4221Z" fill="black"/>
<path d="M130.421 12.4221C130.863 12.4221 131.301 12.5087 131.71 12.678C132.119 12.8473 132.49 13.0957 132.803 13.4085C133.116 13.7212 133.364 14.0926 133.533 14.5012C133.703 14.9099 133.789 15.348 133.789 15.7903V31.7903C133.789 32.2326 133.703 32.6708 133.533 33.0794C133.364 33.488 133.116 33.8594 132.803 34.1721C132.49 34.4848 132.119 34.7324 131.71 34.9016C131.301 35.0709 130.863 35.1585 130.421 35.1585C129.979 35.1585 129.541 35.0709 129.132 34.9016C128.723 34.7324 128.352 34.4848 128.039 34.1721C127.726 33.8594 127.478 33.488 127.309 33.0794C127.139 32.6708 127.053 32.2326 127.053 31.7903V15.7903C127.053 15.3481 127.14 14.9098 127.309 14.5012C127.478 14.0926 127.726 13.7212 128.039 13.4085C128.352 13.0957 128.723 12.8473 129.132 12.678C129.541 12.5087 129.979 12.4222 130.421 12.4221Z" fill="black"/>
<path d="M148.527 21.4739C149.42 21.4739 150.277 21.8295 150.908 22.4612C151.54 23.0929 151.895 23.9498 151.895 24.843V31.7903C151.895 32.6836 151.54 33.5405 150.908 34.1721C150.277 34.8038 149.42 35.1584 148.527 35.1585C147.633 35.1585 146.776 34.8037 146.145 34.1721C145.513 33.5405 145.158 32.6836 145.158 31.7903V24.843C145.158 23.9497 145.513 23.0929 146.145 22.4612C146.776 21.8295 147.633 21.4739 148.527 21.4739Z" fill="black"/>
</svg>
