<?xml version="1.0" encoding="UTF-8"?><svg id="Carnegie_Mellon_University" xmlns="http://www.w3.org/2000/svg" viewBox="0 0 71.98 45.87"><defs><style>.cls-1{fill:#231f20;}</style></defs><polygon class="cls-1" points="56.07 11.96 56.07 4.91 52.81 4.91 52.81 5.41 53.73 5.41 53.73 11.96 52.55 11.96 52.55 12.42 57.25 12.42 57.25 11.96 56.07 11.96"/><path class="cls-1" d="M9.7,.36h-.42c-.02,.36-.21,.52-.57,.52-.73,0-1.78-.88-3.03-.88C2.14,0,0,3.49,0,6.56s2.04,6.14,5.45,6.14c2.07,0,2.85-.98,3.4-.98,.36,0,.43,.32,.43,.71h.47v-4.23h-.47l-.1,.59c-.24,1.4-1.33,3.46-3.55,3.46-1.97,0-2.73-1.7-2.73-5.9C2.9,1.95,3.93,.47,5.68,.47c1.97,0,3.32,2.21,3.6,3.96h.42V.36Z"/><path class="cls-1" d="M15.75,10.4c-.03,.9-.54,1.64-1.34,1.64-1.16,0-1.21-.98-1.21-1.72,0-.9,.1-1.5,1.21-1.62l1.34-.14v1.83Zm3.11,.56c0,.44-.29,.95-.48,.95-.31,0-.38-.32-.38-.85v-3.91c0-1.94-1.82-2.42-3.57-2.42s-2.95,.83-2.95,1.79c0,.6,.34,1.11,1.11,1.11,.65,0,1.04-.43,1.04-1.02,0-.87-.9-.88-.9-.9,0-.39,1-.51,1.58-.51,1.28,0,1.45,.47,1.45,1.49v1.43l-1.67,.14c-1.55,.12-3.23,.53-3.23,2.3,0,1.48,1.33,2.08,2.64,2.08,.66,0,1.84-.25,2.28-1.07,.31,.71,.94,1.07,1.7,1.07,1.11,0,1.82-.66,1.82-1.67h-.43Z"/><polygon class="cls-1" points="57.9 41.22 57.9 34.17 54.38 34.17 54.38 34.67 55.55 34.67 55.55 41.22 54.38 41.22 54.38 41.68 59.07 41.68 59.07 41.22 57.9 41.22"/><path class="cls-1" d="M13.71,15.73v-.48s-3.88,0-3.88,0l-2.82,8.07-2.74-8.08H0v.49H1.15v9.72c0,.73-.18,1.3-1.15,1.3v.47H2.94v-.47h-.05c-.92,0-1.28-.07-1.28-1.45V15.64h.03l4.07,11.57h.46l3.97-11.37h.03v10.9h-1.14v.47h4.67v-.47h-1.11V15.73h1.11Z"/><path class="cls-1" d="M16.43,22.64v-1.14c0-1.14,.49-1.5,1.07-1.5,.82,0,1.07,.56,1.07,1.5v1.14h-2.14Zm0,.46h4.7c-.02-1.84-1.72-3.61-3.51-3.57-2.01,0-3.74,1.74-3.74,4.03s1.62,3.86,3.8,3.86,3.13-1.29,3.51-2.98h-.46c-.37,1.58-1.2,2.48-2.53,2.48-1.58,0-1.75-1.24-1.75-2.4v-1.43Z"/><path class="cls-1" d="M35.99,37.1v-1.14c0-1.14,.49-1.5,1.07-1.5,.82,0,1.07,.56,1.07,1.5v1.14h-2.14Zm0,.46h4.7c-.02-1.84-1.72-3.61-3.51-3.57-2.01,0-3.74,1.74-3.74,4.03s1.62,3.86,3.8,3.86,3.13-1.29,3.51-2.98h-.46c-.37,1.58-1.2,2.48-2.53,2.48-1.58,0-1.75-1.24-1.75-2.4v-1.43Z"/><polygon class="cls-1" points="21.16 15.26 21.16 15.69 22.34 15.69 22.34 26.73 21.16 26.73 21.16 27.22 25.86 27.22 25.86 26.73 24.68 26.73 24.68 15.26 21.16 15.26"/><polygon class="cls-1" points="26.19 15.26 26.19 15.69 27.36 15.69 27.36 26.73 26.19 26.73 26.19 27.22 30.88 27.22 30.88 26.73 29.71 26.73 29.71 15.26 26.19 15.26"/><path class="cls-1" d="M36.28,25.15c0,1.28-.53,1.8-1.4,1.8s-1.4-.53-1.4-1.8v-3.35c0-1.28,.53-1.8,1.4-1.8s1.4,.53,1.4,1.8v3.35Zm2.65-1.68c0-2.33-1.8-3.95-4.05-3.95s-4.05,1.62-4.05,3.95,1.8,3.95,4.05,3.95,4.05-1.62,4.05-3.95"/><path class="cls-1" d="M0,30.14H1.19v7.56c0,2.64,1.82,4.24,4.6,4.24,3.13,0,4.49-1.65,4.49-4.15v-6.46c0-.99,.27-1.18,.89-1.18h.34v-.46h-2.99v.46h.21c.87,0,.99,.26,.99,1.25v6.57c0,2.32-1.44,3.37-2.89,3.37-2.48,0-2.98-1.67-3.13-3.85v-7.34h1.12v-.46H0v.46Z"/><path class="cls-1" d="M29.49,41.87h.46l2.52-5.96c.51-1.11,.78-1.25,1.17-1.27h.15v-.47h-2.66v.47h.32c.49,0,.72-.03,.72,.41,0,.27-.09,.54-.29,1.03l-1.16,2.72-1.85-4.17h.94v-.47h-4.27v.47h.8l3.13,7.22Z"/><path class="cls-1" d="M48.45,41.87h.4c.08-.27,.26-.41,.6-.41,.44,0,.97,.41,1.92,.41,1.62,0,2.72-1.4,2.72-2.79,0-2.08-1.43-2.23-3.25-2.49-.95-.14-1.49-.27-1.49-1.02,0-.8,.7-1.14,1.62-1.14,1.28,0,1.77,.85,2.2,1.95h.4v-2.42h-.39c0,.2-.18,.37-.5,.37-.55,0-.99-.37-1.77-.37-1.7,0-2.54,1.45-2.54,2.54,0,2.2,1.67,2.38,2.96,2.54,1.23,.15,1.67,.23,1.67,1.01,0,.9-.75,1.31-1.67,1.31-1.29,0-2.18-1.12-2.49-2.36h-.4v2.86Z"/><polygon class="cls-1" points="24.93 41.22 24.93 34.17 21.41 34.17 21.41 34.67 22.59 34.67 22.59 41.22 21.41 41.22 21.41 41.68 26.11 41.68 26.11 41.22 24.93 41.22"/><path class="cls-1" d="M22.59,31.82c0,.65,.52,1.17,1.17,1.17s1.17-.52,1.17-1.17-.52-1.17-1.17-1.17-1.17,.52-1.17,1.17"/><path class="cls-1" d="M55.55,31.82c0,.65,.52,1.17,1.17,1.17s1.17-.52,1.17-1.17-.52-1.17-1.17-1.17-1.17,.52-1.17,1.17"/><path class="cls-1" d="M39.33,7.84v-1.14c0-1.14,.49-1.5,1.07-1.5,.82,0,1.07,.56,1.07,1.5v1.14h-2.14Zm0,.46h4.7c-.02-1.84-1.72-3.61-3.51-3.57-2.01,0-3.74,1.74-3.74,4.03s1.62,3.86,3.8,3.86,3.13-1.29,3.51-2.98h-.46c-.37,1.58-1.2,2.48-2.53,2.48-1.58,0-1.75-1.24-1.75-2.4v-1.43Z"/><path class="cls-1" d="M59.88,7.84v-1.14c0-1.14,.49-1.5,1.07-1.5,.61,0,1.07,.35,1.07,1.5v1.14h-2.14Zm0,.46h4.7c-.02-1.84-1.72-3.61-3.51-3.57-2.01,0-3.74,1.74-3.74,4.03s1.62,3.86,3.8,3.86,3.13-1.29,3.51-2.98h-.46c-.37,1.58-1.2,2.48-2.53,2.48-1.58,0-1.75-1.24-1.75-2.4v-1.43Z"/><path class="cls-1" d="M19.9,41.22v-4.6c0-1.84-.78-2.7-2.4-2.7-1.14,0-2.3,.65-2.76,1.64h0v-1.38h-3.52v.46h1.17v6.57h-1.17v.46h4.53v-.46h-1v-4.49c.15-.63,.95-2.09,1.88-2.09,.62,0,.93,.21,.93,1.36v5.23h-.97v.46h4.49v-.46h-1.17Z"/><path class="cls-1" d="M47.61,26.76v-4.6c0-1.84-.78-2.7-2.4-2.7-1.14,0-2.3,.65-2.76,1.64h0v-1.38h-3.52v.46h1.17v6.57h-1.17v.46h4.53v-.46h-1v-4.49c.15-.63,.95-2.09,1.88-2.09,.62,0,.93,.21,.93,1.36v5.23h-.97v.46h4.49v-.46h-1.17Z"/><path class="cls-1" d="M35.59,11.96V7.37c0-1.84-.78-2.7-2.4-2.7-1.14,0-2.3,.65-2.76,1.64h0v-1.38h-3.52v.46h1.17v6.57h-1.17v.46h4.53v-.46h-1V7.47c.15-.63,.95-2.09,1.88-2.09,.62,0,.93,.21,.93,1.36v5.23h-.97v.46h4.49v-.46h-1.17Z"/><path class="cls-1" d="M53.73,2.59c0,.65,.52,1.17,1.17,1.17s1.17-.52,1.17-1.17-.52-1.17-1.17-1.17-1.17,.52-1.17,1.17"/><path class="cls-1" d="M69.32,34.17v.49c.73,0,1.04,.07,1.04,.39,0,.27-.09,.54-.29,1.03l-1.16,2.72-1.85-4.15h.97v-.49h-5.87v-3.65h-.31c0,1.8-1.23,3.66-2.94,3.66v.49h.9v5.27c0,1.62,1.39,1.94,1.87,1.94,1.04,0,1.74-.42,2.26-1.31l-.36-.2c-.2,.31-.48,.71-.9,.71-.34,0-.52-.24-.52-.8v-5.61h2.37l3.11,7.17-1.08,2.54h0s0,0,0,0h0s-.07,.08-.13,.08c-.06,0-.11-.04-.13-.1,0,0,0,0,0,0-.14-.49-.58-.85-1.12-.85-.65,0-1.17,.52-1.17,1.17,0,.46,.26,.85,.64,1.04,0,0,0,0,0,0,.01,0,.02,.01,.04,.02,.02,.01,.05,.02,.07,.03,.13,.05,.27,.09,.43,.09,.99,.08,1.49-.65,1.84-1.39,.08-.17,.15-.34,.22-.5,.15-.36,.41-.98,.72-1.7h0s.3-.69,.3-.69h0s2.39-5.66,2.39-5.66c.51-1.11,.71-1.25,1.33-1.25h0v-.49h-2.66Z"/><path class="cls-1" d="M25.19,4.65c-1.09,0-1.92,.75-2.25,1.6h-.03v-1.3h-3.49v.48h1.17v6.55h-1.17v.47h5.09v-.47h-1.57v-3.67c0-1.09,.29-2.22,1.01-2.83,.04-.03,.1-.04,.15-.01,.06,.03,.08,.09,.08,.14h0c-.05,.13-.08,.29-.09,.49-.02,.62,.49,1.11,1.16,1.11,.82,0,1.29-.6,1.29-1.24,0-.82-.54-1.31-1.34-1.31Z"/><path class="cls-1" d="M50.81,5.21s.08-.03,.1,0,.03,.06,0,.09h0c-.1,.18-.14,.39-.06,.63s.28,.41,.51,.46c.49,.11,.91-.25,.91-.71,0-.3-.19-.53-.4-.66s-.47-.2-.75-.2c-.45,0-.92,.24-1.25,.53,0,0,0,0,0,0-.08-.06-.16-.11-.24-.16-.47-.27-1.08-.45-1.89-.45-1.43,0-2.96,.94-2.96,2.48,0,.94,.51,1.67,1.41,2.08v.03c-.66,.08-1.7,.54-1.7,1.96,0,.85,.39,1.5,1.11,1.7v.03c-.68,.19-1.46,.87-1.46,1.69,0,1.26,1.48,2.23,3.37,2.23,2.37,0,3.91-1.6,3.91-3.68,0-1.65-.82-2.4-2.48-2.37h-2.83c-.43,0-.71-.02-.71-.48,0-.42,.65-.88,1.3-.88,.11,0,.3,.09,.35,.1,.21,.07,.43,.1,.7,.1,1.46,0,3.03-.83,3.03-2.45,0-.5-.22-1.18-.62-1.61-.02-.03-.02-.07,0-.09,.16-.13,.35-.24,.44-.29,.07-.04,.13-.07,.2-.09h0Zm-2.26,7.83c1.7,0,2.15,.07,2.15,1.11,0,1.24-1.52,2.38-3.24,2.38-1.53,0-2.27-.94-2.3-1.76,0-.75,.37-1.24,.83-1.74h2.56Zm.29-5.81c0,1.98-.46,2.04-1.07,2.04-.68,0-1.04-.13-1.04-2.1,0-1.38,.15-1.97,1.04-1.97,.8,0,1.06,.05,1.07,2.01h0Z"/><path class="cls-1" d="M46.65,33.87c-1.09,0-1.92,.75-2.25,1.6h-.03v-1.3h-3.49v.48h1.17v6.55h-1.17v.47h5.09v-.47h-1.57v-3.67c0-1.09,.29-2.21,1-2.83,.04-.03,.1-.04,.15-.01,.06,.03,.08,.09,.08,.14h0c-.05,.14-.08,.29-.09,.49-.02,.62,.49,1.11,1.16,1.11,.82,0,1.29-.6,1.29-1.24,0-.82-.54-1.31-1.34-1.31Z"/></svg>