<svg width="406" height="60" viewBox="0 0 406 60" fill="none" xmlns="http://www.w3.org/2000/svg">
<path fill-rule="evenodd" clip-rule="evenodd" d="M185.28 47.3149C189.318 47.315 191.832 49.6635 191.832 53.367C191.831 57.0728 189.237 60 185.119 60C180.462 59.9986 178.582 56.5217 178.582 53.659C178.582 50.8921 180.415 47.3149 185.28 47.3149ZM184.81 48.0919C182.946 48.0919 180.819 49.1253 180.819 53.1556C180.819 56.521 182.686 59.1895 185.8 59.1895C186.934 59.1895 189.562 58.6424 189.562 53.9646C189.562 50.3413 187.47 48.0923 184.81 48.0919Z" fill="black"/>
<path d="M241.007 47.5414C241.233 47.5414 241.348 47.5907 241.348 47.6874C241.348 47.8165 241.219 47.8319 241.056 47.8319C240.927 47.8319 240.766 47.8326 240.651 47.8988C240.506 47.9639 240.473 48.0757 240.473 48.2561C240.473 48.4666 240.636 49.0176 240.831 49.7448C241.108 50.8149 242.617 55.7145 242.907 56.6212H242.954L246.1 48.1923C246.278 47.7408 246.376 47.6104 246.506 47.6099C246.682 47.6099 246.766 47.8525 246.975 48.3687L250.346 56.5071H250.394C250.687 55.423 251.988 51.1515 252.554 49.2598C252.668 48.8876 252.715 48.5473 252.715 48.32C252.715 48.063 252.571 47.835 251.939 47.8349C251.775 47.8349 251.664 47.7874 251.664 47.6905C251.664 47.5751 251.791 47.5445 252.036 47.5445C252.895 47.5445 253.576 47.5931 253.721 47.5931C253.836 47.5931 254.533 47.5445 255.068 47.5445C255.246 47.5445 255.36 47.5749 255.36 47.6707C255.36 47.7872 255.28 47.8349 255.135 47.8349C254.969 47.8349 254.746 47.8531 254.569 47.917C254.178 48.0633 254.001 48.7089 253.659 49.6308C252.912 51.6705 251.208 56.8147 250.416 59.2397C250.236 59.806 250.155 59.9998 249.945 60C249.784 60 249.687 59.8068 249.443 59.2108L246.071 51.1028H246.039C245.732 51.9288 243.575 57.655 242.878 59.1439C242.568 59.8058 242.487 59.9996 242.29 60C242.129 60 242.048 59.8251 241.921 59.4039L238.477 49.1275C238.282 48.53 238.104 48.1412 237.875 47.9779C237.7 47.8639 237.374 47.8319 237.229 47.8319C237.066 47.8319 236.968 47.8164 236.968 47.6874C236.969 47.5737 237.099 47.5415 237.326 47.5414C238.168 47.5414 239.062 47.5916 239.209 47.5916C239.354 47.5916 240.067 47.5414 241.007 47.5414Z" fill="black"/>
<path fill-rule="evenodd" clip-rule="evenodd" d="M280.323 47.3149C284.363 47.3149 286.875 49.6634 286.875 53.367C286.875 57.0728 284.281 60 280.163 60C275.507 59.9985 273.627 56.5216 273.627 53.659C273.627 50.8921 275.461 47.3149 280.323 47.3149ZM279.854 48.0919C277.989 48.0919 275.864 49.1253 275.864 53.1556C275.864 56.521 277.731 59.1894 280.845 59.1895C281.976 59.1895 284.606 58.6424 284.606 53.9646C284.606 50.3412 282.514 48.0923 279.854 48.0919Z" fill="black"/>
<path d="M133.844 47.3149C134.849 47.3149 135.45 47.3779 136.195 47.476C136.811 47.556 137.332 47.7022 137.818 47.7513C137.996 47.7674 138.061 47.8481 138.061 47.9474C138.061 48.0754 138.013 48.2702 137.981 48.8355C137.949 49.3702 137.963 50.2595 137.93 50.5827C137.914 50.826 137.882 50.9537 137.736 50.9537C137.607 50.9534 137.574 50.8257 137.574 50.5964C137.558 50.0949 137.348 49.5265 136.941 49.1062C136.406 48.5421 135.141 48.1041 133.649 48.1041C132.239 48.1041 131.315 48.4611 130.601 49.1062C129.418 50.1892 129.11 51.7293 129.11 53.3001C129.11 57.1492 132.044 59.0584 134.217 59.0587C135.661 59.0587 136.535 58.8935 137.185 58.1524C137.46 57.8429 137.671 57.3744 137.736 57.0819C137.785 56.8242 137.817 56.7583 137.947 56.758C138.06 56.758 138.093 56.8736 138.093 57.0013C138.093 57.1955 137.898 58.603 137.736 59.156C137.655 59.4291 137.59 59.5136 137.315 59.6244C136.666 59.8835 135.434 59.9954 134.397 59.9954C132.174 59.9989 130.309 59.5164 128.834 58.2361C127.245 56.8435 126.822 55.0324 126.822 53.4628C126.822 52.3638 127.164 50.4532 128.72 49.0286C129.888 47.9597 131.429 47.3149 133.844 47.3149Z" fill="black"/>
<path d="M60.9698 47.2662C61.1484 47.2662 61.2961 47.4767 61.5709 47.768C61.7674 47.9802 64.2309 50.6159 66.5976 52.9625C67.7003 54.0615 69.8905 56.3922 70.1664 56.6516H70.2455L70.0842 49.386C70.0681 48.4011 69.9221 48.0922 69.5333 47.9322C69.2906 47.834 68.9002 47.8349 68.6735 47.8349C68.4793 47.8349 68.4133 47.7874 68.4132 47.6905C68.4132 47.5603 68.5925 47.5445 68.8363 47.5445C69.679 47.5445 70.4579 47.5931 70.798 47.5931C70.9768 47.5931 71.5926 47.5445 72.3868 47.5445C72.5975 47.5445 72.7597 47.5602 72.7597 47.6905C72.7595 47.7873 72.663 47.8348 72.469 47.8349C72.3065 47.8349 72.1765 47.8345 71.982 47.8836C71.5286 48.0138 71.3984 48.3528 71.3824 49.2598L71.2028 59.4678C71.2028 59.8251 71.1391 59.9694 70.9928 59.9696C70.8142 59.9696 70.6205 59.7927 70.4419 59.6122C69.4195 58.6413 67.3436 56.5224 65.6571 54.8557C63.8905 53.1102 62.091 51.0852 61.7977 50.7789H61.749L61.9271 57.5715C61.9591 58.8327 62.1722 59.2543 62.4962 59.3674C62.7707 59.4632 63.0793 59.4814 63.3378 59.4815C63.5151 59.4815 63.6146 59.5128 63.6148 59.6107C63.6148 59.7387 63.4671 59.7749 63.2404 59.7749C62.1874 59.7749 61.538 59.7248 61.23 59.7248C61.0826 59.7248 60.3215 59.7749 59.4784 59.7749C59.2667 59.7749 59.1223 59.7558 59.1223 59.6107C59.1225 59.5128 59.2188 59.4815 59.381 59.4815C59.5916 59.4815 59.8848 59.4636 60.1115 59.4009C60.5328 59.2718 60.5977 58.8022 60.6137 57.3936L60.7598 47.8167C60.7598 47.4929 60.809 47.2668 60.9698 47.2662Z" fill="black"/>
<path d="M212.608 47.2662C212.784 47.2665 212.932 47.477 213.206 47.768C213.4 47.9782 215.867 50.6149 218.234 52.9625C219.337 54.0616 221.524 56.3923 221.8 56.6516H221.879L221.716 49.386C221.699 48.4007 221.555 48.0921 221.168 47.9322C220.923 47.834 220.534 47.8349 220.309 47.8349C220.113 47.8349 220.048 47.7874 220.048 47.6905C220.048 47.5603 220.226 47.5445 220.468 47.5445C221.311 47.5445 222.09 47.5931 222.43 47.5931C222.608 47.5931 223.225 47.5445 224.022 47.5445C224.233 47.5445 224.393 47.5603 224.393 47.6905C224.393 47.7874 224.298 47.8349 224.101 47.8349C223.939 47.8349 223.808 47.8345 223.614 47.8836C223.161 48.0138 223.031 48.3529 223.016 49.2598L222.838 59.4678C222.838 59.8248 222.773 59.9691 222.628 59.9696C222.449 59.9696 222.254 59.7926 222.077 59.6122C221.056 58.6413 218.98 56.5224 217.292 54.8557C215.523 53.1101 213.725 51.085 213.433 50.7789H213.384L213.561 57.5715C213.594 58.8327 213.808 59.2543 214.13 59.3674C214.406 59.4632 214.713 59.4814 214.971 59.4815C215.151 59.4815 215.247 59.5128 215.247 59.6107C215.247 59.7387 215.102 59.7749 214.876 59.7749C213.822 59.7749 213.173 59.7248 212.864 59.7248C212.718 59.7248 211.955 59.7749 211.114 59.7749C210.902 59.7749 210.754 59.7558 210.754 59.6107C210.755 59.5128 210.855 59.4815 211.016 59.4815C211.228 59.4815 211.52 59.4637 211.747 59.4009C212.167 59.2718 212.234 58.8021 212.249 57.3936L212.395 47.8167C212.395 47.4925 212.443 47.2662 212.608 47.2662Z" fill="black"/>
<path d="M117.884 47.4122C117.964 47.4122 117.982 47.4753 117.982 47.5551C117.982 47.6693 117.9 47.8639 117.851 48.6074C117.835 48.7696 117.804 49.4845 117.772 49.6764C117.756 49.7585 117.722 49.8557 117.609 49.8558C117.496 49.8558 117.463 49.7713 117.463 49.6262C117.463 49.5141 117.446 49.2408 117.365 49.0469C117.252 48.7544 117.089 48.56 116.279 48.4629C116.002 48.431 114.3 48.396 113.976 48.396C113.895 48.3962 113.864 48.4463 113.864 48.5603V52.6538C113.864 52.7679 113.878 52.83 113.976 52.8302C114.333 52.8302 116.197 52.8306 116.571 52.7998C116.96 52.769 117.203 52.7195 117.349 52.5565C117.463 52.4297 117.528 52.3451 117.609 52.3451C117.674 52.3452 117.721 52.3765 117.722 52.4744C117.722 52.5703 117.641 52.8298 117.592 53.6544C117.559 53.9777 117.527 54.6263 117.527 54.7371C117.527 54.8661 117.527 55.044 117.382 55.0443C117.269 55.0443 117.236 54.9809 117.236 54.8998C117.22 54.7364 117.22 54.5272 117.171 54.3159C117.09 53.9938 116.863 53.75 116.264 53.6848C115.953 53.654 114.349 53.6361 113.959 53.6361C113.878 53.6362 113.864 53.7044 113.864 53.8004V55.0777C113.864 55.626 113.848 57.1169 113.864 57.5852C113.896 58.703 114.156 58.9416 115.809 58.9416C116.231 58.9416 116.911 58.941 117.332 58.747C117.754 58.5551 117.948 58.2139 118.062 57.5503C118.093 57.3732 118.127 57.3085 118.242 57.3085C118.371 57.3086 118.371 57.4359 118.371 57.5989C118.371 57.9702 118.241 59.0726 118.16 59.3948C118.045 59.8143 117.9 59.8145 117.285 59.8145C114.836 59.8145 113.748 59.7172 112.792 59.7172C112.418 59.7172 111.396 59.7658 110.748 59.7658C110.539 59.7657 110.426 59.7175 110.426 59.6062C110.426 59.524 110.489 59.4739 110.684 59.4739C110.927 59.4739 111.122 59.4427 111.269 59.4085C111.593 59.3433 111.672 58.9895 111.738 58.5189C111.819 57.8403 111.82 56.5617 111.82 55.0731V52.2356C111.82 49.7751 111.819 49.321 111.786 48.8036C111.754 48.2545 111.625 47.9959 111.089 47.8805C110.96 47.8486 110.685 47.8319 110.458 47.8319C110.28 47.8319 110.183 47.8024 110.182 47.6874C110.182 47.5743 110.296 47.5399 110.538 47.5399C111.397 47.5399 112.42 47.5901 112.874 47.5901C113.394 47.5901 116.619 47.5894 116.927 47.5734C117.235 47.5403 117.495 47.508 117.624 47.476C117.705 47.4601 117.803 47.4122 117.884 47.4122Z" fill="black"/>
<path d="M234.902 47.4122C234.981 47.4122 234.999 47.4753 234.999 47.5551C234.999 47.6693 234.921 47.8639 234.871 48.6074C234.853 48.7696 234.824 49.4845 234.791 49.6764C234.773 49.7585 234.741 49.8557 234.628 49.8558C234.512 49.8558 234.48 49.7713 234.48 49.6262C234.48 49.5141 234.463 49.2408 234.384 49.0469C234.269 48.7545 234.109 48.5601 233.298 48.4629C233.024 48.431 231.322 48.3961 230.995 48.396C230.915 48.396 230.878 48.446 230.878 48.5603V52.6538C230.878 52.7681 230.898 52.8302 230.995 52.8302C231.353 52.8302 233.215 52.8306 233.591 52.7998C233.978 52.769 234.223 52.7198 234.371 52.5565C234.483 52.43 234.546 52.3455 234.629 52.3451C234.695 52.3451 234.745 52.3763 234.745 52.4744C234.745 52.5703 234.663 52.8299 234.616 53.6544C234.584 53.9777 234.55 54.6263 234.55 54.7371C234.55 54.8661 234.549 55.0443 234.404 55.0443C234.288 55.0442 234.256 54.9808 234.256 54.8998C234.239 54.7364 234.239 54.5271 234.191 54.3159C234.111 53.994 233.882 53.75 233.284 53.6848C232.975 53.654 231.371 53.6361 230.98 53.6361C230.9 53.6361 230.881 53.7044 230.881 53.8004V55.0777C230.881 55.626 230.865 57.1169 230.881 57.5852C230.914 58.703 231.175 58.9416 232.829 58.9416C233.249 58.9416 233.932 58.9412 234.352 58.747C234.773 58.555 234.968 58.2136 235.081 57.5503C235.113 57.3732 235.147 57.3085 235.262 57.3085C235.39 57.3088 235.39 57.436 235.39 57.5989C235.39 57.9702 235.262 59.0726 235.176 59.3948C235.062 59.8144 234.917 59.8145 234.301 59.8145C231.851 59.8145 230.764 59.7172 229.808 59.7172C229.437 59.7172 228.414 59.7658 227.767 59.7658C227.555 59.7658 227.444 59.7176 227.443 59.6062C227.443 59.5239 227.509 59.4739 227.703 59.4739C227.946 59.4738 228.141 59.4427 228.286 59.4085C228.609 59.3434 228.692 58.9896 228.755 58.5189C228.836 57.8403 228.836 56.5616 228.836 55.0731V52.2356L228.831 49.792C228.827 49.3059 228.819 49.0624 228.802 48.8036C228.771 48.2545 228.64 47.9959 228.107 47.8805C227.977 47.8486 227.701 47.8319 227.474 47.8319C227.298 47.8318 227.2 47.8023 227.2 47.6874C227.2 47.5744 227.313 47.54 227.556 47.5399C228.416 47.5399 229.439 47.5901 229.89 47.5901C230.413 47.5901 233.635 47.5893 233.946 47.5734C234.254 47.5402 234.512 47.508 234.642 47.476C234.724 47.4601 234.821 47.4124 234.902 47.4122Z" fill="black"/>
<path d="M80.9975 47.3149C81.128 47.3152 81.2899 47.476 81.696 47.508C82.1654 47.5559 82.7812 47.5871 83.3168 47.5871H89.7391C90.2577 47.5871 90.6138 47.5388 90.8576 47.508C91.0996 47.459 91.2289 47.4291 91.2944 47.4289C91.4076 47.4289 91.4237 47.5244 91.4238 47.765C91.4238 48.1065 91.3766 49.2233 91.3766 49.646C91.3595 49.8078 91.3284 49.9055 91.2305 49.906C91.1011 49.906 91.0685 49.8251 91.0524 49.5806L91.0357 49.4057C91.0036 48.9865 90.565 48.5299 89.1212 48.4979L87.0773 48.4493V55.0853C87.0773 56.5722 87.0783 57.8501 87.1595 58.5448C87.2087 58.9983 87.306 59.3559 87.7926 59.4222C88.0192 59.4541 88.3763 59.486 88.619 59.486C88.7973 59.486 88.879 59.5344 88.8792 59.6153C88.8792 59.7282 88.7489 59.7779 88.5718 59.778C87.5012 59.778 86.4788 59.7293 86.0242 59.7293C85.6505 59.7294 84.6292 59.778 83.9803 59.778C83.77 59.7779 83.6562 59.7283 83.6562 59.6153C83.6564 59.5345 83.7224 59.4861 83.9164 59.486C84.1591 59.486 84.3543 59.4564 84.5008 59.4222C84.8248 59.3559 84.9215 58.9994 84.9696 58.5311C85.0508 57.8502 85.0517 56.5723 85.0517 55.0853V48.4477L82.635 48.5146C81.6959 48.5455 81.3068 48.6283 81.0629 48.983C80.9017 49.2249 80.8181 49.4192 80.786 49.5472C80.7539 49.6749 80.7053 49.7431 80.6094 49.7433C80.4949 49.7433 80.4618 49.6626 80.4618 49.4833C80.4622 49.2213 80.7707 47.7495 80.8027 47.6205C80.8519 47.4104 80.9013 47.3149 80.9975 47.3149Z" fill="black"/>
<path d="M148.653 47.3149C148.784 47.315 148.945 47.476 149.35 47.508C149.82 47.556 150.436 47.587 150.973 47.5871H157.393C157.911 47.587 158.269 47.5388 158.512 47.508C158.756 47.4589 158.887 47.4289 158.952 47.4289C159.064 47.4293 159.081 47.525 159.081 47.765C159.081 48.1065 159.031 49.2233 159.031 49.646C159.014 49.8079 158.982 49.9057 158.886 49.906C158.757 49.906 158.722 49.8251 158.707 49.5806L158.69 49.4057C158.659 48.9865 158.221 48.53 156.777 48.4979L154.733 48.4493V55.0853C154.733 56.5722 154.733 57.8501 154.814 58.5448C154.863 58.9982 154.961 59.3558 155.447 59.4222C155.673 59.4541 156.031 59.486 156.275 59.486C156.453 59.486 156.533 59.5344 156.534 59.6153C156.534 59.7284 156.405 59.778 156.226 59.778C155.156 59.778 154.135 59.7294 153.68 59.7293C153.308 59.7293 152.286 59.778 151.638 59.778C151.426 59.778 151.314 59.7284 151.314 59.6153C151.314 59.5345 151.377 59.4861 151.572 59.486C151.815 59.486 152.01 59.4564 152.155 59.4222C152.48 59.3559 152.578 58.9994 152.627 58.5311C152.708 57.8501 152.708 56.5721 152.708 55.0853L152.706 48.4477L150.289 48.5146C149.351 48.5455 148.961 48.628 148.717 48.983C148.555 49.2249 148.473 49.4192 148.442 49.5472C148.41 49.6751 148.361 49.7433 148.264 49.7433C148.149 49.7433 148.119 49.6626 148.119 49.4833C148.12 49.2213 148.425 47.7495 148.459 47.6205C148.508 47.4104 148.556 47.3149 148.653 47.3149Z" fill="black"/>
<path d="M55.9127 47.5414C56.1231 47.5415 56.252 47.5748 56.252 47.6707C56.2517 47.7992 56.1545 47.8319 55.9933 47.8319C55.8309 47.8319 55.7009 47.8501 55.5063 47.8821C55.0684 47.9611 54.9384 48.2399 54.9052 48.8051C54.8732 49.3222 54.8732 49.7765 54.8732 52.2356V55.0823C54.8732 56.6508 54.8734 57.93 54.9387 58.6269C54.9868 59.0642 55.1007 59.3547 55.587 59.4176C55.8147 59.4496 56.1706 59.4829 56.4134 59.483C56.592 59.483 56.6736 59.533 56.6736 59.6153C56.6732 59.7268 56.5443 59.7764 56.3662 59.7765C55.2971 59.7765 54.2744 59.7263 53.8368 59.7263C53.4636 59.7263 52.4422 59.7765 51.793 59.7765C51.5826 59.7765 51.4692 59.7269 51.4688 59.6153C51.4688 59.533 51.5344 59.483 51.7291 59.483C51.9716 59.4829 52.1666 59.4518 52.3119 59.4176C52.6354 59.3522 52.733 59.0782 52.7822 58.6101C52.8634 57.9291 52.8629 56.6504 52.8629 55.0823V52.2356C52.8629 49.7764 52.8625 49.3223 52.8294 48.8051C52.7962 48.2537 52.6356 47.9789 52.28 47.8988C52.1014 47.8497 51.8902 47.8319 51.6956 47.8319C51.5344 47.8319 51.4372 47.8015 51.4369 47.6707C51.4369 47.5747 51.5662 47.5414 51.8249 47.5414C52.4421 47.5414 53.4637 47.5901 53.9342 47.5901C54.3398 47.5901 55.2969 47.5414 55.9127 47.5414Z" fill="black"/>
<path d="M202.326 47.4107C202.391 47.411 202.439 47.4756 202.439 47.5551C202.439 47.6694 202.357 47.8643 202.308 48.2835C202.293 48.45 202.262 49.4004 202.229 49.5943C202.213 49.721 202.179 49.8208 202.066 49.8209C201.952 49.8209 201.919 49.7399 201.902 49.5608C201.902 49.4318 201.902 49.1716 201.806 48.9465C201.692 48.7193 201.352 48.4771 200.734 48.4599L198.239 48.4097C198.141 48.4097 198.091 48.459 198.091 48.6378V52.6827C198.091 52.7797 198.107 52.8272 198.207 52.8272L200.281 52.8104C200.557 52.8104 200.784 52.8108 201.013 52.7937C201.321 52.7777 201.547 52.7141 201.708 52.5017C201.79 52.4047 201.824 52.3406 201.92 52.3406C201.985 52.3409 202.017 52.3898 202.017 52.4865C202.017 52.5845 201.935 52.9882 201.888 53.4886C201.855 53.8108 201.823 54.5578 201.823 54.6687C201.823 54.8169 201.823 54.9771 201.66 54.9773C201.562 54.9773 201.53 54.8623 201.53 54.7538C201.53 54.6384 201.5 54.4439 201.435 54.252C201.353 54.0259 201.11 53.7341 200.607 53.6666C200.202 53.6197 198.484 53.6209 198.207 53.6209C198.125 53.6209 198.091 53.6513 198.091 53.7654L198.092 55.0823C198.092 56.6347 198.093 57.8494 198.175 58.528C198.222 58.9987 198.319 59.3559 198.808 59.4176C199.033 59.4507 199.39 59.483 199.616 59.483C199.828 59.483 199.893 59.5331 199.893 59.6153C199.892 59.7267 199.779 59.7765 199.535 59.7765C198.513 59.7765 197.492 59.7263 197.07 59.7263C196.648 59.7263 195.626 59.7765 195.011 59.7765C194.784 59.7765 194.67 59.7438 194.67 59.6153C194.67 59.533 194.736 59.483 194.915 59.483C195.157 59.4829 195.351 59.453 195.498 59.4176C195.822 59.3533 195.903 58.9984 195.969 58.528C196.05 57.8494 196.049 56.6369 196.049 55.0823V52.2356C196.049 49.7751 196.049 49.321 196.017 48.8036C195.985 48.2545 195.853 47.9959 195.32 47.8805C195.19 47.8486 194.915 47.8334 194.688 47.8334C194.526 47.8334 194.411 47.8023 194.411 47.7041C194.411 47.5751 194.541 47.5414 194.784 47.5414C195.627 47.5414 196.649 47.5916 197.12 47.5916C197.736 47.5916 201.027 47.5905 201.4 47.5734C201.708 47.5551 201.901 47.5559 202.065 47.508C202.162 47.476 202.244 47.4107 202.326 47.4107Z" fill="black"/>
<path d="M313.813 47.5414C313.978 47.5414 314.088 47.5737 314.089 47.6874C314.089 47.8005 314.009 47.8319 313.845 47.8319C313.62 47.8319 313.212 47.8975 312.906 48.0083C312.404 48.2048 311.852 48.5447 311.155 49.2233C310.653 49.7088 308.206 52.1349 307.653 52.7207C308.234 53.4791 311.412 56.8896 312.048 57.4925C312.76 58.1722 313.491 58.8996 314.364 59.2412C314.852 59.4354 315.176 59.4815 315.369 59.4815C315.484 59.4815 315.582 59.5156 315.582 59.6138C315.581 59.7254 315.501 59.7749 315.194 59.7749H313.781C313.295 59.7749 313.004 59.775 312.663 59.743C311.786 59.6642 311.351 59.3052 310.652 58.6907C309.939 58.0601 306.745 54.3212 306.403 53.8551L306.227 53.6103H306.143V55.0838C306.143 56.5732 306.144 57.8489 306.193 58.5448C306.228 58.9969 306.37 59.3553 306.775 59.4206C307.001 59.4526 307.362 59.486 307.571 59.486C307.701 59.486 307.782 59.5342 307.782 59.6138C307.782 59.7269 307.654 59.7765 307.473 59.7765C306.565 59.7764 305.542 59.7278 305.139 59.7278C304.766 59.7279 303.744 59.7765 303.096 59.7765C302.885 59.7764 302.772 59.7268 302.772 59.6138C302.773 59.5342 302.838 59.486 303.032 59.486C303.276 59.486 303.47 59.4549 303.615 59.4206C303.94 59.3556 304.021 58.9991 304.087 58.5311C304.168 57.8502 304.168 56.5735 304.168 55.0838V52.2356C304.168 49.7774 304.168 49.321 304.136 48.8036C304.104 48.2556 303.971 47.9985 303.437 47.8821C303.311 47.8513 303.032 47.8334 302.806 47.8334C302.628 47.8334 302.532 47.802 302.532 47.6889C302.532 47.576 302.646 47.543 302.889 47.543C303.749 47.543 304.771 47.5916 305.157 47.5916C305.546 47.5916 306.569 47.543 307.122 47.543C307.347 47.543 307.461 47.5761 307.461 47.6889C307.461 47.802 307.364 47.8334 307.233 47.8334C307.072 47.8334 306.972 47.8513 306.779 47.8821C306.344 47.9622 306.214 48.2398 306.183 48.8036C306.148 49.321 306.149 49.7774 306.149 52.2356V52.9473H306.227C306.775 52.3488 309.141 49.937 309.614 49.3875C310.068 48.8541 310.426 48.4501 310.426 48.1725C310.426 47.9966 310.359 47.8806 310.197 47.8486C310.051 47.8178 309.987 47.7844 309.987 47.6874C309.988 47.5737 310.067 47.5414 310.248 47.5414C310.589 47.5415 311.479 47.5916 311.917 47.5916C312.42 47.5916 313.312 47.5415 313.813 47.5414Z" fill="black"/>
<path d="M145.438 47.5399C145.649 47.5399 145.78 47.5736 145.78 47.6692C145.78 47.7982 145.683 47.8318 145.52 47.8319C145.358 47.8319 145.227 47.8486 145.033 47.8805C144.596 47.9593 144.466 48.2385 144.433 48.8036C144.401 49.321 144.401 49.7751 144.401 52.2356V55.0823C144.401 56.6508 144.401 57.93 144.467 58.6269C144.515 59.0639 144.628 59.3546 145.113 59.4176C145.339 59.4496 145.699 59.483 145.941 59.483C146.119 59.4831 146.2 59.5321 146.2 59.6138C146.2 59.7257 146.072 59.7749 145.893 59.7749C144.822 59.7749 143.8 59.7263 143.362 59.7263C142.988 59.7263 141.967 59.7749 141.319 59.7749C141.109 59.7749 140.994 59.7257 140.994 59.6138C140.994 59.532 141.06 59.4831 141.254 59.483C141.497 59.483 141.693 59.4519 141.838 59.4176C142.162 59.3524 142.259 59.0785 142.307 58.6101C142.39 57.9292 142.391 56.6507 142.391 55.0823V52.2356C142.391 49.7751 142.391 49.321 142.357 48.8036C142.326 48.2546 142.162 47.9788 141.806 47.8988C141.628 47.8497 141.416 47.8319 141.221 47.8319C141.06 47.8318 140.962 47.8015 140.962 47.6692C140.962 47.5737 141.093 47.5399 141.351 47.5399C141.967 47.5399 142.989 47.5901 143.461 47.5901C143.865 47.5901 144.822 47.5399 145.438 47.5399Z" fill="black"/>
<path d="M106.731 47.5384C106.957 47.5384 107.071 47.5703 107.072 47.6844C107.072 47.7986 106.974 47.8303 106.781 47.8304C106.652 47.8304 106.505 47.8471 106.311 47.879C105.873 47.959 105.742 48.2369 105.709 48.8036C105.676 49.3197 105.678 49.7729 105.678 52.2326V55.0807C105.678 56.5676 105.677 57.8456 105.758 58.5402C105.807 58.9937 105.905 59.3513 106.391 59.4176C106.618 59.4496 106.974 59.4814 107.218 59.4815C107.396 59.4815 107.478 59.5287 107.478 59.6107C107.478 59.7238 107.347 59.7734 107.154 59.7734C106.099 59.7734 105.077 59.7248 104.623 59.7248C104.249 59.7248 103.229 59.7734 102.597 59.7734C102.369 59.7734 102.256 59.7238 102.256 59.6107C102.257 59.5288 102.321 59.4815 102.515 59.4815C102.758 59.4815 102.953 59.4518 103.099 59.4176C103.424 59.3513 103.506 58.9949 103.57 58.5265C103.651 57.8456 103.65 56.5676 103.65 55.0807V53.6559C103.65 53.5897 103.602 53.5586 103.553 53.5586H97.359C97.3109 53.5586 97.2616 53.5759 97.2616 53.6559V55.0807C97.2616 56.5676 97.2611 57.8456 97.3423 58.5402C97.3915 58.9937 97.4888 59.3513 97.9754 59.4176C98.2033 59.4496 98.5593 59.4815 98.8017 59.4815C98.9798 59.4815 99.0617 59.5288 99.062 59.6107C99.062 59.7237 98.9321 59.7733 98.7378 59.7734C97.6834 59.7734 96.6616 59.7248 96.207 59.7248C95.8349 59.7248 94.8127 59.7734 94.1646 59.7734C93.954 59.7734 93.8405 59.7238 93.8405 59.6107C93.8407 59.5287 93.9048 59.4815 94.0992 59.4815C94.3429 59.4814 94.5371 59.4519 94.6836 59.4176C95.0071 59.351 95.0886 58.9946 95.1538 58.5265C95.2351 57.8456 95.2345 56.5676 95.2345 55.0807V52.2326C95.2345 49.7728 95.2342 49.3197 95.201 48.8036C95.169 48.2529 95.0387 47.9955 94.504 47.879C94.3746 47.8471 94.099 47.8304 93.8724 47.8304C93.6938 47.8304 93.597 47.7986 93.597 47.6844C93.5971 47.5703 93.7113 47.5384 93.9379 47.5384C94.8125 47.5384 95.8351 47.5871 96.2724 47.5871C96.6619 47.587 97.6833 47.5384 98.3163 47.5384C98.5426 47.5384 98.6555 47.5704 98.6556 47.6844C98.6556 47.7986 98.5581 47.8304 98.3634 47.8304C98.2342 47.8304 98.0887 47.8471 97.8932 47.879C97.456 47.959 97.326 48.237 97.2951 48.8036C97.2619 49.3197 97.2616 49.7728 97.2616 52.2326V52.5717C97.2616 52.6528 97.3109 52.6857 97.359 52.6857H103.553C103.602 52.6857 103.65 52.6551 103.65 52.5717V52.2326C103.65 49.7729 103.65 49.3197 103.618 48.8036C103.586 48.2531 103.456 47.9956 102.921 47.879C102.791 47.847 102.515 47.8304 102.288 47.8304C102.11 47.8303 102.013 47.7985 102.013 47.6844C102.013 47.5703 102.127 47.5384 102.354 47.5384C103.229 47.5384 104.25 47.587 104.688 47.5871C105.077 47.5871 106.099 47.5384 106.731 47.5384Z" fill="black"/>
<path fill-rule="evenodd" clip-rule="evenodd" d="M294.326 47.5414C295.348 47.5414 296.433 47.6389 297.309 48.2364C297.762 48.5448 298.411 49.3701 298.411 50.4519C298.41 51.65 297.909 52.7523 296.271 54.0771C297.715 55.8889 298.832 57.3315 299.789 58.3334C300.695 59.2694 301.362 59.3836 301.606 59.4328C301.783 59.4659 301.93 59.4799 302.06 59.4799C302.189 59.4799 302.253 59.5287 302.253 59.6107C302.253 59.7387 302.14 59.7734 301.944 59.7734H300.404C299.497 59.7734 299.092 59.6935 298.666 59.4663C297.972 59.0938 297.354 58.333 296.447 57.088C295.798 56.1981 295.051 55.0975 294.843 54.8542C294.763 54.7585 294.665 54.7371 294.551 54.7371L293.142 54.7097C293.062 54.7098 293.012 54.7382 293.012 54.8374V55.0625C293.012 56.5658 293.012 57.846 293.09 58.5235C293.142 58.994 293.238 59.3501 293.725 59.413C293.969 59.445 294.325 59.4784 294.518 59.4784C294.648 59.4785 294.714 59.5274 294.714 59.6092C294.714 59.7211 294.597 59.7704 294.39 59.7704C293.45 59.7704 292.252 59.7218 292.008 59.7217C291.698 59.7217 290.677 59.7704 290.028 59.7704C289.817 59.7704 289.704 59.7211 289.704 59.6092C289.704 59.5275 289.771 59.4785 289.966 59.4784C290.206 59.4784 290.402 59.4473 290.549 59.413C290.874 59.3479 290.954 58.9941 291.019 58.5235C291.1 57.8449 291.101 56.5662 291.101 55.0777L291.098 52.2356C291.098 49.7763 291.098 49.321 291.066 48.8036C291.034 48.2545 290.901 47.9982 290.367 47.8805C290.239 47.8509 289.963 47.8319 289.734 47.8319C289.558 47.8318 289.462 47.8016 289.462 47.6874C289.462 47.5736 289.575 47.5414 289.82 47.5414C290.678 47.5414 291.7 47.5916 292.038 47.5916C292.589 47.5916 293.824 47.5415 294.326 47.5414ZM294.015 48.3033C293.61 48.3033 293.32 48.3211 293.157 48.3702C293.042 48.401 293.012 48.4677 293.012 48.5968V53.513C293.012 53.69 293.041 53.7558 293.157 53.8049C293.497 53.9191 293.987 53.9661 294.39 53.9661C295.036 53.9661 295.251 53.9024 295.542 53.6924C296.027 53.3349 296.497 52.5925 296.498 51.2655C296.498 48.9681 294.973 48.3033 294.015 48.3033Z" fill="black"/>
<path d="M171.773 47.5369C171.952 47.5369 172.065 47.5691 172.066 47.6646C172.066 47.7798 171.938 47.8272 171.758 47.8273C171.597 47.8273 171.288 47.894 171.043 48.022C170.703 48.1864 170.525 48.3791 170.168 48.8142C169.633 49.4611 167.363 53.2655 167.071 53.96C166.827 54.5423 166.827 55.0436 166.827 55.578V56.9025C166.827 57.164 166.827 57.8412 166.876 58.5219C166.907 58.9901 167.054 59.3485 167.541 59.4115C167.767 59.4435 168.124 59.4754 168.352 59.4754C168.529 59.4754 168.611 59.5241 168.611 59.6062C168.611 59.7192 168.482 59.7688 168.272 59.7689C167.25 59.7689 166.227 59.7202 165.789 59.7202C165.384 59.7202 164.362 59.7689 163.762 59.7689C163.537 59.7689 163.405 59.7364 163.405 59.6062C163.405 59.5242 163.486 59.4754 163.663 59.4754C163.891 59.4754 164.086 59.4457 164.231 59.4115C164.555 59.3464 164.702 58.9903 164.735 58.5219C164.783 57.8412 164.784 57.164 164.784 56.9025V55.581C164.783 54.7086 164.622 54.3528 164.412 53.8825C164.295 53.6187 162.125 50.0656 161.559 49.2263C161.154 48.6271 160.749 48.2236 160.44 48.0463C160.229 47.9299 159.953 47.832 159.76 47.8319C159.629 47.8319 159.515 47.8017 159.515 47.6874C159.515 47.5907 159.63 47.5414 159.824 47.5414C160.116 47.5415 161.331 47.5916 161.868 47.5916C162.208 47.5916 162.874 47.5414 163.603 47.5414C163.764 47.5416 163.844 47.5908 163.845 47.6874C163.845 47.7845 163.731 47.8021 163.488 47.8638C163.342 47.8969 163.26 48.0258 163.26 48.1558C163.26 48.2849 163.342 48.4781 163.456 48.7078C163.685 49.1948 165.954 53.0897 166.213 53.5419C166.375 53.1535 168.417 49.5953 168.645 49.0925C168.807 48.7349 168.873 48.4603 168.873 48.2501C168.873 48.0901 168.805 47.9095 168.53 47.8456C168.384 47.8136 168.24 47.7798 168.24 47.6829C168.24 47.5691 168.321 47.5369 168.514 47.5369C169.049 47.5369 169.568 47.587 170.039 47.5871C170.395 47.5871 171.465 47.5369 171.773 47.5369Z" fill="black"/>
<path d="M272.83 47.5369C273.004 47.5369 273.12 47.5691 273.12 47.6646C273.12 47.7799 272.991 47.8272 272.813 47.8273C272.649 47.8273 272.34 47.894 272.096 48.022C271.756 48.1864 271.58 48.3794 271.221 48.8142C270.686 49.4608 268.417 53.2655 268.124 53.96C267.879 54.5422 267.879 55.0437 267.879 55.578V56.9025C267.879 57.164 267.88 57.8412 267.929 58.5219C267.962 58.9903 268.109 59.3487 268.594 59.4115C268.821 59.4435 269.179 59.4754 269.405 59.4754C269.583 59.4755 269.665 59.5242 269.666 59.6062C269.666 59.7192 269.537 59.7688 269.326 59.7689C268.302 59.7689 267.283 59.7202 266.844 59.7202C266.439 59.7202 265.417 59.7689 264.815 59.7689C264.589 59.7688 264.458 59.7363 264.458 59.6062C264.458 59.5241 264.539 59.4754 264.72 59.4754C264.945 59.4754 265.14 59.4458 265.287 59.4115C265.611 59.3464 265.755 58.9903 265.789 58.5219C265.839 57.8412 265.838 57.164 265.838 56.9025V55.581H265.841C265.841 54.7086 265.676 54.3528 265.467 53.8825C265.347 53.6184 263.179 50.0657 262.615 49.2263C262.21 48.6265 261.804 48.2234 261.495 48.0463C261.282 47.9298 261.007 47.8319 260.811 47.8319C260.683 47.8318 260.569 47.8015 260.569 47.6874C260.57 47.5907 260.684 47.5414 260.878 47.5414C261.17 47.5415 262.387 47.5916 262.921 47.5916C263.262 47.5916 263.928 47.5415 264.657 47.5414C264.819 47.5414 264.899 47.5907 264.899 47.6874C264.899 47.7845 264.787 47.8021 264.542 47.8638C264.396 47.8971 264.315 48.0259 264.315 48.1558C264.315 48.2849 264.395 48.4781 264.51 48.7078C264.737 49.194 267.011 53.0896 267.267 53.5419C267.429 53.1536 269.471 49.596 269.698 49.0925C269.861 48.7349 269.927 48.4603 269.927 48.2501C269.927 48.0901 269.857 47.9095 269.585 47.8456C269.439 47.8136 269.293 47.7798 269.293 47.6829C269.293 47.5692 269.373 47.5369 269.567 47.5369C270.105 47.5369 270.621 47.5871 271.093 47.5871C271.452 47.587 272.519 47.5369 272.83 47.5369Z" fill="black"/>
<path d="M62.3182 10.5003C64.1478 10.5003 65.2409 10.6182 66.5976 10.7953C67.7182 10.9426 68.6637 11.2076 69.5485 11.2956C69.8726 11.3241 69.9914 11.4717 69.9914 11.6499C69.9913 11.8852 69.9033 12.2385 69.8438 13.2694C69.7854 14.2415 69.815 15.8618 69.7555 16.449C69.7257 16.8908 69.6665 17.1257 69.4009 17.1257C69.1653 17.1255 69.1057 16.8905 69.1057 16.4794C69.077 15.5644 68.6935 14.5354 67.9551 13.7712C66.9808 12.7397 64.6796 11.9435 61.9651 11.9434C59.3969 11.9434 57.7148 12.5911 56.4164 13.7712C54.2616 15.744 53.6999 18.5401 53.6999 21.3972C53.6999 28.4043 59.0422 31.8786 62.9969 31.8789C65.6223 31.8789 67.2164 31.585 68.398 30.229C68.8994 29.6728 69.2829 28.8199 69.4009 28.2887C69.489 27.8171 69.5489 27.6973 69.7844 27.6971C69.9905 27.6971 70.0507 27.9055 70.0508 28.1397C70.0508 28.4938 69.6963 31.0549 69.4009 32.0568C69.2532 32.5572 69.1354 32.7035 68.6339 32.9114C67.4534 33.382 65.2102 33.5896 63.3211 33.5896C59.2797 33.5873 55.8863 32.7024 53.1992 30.378C50.307 27.8442 49.5391 24.5466 49.5391 21.6906C49.5392 19.688 50.1587 16.2141 52.9922 13.6221C55.1161 11.6778 57.9205 10.5003 62.3182 10.5003Z" fill="black"/>
<path d="M243.273 10.9139C243.687 10.9139 243.894 10.973 243.894 11.1785C243.894 11.3841 243.718 11.4431 243.362 11.4431C243.038 11.4431 242.86 11.4704 242.506 11.5298C241.71 11.6783 241.474 12.1785 241.414 13.2101C241.355 14.1524 241.356 14.9763 241.356 19.4523V22.603C241.356 25.8714 241.03 29.3465 238.551 31.4668C236.458 33.2622 234.33 33.5865 232.413 33.5866C230.85 33.5866 228.017 33.4974 225.863 31.5535C224.357 30.1998 223.235 28.0221 223.235 23.7511L223.237 19.4523C223.237 14.9763 223.237 14.1523 223.177 13.2101C223.114 12.2082 222.882 11.7365 221.91 11.5298C221.673 11.4703 221.171 11.4431 220.756 11.4431C220.433 11.443 220.255 11.3829 220.255 11.1785C220.255 10.9719 220.463 10.914 220.902 10.9139C222.466 10.9139 224.327 11.0021 225.212 11.0021C225.921 11.0021 227.779 10.9139 228.842 10.9139C229.286 10.9139 229.493 10.9729 229.493 11.1785C229.493 11.3841 229.314 11.4431 229.018 11.4431C228.694 11.4431 228.518 11.4704 228.164 11.5298C227.368 11.6783 227.131 12.1785 227.07 13.2101C227.012 14.1523 227.012 14.9763 227.012 19.4523V23.5747C227.012 27.8426 227.869 29.6412 229.313 30.819C230.644 31.9088 232.004 32.0249 233.007 32.0249C234.305 32.0247 235.898 31.6138 237.08 30.4373C238.703 28.8174 238.79 26.166 238.79 23.1307V19.4523C238.79 14.9762 238.79 14.1524 238.731 13.2101C238.67 12.2082 238.436 11.7365 237.462 11.5298C237.227 11.4704 236.723 11.4431 236.399 11.4431C236.075 11.4431 235.897 11.383 235.897 11.1785C235.897 10.9718 236.105 10.9139 236.515 10.9139C238.022 10.9139 239.88 11.0021 239.91 11.0021C240.268 11.002 242.125 10.9139 243.273 10.9139Z" fill="black"/>
<path d="M131.826 14.5391C132.172 14.5391 132.345 14.5882 132.345 14.7596C132.345 14.9314 132.198 14.98 131.901 14.9801C131.629 14.9801 131.48 15.0039 131.184 15.0531C130.518 15.1754 130.32 15.597 130.271 16.4581C130.222 17.245 130.222 17.9366 130.222 21.68V24.3168C130.222 27.0528 129.95 29.9588 127.875 31.7329C126.123 33.2361 124.344 33.506 122.739 33.506C121.43 33.506 119.06 33.4329 117.259 31.8074C115.999 30.6742 115.06 28.8497 115.06 25.2763V21.68C115.06 17.9356 115.06 17.2436 115.011 16.4566C114.961 15.6204 114.763 15.2244 113.949 15.0531C113.751 15.004 113.331 14.9801 112.985 14.9801C112.715 14.9801 112.566 14.9315 112.565 14.7596C112.565 14.5882 112.738 14.5391 113.109 14.5391C114.417 14.5391 115.973 14.6105 116.713 14.6106C117.307 14.6106 118.862 14.5391 119.752 14.5391C120.122 14.5391 120.295 14.5882 120.295 14.7596C120.295 14.9315 120.146 14.9801 119.899 14.9801C119.628 14.9801 119.48 15.0051 119.184 15.0531C118.517 15.1753 118.32 15.5953 118.271 16.4566C118.222 17.2437 118.221 17.9355 118.221 21.68V25.1288C118.221 28.7007 118.937 30.2054 120.147 31.19C121.258 32.1012 122.394 32.1997 123.232 32.1997C124.32 32.1997 125.653 31.8551 126.64 30.8692C127.998 29.5144 128.073 27.2978 128.073 24.7608V21.68C128.073 17.9366 128.074 17.245 128.025 16.4581C127.975 15.622 127.777 15.2245 126.962 15.0531C126.764 15.004 126.345 14.9801 126.073 14.9801C125.803 14.9801 125.654 14.9315 125.653 14.7596C125.653 14.5882 125.827 14.5391 126.172 14.5391C127.424 14.5391 128.968 14.6097 129.011 14.6106C129.307 14.6106 130.863 14.5391 131.826 14.5391Z" fill="black"/>
<path d="M346.498 14.1909C348.102 14.1909 349.142 14.4381 349.784 14.6106C350.005 14.6597 350.129 14.7331 350.129 14.9056C350.129 15.2268 350.029 15.9411 350.029 17.8617C350.029 18.4054 349.957 18.6022 349.76 18.6022C349.587 18.6022 349.513 18.4535 349.513 18.1582C349.513 17.9366 349.39 17.1719 348.869 16.5311C348.498 16.0639 347.782 15.3237 346.176 15.3237C344.347 15.3239 343.239 16.3833 343.238 17.8602C343.238 18.9934 343.808 19.8557 345.856 21.4093L346.548 21.9263C349.513 24.2167 350.597 25.8686 350.597 28.2081C350.597 29.6383 350.052 31.3379 348.274 32.4963C347.042 33.2819 345.66 33.506 344.348 33.506C342.916 33.5048 341.803 33.3318 340.744 32.8658C340.348 32.6922 340.275 32.5688 340.275 32.0279C340.275 30.6719 340.373 29.1937 340.397 28.7996C340.421 28.4285 340.496 28.1594 340.695 28.1594C340.916 28.1597 340.943 28.3791 340.943 28.5776C340.943 28.8974 341.042 29.4144 341.164 29.8336C341.708 31.658 343.165 32.3229 344.693 32.3229C346.915 32.3229 348.004 30.8214 348.005 29.5158C348.005 28.3072 347.635 27.1493 345.585 25.5728L344.448 24.6878C341.735 22.5687 340.797 20.8428 340.797 18.847C340.798 16.1377 343.067 14.1911 346.498 14.1909Z" fill="black"/>
<path fill-rule="evenodd" clip-rule="evenodd" d="M83.9682 14.1893C90.1165 14.1893 93.9438 17.762 93.944 23.4029C93.944 29.0438 89.9934 33.5042 83.7216 33.5045C76.6354 33.5045 73.7702 28.207 73.7702 23.8454C73.7702 19.6323 76.5604 14.1894 83.9682 14.1893ZM83.2529 15.3709C80.4123 15.3709 77.1777 16.9488 77.1776 23.082C77.1776 28.2066 80.0181 32.2725 84.758 32.2727C86.4869 32.2727 90.4877 31.4355 90.4878 24.3153C90.4878 18.7965 87.3026 15.371 83.2529 15.3709Z" fill="black"/>
<path d="M300.564 14.533C300.885 14.533 301.081 14.5825 301.081 14.755C301.081 14.9269 300.933 14.9755 300.687 14.9755C300.439 14.9755 299.921 14.9766 299.476 15.272C299.156 15.4925 298.784 15.9127 298.115 17.4876C297.154 19.8042 296.487 21.1333 295.152 24.1647C293.573 27.7621 292.411 30.4486 291.87 31.6812C291.227 33.1092 291.08 33.5045 290.734 33.5045C290.414 33.5043 290.265 33.1587 289.797 32.0005L283.575 16.9493C283.009 15.5933 282.591 15.3215 281.7 15.0759C281.33 14.9767 280.934 14.977 280.737 14.977C280.515 14.977 280.439 14.9035 280.439 14.755C280.439 14.5578 280.71 14.5345 281.084 14.5345C282.394 14.5346 283.798 14.6075 284.664 14.6075C285.281 14.6075 286.466 14.5345 287.698 14.5345C287.996 14.5345 288.268 14.5829 288.269 14.755C288.269 14.9274 288.119 14.977 287.897 14.977C287.502 14.977 287.13 15.0015 286.933 15.1489C286.762 15.2722 286.688 15.4445 286.688 15.6659C286.688 15.9869 286.909 16.676 287.255 17.5636L291.503 28.7479H291.602C292.663 26.0365 295.87 18.1055 296.466 16.4794C296.588 16.1596 296.685 15.7887 296.685 15.567C296.685 15.3709 296.589 15.1733 296.368 15.1002C296.069 15.0008 295.7 14.977 295.379 14.977C295.156 14.977 294.959 14.9528 294.959 14.7794C294.959 14.5818 295.182 14.533 295.651 14.533C296.884 14.533 297.918 14.6075 298.242 14.6075C298.664 14.6075 299.825 14.533 300.564 14.533Z" fill="black"/>
<path d="M248.455 14.1164C248.728 14.1164 248.95 14.4356 249.369 14.8797C249.665 15.1996 253.419 19.2149 257.025 22.787C258.704 24.4633 262.034 28.0085 262.457 28.4042H262.58L262.333 17.3431C262.309 15.8409 262.084 15.3728 261.495 15.1261C261.126 14.9777 260.531 14.977 260.184 14.977C259.887 14.977 259.789 14.905 259.789 14.7565C259.789 14.559 260.062 14.536 260.432 14.536C261.717 14.5361 262.901 14.609 263.42 14.609C263.69 14.609 264.631 14.536 265.84 14.536C266.158 14.5361 266.407 14.5602 266.407 14.7565C266.407 14.905 266.258 14.9769 265.961 14.977C265.714 14.977 265.517 14.9773 265.22 15.0515C264.529 15.2492 264.333 15.7666 264.307 17.1455L264.038 32.6909C264.038 33.2347 263.936 33.4558 263.715 33.4558C263.444 33.4555 263.147 33.1848 262.878 32.9144C261.324 31.4351 258.161 28.2073 255.594 25.6701C252.901 23.0091 250.164 19.9307 249.716 19.4599H249.642L249.913 29.8093C249.963 31.7308 250.284 32.3709 250.778 32.5434C251.198 32.6918 251.667 32.7168 252.064 32.7168C252.334 32.7168 252.48 32.7664 252.481 32.9144C252.481 33.1098 252.262 33.1608 251.913 33.1608C250.31 33.1608 249.319 33.0878 248.851 33.0878C248.629 33.0879 247.468 33.1608 246.186 33.1608C245.865 33.1608 245.642 33.1361 245.642 32.9144C245.642 32.7663 245.789 32.7168 246.036 32.7168C246.355 32.7168 246.803 32.6918 247.15 32.5936C247.791 32.396 247.889 31.6824 247.912 29.5386L248.136 14.9527C248.136 14.4594 248.209 14.1164 248.455 14.1164Z" fill="black"/>
<path d="M314.233 14.3399C314.357 14.3399 314.384 14.4381 314.384 14.5604C314.384 14.7329 314.259 15.029 314.186 16.1616C314.161 16.4072 314.112 17.4922 314.063 17.7872C314.039 17.9105 313.99 18.0594 313.816 18.0594C313.643 18.0591 313.594 17.9355 313.594 17.7142C313.594 17.5416 313.571 17.1208 313.445 16.8261C313.273 16.3842 313.025 16.0869 311.792 15.9396C311.371 15.8905 308.78 15.8423 308.286 15.8423C308.162 15.8423 308.112 15.916 308.112 16.0871V22.3217C308.112 22.4941 308.138 22.5924 308.286 22.5924C308.829 22.5924 311.668 22.5928 312.235 22.5437C312.828 22.4946 313.198 22.4186 313.421 22.1742C313.593 21.9778 313.693 21.8535 313.818 21.8533C313.915 21.8533 313.988 21.9048 313.988 22.051C313.988 22.1997 313.866 22.5948 313.792 23.8484C313.743 24.3433 313.693 25.3274 313.693 25.4998C313.693 25.6963 313.693 25.9666 313.472 25.9667C313.298 25.9667 313.249 25.8692 313.249 25.7447C313.225 25.4991 313.225 25.1792 313.15 24.8596C313.027 24.3663 312.682 23.9992 311.768 23.8986C311.3 23.8483 308.853 23.8256 308.26 23.8256C308.14 23.8258 308.112 23.9247 308.112 24.072V26.0184C308.112 26.8558 308.089 29.1216 308.112 29.8367C308.162 31.536 308.558 31.9077 311.075 31.9078C311.72 31.9078 312.757 31.9067 313.396 31.6097C314.041 31.315 314.335 30.7975 314.51 29.7865C314.557 29.5173 314.607 29.4186 314.78 29.4185C314.978 29.4185 314.977 29.6155 314.977 29.861C314.977 30.4287 314.779 32.1033 314.658 32.5982C314.486 33.2389 314.261 33.2399 313.326 33.2399C309.596 33.2399 307.943 33.0909 306.482 33.0908C305.916 33.0908 304.36 33.1653 303.372 33.1654C303.052 33.1654 302.878 33.091 302.877 32.919C302.877 32.7945 302.977 32.7213 303.273 32.7213C303.644 32.7213 303.94 32.6716 304.16 32.6225C304.656 32.5231 304.778 31.9801 304.878 31.2661C305 30.2333 305 28.2857 305 26.0184L304.999 21.68C304.999 17.9354 304.998 17.2437 304.948 16.4566C304.899 15.6204 304.702 15.2244 303.888 15.0531C303.691 15.0039 303.268 14.9801 302.921 14.9801C302.653 14.9801 302.503 14.9315 302.503 14.7596C302.503 14.5882 302.678 14.5391 303.048 14.5391C304.359 14.5391 305.912 14.6106 306.603 14.6106C307.393 14.6106 312.307 14.6102 312.777 14.5862C313.246 14.5372 313.641 14.4863 313.839 14.4372C313.962 14.4132 314.11 14.34 314.233 14.3399Z" fill="black"/>
<path fill-rule="evenodd" clip-rule="evenodd" d="M169.034 14.5376C173.503 14.5376 174.294 16.9258 174.294 18.2327C174.294 20.2524 173.134 21.4585 171.776 22.5437C173.802 23.2339 176.27 24.9823 176.271 27.8629C176.271 30.5007 174.221 33.2353 169.676 33.2353C169.082 33.2352 166.838 33.0878 166.097 33.0878C165.529 33.0878 163.974 33.1623 162.985 33.1623C162.665 33.1623 162.492 33.0869 162.492 32.9144C162.492 32.7902 162.59 32.7168 162.886 32.7168C163.255 32.7168 163.552 32.6682 163.775 32.6179C164.268 32.5197 164.391 31.9769 164.49 31.263C164.613 30.2292 164.615 28.2825 164.615 26.0138V21.68C164.615 17.9356 164.615 17.2436 164.564 16.4566C164.515 15.6192 164.316 15.2244 163.501 15.0531C163.304 15.004 162.884 14.9786 162.539 14.9786C162.267 14.9785 162.119 14.9291 162.119 14.7596C162.119 14.586 162.292 14.5376 162.664 14.5376C163.972 14.5376 165.528 14.609 166.022 14.609C167.232 14.609 168.194 14.5376 169.034 14.5376ZM167.725 23.4531C167.626 23.4531 167.576 23.5027 167.576 23.6249V29.4641C167.576 31.0897 167.649 31.51 168.441 31.8287C169.107 32.0993 169.674 32.1237 170.241 32.1237C171.354 32.1237 173.23 31.5326 173.23 28.9714C173.231 27.4442 172.712 25.3758 170.836 24.0689C170.317 23.6988 169.749 23.525 168.786 23.4759C168.342 23.4519 168.095 23.4531 167.725 23.4531ZM168.614 15.5442C168.269 15.5442 168.046 15.5439 167.8 15.5929C167.627 15.642 167.578 15.7407 167.578 16.0126L167.576 22.0982C167.576 22.2947 167.65 22.3449 167.748 22.3688C167.97 22.4167 168.342 22.4418 168.909 22.4418C169.725 22.4418 170.268 22.3425 170.688 21.9735C171.33 21.4548 171.7 20.5697 171.7 19.3625C171.7 17.7131 170.737 15.5447 168.614 15.5442Z" fill="black"/>
<path d="M104.641 14.5315C104.987 14.5315 105.16 14.581 105.16 14.7535C105.16 14.9256 105.012 14.9755 104.716 14.9755C104.444 14.9755 104.049 14.9994 103.754 15.0485C103.086 15.1719 102.888 15.5922 102.839 16.4536C102.79 17.2393 102.789 17.9311 102.789 21.6739V26.0138C102.789 29.1686 102.789 30.8671 103.308 31.3117C103.728 31.6818 104.37 31.853 106.297 31.853C107.605 31.853 108.568 31.829 109.185 31.1642C109.482 30.843 109.778 30.1528 109.828 29.6846C109.852 29.4646 109.901 29.3168 110.099 29.3166C110.271 29.3166 110.296 29.4382 110.296 29.7363C110.296 30.0075 110.123 31.8544 109.927 32.5677C109.779 33.1092 109.654 33.2323 108.37 33.2323C104.814 33.2323 103.185 33.0832 101.185 33.0832C100.616 33.0833 99.0608 33.1577 98.0728 33.1577C97.7524 33.1577 97.5782 33.0835 97.5782 32.9099C97.5784 32.7879 97.6791 32.7137 97.9754 32.7137C98.3445 32.7137 98.6407 32.6651 98.8626 32.6149C99.3561 32.5166 99.4798 31.974 99.5794 31.26C99.7018 30.2249 99.7027 28.2789 99.7027 26.0108V21.6739C99.7027 17.9311 99.7017 17.2393 99.6525 16.4536C99.6032 15.6151 99.4069 15.221 98.5917 15.0485C98.3936 14.9994 98.0977 14.9755 97.776 14.9755C97.5052 14.9754 97.3577 14.9256 97.3575 14.7535C97.3575 14.581 97.5298 14.5315 97.9008 14.5315C99.0617 14.5315 100.616 14.606 101.284 14.606C101.876 14.606 103.678 14.5315 104.641 14.5315Z" fill="black"/>
<path fill-rule="evenodd" clip-rule="evenodd" d="M326.868 14.5376C328.425 14.5376 330.081 14.685 331.417 15.5975C332.108 16.0647 333.094 17.3225 333.094 18.9733C333.094 20.7964 332.327 22.4709 329.834 24.4916C332.032 27.2504 333.734 29.4426 335.192 30.9711C336.576 32.3993 337.589 32.5713 337.959 32.6468C338.23 32.6959 338.452 32.7213 338.65 32.7213C338.847 32.7213 338.948 32.7934 338.948 32.9175C338.948 33.114 338.776 33.1653 338.48 33.1654H336.133C334.751 33.1654 334.133 33.042 333.489 32.697C332.427 32.1292 331.492 30.9711 330.108 29.0748C329.122 27.7179 327.985 26.0436 327.662 25.6732C327.539 25.526 327.391 25.5014 327.219 25.5014L325.069 25.4527C324.946 25.4527 324.87 25.5019 324.87 25.6504V25.9956C324.87 28.286 324.869 30.2338 324.993 31.2676C325.067 31.9815 325.215 32.5231 325.956 32.6225C326.326 32.6716 326.868 32.7212 327.168 32.7213C327.363 32.7213 327.464 32.7947 327.464 32.919C327.464 33.0904 327.292 33.1669 326.971 33.1669C325.539 33.1669 323.711 33.0924 323.34 33.0924C322.871 33.0924 321.313 33.1668 320.325 33.1669C320.006 33.1669 319.831 33.0915 319.831 32.919C319.831 32.7959 319.931 32.7213 320.226 32.7213C320.597 32.7213 320.895 32.6716 321.117 32.6225C321.61 32.5228 321.734 31.9813 321.832 31.2676C321.954 30.2338 321.954 28.2862 321.954 26.0199V21.68C321.954 17.9355 321.956 17.2436 321.907 16.4566C321.857 15.6192 321.659 15.2256 320.844 15.0531C320.646 15.0029 320.227 14.9801 319.881 14.9801C319.61 14.9801 319.461 14.9315 319.461 14.7596C319.461 14.5871 319.635 14.5376 320.006 14.5376C321.315 14.5376 322.87 14.6121 323.389 14.6121C324.227 14.6121 326.103 14.5376 326.868 14.5376ZM326.401 15.6933C325.783 15.6933 325.335 15.7167 325.089 15.7921C324.917 15.8412 324.868 15.94 324.868 16.1373V23.6249C324.868 23.8964 324.921 23.9951 325.092 24.0704C325.609 24.2418 326.352 24.3168 326.971 24.3168C327.957 24.3168 328.279 24.2169 328.721 23.8986C329.461 23.3549 330.178 22.2224 330.178 20.2019C330.178 16.7044 327.858 15.6935 326.401 15.6933Z" fill="black"/>
<path d="M186.4 14.5345C186.719 14.5346 186.917 14.584 186.917 14.7307C186.917 14.9283 186.768 14.9786 186.522 14.9786C186.275 14.9786 186.078 15.0025 185.781 15.0515C185.114 15.1738 184.917 15.5939 184.868 16.4551C184.817 17.2411 184.817 17.9337 184.817 21.6785V26.0153C184.817 28.4038 184.817 30.3516 184.916 31.4105C184.99 32.0753 185.165 32.5201 185.905 32.6194C186.251 32.6685 186.793 32.7168 187.164 32.7168C187.434 32.7168 187.559 32.789 187.56 32.9144C187.56 33.0858 187.362 33.1623 187.091 33.1623C185.462 33.1623 183.904 33.0878 183.238 33.0878C182.669 33.0878 181.115 33.1623 180.127 33.1623C179.806 33.1623 179.634 33.0869 179.634 32.9144C179.634 32.7902 179.732 32.7169 180.028 32.7168C180.398 32.7168 180.696 32.6686 180.917 32.6194C181.411 32.5198 181.56 32.0999 181.632 31.3862C181.756 30.3523 181.755 28.4039 181.755 26.0153L181.754 21.68C181.754 17.9355 181.754 17.2436 181.705 16.4566C181.656 15.6204 181.408 15.1993 180.865 15.0759C180.594 15.0029 180.273 14.9786 179.978 14.9786C179.731 14.9785 179.584 14.9282 179.584 14.7307C179.584 14.5839 179.781 14.5345 180.176 14.5345C181.113 14.5345 182.67 14.6075 183.385 14.6075C184.004 14.6075 185.461 14.5345 186.4 14.5345Z" fill="black"/>
<path d="M277.368 14.5345C277.687 14.5345 277.886 14.5839 277.887 14.7307C277.887 14.9282 277.737 14.9785 277.491 14.9786C277.244 14.9786 277.045 15.0024 276.75 15.0515C276.082 15.1738 275.886 15.5939 275.837 16.4551C275.786 17.2411 275.787 17.9337 275.787 21.6785V26.0153C275.787 28.4038 275.787 30.3516 275.887 31.4105C275.959 32.0752 276.133 32.52 276.873 32.6194C277.219 32.6686 277.761 32.7168 278.133 32.7168C278.403 32.7168 278.527 32.7891 278.527 32.9144C278.527 33.0857 278.331 33.1622 278.06 33.1623C276.43 33.1623 274.875 33.0878 274.208 33.0878C273.638 33.0879 272.084 33.1623 271.096 33.1623C270.777 33.1623 270.602 33.0869 270.602 32.9144C270.602 32.7902 270.701 32.7168 270.997 32.7168C271.366 32.7168 271.664 32.6686 271.886 32.6194C272.379 32.52 272.529 32.1002 272.601 31.3862C272.725 30.3523 272.725 28.404 272.725 26.0153V21.68H272.721C272.721 17.9355 272.722 17.2436 272.673 16.4566C272.624 15.6204 272.374 15.1993 271.833 15.0759C271.563 15.0029 271.238 14.9786 270.945 14.9786C270.698 14.9785 270.548 14.9282 270.548 14.7307C270.549 14.584 270.748 14.5346 271.143 14.5345C272.079 14.5345 273.638 14.6075 274.356 14.6075C274.971 14.6075 276.429 14.5345 277.368 14.5345Z" fill="black"/>
<path d="M362.222 14.5345C362.541 14.5346 362.739 14.584 362.74 14.7307C362.74 14.9283 362.59 14.9786 362.342 14.9786C362.096 14.9786 361.898 15.0025 361.603 15.0515C360.936 15.1739 360.737 15.5941 360.687 16.4551C360.637 17.2411 360.638 17.9337 360.638 21.6785V26.0153C360.638 28.4038 360.639 30.3516 360.738 31.4105C360.81 32.0751 360.985 32.52 361.723 32.6194C362.07 32.6685 362.612 32.7167 362.985 32.7168C363.253 32.7168 363.38 32.789 363.38 32.9144C363.38 33.0857 363.184 33.1622 362.912 33.1623C361.281 33.1623 359.726 33.0878 359.058 33.0878C358.493 33.0878 356.934 33.1623 355.948 33.1623C355.626 33.1622 355.453 33.0868 355.453 32.9144C355.453 32.7902 355.553 32.7168 355.85 32.7168C356.22 32.7167 356.515 32.6686 356.737 32.6194C357.232 32.52 357.379 32.1001 357.453 31.3862C357.575 30.3523 357.576 28.404 357.576 26.0153V21.68C357.576 17.9354 357.575 17.2437 357.524 16.4566C357.475 15.6205 357.23 15.1993 356.687 15.0759C356.417 15.0028 356.094 14.9786 355.8 14.9786C355.553 14.9786 355.404 14.9283 355.404 14.7307C355.405 14.5839 355.602 14.5345 355.998 14.5345C356.935 14.5345 358.493 14.6075 359.207 14.6075C359.825 14.6075 361.284 14.5345 362.222 14.5345Z" fill="black"/>
<path d="M368.268 14.1893C368.464 14.1893 368.714 14.4367 369.332 14.4859C370.048 14.5601 370.986 14.609 371.801 14.609H381.579C383.158 14.609 383.75 14.3629 383.948 14.3627C384.121 14.3627 384.146 14.5109 384.146 14.8797C384.146 15.3961 384.073 17.0965 384.073 17.7385C384.048 17.9839 383.997 18.1324 383.851 18.1324C383.654 18.1322 383.604 18.0081 383.578 17.6381L383.554 17.3675C383.503 16.7268 382.838 16.0389 380.64 15.9898L377.529 15.9153V26.0153C377.529 28.2816 377.53 30.2298 377.649 31.2889C377.724 31.9788 377.872 32.52 378.613 32.6194C378.962 32.6685 379.501 32.7182 379.874 32.7183C380.144 32.7183 380.271 32.7913 380.271 32.9144C380.271 33.0869 380.073 33.1623 379.801 33.1623C378.171 33.1623 376.616 33.0878 375.923 33.0878C375.356 33.0878 373.801 33.1623 372.813 33.1623C372.492 33.1623 372.317 33.0881 372.317 32.9144C372.317 32.7925 372.418 32.7183 372.714 32.7183C373.082 32.7183 373.38 32.6685 373.6 32.6194C374.095 32.5201 374.244 31.9785 374.316 31.2646C374.44 30.2295 374.44 28.2822 374.44 26.0153V15.9137L370.761 16.0126C369.329 16.0617 368.735 16.1847 368.366 16.7273C368.118 17.0958 367.996 17.3915 367.947 17.588C367.897 17.7856 367.823 17.886 367.675 17.886C367.503 17.886 367.454 17.7623 367.454 17.4906C367.454 17.0965 367.922 14.853 367.972 14.6577C368.046 14.3388 368.12 14.1898 368.268 14.1893Z" fill="black"/>
<path d="M405.556 14.5345C405.826 14.5345 406 14.5833 406 14.7307C406 14.9028 405.804 14.9769 405.533 14.977C405.284 14.977 404.816 15.0757 404.446 15.272C403.929 15.5199 403.657 15.8152 403.113 16.4809C402.298 17.4645 398.841 23.2563 398.398 24.3153C398.027 25.2014 398.027 25.9641 398.027 26.7772V28.7996C398.027 29.1937 398.027 30.2292 398.1 31.263C398.148 31.977 398.371 32.5197 399.114 32.6179C399.459 32.6682 400.001 32.7167 400.346 32.7168C400.617 32.7168 400.743 32.7889 400.743 32.9129C400.743 33.0854 400.545 33.1623 400.225 33.1623C398.67 33.1623 397.114 33.0878 396.447 33.0878C395.83 33.0878 394.273 33.1623 393.359 33.1623C393.015 33.1623 392.816 33.1094 392.816 32.9129C392.817 32.79 392.939 32.7168 393.212 32.7168C393.557 32.7167 393.855 32.6682 394.076 32.6179C394.572 32.5194 394.792 31.9767 394.84 31.263C394.915 30.2292 394.915 29.1926 394.915 28.7996L394.913 26.7772C394.913 25.447 394.665 24.907 394.344 24.1921C394.171 23.7957 390.863 18.3779 389.999 17.0968C389.382 16.184 388.764 15.5671 388.295 15.2964C387.975 15.1239 387.555 14.977 387.258 14.977C387.06 14.977 386.888 14.9278 386.888 14.7565C386.888 14.6069 387.061 14.5345 387.357 14.5345C387.803 14.5346 389.654 14.6075 390.469 14.6075C390.988 14.6075 392.001 14.5345 393.114 14.5345C393.359 14.5346 393.484 14.607 393.484 14.7565C393.484 14.9039 393.31 14.9275 392.938 15.0257C392.716 15.0748 392.592 15.2725 392.592 15.4712C392.593 15.6688 392.714 15.9628 392.888 16.3061C393.236 17.0461 396.689 22.9808 397.086 23.6735C397.335 23.0794 400.442 17.6647 400.789 16.8991C401.036 16.3567 401.136 15.937 401.136 15.6172C401.136 15.3706 401.037 15.1009 400.619 15.0014C400.398 14.9522 400.173 14.9024 400.173 14.755C400.173 14.5829 400.295 14.5345 400.593 14.5345C401.407 14.5345 402.197 14.606 402.911 14.606C403.458 14.606 405.083 14.5346 405.556 14.5345Z" fill="black"/>
<path d="M153.356 13.9917C153.579 13.9919 153.726 14.238 153.8 14.755L156.048 29.9811C156.27 31.5336 156.517 32.248 157.258 32.4719C157.974 32.691 158.468 32.7167 158.789 32.7168C159.01 32.7168 159.185 32.7412 159.185 32.8886C159.185 33.085 158.888 33.1608 158.542 33.1608C157.925 33.1608 154.516 33.0845 153.529 33.0102C152.962 32.9623 152.814 32.8881 152.814 32.7396C152.814 32.6187 152.913 32.5438 153.085 32.4719C153.232 32.4199 153.307 32.1006 153.208 31.4105L151.726 20.5684H151.629L146.244 31.7557C145.677 32.9138 145.553 33.1345 145.331 33.1349C145.109 33.1349 144.862 32.6415 144.467 31.9047C143.875 30.7704 141.923 27.0003 141.627 26.3103C141.405 25.7936 139.922 22.6904 139.058 20.8421H138.961L137.675 30.6472C137.625 31.0915 137.6 31.4122 137.6 31.8074C137.6 32.2741 137.923 32.4969 138.343 32.5951C138.787 32.6922 139.133 32.7168 139.379 32.7168C139.577 32.7168 139.75 32.7664 139.75 32.8886C139.75 33.11 139.528 33.1607 139.158 33.1608C138.12 33.1608 137.01 33.0848 136.565 33.0848C136.096 33.0848 134.91 33.1608 134.12 33.1608C133.873 33.1607 133.675 33.11 133.675 32.8886C133.675 32.7664 133.822 32.7168 134.071 32.7168C134.269 32.7168 134.441 32.7165 134.81 32.6423C135.502 32.4948 135.699 31.5343 135.823 30.6958L138.285 14.6334H138.268C138.343 14.2143 138.49 13.9919 138.688 13.9917C138.885 13.9917 139.034 14.1144 139.355 14.755L146.095 28.6521L152.813 14.5847C152.983 14.1894 153.133 13.9917 153.356 13.9917Z" fill="black"/>
<path fill-rule="evenodd" clip-rule="evenodd" d="M200.208 13.9917C200.429 13.9918 200.577 14.2129 200.824 14.7794C201.419 16.1361 205.369 26.1868 206.95 29.9325C207.885 32.1505 208.605 32.4946 209.121 32.6179C209.49 32.691 209.861 32.7167 210.155 32.7168C210.355 32.7168 210.477 32.7411 210.477 32.9129C210.477 33.1094 210.254 33.1608 209.341 33.1608C208.454 33.1608 206.649 33.1609 204.675 33.1106C204.23 33.0866 203.935 33.0854 203.935 32.9129C203.935 32.7661 204.035 32.7175 204.28 32.6924C204.453 32.6433 204.626 32.4223 204.503 32.1252L202.524 26.9034C202.475 26.78 202.401 26.7315 202.278 26.7315H196.775V26.7285C196.651 26.7289 196.601 26.7782 196.552 26.9247L195.219 30.4495C194.973 31.0641 194.848 31.6571 194.848 31.9519C194.848 32.395 195.071 32.7152 195.837 32.7152H196.207C196.503 32.7152 196.575 32.7656 196.575 32.9129C196.575 33.109 196.428 33.1592 196.158 33.1593C195.367 33.1593 194.307 33.0863 193.541 33.0863C193.269 33.0863 191.911 33.1593 190.626 33.1593C190.306 33.1592 190.158 33.109 190.158 32.9129C190.158 32.7656 190.256 32.7152 190.454 32.7152C190.677 32.7152 191.021 32.6905 191.218 32.6666C192.355 32.5181 192.825 31.681 193.318 30.4495L199.515 14.9755C199.814 14.2619 199.961 13.9917 200.208 13.9917ZM199.592 19.0432C199.516 19.0433 199.468 19.1655 199.442 19.2637L197.172 25.3265C197.147 25.4243 197.173 25.4967 197.271 25.4968H201.813C201.936 25.4966 201.962 25.4244 201.937 25.3493L199.715 19.2637C199.691 19.1655 199.664 19.0432 199.592 19.0432Z" fill="black"/>
<path d="M33.7513 30.6593V33.1486H4.3779V30.6593H33.7513Z" fill="black"/>
<path fill-rule="evenodd" clip-rule="evenodd" d="M19.0654 0.000297118C19.3045 -0.00196653 19.7353 0.00692302 19.84 0.0900146C19.9865 0.206507 19.8566 1.69112 19.9435 1.79921C20.0317 1.90545 21.5856 1.73622 21.7104 1.89501C21.8363 2.05407 21.8756 3.70359 21.6799 3.87183C21.4841 4.04319 20.1046 3.77883 19.9283 3.92506C19.8425 3.99912 19.7887 5.58276 19.9374 5.75286C22.1 6.94217 22.3542 9.69548 20.4868 11.0994C20.877 11.49 21.31 12.1737 21.6328 12.1182C25.6596 11.4077 29.2432 9.19198 33.3937 9.52556C35.7165 9.71316 37.6145 11.3451 38.0186 13.6891C38.7454 17.9111 35.7054 21.1556 34.2307 24.738C33.7636 25.8689 33.3539 27.3898 33.4272 28.6977H4.70053C4.77495 27.3898 4.36562 25.8689 3.89851 24.738C2.42379 21.1555 -0.616458 17.9102 0.110599 13.6891C0.514973 11.3452 2.41409 9.71327 4.73706 9.52708C8.88719 9.19368 12.4696 11.4087 16.495 12.1182C16.8178 12.1731 17.2509 11.4901 17.6424 11.0994C15.7755 9.69417 16.0292 6.94199 18.1918 5.75286C18.3399 5.57808 18.2856 3.9971 18.201 3.92506C18.0246 3.77883 16.6451 4.04357 16.4493 3.87335C16.2539 3.70377 16.2928 2.05644 16.4173 1.89501C16.5433 1.73622 18.0976 1.90545 18.1857 1.79921C18.2721 1.68839 18.1429 0.207527 18.2892 0.0900146C18.3947 0.00717128 18.8255 -0.00198222 19.0654 0.000297118ZM9.4533 11.9479C7.59976 11.3996 5.79275 11.0294 4.072 11.6849C1.24637 12.7598 1.89553 16.3461 2.9717 18.5384C4.43612 21.52 6.9033 25.827 8.89326 26.3833C9.96027 26.6814 10.6301 26.2387 10.6267 25.3797C10.6244 24.7035 10.5119 24.0421 10.0849 23.7176C10.0849 23.7176 8.02798 23.7043 7.8173 23.5215C7.60596 23.337 7.44093 22.1085 7.47945 21.8594C7.51835 21.6128 9.71741 22.0591 9.83681 21.8214C9.95355 21.5839 9.27327 20.1845 9.39395 19.9449C9.51417 19.7096 11.1776 19.9571 11.1776 19.9571C11.3926 20.0621 11.5877 21.7363 11.797 21.9096C12.0075 22.082 13.579 21.8489 13.7769 22.0206C13.9738 22.1965 14.3111 23.5524 14.1863 23.7237C14.0613 23.8958 12.3205 23.6315 12.1774 23.8165C12.0087 24.3649 12.5368 25.2931 13.1834 25.8572C13.6515 26.2671 14.1687 26.5113 14.8118 26.508C15.793 26.5 16.9739 25.154 17.3472 23.0349C17.6068 21.5556 16.9837 18.6222 16.361 17.2443C15.0229 14.2851 15.8323 14.4662 15.4631 14.238C13.9541 13.3024 11.394 12.5237 9.4533 11.9479ZM34.0587 11.6849C32.336 11.0284 30.5296 11.3998 28.6774 11.9479C26.7368 12.5237 24.1763 13.3025 22.6661 14.238C22.2963 14.4665 23.1078 14.2844 21.7682 17.2443C21.1467 18.622 20.5213 21.5555 20.782 23.0349C21.1553 25.154 22.3351 26.5 23.3175 26.508C23.9607 26.5114 24.4766 26.2671 24.9458 25.8572C25.5925 25.2931 26.1195 24.3649 25.9518 23.8165C25.8077 23.6316 24.0699 23.8951 23.9429 23.7237C23.8204 23.5524 24.1542 22.1965 24.3523 22.0206C24.5491 21.8475 26.119 22.0805 26.3307 21.9096C26.5414 21.7371 26.7379 20.0599 26.9532 19.9571C26.9881 19.9519 28.6156 19.7121 28.7368 19.9449C28.8565 20.1858 28.1757 21.584 28.2924 21.8214C28.4096 22.0595 30.6109 21.6128 30.6498 21.8594C30.6872 22.1084 30.5223 23.3377 30.3119 23.5215C30.1012 23.7043 28.0444 23.7176 28.0444 23.7176C27.6164 24.0422 27.5049 24.7036 27.5026 25.3797C27.4991 26.2388 28.1704 26.6815 29.2375 26.3833C31.2273 25.8249 33.6945 21.5196 35.1575 18.5384C36.2336 16.3461 36.8831 12.7597 34.0587 11.6849Z" fill="black"/>
</svg>
