<svg width="354" height="90" viewBox="0 0 354 90" fill="none" xmlns="http://www.w3.org/2000/svg">
<path fill-rule="evenodd" clip-rule="evenodd" d="M42.3452 80.2256C43.6556 80.2912 44.5728 80.6196 45.228 81.21C45.7522 81.8003 45.9488 82.6529 45.8833 83.6367C45.7523 85.6702 44.5729 86.7197 42.4106 86.7197H41.9517L40.0513 86.6543L40.4448 80.1602L42.3452 80.2256ZM41.8208 85.2773H42.2798C43.1315 85.2772 44.0482 84.8175 44.1792 83.5713C44.3102 82.325 43.4588 81.6691 42.5415 81.6035H42.0825L41.8208 85.2773Z" fill="black"/>
<path fill-rule="evenodd" clip-rule="evenodd" d="M57.2847 85.0146L55.4497 85.4082L54.5981 84.1621L52.5015 84.6211L52.2397 86.0645L50.4702 86.458L51.5845 79.6357L53.4185 79.2422L57.2847 85.0146ZM52.6323 83.3086L53.812 82.9814L52.895 81.5381L52.6323 83.3086Z" fill="black"/>
<path d="M38.2827 79.6357L37.9546 81.0127L35.5962 80.4229L35.3989 81.4727L37.4956 81.9971L37.103 83.375L35.0063 82.8496L34.7437 84.0303L36.9722 84.6211L36.644 85.998L32.7778 84.9492L34.4165 78.7168L38.2827 79.6357Z" fill="black"/>
<path d="M59.8403 84.0303L58.3335 84.6211L57.7437 83.0469L59.3159 82.5215L59.8403 84.0303Z" fill="black"/>
<path fill-rule="evenodd" clip-rule="evenodd" d="M60.9546 76.4873C63.1169 75.3066 64.7548 75.7002 65.8032 77.6025C66.7203 79.5047 66.1959 81.0137 64.0337 82.1943L62.396 83.1123L59.3159 77.4053L60.9546 76.4873ZM62.6577 77.3398C62.3302 77.3399 62.0682 77.4714 61.8062 77.6025L61.4126 77.8643L63.1821 81.1445L63.5757 80.8818C64.2963 80.4225 64.8861 79.4382 64.231 78.3232C63.8378 77.7329 63.3129 77.3398 62.6577 77.3398Z" fill="black"/>
<path fill-rule="evenodd" clip-rule="evenodd" d="M29.1743 76.3555C31.3365 77.4706 31.9912 78.9796 31.0083 80.8818C30.4186 82.1281 29.5011 82.7188 28.3872 82.7188C27.7321 82.7187 27.0767 82.5214 26.2251 82.1279L24.5874 81.2754L27.5356 75.5029L29.1743 76.3555ZM26.6187 80.751L27.0112 81.0127C27.3389 81.2095 27.5361 81.2754 27.8638 81.2754C28.5189 81.2753 29.1085 80.8815 29.436 80.2256C29.6326 79.6353 29.7634 79.1761 29.5669 78.6514C29.3704 78.258 29.1083 77.9303 28.6499 77.668L28.2563 77.4053L26.6187 80.751Z" fill="black"/>
<path d="M69.2759 78.9141L67.9653 79.8975L67.0483 78.5205L68.3589 77.5361L69.2759 78.9141Z" fill="black"/>
<path d="M22.8179 72.0264L21.9009 76.2246L24.3257 73.2725L25.5698 74.3223L21.4419 79.373L20.0659 78.127L20.9175 73.9287L18.5591 76.9463L17.2485 75.8965L21.3765 70.8457L22.8179 72.0264Z" fill="black"/>
<path d="M42.9673 58.3457L38.4507 58.5508L38.3823 57.0439L42.8989 56.8389L42.9673 58.3457Z" fill="black"/>
<path d="M42.9673 54.2129L38.4507 54.418L38.3823 52.9111L42.8989 52.7061L42.9673 54.2129Z" fill="black"/>
<path d="M42.9683 50.0146L38.4517 50.2207L38.3823 48.7139L42.8999 48.5078L42.9683 50.0146Z" fill="black"/>
<path d="M52.2837 57.0312L52.2153 58.5391L47.6987 58.333L47.7671 56.8262L52.2837 57.0312Z" fill="black"/>
<path d="M52.313 52.9004L52.2446 54.4072L47.728 54.2021L47.7964 52.6953L52.313 52.9004Z" fill="black"/>
<path d="M52.2632 48.8135L52.2056 50.3203L47.688 50.1494L47.7446 48.6416L52.2632 48.8135Z" fill="black"/>
<path fill-rule="evenodd" clip-rule="evenodd" d="M41.4927 33.7168C41.4927 34.8975 38.6756 36.6033 36.3823 37.8496L36.0542 38.0469L35.7271 37.8496C33.8923 36.8656 30.812 35.0289 30.812 33.6514V26.502H41.4927V33.7168ZM32.1226 33.7168C32.2536 34.176 34.0229 35.4885 36.0542 36.5381C38.151 35.4229 39.9855 34.176 40.1821 33.7168V31.1592H32.1226V33.7168ZM32.1226 29.8467H40.1821V27.8135H32.1226V29.8467Z" fill="black"/>
<path fill-rule="evenodd" clip-rule="evenodd" d="M59.7749 33.7168C59.7749 34.7008 58.0708 36.0785 54.729 37.8496L54.4673 38.0469L54.1392 37.8496C52.2389 36.8656 49.0942 35.0288 49.0942 33.6514V26.502H59.7749V33.7168ZM50.4048 32.7988V33.6514C50.6014 34.1105 52.3705 35.4229 54.4673 36.5381C56.4986 35.4229 58.2677 34.176 58.5298 33.7168V32.7988L54.4673 30.1748L50.4048 32.7988ZM50.4702 31.2246L54.4673 28.6006L58.5298 31.2246V27.8135H50.4702V31.2246Z" fill="black"/>
<path fill-rule="evenodd" clip-rule="evenodd" d="M66.2622 24.0088C66.2622 24.2056 66.1968 40.3428 66.1968 52.1504C66.1967 57.7917 62.5924 63.4329 55.7778 68.6807C50.7323 72.5509 45.6863 74.7811 45.4897 74.8467L45.228 74.9785L44.9663 74.8467C44.7697 74.7155 39.8554 72.5508 34.8755 68.6807C28.1919 63.4985 24.5222 57.7917 24.4565 52.1504C24.7186 40.146 24.522 24.2056 24.522 24.0088V23.3525H66.2622V24.0088ZM25.8325 40.999C25.8325 44.738 25.7672 48.6083 25.7017 52.1504C25.8328 58.6445 31.2059 64.1542 35.6616 67.6309C39.2655 70.4515 42.9346 72.4198 44.5728 73.207V61.876C44.3531 61.717 43.6521 61.277 43.1968 61.334C40.5102 61.7932 36.1199 61.6621 35.9233 61.6621H35.2681V57.4639H33.2368V55.3643H35.2681V51.4941H33.2368V49.3955H35.2681V45.459L35.9888 45.5244C36.0543 45.5244 39.4618 45.9185 42.5415 45.3281C43.2577 45.1489 44.0043 45.2155 44.5728 45.3379V40.999H25.8325ZM45.8833 45.3447C46.4938 45.2183 47.3169 45.1458 48.0454 45.3281C51.1242 45.8527 54.5306 45.5246 54.5981 45.5244L55.3188 45.459V49.3955H57.3501V51.4941H55.3188V55.3643H57.3501V57.4639H55.3188V61.6621H54.6636C54.4647 61.6622 49.9451 61.793 47.2593 61.334C46.7635 61.2237 46.175 61.623 45.8833 61.8311V73.207C49.8148 71.3047 64.8206 63.1707 64.8208 52.1504V40.999H45.8833V45.3447ZM44.5728 46.7129C44.1224 46.5959 43.4876 46.4923 42.9351 46.6396H42.8687C40.4443 47.0987 37.889 46.9679 36.644 46.9023V60.415C37.9546 60.415 41.1 60.4159 43.1313 60.0879C43.3278 60.0223 43.3278 60.0215 43.5239 60.0215C43.9159 59.9858 44.2689 60.0876 44.5728 60.2285V46.7129ZM47.7837 46.6396C47.1125 46.4605 46.319 46.6185 45.8833 46.7363V60.2686C46.3722 60.0737 46.9934 59.9365 47.5874 60.0215C49.5531 60.3494 52.6976 60.3496 54.0737 60.3496V46.9023C52.8287 47.0335 50.3389 47.0988 47.8491 46.6396H47.7837ZM25.7017 24.7305C25.7672 26.6329 25.8325 32.7988 25.8325 39.752H64.8208C64.8208 32.8644 64.8862 26.6985 64.8862 24.7305H25.7017Z" fill="black"/>
<path fill-rule="evenodd" clip-rule="evenodd" d="M45.2935 12.1357C63.3785 12.1357 78.1215 26.8951 78.1216 45C78.1216 63.105 63.3786 77.8643 45.2935 77.8643C27.2084 77.8642 12.4653 63.1049 12.4653 45C12.4654 26.8951 27.2084 12.1358 45.2935 12.1357ZM45.2935 13.4473C27.9292 13.4473 13.7759 27.6167 13.7759 45C13.7759 62.3833 27.9292 76.5527 45.2935 76.5527C62.6578 76.5527 76.811 62.3834 76.811 45C76.811 27.6167 62.6578 13.4473 45.2935 13.4473Z" fill="black"/>
<path d="M75.1733 73.8633L73.9937 74.9785L70.9146 71.8955L70.7173 72.9443L69.2759 72.748L69.604 70.124L70.5864 69.1396L75.1733 73.8633Z" fill="black"/>
<path d="M17.4448 66.3848L14.4966 68.7461C14.1035 69.1396 13.8414 69.4679 13.7759 69.7959C13.7759 69.9927 13.9065 70.1898 14.0376 70.4521C14.4963 70.9768 15.1518 70.9106 15.8726 70.3203L18.8208 67.959L19.6724 69.3369L16.397 71.9609C15.8728 72.3545 15.3479 72.6162 14.8237 72.6162C14.0375 72.6162 13.3822 72.2882 12.7925 71.4355C12.3339 70.7141 12.0718 70.1235 12.0718 69.5332C12.0719 68.8118 12.4655 68.222 13.1206 67.6973L16.397 65.1387L17.4448 66.3848Z" fill="black"/>
<path fill-rule="evenodd" clip-rule="evenodd" d="M73.1421 65.8604C73.9284 64.7452 74.9768 64.4165 75.8286 65.0068C76.2217 65.3348 76.5492 65.9254 76.5493 66.5156C77.27 66.3189 77.8601 66.3848 78.3843 66.7783C78.8429 67.1719 79.1703 67.5 79.2358 67.8936C79.3014 68.5495 79.1047 69.1401 78.646 69.7305C77.9908 70.452 77.4008 70.8457 76.7456 70.8457C76.3527 70.8457 76.0252 70.7798 75.6323 70.4521C75.1082 70.0586 74.9116 69.5337 74.9771 68.8779C74.4528 69.0091 73.8625 68.9432 73.4038 68.6152C72.4866 67.9593 72.4214 66.9098 73.1421 65.8604ZM77.4009 68.0908C77.1388 67.8285 76.7462 67.8938 76.2876 68.2217C76.2221 68.6807 76.3528 68.8773 76.6147 69.1396C76.9423 69.402 77.2697 69.3366 77.5317 69.0088C77.6626 68.8777 77.6636 68.6157 77.6636 68.4844C77.6636 68.3532 77.5319 68.1564 77.4009 68.0908ZM74.7144 66.3848C74.5833 66.3849 74.3873 66.5163 74.3218 66.6475C74.1907 66.9098 73.9942 67.2376 74.3218 67.5C74.3875 67.5654 74.5834 67.5654 74.6489 67.5654C74.8455 67.5654 75.0421 67.3685 75.3042 67.2373C75.4351 66.975 75.3044 66.7124 75.1079 66.5156C74.9769 66.45 74.7799 66.3848 74.7144 66.3848Z" fill="black"/>
<path fill-rule="evenodd" clip-rule="evenodd" d="M11.3511 58.6445C12.5305 58.6446 13.4479 59.3007 14.0376 60.4814C14.4306 61.3341 14.5614 62.1867 14.2993 62.9082C14.1027 63.7608 13.3825 64.3513 12.3999 64.876C11.7447 65.2039 11.1545 65.3349 10.6304 65.335C9.45091 65.335 8.53358 64.6132 7.94385 63.498C7.55081 62.6454 7.41909 61.7928 7.68115 61.0713C8.00876 60.2186 8.59879 59.5627 9.58154 59.1035C10.2368 58.7755 10.8269 58.6445 11.3511 58.6445ZM11.6128 60.415C11.2199 60.4151 10.8924 60.612 10.4995 60.7432C9.90993 61.0055 9.45101 61.4648 9.31982 61.9238C9.12325 62.2518 9.2542 62.5146 9.38525 62.9082C9.58184 63.3674 9.97523 63.6299 10.5649 63.6299C10.958 63.6299 11.3516 63.5641 11.7446 63.3018C12.3341 62.9738 12.7268 62.5801 12.8579 62.1211C13.0545 61.7931 12.9235 61.5303 12.7925 61.1367C12.5959 60.6777 12.2024 60.415 11.6128 60.415Z" fill="black"/>
<path fill-rule="evenodd" clip-rule="evenodd" d="M78.9087 59.8252L78.646 59.9561C78.4494 60.1528 78.1872 60.3497 78.0562 60.6777C77.7941 61.3337 78.122 61.8585 78.5151 62.1865C78.3841 61.8587 78.515 61.5964 78.646 61.2686C79.1702 60.1535 80.2187 59.8904 81.3325 60.415C82.7086 61.1366 83.1673 62.2523 82.6431 63.6299C82.1844 64.4169 81.5944 64.8105 80.7427 64.8105C80.2185 64.8105 79.5629 64.6796 78.8423 64.2861C78.056 63.9581 77.0079 63.1705 76.6147 62.1211C76.3527 61.4652 76.4181 60.8746 76.7456 60.2188C77.0077 59.7596 77.2705 59.4315 77.5981 59.1035L77.729 58.9727L78.9087 59.8252ZM80.2183 61.793C79.9564 61.793 79.7603 61.8589 79.6948 62.1211C79.6948 62.2522 79.6293 62.3835 79.6948 62.5146C79.7605 62.6459 79.9572 62.9079 80.2847 63.0391C80.4157 63.1046 80.677 63.1708 80.8081 63.1709C81.0046 63.1709 81.2669 63.1049 81.3325 62.8428C81.3325 62.7772 81.3979 62.6459 81.3325 62.4492C81.267 62.2524 81.1357 62.055 80.8081 61.9238C80.6116 61.8583 80.3492 61.793 80.2183 61.793Z" fill="black"/>
<path d="M80.8745 53.0684L80.2192 55.2988L80.9399 55.5615C80.9399 55.496 81.0053 55.3645 81.0054 55.2334C81.333 54.0526 82.4469 53.3965 83.6919 53.79C84.2816 53.9868 84.8057 54.3809 85.1333 54.7744C85.4608 55.3647 85.4608 56.0862 85.1987 56.8076C85.0677 57.2012 84.871 57.7264 84.6089 58.1855L84.5435 58.3164L83.0366 57.791L83.2983 57.5293C83.4949 57.2013 83.7571 56.9387 83.8882 56.4795C83.9537 56.2827 84.0846 55.4958 83.3638 55.2334C82.7089 55.1025 82.3161 55.8233 82.2505 56.1514C82.185 56.545 82.1196 56.8076 82.1196 57.2012V57.5293L78.5151 56.4141L79.6294 52.6748L80.8745 53.0684Z" fill="black"/>
<path d="M12.269 56.5449L10.8931 56.9385L10.3032 54.8398L9.31982 55.168L9.90967 57.0703L8.53369 57.4639L8.00928 55.4961L5.45361 56.2832L4.99561 54.708L11.2202 52.8721L12.269 56.5449Z" fill="black"/>
<path d="M86.5747 41.5234L84.3472 42.9668L86.7056 44.082L86.8374 45.918L82.7739 43.7539L80.2192 43.9502L80.1528 42.2451L82.7085 42.1797L86.4438 39.5557L86.5747 41.5234Z" fill="black"/>
<path d="M5.71631 40.2773L5.45361 40.5391C5.12605 40.9326 5.06106 41.2608 5.06104 41.6543C5.06104 42.7037 5.78123 43.4909 6.96045 43.5566C8.07435 43.6878 8.92612 42.9665 8.9917 41.917C8.9917 41.4579 8.92636 40.9987 8.86084 40.7363L8.72998 40.4082H10.3022V40.5391C10.3678 41.0638 10.3687 41.5888 10.3687 41.9824C10.2376 44.1471 9.12327 45.328 7.22314 45.3281C7.15775 45.3281 7.09225 45.3279 7.02686 45.2627C4.79898 45.1971 3.61944 43.7536 3.75049 41.5889C3.81601 41.1297 3.88098 40.6047 4.14307 40.1455L4.2085 40.0146L5.71631 40.2773Z" fill="black"/>
<path fill-rule="evenodd" clip-rule="evenodd" d="M8.07471 31.749C8.33681 31.749 8.79581 31.7497 9.18896 31.8809C10.1717 32.2089 10.8924 32.7336 11.3511 33.4551C11.7441 34.2421 11.8758 34.9636 11.6138 35.8818C11.1551 37.2594 10.1061 38.1123 8.66455 38.1123C8.33694 38.1123 7.94349 38.1126 7.48486 37.9814C5.51921 37.3254 4.60227 35.8818 5.12646 33.9795C5.58514 32.6021 6.63329 31.7491 8.07471 31.749ZM7.94385 33.4551C7.4197 33.4551 6.76459 33.586 6.50244 34.4385C6.17484 35.4224 7.092 36.0782 8.00928 36.4062C8.33677 36.4718 8.53345 36.538 8.86084 36.5381C9.38505 36.5381 10.0411 36.4065 10.3032 35.5537C10.4995 35.1604 10.3678 34.8981 10.2368 34.5703C9.97471 34.1111 9.45067 33.8483 8.79541 33.5859C8.46792 33.5204 8.20587 33.4551 7.94385 33.4551Z" fill="black"/>
<path d="M86.1812 37.6533L84.8052 37.9814L84.4126 36.2754L79.4321 37.5215L79.0396 35.9473L83.9536 34.7012L83.561 33.0615L84.937 32.668L86.1812 37.6533Z" fill="black"/>
<path d="M83.9517 30.0635L77.9448 32.5166L77.3257 30.998L83.3325 28.5449L83.9517 30.0635Z" fill="black"/>
<path fill-rule="evenodd" clip-rule="evenodd" d="M10.3687 24.5332C10.6961 24.5333 10.9582 24.6648 11.2856 24.7959C11.8753 25.1239 12.2026 25.7143 12.2026 26.3047H12.7271L15.6099 26.6328L14.7583 28.207L12.5962 27.8789C12.3341 27.8133 12.203 27.8135 11.9409 28.207L11.8755 28.3379L14.0376 29.5186L13.186 31.0938L7.48486 28.0098L8.271 26.5674C8.7952 25.5834 9.32024 24.5332 10.3687 24.5332ZM10.5649 26.3047C10.1063 26.0423 9.84365 26.5018 9.58154 26.9609L9.51611 27.0918L10.5649 27.6162L10.6304 27.4854C10.7614 27.223 10.892 26.8951 10.8921 26.6328C10.8266 26.4361 10.6959 26.3703 10.5649 26.3047Z" fill="black"/>
<path d="M78.187 23.0244C79.2354 22.3684 80.481 22.7626 81.1362 23.9434C81.3983 24.468 81.6606 24.9276 81.7261 25.3867V25.5176L80.3501 26.1074L80.2847 25.7803C80.2191 25.3867 80.1531 25.0584 79.8911 24.7305C79.8256 24.6649 79.6289 24.3369 79.3013 24.3369C79.2357 24.3369 79.105 24.3369 78.9741 24.4023C78.7775 24.5335 78.8432 24.9274 78.9087 25.4521C79.0397 26.2393 79.1699 27.3539 78.0562 28.0098C77.6631 28.2721 77.4013 28.3379 77.0083 28.3379C76.2221 28.3379 75.5667 27.8791 75.0425 26.9609C74.7804 26.4362 74.6491 26.1078 74.5181 25.583L74.4526 25.1895L75.9595 24.5332V24.9268C75.9595 25.4515 76.0255 25.7802 76.2876 26.1738C76.4843 26.5017 76.8771 26.895 77.2046 26.6328C77.4667 26.5016 77.401 26.1079 77.3354 25.5176C77.2044 24.796 77.0733 23.6804 78.187 23.0244Z" fill="black"/>
<path d="M19.9351 20.9258L18.8208 22.3691L14.6274 21.3848L17.5757 23.8115L16.5278 25.0586L11.5474 20.9258L12.7271 19.4824L16.9214 20.4668L13.9067 17.9736L14.9556 16.7275L19.9351 20.9258Z" fill="black"/>
<path fill-rule="evenodd" clip-rule="evenodd" d="M75.9595 17.1211C76.8113 18.1051 77.9255 19.4169 76.4839 20.5977C75.8942 21.0568 75.2386 21.1882 74.7144 20.9258C74.7143 21.1225 74.649 21.3845 74.5835 21.4502L73.3384 24.0088L72.1597 22.6309L73.2075 20.6631C73.404 20.3352 73.4042 20.2694 73.1421 19.9414L73.0767 19.8105L71.1763 21.4502L69.9966 20.2041L74.9116 15.9404L75.9595 17.1211ZM74.1909 18.8262L74.2563 18.958C74.3875 19.1548 74.6496 19.4824 74.9771 19.4824C75.0428 19.4824 75.2386 19.4823 75.3042 19.3516C75.5007 19.286 75.5669 19.1546 75.5669 19.0234C75.5669 18.7611 75.3699 18.4988 75.1079 18.1709L75.0425 18.0391L74.1909 18.8262Z" fill="black"/>
<path d="M21.6392 12.8574L19.8042 14.2998L20.394 15.0869L22.0972 13.7754L22.9497 14.8252L21.311 16.2021L22.1626 17.1211L23.9321 15.7432L24.8491 16.7275L21.7046 19.2861L17.6421 14.2344L20.7212 11.7422L21.6392 12.8574Z" fill="black"/>
<path d="M72.4868 13.5127L71.5034 14.6943L69.7349 13.251L69.145 14.0381L70.7827 15.3496L69.8657 16.4648L68.2271 15.1533L67.5063 16.2031L69.2759 17.6455L68.4243 18.7607L65.2788 16.2686L69.2759 11.0859L72.4868 13.5127Z" fill="black"/>
<path d="M27.4712 13.4473L29.5024 12.332L30.2231 13.5127L26.7495 15.4814L23.5396 9.83984L24.981 8.9873L27.4712 13.4473Z" fill="black"/>
<path d="M62.854 7.41211L62.1987 11.873L65.3442 8.65918L66.7856 9.38086L62.0024 14.2344L60.3647 13.4473L61.2817 6.55957L62.854 7.41211Z" fill="black"/>
<path d="M33.0405 10.8896L35.2026 10.168L35.6616 11.4141L31.9263 12.792L29.7642 6.69141L31.3364 6.16602L33.0405 10.8896Z" fill="black"/>
<path d="M58.6606 5.77246L56.6948 11.9385L55.1226 11.4141L57.0884 5.24805L58.6606 5.77246Z" fill="black"/>
<path d="M50.3394 3.87012L51.6499 7.9375L52.1743 4.13281L53.7466 4.3291L52.9604 10.8232L51.0601 10.4961L49.6841 6.49414L49.1597 10.2988L47.5874 10.1016L48.5044 3.67383L50.3394 3.87012Z" fill="black"/>
<path d="M45.0972 7.60938C45.1627 8.39652 45.0313 9.05255 44.6382 9.51172C44.245 9.97082 43.5896 10.2987 42.6724 10.3643H42.2798C40.7727 10.3643 39.9208 9.51164 39.6587 8.00293L39.3306 3.93555L40.9692 3.73926L41.2964 7.41211C41.4274 8.72406 41.9521 8.85547 42.3452 8.85547H42.4761C42.9347 8.78987 43.4586 8.52758 43.3931 7.28125L43.0659 3.60742L44.769 3.54199L45.0972 7.60938Z" fill="black"/>
<path fill-rule="evenodd" clip-rule="evenodd" d="M45.2935 0C70.1277 3.58962e-05 90.2437 20.2041 90.2437 45C90.2437 69.7959 70.0622 90 45.2935 90C20.5247 90 0.342285 69.7959 0.342285 45C0.342286 20.2041 20.4592 0 45.2935 0ZM45.2935 1.31152C21.18 1.31152 1.65283 20.9257 1.65283 45C1.65283 69.0743 21.2455 88.6885 45.2935 88.6885C69.3414 88.6884 88.9331 69.0743 88.9331 45C88.9331 20.9257 69.3414 1.31156 45.2935 1.31152Z" fill="black"/>
<path d="M353.527 41.8516C352.937 41.8516 352.675 41.9821 352.347 42.1133C352.085 42.2446 351.626 42.9668 351.037 44.1475C350.447 45.3283 349.333 47.6242 347.695 51.1006L344.091 59.4971C343.502 60.809 343.109 61.7934 342.65 62.3838C342.191 62.9741 341.797 63.3674 341.077 63.6953C340.487 63.9576 339.767 64.1542 339.177 64.1543C338.915 64.1543 338.587 64.1546 338.325 64.0234C338.259 64.2856 337.997 64.1546 337.669 64.0234L338.39 61.5957H338.849C338.98 61.7269 339.308 61.8589 339.308 62.0557C339.439 62.1865 339.57 62.1866 339.766 62.3174C339.897 62.3174 340.226 62.4492 340.488 62.4492C340.75 62.4492 341.077 62.4485 341.339 62.3174C341.601 62.1862 341.929 62.0547 342.191 61.5957C342.453 61.3332 342.78 60.7429 343.042 60.0215C343.632 58.841 344.025 57.8572 344.484 56.6768C344.222 55.824 343.764 54.6427 343.305 53.4619L340.88 47.3613C340.16 45.4591 339.57 44.147 339.177 43.1631C339.046 42.704 338.718 42.5726 338.587 42.4414C338.456 42.3102 337.866 42.1797 337.145 42.1797V41.3262C338.456 41.3262 339.766 41.458 340.88 41.458C341.994 41.458 343.305 41.4573 344.353 41.3262V41.917C343.37 41.917 342.649 42.0479 342.453 42.0479C342.191 42.179 341.995 42.3108 341.995 42.6387C341.995 42.7701 342.125 43.2288 342.256 43.6221C342.715 44.934 342.977 45.9182 343.436 46.9678L344.418 49.3955C345.008 50.8385 345.599 52.0194 345.861 52.8721L346.712 50.9697C346.974 50.2482 347.564 48.8048 348.416 46.7715C349.267 44.738 349.727 43.4259 349.858 43.0322V42.5732C349.858 42.442 349.726 42.3101 349.595 42.1133C349.464 41.9824 348.873 41.9827 347.695 41.8516V40.8672C348.874 40.8672 349.988 40.998 350.906 40.998C351.758 40.998 352.806 40.9983 353.658 40.8672L353.527 41.8516Z" fill="black"/>
<path fill-rule="evenodd" clip-rule="evenodd" d="M139.257 40.7363C141.42 40.7363 143.189 41.4577 144.63 42.7695C146.072 44.0815 146.662 45.9838 146.662 48.1484C146.662 49.5915 146.4 51.0348 145.679 52.3467C144.958 53.6586 143.975 54.5118 142.665 55.2334C141.354 55.9548 139.913 56.2168 138.471 56.2168C137.292 56.2168 136.309 56.0859 135.458 55.627C134.606 55.1678 134.015 54.7743 133.425 54.0527C132.836 53.4625 132.574 52.7407 132.247 52.1504C131.591 50.9696 131.46 49.7883 131.46 48.542C131.46 46.2461 132.181 44.3435 133.623 42.9004C135.064 41.4575 136.964 40.7364 139.257 40.7363ZM138.602 41.7197C137.292 41.7198 136.309 42.1793 135.588 43.1631C134.737 44.147 134.343 45.3278 134.343 47.3613C134.343 48.6732 134.475 49.985 134.933 51.2969C135.392 52.6088 135.916 53.5932 136.833 54.1836C137.685 54.7738 138.537 55.0361 139.455 55.0361C140.634 55.036 141.617 54.5766 142.468 53.5928C143.32 52.6088 143.648 51.1659 143.648 49.2637C143.648 47.6894 143.386 46.2462 142.927 45.0654C142.469 43.8847 141.748 43.0318 141.027 42.4414C140.306 41.9822 139.454 41.7197 138.602 41.7197Z" fill="black"/>
<path fill-rule="evenodd" clip-rule="evenodd" d="M184.732 40.4736C185.911 40.4736 186.895 40.7362 187.943 41.1953C188.795 41.7857 189.515 42.5076 189.974 43.3604C190.433 44.2131 190.695 45.2628 190.695 46.3779V47.3613C189.974 47.4925 189.253 47.624 188.664 47.624C187.484 47.7552 186.501 47.7549 185.322 47.7549H180.277C180.277 49.198 180.539 50.5105 180.998 51.3633C181.456 52.2159 182.177 52.9374 183.029 53.3965C183.881 53.8556 184.732 54.1182 185.781 54.1182C186.37 54.1181 187.091 53.9867 187.681 53.8555C188.271 53.7242 189.122 53.2651 189.974 52.6748L190.105 53.2656L189.647 54.4463C188.926 54.9055 188.336 55.1676 188.074 55.2988C187.615 55.5611 187.091 55.7585 186.371 55.8896C185.781 56.0208 185.06 56.1513 184.339 56.1514C183.029 56.1514 181.718 55.8892 180.604 55.2988C179.425 54.7085 178.573 53.8555 177.983 52.6748C177.393 51.4942 177.131 50.248 177.131 48.6084C177.131 47.4276 177.263 46.3119 177.59 45.3936C177.852 44.4097 178.31 43.6877 178.769 43.2285C179.031 42.9661 179.491 42.507 180.211 42.0479C180.801 41.589 181.521 41.3267 182.111 41.0645C182.963 40.8021 183.815 40.4737 184.732 40.4736ZM184.208 41.6543C183.029 41.6543 182.045 42.114 181.325 42.9668C180.604 43.754 180.277 45.0658 180.277 46.9023C180.539 46.9023 181.129 46.9021 181.849 47.0332C183.422 47.0332 184.47 47.165 185.06 47.165C186.502 47.165 187.353 47.1644 187.812 47.0332V46.4434C187.812 44.869 187.549 43.5565 186.829 42.835C186.108 42.1137 185.257 41.6544 184.208 41.6543Z" fill="black"/>
<path fill-rule="evenodd" clip-rule="evenodd" d="M287.084 40.4736C288.264 40.4737 289.246 40.7363 290.294 41.1953C291.146 41.7857 291.867 42.5076 292.326 43.3604C292.784 44.2131 293.047 45.2628 293.047 46.3779V47.3613C292.327 47.4925 291.605 47.624 291.015 47.624C289.836 47.7552 288.853 47.7549 287.673 47.7549H282.628C282.628 49.198 282.89 50.5105 283.349 51.3633C283.808 52.216 284.529 52.9373 285.38 53.3965C286.232 53.8557 287.084 54.1181 288.132 54.1182C288.722 54.1182 289.443 53.9867 290.033 53.8555C290.622 53.7243 291.474 53.2651 292.326 52.6748L292.458 53.2656L291.999 54.4463C291.278 54.9053 290.689 55.1676 290.426 55.2988C289.968 55.5612 289.443 55.7585 288.722 55.8896C288.132 56.0208 287.412 56.1514 286.691 56.1514C285.38 56.1514 284.07 55.8892 282.956 55.2988C281.842 54.7085 280.924 53.8555 280.334 52.6748C279.745 51.4943 279.483 50.248 279.483 48.6084C279.483 47.4276 279.614 46.3119 279.942 45.3936C280.204 44.4096 280.663 43.6877 281.122 43.2285C281.384 42.9661 281.843 42.5068 282.563 42.0479C283.153 41.5888 283.874 41.3268 284.463 41.0645C285.315 40.8021 286.167 40.4736 287.084 40.4736ZM286.429 41.6543C285.25 41.6543 284.266 42.114 283.545 42.9668C282.759 43.754 282.498 45.0658 282.498 46.9023C282.76 46.9023 283.349 46.9021 284.07 47.0332C285.642 47.0332 286.691 47.165 287.281 47.165C288.722 47.165 289.574 47.1644 290.033 47.0332V46.4434C290.033 44.869 289.77 43.5565 289.049 42.835C288.329 42.1137 287.477 41.6544 286.429 41.6543Z" fill="black"/>
<path d="M311.656 40.5391C312.376 40.5391 313.097 40.6706 313.949 40.8018C314.801 40.933 315.522 41.261 316.112 41.5234C316.112 42.7041 315.98 43.8193 315.98 45H315.128C315.128 44.2784 314.998 43.6878 314.998 43.5566C314.998 43.2946 314.867 43.098 314.736 42.9668C314.605 42.8356 314.473 42.5072 314.146 42.376C313.818 42.2448 313.556 41.9164 313.163 41.7852C312.704 41.654 312.18 41.5235 311.59 41.5234C310.739 41.5234 310.018 41.7857 309.428 42.376C308.839 42.9664 308.576 43.5568 308.576 44.2783C308.576 44.7375 308.707 45.0003 308.838 45.2627C308.97 45.525 309.297 45.8522 309.428 45.9834C309.69 46.1146 310.017 46.2466 310.607 46.4434L313.228 47.0332C314.538 47.2955 315.39 47.6234 315.98 47.8857C316.439 48.1481 316.832 48.477 317.16 49.0674C317.422 49.5266 317.619 50.2483 317.619 50.9697C317.619 52.4127 317.028 53.5933 315.915 54.5771C314.735 55.561 313.162 56.1514 311.262 56.1514C310.41 56.1513 309.231 56.0203 307.659 55.6924C306.807 55.5612 306.348 55.4297 306.348 55.4297V55.0361C306.479 54.5771 306.479 54.1836 306.479 53.7246C306.348 53.2655 306.348 52.2815 306.348 50.9697H307.2C307.2 51.5597 307.2 51.9532 307.331 52.4121C307.462 52.8713 307.462 53.1341 307.593 53.3965C307.724 53.6589 307.856 53.9867 308.183 54.249C308.445 54.5114 308.773 54.7087 309.035 54.8398C309.297 54.9709 309.624 54.9706 309.886 55.1016H311.328C312.31 55.1016 313.228 54.8393 313.949 54.249C314.67 53.6586 314.932 52.9371 314.932 51.9531C314.932 51.494 314.8 51.1004 314.669 50.7725C314.538 50.5101 314.08 50.1819 313.818 50.0508C313.359 49.9195 312.507 49.5914 311.197 49.3291C309.886 49.0667 309.034 48.7386 308.576 48.6074C307.986 48.3451 307.593 48.1481 307.134 47.8857C306.676 47.6233 306.545 47.1642 306.283 46.7051C306.152 46.246 306.021 45.7211 306.021 45.1309C306.021 44.2782 306.151 43.5565 306.61 42.835C307.068 42.1135 307.789 41.5235 308.641 41.1299C309.493 40.6707 310.542 40.5391 311.656 40.5391Z" fill="black"/>
<path d="M122.942 33.2578C123.925 33.2578 124.842 33.2585 125.563 33.3896C126.415 33.5208 127.267 33.6516 128.446 33.9795C129.625 34.2418 130.346 34.4391 130.608 34.5703C130.346 35.1605 130.15 35.7508 130.019 36.2754C129.888 37.1282 129.756 38.1778 129.756 39.293H128.774V37.3906C128.643 36.4067 128.053 35.6851 127.07 35.0947C126.087 34.6356 124.645 34.373 122.614 34.373C121.172 34.3731 119.862 34.5047 118.879 34.9639C117.897 35.2262 116.979 35.8163 116.127 36.6689C115.407 37.3905 114.686 38.3749 114.227 39.5557C113.768 40.7363 113.506 42.1792 113.506 44.0156C113.506 47.2299 114.489 49.6573 116.389 51.5596C118.289 53.4619 120.845 54.4463 124.056 54.4463C125.497 54.4463 126.808 54.3145 127.987 53.8555C128.839 53.5931 129.56 53.1343 130.412 52.5439L130.542 52.8721L129.953 54.3145C128.773 54.9048 127.529 55.299 126.349 55.627C125.17 55.9549 123.924 56.0859 122.614 56.0859C121.041 56.0859 119.6 55.9542 118.159 55.4951C116.717 55.0359 115.537 54.5116 114.554 53.79C113.572 53.0686 112.655 52.2159 112.13 51.3633C111.606 50.5105 110.95 49.4608 110.688 48.3457C110.426 47.1649 110.099 46.0493 110.099 44.7373C110.099 41.392 111.278 38.6373 113.572 36.4727C115.865 34.3079 119.076 33.2578 122.942 33.2578Z" fill="black"/>
<path d="M238.595 34.4385C237.285 34.4385 236.563 34.5703 236.301 34.5703C236.039 34.7014 235.842 34.7014 235.711 35.0293C235.581 35.1609 235.581 35.7515 235.45 36.4727V46.1152C235.45 48.7391 235.319 50.4446 234.86 51.4941C234.598 52.4781 233.877 53.3963 232.829 54.249C232.108 54.8394 231.256 55.2335 230.077 55.5615C228.897 55.8239 227.783 56.0205 226.341 56.0205C224.769 56.0205 223.327 55.8888 222.148 55.4297C220.968 54.9705 220.117 54.5767 219.527 53.9863C218.937 53.3961 218.544 52.6752 218.216 52.085C217.954 51.2322 217.757 49.7884 217.757 47.7549V36.7998C217.757 35.8163 217.627 35.2261 217.496 35.0947C217.365 34.9635 217.233 34.8325 216.906 34.6357C216.578 34.6357 215.857 34.6351 214.678 34.5039V33.4551C216.382 33.5862 218.02 33.5859 219.461 33.5859C220.903 33.5859 222.344 33.5862 223.786 33.4551V34.4385C222.606 34.4385 221.755 34.5703 221.624 34.5703C221.362 34.7014 221.165 34.7014 221.034 35.0293C220.903 35.1609 220.772 35.7514 220.772 36.4727V46.7051C220.772 48.8698 220.902 50.4448 221.23 51.0352C221.492 51.7565 221.951 52.3467 222.541 52.7402C222.999 53.0026 223.72 53.3304 224.441 53.5928C225.293 53.7239 226.145 53.8554 227.193 53.8555C228.372 53.8555 229.356 53.7245 230.208 53.3965C231.059 53.1341 231.78 52.8057 232.239 52.4121C232.697 51.9531 232.959 51.5597 233.221 50.9697C233.483 50.3793 233.68 49.7883 233.68 48.9355C233.811 48.0828 233.811 46.9017 233.811 45.5898V36.6035C233.811 35.6196 233.68 35.0287 233.68 34.8975C233.549 34.7664 233.418 34.6351 233.09 34.4385C232.828 34.3074 232.107 34.3076 230.928 34.3076V33.4551C232.632 33.5863 233.812 33.5859 234.664 33.5859C235.384 33.5859 236.695 33.5863 238.595 33.4551V34.4385Z" fill="black"/>
<path fill-rule="evenodd" clip-rule="evenodd" d="M279.417 41.917C278.828 41.917 278.435 42.0485 278.107 42.1797C277.976 42.311 277.648 42.639 277.517 42.9014C277.386 43.1644 276.795 44.2135 275.813 46.2461L274.372 49.4609C274.11 50.0511 273.193 52.2112 271.624 55.8115C271.544 55.7587 270.19 55.7578 270.178 55.7578C269.72 54.7743 269.458 54.0529 269.327 53.5938L268.016 50.5762L264.805 43.2285C264.674 42.7695 264.346 42.5071 264.215 42.376C264.084 42.2448 263.953 42.1133 263.756 42.1133C263.625 42.1133 263.167 42.1134 262.578 41.9824V41.1299C264.281 41.1299 265.591 41.2607 266.312 41.2607C267.164 41.2607 268.344 41.2611 269.917 41.1299V41.9824C268.737 41.9824 268.212 42.1139 267.884 42.2451C267.557 42.3762 267.623 42.5074 267.623 42.7041C267.623 42.9665 267.754 43.6879 268.212 44.7373L270.113 49.5264L270.572 50.5098C271.161 51.8217 271.423 52.5439 271.554 52.9375L273.126 49.4609C273.258 49.3297 273.717 48.149 274.569 45.9844C275.028 44.6724 275.42 43.8192 275.551 43.0977V42.6387C275.551 42.5076 275.551 42.3763 275.42 42.1797C275.158 42.0485 274.568 41.917 273.389 41.917V41.0645C274.961 41.0645 276.009 41.1953 276.403 41.1953C276.862 41.1953 277.714 41.1956 279.417 41.0645V41.917ZM271.624 55.8115C271.629 55.8154 271.628 55.8188 271.62 55.8232C271.621 55.8195 271.622 55.8153 271.624 55.8115Z" fill="black"/>
<path d="M152.167 40.6709C152.174 40.671 152.297 40.6743 152.297 40.8018V41.3262C152.297 41.9165 152.167 42.9009 152.167 44.2129C152.625 43.6226 153.018 43.229 153.477 42.6387C153.936 42.0483 154.198 41.7855 154.329 41.6543C154.591 41.3921 155.049 41.1956 155.311 41.0645C155.77 40.9333 156.163 40.8018 156.622 40.8018C157.08 40.8018 157.474 40.9333 157.932 41.0645L158.064 41.3262C157.933 42.7693 157.801 43.9506 157.801 44.9346H156.95C156.688 44.4756 156.36 44.0818 156.098 43.7539C155.836 43.4916 155.377 43.4912 154.918 43.4912C154.067 43.4912 153.477 43.754 152.887 44.4756C152.298 45.1971 152.035 46.0495 152.035 47.3613V48.9355C152.035 49.6571 152.035 50.8381 152.167 52.6748C152.167 53.2651 152.166 53.6586 152.297 53.8555C152.297 53.9866 152.428 54.1179 152.428 54.3145C152.428 54.4455 152.559 54.4463 152.69 54.4463C152.952 54.5775 153.87 54.5768 155.115 54.708V55.7578C153.215 55.7578 151.773 55.627 150.462 55.627H146.728V54.7744H148.627C148.758 54.7744 148.89 54.6426 149.086 54.6426C149.217 54.6426 149.217 54.5119 149.217 54.3809C149.348 54.1185 149.348 53.7903 149.348 53.2002C149.348 50.4451 149.48 49.0013 149.48 48.8701V44.3438C149.48 43.7535 149.479 43.3598 149.348 43.1631C149.348 43.0322 149.217 43.0323 149.086 42.9014C148.955 42.9013 148.234 42.7702 147.055 42.9014V41.9824C149.086 41.72 150.659 41.2609 151.708 40.8018C151.839 40.6706 151.97 40.6709 152.167 40.6709Z" fill="black"/>
<path d="M260.612 40.9326C260.481 43.0973 260.48 44.8692 260.48 45.9844V48.8701C260.48 51.6219 260.612 53.0651 260.612 53.1992C260.612 53.7896 260.612 54.0529 260.743 54.3809C260.743 54.5116 260.873 54.5118 260.874 54.6426C261.005 54.6426 261.005 54.7744 261.333 54.7744H263.036V55.7578C261.463 55.7578 260.153 55.627 259.301 55.627C258.45 55.627 257.139 55.6267 255.239 55.7578V54.9053H256.68C256.942 54.9053 257.138 54.9052 257.138 54.7744C257.269 54.7744 257.27 54.6429 257.401 54.5117C257.532 54.3804 257.532 53.9212 257.663 53.3311C257.663 53.1999 257.662 51.7564 257.793 48.8701V46.1152C257.793 44.5412 257.794 43.6885 257.663 43.3604C257.663 43.2292 257.532 43.0978 257.401 43.0977C257.204 42.9009 256.483 42.9004 255.304 42.9004V41.9824C257.335 41.72 259.039 41.2612 260.349 40.6709L260.612 40.9326Z" fill="black"/>
<path d="M299.206 40.6709C299.402 40.6709 299.337 40.6706 299.337 40.8018V41.3262C299.337 41.9165 299.206 42.9009 299.206 44.2129C299.664 43.6226 300.058 43.2289 300.516 42.6387C300.975 42.0483 301.238 41.7855 301.369 41.6543C301.631 41.3921 302.089 41.1956 302.351 41.0645C302.81 40.9333 303.203 40.8018 303.662 40.8018C304.12 40.8018 304.513 40.9333 304.972 41.0645L305.103 41.3262C304.972 42.7693 304.841 43.9506 304.841 44.9346H304.121C303.859 44.4756 303.531 44.0818 303.269 43.7539C303.007 43.4916 302.548 43.4912 302.089 43.4912C301.238 43.4912 300.648 43.754 300.058 44.4756C299.468 45.1971 299.206 46.0495 299.206 47.3613V48.9355C299.206 49.6571 299.206 50.8381 299.337 52.6748C299.337 53.2651 299.337 53.6587 299.468 53.8555C299.599 53.9866 299.599 54.1179 299.599 54.3145C299.599 54.4455 299.73 54.4463 299.861 54.4463C300.123 54.5775 301.041 54.5768 302.286 54.708V55.7578C300.385 55.7578 298.944 55.627 297.633 55.627H293.767V54.7744H295.667C295.864 54.7744 295.93 54.6426 296.126 54.6426C296.323 54.6425 296.257 54.5119 296.257 54.3809C296.388 54.1185 296.388 53.7903 296.388 53.2002C296.388 50.4451 296.519 49.0013 296.519 48.8701V44.3438C296.519 43.7535 296.519 43.3598 296.388 43.1631C296.388 43.0322 296.257 43.0322 296.126 42.9014C295.995 42.9014 295.275 42.7702 294.095 42.9014V41.9824C296.126 41.72 297.699 41.2609 298.748 40.8018C298.878 40.6708 299.009 40.6709 299.206 40.6709Z" fill="black"/>
<path d="M324.041 40.9326C323.909 43.0973 323.91 44.8692 323.91 45.9844V48.8701C323.91 51.6219 324.04 53.065 324.041 53.1992C324.041 53.7896 324.04 54.0529 324.171 54.3809C324.172 54.5116 324.302 54.5118 324.302 54.6426C324.433 54.6426 324.434 54.7744 324.761 54.7744H326.465V55.7578C324.893 55.7578 323.582 55.627 322.73 55.627C321.878 55.627 320.568 55.6266 318.667 55.7578V54.9053H320.109C320.371 54.9053 320.568 54.9052 320.568 54.7744C320.699 54.7742 320.699 54.6428 320.83 54.5117C320.961 54.3805 320.96 53.9213 321.091 53.3311C321.091 53.1999 321.092 51.7564 321.223 48.8701V46.1152C321.223 44.5411 321.222 43.6884 321.091 43.3604C321.091 43.2292 320.961 43.0977 320.83 43.0977C320.633 42.9009 320.043 42.9004 318.733 42.9004V41.9824C320.764 41.7201 322.467 41.2612 323.778 40.6709L324.041 40.9326Z" fill="black"/>
<path d="M332.624 36.0127C332.492 36.8654 332.362 38.7682 332.166 41.6543H336.359L336.49 41.7861L336.228 43.2285H332.231L332.1 49.5918V52.3467C332.1 52.6746 332.231 52.9371 332.362 53.0684C332.493 53.3307 332.624 53.528 332.952 53.6592C333.214 53.7903 333.542 53.9209 334.131 53.9209H335.114C335.376 53.9209 335.704 53.7904 336.097 53.6592L336.228 54.249C335.769 54.7081 335.245 54.9707 334.787 55.4297C334.328 55.5609 334.066 55.6924 333.607 55.6924H332.427C331.838 55.6924 331.444 55.6927 331.117 55.5615C330.855 55.4303 330.527 55.2987 330.265 54.9707C330.003 54.6428 329.806 54.5116 329.544 54.1182C329.282 53.659 329.282 53.2654 329.282 52.5439V43.2949H328.692C328.56 43.2952 327.97 43.4258 327.25 43.4258V42.7041C328.233 42.2449 329.151 41.9821 329.675 41.7197C329.675 39.293 329.675 37.6532 329.544 36.9316C330.527 36.4725 331.445 36.2101 332.166 35.751L332.624 36.0127Z" fill="black"/>
<path d="M164.289 40.4736C164.42 40.4736 164.419 40.4743 164.419 40.6055V41.1299C164.419 41.5891 164.42 42.3107 164.289 43.4258L167.171 40.999C168.023 40.7366 168.744 40.5391 169.596 40.5391C170.448 40.5391 171.168 40.6709 172.02 41.1299C172.741 41.3922 173.331 41.8511 173.724 42.4414C174.183 43.0318 174.314 43.6228 174.445 44.4756C174.445 44.935 174.576 46.1813 174.576 48.4111V51.166C174.576 52.4777 174.577 53.4616 174.708 53.9209C174.708 54.1833 174.838 54.5117 174.969 54.5117C175.1 54.6429 175.232 54.6432 175.428 54.7744H177V55.627C176.018 55.627 175.1 55.4961 174.379 55.4961C173.79 55.4961 172.807 55.4958 171.497 55.627C171.628 53.003 171.758 51.4286 171.758 50.707V48.083C171.758 46.5091 171.758 45.3285 171.627 44.8691C171.496 44.1476 171.037 43.5567 170.448 43.1631C169.858 42.7041 169.006 42.5733 168.155 42.5732C167.434 42.5732 166.712 42.7039 165.992 43.1631C165.271 43.6222 164.812 43.8853 164.55 44.4756C164.288 44.9348 164.092 45.7875 164.092 46.9023V48.8047C164.092 51.5573 164.223 53.0003 164.223 53.1338C164.223 53.7239 164.354 53.9867 164.354 54.3145C164.354 54.4456 164.485 54.4461 164.485 54.5771C164.616 54.5771 164.616 54.709 164.944 54.709H166.647V55.5615C165.337 55.5615 164.223 55.4297 163.174 55.4297C162.388 55.6265 160.947 55.627 159.046 55.627V54.7744H160.488C160.75 54.7744 160.947 54.7738 160.947 54.6426C161.078 54.6425 161.078 54.5119 161.208 54.3809C161.34 54.2497 161.34 53.7904 161.471 53.2002C161.471 53.069 161.471 51.6255 161.602 48.7393V44.082C161.602 43.4921 161.471 43.0983 161.471 42.9014C161.471 42.7702 161.34 42.7699 161.208 42.6387C161.077 42.6385 160.356 42.5076 159.177 42.6387V41.7861C161.208 41.5238 162.781 41.0646 163.83 40.6055C163.961 40.4743 164.092 40.4736 164.289 40.4736Z" fill="black"/>
<path d="M196.003 33.127C196.003 35.029 195.872 36.6032 195.872 37.915V48.542C195.872 51.2971 196.003 52.7409 196.003 52.8721C196.003 53.4622 196.003 53.7248 196.134 54.0527C196.134 54.1835 196.265 54.1838 196.265 54.3145C196.396 54.3145 196.397 54.4463 196.724 54.4463H198.427V55.2988C196.986 55.1677 195.807 55.168 194.693 55.168C193.71 55.4959 192.399 55.6269 190.827 55.627V54.7744H192.268C192.53 54.7744 192.727 54.7738 192.858 54.6426C192.989 54.6425 192.989 54.5119 193.12 54.3809C193.251 54.2497 193.25 53.7903 193.25 53.2002C193.25 53.069 193.251 51.6255 193.382 48.7393V42.2451C193.382 40.5397 193.382 38.7684 193.25 36.8662C193.25 35.5543 193.12 34.9632 193.12 34.832C193.119 34.7013 192.989 34.7011 192.858 34.5703C192.727 34.5703 192.006 34.4385 190.696 34.4385V33.4551C192.989 33.1927 194.627 32.7336 195.61 32.2744C195.74 32.2744 195.869 32.145 195.872 32.1426H196.003V33.127Z" fill="black"/>
<path d="M205.242 33.127C205.242 35.029 205.111 36.6032 205.111 37.915V48.542C205.111 51.2971 205.242 52.7409 205.242 52.8721C205.242 53.4622 205.242 53.7248 205.373 54.0527C205.373 54.1835 205.503 54.1838 205.503 54.3145C205.634 54.3145 205.635 54.4462 205.962 54.4463H207.667V55.2988C206.225 55.1676 205.045 55.168 203.931 55.168C202.948 55.4959 201.703 55.627 200.065 55.627V54.7744H201.506C201.768 54.7744 201.965 54.7737 202.096 54.6426C202.227 54.6426 202.228 54.512 202.359 54.3809C202.49 54.2497 202.49 53.7903 202.49 53.2002C202.49 53.069 202.49 51.6254 202.621 48.7393V42.2451C202.621 40.5397 202.621 38.7684 202.49 36.8662C202.49 35.5543 202.359 34.9632 202.359 34.832C202.359 34.7012 202.227 34.7014 202.096 34.5703C201.964 34.5701 201.243 34.4385 199.934 34.4385V33.4551C202.227 33.1927 203.866 32.7336 204.849 32.2744C204.98 32.2741 205.111 32.1426 205.111 32.1426H205.242V33.127Z" fill="black"/>
<path d="M241.74 40.4736C241.871 40.4736 241.871 40.4743 241.871 40.6055V41.1299C241.871 41.5891 241.871 42.3107 241.74 43.4258L244.623 40.999C245.474 40.7366 246.196 40.5391 247.047 40.5391C247.899 40.5391 248.62 40.6707 249.472 41.1299C250.193 41.3922 250.782 41.8513 251.175 42.4414C251.634 43.0318 251.765 43.6228 251.896 44.4756C251.896 44.935 252.028 46.1813 252.028 48.4111V51.166C252.028 52.4777 252.028 53.4616 252.159 53.9209C252.159 54.1832 252.289 54.5115 252.42 54.5117C252.551 54.6429 252.683 54.6432 252.879 54.7744H254.452V55.627C253.469 55.6269 252.551 55.4961 251.831 55.4961C251.241 55.4961 250.258 55.4958 248.948 55.627C249.079 53.003 249.209 51.4286 249.209 50.707V48.083C249.209 46.509 249.21 45.3285 249.079 44.8691C248.948 44.1476 248.489 43.5567 247.899 43.1631C247.309 42.7041 246.458 42.5732 245.606 42.5732C244.885 42.5732 244.165 42.7041 243.444 43.1631C242.854 43.6223 242.265 43.8852 242.002 44.4756C241.74 44.9348 241.543 45.7872 241.543 46.9023V48.8047C241.543 51.5573 241.674 53.0003 241.674 53.1338C241.674 53.7239 241.805 53.9867 241.805 54.3145C241.805 54.4456 241.936 54.4461 241.936 54.5771C242.067 54.5771 242.067 54.709 242.395 54.709H244.099V55.5615C242.789 55.5615 241.674 55.4297 240.625 55.4297C239.839 55.6264 238.398 55.627 236.498 55.627V54.7744H237.939C238.201 54.7744 238.398 54.7738 238.398 54.6426C238.529 54.6426 238.529 54.5119 238.66 54.3809C238.791 54.2497 238.791 53.7904 238.922 53.2002C238.922 53.069 238.922 51.6255 239.053 48.7393V44.082C239.053 43.4921 238.923 43.0983 238.922 42.9014C238.922 42.7702 238.791 42.7699 238.66 42.6387C238.527 42.6384 237.806 42.5076 236.628 42.6387V41.7861C238.659 41.5238 240.232 41.0646 241.281 40.6055C241.412 40.4743 241.543 40.4736 241.74 40.4736Z" fill="black"/>
<path d="M259.039 33.7832C259.497 33.7832 259.891 33.914 260.349 34.373C260.611 34.6354 260.808 35.0952 260.808 35.6855C260.808 36.1445 260.677 36.5383 260.218 36.8662C259.76 37.1286 259.497 37.4561 259.039 37.4561C258.58 37.456 258.187 37.3253 257.728 36.8662C257.27 36.4072 257.138 36.1445 257.138 35.6855C257.138 35.2264 257.269 34.8322 257.728 34.373C258.187 33.9139 258.449 33.7832 259.039 33.7832Z" fill="black"/>
<path d="M322.534 33.7832C322.992 33.7833 323.386 33.914 323.844 34.373C324.106 34.6355 324.302 35.0953 324.302 35.6855C324.302 36.1445 324.171 36.5383 323.712 36.8662C323.254 37.194 322.992 37.4559 322.534 37.4561C322.075 37.4561 321.682 37.3251 321.223 36.8662C320.765 36.4072 320.633 36.1445 320.633 35.6855C320.633 35.2264 320.764 34.8322 321.223 34.373C321.682 33.9141 322.075 33.7832 322.534 33.7832Z" fill="black"/>
</svg>
