<svg width="284" height="45" viewBox="0 0 284 45" fill="none" xmlns="http://www.w3.org/2000/svg">
<path d="M36.6211 8.89699V9.8941L35.3453 10.6117L20.8411 2.43335L3.1877 12.3671L20.8411 22.2612L40.6057 11.13L41.6415 11.7287V19.7475L20.8411 31.4762L2.23117 21.0241V25.3329L20.8411 35.785L40.685 24.6142L41.6415 25.1326V33.2713L20.8411 45L0 33.2713V31.8746L0.956529 31.3563L20.8411 42.5666L39.4103 32.0738V27.7662L20.8411 38.2183L0 26.4896V18.3509L0.956529 17.8325L20.8411 29.0429L39.4103 18.5501V14.2424L20.8411 24.7342L0 13.0054V11.7287L20.8411 0L36.6211 8.89699Z" fill="black"/>
<path d="M229.965 12.7666C232.436 12.7666 236.142 13.2049 240.246 16.7154L236.739 20.027C234.707 18.5511 232.675 17.8326 230.484 17.8325C225.862 17.8325 222.394 21.3032 222.394 25.8908C222.394 30.4786 225.861 33.9492 230.484 33.9492C232.516 33.9491 234.588 33.2317 236.82 31.7558L239.968 35.0663C235.425 38.4172 233.034 39.0162 229.926 39.0162C226.18 39.0162 222.833 37.6995 220.442 35.3062C218.091 32.9126 216.775 29.6009 216.775 25.8908C216.776 18.2713 222.315 12.7666 229.965 12.7666Z" fill="black"/>
<path fill-rule="evenodd" clip-rule="evenodd" d="M80.573 38.3372H75.0749V35.665C75.0749 35.4655 74.9549 35.3056 74.7557 35.2259C74.5963 35.186 74.3568 35.2259 74.2372 35.3854C72.3245 37.6592 69.4159 38.9755 66.268 38.9755C62.9606 38.9755 59.8921 37.6593 57.6207 35.2259C55.3494 32.7924 54.1138 29.4812 54.1138 25.8908C54.1138 18.5506 59.4539 12.8062 66.268 12.8062C69.4557 12.8062 72.3643 14.0427 74.2372 16.2367C74.3568 16.3563 74.5564 16.4364 74.7557 16.3566C74.9549 16.2768 75.0749 16.117 75.0749 15.9175V2.5137H80.573V38.3372ZM67.4634 17.7929C63.0801 17.7929 59.6527 21.3431 59.6526 25.8908C59.6526 30.4387 63.0801 33.9888 67.4634 33.9888C71.8467 33.9888 75.2741 30.4387 75.2741 25.8908C75.2741 21.3431 71.8467 17.7929 67.4634 17.7929Z" fill="black"/>
<path fill-rule="evenodd" clip-rule="evenodd" d="M142.458 12.7666C145.725 12.7666 148.595 14.0029 150.428 16.1971C150.548 16.3564 150.747 16.4362 150.946 16.3566C151.145 16.2768 151.265 16.117 151.265 15.9175V13.4049H156.724V38.3372H151.265V35.6254C151.265 35.4259 151.145 35.266 150.946 35.1862C150.786 35.1464 150.548 35.1864 150.428 35.3458C148.516 37.6596 145.606 38.9755 142.458 38.9755C135.644 38.9753 130.305 33.271 130.305 25.8908C130.305 18.5108 135.604 12.7667 142.458 12.7666ZM143.694 17.7929C139.311 17.7929 135.883 21.3431 135.883 25.8908C135.883 30.4387 139.311 33.9888 143.694 33.9888C148.077 33.9885 151.504 30.4385 151.504 25.8908C151.504 21.3433 148.077 17.7932 143.694 17.7929Z" fill="black"/>
<path d="M274.755 12.7259C278.66 12.7259 282.047 14.8007 283.681 18.1517L279.258 20.5454C278.222 18.471 276.588 17.2745 274.755 17.2745C272.842 17.2745 271.487 18.311 271.487 19.8267C271.487 21.1432 272.444 22.1014 274.477 22.7795L277.465 23.7767C281.848 25.2128 284 27.5668 284 30.9975C284 36.2233 279.417 38.9754 274.915 38.9755C270.491 38.9755 266.866 36.622 265.391 32.8321L269.893 30.4384C270.849 32.7921 272.843 34.2287 275.074 34.2287C276.748 34.2286 278.7 33.4704 278.7 31.3563C278.7 29.96 277.783 29.0827 275.631 28.4045L272.563 27.4063C268.3 26.05 266.228 23.7365 266.228 20.2658C266.228 15.9176 269.814 12.7259 274.755 12.7259Z" fill="black"/>
<path fill-rule="evenodd" clip-rule="evenodd" d="M95.7157 12.7666C98.9832 12.7666 101.853 14.0029 103.686 16.1971C103.806 16.3564 104.004 16.4362 104.203 16.3566C104.403 16.2768 104.523 16.117 104.523 15.9175V13.4049H109.982V38.2975H104.523V35.5846C104.522 35.3853 104.402 35.2264 104.203 35.1466C104.044 35.1068 103.806 35.1467 103.686 35.3062C101.773 37.6199 98.8636 38.9359 95.7157 38.9359C88.9018 38.9357 83.5626 33.1914 83.5626 25.8512C83.5626 18.511 88.9017 12.7667 95.7157 12.7666ZM96.9518 17.7929C92.5685 17.7929 89.1411 21.3431 89.141 25.8908C89.141 30.4387 92.5684 33.9888 96.9518 33.9888C101.335 33.9885 104.761 30.4385 104.761 25.8908C104.761 21.3433 101.335 17.7932 96.9518 17.7929Z" fill="black"/>
<path fill-rule="evenodd" clip-rule="evenodd" d="M166.407 16.0771C166.407 16.2765 166.526 16.4364 166.726 16.5162C166.925 16.5561 167.124 16.5162 167.244 16.3566C169.157 14.0828 172.065 12.7667 175.213 12.7666C178.521 12.7666 181.589 14.0827 183.861 16.5162C186.132 18.9497 187.367 22.2609 187.367 25.8512C187.367 33.1915 182.027 38.9359 175.213 38.9359C172.026 38.9358 169.117 37.6993 167.244 35.5054C167.164 35.4256 167.005 35.3458 166.885 35.3458C166.845 35.3459 166.765 35.3854 166.726 35.3854C166.526 35.4653 166.407 35.6252 166.407 35.8246V38.3372H160.908V2.5137H166.407V16.0771ZM173.978 17.7929C169.595 17.7929 166.168 21.3431 166.167 25.8908C166.167 30.3988 169.595 33.9888 173.978 33.9888C178.362 33.9888 181.789 30.4387 181.789 25.8908C181.789 21.3431 178.362 17.7929 173.978 17.7929Z" fill="black"/>
<path d="M122.773 5.70534V12.8854C122.773 13.1647 122.972 13.3642 123.251 13.3642H128.631V17.8721H123.251C122.973 17.8721 122.773 18.0717 122.773 18.3509V28.6037C122.773 33.4304 124.486 33.8292 126.718 33.8292C127.475 33.8292 128.75 33.7494 129.467 33.6697V38.4571C128.59 38.5768 127.036 38.7367 125.283 38.7367C123.092 38.7367 117.275 38.7363 117.274 30.0004V18.3905C117.274 18.1115 117.074 17.9128 116.796 17.9128H112.971V13.4049H116.796C117.074 13.4049 117.274 13.2051 117.274 12.9262V5.70534H122.773Z" fill="black"/>
<path d="M203.666 12.8854C204.024 12.8855 204.382 12.9259 204.582 12.9658V18.6304C204.263 18.5506 203.784 18.5104 203.266 18.5104C198.724 18.5107 195.934 21.9017 195.934 27.3667V38.3779H190.435V13.4049H195.895V16.4766C195.895 16.6759 196.054 16.8748 196.254 16.9146C196.453 16.9944 196.652 16.9149 196.772 16.7154C198.167 14.3619 200.797 12.8854 203.666 12.8854Z" fill="black"/>
<path d="M213.627 38.3779H208.049V13.4049H213.627V38.3779Z" fill="black"/>
<path d="M248.495 22.1808C248.495 22.3803 248.614 22.5402 248.774 22.62C248.973 22.6599 249.172 22.6197 249.292 22.5L258.338 13.4049H265.072L254.592 23.8966C254.393 24.0562 254.393 24.3355 254.552 24.5349L265.948 38.3372H259.174L250.367 27.4063C250.248 27.3268 250.129 27.2481 250.01 27.2478H249.969C249.85 27.2479 249.73 27.2872 249.651 27.3667L248.614 28.2846C248.495 28.3644 248.455 28.5238 248.455 28.6434V38.3779H242.956V2.55332H248.495V22.1808Z" fill="black"/>
<path d="M210.758 2.55332C212.631 2.55332 214.146 4.06928 214.146 5.94416C214.146 7.81914 212.631 9.33501 210.758 9.33501C208.885 9.33473 207.371 7.81896 207.371 5.94416C207.371 4.06946 208.885 2.5536 210.758 2.55332Z" fill="black"/>
</svg>
