<svg xmlns="http://www.w3.org/2000/svg" width="114.17853" height="60.84293" viewBox="0 0 30.209735 16.098025">
    <defs>
        <clipPath id="a" clipPathUnits="userSpaceOnUse">
            <path d="M0 0h595.276v841.89H0Z"/>
        </clipPath>
    </defs>
    <g clip-path="url(#a)" transform="matrix(.35278 0 0 -.35278 -45.867707 160.88596)">
        <path d="M0 0c.104.481.217.961.312 1.444.485 2.479.965 4.96 1.448 7.44.011.058.034.114.055.183.076.004.152.011.228.011 1.128 0 2.257.005 3.385-.003.721-.005 1.432-.093 2.11-.357.158-.061.309-.14.506-.23-.588-.566-1.15-1.107-1.712-1.649.009-.017.018-.035.027-.053.832.301 1.663.601 2.506.906.282-.408.419-.857.457-1.326.098-1.222-.063-2.407-.604-3.519C7.899 1.161 6.511.234 4.686.024c-1.057-.121-2.133-.073-3.2-.091C.991-.075.495-.057 0-.051Zm3.229 2.126c1.015-.15 1.841.119 2.423.815.693.828.899 1.805.769 2.856-.081.663-.55 1.086-1.222 1.137-.272.02-.547.003-.819.017-.159.008-.22-.047-.25-.207-.159-.856-.331-1.709-.499-2.563-.134-.684-.268-1.369-.402-2.055"
              style="fill:#000;fill-opacity:1;fill-rule:nonzero;stroke:none" transform="translate(130.3937 413.6714)"/>
        <path d="M0 0c-.171.046-.341.096-.514.135-.163.038-.223.113-.181.291.121.515.236 1.032.332 1.552.034.181.114.218.275.212.239-.01.479.002.718-.003.408-.009.672.222.877.533.041.063.025.18.005.264C.989 5.123.831 7.3.829 9.494c0 .041.007.082.013.145h2.61c.031-1.374.062-2.741.094-4.108.032-.004.063-.007.095-.011.037.072.082.14.109.215.45 1.226.902 2.451 1.34 3.681.064.182.138.253.336.249.701-.012 1.403-.004 2.104-.005.082 0 .164-.008.26-.013-.01-.059-.01-.093-.022-.123-.83-2.125-1.692-4.236-2.887-6.191-.501-.818-1.057-1.597-1.784-2.237C2.448.522 1.711.133.834.046.795.042.757.016.718 0Z"
              style="fill:#000;fill-opacity:1;fill-rule:nonzero;stroke:none" transform="translate(175.5043 410.7975)"/>
        <path d="M0 0c-.052-.284-.097-.57-.158-.852-.45-2.078-1.945-3.306-4.07-3.351-.592-.012-1.178.02-1.746.208-.932.31-1.495 1.029-1.565 2.011-.093 1.302.147 2.522.948 3.583.764 1.013 1.838 1.433 3.067 1.517.607.041 1.213.009 1.801-.169C-.75 2.651-.188 2.003-.052.99-.044.933-.018.877 0 .821Zm-2.74.061c0 .102.007.205-.001.306-.038.495-.245.68-.741.669-.386-.008-.666-.207-.863-.516-.408-.644-.532-1.36-.479-2.108.023-.325.227-.492.555-.531.506-.061.854.169 1.098.588.285.491.388 1.033.431 1.592"
              style="fill:#000;fill-opacity:1;fill-rule:nonzero;stroke:none" transform="translate(215.2776 417.5717)"/>
        <path d="M0 0c5.219-.018 9.665-3.714 10.627-8.851 1.096-5.85-2.836-11.506-8.697-12.59-2.123-.393-4.222-.918-6.331-1.387-3.026-.673-6.051-1.35-9.076-2.025-.075-.017-.152-.04-.227-.035-.197.012-.261.192-.143.402.423.752.853 1.5 1.268 2.257.061.111.107.289.06.388-.083.176-.266.093-.411.047-3.428-1.082-6.856-2.166-10.284-3.249-.04-.013-.083-.038-.122-.034-.107.012-.212.036-.318.055.036.094.049.211.113.281 1.222 1.328 2.45 2.65 3.677 3.973 1.187 1.279 2.374 2.557 3.561 3.835.035.038.072.074.103.115.16.208.092.384-.17.412-.255.028-.512.036-.768.051-.674.04-1.348.072-2.022.123-.132.01-.259.086-.389.131.056.124.084.274.172.368 1.764 1.899 3.534 3.791 5.303 5.684 2.044 2.187 4.083 4.378 6.131 6.56C-6.097-1.523-3.831-.384-1.15-.081-.769-.038-.384-.026 0 0m-4.871-7.136c-.254-.002-.323-.151-.214-.402.452-1.033.897-2.069 1.364-3.094.108-.237.087-.354-.129-.515-3.908-2.91-7.808-5.829-11.707-8.75-.091-.069-.15-.182-.224-.274.122.015.257.002.366.049 4.538 1.94 9.074 3.884 13.608 5.835.182.078.277.059.403-.092.743-.894 1.496-1.781 2.253-2.663.068-.079.209-.168.288-.147.079.021.155.166.179.27.259 1.14.512 2.282.754 3.426.035.167.112.25.259.308.508.202 1.013.41 1.52.616.577.235 1.156.465 1.729.711.097.042.222.149.228.234.006.082-.122.176-.198.26-.027.03-.072.044-.109.066-.959.559-1.917 1.122-2.879 1.676-.153.089-.237.182-.249.372-.073 1.142-.157 2.285-.25 3.426-.011.127-.106.248-.162.372-.117-.054-.255-.083-.348-.165-.855-.75-1.703-1.507-2.548-2.268-.133-.119-.251-.16-.435-.113-.901.234-1.806.451-2.709.673-.274.067-.548.131-.79.189"
              style="fill:#000;fill-opacity:1;fill-rule:nonzero;stroke:none" transform="translate(178.6111 455.6797)"/>
        <path d="M0 0h2.772c-.048-.271-.088-.526-.138-.779-.522-2.682-1.049-5.364-1.564-8.047-.045-.233-.119-.326-.375-.319-.726.02-1.453.007-2.18.007h-.311c.225 1.167.443 2.301.667 3.469h-.615c-.522-.001-1.044-.011-1.565.005-.202.006-.263-.075-.296-.253-.184-.982-.381-1.961-.56-2.944-.038-.204-.107-.286-.327-.282-.752.013-1.505.005-2.258.006-.075 0-.151.008-.263.015.086.457.166.897.252 1.337.49 2.515.984 5.028 1.469 7.544.035.18.087.259.29.256C-4.224.002-3.446.01-2.668.009c.067 0 .135-.008.225-.014-.212-1.084-.42-2.153-.633-3.246.106-.008.18-.017.254-.017.642-.002 1.283.004 1.924-.005.177-.002.254.048.289.232.176.949.368 1.894.556 2.841.013.065.034.129.053.2"
              style="fill:#000;fill-opacity:1;fill-rule:nonzero;stroke:none" transform="translate(192.6537 422.7401)"/>
        <path d="M0 0c0-.596.006-1.185-.009-1.772-.002-.062-.124-.159-.201-.172-.706-.119-1.412-.27-2.124-.317-.582-.038-1.181.007-1.76.098-1.095.171-1.671.779-1.772 1.88-.112 1.228.104 2.405.743 3.477.705 1.184 1.784 1.755 3.133 1.845.609.041 1.214.006 1.8-.188.672-.222 1.164-.631 1.3-1.35.143-.757-.046-1.427-.644-1.948C-.087 1.072-.756.838-1.459.709-1.987.611-2.525.562-3.06.511c-.172-.016-.217-.084-.219-.237-.005-.313.143-.499.478-.564.617-.118 1.227-.026 1.834.077.318.054.631.138.967.213m-2.924 2.132c.429.001.849.031 1.236.235.29.154.405.396.314.622-.087.214-.364.321-.659.256-.464-.102-.862-.59-.891-1.113"
              style="fill:#000;fill-opacity:1;fill-rule:nonzero;stroke:none" transform="translate(145.8303 415.6488)"/>
        <path d="M0 0c0-.574-.006-1.147.004-1.719.003-.174-.111-.202-.224-.22-.707-.113-1.413-.261-2.124-.311-.558-.038-1.13.005-1.684.09-1.156.177-1.723.745-1.833 1.903-.127 1.346.139 2.625.931 3.751.709 1.007 1.723 1.474 2.928 1.557.608.042 1.213.008 1.8-.183.681-.221 1.177-.633 1.317-1.364.149-.783-.069-1.459-.691-1.976C-.202 1.008-.958.794-1.74.665-2.177.593-2.621.556-3.064.522-3.222.51-3.269.445-3.278.305c-.021-.312.14-.554.486-.574.5-.03 1.006-.023 1.505.024C-.866-.206-.451-.089 0 0m-2.934 2.096c.388.074.746.127 1.095.215.132.034.262.131.36.231.258.265.136.647-.229.719-.112.022-.239.011-.352-.016-.449-.107-.806-.551-.874-1.149"
              style="fill:#000;fill-opacity:1;fill-rule:nonzero;stroke:none" transform="translate(168.6214 415.6362)"/>
        <path d="M0 0c-.103-.484.032-.705.492-.775.837-.127 1.649.043 2.458.234.082.02.163.042.271.07 0-.609.007-1.198-.009-1.786-.002-.061-.128-.157-.208-.17-.689-.117-1.377-.262-2.072-.311-.558-.039-1.132-.008-1.685.08-1.257.202-1.78.758-1.886 2.016-.107 1.259.152 2.454.85 3.522.707 1.082 1.75 1.617 3.018 1.671.564.024 1.147-.031 1.699-.154.762-.17 1.3-.639 1.43-1.459.13-.818-.149-1.482-.806-1.979C2.936.492 2.212.29 1.463.172.983.096.497.057 0 0m.295 1.656c.432-.002.837.031 1.212.215.104.051.203.132.276.221.195.237.119.544-.17.643-.136.046-.305.049-.448.017-.449-.1-.788-.531-.87-1.096"
              style="fill:#000;fill-opacity:1;fill-rule:nonzero;stroke:none" transform="translate(197.8468 416.126)"/>
        <path d="M0 0c.054-1.392.107-2.74.161-4.087.001-.011.023-.021.063-.057.137.318.286.621.401.936.363.994.72 1.99 1.065 2.991.061.176.14.235.324.233C2.808.007 3.602.012 4.418.012c-.019-.081-.024-.139-.045-.19-.885-2.205-1.866-4.365-3.008-6.45-.09-.164-.189-.224-.377-.222-.915.01-1.83.004-2.745.004h-.289c-.104.689-.22 1.36-.304 2.034-.187 1.504-.252 3.014-.236 4.529.003.237.076.304.307.3C-1.587.004-.894.013-.201.012-.118.011-.035.002 0 0"
              style="fill:#000;fill-opacity:1;fill-rule:nonzero;stroke:none" transform="translate(158.7304 420.4459)"/>
        <path d="M0 0c.202.945.394 1.846.586 2.747.454 2.129.911 4.257 1.358 6.387.045.215.131.331.346.405.822.285 1.635.593 2.5.911-.089-.434-.169-.83-.253-1.225C3.892 6.229 3.248 3.233 2.596.238 2.577.151 2.488.011 2.429.01 1.635-.005.842 0 0 0"
              style="fill:#000;fill-opacity:1;fill-rule:nonzero;stroke:none" transform="translate(147.4446 413.497)"/>
        <path d="M0 0c.598.794 1.317 1.304 2.403 1.051-.24-.853-.477-1.695-.719-2.555-.123.013-.232.017-.338.037-.507.092-.885-.098-1.162-.518-.284-.432-.387-.925-.482-1.421C-.452-4.203-.604-5-.768-5.794c-.015-.073-.115-.182-.177-.183-.819-.012-1.639-.008-2.501-.008.086.455.165.888.249 1.319.338 1.744.683 3.487 1.012 5.233.045.24.131.322.378.31.444-.022.889-.006 1.334-.006C-.117.87-.118.87-.098.502-.09.343-.077.184-.066.025-.044.017-.022.008 0 0"
              style="fill:#000;fill-opacity:1;fill-rule:nonzero;stroke:none" transform="translate(205.7188 419.5875)"/>
        <path d="M0 0c.649.836 1.361 1.377 2.453 1.105-.125-.447-.247-.879-.368-1.312-.097-.345-.203-.688-.285-1.037-.042-.175-.126-.214-.29-.185-.15.027-.306.046-.458.038-.363-.021-.613-.235-.808-.523-.325-.481-.415-1.041-.522-1.595-.141-.729-.279-1.458-.419-2.188-.023-.121-.042-.23-.212-.229-.795.007-1.59.005-2.385.007-.024 0-.048.014-.097.029.124.642.246 1.285.371 1.926.301 1.542.607 3.083.9 4.626.039.21.116.281.331.274C-1.311.92-.832.923-.353.935-.157.94-.05.901-.054.676-.058.482-.025.288 0 0"
              style="fill:#000;fill-opacity:1;fill-rule:nonzero;stroke:none" transform="translate(173.212 419.5267)"/>
        <path d="M0 0c.168.865.324 1.685.487 2.505.267 1.348.544 2.694.805 4.044.045.229.119.323.374.316.759-.02 1.519-.007 2.319-.007-.089-.476-.172-.924-.259-1.371-.337-1.735-.679-3.468-1.01-5.204-.041-.213-.121-.293-.347-.289C1.593.009.816 0 0 0"
              style="fill:#000;fill-opacity:1;fill-rule:nonzero;stroke:none" transform="translate(151.5345 413.6003)"/>
        <path d="M0 0c-.005-.94-.641-1.551-1.602-1.542-.845.008-1.419.562-1.408 1.361.012.915.668 1.543 1.598 1.53C-.549 1.338.005.809 0 0"
              style="fill:#000;fill-opacity:1;fill-rule:nonzero;stroke:none" transform="translate(156.0503 422.6103)"/>
    </g>
</svg>
