<svg width="196" height="33" viewBox="0 0 196 33" fill="none" xmlns="http://www.w3.org/2000/svg">
<g id="Group 1597880596">
<path id="Vector" d="M16.4311 12.9217H11.6945V23.7016C11.6945 25.5309 12.7398 25.9229 14.4711 25.9229C15.1245 25.9229 15.7778 25.7922 16.4311 25.7922V31.4434C14.9938 31.4434 13.5238 31.7048 12.2172 31.7048C5.65126 31.7048 3.91995 29.7448 3.91995 23.2769V12.889H0V7.76044H3.95261V0.671875H11.7272V7.76044H16.4638V12.9217H16.4311Z" fill="black"/>
<path id="Subtract" fill-rule="evenodd" clip-rule="evenodd" d="M28.5524 27.0007C25.2531 27.0007 23.4238 24.91 23.2931 21.6107V21.5781H40.6715C41.0635 13.5422 36.8496 7.10693 28.291 7.10693C21.3005 7.10693 15.5186 12.3989 15.5186 19.6181C15.5186 27.654 20.7778 32.2599 28.5524 32.2599C33.8116 32.2599 38.9402 29.8753 40.2469 24.3547H33.0277C32.2437 26.086 30.3817 27.0007 28.5524 27.0007ZM28.2934 12.401C30.9394 12.401 32.7687 14.6223 32.8994 17.2682H23.2955C23.6875 14.3609 25.5168 12.401 28.2934 12.401Z" fill="black"/>
<path id="Vector_2" d="M57.7659 16.4862C57.7659 14.5263 55.9366 13.0563 53.9439 13.0563C49.5993 13.0563 48.946 16.7476 48.946 20.0142C48.946 23.0521 50.2526 26.1881 53.5519 26.1881C56.3286 26.1881 57.6352 24.6201 58.0272 22.1048H65.5404C64.8871 28.5401 60.0198 32.2314 53.7153 32.2314C46.6267 32.2314 41.2041 27.3641 41.2041 20.1449C41.2041 12.6316 45.9407 7.2417 53.7153 7.2417C59.6278 7.2417 64.8871 10.4103 65.4098 16.5842H57.7659V16.4862Z" fill="black"/>
<path id="Vector_3" d="M65.7592 0.702881H73.5338V11.0907H73.6645C74.8404 8.73877 78.0091 7.13812 80.8837 7.13812C88.7889 7.13812 89.4422 12.92 89.4422 16.35V31.6051H81.6677V20.1719C81.6677 16.8727 82.0597 13.606 77.7151 13.606C74.8078 13.606 73.5011 16.1213 73.5011 18.7346V31.6378H65.7266V0.702881H65.7592Z" fill="black"/>
<path id="Vector_4" d="M90.0952 7.79433H97.6084V12.0083H97.7391C98.915 8.97031 101.561 7.40234 104.828 7.40234C105.481 7.40234 106.004 7.40234 106.657 7.53301V14.6216C105.612 14.3602 104.697 14.2296 103.619 14.2296C99.797 14.2296 97.8371 16.8755 97.8371 19.8808V31.5753H90.0625C90.0952 31.608 90.0952 7.79433 90.0952 7.79433Z" fill="black"/>
<path id="Subtract_2" fill-rule="evenodd" clip-rule="evenodd" d="M106.69 15.1129C106.689 15.1347 106.688 15.1564 106.687 15.1783L106.655 15.1129H106.69ZM106.69 15.1129H113.743C114.135 12.9896 115.605 12.075 117.696 12.075C119.427 12.075 121.518 12.761 121.518 14.5903C121.518 16.0276 120.734 16.5503 119.427 16.8116C118.381 17.0461 117.221 17.2093 116.031 17.3767C111.084 18.0725 105.609 18.8426 105.609 25.1088C105.609 30.1067 109.301 32.328 113.776 32.328C116.683 32.328 119.591 31.5114 121.681 29.2901C121.681 30.0741 121.812 30.7274 122.073 31.5114H129.848C128.933 29.6821 128.933 27.4281 128.933 25.4682V25.4681V15.0803C128.933 8.35104 123.543 7.17505 117.892 7.17505C115.246 7.17505 112.469 7.69771 110.379 8.8737C108.27 10.0416 106.838 11.9827 106.69 15.1129ZM121.414 20.5687C121.676 25.4359 120.369 27.5266 116.678 27.5266C114.946 27.5266 113.509 26.7426 113.509 24.9133C113.509 23.0513 114.979 22.2673 116.678 21.8753C117.313 21.6636 118.039 21.5163 118.748 21.3724C119.789 21.1611 120.792 20.9574 121.414 20.5687Z" fill="black"/>
<path id="Subtract_3" fill-rule="evenodd" clip-rule="evenodd" d="M146.643 31.6037H154.025V0.701416H146.251V10.5666H146.12C144.552 8.31264 142.331 7.26732 139.424 7.26732C132.727 7.26732 129.428 13.0492 129.428 19.2232C129.428 25.8217 132.564 32.257 140.077 32.257C142.658 32.2896 145.108 31.0157 146.512 28.827H146.643V31.6037ZM141.941 26.3406C138.381 26.3406 137.205 22.8127 137.205 19.5134C137.205 16.4754 138.381 13.0455 141.941 13.2088C145.371 13.2088 146.547 16.3448 146.547 19.7747C146.547 22.78 145.763 26.3406 141.941 26.3406Z" fill="black"/>
<path id="Subtract_4" fill-rule="evenodd" clip-rule="evenodd" d="M155.226 15.1129C155.225 15.1347 155.224 15.1564 155.223 15.1783H155.191V15.1129H155.226ZM155.226 15.1129H162.279C162.671 12.9896 164.141 12.075 166.232 12.075C167.963 12.075 170.054 12.761 170.054 14.5903C170.054 16.0276 169.27 16.5503 167.963 16.8116C166.918 17.0461 165.758 17.2093 164.567 17.3767C159.62 18.0725 154.146 18.8426 154.146 25.1088C154.146 30.1067 157.837 32.328 162.312 32.328C165.089 32.328 168.127 31.5114 170.217 29.2901C170.217 30.0741 170.348 30.7274 170.609 31.5114H178.384C177.469 29.6821 177.469 27.4281 177.469 25.4682V25.4681V15.0803C177.469 8.35104 172.079 7.17505 166.428 7.17505C163.782 7.17505 161.005 7.69771 158.915 8.8737C156.806 10.0416 155.374 11.9827 155.226 15.1129ZM169.958 20.5687C170.22 25.4359 168.913 27.5266 165.222 27.5266C163.49 27.5266 161.922 26.7426 162.053 24.9133C162.053 23.0513 163.523 22.2673 165.222 21.8753C165.857 21.6636 166.583 21.5163 167.291 21.3724C168.333 21.1611 169.336 20.9574 169.958 20.5687Z" fill="black"/>
<path id="Vector_5" d="M178.615 7.79433H186.128V12.0083H186.259C187.435 8.97031 190.081 7.40234 193.348 7.40234C194.001 7.40234 195.308 7.40234 195.994 7.53301V14.6216C194.948 14.3602 193.348 14.2296 192.302 14.2296C188.48 14.2296 186.52 16.8755 186.52 19.8808V31.5754H178.746V7.76166H178.615V7.79433Z" fill="black"/>
<path id="Vector_6" d="M188.226 23.8293H196V31.6039H188.226V23.8293Z" fill="black"/>
</g>
</svg>
