<svg width="128" height="59" viewBox="0 0 128 59" fill="none" xmlns="http://www.w3.org/2000/svg">
<g id="Logo_Lisbon_Web_Summit 2" clip-path="url(#clip0_1182_52212)">
<path id="Vector" d="M26.0854 58.5023C25.6577 58.3289 25.1954 58.322 24.7505 58.1833C23.2502 57.7467 21.9698 56.7558 21.1664 55.4095C20.6185 54.4401 20.2877 53.3621 20.1971 52.2509C20.149 51.774 20.1283 51.2947 20.135 50.8154C20.135 46.686 20.135 42.553 20.135 38.4235C20.135 38.1149 20.1902 38.0109 20.5283 38.0144C22.3174 38.0329 24.1089 38.0329 25.9026 38.0144C26.2475 38.0144 26.3579 38.0699 26.3579 38.4513C26.3372 42.2201 26.3269 45.9925 26.3579 49.7614C26.3579 50.7634 26.5545 51.7585 27.3686 52.4832C27.752 52.8261 28.2367 53.0331 28.7484 53.0726C30.3662 53.2113 31.7288 52.5803 32.9499 51.5678C33.0242 51.4988 33.0801 51.4122 33.1126 51.316C33.1452 51.2197 33.1533 51.1167 33.1362 51.0165C33.1362 46.8558 33.1362 42.6952 33.1362 38.5345C33.1362 38.1115 33.25 38.0005 33.6674 38.004C35.4715 38.0283 37.279 38.004 39.0831 38.004C39.3763 38.004 39.428 38.0803 39.428 38.3507C39.428 44.9061 39.428 51.4615 39.428 58.0169C39.428 58.3047 39.3694 58.3879 39.0831 58.3844C37.2341 58.3844 35.3887 58.3844 33.5397 58.3844C33.2948 58.3844 33.1948 58.3393 33.2189 58.0724C33.2396 57.4691 33.2189 56.8623 33.2189 56.207C32.2697 57.051 31.166 57.7011 29.9695 58.1209C29.5045 58.2937 29.0159 58.3942 28.5207 58.4191C28.4483 58.4191 28.3517 58.3844 28.3207 58.5023H26.0854Z" fill="black"/>
<path id="Vector_2" d="M6.89682 58.5054C6.55187 58.3181 6.20692 58.4048 5.84473 58.3563C4.38097 58.1453 2.94214 57.7864 1.55012 57.2849C0.836078 57.0353 0.639457 56.6816 0.673952 55.95C0.739492 54.5631 0.673952 53.1485 0.694649 51.7512C0.694649 51.6472 0.632558 51.505 0.749841 51.4495C0.867123 51.3941 0.967158 51.4495 1.09479 51.5258C2.35737 52.2089 3.6943 52.7429 5.07894 53.1173C6.43609 53.4924 7.84312 53.6527 9.24937 53.5923C9.53155 53.6018 9.81269 53.5532 10.0755 53.4494C10.3383 53.3457 10.5772 53.189 10.7775 52.989C11.3605 52.3545 11.1569 51.6506 10.5153 51.2554C9.93549 50.9535 9.30515 50.7619 8.65606 50.6902C7.37999 50.4851 6.11833 50.1979 4.87887 49.8303C3.93076 49.5664 3.03063 49.152 2.21242 48.6029C1.32935 47.9684 0.594614 47.216 0.277262 46.1412C-0.039053 45.0667 -0.0723344 43.9282 0.180676 42.8369C0.667053 40.6803 2.07789 39.3697 4.0372 38.5202C5.13767 38.0669 6.30124 37.7874 7.48668 37.6915C8.61108 37.6094 9.74069 37.635 10.8603 37.7678C12.1618 37.912 13.4478 38.1731 14.703 38.5479C15.11 38.6554 15.4826 38.8946 15.8862 39.016C16.0371 39.0502 16.1693 39.141 16.2559 39.2699C16.3424 39.3988 16.3767 39.556 16.3519 39.7094C16.3243 41.235 16.3519 42.7606 16.3519 44.2862C16.3519 44.5809 16.3519 44.7161 16.0069 44.5185C14.5334 43.7188 12.9536 43.135 11.3156 42.7849C10.2856 42.5203 9.21788 42.4358 8.15933 42.5353C7.50048 42.6115 6.80713 42.7259 6.45874 43.4471C6.40154 43.5843 6.37427 43.7322 6.37877 43.8808C6.38327 44.0295 6.41944 44.1755 6.48482 44.3089C6.5502 44.4423 6.64329 44.5601 6.7578 44.6542C6.87231 44.7484 7.00559 44.8168 7.14863 44.8548C8.08284 45.1454 9.03605 45.3702 10.0014 45.5275C11.8641 45.9227 13.7199 46.3249 15.3343 47.4345C15.9477 47.8383 16.4576 48.3819 16.8226 49.0211C17.1876 49.6604 17.3975 50.3771 17.435 51.1132C17.5422 52.2675 17.3372 53.4295 16.8417 54.4764C16.1069 56.0471 14.8272 57.0179 13.2715 57.6698C12.2529 58.112 11.1644 58.3691 10.0565 58.4291C10.029 58.4291 10.0048 58.4776 9.97721 58.5054H6.89682Z" fill="black"/>
<path id="Vector_3" d="M122.448 58.5041C121.92 58.404 121.398 58.2767 120.882 58.1227C119.089 57.4951 117.778 56.3648 117.147 54.4994C116.858 53.6299 116.69 52.7245 116.646 51.8089C116.491 49.0732 116.619 46.3341 116.581 43.595C116.581 43.3488 116.533 43.2656 116.27 43.2725C115.387 43.2899 114.504 43.2725 113.621 43.2725C113.414 43.2725 113.342 43.2274 113.342 43.0021C113.342 41.4626 113.342 39.9232 113.342 38.3872C113.342 38.0717 113.473 38.0196 113.742 38.0405C114.58 38.0405 115.422 38.0405 116.264 38.0405C116.519 38.0405 116.584 37.9815 116.581 37.7215C116.581 36.241 116.581 34.757 116.581 33.273C116.581 33.013 116.598 32.9263 116.926 32.8535C117.937 32.6524 118.958 32.5067 119.968 32.323C120.803 32.1565 121.658 32.0352 122.5 31.8792C122.759 31.8306 122.88 31.8792 122.876 32.2259C122.859 34.0427 122.876 35.8596 122.876 37.6729C122.876 37.985 122.949 38.0613 123.256 38.0578C124.842 38.0578 126.426 38.0578 128.012 38.0578V43.3003C126.426 43.3003 124.842 43.3003 123.256 43.3003C122.945 43.3003 122.873 43.3731 122.876 43.6851C122.89 45.8348 122.89 47.9833 122.876 50.1307C122.864 50.634 122.925 51.1365 123.059 51.6216C123.356 52.6271 123.863 53.1195 124.756 53.2027C125.432 53.2456 126.109 53.1549 126.75 52.9357C127.181 52.804 127.557 52.5266 128.012 52.4607V57.5367C127.392 57.8283 126.749 58.0706 126.091 58.2614C125.627 58.3286 125.166 58.4201 124.711 58.5353L122.448 58.5041Z" fill="black"/>
<path id="Vector_4" d="M48.9182 39.7161C49.9833 38.8135 51.2401 38.1683 52.5919 37.8299C53.8246 37.5438 55.1035 37.5225 56.345 37.7675C57.4218 37.9663 58.4403 38.4059 59.3253 39.0538C59.8328 39.4399 60.2724 39.9087 60.6258 40.4407C62.0233 39.1432 63.7387 38.2422 65.5965 37.8299C66.8333 37.5653 68.1102 37.5499 69.353 37.7848C70.7002 38.0324 71.9454 38.6727 72.9335 39.6259C73.1397 39.8392 73.3257 40.0714 73.4889 40.3194C73.5889 40.4581 73.6476 40.4823 73.8028 40.361C74.629 39.703 75.5229 39.1358 76.4692 38.669C77.4671 38.1907 78.5313 37.8668 79.6255 37.7086C81.3533 37.4487 83.1185 37.7448 84.6687 38.5546C85.417 38.9101 86.0559 39.4624 86.5176 40.153C86.7349 40.4997 86.8625 40.3333 87.035 40.1842C87.6865 39.6035 88.4128 39.1137 89.1944 38.7279C90.2377 38.186 91.3681 37.8339 92.5335 37.6878C93.7041 37.5212 94.8957 37.586 96.0416 37.8785C96.9152 38.0921 97.7322 38.4938 98.4362 39.0559C99.1402 39.6181 99.7143 40.3272 100.119 41.1342C100.568 42.0072 100.822 42.9679 100.864 43.9496C101.068 48.6824 100.898 53.4186 100.957 58.1653C100.957 58.3698 100.923 58.4531 100.692 58.4496C98.6218 58.4496 96.5832 58.4496 94.5273 58.4496C94.1823 58.4496 94.2548 58.245 94.2548 58.0543C94.2548 54.1294 94.2548 50.2045 94.2341 46.2657C94.2341 45.6139 94.2341 44.9239 93.8477 44.3102C93.2268 43.3255 92.2058 43.1036 91.1571 43.2457C90.1055 43.427 89.1155 43.8691 88.2768 44.5321C88.1774 44.5888 88.0953 44.6718 88.0394 44.772C87.9835 44.8722 87.9559 44.9859 87.9595 45.1007C87.9595 46.6679 87.9008 48.2212 87.9802 49.7988C88.1147 52.5379 87.9802 55.2771 88.0526 58.0162C88.0526 58.3144 88.0147 58.4392 87.6663 58.4323C85.9036 58.4115 84.1374 58.4323 82.3713 58.4323C82.0436 58.4323 82.0022 58.3317 82.0022 58.0405C82.0022 54.282 82.0022 50.5269 82.0022 46.7685C82.0022 45.7283 81.8056 44.7297 80.9915 43.96C80.1774 43.1903 79.2978 43.114 78.3216 43.2284C77.1729 43.3602 76.2519 44.0259 75.3206 44.643C75.1239 44.7748 75.1412 44.962 75.1412 45.1562C75.1412 49.3978 75.1412 53.6394 75.1412 57.881C75.1412 58.4253 75.1412 58.4253 74.6031 58.4253C72.8783 58.4253 71.1812 58.4253 69.4737 58.4253C69.1632 58.4253 69.0908 58.3525 69.0942 58.0405C69.0942 54.2843 69.0942 50.5281 69.0942 46.7719C69.1145 46.2495 69.0249 45.7287 68.8311 45.2435C68.6373 44.7584 68.3438 44.3198 67.9697 43.9565C67.526 43.5685 66.9746 43.3265 66.3898 43.2631C65.2546 43.0841 64.0926 43.3032 63.099 43.8837C62.6575 44.1264 62.2505 44.4385 61.8296 44.7228C61.6882 44.8199 61.7365 44.9724 61.7365 45.1042C61.7365 45.971 61.7917 46.8378 61.802 47.7046C61.84 51.1406 61.802 54.5802 61.8227 58.0162C61.8227 58.3282 61.7675 58.4323 61.4295 58.4288C59.6657 58.4126 57.9018 58.4126 56.138 58.4288C55.793 58.4288 55.6826 58.3698 55.6861 57.9884C55.7033 54.0254 55.7206 50.0589 55.6861 46.0958C55.7098 45.4751 55.5255 44.8643 55.1627 44.3613C54.8 43.8584 54.2797 43.4924 53.6854 43.322C52.7002 43.0544 51.651 43.1696 50.7464 43.6445C50.2352 43.9018 49.742 44.1937 49.2701 44.5182C49.1562 44.5837 49.0633 44.6805 49.0022 44.7971C48.9411 44.9138 48.9144 45.0456 48.9251 45.177C48.9251 49.4486 48.9251 53.7168 48.9251 57.9884C48.9251 58.356 48.8389 58.4392 48.4801 58.4323C46.7002 58.4115 44.9237 58.4323 43.1438 58.4323C42.8506 58.4323 42.7988 58.356 42.7988 58.0855C42.7988 51.5255 42.7988 44.9678 42.7988 38.4124C42.7988 38.1177 42.8713 38.0657 43.1438 38.0657C44.9513 38.0796 46.7577 38.0796 48.5629 38.0657C48.8561 38.0657 48.9389 38.1385 48.9079 38.4124C48.901 38.8111 48.9182 39.2272 48.9182 39.7161Z" fill="black"/>
<path id="Vector_5" d="M93.4992 7.7031L95.3826 4.47857L95.631 4.0625C101.226 13.7916 106.802 23.4906 112.358 33.1596C112.295 33.2001 112.226 33.2277 112.153 33.2408C112.08 33.2539 112.005 33.2522 111.933 33.2359H79.3046C79.1666 33.2359 79.0286 33.2359 78.8906 33.2359C78.97 33.0902 79.039 32.9411 79.1217 32.7955C81.8192 28.1009 84.5179 23.4062 87.2177 18.7116C87.9283 17.4669 88.6872 16.2429 89.3391 14.9635C89.8738 14.0447 90.4153 13.1328 90.9431 12.2105C91.802 10.6988 92.6472 9.20095 93.4992 7.7031Z" fill="black"/>
<path id="Vector_6" d="M89.3371 14.9438C88.6851 16.2232 87.9262 17.4471 87.2156 18.6918C84.525 23.3888 81.8275 28.0834 79.1231 32.7758C79.0403 32.9214 78.9714 33.0705 78.892 33.2161H66.6567C66.1669 33.2161 66.4394 32.963 66.5256 32.8104C67.7904 30.6007 69.0552 28.3943 70.32 26.1915C73.2475 21.0946 76.1773 15.9978 79.1093 10.901C80.3466 8.74202 81.5872 6.58309 82.8313 4.42415C83.0417 4.05662 83.0762 4.07743 83.2936 4.42415L84.9459 7.30543C85.0045 7.41291 85.0424 7.5412 85.1873 7.56547C85.1896 7.6894 85.228 7.80994 85.2977 7.9122C86.6499 10.2653 87.9964 12.6092 89.3371 14.9438Z" fill="black"/>
<path id="Vector_7" d="M7.92361 29.9284C8.20647 29.0685 8.46518 28.2745 8.73424 27.4805C9.18957 26.1317 9.638 24.7795 10.114 23.4412C10.697 21.8116 11.2075 20.1577 11.8112 18.535C12.1906 17.5157 12.5011 16.4547 12.846 15.4145C12.9426 15.1163 13.0737 14.9048 13.4359 14.9742C13.531 14.9846 13.627 14.9846 13.7222 14.9742C14.6536 14.9742 14.6605 15.0054 14.9226 15.9173C15.1503 16.7217 15.44 17.5122 15.7056 18.3062C16.0713 19.4192 16.4645 20.5218 16.8336 21.6313C17.1786 22.6506 17.5477 23.6665 17.8926 24.6859C18.4514 26.3409 19.0068 27.9937 19.5587 29.6441C19.5847 29.7034 19.6196 29.7584 19.6622 29.807C19.8933 29.1136 20.1313 28.382 20.3521 27.6608C20.8523 26.1144 21.3456 24.5646 21.8526 23.0216C22.1079 22.2519 22.3666 21.4822 22.6046 20.7055C22.9047 19.7278 23.26 18.7639 23.5843 17.7896C23.8671 16.9436 24.1396 16.0941 24.4156 15.2481C24.4673 15.0886 24.5156 14.9603 24.7364 14.9672C25.3263 14.9672 25.9196 14.988 26.5129 14.9672C26.8371 14.9672 26.7819 15.1475 26.7267 15.314C26.1507 17.0476 25.585 18.7812 24.9813 20.494C24.3983 22.1514 23.8775 23.833 23.2876 25.4868C22.7288 27.054 22.2976 28.6663 21.7353 30.23C21.4352 31.0691 21.2007 31.9324 20.873 32.7646C20.7971 32.9622 20.7281 33.0246 20.528 33.0212C19.9485 33.0212 19.3724 33.0212 18.8033 33.0212C18.6136 33.0212 18.5653 32.9657 18.5101 32.7923C18.1996 31.8007 17.8823 30.8091 17.5235 29.8417C16.9682 28.33 16.4887 26.7905 15.9437 25.2788C15.3124 23.5452 14.7501 21.7734 14.1603 20.0225C14.0464 19.6723 13.9257 19.2874 13.7877 18.8887C13.5882 19.3391 13.4188 19.8024 13.2807 20.2756C12.953 21.1285 12.7184 22.0092 12.4252 22.8899C12.063 24.0167 11.6594 25.1193 11.2765 26.2219C10.7418 27.7822 10.2106 29.3424 9.6656 30.8992C9.45085 31.459 9.26886 32.0309 9.12058 32.612C9.11539 32.6822 9.09517 32.7505 9.06132 32.8121C9.02747 32.8737 8.98078 32.9272 8.92445 32.969C8.86812 33.0108 8.80347 33.0399 8.73492 33.0543C8.66637 33.0687 8.59554 33.068 8.52727 33.0524C8.00461 33.0194 7.48041 33.0194 6.95775 33.0524C6.91804 33.0614 6.87691 33.0623 6.83686 33.0549C6.79681 33.0474 6.75868 33.0319 6.7248 33.0092C6.69091 32.9865 6.66198 32.9571 6.63976 32.9228C6.61754 32.8885 6.6025 32.85 6.59556 32.8097C6.12643 31.3257 5.63315 29.8486 5.12953 28.3751C4.69489 27.106 4.2844 25.8232 3.83942 24.5611C3.3289 23.1014 2.85632 21.6417 2.36994 20.1889C1.81802 18.5385 1.2799 16.8812 0.717637 15.2342C0.652097 15.0504 0.696941 14.988 0.893561 14.988C1.52482 14.988 2.15952 14.988 2.79423 14.988C3.22196 14.988 3.13918 15.3868 3.23576 15.6052C3.55656 16.4651 3.82217 17.3388 4.10848 18.216C4.39479 19.0933 4.6673 19.9497 4.9674 20.8338C5.3296 21.874 5.68489 22.9523 6.02639 24.0133C6.56796 25.7122 7.14403 27.4008 7.69594 29.0962C7.77528 29.3424 7.84772 29.6025 7.92361 29.9284Z" fill="black"/>
<path id="Vector_8" d="M51.1546 16.8354C51.833 16.3118 52.5837 15.8902 53.3829 15.5838C54.0524 15.3374 54.7463 15.1642 55.4526 15.0671C56.7578 14.8862 58.0872 15.0266 59.3264 15.4763C60.873 16.0086 62.2146 17.0151 63.1622 18.3541C63.9805 19.4785 64.5102 20.7886 64.7041 22.1681C64.925 23.6144 64.8546 25.0906 64.4972 26.509C64.0687 28.2489 63.1301 29.8192 61.8031 31.0165C60.7133 31.9943 59.3808 32.658 57.9466 32.9373C56.7219 33.194 55.4594 33.2116 54.2281 32.9893C53.1547 32.8083 52.1105 32.4829 51.1235 32.022C51.0714 31.9962 51.0128 31.9864 50.9552 31.9938C50.8975 32.0012 50.8433 32.0255 50.7993 32.0636C50.2474 32.3548 49.6989 32.6599 49.1573 32.972C48.9297 33.1037 48.8296 33.0795 48.8503 32.7986C48.8503 32.7431 48.8503 32.6877 48.8503 32.6322C48.8503 23.8739 48.8503 15.1157 48.8503 6.35744C48.8503 5.97604 48.9538 5.89629 49.3022 5.9171C49.8123 5.94657 50.3237 5.94657 50.8338 5.9171C51.1339 5.89976 51.1787 6.00378 51.1787 6.28462C51.1511 9.7796 51.1546 13.2711 51.1546 16.8354ZM51.1546 24.082C51.1546 26.1276 51.1546 27.8335 51.1546 29.5359C51.1425 29.6709 51.1791 29.8056 51.2576 29.9157C51.3361 30.0258 51.4513 30.1039 51.5823 30.1358C52.6852 30.6019 53.8454 30.9167 55.0318 31.0719C56.0496 31.1911 57.0809 31.1027 58.0639 30.8119C60.8511 29.9555 62.3067 27.4625 62.5482 24.9176C62.7156 23.5081 62.5023 22.0792 61.9308 20.7812C61.6079 20.0089 61.13 19.312 60.527 18.7339C59.924 18.1558 59.2088 17.709 58.4261 17.4214C56.8943 16.9159 55.2375 16.9452 53.7244 17.5046C52.8427 17.8556 52.0264 18.3538 51.3098 18.9782C51.227 19.0475 51.1063 19.1065 51.1166 19.259C51.2098 20.9684 51.1201 22.6985 51.1546 24.082Z" fill="black"/>
<path id="Vector_9" d="M104.172 48.232C104.172 44.9589 104.172 41.6858 104.172 38.4162C104.172 38.1076 104.238 38.0279 104.551 38.0314C106.383 38.0314 108.218 38.0314 110.05 38.0314C110.395 38.0314 110.474 38.1284 110.474 38.4578C110.474 45.0017 110.474 51.5443 110.474 58.0859C110.474 58.3598 110.409 58.4326 110.129 58.4326C108.267 58.4326 106.407 58.4326 104.545 58.4326C104.234 58.4326 104.162 58.3598 104.165 58.0477C104.172 54.7747 104.172 51.5016 104.172 48.232Z" fill="black"/>
<path id="Vector_10" d="M37.7992 24.7256C35.6088 24.7256 33.4184 24.7256 31.2245 24.7256C30.9279 24.7256 30.8313 24.8088 30.8796 25.0931C31.1728 26.7019 31.7695 28.1581 32.9837 29.2954C33.9435 30.1836 35.1441 30.7653 36.4332 30.9666C38.2248 31.2923 40.0726 31.0588 41.7282 30.2974C42.373 30.0073 42.9868 29.6518 43.5599 29.2364C43.6392 29.1775 43.7082 29.0978 43.8117 29.1498C43.9152 29.2018 43.8703 29.3162 43.8703 29.4029C43.8703 29.9992 43.8703 30.5956 43.8703 31.192C43.881 31.2802 43.8641 31.3696 43.8221 31.4479C43.7801 31.5261 43.715 31.5893 43.6357 31.6288C42.3993 32.3103 41.0529 32.7669 39.6585 32.9776C38.8518 33.1129 38.0331 33.1605 37.2163 33.1198C35.3626 33.0297 33.5748 32.401 32.0696 31.3099C30.6615 30.2579 29.6178 28.788 29.0858 27.1076C28.8755 26.4388 28.7435 25.7476 28.6926 25.048C28.6482 24.2716 28.6575 23.4931 28.7202 22.718C28.7551 22.302 28.8373 21.8914 28.9651 21.4941C29.3118 20.1138 29.9878 18.8393 30.9347 17.7807C31.9887 16.5927 33.3613 15.7355 34.8879 15.312C36.216 14.9248 37.6205 14.8842 38.9686 15.1941C40.5559 15.5414 41.9866 16.4011 43.0424 17.642C43.682 18.4128 44.1522 19.3108 44.4222 20.2771C44.7569 21.4188 44.9082 22.6068 44.8707 23.7963C44.8707 24.0737 44.7637 24.3303 44.7706 24.6077C44.7775 24.8851 44.5637 24.7325 44.4567 24.736C43.2839 24.736 42.1145 24.736 40.9417 24.736L37.7992 24.7256ZM36.7644 22.8116C38.5823 22.8116 40.4001 22.8116 42.2146 22.8116C42.5595 22.8116 42.6733 22.7111 42.6216 22.3782C42.5783 21.896 42.4952 21.4182 42.3732 20.9497C42.0821 19.835 41.4335 18.8479 40.5278 18.1413C39.8887 17.6662 39.1572 17.3318 38.381 17.1598C37.6049 16.9877 36.8013 16.9819 36.0227 17.1427C35.2553 17.2674 34.5209 17.5467 33.8635 17.9638C33.2062 18.3808 32.6394 18.9271 32.1973 19.5698C31.6229 20.4051 31.2228 21.3486 31.021 22.3436C30.921 22.777 31.021 22.8047 31.3935 22.8012C33.1907 22.8047 34.981 22.8116 36.7713 22.8116H36.7644Z" fill="black"/>
<path id="Vector_11" d="M89.3323 14.9445C87.987 12.6122 86.6428 10.2799 85.2998 7.94763C85.2301 7.84538 85.1918 7.72484 85.1895 7.60091L89.2702 0.565878C89.2869 0.541493 89.3066 0.519354 89.3288 0.5C89.4841 0.586681 89.5289 0.760043 89.6082 0.898733C90.8248 3.03686 92.0401 5.17615 93.2543 7.3166C93.3302 7.44835 93.4165 7.57317 93.4958 7.70146C92.6438 9.19931 91.7987 10.6972 90.9397 12.2089C90.412 13.1138 89.8704 14.0257 89.3323 14.9445Z" fill="black"/>
</g>
<defs>
<clipPath id="clip0_1182_52212">
<rect width="128" height="58" fill="white" transform="translate(0 0.5)"/>
</clipPath>
</defs>
</svg>
