<svg width="121" height="43" viewBox="0 0 121 43" fill="none" xmlns="http://www.w3.org/2000/svg">
<path id="Vector" fill-rule="evenodd" clip-rule="evenodd" d="M-17.9658 1.74132L-16.6922 1.38066C-16.3291 1.24088 -15.9241 1.10948 -15.4772 0.986462C-15.0303 0.863449 -14.5276 0.701294 -13.969 0.5V31.4826L-15.9883 32.0948C-16.6978 32.3073 -17.4352 32.5477 -18.2004 32.8162L-20.7895 33.6549L-21.6274 33.9149V30.4174C-22.5309 31.4973 -23.6278 32.399 -24.8617 33.0762C-25.925 33.6303 -27.1068 33.9181 -28.3055 33.9149C-29.4006 33.9229 -30.4805 33.6577 -31.4476 33.1432C-32.4247 32.6273 -33.2815 31.9097 -33.9613 31.0381C-34.715 30.0811 -35.2833 28.9917 -35.6371 27.8257C-36.045 26.5233 -36.2457 25.1648 -36.232 23.7999C-36.2447 22.0776 -35.9261 20.3691 -35.2936 18.7675C-34.7173 17.261 -33.8647 15.8757 -32.7799 14.6829C-31.7231 13.536 -30.4502 12.6096 -29.0344 11.957C-27.5656 11.283 -25.9662 10.9422 -24.3505 10.9589C-23.9152 10.9534 -23.4802 10.9899 -23.0518 11.068C-22.5577 11.1667 -22.0729 11.307 -21.6023 11.4873V2.7394L-21.1749 2.63875C-20.7113 2.52693 -20.1723 2.38434 -19.5578 2.211L-17.9658 1.74132ZM-22.9513 30.8619C-22.4484 30.5331 -21.9967 30.1318 -21.6106 29.6709L-21.5856 13.861C-21.5672 13.2314 -21.7855 12.6179 -22.1972 12.1415C-22.4042 11.9224 -22.6555 11.75 -22.9344 11.6357C-23.2133 11.5214 -23.5133 11.468 -23.8143 11.4789C-25.2053 11.4789 -26.2638 12.4155 -26.99 14.2887C-27.8057 16.963 -28.1627 19.7564 -28.0458 22.5502C-28.0458 25.6031 -27.7664 27.8034 -27.2078 29.151C-26.9959 29.754 -26.5972 30.2738 -26.0697 30.6343C-25.5422 30.9948 -24.9136 31.1774 -24.2751 31.1555C-23.8161 31.172 -23.3604 31.071 -22.9513 30.8619ZM-76.795 22.6088L-83.9842 4.25749H-93V33.3361H-92.4302V6.14462L-80.9258 34.7788L-69.4382 5.48203V33.3361H-60.8665V4.25749H-69.522L-76.795 22.6088ZM-37.464 16.5198C-37.4676 15.6685 -37.5888 14.8217 -37.8243 14.0036C-38.0932 13.2746 -38.5569 12.6333 -39.1649 12.15C-40.3068 11.3112 -41.706 10.8987 -43.1198 10.9842C-43.803 10.9872 -44.4854 11.0264 -45.1642 11.1016C-46.2753 11.224 -47.3778 11.4145 -48.4656 11.6719C-50.3896 12.1259 -52.2622 12.775 -54.0544 13.6094C-57.406 15.1582 -59.0819 16.9894 -59.0819 19.1031C-59.1019 19.5094 -59.0373 19.9154 -58.8919 20.2953C-58.7465 20.6752 -58.5237 21.0206 -58.2374 21.3094C-57.9513 21.5982 -57.6081 21.8243 -57.2297 21.9729C-56.8514 22.1215 -56.4463 22.1896 -56.0403 22.1728C-55.4735 22.1883 -54.9094 22.0886 -54.3823 21.8796C-53.8551 21.6705 -53.3759 21.3565 -52.9735 20.9566C-52.0981 20.0771 -51.5636 18.9148 -51.4653 17.6773L-51.2978 16.352C-51.2181 15.6017 -51.0579 14.8622 -50.8202 14.1462C-50.6606 13.6535 -50.3711 13.213 -49.9822 12.8713C-49.675 12.6306 -49.3294 12.4434 -48.96 12.3178C-48.5825 12.1627 -48.1783 12.0829 -47.7702 12.0829C-47.2581 12.0691 -46.7559 12.2266 -46.3432 12.5303C-45.9304 12.8341 -45.6306 13.267 -45.491 13.7604C-45.2832 14.8097 -45.1849 15.8778 -45.1978 16.9475V20.3528C-49.0045 21.3737 -52.6903 22.8022 -56.1911 24.6135C-58.1964 25.7989 -59.1992 27.3141 -59.1992 29.1594C-59.2145 29.8329 -59.0626 30.4997 -58.7569 31.1C-58.4513 31.7002 -58.0015 32.215 -57.4479 32.5982C-56.1394 33.5268 -54.5593 33.993 -52.9568 33.9233C-51.1023 33.974 -49.277 33.4528 -47.7283 32.4304C-47.2552 32.1372 -46.8192 31.788 -46.4296 31.3904C-45.9402 30.8951 -45.4972 30.356 -45.1057 29.7801C-44.5471 32.5758 -43.1003 33.9737 -40.7653 33.9737C-39.598 33.9593 -38.4504 33.6721 -37.4138 33.1349L-36.7015 32.7492C-36.7015 32.7492 -37.4138 31.9104 -37.4138 29.6542L-37.464 16.5198ZM-45.1642 27.809C-45.1355 28.6232 -45.3804 29.4236 -45.8597 30.082C-46.0907 30.3613 -46.3837 30.5826 -46.7155 30.7283C-47.0472 30.8739 -47.4084 30.9398 -47.7702 30.9208C-48.1476 30.9328 -48.5214 30.8425 -48.8517 30.6594C-49.1821 30.4763 -49.4569 30.2073 -49.6471 29.8807C-50.1365 28.959 -50.3627 27.92 -50.3007 26.878C-50.3321 25.9398 -50.1665 25.0055 -49.8147 24.1354C-49.4949 23.3953 -48.9719 22.7613 -48.3065 22.307C-47.9334 22.003 -47.5149 21.7596 -47.0663 21.5857C-46.6586 21.4291 -46.0357 21.2027 -45.1978 20.9064L-45.1642 27.809ZM10.0034 0.5C9.44474 0.701294 8.94197 0.863449 8.49509 0.986462C8.04822 1.10948 7.63772 1.23808 7.26336 1.37228L5.98982 1.73293L4.39781 2.20262C3.78339 2.37595 3.24424 2.51853 2.78062 2.63037L2.35326 2.73101V11.4873C1.88271 11.307 1.39785 11.1667 0.90374 11.068C0.475227 10.9904 0.0403519 10.9539 -0.394974 10.9589C-2.00281 10.9486 -3.59332 11.2922 -5.05369 11.9654C-6.46949 12.618 -7.74245 13.5444 -8.79913 14.6913C-9.88434 15.8839 -10.737 17.2693 -11.3129 18.7759C-11.9454 20.3776 -12.264 22.086 -12.2513 23.8082C-12.265 25.173 -12.0642 26.5316 -11.6564 27.8341C-11.303 29.0002 -10.7346 30.0897 -9.98064 31.0464C-9.30074 31.918 -8.44394 32.6356 -7.46693 33.1516C-6.49974 33.666 -5.41985 33.9313 -4.32471 33.9232C-3.12589 33.9271 -1.94403 33.6393 -0.880997 33.0845C0.353401 32.4081 1.45039 31.5062 2.35326 30.4258V33.9232L3.19124 33.6633C4.14088 33.367 5.00391 33.0873 5.78035 32.8246C6.55679 32.5618 7.29419 32.3213 7.99233 32.1032L10.0117 31.4909L10.0034 0.5ZM2.35326 29.6709C1.96701 30.1314 1.51528 30.5326 1.01263 30.8619C0.603401 31.0707 0.147865 31.1717 -0.311256 31.1555C-0.949585 31.1774 -1.57822 30.9948 -2.10569 30.6342C-2.63316 30.2738 -3.03189 29.754 -3.2439 29.151C-3.80244 27.8034 -4.08176 25.6031 -4.08176 22.5502C-4.20878 19.761 -3.86317 16.9706 -3.05949 14.2971C-2.3334 12.4239 -1.27475 11.4873 0.116112 11.4873C0.417259 11.4764 0.717255 11.5298 0.99601 11.6441C1.27487 11.7583 1.52625 11.9308 1.73329 12.1499C2.14495 12.6262 2.36319 13.2398 2.34495 13.8694L2.35326 29.6709ZM26.8368 25.2173C27.3726 24.1605 27.8287 23.2295 28.2028 22.4243L33.5988 11.5377H34.2524L22.0776 35.953C21.2554 37.8376 20.0481 39.5291 18.5333 40.9183C17.3722 41.9321 15.8845 42.492 14.3438 42.4951C13.0106 42.5515 11.7027 42.1191 10.6654 41.279C10.2074 40.8852 9.84335 40.3937 9.59982 39.8408C9.35629 39.2879 9.23931 38.6874 9.25767 38.0834C9.24347 37.5849 9.33307 37.0889 9.5206 36.6269C9.70801 36.1649 9.98954 35.7468 10.3469 35.3995C10.7049 35.051 11.1286 34.7775 11.5932 34.5945C12.0579 34.4116 12.5542 34.3231 13.0534 34.3342C13.7209 34.3147 14.3813 34.4772 14.9638 34.804C15.6251 35.2221 16.1952 35.7698 16.6396 36.4144C16.7618 36.5504 16.8766 36.6932 16.9831 36.8421C17.0682 36.9543 17.1606 37.0608 17.2596 37.1609C17.4393 37.3933 17.6671 37.5841 17.9275 37.7203C18.1879 37.8563 18.4745 37.9344 18.7678 37.9492C19.4052 37.9265 20.0078 37.6521 20.4437 37.186C21.1304 36.4402 21.6958 35.5912 22.1195 34.6698L22.6059 33.7136L11.7127 11.5293H20.0917L22.463 16.3352C22.547 16.5449 22.6555 16.763 22.7733 16.981L26.8368 25.2173ZM54.5373 12.7455C54.0731 12.1438 53.4484 11.6847 52.736 11.4203C51.8953 11.0939 50.9993 10.9343 50.0963 10.9506C49.4092 10.9464 48.7245 11.0167 48.0524 11.1603L47.818 11.219C47.236 11.371 46.6737 11.5905 46.1414 11.8732C45.4589 12.228 44.8111 12.6465 44.2061 13.1229C43.4624 13.7348 42.7592 14.3961 42.1033 15.1023V10.959L40.3608 11.5545L38.9948 11.999C38.7385 12.0918 38.4602 12.1811 38.1946 12.2668C38.0514 12.3128 37.9117 12.3577 37.7801 12.4016L36.4221 12.7874L34.9983 13.2404L34.3863 13.3997V33.3363H42.1033V15.8236C42.959 14.9144 44.1195 14.3529 45.3631 14.2467C45.7799 14.249 46.1899 14.3587 46.5524 14.5655C46.8942 14.7355 47.1702 15.0124 47.34 15.3539C47.4531 15.5489 47.5397 15.7574 47.5998 15.9746C47.6644 16.2502 47.7072 16.5308 47.7256 16.8133C47.7534 17.1656 47.773 17.6268 47.7845 18.1972V18.7172V33.3363H55.5096V16.6624C55.4981 15.9362 55.4253 15.2123 55.2914 14.4984C55.1782 13.8639 54.9207 13.2641 54.5373 12.7455ZM76.7426 27.1629C77.1802 26.8864 77.5751 26.5474 77.9146 26.1565C78.3049 25.6748 78.6571 25.1645 78.9712 24.63L79.3569 24.7978C79.0994 25.4967 78.865 26.0866 78.6525 26.5674C78.4781 27.003 78.2795 27.4286 78.0578 27.8424C77.8454 28.2282 77.619 28.5973 77.3788 28.9494L76.5405 30.0818C75.559 31.2946 74.3165 32.2696 72.9043 32.9334C71.4286 33.6004 69.8235 33.9354 68.2034 33.9147C66.6469 33.9338 65.1019 33.6489 63.6539 33.076C62.2878 32.5451 61.0419 31.7435 59.9922 30.7192C58.9495 29.7131 58.125 28.5025 57.5708 27.1629C56.9911 25.7543 56.7059 24.2413 56.7336 22.7177C56.7221 21.1448 57.0327 19.5864 57.6458 18.1383C58.2347 16.7428 59.0881 15.4752 60.1597 14.406C61.2428 13.3354 62.5199 12.4814 63.9217 11.8898C66.6815 10.7603 69.7554 10.668 72.5775 11.6298C73.753 12.0464 74.8385 12.6809 75.7784 13.5002C76.7322 14.3277 77.5139 15.3333 78.0832 16.4608C78.6883 17.6816 79.0763 18.9985 79.231 20.3526H64.8109C64.8386 25.7875 67.2623 28.5049 72.0833 28.5049C73.738 28.5556 75.3673 28.0863 76.7426 27.1629ZM68.5222 11.571C67.2993 11.571 66.3778 12.2755 65.7577 13.6846C65.0245 15.6396 64.6885 17.7209 64.7681 19.8074H71.4713V18.5493V17.6099C71.4609 17.3415 71.447 17.087 71.4297 16.8466C71.4136 16.6062 71.3905 16.3434 71.3627 16.0582C71.3616 14.8668 71.0741 13.693 70.5244 12.6362C70.3177 12.2949 70.0221 12.0159 69.6699 11.8284C69.3177 11.641 68.9205 11.5521 68.5222 11.571ZM93.6754 19.3461L90.7182 18.39C87.9699 17.4953 86.5958 16.1757 86.5958 14.4311C86.5808 14.0437 86.6489 13.6577 86.7933 13.2978C86.9376 12.938 87.1559 12.6126 87.433 12.3427C87.7182 12.0684 88.0542 11.853 88.4226 11.7091C88.7909 11.5652 89.1835 11.4955 89.5785 11.504C90.3486 11.5182 91.1027 11.7228 91.7736 12.0995C92.5865 12.5269 93.3325 13.0723 93.986 13.7183C94.7516 14.4845 95.4375 15.3276 96.0299 16.2344C96.7008 17.2193 97.262 18.2738 97.7065 19.3797H98.1592L97.7065 12.2337C96.3336 11.8175 94.934 11.498 93.5172 11.2775C92.3371 11.0781 91.1431 10.9715 89.9468 10.9588C88.6916 10.9471 87.4411 11.1339 86.2436 11.5124C85.1778 11.8333 84.1767 12.3386 83.2864 13.0053C82.4873 13.6239 81.8199 14.3968 81.3257 15.2782C80.8453 16.1547 80.5982 17.1391 80.6051 18.1384C80.5982 18.9141 80.7564 19.6826 81.067 20.3935C81.3765 21.1045 81.8338 21.7422 82.4065 22.2649C83.5959 23.4167 85.5877 24.4679 88.3799 25.4185L90.5092 26.1565C91.687 26.4765 92.7816 27.0489 93.7181 27.834C94.0183 28.1481 94.2516 28.5193 94.4052 28.9256C94.5599 29.3318 94.6303 29.765 94.6142 30.1993C94.6361 30.6152 94.5738 31.0313 94.4294 31.4223C94.2851 31.8131 94.0634 32.1704 93.777 32.4722C93.471 32.7604 93.1096 32.9834 92.7147 33.1276C92.3197 33.2717 91.9006 33.3341 91.4803 33.3109C90.493 33.2988 89.5219 33.0516 88.6489 32.5895C87.6247 32.0433 86.687 31.348 85.8672 30.5263C84.8822 29.5412 84.0035 28.4562 83.2437 27.2888C82.3718 25.9111 81.6097 24.4669 80.9654 22.9694H80.5208L80.9654 31.6335L81.8615 31.9774C82.104 32.078 82.3638 32.1702 82.6328 32.2541C82.9007 32.338 83.1686 32.4219 83.47 32.5057L84.6605 32.8496C85.4145 33.09 86.0681 33.2746 86.6212 33.4032C87.1743 33.5317 87.6847 33.6297 88.1547 33.6967C88.575 33.7767 88.9999 33.8327 89.4272 33.8645C89.8244 33.8924 90.2297 33.9064 90.6431 33.9064C91.9572 33.92 93.2643 33.7188 94.5137 33.3109C95.635 32.9551 96.6765 32.3856 97.5807 31.6335C98.4224 30.9505 99.106 30.0918 99.5829 29.1172C100.069 28.1318 100.316 27.0457 100.303 25.9468C100.322 25.2196 100.193 24.4963 99.9213 23.8213C99.6499 23.1463 99.2446 22.5338 98.7285 22.0216C97.2689 20.7569 95.5414 19.8418 93.6754 19.3461ZM114.306 19.3461C116.166 19.8602 117.885 20.7924 119.332 22.0719C119.856 22.5675 120.274 23.1641 120.561 23.8258C120.847 24.4875 120.996 25.2005 121 25.9217C121.012 27.0205 120.766 28.1069 120.279 29.0921C119.803 30.0666 119.12 30.9254 118.277 31.6083C117.373 32.3603 116.331 32.9299 115.21 33.2857C113.96 33.6937 112.653 33.8947 111.339 33.8812C110.926 33.8812 110.52 33.8672 110.124 33.8393C109.697 33.8075 109.271 33.7515 108.851 33.6715C108.381 33.6045 107.87 33.5066 107.317 33.3779C106.764 33.2494 106.111 33.0649 105.357 32.8244L104.167 32.4805C103.865 32.3967 103.597 32.3128 103.329 32.2289C103.061 32.145 102.801 32.0528 102.557 31.9521L101.661 31.6083L101.217 22.9443H101.661C102.307 24.4416 103.069 25.8859 103.941 27.2637C104.694 28.454 105.57 29.5616 106.555 30.5682C107.375 31.3899 108.313 32.0852 109.337 32.6315C110.21 33.0935 111.181 33.3407 112.168 33.3528C112.589 33.3761 113.008 33.3136 113.403 33.1694C113.798 33.0253 114.159 32.8023 114.465 32.5141C114.751 32.2122 114.973 31.855 115.117 31.4641C115.262 31.0732 115.324 30.6571 115.302 30.2411C115.318 29.8069 115.248 29.3737 115.094 28.9675C114.94 28.5612 114.706 28.19 114.406 27.8759C113.47 27.0907 112.375 26.5184 111.197 26.1985L109.068 25.4604C106.276 24.5098 104.284 23.4586 103.094 22.3067C102.524 21.7826 102.071 21.1442 101.763 20.4334C101.456 19.7225 101.301 18.9549 101.309 18.1803C101.302 17.181 101.551 16.1966 102.03 15.3202C102.525 14.4387 103.191 13.6657 103.99 13.0472C104.882 12.3805 105.883 11.8752 106.949 11.5543C108.146 11.1758 109.396 10.989 110.652 11.0007C111.833 11.0017 113.012 11.0943 114.18 11.2775C115.597 11.498 116.996 11.8175 118.369 12.2336L118.822 19.3796H118.369C117.926 18.2738 117.363 17.2192 116.694 16.2344C116.1 15.3276 115.415 14.4845 114.649 13.7182C113.995 13.0723 113.25 12.5268 112.437 12.0995C111.765 11.7228 111.011 11.5182 110.241 11.504C109.846 11.4954 109.453 11.5651 109.085 11.7091C108.717 11.853 108.381 12.0683 108.097 12.3427C107.808 12.6075 107.578 12.9305 107.425 13.2906C107.27 13.6505 107.193 14.0394 107.199 14.4311C107.199 16.1757 108.583 17.4952 111.347 18.3899L114.306 19.3461Z" fill="black"/>
</svg>
