<svg width="244" height="37" viewBox="0 0 244 37" fill="none" xmlns="http://www.w3.org/2000/svg">
<g id="Group 1597880595">
<g id="Group">
<path id="Vector" d="M53.7158 12.0382H48.1035V7.93066H63.7609V12.0382H58.0673V29.0783H53.7158V12.0382Z" fill="black"/>
<path id="Vector_2" d="M66.3633 7.93066H79.4992V12.0382H70.6741V16.3897H77.7505V20.4972H70.6741V24.9708H79.4992V29.0783H66.3633V7.93066Z" fill="black"/>
<path id="Vector_3" d="M92.1091 7.56323C96.42 7.56323 100.039 9.8 101.87 13.1755L98.1281 15.2496C96.8673 13.0941 94.8746 11.7114 92.1091 11.7114C88.4083 11.7114 85.5208 14.7616 85.5208 18.4624C85.5208 22.1632 88.4083 25.2134 92.1091 25.2134C94.8339 25.2134 96.8673 23.8306 98.1281 21.6752L101.87 23.7493C100.08 27.1248 96.42 29.3616 92.1091 29.3616C86.0902 29.3616 81.21 24.4813 81.21 18.4624C81.21 12.4434 86.0902 7.56323 92.1091 7.56323Z" fill="black"/>
<path id="Vector_4" d="M104.958 7.93066H109.269V16.3491H118.419V7.93066H122.73V29.0783H118.419V20.4972H109.269V29.0783H104.958V7.93066Z" fill="black"/>
<path id="Vector_5" d="M149.286 29.0783L138.468 15.2917V29.0783H134.157V7.93066H137.858L148.676 21.7173V7.93066H152.987V29.0783H149.286Z" fill="black"/>
<path id="Vector_6" d="M163.927 7.93066H167.749L176.9 29.0783H172.386L170.352 24.2794H161.364L159.331 29.0783H154.857L163.927 7.93066ZM168.725 20.4566L165.838 13.5836L162.91 20.4566H168.725Z" fill="black"/>
<path id="Vector_7" d="M180.523 12.0382H174.911V7.93066H190.569V12.0382H184.875V29.0783H180.523V12.0382Z" fill="black"/>
<path id="Vector_8" d="M193.171 7.93066H197.482V29.0783H193.171V7.93066Z" fill="black"/>
<path id="Vector_9" d="M211.302 29.4421C205.284 29.4421 200.403 24.5619 200.403 18.543C200.403 12.524 205.284 7.6438 211.302 7.6438C217.321 7.6438 222.202 12.524 222.202 18.543C222.242 24.5619 217.362 29.4421 211.302 29.4421ZM211.302 25.2533C215.003 25.2533 217.891 22.2031 217.891 18.5023C217.891 14.8015 215.003 11.7513 211.302 11.7513C207.602 11.7513 204.714 14.8015 204.714 18.5023C204.714 22.2031 207.602 25.2533 211.302 25.2533Z" fill="black"/>
<path id="Vector_10" d="M240.3 29.0783L229.482 15.2917V29.0783H225.171V7.93066H228.872L239.69 21.7173V7.93066H244V29.0783H240.3Z" fill="black"/>
</g>
<path id="Vector_11" d="M36.4797 20.3301C36.561 19.7201 36.561 19.1101 36.561 18.4594C36.561 17.8087 36.5203 17.1987 36.4797 16.5886H27.6546L35.829 13.2131C35.4629 12.0338 35.0156 10.8544 34.4056 9.75632L26.2312 13.1725L32.4941 6.90952C31.7214 5.97415 30.8267 5.03877 29.8507 4.26607L23.5877 10.529L26.9632 2.35465C25.9058 1.78529 24.7265 1.29726 23.5064 0.931247L20.1309 9.10562V0.280561C19.5209 0.199224 18.9109 0.199219 18.2602 0.199219C17.6095 0.199219 16.9994 0.239892 16.3894 0.280561V9.10562L13.0139 0.931247C11.8345 1.29726 10.6552 1.74462 9.5571 2.35465L12.9326 10.529L6.75097 4.26607C5.8156 5.03877 4.88022 5.93348 4.10752 6.90952L10.3705 13.1725L2.1961 9.79699C1.62674 10.8544 1.13872 12.0338 0.772702 13.2538L8.94707 16.6293H0.0813373C3.09064e-07 17.2393 0 17.8494 0 18.5001C0 19.1507 0.0406688 19.7608 0.0813373 20.3708H8.90641L0.732033 23.7463C1.09805 24.9257 1.5454 26.1051 2.15543 27.2031L10.3298 23.8276L4.10752 30.0906C4.88022 31.026 5.77493 31.9613 6.75097 32.734L13.0139 26.4711L9.63844 34.6455C10.6958 35.2148 11.8752 35.7028 13.0953 36.0689L16.4708 27.8945V36.7195C17.0808 36.8009 17.6908 36.8009 18.3415 36.8009C18.9922 36.8009 19.6022 36.7602 20.2123 36.7195V27.8945L23.5877 36.0689C24.7671 35.7028 25.9465 35.2555 27.0446 34.6455L23.6691 26.4711L29.8914 32.6527C30.8267 31.88 31.7621 30.9853 32.5348 30.0092L26.2719 23.7463L34.4462 27.1218C35.0156 26.0644 35.5036 24.885 35.8696 23.665L27.6953 20.2895H36.4797V20.3301ZM18.3008 25.1697C14.6 25.1697 11.5905 22.1602 11.5905 18.4594C11.5905 14.7585 14.6 11.7491 18.3008 11.7491C22.0017 11.7491 25.0111 14.7179 25.0111 18.4187C25.0111 22.1602 22.0017 25.1697 18.3008 25.1697Z" fill="black"/>
</g>
</svg>
