<svg width="204" height="55" viewBox="0 0 204 55" fill="none" xmlns="http://www.w3.org/2000/svg">
<g id="Group">
<path id="Subtract" fill-rule="evenodd" clip-rule="evenodd" d="M25.9857 54.0558C40.3365 54.0558 51.9715 42.1656 51.9715 27.5C51.9715 12.8336 40.3365 0.944336 25.9857 0.944336C11.634 0.944336 0 12.8326 0 27.5C0 42.1656 11.6331 54.0558 25.9857 54.0558ZM22.0902 27.4993H29.4522C29.9641 27.4993 30.4709 27.3963 30.9438 27.1961C31.4168 26.9959 31.8465 26.7025 32.2084 26.3326C32.5704 25.9627 32.8575 25.5236 33.0534 25.0403C33.2492 24.557 33.3501 24.039 33.3501 23.5159C33.3501 22.9928 33.2492 22.4749 33.0534 21.9916C32.8575 21.5083 32.5704 21.0692 32.2084 20.6993C31.8465 20.3294 31.4168 20.036 30.9438 19.8358C30.4709 19.6356 29.9641 19.5326 29.4522 19.5326H22.0902V27.4993ZM16.893 14.2214H29.4522C34.4752 14.2214 38.5472 18.3828 38.5472 23.5159C38.5472 28.6491 34.4752 32.8104 29.4522 32.8104H22.0902V40.7771H16.893V14.2214Z" fill="black"/>
<path id="Vector" d="M79.2727 24.2555C79.2727 22.7942 78.1742 21.9087 76.747 21.9087H72.9211V26.575H76.7479C78.1751 26.575 79.2736 25.6895 79.2736 24.2555H79.2727ZM69.2979 36.3527V18.6492H77.2562C80.9568 18.6492 82.9706 21.2048 82.9706 24.2555C82.9706 27.2798 80.931 29.8345 77.2562 29.8345H72.9211V36.3527H69.2987H69.2979ZM85.1763 36.3527V23.4463H88.4139V25.141C89.307 24.0457 90.8134 23.1339 92.3446 23.1339V26.3661C92.1136 26.3144 91.8336 26.2889 91.4515 26.2889C90.3797 26.2889 88.9498 26.9138 88.4139 27.7239V36.3527H85.1755H85.1763ZM103.244 29.7301C103.244 27.7747 102.119 26.08 100.078 26.08C98.0617 26.08 96.941 27.7747 96.941 29.731C96.941 31.7118 98.0617 33.4065 100.078 33.4065C102.119 33.4065 103.243 31.7118 103.243 29.7301M93.5719 29.7301C93.5719 26.1591 96.0212 23.1339 100.078 23.1339C104.161 23.1339 106.61 26.1582 106.61 29.7301C106.61 33.302 104.161 36.3527 100.078 36.3527C96.0212 36.3527 93.5719 33.302 93.5719 29.7301ZM117.513 31.9724V27.5141C116.977 26.6785 115.804 26.08 114.731 26.08C112.87 26.08 111.594 27.5659 111.594 29.731C111.594 31.9198 112.87 33.4065 114.731 33.4065C115.804 33.4065 116.977 32.8071 117.513 31.9715V31.9724ZM117.513 36.3527V34.4237C116.542 35.6742 115.217 36.3527 113.711 36.3527C110.624 36.3527 108.252 33.955 108.252 29.7301C108.252 25.6378 110.574 23.1339 113.711 23.1339C115.165 23.1339 116.542 23.7605 117.513 25.0629V18.6492H120.778V36.3527H117.513ZM132.319 36.3527V34.4491C131.478 35.3882 129.998 36.3527 127.982 36.3527C125.278 36.3527 124.003 34.8405 124.003 32.3893V23.4463H127.241V31.086C127.241 32.8334 128.135 33.4065 129.512 33.4065C130.762 33.4065 131.758 32.7026 132.319 31.9715V23.4463H135.559V36.3527H132.319ZM137.992 29.7301C137.992 25.8721 140.747 23.1339 144.524 23.1339C147.05 23.1339 148.58 24.2555 149.397 25.4025L147.278 27.4351C146.692 26.5487 145.799 26.08 144.677 26.08C142.712 26.08 141.335 27.5404 141.335 29.731C141.335 31.9198 142.712 33.4065 144.677 33.4065C145.799 33.4065 146.692 32.8852 147.278 32.0242L149.397 34.0586C148.58 35.2056 147.05 36.3527 144.524 36.3527C140.747 36.3527 137.992 33.6154 137.992 29.7301ZM152.183 32.8852V26.3407H150.142V23.4463H152.183V20.0042H155.424V23.4463H157.922V26.3407H155.424V31.9988C155.424 32.8071 155.83 33.4065 156.546 33.4065C157.029 33.4065 157.491 33.2239 157.667 33.016L158.358 35.5435C157.873 35.9885 157.005 36.3527 155.652 36.3527C153.382 36.3527 152.183 35.1539 152.183 32.8852ZM178.677 36.3527V28.7129H170.64V36.3527H167.019V18.6492H170.64V25.4797H178.677V18.6501H182.325V36.3527H178.677ZM193.92 36.3527V34.4491C193.078 35.3882 191.599 36.3527 189.583 36.3527C186.879 36.3527 185.604 34.8405 185.604 32.3893V23.4463H188.842V31.086C188.842 32.8334 189.735 33.4065 191.114 33.4065C192.363 33.4065 193.359 32.7026 193.92 31.9715V23.4463H197.16V36.3527H193.92ZM208.697 36.3527V28.4277C208.697 26.6804 207.807 26.081 206.428 26.081C205.152 26.081 204.184 26.8111 203.621 27.5413V36.3536H200.383V23.4463H203.621V25.0629C204.413 24.1247 205.943 23.1339 207.933 23.1339C210.663 23.1339 211.964 24.6978 211.964 27.1481V36.3527H208.698H208.697ZM215.825 32.8852V26.3407H213.786V23.4463H215.826V20.0042H219.067V23.4463H221.566V26.3407H219.067V31.9988C219.067 32.8071 219.474 33.4065 220.188 33.4065C220.673 33.4065 221.134 33.2239 221.312 33.016L222 35.5435C221.516 35.9885 220.647 36.3527 219.295 36.3527C217.025 36.3527 215.826 35.1539 215.826 32.8852" fill="black"/>
</g>
</svg>
