<svg width="272" height="45" viewBox="0 0 272 45" fill="none" xmlns="http://www.w3.org/2000/svg">
<path d="M99.1647 17.0929H89.3018L92.7654 0H9.31415L0.5 44.1567H33.7687L36.0312 32.7614H16.3723L17.4965 27.0638H37.1682L39.1647 17.0929H19.5385L20.6598 11.3953H51.8979L45.3591 44.1567H58.9247L65.4606 11.3953H76.849L70.3131 44.1567H83.9826L87.3651 27.0638H97.2251L93.8455 44.1567H107.45L116.269 0H102.628L99.1647 17.0929ZM157.369 5.69764H161.907L163.031 0H158.514L157.369 5.69764ZM169.008 5.69764H173.549L174.67 0H170.153L169.008 5.69764ZM211.453 5.69764H215.991L217.118 0H212.599L211.453 5.69764ZM234.169 14.1131C226.25 14.1131 220.693 19.7252 218.914 29.5138C218.634 31.0458 218.491 32.5998 218.487 34.1573C218.487 40.8435 222.519 45 229.019 45C230.88 45.0049 232.722 44.6337 234.436 43.9087C236.15 43.1838 237.7 42.1199 238.993 40.7808L239.033 40.7381L236.516 37.65L236.47 37.5959L236.422 37.6472C235.563 38.7237 234.473 39.5932 233.233 40.1914C231.993 40.7895 230.635 41.101 229.258 41.1028C226.16 41.1028 222.849 39.2425 222.849 34.0348C222.86 32.5243 223.02 31.0185 223.327 29.5394C223.793 26.3658 225.129 23.3838 227.186 20.9246C228.016 20.0092 229.029 19.2776 230.158 18.7767C231.287 18.2758 232.508 18.0167 233.743 18.0159C234.928 17.9624 236.103 18.2461 237.133 18.834C238.163 19.4219 239.005 20.29 239.562 21.3377L239.599 21.3975L242.804 18.674L242.849 18.6341L242.815 18.5857C241.894 17.1454 240.609 15.9736 239.091 15.1884C237.574 14.4032 235.876 14.0323 234.169 14.1131ZM263.133 13.4735C261.541 13.3947 259.95 13.658 258.468 14.2457C256.986 14.8334 255.647 15.7318 254.541 16.8807L257.945 0H253.556L244.739 44.1567H249.128L252.788 25.6066C254.356 17.7895 260.415 17.3935 261.61 17.3935C262.324 17.3207 263.044 17.4061 263.721 17.6436C264.397 17.881 265.013 18.2648 265.525 18.7675C266.036 19.2702 266.431 19.8796 266.681 20.5522C266.93 21.2249 267.029 21.9444 266.969 22.6595C266.948 23.601 266.845 24.5389 266.662 25.4627L262.939 44.1567H267.322L271.173 25.0568C271.372 24.0648 271.475 23.0559 271.48 22.0442C271.559 20.9167 271.399 19.7852 271.011 18.724C270.622 17.6627 270.014 16.6958 269.225 15.8864C268.437 15.0771 267.487 14.4438 266.437 14.0279C265.387 13.6121 264.261 13.4231 263.133 13.4735ZM203.968 44.0841L203.954 44.1581H208.281L214.187 14.2455H209.932L203.968 44.0841ZM124.604 18.4376L124.591 18.5188H139.279L119.914 40.5472L119.905 40.5586L119.178 44.1581H140.035L140.856 39.8849H125.264L144.687 17.8564L144.695 17.8422L145.425 14.2455H125.415L124.604 18.4376ZM196.764 13.8809C195.201 13.8398 193.65 14.1607 192.232 14.8184C190.814 15.4761 189.567 16.453 188.588 17.6727L189.26 14.3125L189.271 14.2455H185.002L179.101 44.0841L179.09 44.1581H183.423L187.032 25.8545C187.955 21.161 191.54 17.7524 195.561 17.7524C196.371 17.7329 197.174 17.9132 197.899 18.2774C198.623 18.6415 199.247 19.1783 199.715 19.8406L199.758 19.8947L203.271 16.7268L203.237 16.6841C202.442 15.7553 201.445 15.0201 200.324 14.5343C199.202 14.0486 197.984 13.8251 196.764 13.8809ZM170.624 14.2455H175.013L175.001 14.3167L169.104 44.1581H164.834L164.848 44.0841L165.413 40.9788C164.321 42.1599 162.985 43.0883 161.498 43.6994C160.011 44.3105 158.408 44.5895 156.802 44.5171C155.69 44.567 154.579 44.3806 153.544 43.9702C152.508 43.5598 151.571 42.9346 150.795 42.1359C150.018 41.3371 149.418 40.3828 149.036 39.3356C148.654 38.2885 148.498 37.1723 148.577 36.0604C148.59 35.1506 148.693 34.2444 148.886 33.3554L148.936 33.0848L152.667 14.2455H156.997L156.983 14.3167L153.316 32.6888C153.142 33.6002 153.043 34.5244 153.022 35.4521C152.966 36.1616 153.067 36.8747 153.318 37.5405C153.569 38.2064 153.964 38.8087 154.474 39.3047C154.983 39.8008 155.596 40.1783 156.268 40.4105C156.94 40.6428 157.655 40.724 158.362 40.6484C159.536 40.6484 165.462 40.2552 167.008 32.5392L170.624 14.2455Z" fill="black"/>
</svg>
