<svg width="70" height="70" viewBox="0 0 70 70" fill="none" xmlns="http://www.w3.org/2000/svg">
<path d="M42.8514 25.8871C42.8514 21.9071 45.5457 18.0471 47.0157 18.7743C48.6914 19.6143 45.76 23.3629 42.8514 25.8871ZM24.53 27.3371C24.53 24.1371 27.6871 18.0571 29.6157 18.7C31.8957 19.46 27.7271 25.5929 24.53 27.3371ZM21.3286 50.2229C19.8771 50.2886 18.9057 49.36 18.9057 47.81C18.9057 43.6457 24.6843 39.6671 29.0486 37.5314C28.2743 43.3457 26.31 49.9986 21.3286 50.2229ZM47.9886 36.6529C44.6929 36.6529 42.1743 39.0771 42.1743 41.9843C42.1743 44.4086 43.6314 46.3471 45.5643 46.3471C46.2486 46.3471 46.9257 45.9571 46.9257 45.0914C46.9257 43.8243 45.2543 43.52 45.38 41.6357C45.4643 40.3929 46.6357 39.5614 47.7986 39.5614C50.1229 39.5614 51.21 41.8143 51.21 44.1386C51.1157 47.7286 48.4729 50.2214 45.3757 50.2214C41.3014 50.2214 38.6843 46.3471 38.6843 42.1771C38.6843 35.9686 42.7586 33.5457 44.8929 32.9671C44.9129 32.9671 50.4671 33.9543 50.2943 31.5057C50.2143 30.4286 48.6129 30.0143 47.4557 29.97C46.1686 29.92 44.8686 30.3829 44.8686 30.3829C44.1943 30.04 43.7257 29.37 43.4357 28.5986C47.4114 25.59 50.2229 22.6843 50.2229 19.3871C50.2229 17.6429 49.0571 16.0914 46.8271 16.0914C42.8514 16.0914 39.8457 21.1329 39.8457 25.69C39.8457 26.4629 39.8457 27.2414 40.0457 27.9186C37.5229 29.7586 35.6471 30.9057 32.2571 32.9414C32.2571 32.5171 32.3457 31.4214 32.6314 30.0043C33.7929 28.7429 35.3886 26.8529 35.3886 25.3971C35.3886 24.72 35.0043 24.1357 34.2214 24.1357C32.2857 24.1357 30.8343 27.0471 30.4457 29.0829C29.5729 30.1543 27.8271 31.5114 26.37 31.5114C25.2086 31.5114 24.8186 30.4443 24.72 30.0543C28.4057 28.7929 32.9629 23.7514 32.9629 19.1943C32.9629 18.2271 32.5743 16.0914 29.6671 16.0914C25.3043 16.0914 21.6243 22.59 21.6243 27.6257C20.0686 27.6257 19.49 25.98 19.49 24.7186C19.49 23.4557 19.9743 22.2 19.9743 21.81C19.9743 21.4214 19.78 20.9386 19.1957 20.9386C17.7443 20.9386 16.8714 22.8771 16.8714 25.1071C16.9714 28.21 19.0057 30.1543 21.7186 30.3443C22.1071 32.1886 23.7529 33.9343 25.7871 33.9343C27.05 33.9343 28.6 33.5457 29.6671 32.5786C29.5729 33.2557 29.4786 33.84 29.3786 34.4186C25.11 36.6529 22.0071 38.2029 19.1957 40.7229C16.9714 42.7614 15.71 45.4743 15.71 47.6043C15.71 50.5171 17.55 53.23 21.33 53.23C25.7871 53.23 29.1843 49.6443 30.8343 44.6971C31.6071 42.3729 31.9171 38.9871 32.1157 35.88C36.57 33.3557 38.6843 31.9014 41.0129 30.25C41.3029 30.7343 41.5957 31.1214 41.98 31.4114C39.9457 32.4786 35.0986 35.4857 35.0986 42.5614C35.0986 47.6029 38.4886 53.2286 45.1829 53.2286C50.7086 53.2286 54.4886 48.67 54.4886 44.3057C54.4871 40.3343 52.2571 36.6529 47.9886 36.6529ZM64.6586 44.9814C64.6443 45.0114 64.59 45.0514 64.48 45.0157C64.3943 44.9857 64.3757 44.9457 64.3757 44.89C64.38 44.8357 65.5471 41.3843 65.5371 37.43C65.5271 33.1557 63.7929 30.5371 61.5686 30.5371C60.2071 30.5371 59.2386 31.51 59.2386 32.9671C59.2386 35.5843 62.4357 35.78 62.4357 41.4986C62.4357 43.8229 61.9514 46.0529 61.18 48.4757C57.5886 60.5929 46.1486 66.2186 35.0043 66.2186C29.8629 66.2186 26.2114 65.1614 25.1257 64.6743C25.0814 64.6486 25.04 64.5643 25.0757 64.4786C25.1 64.4143 25.1757 64.3643 25.22 64.3843C25.66 64.5543 28.7957 65.5414 32.6757 65.5414C36.94 65.5414 39.4629 63.7971 39.4629 61.6614C39.4629 60.3057 38.3957 59.2386 37.04 59.2386C34.4214 59.2386 34.2229 62.5343 28.6014 62.5343C26.1786 62.5343 24.0443 62.05 21.5257 61.2714C9.5 57.5886 3.77571 46.2486 3.78 35.0029C3.78429 29.5229 5.32143 25.1586 5.34571 25.1186C5.36571 25.09 5.43429 25.0586 5.51857 25.09C5.60429 25.1186 5.62286 25.1886 5.61857 25.2143C5.48 25.6686 4.46143 28.7957 4.46143 32.6757C4.46143 36.9443 6.20571 39.4629 8.43571 39.4629C9.69286 39.4629 10.76 38.4957 10.76 37.1386C10.76 34.5171 7.55857 34.2271 7.55857 28.6029C7.55857 26.1786 8.04714 24.0443 8.82 21.5257C12.5057 9.50286 23.8514 3.86857 35.0014 3.78143C40.1829 3.74143 44.7157 5.29286 44.89 5.43143C44.92 5.45714 44.95 5.52286 44.92 5.60143C44.8786 5.69571 44.8186 5.70571 44.79 5.7C44.7357 5.69571 41.7871 4.46286 37.3243 4.46286C33.1557 4.45857 30.5371 6.20429 30.5371 8.43714C30.5371 9.69429 31.51 10.7614 32.96 10.7614C35.5786 10.7614 35.7729 7.56429 41.3986 7.56429C43.8157 7.56429 45.9514 8.04286 48.47 8.82143C60.5929 12.5057 66.1086 23.9457 66.2129 35.0014C66.27 40.6629 64.6743 44.9457 64.6586 44.9814ZM35.0029 1.65C16.5814 1.65 1.65143 16.5757 1.65143 35.0014C1.65143 53.4229 16.5814 68.3486 35.0029 68.3486C53.42 68.3486 68.35 53.4229 68.35 35.0014C68.35 16.6757 53.42 1.65 35.0029 1.65ZM35.0029 70C15.7086 70 0 54.3914 0 35.0029C0 15.7029 15.7086 0 35.0029 0C54.2914 0 70 15.7029 70 35.0029C70 54.3914 54.2914 70 35.0029 70Z" fill="black"/>
</svg>
