<svg width="218" height="50" viewBox="0 0 218 50" fill="none" xmlns="http://www.w3.org/2000/svg">
<path d="M25.4291 0C39.4448 4.448e-05 50.8524 11.4585 50.8107 25.635C50.8105 36.9677 43.5303 46.5561 33.4286 49.9517C32.1642 50.2069 31.7003 49.3995 31.7001 48.7225C31.7001 47.8736 31.7416 45.113 31.7416 41.6757C31.7416 39.2539 30.9408 37.7273 30.0144 36.92C35.6976 36.2846 41.6305 34.1236 41.6305 24.2752C41.6305 21.4732 40.662 19.1817 39.0226 17.4005C39.2724 16.7651 40.1572 14.1294 38.7676 10.6087C38.7296 10.5971 36.5752 9.95639 31.7782 13.2393C29.7591 12.6873 27.5683 12.3897 25.4243 12.3897C23.28 12.3897 21.1405 12.6768 19.0691 13.2393C14.2467 9.94773 12.0999 10.6025 12.0797 10.6087C10.6901 14.1346 11.5697 16.7651 11.8247 17.4005C10.227 19.1817 9.2168 21.4732 9.2168 24.2752C9.21683 34.1183 15.15 36.3262 20.7915 36.92C20.0785 37.5553 19.4018 38.7014 19.1935 40.3574C17.7153 41.0396 14.0575 42.1439 11.7833 38.2383C11.7833 38.2383 10.4347 35.7797 7.86892 35.6078C7.84087 35.6078 5.40031 35.6165 7.70303 37.1751C7.71941 37.1826 9.39418 37.9562 10.5232 40.9103C10.5369 40.9523 12.029 45.4858 19.0691 43.9669C19.0691 46.0918 19.1106 48.1288 19.1106 48.7225C19.1104 49.3994 18.6474 50.2066 17.3834 49.9517C7.28164 46.5561 0.000243184 36.9677 0 25.635C0 11.4585 11.367 0 25.4243 0H25.4291Z" fill="black"/>
<path d="M85.4359 5.07793C92.7189 5.07795 95.6004 6.69838 96.0738 7.03587C96.248 7.1566 96.2982 7.33954 96.2982 7.49362L94.8942 13.4516C94.8942 13.7766 94.5583 14.1439 94.1929 14.0315C93.0303 13.669 91.1992 12.9182 86.9558 12.9182C82.052 12.9182 76.8278 14.3771 76.8278 25.4434C76.8278 36.5096 81.8442 37.8257 85.4359 37.8257C88.4617 37.8257 89.5668 37.4553 89.5796 37.451V29.7889H84.676C84.3521 29.7889 84.0905 29.5219 84.0905 29.1969V23.0314C84.0905 22.7064 84.3521 22.443 84.676 22.443H97.2485C97.5723 22.443 97.834 22.7064 97.834 23.0314V42.2592C97.834 42.3674 97.8136 42.6087 97.6437 42.7047C97.6437 42.7047 93.4745 45.655 86.5984 45.655C78.294 45.655 68.4407 43.0885 68.4405 25.8731C68.4405 8.65703 77.0484 5.07377 85.4359 5.07793Z" fill="black"/>
<path d="M173.193 18.7688C173.517 18.7688 173.779 19.0354 173.779 19.3645V35.2514C173.779 37.7387 174.456 38.8925 176.984 38.8926C179.513 38.8926 181.299 37.584 181.299 37.584V19.3645C181.299 19.0354 181.56 18.7688 181.884 18.7688H188.902C189.225 18.769 189.491 19.0354 189.491 19.3645V44.305C189.491 44.63 189.225 44.897 188.905 44.897L184.371 44.9178C184.147 44.9178 183.936 44.755 183.857 44.5967C183.778 44.4384 183.599 43.0843 183.599 43.0843C183.599 43.0843 179.862 45.6512 175.233 45.6514C169.586 45.6514 165.483 43.8422 165.483 36.4549V19.3645C165.483 19.0354 165.749 18.7688 166.068 18.7688H173.193Z" fill="black"/>
<path fill-rule="evenodd" clip-rule="evenodd" d="M200.814 6.54394C201.138 6.54396 201.4 6.80682 201.4 7.13596V19.7185C201.418 19.7064 204.125 17.9315 208.101 17.9315C212.092 17.9315 218 19.4269 218 30.8802C218 42.3338 214.301 45.6171 207.852 45.6172C202.389 45.6172 199.488 42.889 199.457 42.8597C199.454 42.8837 199.277 44.3739 199.158 44.5723C199.033 44.772 198.863 44.8883 198.643 44.8885H193.717C193.394 44.8881 193.133 44.6217 193.133 44.2928V7.13596C193.133 6.81117 193.394 6.54426 193.717 6.54394H200.814ZM209.841 31.327C209.841 25.273 207.404 24.5062 204.875 24.7354C202.881 24.9139 201.258 25.9106 201.246 25.9182V37.6841C201.246 37.6841 202.895 38.7932 205.332 38.8682H205.336C208.741 38.9682 209.841 37.7096 209.841 31.327Z" fill="black"/>
<path d="M124.671 11.2691C124.978 11.2692 125.115 11.4021 125.115 11.6683C125.115 11.6724 125.123 18.7066 125.123 18.7066H130.429C130.753 18.7066 131.015 18.9684 131.015 19.2974V25.0223C131.015 25.3472 130.753 25.6143 130.429 25.6143H125.123V36.0594C125.123 37.6344 126.008 38.8511 128.616 38.8511C129.429 38.851 130.218 38.7266 130.529 38.7266C130.841 38.7267 131.114 38.9885 131.11 39.3174V44.3428C131.11 44.5802 130.99 44.7971 130.778 44.8762C130.429 45.0055 128.324 45.572 126.564 45.572C122.715 45.572 117.006 44.7714 117.006 36.6051V25.6143H113.297C112.973 25.6143 112.712 25.3514 112.712 25.0223V20.4521C112.712 20.1815 112.89 19.9567 113.135 19.8857C113.38 19.8149 117.006 18.9348 117.006 18.9348V11.6646C117.006 11.3938 117.155 11.2691 117.437 11.2691H124.671Z" fill="black"/>
<path d="M109.506 18.7139C109.83 18.7139 110.092 18.981 110.092 19.3059V43.9388C110.092 44.5468 109.922 44.8883 109.224 44.8885H102.867C102.286 44.8884 101.837 44.6718 101.837 43.951V19.3767C101.837 19.0476 102.128 18.7139 102.452 18.7139H109.506Z" fill="black"/>
<path d="M142.16 6.54394C142.484 6.54426 142.745 6.80701 142.745 7.13596V20.8562H153.774V7.13596C153.774 6.81098 154.036 6.54394 154.359 6.54394H161.434C161.758 6.54394 162.016 6.80681 162.016 7.13596V44.2928C162.012 44.6218 161.754 44.8882 161.431 44.8885H154.339C154.015 44.8885 153.753 44.6219 153.753 44.2928L153.774 28.401H142.745V44.2928C142.744 44.6217 142.484 44.8881 142.16 44.8885H135.084C134.76 44.8884 134.499 44.6219 134.499 44.2928V7.13596C134.499 6.81099 134.76 6.54397 135.084 6.54394H142.16Z" fill="black"/>
<path d="M106.035 7.3862C108.555 7.3862 110.598 9.45201 110.598 12.01C110.598 14.5641 108.555 16.6351 106.035 16.6351C103.514 16.6349 101.471 14.5681 101.471 12.01C101.472 9.45216 103.515 7.38643 106.035 7.3862Z" fill="black"/>
</svg>
