<svg xmlns="http://www.w3.org/2000/svg" height="800" width="1200" viewBox="-446.8638 -125 3872.8196 750">
    <path d="M2343.883 192.59h177.157c53.194 0 93.647 4.93 116.385 17.67 22.877 12.6 32.967 35.385 32.967 65.748v146.84H2576.7v-139.26c0-17.717-5.069-27.853-12.648-32.875-7.58-5.068-25.248-7.58-50.59-7.58h-75.884V422.85h-93.694zM997.584 422.863h-98.716V106.49h98.716zM580.069 291.218V235.56h242.905v187.294H602.806c-40.5 0-73.374-2.511-93.647-7.626-22.784-2.558-43.01-10.137-63.19-20.273-25.342-12.694-43.104-30.317-55.752-50.59-12.694-20.227-17.715-45.522-17.715-73.327 0-55.752 17.715-96.158 55.75-124.057 37.897-25.295 96.112-40.5 174.554-40.5h220.168v55.658H602.806c-40.5 0-70.863 7.58-88.532 25.295-17.762 17.762-27.899 43.057-27.899 81 0 32.874 10.137 58.262 27.899 73.42 17.67 15.205 48.032 22.784 88.532 22.784h116.431v-73.42z"
          fill-rule="evenodd" fill="white"/>
    <path d="M1245.548 425.332c-58.122 0-106.248-10.137-139.168-30.363-35.385-22.785-53.1-50.637-53.1-88.533 0-35.385 17.715-65.84 53.1-86.068 32.92-22.83 81.046-32.92 139.168-32.92 5.115 0 10.183.046 15.112.232 51.055 1.628 91.555 11.904 121.593 32.688 35.431 20.227 53.147 50.683 53.147 86.068 0 37.896-17.716 65.748-50.637 88.533-35.431 20.226-81 30.363-139.215 30.363m0-48.033c27.9 0 50.683-7.672 65.888-17.762 15.205-12.74 25.249-30.41 25.249-53.1 0-20.32-10.044-37.99-25.249-50.684-15.205-12.6-37.989-17.669-65.888-17.669-30.316 0-53.1 5.068-68.259 17.67-15.158 12.693-22.784 30.363-22.784 50.682 0 22.691 7.626 40.36 22.784 53.101 15.159 10.09 37.943 17.762 68.26 17.762"
          fill-rule="evenodd" fill="white"/>
    <path d="M1670.731 422.835h-177.157V106.462h96.158v86.115h81c35.477 0 63.283 2.51 86.02 7.532 22.877 5.069 40.547 15.205 55.705 27.9 12.694 10.09 22.83 20.18 30.317 32.92 5.115 12.6 10.23 27.806 10.23 42.871 0 38.082-17.716 65.841-48.08 86.114-30.41 22.784-73.466 32.921-129.078 32.921zm0-50.636c27.806 0 48.126-5.069 58.216-15.159 15.251-7.625 22.784-25.341 22.784-48.079 0-25.388-7.533-40.5-22.784-53.24-12.648-7.533-33.34-14.507-58.634-14.507-5.301 0-11.857-.605-24.877-.605h-55.704V372.2h63.283zm407.425 2.548h83.51v-45.615h-111.363c-22.69 0-37.477-.883-46.684 4.138-9.067 5.069-11.485 11.067-11.485 21.25 0 7.58 2.744 12.369 10.09 17.67 4.092 2.929 20.274 2.557 40.547 2.557zm0 48.079h-73.42c-35.432 0-63.191-5.069-83.465-17.763-17.715-12.554-27.805-27.759-27.805-47.986 0-27.945 10.09-45.614 32.874-58.215 22.83-10.137 58.169-17.762 111.409-17.762h123.917v-5.069c0-12.694-7.579-22.784-17.716-27.852-12.6-5.068-35.431-10.09-65.794-10.09h-161.953v-45.475h194.966c50.497 0 85.975 4.929 111.27 20.18 25.295 15.205 37.942 35.385 37.942 65.795v144.237z"
          fill-rule="evenodd" fill="white"/>
    <path d="M28.314 278.57c25.341 22.738 129.078 113.92 129.078 113.92S37.334 487.904 27.198 495.53c-16.46 13.159-35.339-5.3-21.622-22.18 62.308-51.798 45.429-142.19-1.813-179.017-12.322-13.345 8.184-34.269 24.55-15.763m.001-271.246c25.341 22.737 129.078 113.92 129.078 113.92S37.334 216.658 27.198 224.33c-16.46 13.113-35.339-5.394-21.622-22.226C67.884 150.305 51.005 59.867 3.763 23.087-8.56 9.742 11.947-11.23 28.313 7.324m162.744 142.2c25.341 22.691 129.078 113.92 129.078 113.92s-120.057 95.46-130.194 103.04c-16.46 13.159-35.385-5.347-21.622-22.18 62.308-51.799 45.429-142.19-1.813-178.97-12.322-13.346 8.184-34.316 24.55-15.81"
          fill-rule="evenodd" fill="white"/>
    <path d="M2715.913 192.59h68.352v-86.114h93.6v86.115h101.227v45.521h-101.226v93.6c0 15.066 5.068 27.853 15.158 35.432 7.672 5.068 22.877 10.137 45.568 10.137h40.5v45.568h-86.068c-35.431 0-63.19-7.626-80.906-20.227-20.227-10.136-27.853-30.41-27.853-53.194V238.112h-68.352z"
          fill-rule="evenodd" fill="white"/>
</svg>