<svg width="168" height="55" viewBox="0 0 168 55" fill="none" xmlns="http://www.w3.org/2000/svg">
<path d="M71.9661 28.9438C71.9661 36.8567 65.7789 42.6876 58.1857 42.6876C50.5926 42.6876 44.4053 36.8567 44.4053 28.9438C44.4053 20.9751 50.5926 15.2 58.1857 15.2C65.7789 15.2 71.9661 20.9751 71.9661 28.9438ZM65.9337 28.9438C65.9337 23.999 62.3477 20.6157 58.1857 20.6157C54.0237 20.6157 50.4377 23.999 50.4377 28.9438C50.4377 33.839 54.0237 37.2719 58.1857 37.2719C62.3477 37.2719 65.9337 33.8328 65.9337 28.9438ZM101.695 28.9438C101.695 36.8567 95.5074 42.6876 87.9143 42.6876C80.3211 42.6876 74.1338 36.8567 74.1338 28.9438C74.1338 20.9813 80.3211 15.2 87.9143 15.2C95.5074 15.2 101.695 20.9751 101.695 28.9438ZM95.6622 28.9438C95.6622 23.999 92.0762 20.6157 87.9143 20.6157C83.7523 20.6157 80.1663 23.999 80.1663 28.9438C80.1663 33.839 83.7523 37.2719 87.9143 37.2719C92.0762 37.2719 95.6622 33.8328 95.6622 28.9438ZM130.184 16.0303V40.7047C130.184 50.8545 124.202 55 117.129 55C110.471 55 106.464 50.5447 104.952 46.9012L110.204 44.7138C111.14 46.9508 113.431 49.5905 117.123 49.5905C121.65 49.5905 124.456 46.7958 124.456 41.535V39.5584H124.245C122.895 41.2252 120.294 42.6814 117.011 42.6814C110.143 42.6814 103.85 36.6956 103.85 28.9933C103.85 21.2353 110.143 15.2 117.011 15.2C120.287 15.2 122.889 16.6562 124.245 18.2734H124.456V16.0365H130.184V16.0303ZM124.883 28.9933C124.883 24.1539 121.656 20.6157 117.55 20.6157C113.388 20.6157 109.901 24.1539 109.901 28.9933C109.901 33.7832 113.388 37.2719 117.55 37.2719C121.656 37.2719 124.883 33.7832 124.883 28.9933ZM139.63 1.56771V41.8449H133.746V1.56771H139.63ZM162.558 33.4672L167.24 36.5902C165.729 38.8272 162.087 42.6814 155.794 42.6814C147.991 42.6814 142.163 36.646 142.163 28.9376C142.163 20.7644 148.04 15.1938 155.119 15.1938C162.248 15.1938 165.735 20.8698 166.874 23.937L167.5 25.4985L149.136 33.1078C150.542 35.8653 152.729 37.2719 155.794 37.2719C158.866 37.2719 160.997 35.7599 162.558 33.4672ZM148.145 28.5224L160.421 23.4227C159.746 21.7063 157.714 20.5104 155.324 20.5104C152.258 20.5104 147.991 23.2182 148.145 28.5224ZM22.1337 25.3684V19.5375H41.7731C41.9651 20.5537 42.0642 21.7559 42.0642 23.0571C42.0642 27.4318 40.8689 32.8414 37.0165 36.6956C33.2695 40.5994 28.482 42.6814 22.1399 42.6814C10.3847 42.6814 0.5 33.1016 0.5 21.3407C0.5 9.57976 10.3847 0 22.1399 0C28.643 0 33.2757 2.55295 36.7564 5.88046L32.644 9.99493C30.148 7.65266 26.7664 5.83089 22.1337 5.83089C13.5496 5.83089 6.83589 12.7524 6.83589 21.3407C6.83589 29.929 13.5496 36.8505 22.1337 36.8505C27.7016 36.8505 30.8726 34.6136 32.9041 32.5811C34.5515 30.9328 35.6354 28.5782 36.0627 25.3622L22.1337 25.3684Z" fill="black"/>
</svg>
