<svg width="276" height="45" viewBox="0 0 276 45" fill="none" xmlns="http://www.w3.org/2000/svg">
<path fill-rule="evenodd" clip-rule="evenodd" d="M231.6 3.48301C230.174 3.77131 227.516 4.23065 225.657 4.90432C222.468 6.06595 219.573 7.80298 216.942 9.51689C215.493 10.4556 214.503 12.6299 213.606 14.1262C211.919 16.9035 210.566 22.0186 212.835 25.4972C213.197 26.0272 213.945 26.534 214.307 27.063C215.032 28.1772 216.361 29.5532 217.473 30.2268C218.267 30.7094 219.113 31.0484 219.935 31.5552C220.637 31.9914 221.264 32.9532 222.06 33.2227C222.808 33.4371 223.315 33.5341 224.039 33.85C224.379 33.9704 224.667 34.3801 225.029 34.4773C225.949 34.7654 227.106 35.0537 228.338 35.3694C230.174 35.8289 231.842 36.433 234.254 35.4158C234.812 35.1741 236.019 34.5237 236.332 34.0168C236.838 33.1488 236.889 32.3768 237.251 31.2671C237.54 30.3008 238.144 29.3809 238.289 28.4655C238.409 27.6206 238.121 26.7516 237.396 25.8593C237.154 25.5679 236.838 25.158 236.187 25.326C235.318 25.5203 234.375 26.5098 233.7 26.9702C233.218 27.3049 232.251 27.9089 231.721 28.0568C227.906 29.0695 218.291 23.9036 217.761 21.7072C216.603 17.0238 222.277 11.7839 224.838 10.0933C225.15 9.90347 225.657 9.34567 225.996 9.25187C226.381 9.10393 227.13 9.13152 227.348 9.05755C227.878 8.91288 228.483 8.59803 228.872 8.47665C229.886 8.16524 231.141 9.13152 231.21 10.3119C231.335 12.1229 230.369 14.5391 230.973 15.2592C231.382 15.7694 232.734 15.9141 233.435 16.1051C235.583 16.7324 235.802 17.2657 237.274 13.9584C237.805 12.7271 237.973 10.0469 237.466 8.16524C236.861 5.91801 235.97 3.96563 234.426 3.62664C233.651 3.43232 233.725 3.31179 232.734 3.33507C231.721 3.36162 232.057 3.38594 231.6 3.48301ZM187.864 3.96563C185.596 4.51877 183.397 4.68672 181.078 5.6761C179.555 6.33097 177.77 6.49771 176.2 6.88429C173.904 7.46398 171.733 7.17586 170.017 8.21163C169.27 8.67218 168.591 12.4388 167.843 13.3079C165.478 16.1558 165.501 17.554 165.162 18.158C164.994 18.4737 164.2 17.9901 161.904 24.7959C160.356 29.4085 161.178 36.094 169.293 37.7846C171.83 38.3379 176.152 38.435 178.179 37.1066C179.871 35.9967 181.391 34.5744 180.4 31.6016C180.21 31.002 180.233 30.2775 179.749 30.0082C178.42 29.3114 176.441 30.6398 175.525 31.0958C173.545 32.0621 171.394 32.5215 168.326 31.0484C166.226 30.0589 165.116 28.5362 167.41 27.0906C167.675 26.9195 168.159 26.4357 168.498 26.3429C169.679 25.9532 171.323 26.3153 172.7 25.9808C173.759 25.7113 174.024 25.3768 175.669 25.5203C176.827 25.6418 178.058 25.0377 179.68 24.9173C181.706 24.7959 181.827 24.6016 182.19 24.4105C183.323 23.8064 183.132 24.7726 184.82 23.9279C185.568 23.5413 185.424 21.271 185.039 20.573C184.675 19.895 184.652 18.1811 183.881 17.9394C183.082 17.6985 182.864 18.3258 182.529 18.5201C181.418 19.1938 179.703 19.6067 177.598 19.9181C175.354 20.2815 173.662 20.741 171.078 20.1877C173.155 20.6934 169.004 20.0906 169.851 18.6405C170.427 17.5771 171.417 16.2255 172.239 15.3332C173.955 13.4006 190.351 11.3246 191.149 10.5306C191.754 10.0933 191.317 8.38388 191.196 7.82625C191.075 7.39001 190.858 6.13562 190.787 5.87059C190.713 5.55902 189.891 5.12295 189.891 4.92863C189.867 4.03632 189.867 3.45542 187.864 3.96563ZM105.104 3.98874C102.594 4.3279 102.181 4.80707 101.214 5.07657C99.1879 5.55902 97.7848 5.3647 95.7112 5.87059C94.6937 6.13562 93.6343 6.76273 92.714 7.05534C92.0864 7.26966 91.5053 7.17586 91.0259 7.48726C90.0602 8.14196 90.6138 11.3015 90.3012 12.5835C90.0602 13.7165 88.6804 14.9942 88.2705 16.1558C86.4588 21.3914 84.1167 30.4918 88.875 34.5004C89.5764 35.0813 90.5155 35.2711 91.4357 35.6577C94.7213 36.962 95.4693 36.3114 98.388 36.5997C98.7271 36.624 98.9227 36.7675 99.4994 36.6471C100.252 36.4561 101.191 35.7086 101.99 35.3451C103.678 34.5468 103.919 31.5785 103.221 30.0589C103.05 29.6968 102.762 29.2881 102.497 28.8983C102.231 28.4655 102.06 28.0061 101.772 27.9598C100.252 27.9829 100.563 29.1169 99.5503 29.3809C97.1098 30.0358 93.3691 29.8646 91.7242 29.1169C90.9286 28.7536 89.8879 28.1772 90.2272 26.8731C91.0502 23.76 97.8356 24.0483 101.288 23.2024C102.134 22.9849 103.342 22.478 104.402 22.139C105.926 21.6564 107.227 21.4886 107.372 21.2467C107.808 20.7177 106.359 15.8908 105.224 15.5751C105.056 15.5287 104.332 15.6215 104.16 15.6722C103.439 15.8632 91.7009 20.402 94.2375 15.8168C94.5733 15.1664 94.9865 13.9351 95.4693 13.3775C97.1838 11.3755 98.8719 11.1105 100.852 10.8189C102.181 10.6046 103.653 10.1442 105.272 10.0238C106.651 9.92657 108.315 9.46603 109.691 9.41964C110.466 9.37326 111.14 9.46603 111.262 9.39654C111.55 9.1779 111.285 8.86322 111.527 8.30991C112.155 6.8136 110.708 6.40063 109.984 5.31728C109.788 5.02571 109.742 4.7143 109.57 4.30135C109.235 3.55267 106.311 3.81769 105.104 3.98874ZM272.144 0.635046C272.799 0.463827 271.326 0.80299 269.537 1.30871C269.105 1.4301 267.051 2.00997 266.205 1.88945C265.866 1.83876 265.503 2.41966 264.829 2.27499C264.541 2.22413 262.584 2.66036 260.506 2.9021C257.463 3.24127 255.869 3.55267 253.359 4.25375C252.728 4.4217 251.617 4.25375 250.99 4.4217C248.721 4.97829 247.151 4.80707 245.51 5.8937C243.386 7.26966 243.651 9.56431 243.554 11.9562C243.53 12.7038 242.006 15.1664 241.573 16.5414C240.728 19.2447 238.697 26.1012 239.906 29.6735C240.003 29.9154 240.389 30.2775 240.533 30.4686C241.621 32.1118 242.368 32.6651 244.205 33.5574C245.51 34.1614 249.033 35.3694 251.524 34.983C251.644 34.9597 252.342 34.5977 252.49 34.5744C253.211 34.38 253.815 34.6683 254.564 34.4032C255.604 34.0168 258.044 33.8964 259.177 33.172C260.772 32.1361 260.893 27.7885 258.792 27.2109C258.09 27.0399 257.537 27.4528 255.943 27.7178C252.634 28.2248 250.264 29.5025 246.281 27.9598C245.534 27.667 244.761 26.8962 245.05 25.8086C245.774 22.9616 255.023 24.9173 257.584 24.3873C259.49 23.9743 260.651 24.3133 261.618 23.1053C261.953 22.6733 262.027 22.0462 262.171 21.3207C262.366 20.4527 263.212 20.9353 262.343 18.9564C262.077 18.3258 260.531 15.9605 260.047 15.8168C258.839 15.4547 257.993 16.3701 257.366 16.5414C256.692 16.7091 255.725 16.4441 254.712 16.5181C253.187 16.6108 251.617 16.9498 251.231 16.6384C250.822 16.2994 249.131 17.1454 248.192 16.6617C246.932 16.0111 248.261 13.8844 248.48 13.1865C249.637 9.49361 253.164 10.3119 256.906 9.27619C261.786 7.87367 263.453 9.10393 266.399 8.38388C267.339 8.14196 268.427 8.35629 269.37 8.11438C270.336 7.87367 273.232 7.53796 273.669 7.63193C274.343 7.75228 275.36 7.68262 275.695 7.44088C276.08 7.22224 276.011 6.23269 275.96 5.84732C275.745 3.77131 275.164 3.04677 274.319 1.79237C273.789 0.993868 273.812 0.222086 272.144 0.635046ZM114.933 2.49363C112.033 3.26437 114.161 9.46603 113.798 12.0026C113.385 15.045 113.533 17.9394 112.93 20.8613C112.181 24.3873 111.382 27.9365 110.537 31.6293C109.714 35.1277 111.382 35.926 113.92 36.4561C114.255 36.5257 114.859 36.8878 115.318 36.4793C116.476 35.4434 115.969 31.5552 116.285 29.9849C116.671 28.2712 117.469 23.0589 118.484 22.0186C119.037 21.4653 119.617 20.9087 120.366 21.6333C122.178 23.3239 123.433 25.7622 124.642 28.0801C125.195 29.1402 126.547 29.7442 126.862 30.9281C127.346 32.7391 127.564 37.1297 128.843 37.905C129.349 38.1933 129.879 37.9524 130.604 38.096C130.943 38.17 131.863 38.5322 132.537 38.3146C133.359 38.0263 133.89 35.4667 134.084 34.5977C134.759 31.4581 133.55 28.7779 134.057 25.9069C134.084 25.7853 134.131 24.9637 134.155 24.8433C134.372 23.9036 133.913 22.817 134.108 21.874C134.568 19.7283 134.252 16.1317 134.614 13.2572C134.833 11.4219 134.326 10.0469 134.688 8.33301C134.977 6.8367 134.736 4.92863 134.155 3.52939C133.601 2.22413 130.436 2.44276 130.097 3.91477C129.856 4.90432 130.534 5.50833 130.293 6.57168C130.097 7.46398 129.953 9.78191 129.833 12.4112C129.614 17.0007 129.326 22.3807 127.466 21.5857C126.598 21.2003 125.798 20.1137 125.413 19.1707C125.101 18.4461 124.278 17.9161 123.893 17.2888C122.443 15.1156 120.658 13.8612 119.905 10.8454C118.966 7.05534 121.453 3.81769 117.587 2.68468C117.081 2.54001 115.778 2.27499 114.933 2.49363ZM149.853 1.67081C147.874 2.00997 146.061 1.64771 143.984 2.15464C141.45 2.75865 138.695 3.38594 136.716 4.68672C136.162 5.02571 136.088 6.54857 136.088 6.54857C135.772 12.6068 142.198 7.19897 144.517 8.57492C144.639 8.6489 145.001 9.01116 145.071 9.13152C145.145 9.22532 145.216 9.53999 145.239 9.61069C145.698 10.9901 145.555 14.1771 145.094 15.2361C144.853 15.8401 144.541 15.1897 144.397 15.8908C143.551 16.0344 142.078 16.2763 141.497 16.7588C141.037 17.1454 140.581 18.762 140.507 19.4124C140.122 22.552 142.51 23.082 142.947 23.3979C143.38 23.7093 143.551 22.891 144.755 23.2024C144.783 24.2162 144.708 24.6523 144.806 25.3027C144.951 26.3153 144.708 28.0292 144.467 29.2605C144.127 30.8541 143.38 35.2248 144.035 36.5764C144.3 37.1573 144.951 36.8414 146.061 37.5891C146.471 37.8784 147.269 38.361 148.236 38.0496C148.984 37.7846 149.055 36.5024 149.249 35.6103C149.565 34.0918 149.081 31.6988 149.346 29.8414C149.635 27.8151 150.142 22.9142 150.216 22.3807C150.504 22.0186 152.387 21.7304 153.742 21.3681C154.198 21.2467 154.733 20.7873 155.091 20.667C155.867 20.402 156.494 20.4251 157.145 20.1368C157.991 19.7514 158.884 19.0271 159.585 18.4737C161.588 16.8804 163.619 15.8908 163.958 15.3808C164.367 14.8031 164.414 14.1019 164.948 13.4006C166.756 11.1336 164.585 6.85998 162.749 4.64033C162.507 4.3279 162.267 3.86838 161.88 3.77131C161.253 3.57577 161.058 3.69734 160.598 3.43232C160.287 3.24127 159.752 2.66036 159.417 2.56312C158.813 2.37207 157.652 2.41966 157.024 2.27499C155.719 2.00997 151.448 1.4301 149.853 1.67081ZM149.997 7.92333C151.423 7.58554 152.823 7.80298 154.44 7.77987C156.034 7.75228 157.846 7.82625 158.934 8.9603C161.323 11.5201 154.055 15.0185 151.229 15.2128C149.997 15.3101 150.239 14.6088 150.313 13.7872C150.313 13.6934 150.071 12.1971 149.806 11.2551C149.491 10.1916 149.756 9.58759 149.756 9.58759C149.779 9.08065 149.249 8.09127 149.997 7.92333ZM201.193 0.342443C200.468 0.584184 199.167 2.22413 198.757 2.94849C198.394 3.57577 197.498 4.1334 197.163 4.76068C196.411 6.15872 195.542 7.46398 194.821 8.81563C193.226 11.8083 192.404 15.1421 190.642 18.0608C190.039 19.0767 188.589 19.1474 188.274 20.5223C187.841 22.3344 187.841 24.2659 187.162 25.8825C186.196 28.2248 184.723 29.0928 184.123 32.1825C183.612 34.7423 184.992 35.7781 186.535 36.2374C187.887 36.6471 188.542 34.9597 188.83 34.2818C189.555 32.4984 191.196 27.4252 192.813 26.8731C194.794 26.195 195.978 26.5098 198.246 25.6186C198.925 25.3768 201.825 25.5446 203.535 25.2796C203.512 26.4634 203.297 32.1594 203.321 33.7021C203.368 36.624 204.19 39.304 205.3 39.6896C206.147 40.0053 206.942 39.7403 207.69 39.8099C207.81 39.6189 207.787 39.4985 207.909 39.3273C207.983 39.2566 208.103 39.2566 208.15 39.1594C208.294 38.965 208.224 38.8204 208.317 38.5322C208.851 36.8878 208.996 33.8731 208.559 31.9914C207.932 29.2881 208.489 26.2922 208.465 23.8805C210.032 23.3006 210.274 22.891 210.492 21.006C210.539 20.6437 210.613 19.4864 210.613 19.4357C210.613 19.3417 210.59 18.836 210.59 18.836C210.636 18.7388 210.566 18.158 210.539 18.1116C210.297 17.5771 209.526 17.893 208.68 17.9161C208.825 16.6848 208.703 14.2465 208.415 12.7271C208.103 11.0132 208.438 10.1442 207.955 8.67218C207.835 8.30991 207.955 7.90022 207.569 7.19897C207.378 6.79032 207.378 6.28028 207.257 5.87059C207.039 5.07657 206.193 4.47239 205.878 3.79441C205.129 2.10377 204.455 -0.767465 201.193 0.342443ZM201.341 8.45337C202.187 8.23594 202.693 8.83891 203.2 9.78191C203.586 10.5063 203.368 16.1317 203.391 17.6744C201.532 17.9161 198.78 17.9394 196.509 17.893C196.461 17.3121 197.331 15.8401 198.274 13.9076C198.78 12.8949 198.971 11.8083 199.455 10.8685C200.133 9.58759 201.025 8.55061 201.341 8.45337ZM81.0996 2.03308C79.4822 2.44276 77.982 2.97608 76.4153 3.36162C75.4255 3.60336 74.5561 3.60336 73.4921 3.89166C72.9852 4.03632 71.8748 4.66344 71.3678 4.80707C70.4994 5.02571 70.3038 4.90432 69.3371 5.16934C69.0256 5.26642 68.2776 5.6054 67.9618 5.6761C66.9211 5.96767 65.8373 6.06595 65.1357 6.69324C63.5658 8.14196 63.5658 10.6742 64.6298 12.8242C65.1126 13.7872 66.5123 13.4758 66.2008 15.5011C65.6936 18.836 64.1934 20.0906 63.7835 21.8507C63.4953 23.0589 63.4444 24.1919 63.3747 25.3999C63.2267 28.4655 63.64 31.3134 65.5225 33.6081C66.3444 34.6208 71.4384 36.5024 73.1066 36.8647C75.4255 37.3484 77.0893 36.4793 78.7342 36.191C79.2138 35.7317 79.7937 35.0537 79.9385 34.5977C80.6864 32.1594 79.2138 28.7072 78.6835 28.5129C77.1126 28.5362 76.8241 29.5256 75.6398 29.8182C72.8648 30.4918 69.7503 29.0464 68.5892 27.8382C68.1296 27.3556 68.0589 26.2922 68.3241 25.7113C68.5428 25.2056 69.388 24.2162 69.895 24.0483C70.811 23.7324 71.4152 24.0019 72.3819 23.76C73.6125 23.4443 75.2775 22.9849 76.3877 22.7197C77.4053 22.4547 78.6835 23.1053 80.0125 22.7706C81.2907 22.4547 83.7069 22.139 84.1431 21.7304C84.4316 21.345 84.3111 19.8718 84.1431 19.291C83.8052 17.9394 83.4892 16.2255 82.2341 15.8632C80.4953 15.3332 77.7908 16.8295 74.9417 17.3121C72.2836 17.7483 70.2298 17.3861 70.9545 14.9247C71.2705 13.8612 71.2936 13.2803 71.9445 12.6068C73.1299 11.4219 75.3515 10.9901 77.6704 10.5063C78.4924 10.3352 79.4082 9.97296 80.2069 9.82933C81.2676 9.63828 82.2341 9.63828 83.1268 9.39654C83.6096 9.27618 84.553 8.9603 85.617 8.76925C86.6068 8.57492 87.7415 8.50096 88.053 8.23594C88.7777 7.60865 86.6301 3.45542 86.3649 2.99936C86.314 2.9021 86.314 2.92538 86.2676 2.82814C85.8588 1.67081 82.8385 1.59684 81.0996 2.03308ZM47.169 1.18836C45.7704 1.4301 42.1224 2.17774 41.8805 2.879C41.7368 3.24127 41.6628 4.1103 41.4441 5.0026C41.2021 6.03837 40.673 6.54857 40.937 7.48726C41.6154 9.8526 43.4515 9.66156 42.7963 11.9055C42.3875 13.3542 41.5645 17.628 40.1659 18.3524C39.4876 18.7146 38.4976 18.5201 38.163 18.7851C37.8934 19.2214 37.5818 22.2361 38.3298 23.7093C38.5718 24.1686 39.4179 24.6292 39.5616 25.0377C39.8035 25.7622 39.5847 27.3789 39.4876 27.741C38.4512 31.9914 37.921 36.7444 41.8065 37.6367C42.2428 37.7337 43.0151 37.831 43.1587 37.6134C45.6224 34.0642 42.4108 31.4812 43.9586 27.7885C44.7064 26.0272 45.1661 25.8329 46.3979 26.4126C48.1831 27.2585 50.8876 29.6735 51.6864 30.2268C54.6791 32.3028 56.0326 36.698 59.6064 35.6103C60.5255 35.322 62.8677 32.9068 62.4546 31.2395C62.3849 30.9512 62.0921 30.2775 61.9485 29.9618C61.1531 28.3915 59.0762 27.9089 57.3848 26.7516C56.7804 26.3153 56.2225 25.6186 55.6227 25.1813C54.9919 24.7219 54.4151 24.0483 53.9545 23.421C53.8108 23.2763 53.8108 22.9373 53.9312 22.6227C54.0992 22.213 54.8472 21.7304 55.1123 21.3681C56.3705 19.6543 57.6996 17.7727 58.2773 15.3808C59.6295 9.68466 56.66 4.05943 53.7877 2.2981C53.0618 1.86186 52.2862 1.64771 51.4179 1.38269C50.4777 1.11439 48.7864 0.87248 47.169 1.18836ZM48.9078 7.02774C50.9616 6.30666 53.1601 9.13152 53.4716 10.0005C53.7877 10.8928 53.5456 12.0259 53.3502 12.8242C53.0618 14.1019 51.4444 15.3332 50.4281 16.0111C49.8005 16.421 49.4383 17.554 48.6196 17.7218C44.8975 18.5434 47.5556 12.1705 47.6993 11.4725C47.918 10.4556 47.3369 9.22532 47.6529 8.26249C47.6993 8.04489 48.6891 7.10172 48.9078 7.02774ZM31.3035 44.6644C31.4947 44.5439 31.4947 44.4456 31.6151 44.3485C31.6891 44.2513 31.7631 44.1066 31.8338 44.0095C32.0746 43.7445 31.9542 43.7212 32.0746 43.285C32.9209 40.4139 32.1729 36.8647 33.1153 33.1257C33.4777 31.6016 34.0544 28.2479 34.6819 26.8255C35.0211 26.0736 35.8441 25.1349 36.0352 24.2162C36.7599 21.1263 34.4178 17.363 33.8367 17.1918C33.2091 16.3967 27.2933 17.5771 23.4774 18.6405C21.1352 19.3153 21.0888 18.3015 16.7659 19.3417C14.689 19.8254 13.0715 20.234 12.6353 22.3807C12.3701 23.5646 13.0715 27.0399 13.602 27.1878C15.5584 27.7885 16.5239 26.5838 19.1323 26.1243C20.7496 25.8593 21.692 26.0503 23.2587 25.6649C24.0353 25.4739 25.4572 24.7495 26.6424 25.1118C27.2456 25.3027 27.5584 26.1719 27.27 26.8731C27.0048 27.5235 26.4979 28.2943 25.941 28.6565C25.1223 29.2142 23.6961 30.2499 22.7525 30.4918C22.0279 30.6862 21.2789 30.4211 20.5818 30.6122C20.2194 30.7094 19.35 31.2162 18.8904 31.2902C16.9107 31.5552 13.9168 31.5088 12.2961 31.1698C11.6686 31.0252 10.7019 30.5658 10.1483 30.4211C8.04815 29.9385 5.26866 28.8983 4.7384 26.9426C3.69874 23.1053 10.8732 15.5751 12.7093 13.6934C14.6658 11.6869 16.5947 9.82933 18.9876 8.26249C19.9034 7.65951 20.8469 6.35425 22.0048 6.03837C22.5616 5.8937 22.9238 6.06595 23.1659 6.13562C25.2152 6.79032 26.1818 10.6509 26.6657 10.7946C28.2831 11.2782 29.5646 10.1916 29.9513 9.37326C30.434 8.28663 30.2396 6.257 29.8773 5.16934C29.3702 3.69734 27.4413 1.59684 26.1122 0.969727C25.6283 0.752123 25.0947 0.728847 24.5645 0.584184C24.033 0.411928 23.3016 0.0310369 22.4753 0H22.2842C22.0068 0.00896852 21.7208 0.0619039 21.4269 0.175706C18.5047 1.26233 16.9338 3.02246 14.8094 4.7143C14.0106 5.34159 13.1655 5.8937 12.3932 6.57168C9.90649 8.67218 6.33247 12.5095 4.61799 15.3564C3.4845 17.2149 1.98306 18.232 1.33239 20.7177C1.21198 21.177 0.630832 21.7536 0.513704 22.2604C0.365699 22.8403 0.561314 23.2267 0.416587 23.8064C0.259612 24.479 0.0288078 25.4541 0 26.4336V26.8212C0.0122477 27.2209 0.0652045 27.6173 0.17457 27.9829C0.272895 28.2943 0.630832 28.5129 0.728121 28.8276C0.923564 29.4085 0.969966 29.9154 1.16558 30.4686C1.3091 30.8308 1.71792 31.0959 1.86265 31.3366C2.70894 32.6187 3.09775 33.3431 4.37597 34.115C5.99333 35.0813 8.48026 35.755 10.4599 36.191C10.9439 36.285 11.5006 36.0464 11.9844 36.1403C12.1281 36.191 12.4905 36.5997 12.6353 36.624C13.4572 36.8183 14.5918 36.5997 15.4601 36.5764C20.3398 36.4793 23.0919 35.6577 26.1122 33.8964C26.4006 35.7781 26.0381 38.5554 25.9907 40.4879C25.9641 41.5988 26.1122 42.3232 26.1122 43.4795C26.2802 44.1806 28.3096 44.2789 28.8873 44.7108C29.7093 45.3148 31.0848 44.8079 31.3035 44.6644Z" fill="black"/>
</svg>
