<svg width="262" height="65" viewBox="0 0 262 65" fill="none" xmlns="http://www.w3.org/2000/svg">
<path d="M33.9453 38.1406C34.5961 37.6744 34.6885 38.1406 34.6885 38.1406L34.7822 38.793C34.8747 39.6276 34.507 39.6328 34.5029 39.6328C34.2256 39.5401 33.765 38.9858 33.7598 38.9795C32.5529 38.3276 32.2722 39.6293 32.2715 39.6328C32.5493 40.3759 33.4732 40.8411 33.4805 40.8447C34.4943 41.2146 35.0511 42.1348 35.0605 42.1504C35.8906 43.3531 34.7995 44.3727 34.7822 44.3887C33.7621 45.505 32.5568 44.5798 32.5508 44.5752L32.1787 44.4824C31.5394 45.032 31.5285 44.5006 31.5283 44.4824C31.4366 43.0108 31.7064 42.8993 31.7139 42.8965C31.9899 42.8042 32.175 43.2603 32.1787 43.2695C32.0857 43.6426 32.8301 44.0156 32.8301 44.0156C34.3172 44.7613 34.5029 43.2695 34.5029 43.2695C34.5956 42.4325 33.2084 41.7808 33.2012 41.7773C31.3423 40.938 31.5283 39.7256 31.5283 39.7256C31.5285 37.8773 33.1719 38.0438 33.2012 38.0469C33.3871 38.3266 33.9453 38.0474 33.9453 38.1406Z" fill="black"/>
<path d="M21.3955 37.7676C21.4038 37.7738 21.7712 38.0483 22.1387 38.1406H24.1846L24.9277 37.7676C24.9313 37.7676 25.2064 37.7705 25.1143 38.2334C25.1144 38.2355 25.2063 39.259 24.6494 39.3525C24.6494 39.3525 24.2778 39.2595 24.0918 38.7002C24.0918 38.6069 23.5332 38.2339 23.5332 39.2598C23.534 39.289 23.6257 42.526 23.5332 42.9902V43.7363C23.5381 43.7485 23.723 44.2045 23.998 44.3887C23.9988 44.3915 24.1832 45.041 23.7197 44.9482C23.7197 44.9482 22.6043 44.8551 22.3252 44.9482C22.3252 44.9482 21.6744 44.9482 22.3252 44.2021C22.3293 44.1959 22.5107 43.9128 22.5107 43.083C22.5107 43.0579 22.5109 39.3519 22.6035 39.166C22.6058 39.1541 22.6932 38.6978 22.418 38.5137H21.8604L21.21 39.166C21.21 39.166 21.024 39.8188 20.7451 39.166V38.793L21.1162 37.7676H21.3955Z" fill="black"/>
<path d="M44.2646 12.3086C44.54 12.3086 44.9058 12.3991 44.915 12.4014C45.1904 12.8619 44.7407 13.1406 44.7295 13.1475L44.543 13.707V18.3701C44.6343 18.5534 44.9953 19.0068 45.0078 19.0225C45.0078 19.3937 44.5475 19.3036 44.543 19.3027H43.2422C42.8703 19.3027 42.9629 18.8359 42.9629 18.8359C43.4247 18.6506 43.5193 17.8212 43.5205 17.8105V13.4277L43.0557 12.5879C42.9629 12.215 43.7998 12.2148 43.7998 12.2148L44.2646 12.3086Z" fill="black"/>
<path d="M18.792 12.2148C19.0679 12.1226 19.1621 12.3957 19.1641 12.4014L19.3496 13.0547C19.0715 13.7051 18.8857 13.1502 18.8848 13.1475C18.8846 12.8687 17.9615 12.6829 17.9551 12.6816C17.2149 12.5893 17.3039 13.6977 17.3047 13.707C17.0276 14.263 17.3928 15.0034 17.3975 15.0127C18.1335 15.3819 18.4142 14.8374 18.4199 14.8262C18.5112 14.7347 18.8714 14.7325 18.8848 14.7324C19.1608 15.1016 18.8903 15.8366 18.8848 15.8516C18.7921 16.1305 17.9602 15.5757 17.9551 15.5723C17.2244 15.5724 17.2121 16.0227 17.2119 16.0381V17.9971C17.212 18.37 17.584 18.6494 17.584 18.6494C19.2398 18.9262 19.3476 18.1986 19.3496 18.1836C19.8091 17.3538 19.9061 17.891 19.9082 17.9033C20.1837 19.4696 19.0068 19.3069 18.9785 19.3027C15.8178 19.3027 16.1895 19.0225 16.1895 19.0225C15.8205 18.9299 16.2751 18.3787 16.2822 18.3701L16.375 17.9971V13.334C16.375 13.1475 16.2822 13.0542 16.2822 12.9609C15.7342 12.7777 15.9041 12.3243 15.9102 12.3086L17.1191 12.2148C17.3041 12.3999 18.7707 12.2175 18.792 12.2148Z" fill="black"/>
<path d="M10.7041 12.2148C10.708 12.2181 11.2595 12.6828 10.5186 13.1475C10.5198 13.157 10.6174 13.9108 11.541 16.5977C11.542 16.6011 11.8202 17.6221 12.0986 16.8779L13.0283 13.707L12.75 12.7744C12.75 12.7744 12.4709 12.3076 12.8428 12.3076C12.8629 12.3056 13.7733 12.219 13.8652 12.5879L13.4932 13.4268C13.4932 13.4268 12.5636 17.7172 12.0059 18.5566C12.0042 18.573 11.906 19.4825 11.1689 18.7432C11.1689 18.7432 9.40262 13.3342 9.30957 13.1475L8.75195 12.7744C8.74807 12.7695 8.38396 12.3076 9.03125 12.2148H10.7041Z" fill="black"/>
<path fill-rule="evenodd" clip-rule="evenodd" d="M35.6191 12.3086C35.711 12.1243 36.438 12.2127 36.4551 12.2148H38.3145C40.0783 12.7737 39.8025 14.0766 39.8018 14.0801C39.8938 15.3737 38.6171 15.8431 38.5938 15.8516L38.501 16.5977L39.8018 18.6494C39.9842 18.8324 39.9882 19.0156 39.9883 19.0225C39.8038 19.4852 39.0696 19.0294 39.0586 19.0225L37.4775 16.5049C37.2929 16.3199 37.1089 16.6864 37.1064 16.6914L37.0127 18.0898L37.3848 18.7432C37.6598 19.1112 37.2113 19.3881 37.1992 19.3955L35.8047 19.209C35.5258 19.1157 35.8047 18.6494 35.8047 18.6494C36.1764 18.4628 36.1768 17.9033 36.1768 17.9033V13.4277C36.1768 13.2421 35.8081 12.7786 35.8047 12.7744C35.5302 12.7744 35.6164 12.3228 35.6191 12.3086ZM38.2217 12.8682C38.0367 12.5898 37.2075 12.8654 37.1992 12.8682L37.1064 13.1475V15.4785C37.9357 16.1255 38.3991 15.2153 38.4072 15.1992C39.5223 14.1739 38.4083 13.1485 38.2217 12.8682Z" fill="black"/>
<path fill-rule="evenodd" clip-rule="evenodd" d="M55.3262 20.6104C55.3261 30.0292 51.7928 50.0788 28.3662 65C28.242 64.9479 2.89007 54.2866 0.942383 20.6104L0.943359 0H55.3262V20.6104ZM27.7168 50.3594C27.0662 50.5459 26.8806 51.1983 27.0664 51.7578C27.1593 52.3174 27.624 52.5044 28.0889 52.4111C28.4606 52.3178 28.4609 51.9442 28.4609 51.1982C28.4607 50.4554 27.7226 50.3601 27.7168 50.3594ZM16.7471 34.0391C16.2859 34.1328 16.2822 36.3394 16.2822 36.3701C16.1896 37.4853 15.2662 37.304 15.2598 37.3027C13.9641 37.21 13.4981 37.9497 13.4941 37.9561C13.4019 38.6981 14.6888 38.7021 14.7021 38.7021H15.6318C16.4638 38.7949 16.2842 39.9017 16.2822 39.9141L16.1895 46.4424C16.4674 47.372 15.3596 47.1896 15.3525 47.1885C13.7775 47.0957 13.5881 47.744 13.5869 47.748C13.587 48.679 15.1616 48.4013 15.167 48.4004C16.267 48.4924 16.1918 49.1288 16.1895 49.1465C16.2824 49.333 16.2822 50.5459 16.2822 50.5459C16.2823 51.7463 16.6472 51.8497 16.6543 51.8516C16.7481 52.0374 18.9668 51.9448 18.9785 51.9443C22.3254 52.1308 25.9512 51.7578 25.9512 51.7578C26.4158 51.851 26.416 51.5713 26.416 51.5713C26.6915 51.2023 25.9662 51.1074 25.9512 51.1055C25.3941 50.9192 17.6957 51.105 17.6768 51.1055C16.8468 51.3827 16.9322 50.3747 16.9336 50.3594V35.625C16.8406 35.3453 17.3984 34.4121 17.3984 34.4121C17.7688 34.1329 16.6576 34.0393 16.7471 34.0391ZM39.709 33.9463C39.5238 33.6676 38.785 33.8511 38.7793 33.8525C38.7807 33.854 38.8709 33.945 38.6865 33.8525C38.5008 33.7597 38.501 34.1328 38.501 34.1328C39.0512 34.6852 38.8776 35.6006 38.873 35.624V47.8408L38.7793 48.3076V49.8926C38.7793 50.2585 38.6006 50.5346 38.5938 50.5449L38.0361 50.7314C37.6651 51.1036 35.4427 50.9188 35.4326 50.918C35.3805 50.9199 30.3198 51.1044 29.9482 51.0117C29.5795 50.9192 29.0278 51.1936 29.0186 51.1982C28.8326 51.851 29.576 51.9443 29.6689 51.7578C30.8776 51.6646 38.4082 51.665 38.4082 51.665C39.6163 51.7581 39.709 51.1982 39.709 51.1982C39.8942 51.0124 39.7104 49.9942 39.709 49.9863C39.8019 49.7065 39.8955 48.4941 39.8955 48.4941C39.7108 47.9383 41.5437 48.0261 41.5684 48.0273C42.5758 47.9354 42.2302 47.1198 42.2197 47.0957C42.2197 46.6333 40.8482 46.7212 40.8252 46.7227C39.7098 46.8159 39.709 46.0693 39.709 46.0693C39.7093 46.0478 39.8018 40.0058 39.709 39.168C39.6163 38.4221 40.3604 38.2354 40.3604 38.2354L41.3828 38.1426C42.1264 38.329 42.127 37.4893 42.127 37.4893C42.1263 37.1177 41.0179 37.024 41.0107 37.0234C40.5493 37.2085 40.2714 36.9335 40.2676 36.9297C39.6168 36.9297 39.709 35.624 39.709 35.624C40.077 34.9777 39.7161 33.9661 39.709 33.9463ZM18.2344 49.4268C17.398 50.4523 17.9561 50.5459 17.9561 50.5459L18.793 50.4521L26.0439 50.5459C26.8728 50.7306 26.9719 50.1829 26.9736 50.1729C26.9736 49.8977 26.3439 49.8028 26.3232 49.7998L20.373 49.7061C19.3535 49.7061 18.7031 49.0576 18.6992 49.0537L18.2344 49.4268ZM37.1992 49.333C37.0144 49.0551 36.7378 49.1454 36.7344 49.1465C36.4473 49.4345 35.7723 49.4987 35.4795 49.5137C35.3846 49.5306 35.2008 49.563 34.875 49.6133C33.668 49.7994 29.6825 49.5205 29.6689 49.5195C29.2982 49.4268 28.5584 49.9828 28.5537 49.9863C28.4613 50.7318 29.7615 50.545 29.6689 50.5449C29.9483 50.4517 37.1064 50.4521 37.1064 50.4521C37.8501 50.5454 37.8506 50.0791 37.8506 50.0791L37.1992 49.333ZM18.1416 34.3184C17.4977 34.7797 17.4913 35.7892 17.4912 35.8105L17.3057 49.4258C17.3057 50.1633 17.6685 49.7164 17.6768 49.7061C18.4196 49.0541 18.3284 48.2159 18.3281 48.2139L18.4209 34.8779C18.4208 34.3224 18.1452 34.3184 18.1416 34.3184ZM37.8496 34.3193C37.8385 34.3101 37.2921 33.8605 37.292 34.5986V48.1211L37.1992 48.4941C37.2034 48.5017 37.7581 49.5204 37.9434 49.6133C37.9549 49.627 38.4062 50.1593 38.3145 49.1465L38.4082 36.3711C38.4082 36.3711 38.3153 35.9046 38.4082 35.252L37.8496 34.3193ZM36.2695 33.5723C34.2244 34.5981 34.1312 34.0386 33.4805 34.1318C32.8298 34.225 30.4165 34.1322 30.2275 34.0391C30.0429 33.9464 28.9409 34.0378 28.9258 34.0391C28.1933 34.1309 28.0017 34.675 27.9961 34.6914V37.1943C28.2023 37.4083 28.2744 37.7676 28.2744 37.7676C29.204 40.099 29.9473 43.5498 29.9473 43.5498C30.1332 44.016 30.5986 44.2959 30.5986 44.2959C31.3336 44.5725 30.6146 44.7577 30.5986 44.7617C30.3207 44.8547 29.3037 44.7623 29.2969 44.7617C28.7528 44.6707 29.005 44.4911 29.0176 44.4824C29.2021 44.2973 29.0203 43.377 29.0176 43.3633C29.0176 42.9959 28.5674 42.4472 28.5537 42.4307C28.3713 42.3392 28.0992 42.6963 28.0889 42.71C28.0889 42.71 27.9596 42.7604 27.8242 42.7822L27.9033 44.6699C28.0879 46.707 27.9059 48.7446 27.9033 48.7734C27.9033 49.333 28.0889 49.4268 28.0889 49.4268C29.1927 48.8731 30.1146 48.9581 30.1338 48.96C36.1551 49.1458 35.2535 49.0544 35.2471 49.0537C36.8257 48.9606 36.7346 48.0294 36.7344 48.0273L36.6416 45.7891C36.8274 45.3193 36.8271 38.4219 36.8271 38.4219C36.6413 37.6752 36.8271 33.9453 36.8271 33.9453C36.8268 33.5744 36.2746 33.5723 36.2695 33.5723ZM19.7227 33.666C18.979 33.3863 18.9785 33.8525 18.9785 33.8525C19.0703 34.1289 19.0713 34.8602 19.0713 34.8779C19.1642 35.2509 19.0714 38.327 19.0713 38.3291C18.9785 38.704 19.0713 41.9658 19.0713 41.9658C19.1639 42.1519 18.9799 48.1686 18.9785 48.2139C19.0715 49.0532 20.6523 48.96 20.6523 48.96C20.7456 49.1465 26.416 49.0537 26.416 49.0537C27.3453 49.4265 27.3457 48.96 27.3457 48.96C27.5316 47.6542 27.2527 45.0429 27.3457 44.4834C27.4178 43.6876 27.432 42.8919 27.4355 42.5752C27.32 42.4457 27.1653 42.341 27.1592 42.3369C26.6053 42.3369 26.4177 43.6244 26.415 43.6426C26.6924 44.7556 26.418 44.5772 26.415 44.5752C26.1397 44.9434 25.3209 44.6759 25.2998 44.6689C24.936 44.5777 25.1946 44.3076 25.2061 44.2959C25.6709 44.2026 25.8574 43.6426 25.8574 43.6426C26.0191 43.3977 27.1556 39.0223 27.4561 37.8613L27.3457 37.4893V34.7852C27.1605 33.7629 26.2359 33.944 26.2295 33.9453C25.6725 33.7594 23.4505 33.9445 23.4404 33.9453C22.4213 34.1311 21.4023 33.9465 21.3955 33.9453C20.0191 34.1294 19.7299 33.6777 19.7227 33.666ZM27.1592 40.0986C27.1592 40.2839 26.792 41.5735 26.7871 41.5908L27.0654 42.0576H27.9951C28.181 42.0576 28.2744 41.8706 28.2744 41.5908C28.2742 41.4054 27.8171 40.0285 27.8096 40.0059L27.624 39.7256L27.1592 40.0986ZM14.8877 24.4326C14.8877 24.4326 14.051 24.4338 14.0508 25.5527C14.051 25.5548 14.1448 26.3906 14.9805 26.3906C15.0017 26.3851 15.7246 26.1922 15.7246 25.3652C15.7182 25.3498 15.3126 24.3827 14.958 24.4131C14.9344 24.4149 14.9107 24.4211 14.8877 24.4326ZM41.1973 24.3398C41.1973 24.3398 40.3592 24.3397 40.4521 25.459C40.4547 25.4805 40.5565 26.2976 41.3818 26.2979C41.3876 26.2971 42.127 26.2014 42.127 25.2725C42.1208 25.2602 41.6329 24.2898 41.2676 24.3203C41.2433 24.3221 41.2203 24.3283 41.1973 24.3398ZM6.33008 7.83105C6.1476 7.83664 5.88149 7.9511 5.49805 8.30078L5.40625 10.166C5.40615 10.1865 5.39624 11.1905 4.47656 11.0986C4.47656 11.0986 3.45228 11.0982 2.89453 11.5645C2.89453 11.5645 2.61656 12.4953 3.63867 12.4023C3.64721 12.4024 5.22076 12.4054 5.31348 13.0566L5.21875 19.7705C5.22663 19.7946 5.57867 20.8904 4.38379 20.8906C4.38379 20.8906 2.89453 20.796 2.89453 21.7285C2.90134 21.7462 3.19085 22.4733 4.47656 22.2891C4.50024 22.2939 5.40511 22.4863 5.31348 23.3145V25.0986C5.3314 25.2879 5.45476 25.6697 6.14844 25.7393H13.0273C13.0315 25.7392 13.4004 25.7362 13.4004 25.3652C13.4003 25.3543 13.392 24.9923 12.8428 24.9922L7.17188 24.8066C7.15225 24.8124 6.24059 25.0717 6.14844 23.6885C6.14845 23.6864 6.23764 11.7126 6.24023 11.1855L6.24219 11.1914C6.24219 11.1914 6.24053 11.1485 6.24023 11.1426C6.24026 11.1379 6.24218 11.0065 6.24219 11.0039C6.24049 11.0004 6.24094 10.9999 6.23926 10.9961C6.22939 10.5374 6.22723 8.91586 6.70703 8.11328C6.70703 8.11328 6.63407 7.82205 6.33008 7.83105ZM23.9336 7.86523C23.5347 7.89983 23.5342 8.39355 23.5342 8.39355C23.7199 8.58043 23.8115 9.2334 23.8115 9.2334C23.9045 10.7254 23.8115 12.4039 23.8115 13.9893C23.7186 19.3033 23.5343 24.1514 23.5342 24.1543C23.5341 25.1654 22.9919 24.907 22.9766 24.8994H16.8389C16.1918 24.8996 16.1895 25.2687 16.1895 25.2725C16.2813 25.8252 16.8257 25.6498 16.8389 25.6455C17.394 25.7383 23.4716 25.6464 23.5332 25.6455C24.462 25.7386 24.3712 24.5274 24.3711 24.5254C24.4629 22.4069 24.644 22.1991 24.6484 22.1943C24.8324 22.1021 25.835 22.1016 25.8574 22.1016C27.5267 22.1946 26.7907 21.0815 26.7871 21.0762C26.6018 20.7973 25.4925 20.7959 25.4854 20.7959C24.4631 20.8889 24.5557 19.7695 24.5557 19.7695L24.6484 13.335C24.4651 12.7829 24.9158 12.5043 24.9277 12.4971H25.9502C27.3417 12.5901 26.9742 11.6611 26.9727 11.6572C26.9721 11.1966 25.7931 11.0082 25.7656 11.0039C24.6501 11.1904 24.7412 10.5371 24.7412 10.5371V8.95312C24.9258 7.93452 24.2854 7.92778 24.2764 7.92773C24.1371 7.8754 24.0256 7.8573 23.9336 7.86523ZM50.1484 7.86523C49.7496 7.89983 49.749 8.39355 49.749 8.39355C49.842 8.58035 50.0283 9.2334 50.0283 9.2334C50.1213 10.7254 50.0283 12.4039 50.0283 13.9893C49.9354 19.3033 49.7491 24.1514 49.749 24.1543C49.749 25.1683 49.2038 24.9055 49.1914 24.8994H43.0557C42.4063 24.8996 42.4043 25.2725 42.4043 25.2725C42.4973 25.832 43.1484 25.646 43.1484 25.5527C43.7036 25.6455 49.7793 25.5537 49.8408 25.5527C50.7697 25.6459 50.6789 24.4347 50.6787 24.4326C50.7705 22.3155 50.9533 22.1066 50.958 22.1016C51.142 22.0093 52.1435 22.0088 52.165 22.0088C53.7259 22.1009 53.0206 21.0103 53.0029 20.9834C52.8176 20.7045 51.7074 20.7022 51.7002 20.7021C50.678 20.7951 50.7705 19.6768 50.7705 19.6768L50.8652 13.2422C50.6794 12.6827 51.1436 12.4023 51.1436 12.4023H52.165C53.5566 12.4954 53.191 11.5683 53.1895 11.5645C53.1891 11.1031 52.0046 10.9149 51.9805 10.9111C50.8649 11.0976 50.958 10.4443 50.958 10.4443V8.95312C51.1428 7.93332 50.5007 7.92776 50.4932 7.92773C50.3538 7.87537 50.2404 7.85727 50.1484 7.86523ZM32.4521 7.83105C32.2697 7.83676 32.0043 7.9513 31.6211 8.30078V10.0713C31.621 10.0919 31.6113 11.096 30.6914 11.0039C30.6914 11.0039 29.6691 11.0034 29.1113 11.4697C29.1113 11.4697 28.8319 12.4028 29.8545 12.3096C29.882 12.3096 31.4362 12.3167 31.5283 12.9639L31.4355 19.6768C31.4368 19.6807 31.805 20.7959 30.5059 20.7959C30.4941 20.7952 29.019 20.7064 29.0186 21.6348C29.0198 21.6381 29.3001 22.3804 30.5986 22.1943C30.609 22.1965 31.5283 22.3871 31.5283 23.2217V24.8994C31.5268 24.9105 31.4431 25.554 32.2725 25.6465H39.1504C39.1575 25.6464 39.5225 25.6419 39.5225 25.2725C39.5224 25.2629 39.5153 24.8994 38.9648 24.8994L33.3867 24.8066C33.3629 24.8136 32.4571 25.0684 32.3652 23.6885C32.3652 23.6864 32.4578 11.2109 32.3652 11.0039V11.1914C32.3652 11.1914 32.2724 9.04591 32.8301 8.11328C32.8301 8.11328 32.7563 7.82197 32.4521 7.83105ZM8.02441 23.1211C7.98477 23.1229 7.93997 23.1302 7.89355 23.1436C7.70767 23.1968 7.47824 23.3569 7.28516 23.7441L7.28125 23.752L7.2793 23.7598C7.27607 23.7702 7.2255 23.9385 7.2666 24.1035C7.28785 24.1888 7.34271 24.2796 7.44141 24.3262C7.53675 24.371 7.66337 24.3719 7.82812 24.3271H12.3672L13.585 24.6104L13.6016 24.6064C13.6016 24.6064 13.6899 24.5855 13.7959 24.5459C13.903 24.506 14.0337 24.4479 14.1299 24.3516C14.1779 24.3034 14.2183 24.2436 14.2354 24.1729C14.2524 24.102 14.2429 24.0206 14.2061 23.9414C14.1323 23.783 13.9571 23.622 13.625 23.4316L13.6074 23.4209H9.22559C9.21529 23.4183 9.0191 23.3748 8.79395 23.3184C8.56323 23.2605 8.29922 23.1842 8.22949 23.1494L8.22559 23.1475C8.22559 23.1475 8.14326 23.1148 8.02441 23.1211ZM21.8359 23.3672C21.5801 23.3543 21.225 23.4051 21.21 23.4072C20.4696 23.8714 16.136 23.5034 16.0967 23.5C15.8188 23.5 15.4469 23.9636 15.4443 23.9668C15.3518 24.8044 16.7418 24.4339 16.6543 24.4326H21.8594C22.696 24.6191 22.6963 24.2471 22.6963 24.2471C22.6962 23.9693 22.0563 23.4153 22.0469 23.4072C22.0004 23.3839 21.9231 23.3716 21.8359 23.3672ZM34.3848 23.1074C34.2225 23.1028 33.9226 23.1755 33.667 23.6885C33.6618 23.707 33.4908 24.338 34.1318 24.1543H38.6855L39.8955 24.4326C39.9216 24.4269 41.1834 24.1455 39.8955 23.4072H35.5264C35.5063 23.4027 34.687 23.2191 34.5029 23.127C34.5029 23.127 34.4582 23.1098 34.3848 23.1074ZM48.1016 23.2725C47.8672 23.2771 47.6147 23.314 47.6113 23.3145C46.8717 23.7778 42.5508 23.4116 42.499 23.4072C42.2211 23.4072 41.8493 23.8708 41.8467 23.874C41.6624 24.7069 43.0353 24.3453 43.0557 24.3398H48.2617C49.0983 24.5263 49.0986 24.1543 49.0986 24.1543C49.0985 23.8771 48.459 23.3246 48.4473 23.3145C48.3775 23.2795 48.2432 23.2698 48.1016 23.2725ZM7.6377 8.20605C6.80814 8.20605 6.70963 9.76538 6.70801 9.79199L6.61328 23.0342C6.70392 23.6706 6.88363 23.5978 6.89258 23.5938C7.72832 23.0348 7.6379 22.1036 7.6377 22.1016C7.63799 22.0616 7.72946 9.51712 7.72949 9.32617C7.72949 9.14132 7.63932 8.22249 7.6377 8.20605ZM33.8525 8.20605C33.0226 8.20605 32.9244 9.76684 32.9229 9.79199L32.8301 23.0342C32.9202 23.6673 33.0969 23.5985 33.1074 23.5938C33.9432 23.0348 33.8527 22.1036 33.8525 22.1016C33.8528 22.0677 33.9453 9.51834 33.9453 9.32617C33.9453 9.14136 33.8542 8.22284 33.8525 8.20605ZM22.6201 8.07324C22.5016 8.08935 22.3707 8.18398 22.2314 8.39355V22.3818C22.2327 22.3858 22.6045 23.5925 23.1611 23.5C23.163 23.4943 23.2539 23.2164 23.2539 22.7549L23.4414 9.41895C23.4414 9.41895 23.1341 8.00406 22.6201 8.07324ZM48.8359 8.10742C48.7174 8.1172 48.5867 8.20129 48.4473 8.39355V22.3818C48.4508 22.3932 48.8218 23.5928 49.377 23.5C49.3804 23.4896 49.4707 23.2123 49.4707 22.7549L49.6562 9.41895C49.6562 9.41895 49.3496 8.06601 48.8359 8.10742ZM47.835 7.5752C47.7251 7.57983 47.5643 7.6228 47.332 7.73926C47.3325 7.74121 47.4135 8.11278 43.2412 7.92676C43.1483 7.92676 41.4748 7.83319 41.4746 8.5791C41.4746 8.5791 41.3818 15.294 41.3818 15.4805L41.2891 21.0762L41.1045 23.0342C41.1137 23.0463 41.3866 23.402 41.5693 23.127C41.5963 23.1198 42.9721 22.7569 43.8926 22.9414C43.9039 22.9425 46.6826 23.2202 47.332 22.7549C47.3363 22.7566 47.7971 22.9388 47.8896 22.2891C47.8897 22.2861 48.0754 9.88632 47.9824 9.69922C47.9853 9.6717 48.1684 7.92438 48.0762 7.73926C48.076 7.72995 48.0697 7.56456 47.835 7.5752ZM21.6562 7.48242C21.5337 7.47152 21.3362 7.50663 21.0225 7.64648C21.0229 7.64845 21.1058 8.02 16.9336 7.83398C16.8403 7.83398 15.26 7.83349 15.167 8.48633C15.167 8.48633 15.0742 15.2012 15.0742 15.3877L14.9795 20.9834L14.8877 22.9414C14.8974 22.9542 15.1699 23.309 15.3525 23.0342C15.377 23.0277 16.7554 22.6638 17.6768 22.8486C17.7215 22.8531 20.4718 23.1226 21.1172 22.6602C21.1219 22.662 21.5823 22.8438 21.6748 22.1943C21.675 22.1825 21.8595 9.79152 21.7666 9.60449C21.7692 9.57923 21.9516 7.83173 21.8594 7.64648C21.8593 7.63922 21.8551 7.50017 21.6562 7.48242ZM8.75195 7.46094C8.74722 7.46095 8.19498 7.4629 8.28711 7.83398L8.10156 22.0088C8.10156 22.0088 8.1016 22.6626 9.12402 22.7559C9.13175 22.7564 10.426 22.8488 10.7041 22.7559H13.6797C13.6884 22.7645 14.2372 23.3084 14.2373 22.6611C14.2374 22.657 14.6087 11.193 14.4229 8.76758C14.4229 8.76758 14.4216 7.74026 13.585 7.74023C13.5425 7.74377 10.2387 8.01806 9.96094 7.74023L8.75195 7.46094ZM34.9668 7.46094C34.9549 7.46099 34.4104 7.46534 34.502 7.83398L34.3174 22.0088C34.3174 22.0149 34.3214 22.6629 35.3389 22.7559C35.3466 22.7564 36.6429 22.8488 36.9209 22.7559H39.8945C39.9022 22.7635 40.4519 23.3086 40.4521 22.5684C40.4523 22.5642 40.8255 11.0962 40.6396 8.67188C40.6395 8.64739 40.6282 7.64651 39.8018 7.64648C39.7635 7.64967 36.4532 7.92461 36.1758 7.64648L34.9668 7.46094Z" fill="black"/>
<path d="M191.611 43.3633C193.378 43.3633 194.122 43.8296 195.33 43.7363V46.3477H194.958C194.493 44.7625 193.099 44.2959 191.519 44.2959C189.752 44.296 189.194 45.3224 189.194 46.2549C189.195 47.6536 190.59 48.3995 192.17 49.1455C193.936 49.8915 195.887 50.9175 195.888 53.1553C195.888 55.3002 194.214 56.793 191.239 56.793C189.473 56.7929 188.357 56.2329 187.428 56.1396L187.242 53.4355H187.614C187.8 54.1815 188.173 54.834 188.823 55.207C189.381 55.6731 190.403 55.8603 191.146 55.8604C192.82 55.8604 193.936 55.0204 193.936 53.7148C193.935 52.3162 192.541 51.6634 190.961 50.8242C189.752 50.1714 187.335 49.2387 187.335 46.9072C187.335 44.7625 189.009 43.3634 191.611 43.3633Z" fill="black"/>
<path d="M117.892 43.8301C117.055 44.0166 116.776 44.3898 116.776 44.9492V51.7568C116.776 54.8343 115.01 56.6064 111.198 56.6064C107.666 56.6064 105.807 55.0208 105.807 52.1299V44.9492C105.807 44.3897 105.435 44.0166 104.691 43.8301V43.457C105.063 43.4571 106.457 43.5507 106.829 43.5508C107.108 43.5508 108.503 43.457 108.875 43.457V43.8301C108.224 44.0166 107.852 44.3897 107.852 44.9492V51.9434C107.852 54.1815 109.06 55.3945 111.57 55.3945C113.801 55.3945 115.475 54.3683 115.475 52.0371V44.8555C115.474 44.2962 115.103 43.9238 114.359 43.7373V43.457C114.638 43.457 115.754 43.5508 116.126 43.5508C116.498 43.5507 117.612 43.4571 117.892 43.457V43.8301Z" fill="black"/>
<path d="M132.022 53.3418V44.9492C132.022 44.3897 131.651 44.0166 130.907 43.8301V43.457C131.186 43.4571 132.301 43.5497 132.673 43.5498C133.045 43.5498 134.16 43.4571 134.439 43.457V43.8301C133.603 44.0166 133.231 44.3898 133.231 44.9492V56.6055H132.767C132.488 56.5122 131.837 56.2327 130.907 55.207L123.377 46.4404V55.0205C123.377 55.58 123.656 55.9532 124.492 56.1396V56.5127C124.213 56.5127 123.097 56.4189 122.726 56.4189C122.353 56.419 121.239 56.5126 120.96 56.5127L121.053 56.0469C121.889 55.8604 122.168 55.4871 122.168 54.9277V45.2295C122.168 44.3902 121.704 44.0166 120.96 43.8301V43.457H123.655L132.022 53.3418Z" fill="black"/>
<path fill-rule="evenodd" clip-rule="evenodd" d="M178.32 43.457C181.388 43.457 183.062 44.7623 183.062 46.9072C183.062 48.5858 181.76 49.7984 179.808 50.2646C179.808 50.2646 180.272 50.5445 180.737 51.0107C181.295 51.6636 182.783 53.7149 183.341 54.4609C183.899 55.2068 184.735 56.0466 185.571 56.0469V56.3262C185.199 56.4194 184.549 56.5127 184.084 56.5127C183.062 56.5126 182.225 56.1394 181.389 55.207C180.645 54.3677 179.529 52.5956 178.785 51.6631C178.32 51.1037 177.762 50.6376 176.833 50.4512C176.647 50.4511 176.461 50.3574 176.275 50.3574L176.183 54.834C176.183 55.4867 176.554 55.8594 177.391 56.0459V56.4189C176.926 56.4189 175.531 56.3262 175.159 56.3262C174.787 56.3262 173.486 56.4189 173.021 56.4189V56.0459C173.765 55.8594 174.137 55.5799 174.137 54.834V44.9492C174.137 44.2964 173.765 43.9234 173.021 43.8301V43.457C173.486 43.457 174.787 43.5497 175.159 43.5498C175.81 43.5498 177.577 43.457 178.32 43.457ZM177.67 44.2959C177.205 44.2959 176.647 44.3892 176.183 44.4824V49.6113C176.555 49.7045 177.205 49.7051 177.763 49.7051C180.179 49.705 180.923 48.306 180.923 47.0938C180.923 45.322 179.808 44.296 177.67 44.2959Z" fill="black"/>
<path d="M169.023 45.8818H168.651C168.372 45.0426 168.001 44.3897 166.514 44.3896H163.074V49.0527H165.77C166.141 49.0527 166.606 49.0521 166.792 48.959C167.35 48.8658 167.629 48.4929 167.814 47.9336H168.187V51.1973H167.814C167.629 50.6377 167.443 50.2642 166.792 50.1709C166.606 50.0779 166.141 50.0781 165.77 50.0781H163.074V55.3936H166.886C168.559 55.3934 169.024 54.7406 169.396 53.7148H169.768L169.396 56.4199C168.187 56.3267 167.443 56.3262 166.049 56.3262H162.051C161.678 56.3262 160.285 56.4199 159.82 56.4199V56.0469C160.564 55.8604 160.936 55.5799 160.936 54.834V44.9492C160.936 44.2965 160.564 43.9234 159.82 43.8301V43.457H167.814C168.093 43.457 168.465 43.4568 168.744 43.2705H169.116L169.023 45.8818Z" fill="black"/>
<path d="M225.172 54.9277C225.172 55.394 225.544 55.9537 226.287 56.0469V56.4199C225.915 56.4199 224.52 56.3262 224.148 56.3262C223.776 56.3262 222.475 56.4199 222.011 56.4199V56.0469C222.754 55.8604 223.126 55.3939 223.126 54.9277V50.7305L225.172 54.9277Z" fill="black"/>
<path d="M142.715 43.8301C141.971 44.0166 141.506 44.296 141.506 45.042V54.834C141.506 55.4867 141.878 55.8594 142.715 56.0459V56.4189C142.25 56.4189 140.948 56.3262 140.483 56.3262C140.112 56.3262 138.717 56.4189 138.252 56.4189V56.0459C139.089 55.8594 139.461 55.5799 139.461 54.834L139.368 45.042C139.368 44.3892 138.996 44.0166 138.252 43.8301V43.457C138.717 43.457 140.019 43.5498 140.483 43.5498C140.855 43.5498 142.25 43.457 142.715 43.457V43.8301Z" fill="black"/>
<path d="M158.147 43.8291C157.404 44.0156 156.846 44.4822 156.475 45.5078L151.826 56.4189H150.804L145.69 45.042C145.412 44.3892 144.947 43.9224 144.203 43.8291V43.4561C144.668 43.4561 146.248 43.5498 146.62 43.5498C146.899 43.5498 148.293 43.4561 148.758 43.4561V43.8291C148.386 43.9224 147.828 44.1092 147.828 44.5752C147.828 44.855 148.015 45.3214 148.387 46.0674L151.733 53.6211L154.894 46.0674C155.172 45.4148 155.358 44.9487 155.358 44.6689C155.358 44.2959 154.987 44.0161 154.429 43.9229V43.4561C154.801 43.4561 155.823 43.5498 156.195 43.5498C156.474 43.5498 157.683 43.4561 158.147 43.4561V43.8291Z" fill="black"/>
<path d="M203.421 43.8301C202.677 44.0166 202.305 44.296 202.305 45.042V54.834C202.305 55.4867 202.677 55.8594 203.421 56.0459V56.4189C202.956 56.4189 201.654 56.3262 201.189 56.3262C200.818 56.3262 199.423 56.4189 198.958 56.4189V56.0459C199.795 55.8594 200.074 55.5799 200.074 54.834V45.042C200.074 44.3892 199.702 44.0166 198.958 43.8301V43.457C199.423 43.457 200.817 43.5498 201.189 43.5498C201.561 43.5498 202.956 43.457 203.421 43.457V43.8301Z" fill="black"/>
<path d="M217.271 45.9746H216.9C216.529 44.7624 215.878 44.4825 215.041 44.4824H212.345V54.7402C212.345 55.393 212.81 55.7666 213.554 55.9531V56.3262C213.089 56.3262 211.694 56.2324 211.322 56.2324C210.95 56.2324 209.556 56.3262 209.091 56.3262V55.9531C209.927 55.7666 210.3 55.393 210.3 54.7402V44.4824H207.511C206.674 44.4824 206.023 44.7623 205.651 45.9746H205.279V43.3633C206.116 43.4565 206.86 43.5498 211.229 43.5498C215.598 43.5498 216.249 43.4565 217.271 43.3633V45.9746Z" fill="black"/>
<path d="M230.099 43.8301C229.169 44.2031 228.611 45.0421 228.054 45.9746L224.985 51.1973L219.779 45.5088C219.222 44.5763 218.757 44.0167 218.106 43.8301V43.457C218.571 43.4571 219.872 43.5498 220.151 43.5498C220.523 43.5498 221.825 43.457 222.383 43.457V43.8301C221.918 43.9233 221.731 44.1095 221.731 44.4824C221.731 44.7622 221.918 45.1358 222.104 45.5088C222.29 45.7892 224.599 49.6812 224.613 49.7051L227.03 45.5088C227.309 45.0427 227.402 44.6693 227.402 44.3896C227.402 44.1099 227.217 43.9229 226.845 43.9229V43.457C227.216 43.457 228.145 43.5497 228.425 43.5498C228.704 43.5498 229.727 43.457 230.099 43.457V43.8301Z" fill="black"/>
<path fill-rule="evenodd" clip-rule="evenodd" d="M141.693 7.45898C147.55 7.45898 150.805 9.88394 150.805 13.9873C150.805 17.2512 148.388 19.3965 144.669 20.3291C144.683 20.337 145.512 20.8043 146.342 21.8213C147.364 23.0336 150.247 27.1372 151.362 28.5361C152.478 29.9349 153.966 31.5195 155.546 31.5195V32.0791C154.802 32.2656 153.594 32.3594 152.664 32.3594C150.712 32.3594 149.131 31.6132 147.551 29.748C146.249 28.1627 143.925 24.7119 142.623 23.0332C141.786 21.9144 140.764 21.0747 138.905 20.7949C138.533 20.7017 138.161 20.7017 137.789 20.6084V29.0947C137.789 30.307 138.626 31.0532 140.021 31.333V31.9863C139.184 31.9863 136.581 31.8926 135.744 31.8926C135.093 31.8926 132.49 31.9863 131.653 31.9863V31.333C133.048 31.0532 133.792 30.4003 133.792 29.0947V10.4434C133.792 9.3244 133.141 8.57859 131.653 8.29883V7.55273C132.49 7.55273 135 7.64551 135.744 7.64551C136.953 7.6455 140.299 7.45903 141.693 7.45898ZM140.671 9.1377C139.834 9.13771 138.626 9.23147 137.789 9.41797V19.21C138.533 19.3032 139.742 19.3965 140.857 19.3965C145.412 19.3963 146.806 16.7854 146.807 14.4541C146.807 11.1901 144.576 9.1377 140.671 9.1377Z" fill="black"/>
<path fill-rule="evenodd" clip-rule="evenodd" d="M218.482 7.45898C224.339 7.45898 227.593 9.88394 227.593 13.9873C227.593 17.2513 225.176 19.3965 221.457 20.3291C221.457 20.3291 222.294 20.7955 223.131 21.8213C224.154 23.0338 227.036 27.1373 228.151 28.5361C229.267 29.9348 230.754 31.5193 232.334 31.5195V32.0791C231.59 32.2656 230.382 32.3594 229.452 32.3594C227.5 32.3593 225.919 31.6131 224.339 29.748C223.037 28.1626 220.714 24.7118 219.412 23.0332C218.575 21.9142 217.553 21.0747 215.693 20.7949C215.322 20.7017 214.95 20.7016 214.578 20.6084V29.0947C214.578 30.3069 215.414 31.0532 216.809 31.333V31.9863C215.972 31.9863 213.37 31.8926 212.626 31.8926C211.975 31.8926 209.372 31.9863 208.535 31.9863V31.333C209.93 31.0532 210.674 30.4003 210.674 29.0947V10.4434C210.674 9.3244 210.022 8.57859 208.535 8.29883V7.55273C209.372 7.55273 211.882 7.64551 212.626 7.64551C213.835 7.64548 217.181 7.45899 218.482 7.45898ZM217.46 9.1377C216.623 9.1377 215.415 9.23147 214.578 9.41797V19.21C215.322 19.3032 216.53 19.3965 217.646 19.3965C222.201 19.3965 223.596 16.7855 223.596 14.4541C223.596 11.1902 221.364 9.13776 217.46 9.1377Z" fill="black"/>
<path d="M181.389 8.29883C179.901 8.67183 178.971 9.60386 178.135 11.4688L169.396 32.1719H167.443L157.59 10.6299C157.032 9.41756 156.195 8.57861 154.894 8.29883V7.64551C155.73 7.64551 158.612 7.73924 159.263 7.73926C159.82 7.73926 162.609 7.64552 163.539 7.64551V8.29883C162.795 8.48535 161.866 8.85814 161.866 9.69727C161.866 10.2568 162.238 11.0963 162.889 12.4951L169.21 26.8564L175.16 12.4951C175.625 11.3763 175.997 10.4438 175.997 9.79102C175.997 9.04494 175.253 8.48535 174.323 8.29883V7.64551C175.16 7.64551 177.019 7.73925 177.67 7.73926C178.228 7.73926 180.459 7.64551 181.389 7.64551V8.29883Z" fill="black"/>
<path fill-rule="evenodd" clip-rule="evenodd" d="M116.221 7.45898C116.221 7.45898 116.593 9.04441 116.965 9.88379L125.238 28.7217C125.796 30.0271 126.447 30.9599 128.12 31.333V31.9863C127.19 31.9863 124.496 31.8926 123.845 31.8926C123.194 31.8926 120.591 31.9863 119.661 31.9863V31.333C120.869 31.0532 121.241 30.4003 121.241 29.8408C121.241 29.3745 121.055 28.7216 120.776 28.1621L119.01 24.1523H109.899L108.319 28.2559C108.133 28.7221 107.947 29.3746 107.947 29.8408C107.947 30.4936 108.32 31.0537 109.621 31.4268V32.0791C108.784 32.0791 106.645 31.9863 106.181 31.9863L102.648 32.0791L102.462 31.333C104.042 30.96 104.88 29.9345 105.438 28.6289L113.246 9.79102C113.618 9.04494 113.99 7.45898 113.99 7.45898H116.221ZM110.457 22.1934H117.987L114.083 13.1475L110.457 22.1934Z" fill="black"/>
<path fill-rule="evenodd" clip-rule="evenodd" d="M193.565 7.45898C193.565 7.45898 193.938 9.04441 194.31 9.88379L202.583 28.7217C203.141 30.0272 203.792 30.9599 205.465 31.333V31.9863C204.535 31.9863 201.839 31.8926 201.188 31.8926C200.537 31.8926 197.936 31.9863 197.006 31.9863V31.333C198.214 31.0532 198.586 30.4003 198.586 29.8408C198.586 29.3745 198.4 28.7216 198.121 28.1621L196.354 24.1523H187.244L185.664 28.2559C185.478 28.7221 185.292 29.3746 185.292 29.8408C185.292 30.4936 185.664 31.0537 186.965 31.4268V32.0791C186.128 32.0791 183.99 31.9863 183.525 31.9863L179.993 32.0791V31.333H179.807C181.387 30.96 182.224 29.9345 182.782 28.6289L190.591 9.79102C190.963 9.04494 191.335 7.45898 191.335 7.45898H193.565ZM187.709 22.1934H195.239L191.334 13.1475L187.709 22.1934Z" fill="black"/>
<path fill-rule="evenodd" clip-rule="evenodd" d="M247.113 7.36621C255.759 7.36621 261.057 12.2153 261.058 19.582C261.058 26.763 255.573 32.0791 246.648 32.0791C244.046 32.0791 241.071 31.8926 239.862 31.8926C239.119 31.8926 236.702 31.9853 235.865 31.9854V31.333C237.352 31.0532 238.096 30.4937 238.096 29.1885V10.3506C238.096 9.04514 237.259 8.48541 235.865 8.29883V7.55273C236.702 7.55277 239.304 7.64548 240.048 7.64551C241.256 7.64551 244.51 7.36623 247.113 7.36621ZM246.091 9.04492C244.697 9.04493 242.931 9.13873 242.001 9.3252V30.1211C242.931 30.3075 244.511 30.4004 245.812 30.4004C253.064 30.4002 256.874 26.0169 256.874 19.8623C256.874 13.5209 252.877 9.04492 246.091 9.04492Z" fill="black"/>
<path d="M98.9277 8.20508C97.8122 8.48484 96.9756 8.95137 96.9756 10.2568V29.1885C96.9757 30.4006 97.7193 30.9605 98.9277 31.2402V31.8926C98.37 31.8926 95.6748 31.7998 95.0234 31.7998C94.2797 31.7998 91.6761 31.8926 91.0254 31.8926V31.333C92.1409 31.0532 92.9775 30.5868 92.9775 29.2812V20.3281H78.8477V29.2812C78.8477 30.5868 79.5913 31.0532 80.7998 31.333V31.9863C80.2421 31.9863 77.4542 31.8926 76.8027 31.8926C76.1521 31.8926 73.6425 31.9863 72.9912 31.9863V31.333C74.1066 31.0532 74.9434 30.5867 74.9434 29.2812V10.3506C74.9434 9.13839 74.1995 8.57864 72.9912 8.29883V7.55273C73.5498 7.55277 76.1521 7.64551 76.8027 7.64551C77.547 7.64548 80.2421 7.55273 80.7998 7.55273V8.20508C79.6843 8.48484 78.8477 8.95137 78.8477 10.2568V18.2773H92.9775V10.3506C92.9775 9.045 92.2339 8.48535 91.0254 8.29883V7.55273C91.5832 7.55273 94.2797 7.64551 95.0234 7.64551C95.6748 7.64547 98.2771 7.55273 98.9277 7.55273V8.20508Z" fill="black"/>
</svg>
