<svg width="70" height="70" viewBox="0 0 70 70" fill="none" xmlns="http://www.w3.org/2000/svg">
<path d="M35 70C34.6514 70 34.3047 69.9934 33.9598 69.9839L41.1125 50.3257H50.9558C52.6828 50.3257 54.5808 48.9974 55.1703 47.3752L62.9305 26.0589C64.1993 22.569 62.2011 19.714 58.4873 19.714H44.831L33.3731 51.2014H33.3684L26.8724 69.0496C11.4626 65.3849 0 51.5331 0 35C0 18.4669 10.8107 5.41528 25.5497 1.29147L18.8458 19.7131H18.8439L7.70062 50.3238H15.1188L24.5946 24.3121H30.1686L20.6928 50.3238H28.1071L36.9386 26.057C38.2093 22.5671 36.2093 19.7121 32.5002 19.7121H26.2649L33.427 0.036845C33.9485 0.0141711 34.4719 0 35 0C54.3295 0 70 15.6705 70 35C70 54.3295 54.3295 70 35 70ZM50.6044 24.296L42.7989 45.7106H48.3729L56.1784 24.296H50.6044Z" fill="black"/>
</svg>
