<svg width="192" height="80" viewBox="0 0 192 80" fill="none" xmlns="http://www.w3.org/2000/svg">
<path fill-rule="evenodd" clip-rule="evenodd" d="M68.2104 61.3936C71.9299 61.5863 73.9136 64.7231 73.9136 68.2812C73.9134 71.9579 71.7997 75.1794 67.8452 75.1797C66.214 75.1797 64.8242 74.3369 64.1304 73.4316V80H61.6235V61.6611H64.1304V63.166C64.8242 62.2322 66.214 61.3896 67.8452 61.3896L68.2104 61.3936ZM67.4214 63.6436C66.0624 63.6437 64.7943 64.4575 64.1304 65.751V70.8438C64.7943 72.1372 66.0625 72.9198 67.4214 72.9199C69.8973 72.9199 71.348 70.9631 71.3481 68.2812C71.3481 65.6317 69.8975 63.6436 67.4214 63.6436Z" fill="black"/>
<path fill-rule="evenodd" clip-rule="evenodd" d="M43.7134 61.3955C47.3674 61.3957 49.269 64.0167 49.269 67.9014V69.0469H40.1489C40.421 71.7275 42.143 73.0224 44.5278 73.0225C46.0079 73.0225 47.0637 72.6913 48.2417 71.8174H48.3335V74.0176C47.2465 74.8605 45.8257 75.1914 44.1958 75.1914C40.2996 75.1913 37.6432 72.6003 37.6431 68.4443C37.6431 64.2868 40.119 61.3955 43.7134 61.3955ZM43.7427 63.5342C41.8409 63.5343 40.6017 64.9503 40.2397 66.9971H46.853C46.7631 65.0398 45.7956 63.5342 43.7427 63.5342Z" fill="black"/>
<path fill-rule="evenodd" clip-rule="evenodd" d="M110.052 61.3955C113.708 61.3955 115.609 64.0166 115.609 67.9014V69.0469H106.49C106.762 71.7275 108.483 73.0225 110.868 73.0225C112.349 73.0224 113.405 72.6914 114.582 71.8174H114.672V74.0176C113.587 74.8603 112.167 75.1914 110.536 75.1914C106.641 75.1914 103.984 72.6004 103.984 68.4443C103.984 64.2869 106.459 61.3957 110.052 61.3955ZM110.083 63.5342C108.181 63.5342 106.943 64.9502 106.581 66.9971H113.193C113.103 65.0398 112.137 63.5342 110.083 63.5342Z" fill="black"/>
<path d="M32.6372 61.5947H36.0493V63.7334H32.6372V70.8721C32.6373 72.3772 33.4224 72.8906 34.8413 72.8906C35.2331 72.8906 35.6565 72.8307 35.9585 72.71H36.0493V74.8477C35.6874 74.9983 35.1729 75.1191 34.479 75.1191C31.3678 75.1191 30.1313 73.7018 30.1313 71.1133V63.7334H27.8364V61.5947H30.1313V58.0723H32.6372V61.5947Z" fill="black"/>
<path d="M97.1069 61.3184C98.6769 61.3184 100.066 61.6491 101.183 62.4023V64.8135H101.093C100.008 63.9395 98.7373 63.4259 97.1675 63.4258C95.5975 63.4258 94.7212 64.1199 94.7212 65.0537C94.7215 66.108 95.6874 66.4081 97.8325 67.1016C99.7344 67.7029 101.847 68.4866 101.847 71.0166C101.847 73.7281 99.6132 75.1141 96.7456 75.1143C94.9934 75.1143 93.2418 74.6914 92.2446 73.9082V71.5293H92.3657C93.484 72.5528 95.1444 73.0049 96.7144 73.0049C98.1332 73.0048 99.4019 72.4615 99.4019 71.3174C99.4018 70.1434 98.3465 69.8719 96.2612 69.1797C94.3893 68.5771 92.3063 67.8835 92.3062 65.3848C92.3062 62.8236 94.4188 61.3184 97.1069 61.3184Z" fill="black"/>
<path d="M11.6958 58.376H2.6665V64.1279H10.8501V66.3584H2.6665V72.624H11.6958V74.9121H0.0395508V56.0928L11.6958 56.0869V58.376Z" fill="black"/>
<path d="M21.562 61.3926C24.3766 61.5107 25.9351 63.4462 25.9351 66.5664V74.9111H23.4292V66.627C23.4291 64.9101 22.5527 63.6748 20.6509 63.6748C19.0812 63.675 17.7524 64.6699 17.2993 66.084V74.9111H14.7935V61.6631H17.2993V63.5908C18.0843 62.3556 19.4136 61.3916 21.2856 61.3916L21.562 61.3926Z" fill="black"/>
<path d="M88.8843 74.8945H86.3765V61.6357H88.8843V74.8945Z" fill="black"/>
<path d="M58.1108 61.4141C58.6862 61.4141 59.1997 61.5032 59.4106 61.624V64.0928H59.3208C58.9577 63.9136 58.3534 63.8233 57.7495 63.8232C56.3917 63.8232 55.2429 64.7258 54.8198 66.2324V74.877H52.314V61.6289H54.8198V63.6777L54.936 63.4141C55.5538 62.1549 56.7537 61.4141 58.1108 61.4141Z" fill="black"/>
<path d="M82.6899 61.4141C83.2639 61.4141 83.7769 61.5033 83.9878 61.624V64.0928H83.8979C83.536 63.9135 82.9317 63.8232 82.3276 63.8232C80.9685 63.8232 79.822 64.7258 79.3989 66.2324V74.877H76.8921V61.6289H79.3989V63.6777L79.5142 63.4141C80.1308 62.1548 81.3315 61.4141 82.6899 61.4141Z" fill="black"/>
<path d="M87.6265 56.2949C88.5025 56.2951 89.2261 56.9873 89.2261 57.8613C89.2261 58.7353 88.5025 59.4276 87.6265 59.4277C86.7816 59.4277 86.0249 58.7354 86.0249 57.8613C86.0249 56.9872 86.7816 56.2949 87.6265 56.2949Z" fill="black"/>
<path d="M79.9946 36.5537H85.0981V32.8789H89.0835V36.5537H92.0435V39.7461H89.0835V45.1982C89.0835 46.3735 89.5369 46.9169 90.7446 46.917C91.0766 46.917 91.5006 46.885 91.9536 46.7344H92.0435V49.8672C91.5305 50.049 90.745 50.2588 89.5981 50.2588C86.3658 50.2588 85.0982 48.783 85.0981 45.3789V39.7461H79.9946V45.1982C79.9946 46.3736 80.448 46.917 81.6548 46.917C81.988 46.917 82.4109 46.885 82.8638 46.7344H82.9536V49.8672C82.4408 50.049 81.6547 50.2587 80.5093 50.2588C77.2769 50.2588 76.0083 48.783 76.0083 45.3789V39.7461H73.9546V36.5537H76.0083V32.8789H79.9946V36.5537Z" fill="black"/>
<path fill-rule="evenodd" clip-rule="evenodd" d="M192.008 49.9287H188.142V48.5439L187.978 48.7471C187.129 49.7065 185.855 50.2353 184.158 50.2354C180.714 50.2354 178.51 47.1033 178.51 43.2471C178.51 39.391 180.714 36.2285 184.158 36.2285C185.908 36.2286 187.176 36.7714 188.022 37.7646V31.1084H192.008V49.9287ZM185.485 39.6924C183.735 39.6925 182.557 40.9588 182.557 43.2471C182.557 45.5355 183.735 46.7713 185.485 46.7715C186.483 46.7715 187.358 46.3485 188.022 45.3848V41.0771C187.358 40.1135 186.483 39.6924 185.485 39.6924Z" fill="black"/>
<path fill-rule="evenodd" clip-rule="evenodd" d="M24.3735 36.1934C28.3895 36.1934 30.3823 38.8741 30.3823 42.8809V44.3877H21.8062C22.2904 46.4643 23.9202 47.0058 25.5513 47.0059C26.9701 47.0059 27.9963 46.7062 29.2642 45.9219H29.4165V49.0244C28.3295 49.8088 26.7883 50.2002 24.9165 50.2002C20.7495 50.2002 17.9117 47.5789 17.9116 43.2734C17.9116 39.0848 20.6894 36.1934 24.3735 36.1934ZM24.4331 39.2949C23.2251 39.295 22.168 39.8081 21.8062 41.6445H26.6987C26.6076 40.26 26.0343 39.2949 24.4331 39.2949Z" fill="black"/>
<path fill-rule="evenodd" clip-rule="evenodd" d="M66.6567 36.1934C70.6726 36.1935 72.6655 38.8742 72.6655 42.8809V44.3877H64.0894C64.5724 46.4644 66.2037 47.0059 67.8335 47.0059C69.2535 47.0058 70.2793 46.7061 71.5483 45.9219H71.6997V49.0244C70.6128 49.8088 69.0728 50.2001 67.1997 50.2002C63.0327 50.2002 60.194 47.5789 60.1938 43.2734C60.1938 39.0848 62.9726 36.1934 66.6567 36.1934ZM66.7163 39.2949C65.5095 39.2949 64.4513 39.808 64.0894 41.6445H68.9819C68.8908 40.26 68.3176 39.2949 66.7163 39.2949Z" fill="black"/>
<path d="M134.448 36.1846C135.867 36.1846 137.195 36.4859 138.192 37.208V40.6123H138.04C137.163 39.9499 136.137 39.5576 134.96 39.5576C132.967 39.5576 131.458 40.9147 131.458 43.2031C131.458 45.4916 132.967 46.8174 134.96 46.8174C136.137 46.8174 137.163 46.4254 138.04 45.7617H138.192V49.166C137.195 49.8894 135.867 50.1904 134.448 50.1904C130.462 50.1904 127.41 47.5113 127.41 43.2031C127.41 38.895 130.462 36.1846 134.448 36.1846Z" fill="black"/>
<path d="M56.9243 45.5557C56.9244 46.4892 57.286 46.8203 58.0708 46.8203C58.3429 46.8203 58.7362 46.7306 58.9771 46.6396H59.0386V49.9229C58.7066 50.0423 58.1319 50.1631 57.5278 50.1631L57.228 50.1611C54.1852 50.0823 52.938 48.7749 52.938 45.8281V31.0342H56.9243V45.5557Z" fill="black"/>
<path fill-rule="evenodd" clip-rule="evenodd" d="M119.208 36.209C123.256 36.209 125.459 38.1365 125.459 41.5107V49.9141H121.594V48.5889C120.718 49.6435 119.421 50.1553 118.03 50.1553C115.404 50.1551 113.259 48.5604 113.259 45.7266C113.259 43.107 115.404 41.3605 118.483 41.3604C119.449 41.3604 120.447 41.5106 121.473 41.8105V41.5723C121.473 40.1255 120.659 39.4942 118.516 39.4941C117.156 39.4941 115.857 39.8838 114.739 40.5176H114.589V37.3232C115.615 36.7219 117.429 36.209 119.208 36.209ZM119.27 44.1016C117.972 44.1016 117.187 44.5825 117.187 45.667C117.187 46.7827 117.972 47.2646 119.149 47.2646C120.265 47.2645 121.111 46.6917 121.473 45.6973V44.5527C120.869 44.223 120.086 44.1016 119.27 44.1016Z" fill="black"/>
<path fill-rule="evenodd" clip-rule="evenodd" d="M159.929 36.209C163.978 36.209 166.182 38.1364 166.182 41.5107V49.9141H162.316V48.5889C161.44 49.6435 160.14 50.1553 158.752 50.1553C156.124 50.1552 153.982 48.5605 153.982 45.7266C153.982 43.1071 156.124 41.3605 159.207 41.3604C160.173 41.3604 161.168 41.5105 162.195 41.8105V41.5723C162.195 40.1254 161.38 39.4942 159.236 39.4941C157.878 39.4941 156.577 39.8838 155.46 40.5176H155.309V37.3232C156.336 36.7219 158.148 36.209 159.929 36.209ZM159.991 44.1016C158.693 44.1016 157.908 44.5825 157.908 45.667C157.908 46.7827 158.693 47.2646 159.869 47.2646C160.988 47.2645 161.833 46.6919 162.195 45.6973V44.5527C161.592 44.2228 160.806 44.1016 159.991 44.1016Z" fill="black"/>
<path d="M4.10107 38.5635H11.4399V31.124H15.5464V49.957H11.4399V42.1553H4.10107V49.957H-0.00634766V31.124H4.10107V38.5635Z" fill="black"/>
<path d="M37.4185 44.4756L39.5327 36.5527H42.7339L44.8784 44.4756L47.1431 36.5527H50.9185V36.7041L46.811 49.9521H43.2173L41.0728 42.0605L38.9585 49.9521H35.3657L31.2583 36.7041V36.5527H35.1851L37.4185 44.4756Z" fill="black"/>
<path d="M144.698 41.7998L148.715 36.498H153.245V36.6494L148.414 42.7344L153.245 49.7529V49.9033H148.684L144.698 43.8203V49.9102H140.713V31.0771H144.698V41.7998Z" fill="black"/>
<path fill-rule="evenodd" clip-rule="evenodd" d="M105.767 31.04C109.935 31.0401 112.683 33.2685 112.683 37.4258L112.675 37.8115C112.51 41.6674 109.805 43.7578 105.767 43.7578H102.837V49.873H98.7329V31.04H105.767ZM102.837 40.2939H105.435C107.52 40.2939 108.515 39.1197 108.515 37.4326C108.515 35.6844 107.521 34.5098 105.435 34.5098H102.837V40.2939Z" fill="black"/>
<path d="M176.184 36.3115C176.727 36.3116 177.269 36.432 177.479 36.5527V40.3477H177.33C176.877 40.1658 176.334 40.0469 175.579 40.0469C174.341 40.0469 173.375 40.77 173.042 42.1543V49.8672H169.056V36.4629H172.921V38.6318L173.061 38.3613C173.779 37.052 174.796 36.3115 176.184 36.3115Z" fill="black"/>
<path fill-rule="evenodd" clip-rule="evenodd" d="M65.6968 18.8271H-0.00830078V0H65.6968V18.8271ZM4.10107 14.7334H61.5894V4.10352H4.10107V14.7334Z" fill="black"/>
</svg>
