<svg width="254" height="55" viewBox="0 0 254 55" fill="none" xmlns="http://www.w3.org/2000/svg">
<path d="M67.2161 48.1342C62.1561 56.7834 56.3192 54.8051 56.3192 54.8051C53.1715 53.934 46.6188 49.3813 44.4672 47.8375C44.3875 47.7583 44.3668 47.6595 44.3867 47.5407C44.4154 47.4951 44.4535 47.4559 44.498 47.4252C44.5424 47.3947 44.5927 47.3741 44.6456 47.3635L67.2161 48.1342Z" fill="black"/>
<path d="M29.7045 47.3433C29.8439 47.3433 29.9637 47.4221 30.0036 47.5407C30.0036 47.5605 30.0635 47.6801 29.8842 47.8187C27.6727 49.4022 20.9789 54.0527 18.0108 54.785C13.728 55.8139 9.60435 52.4496 7.15406 48.1154L29.7045 47.3433Z" fill="black"/>
<path d="M143.774 33.7854C143.774 41.722 139.372 46.2745 131.702 46.2745C124.112 46.2745 119.749 41.8011 119.749 34.0029V18.169H125.407V33.8243C125.407 38.4555 127.698 40.9301 131.781 40.9303C135.865 40.9303 138.116 38.5157 138.116 34.0231V18.1489H143.774V33.7854Z" fill="black"/>
<path d="M93.4525 18.1489V29.3126H106.222V18.1489H111.88V45.8582H106.222V34.5964H93.4525V45.8582H87.7948V18.1489H93.4525Z" fill="black"/>
<path fill-rule="evenodd" clip-rule="evenodd" d="M163.994 18.3073L176.166 45.8381H170.23L167.719 40.079H154.95L154.77 40.4751L152.42 45.8381H146.643L158.935 18.1489H163.875L163.994 18.3073ZM157.321 34.4192L157.042 35.0516H165.608L165.349 34.4192L161.325 25.1366L157.321 34.4192Z" fill="black"/>
<path d="M197.183 18.1301L203.518 37.1893L209.673 18.1489H215.551L205.849 45.8381H201.128L194.793 27.6503L188.458 45.8381H183.776L174.054 18.1489H180.07L186.227 37.1893L192.562 18.1301H197.183Z" fill="black"/>
<path d="M240.651 18.169V23.1963H225.71V28.8762H236.01V33.9237H225.71V40.792H241.189V45.8381H220.133V18.169H240.651Z" fill="black"/>
<path d="M253.5 18.1489V45.8193H247.923V18.1489H253.5Z" fill="black"/>
<path d="M1.15832 28.3418C1.23042 28.3802 20.3802 38.568 30.2625 45.2056C30.2625 45.2056 30.4615 45.3635 30.343 45.5413C30.2832 45.6205 30.2025 45.6612 30.1029 45.681C26.596 45.7008 13.5287 45.7592 13.19 45.6998C11.1404 45.5995 9.14113 45.0313 7.34855 44.0388C5.55609 43.0462 4.01771 41.656 2.85376 39.9769C1.69001 38.298 0.932169 36.3749 0.637881 34.3574C0.343644 32.3396 0.52179 30.2802 1.15832 28.3418Z" fill="black"/>
<path d="M73.2333 28.3029C74.9465 33.4488 72.7344 37.8432 72.7344 37.8432C70.264 43.246 65.4831 44.7504 65.4831 44.7504C64.2481 45.2452 62.9332 45.5418 61.5986 45.6407C61.2349 45.7 47.8126 45.681 44.2673 45.681C44.1302 45.6809 44.0318 45.5081 44.0286 45.5024C43.9887 45.3836 44.0483 45.2647 44.1479 45.1855C54.0688 38.5353 73.2333 28.3029 73.2333 28.3029Z" fill="black"/>
<path d="M11.736 9.69882C19.8092 19.8498 26.6621 30.9029 32.1551 42.6329C32.1947 42.7316 32.1753 42.8501 32.0961 42.9095C32.0164 42.9886 31.8965 43.0081 31.797 42.9686C28.6494 41.405 15.102 34.5571 9.50407 29.134C8.43066 28.2198 7.54907 27.104 6.90994 25.851C6.27075 24.5978 5.88652 23.2315 5.7792 21.8307C5.32272 15.776 11.6911 9.74131 11.736 9.69882Z" fill="black"/>
<path d="M62.6154 9.69882C62.6845 9.76235 68.9671 15.5522 68.5709 21.7918C68.392 26.3073 64.8917 29.1136 64.8661 29.134C59.3081 34.5373 45.8608 41.3265 42.6336 42.9297C42.534 42.9888 42.4141 42.9688 42.3345 42.9095C42.2902 42.8629 42.2579 42.8061 42.2406 42.7444C42.2232 42.6824 42.2215 42.6165 42.2352 42.5537C50.8461 23.8825 62.5746 9.7479 62.6154 9.69882Z" fill="black"/>
<path d="M31.8359 0.0201415C31.8359 0.0201415 38.4898 8.57026 35.2227 40.8712C35.2226 41.0095 35.1235 41.1082 35.0041 41.1478C35.0041 41.1478 34.8847 41.2068 34.7452 41.0484C32.6331 38.0195 22.8317 23.5525 20.8396 14.7651C20.8378 14.7589 19.7251 11.0219 20.8195 7.64035C20.8195 7.64035 22.2344 2.23723 28.2103 0.71301C28.2103 0.71301 30.8592 0.0995261 31.8359 0.0201415Z" fill="black"/>
<path d="M42.5746 0C44.3931 0.255335 46.0937 0.686281 46.1197 0.692869C52.0961 2.1377 53.5708 7.62021 53.5708 7.62021C54.6024 10.4984 53.539 14.7114 53.5305 14.7449C51.5385 23.4926 41.7985 37.8809 39.6263 40.9894C39.5666 41.108 39.4266 41.1483 39.3071 41.1089C39.2075 41.0693 39.1275 40.9698 39.1475 40.851C35.8804 8.55024 42.5746 0 42.5746 0Z" fill="black"/>
</svg>
