<svg width="134" height="50" viewBox="0 0 134 50" fill="none" xmlns="http://www.w3.org/2000/svg">
<path d="M124.603 50H107.313V46.5186H124.603V50Z" fill="black"/>
<path d="M86.5996 49.998H69.3105V46.5166H86.5996V49.998Z" fill="black"/>
<path fill-rule="evenodd" clip-rule="evenodd" d="M131.173 45.8584C131.797 45.8585 132.116 46.2327 132.116 46.7412C132.116 47.1817 131.917 47.4628 131.61 47.583L132.235 48.6523H131.491L130.974 47.6885H130.588V48.6523H129.909V45.8584H131.173ZM130.588 46.3936V47.1826H131.093C131.305 47.1825 131.425 47.0877 131.425 46.8877V46.6865C131.425 46.4869 131.305 46.3937 131.093 46.3936H130.588Z" fill="black"/>
<path fill-rule="evenodd" clip-rule="evenodd" d="M131.072 44.5137C131.798 44.5137 132.495 44.8023 133.008 45.3164C133.521 45.8306 133.81 46.5286 133.81 47.2559C133.81 47.983 133.521 48.6802 133.008 49.1943C132.495 49.7086 131.798 49.998 131.072 49.998C130.346 49.998 129.65 49.7085 129.137 49.1943C128.624 48.6802 128.335 47.9829 128.335 47.2559C128.335 46.5286 128.623 45.8306 129.137 45.3164C129.65 44.8022 130.346 44.5137 131.072 44.5137ZM131.072 45.0117C130.479 45.0118 129.909 45.2485 129.489 45.6689C129.069 46.0897 128.833 46.6609 128.833 47.2559C128.833 47.8508 129.069 48.4211 129.489 48.8418C129.909 49.2624 130.478 49.499 131.072 49.499C131.666 49.499 132.236 49.2625 132.656 48.8418C133.076 48.4211 133.311 47.8507 133.312 47.2559C133.312 46.6609 133.076 46.0897 132.656 45.6689C132.236 45.2483 131.666 45.0117 131.072 45.0117Z" fill="black"/>
<path d="M62.4951 46.5156C60.1662 48.6636 57.0489 49.997 53.5986 49.9971L27.8311 49.96V46.5156H62.4951Z" fill="black"/>
<path d="M24.3799 49.9912H0.19043V46.5098H24.3799V49.9912Z" fill="black"/>
<path d="M96.9502 49.96L95.7559 46.5166H98.1455L96.9502 49.96Z" fill="black"/>
<path d="M24.3799 43.3438H0.19043V39.8623H24.3799V43.3438Z" fill="black"/>
<path d="M66.4141 39.8623C66.1305 41.0967 65.6625 42.2699 65.0342 43.3438H27.8311L27.832 39.8623H66.4141Z" fill="black"/>
<path d="M86.5996 43.3438H69.3105V39.8623H86.5996V43.3438Z" fill="black"/>
<path d="M99.2422 43.3438H94.6582L93.4375 39.8623H100.475L99.2422 43.3438Z" fill="black"/>
<path d="M124.603 43.3438H107.313V39.8623H124.603V43.3438Z" fill="black"/>
<path d="M17.4668 36.7021H7.0918V33.2207H17.4668V36.7021Z" fill="black"/>
<path d="M45.1074 36.7021H34.7432V33.2207H45.1074V36.7021Z" fill="black"/>
<path d="M66.3271 33.2207C66.6352 34.3318 66.7959 35.5047 66.7959 36.7021H55.4834V33.2207H66.3271Z" fill="black"/>
<path d="M86.5859 36.7021H76.21V33.2207H86.5859V36.7021Z" fill="black"/>
<path d="M117.689 36.7021H107.313V33.2207H117.689V36.7021Z" fill="black"/>
<path d="M101.571 36.7012H92.3291L91.1084 33.2207H102.791L101.571 36.7012Z" fill="black"/>
<path d="M17.4668 30.0596H7.0918V26.5781H17.4668V30.0596Z" fill="black"/>
<path d="M62.1367 26.5781C63.2703 27.5534 64.2444 28.7263 65.0332 30.0596H34.7432V26.5781H62.1367Z" fill="black"/>
<path d="M86.5859 30.0596H76.21V26.5781H86.5859V30.0596Z" fill="black"/>
<path d="M103.9 30.0596H90.0127L88.8174 26.5781H105.084L103.9 30.0596Z" fill="black"/>
<path d="M117.689 30.0596H107.313V26.5781H117.689V30.0596Z" fill="black"/>
<path d="M17.4668 23.418H7.0918V19.9365H17.4668V23.418Z" fill="black"/>
<path d="M65.0342 19.9365C64.27 21.2698 63.2961 22.4427 62.1377 23.418H34.7432V19.9365H65.0342Z" fill="black"/>
<path d="M96.9502 22.751L97.9238 19.9365H117.689V23.418H107.313V20.2207L106.218 23.418H87.6836L86.5859 20.2207V23.418H76.21V19.9365H95.9766L96.9502 22.751Z" fill="black"/>
<path d="M17.4668 16.7646H7.0918V13.2832H17.4668V16.7646Z" fill="black"/>
<path d="M45.1074 16.7646H34.7432V13.2832H45.1074V16.7646Z" fill="black"/>
<path d="M66.7959 13.2832C66.7959 14.4807 66.6352 15.6536 66.3271 16.7646H55.4834V13.2832H66.7959Z" fill="black"/>
<path d="M94.8799 16.7646H76.21V13.2832H93.6855L94.8799 16.7646Z" fill="black"/>
<path d="M117.689 16.7646H99.0195L100.216 13.2832H117.689V16.7646Z" fill="black"/>
<path d="M24.3799 10.123H0.19043V6.6416H24.3799V10.123Z" fill="black"/>
<path d="M65.0342 6.6416C65.6256 7.71566 66.0937 8.88861 66.4141 10.123H27.8311V6.6416H65.0342Z" fill="black"/>
<path d="M92.5879 10.123H69.3105V6.6416H91.3926L92.5879 10.123Z" fill="black"/>
<path d="M124.603 10.123H101.325L102.507 6.6416H124.603V10.123Z" fill="black"/>
<path d="M24.3799 3.48145H0.19043V0H24.3799V3.48145Z" fill="black"/>
<path d="M53.5986 0C57.0244 0 60.1667 1.33342 62.4834 3.48145H27.8311V0H53.5986Z" fill="black"/>
<path d="M90.2959 3.48145H69.3105V0H89.1006L90.2959 3.48145Z" fill="black"/>
<path d="M124.603 3.48145H103.617L104.812 0H124.603V3.48145Z" fill="black"/>
</svg>
