<svg width="328" height="36" viewBox="0 0 328 36" fill="none" xmlns="http://www.w3.org/2000/svg">
<path d="M24.7555 6.3H15.772V29.7H24.7555V36H0.5V29.7H9.48352V6.3H0.5V0H24.7555V6.3Z" fill="black"/>
<path d="M60.2404 20.388L68.7747 0H78.6566V36H72.3681V8.58428L64.283 27.9H56.1978L48.1126 8.58428V36H41.8242V0H51.706L60.2404 20.388Z" fill="black"/>
<path fill-rule="evenodd" clip-rule="evenodd" d="M109.963 0.00439453C116.516 0.170824 121.777 5.54465 121.777 12.15C121.777 18.7554 116.516 24.1292 109.963 24.2956L109.65 24.3H102.014V36H95.7253V0H109.65L109.963 0.00439453ZM102.014 18H109.65C112.875 18 115.489 15.3809 115.489 12.15C115.489 8.91914 112.875 6.3 109.65 6.3H102.014V18Z" fill="black"/>
<path d="M159.508 6.3H142.44V14.4H157.712V20.7H142.44V29.7H159.508V36H136.151V0H159.508V6.3Z" fill="black"/>
<path fill-rule="evenodd" clip-rule="evenodd" d="M190.501 0L190.815 0.00439453C197.368 0.170824 202.629 5.54465 202.629 12.15C202.629 16.3786 200.472 20.1016 197.201 22.2776L204.426 36H197.239L191.072 24.2859C190.986 24.2899 190.9 24.2934 190.815 24.2956L190.501 24.3H182.865V36H176.577V0H190.501ZM182.865 18H190.501C193.726 18 196.341 15.3809 196.341 12.15C196.341 8.91914 193.726 6.3 190.501 6.3H182.865V18Z" fill="black"/>
<path d="M242.157 6.3H234.071V29.7H242.157V36H218.799V29.7H227.783V6.3H218.799V0H242.157V6.3Z" fill="black"/>
<path fill-rule="evenodd" clip-rule="evenodd" d="M289.315 36H282.128L279.4 27.9H265.546L262.819 36H255.632L267.754 0H277.192L289.315 36ZM267.668 21.6H277.279L272.473 7.32832L267.668 21.6Z" fill="black"/>
<path d="M310.431 29.7H327.5V36H304.143V0H310.431V29.7Z" fill="black"/>
</svg>
