<svg xmlns="http://www.w3.org/2000/svg" id="Layer_1" data-name="Layer 1" viewBox="0 0 226.61 43.17">
    <defs>
        <style>.cls-1{fill:#000;}</style>
    </defs>
    <title>Johns Hopkins University</title>
    <path class="cls-1"
          d="M79.6,34.28a9,9,0,0,0-.23-2.56,0.77,0.77,0,0,0-.62-0.26l-0.31,0a0.23,0.23,0,0,1,0-.3c0.47,0,.93,0,1.41,0s0.85,0,1.3,0a0.22,0.22,0,0,1,0,.3l-0.3,0a0.72,0.72,0,0,0-.62.3,11.16,11.16,0,0,0-.17,2.53v1.4a4.31,4.31,0,0,1-.87,3,3.27,3.27,0,0,1-2.37.91,3.53,3.53,0,0,1-2.32-.68,3.54,3.54,0,0,1-1-2.92V33c0-1.29,0-1.5-.74-1.56l-0.31,0a0.23,0.23,0,0,1,0-.3c0.62,0,1,0,1.54,0s0.92,0,1.52,0a0.23,0.23,0,0,1,0,.3l-0.3,0c-0.72.06-.74,0.27-0.74,1.56V35.7c0,2,.62,3.31,2.52,3.31s2.48-1.41,2.48-3.29V34.28Z"/>
    <path class="cls-1"
          d="M95.79,37.25c0,0.37,0,1.85,0,2.17a0.22,0.22,0,0,1-.23.14c-0.15-.21-0.51-0.64-1.59-1.87l-2.87-3.27C90.79,34,90,33,89.69,32.73h0a3.18,3.18,0,0,0-.06.8v2.7a9.69,9.69,0,0,0,.23,2.57,0.81,0.81,0,0,0,.63.23l0.38,0a0.22,0.22,0,0,1,0,.31c-0.56,0-1,0-1.45,0s-0.85,0-1.29,0a0.23,0.23,0,0,1,0-.31l0.33,0a0.66,0.66,0,0,0,.55-0.25,11.93,11.93,0,0,0,.16-2.55V32.66a1.14,1.14,0,0,0-.27-0.89,1.36,1.36,0,0,0-.77-0.3l-0.21,0a0.22,0.22,0,0,1,0-.31c0.52,0,1.18,0,1.4,0a3.91,3.91,0,0,0,.57,0A17.09,17.09,0,0,0,92,33.86l1.2,1.35c0.86,1,1.46,1.65,2,2.24h0a1.22,1.22,0,0,0,.05-0.52V34.28A8.76,8.76,0,0,0,95,31.72a1.1,1.1,0,0,0-.77-0.25l-0.21,0a0.21,0.21,0,0,1,0-.31c0.57,0,1,0,1.46,0s0.85,0,1.27,0a0.22,0.22,0,0,1,0,.31l-0.17,0a1.07,1.07,0,0,0-.69.26,10,10,0,0,0-.19,2.55v3Z"/>
    <path class="cls-1"
          d="M105,33.06c0-1.31,0-1.53-.76-1.59l-0.31,0a0.24,0.24,0,0,1,0-.31c0.62,0,1,0,1.56,0s0.92,0,1.54,0a0.25,0.25,0,0,1,0,.31l-0.31,0c-0.73.06-.76,0.27-0.76,1.59v4.41c0,1.31,0,1.49.76,1.57l0.31,0a0.24,0.24,0,0,1,0,.31c-0.62,0-1,0-1.54,0s-0.94,0-1.56,0a0.24,0.24,0,0,1,0-.31l0.31,0C105,39,105,38.78,105,37.47V33.06Z"/>
    <path class="cls-1"
          d="M115.06,32.49a1.19,1.19,0,0,0-1-1l-0.22,0a0.21,0.21,0,0,1,0-.31c0.36,0,.76,0,1.29,0s1,0,1.5,0a0.22,0.22,0,0,1,0,.31l-0.19,0c-0.47.06-.57,0.13-0.58,0.23a15.34,15.34,0,0,0,.62,1.74c0.57,1.44,1.14,2.86,1.76,4.28,0.38-.82.9-2.09,1.19-2.75,0.36-.84.94-2.24,1.15-2.78a1.3,1.3,0,0,0,.11-0.48c0-.09-0.12-0.19-0.56-0.23l-0.22,0a0.22,0.22,0,0,1,0-.31c0.35,0,.82,0,1.29,0s0.79,0,1.2,0a0.25,0.25,0,0,1,0,.31l-0.37,0a0.79,0.79,0,0,0-.65.43,30.25,30.25,0,0,0-1.39,2.85l-0.67,1.52c-0.5,1.14-1.08,2.58-1.29,3.24a0.26,0.26,0,0,1-.13,0,0.54,0.54,0,0,1-.19,0,14.48,14.48,0,0,0-.57-1.65Z"/>
    <path class="cls-1"
          d="M130,33c0-1.29,0-1.48-.76-1.56l-0.2,0a0.25,0.25,0,0,1,0-.31c0.53,0,1,0,1.46,0h2.33a16.64,16.64,0,0,0,1.67,0,14.18,14.18,0,0,1,.2,1.65,0.25,0.25,0,0,1-.31,0,1.34,1.34,0,0,0-.94-1.18,5.88,5.88,0,0,0-1.2-.07h-0.89c-0.37,0-.37,0-0.37.5v2.48c0,0.35,0,.35.41,0.35h0.72a4.55,4.55,0,0,0,1.05-.08,0.44,0.44,0,0,0,.3-0.43l0.1-.51a0.24,0.24,0,0,1,.32,0c0,0.3-.05.78-0.05,1.25s0.05,0.92.05,1.19a0.24,0.24,0,0,1-.32,0l-0.11-.48a0.53,0.53,0,0,0-.38-0.47,4.08,4.08,0,0,0-1-.06H131.4c-0.37,0-.41,0-0.41.34v1.75a2,2,0,0,0,.23,1.29,2,2,0,0,0,1.5.29,3.62,3.62,0,0,0,1.59-.19,3.08,3.08,0,0,0,.88-1.2,0.23,0.23,0,0,1,.31.09,10.57,10.57,0,0,1-.56,1.72c-1.11,0-2.22,0-3.32,0h-1.12c-0.53,0-1,0-1.69,0a0.24,0.24,0,0,1,0-.31l0.41,0c0.71-.06.77-0.25,0.77-1.55V33Z"/>
    <path class="cls-1"
          d="M143.4,33c0-1.18,0-1.39-.54-1.45l-0.4,0a0.21,0.21,0,0,1,0-.31c0.69-.06,1.55-0.1,2.76-0.1a4.38,4.38,0,0,1,2.07.37,1.85,1.85,0,0,1,1,1.74,2.29,2.29,0,0,1-1.55,2.07,0.29,0.29,0,0,0,.06.3,13.29,13.29,0,0,0,2.49,3.29,1.48,1.48,0,0,0,.86.35,0.1,0.1,0,0,1,0,.17,2,2,0,0,1-.54.06c-1.06,0-1.69-.31-2.56-1.56-0.32-.46-0.83-1.31-1.22-1.87a0.88,0.88,0,0,0-.88-0.4c-0.56,0-.58,0-0.58.27v1.56c0,1.3,0,1.45.74,1.55l0.26,0a0.24,0.24,0,0,1,0,.31c-0.56,0-1,0-1.47,0s-1,0-1.55,0a0.24,0.24,0,0,1,0-.31l0.31,0c0.72-.09.74-0.25,0.74-1.55V33Zm1,1.77a1,1,0,0,0,0,.41,2.29,2.29,0,0,0,.85.06,2.07,2.07,0,0,0,1.28-.32,1.78,1.78,0,0,0,.62-1.54,1.83,1.83,0,0,0-2-1.91c-0.77,0-.8,0-0.8.4v2.9Z"/>
    <path class="cls-1"
          d="M158.38,39.55a3.87,3.87,0,0,1-1.93-.46,5.76,5.76,0,0,1-.33-1.73,0.22,0.22,0,0,1,.3,0,2.25,2.25,0,0,0,2.13,1.85,1.41,1.41,0,0,0,1.55-1.42,1.86,1.86,0,0,0-1-1.73l-1.18-.77a2.64,2.64,0,0,1-1.34-2.13A2.23,2.23,0,0,1,159.09,31a4.86,4.86,0,0,1,1.15.16,1.59,1.59,0,0,0,.43.07,5.45,5.45,0,0,1,.22,1.51,0.24,0.24,0,0,1-.31,0,1.62,1.62,0,0,0-1.69-1.4,1.3,1.3,0,0,0-1.47,1.38,1.94,1.94,0,0,0,1.05,1.52l1,0.62A2.79,2.79,0,0,1,161,37.26a2.34,2.34,0,0,1-2.64,2.29"/>
    <path class="cls-1"
          d="M169.45,33.06c0-1.31,0-1.53-.76-1.59l-0.31,0a0.24,0.24,0,0,1,0-.31c0.62,0,1,0,1.56,0s0.92,0,1.54,0a0.24,0.24,0,0,1,0,.31l-0.31,0c-0.73.06-.75,0.27-0.75,1.59v4.41c0,1.31,0,1.49.75,1.57l0.31,0a0.24,0.24,0,0,1,0,.31c-0.62,0-1,0-1.54,0s-0.94,0-1.56,0a0.24,0.24,0,0,1,0-.31l0.31,0c0.73-.09.76-0.26,0.76-1.57V33.06Z"/>
    <path class="cls-1"
          d="M183.21,37.49c0,1.3,0,1.49.74,1.55l0.4,0a0.25,0.25,0,0,1,0,.31c-0.71,0-1.13,0-1.62,0s-0.93,0-1.72,0a0.22,0.22,0,0,1,0-.31l0.45,0c0.71-.06.77-0.25,0.77-1.55V32c0-.38,0-0.4-0.37-0.4h-0.68a2.54,2.54,0,0,0-1.52.31,2.27,2.27,0,0,0-.56.86,0.24,0.24,0,0,1-.32-0.09,12.92,12.92,0,0,0,.47-1.85,0.32,0.32,0,0,1,.24,0c0.08,0.4.49,0.38,1.06,0.38h5c0.67,0,.78,0,1-0.35a0.23,0.23,0,0,1,.22,0,7.44,7.44,0,0,0-.19,1.88,0.23,0.23,0,0,1-.32,0,1.59,1.59,0,0,0-.31-0.9,2.47,2.47,0,0,0-1.44-.31h-0.88c-0.37,0-.36,0-0.36.42v5.52Z"/>
    <path class="cls-1"
          d="M197.33,37.47c0,1.32.07,1.52,0.74,1.57l0.47,0a0.24,0.24,0,0,1,0,.31c-0.77,0-1.19,0-1.69,0s-1,0-1.62,0a0.24,0.24,0,0,1,0-.31l0.39,0c0.72-.07.74-0.25,0.74-1.57V36.84a2.5,2.5,0,0,0-.39-1.54l-1.46-2.85c-0.42-.82-0.61-0.88-1-0.94l-0.35-.06a0.23,0.23,0,0,1,0-.31c0.39,0,.84,0,1.44,0s1,0,1.33,0a0.21,0.21,0,0,1,0,.31l-0.16,0c-0.43.06-.52,0.12-0.52,0.22a6.18,6.18,0,0,0,.38,1c0.46,0.92.92,1.89,1.4,2.75,0.38-.66.79-1.38,1.16-2.1a11.21,11.21,0,0,0,.8-1.64,0.67,0.67,0,0,0-.52-0.2l-0.22,0a0.21,0.21,0,0,1,0-.31c0.44,0,.8,0,1.19,0s0.73,0,1.15,0a0.21,0.21,0,0,1,0,.31l-0.35.06c-0.64.11-1,.89-1.64,2l-0.78,1.35a2.85,2.85,0,0,0-.58,2v0.64Z"/>
    <path class="cls-1"
          d="M31.37,4.43c0-.06-2-1-2-1a19.38,19.38,0,0,0-9.28.74h0a19.37,19.37,0,0,0-9.28-.74s-1.92,1-2,1L5.91,11a0.2,0.2,0,0,0,.22.31,78.71,78.71,0,0,1,14-1.12h0a78.7,78.7,0,0,1,14,1.13A0.2,0.2,0,0,0,34.35,11ZM19.42,9.16C16.19,9,10.62,9,7.83,10l2-5,1.35-.72L9.73,8.44a18.87,18.87,0,0,1,9.7.41V9.16Zm1.36,0V8.85a18.86,18.86,0,0,1,9.7-.41L29,4.34,30.4,5.07l2,5c-2.65-1-8.22-1-11.6-.87"/>
    <path class="cls-1"
          d="M38.6,2h0l-0.13,0a87.83,87.83,0,0,0-36.67,0H1.72L1.67,2A2.24,2.24,0,0,0,0,4.15V7.41C0,31,14.57,40.52,19,42.88a2.32,2.32,0,0,0,1.09.29,2.26,2.26,0,0,0,1.09-.29c4.45-2.36,19-11.92,19-35.46V4.15A2.26,2.26,0,0,0,38.6,2M19.31,41.53C14.38,38.81,4.49,31.1,1.94,15.3l0.12,0a87.62,87.62,0,0,1,17.25-1.87V41.53ZM34.88,26.38v0a36.07,36.07,0,0,1-3.48,5.77h0a35.19,35.19,0,0,1-3.48,4V29.85l-3.48-2.32V39.25a29.54,29.54,0,0,1-3.48,2.28V25.21l3.48,2.32V19.43l3.48,2.32v-8c1.16,0.1,2.33.22,3.48,0.37v9.94l3.48,2.32V14.65C36,14.84,37.1,15,38.2,15.27l0.12,0a40,40,0,0,1-3.44,11.08M20.95,17.11v-3.7c1.16,0,2.32,0,3.48.1v5.92Zm18-9.69a50.31,50.31,0,0,1-.36,6.08,89.75,89.75,0,0,0-36.89,0,50.22,50.22,0,0,1-.36-6.09V4.15A1,1,0,0,1,2,3.23h0a86.51,86.51,0,0,1,36.12,0h0a0.94,0.94,0,0,1,.75.92V7.41Z"/>
    <polygon class="cls-1" points="31.4 24.06 27.91 21.74 27.91 29.85 31.4 32.17 31.4 24.06"/>
    <path class="cls-1"
          d="M11.86,29.17A6.37,6.37,0,1,0,5.48,22.8a6.38,6.38,0,0,0,6.37,6.37M13,28.24a8.42,8.42,0,0,0,1.52-2.31,10.93,10.93,0,0,1,1.57.46A5.56,5.56,0,0,1,13,28.24m3.57-2.53a11.23,11.23,0,0,0-1.77-.55,7.78,7.78,0,0,0,.35-2h2.23a5.54,5.54,0,0,1-.82,2.52m0-5.84a5.54,5.54,0,0,1,.82,2.52H15.18a7.79,7.79,0,0,0-.35-2,11.34,11.34,0,0,0,1.77-.55m-0.48-.67a11,11,0,0,1-1.57.46A8.42,8.42,0,0,0,13,17.35a5.57,5.57,0,0,1,3.09,1.86m-3.85-1.48a7.86,7.86,0,0,1,1.46,2.09,12.78,12.78,0,0,1-1.46.12V17.72Zm0,3A13.86,13.86,0,0,0,14,20.58a7,7,0,0,1,.35,1.82H12.26V20.74Zm0,2.46h2.11A6.9,6.9,0,0,1,14,25a13.48,13.48,0,0,0-1.76-.16V23.2Zm0,2.46a13.35,13.35,0,0,1,1.45.12,7.8,7.8,0,0,1-1.45,2.08V25.66Zm-4.65.73a11.08,11.08,0,0,1,1.57-.46,8.4,8.4,0,0,0,1.52,2.32,5.56,5.56,0,0,1-3.1-1.86m3.85,1.47A8,8,0,0,1,10,25.78a13.61,13.61,0,0,1,1.45-.12v2.2Zm0-3A13.77,13.77,0,0,0,9.7,25a6.78,6.78,0,0,1-.35-1.82h2.11v1.66Zm0-2.46H9.35a6.8,6.8,0,0,1,.35-1.82,13.67,13.67,0,0,0,1.75.16v1.66Zm0-2.46A12.91,12.91,0,0,1,10,19.81a7.94,7.94,0,0,1,1.45-2.08v2.2ZM10.7,17.35a8.4,8.4,0,0,0-1.52,2.32,11.08,11.08,0,0,1-1.57-.46,5.57,5.57,0,0,1,3.1-1.86M7.12,19.88a11.38,11.38,0,0,0,1.77.55,7.73,7.73,0,0,0-.36,2H6.31a5.51,5.51,0,0,1,.82-2.52M6.31,23.2H8.54a7.81,7.81,0,0,0,.35,2,11.3,11.3,0,0,0-1.77.55,5.5,5.5,0,0,1-.82-2.52"/>
    <path class="cls-1"
          d="M51.76,8.93c0-3.16-.28-3.5-2-3.64l-0.71-.06a0.56,0.56,0,0,1,.06-0.71C50.79,4.58,51.76,4.6,53,4.6s2.11,0,3.24-.09a0.56,0.56,0,0,1,.06.71l-0.43.06c-1.68.23-1.73,0.63-1.73,3.64V19.48A15.85,15.85,0,0,1,53.44,25a6.18,6.18,0,0,1-5.61,4.1c-0.34,0-1.22,0-1.22-.6a1.34,1.34,0,0,1,1-1.31,3.46,3.46,0,0,1,1.05.17,4.4,4.4,0,0,0,1.19.2A1.21,1.21,0,0,0,51,26.82c0.65-1.34.74-5.6,0.74-7.14V8.93Z"/>
    <path class="cls-1"
          d="M56.19,15.63a8.3,8.3,0,0,1,8.54-8.47,7.9,7.9,0,0,1,8.33,8.23,8.19,8.19,0,0,1-8.33,8.38c-5.33,0-8.54-3.82-8.54-8.14m14.47,0.5c0-4-1.75-8.23-6.33-8.23-2.5,0-5.74,1.71-5.74,7C58.6,18.41,60.32,23,65,23c2.88,0,5.62-2.16,5.62-6.89"/>
    <path class="cls-1"
          d="M78.52,15.63c-1.15,0-1.2,0-1.2.77v3.38c0,2.52.12,2.86,1.46,3l0.69,0.07a0.47,0.47,0,0,1,0,.6c-1.3,0-2.11-.07-3-0.07s-1.85,0-2.78.07a0.47,0.47,0,0,1,0-.6L74,22.78c1.34-.24,1.39-0.48,1.39-3V11.14c0-2.52-.17-2.93-1.42-3l-0.62,0a0.47,0.47,0,0,1,0-.6c1.18,0,2,.07,3,0.07s1.75,0,2.78-.07a0.47,0.47,0,0,1,0,.6l-0.46,0c-1.39.14-1.44,0.5-1.44,3V13.9c0,0.74,0,.77,1.2.77h6.86c1.15,0,1.2,0,1.2-.77V11.14c0-2.52,0-2.88-1.46-3l-0.46,0a0.47,0.47,0,0,1,0-.6c1.1,0,1.92.07,2.9,0.07s1.75,0,2.83-.07a0.48,0.48,0,0,1,0,.6L90,8.12c-1.39.14-1.44,0.5-1.44,3v8.64c0,2.52,0,2.83,1.44,3l0.58,0.07a0.47,0.47,0,0,1,0,.6c-1.15,0-2-.07-2.9-0.07s-1.85,0-2.9.07a0.46,0.46,0,0,1,0-.6l0.46-.07c1.46-.24,1.46-0.48,1.46-3V16.4c0-.72,0-0.77-1.2-0.77H78.52Z"/>
    <path class="cls-1"
          d="M107,19.3c0,0.72,0,3.58.07,4.2a0.43,0.43,0,0,1-.46.26c-0.29-.41-1-1.25-3.07-3.62L97.94,13.8c-0.65-.74-2.28-2.71-2.78-3.24h0A6,6,0,0,0,95,12.12v5.23c0,1.13,0,4.25.43,5a1.58,1.58,0,0,0,1.23.46l0.74,0.07a0.44,0.44,0,0,1,0,.6c-1.08,0-1.92-.07-2.81-0.07s-1.66,0-2.5.07a0.45,0.45,0,0,1,0-.6l0.65-.07a1.3,1.3,0,0,0,1.06-.48A23.36,23.36,0,0,0,94,17.36V10.42a2.2,2.2,0,0,0-.53-1.73A2.61,2.61,0,0,0,92,8.12l-0.41,0a0.42,0.42,0,0,1,0-.6c1,0.07,2.28.07,2.71,0.07a7.57,7.57,0,0,0,1.1-.07c0.48,1.23,3.31,4.39,4.1,5.28l2.33,2.61c1.65,1.85,2.83,3.19,4,4.34h0a2.41,2.41,0,0,0,.1-1V13.56c0-1.13,0-4.25-.48-5A2.16,2.16,0,0,0,104,8.12l-0.41,0a0.4,0.4,0,0,1,0-.6c1.1,0,1.92.07,2.83,0.07s1.65,0,2.47-.07a0.42,0.42,0,0,1,0,.6l-0.34,0a2.12,2.12,0,0,0-1.34.5c-0.41.86-.36,3.84-0.36,4.94V19.3Z"/>
    <path class="cls-1"
          d="M113.3,23.76a7.47,7.47,0,0,1-3.74-.89,11,11,0,0,1-.65-3.36,0.42,0.42,0,0,1,.58-0.07c0.36,1.22,1.34,3.58,4.13,3.58a2.73,2.73,0,0,0,3-2.76,3.6,3.6,0,0,0-2-3.36l-2.28-1.49a5.12,5.12,0,0,1-2.59-4.13c0-2.28,1.78-4.13,4.9-4.13a9.34,9.34,0,0,1,2.23.31,3.13,3.13,0,0,0,.84.14,10.45,10.45,0,0,1,.43,2.93,0.48,0.48,0,0,1-.6.07,3.14,3.14,0,0,0-3.26-2.71c-2.35,0-2.86,1.56-2.86,2.67a3.78,3.78,0,0,0,2,3l1.92,1.2a5.41,5.41,0,0,1,3,4.61c0,2.64-2,4.44-5.11,4.44"/>
    <path class="cls-1"
          d="M132.66,14.19c-1.37,0-1.42.06-1.42,0.91v4c0,3,.14,3.39,1.73,3.56l0.83,0.09a0.55,0.55,0,0,1-.06.71c-1.54-.06-2.5-0.08-3.61-0.08s-2.19.06-3.3,0.08a0.55,0.55,0,0,1-.06-0.71l0.48-.09c1.59-.29,1.65-0.57,1.65-3.56V8.87c0-3-.2-3.47-1.68-3.58l-0.74-.06a0.56,0.56,0,0,1,.06-0.71c1.39,0,2.36.08,3.59,0.08s2.08,0,3.3-.08a0.56,0.56,0,0,1,.06.71l-0.54.06c-1.65.17-1.7,0.6-1.7,3.58v3.27c0,0.88.06,0.91,1.42,0.91h8.14c1.37,0,1.42,0,1.42-.91V8.87c0-3-.06-3.41-1.74-3.58l-0.54-.06A0.56,0.56,0,0,1,140,4.52c1.31,0.06,2.28.08,3.44,0.08s2.08,0,3.36-.08a0.56,0.56,0,0,1,.06.71l-0.6.06c-1.65.17-1.71,0.6-1.71,3.58V19.11c0,3,.06,3.36,1.71,3.56l0.68,0.09a0.55,0.55,0,0,1-.06.71c-1.36-.06-2.33-0.08-3.44-0.08s-2.19,0-3.44.08a0.55,0.55,0,0,1-.06-0.71l0.54-.09c1.74-.29,1.74-0.57,1.74-3.56v-4c0-.85-0.06-0.91-1.42-0.91h-8.14Z"/>
    <path class="cls-1"
          d="M146.76,15.63a8.3,8.3,0,0,1,8.54-8.47,7.9,7.9,0,0,1,8.33,8.23,8.19,8.19,0,0,1-8.33,8.38c-5.33,0-8.54-3.82-8.54-8.14m14.47,0.5c0-4-1.75-8.23-6.34-8.23-2.49,0-5.73,1.71-5.73,7,0,3.55,1.73,8.16,6.46,8.16,2.88,0,5.62-2.16,5.62-6.89"/>
    <path class="cls-1"
          d="M168,19.78c0,2.52,0,2.83,1.58,3l0.65,0.07a0.47,0.47,0,0,1,0,.6c-1.37,0-2.16-.07-3.12-0.07s-1.87,0-2.93.07a0.47,0.47,0,0,1,0-.6l0.5-.07c1.39-.19,1.44-0.48,1.44-3V10.93c0-2,0-2.45-1.13-2.57L164,8.26a0.4,0.4,0,0,1,0-.6,37.6,37.6,0,0,1,4.75-.19,8.67,8.67,0,0,1,4.61,1,4.15,4.15,0,0,1,1.92,3.6,4.07,4.07,0,0,1-2.4,3.82,8.11,8.11,0,0,1-3.31.72,0.3,0.3,0,0,1,0-.48c2.59-.48,3.53-1.95,3.53-4a3.54,3.54,0,0,0-3.86-3.84c-1.27,0-1.3.09-1.3,0.86v10.7Z"/>
    <path class="cls-1"
          d="M178,11.14c0-2.52,0-2.9-1.44-3l-0.6,0a0.48,0.48,0,0,1,0-.6c1.18,0,1.94.07,3,.07s1.75,0,2.79-.07a0.47,0.47,0,0,1,0,.6l-0.45,0c-1.39.14-1.44,0.5-1.44,3V13.9c0,0.45,0,.91.31,0.91a1.36,1.36,0,0,0,.67-0.26c0.34-.29,1-0.91,1.22-1.15l2.59-2.57a27.3,27.3,0,0,0,1.87-2,0.71,0.71,0,0,0,.17-0.39c0-.1-0.1-0.17-0.41-0.24l-0.65-.14a0.4,0.4,0,0,1,0-.6c0.84,0,1.8.07,2.64,0.07s1.66,0,2.38-.07a0.44,0.44,0,0,1,0,.6,5.92,5.92,0,0,0-2.23.67,23.88,23.88,0,0,0-3.36,2.78l-2.16,2a1.51,1.51,0,0,0-.55.74,1.53,1.53,0,0,0,.46.74c2.28,2.61,4.13,4.78,6,6.74a2.78,2.78,0,0,0,1.83,1l0.46,0.07a0.42,0.42,0,0,1,0,.6c-0.62,0-1.28-.07-2.41-0.07s-1.82,0-2.93.07a0.44,0.44,0,0,1-.1-0.6l0.55-.1a0.63,0.63,0,0,0,.58-0.24,1.3,1.3,0,0,0-.34-0.55c-0.46-.58-1.08-1.22-2-2.26l-1.92-2.16c-1.37-1.54-1.75-2-2.33-2-0.36,0-.41.31-0.41,1.15v3.1c0,2.52,0,2.85,1.39,3L182,22.85a0.47,0.47,0,0,1,0,.6c-1.18,0-2-.07-2.93-0.07s-1.8,0-2.78.07a0.46,0.46,0,0,1,0-.6l0.48-.07c1.27-.19,1.32-0.48,1.32-3V11.14Z"/>
    <path class="cls-1"
          d="M194.43,11.19c0-2.54,0-3-1.46-3.07l-0.6,0a0.47,0.47,0,0,1,0-.6c1.2,0,2,.07,3,0.07s1.78,0,3-.07a0.47,0.47,0,0,1,0,.6l-0.6,0c-1.42.12-1.46,0.53-1.46,3.07v8.54c0,2.55,0,2.88,1.46,3l0.6,0.07a0.47,0.47,0,0,1,0,.6c-1.2,0-2-.07-3-0.07s-1.73,0-2.93.07a0.47,0.47,0,0,1,0-.6l0.51-.07c1.42-.17,1.46-0.5,1.46-3V11.19Z"/>
    <path class="cls-1"
          d="M215.19,19.3c0,0.72,0,3.58.07,4.2a0.43,0.43,0,0,1-.46.26c-0.29-.41-1-1.25-3.07-3.62l-5.57-6.34c-0.65-.74-2.28-2.71-2.78-3.24h0a6,6,0,0,0-.12,1.56v5.23c0,1.13,0,4.25.43,5a1.57,1.57,0,0,0,1.22.46l0.74,0.07a0.44,0.44,0,0,1,0,.6c-1.08,0-1.92-.07-2.81-0.07s-1.66,0-2.5.07a0.44,0.44,0,0,1,0-.6l0.65-.07a1.29,1.29,0,0,0,1.06-.48,23.17,23.17,0,0,0,.31-4.94V10.42a2.2,2.2,0,0,0-.53-1.73,2.61,2.61,0,0,0-1.49-.58l-0.41,0a0.42,0.42,0,0,1,0-.6c1,0.07,2.28.07,2.71,0.07a7.58,7.58,0,0,0,1.11-.07c0.48,1.23,3.31,4.39,4.1,5.28l2.33,2.61c1.66,1.85,2.83,3.19,4,4.34h0a2.43,2.43,0,0,0,.1-1V13.56c0-1.13,0-4.25-.48-5a2.16,2.16,0,0,0-1.49-.48l-0.41,0a0.4,0.4,0,0,1,0-.6c1.1,0,1.92.07,2.83,0.07s1.66,0,2.47-.07a0.42,0.42,0,0,1,0,.6l-0.34,0a2.11,2.11,0,0,0-1.34.5c-0.41.86-.36,3.84-0.36,4.94V19.3Z"/>
    <path class="cls-1"
          d="M221.5,23.76a7.49,7.49,0,0,1-3.75-.89,11.14,11.14,0,0,1-.65-3.36,0.42,0.42,0,0,1,.58-0.07C218,20.67,219,23,221.81,23a2.73,2.73,0,0,0,3-2.76,3.61,3.61,0,0,0-2-3.36l-2.28-1.49A5.12,5.12,0,0,1,218,11.28c0-2.28,1.78-4.13,4.9-4.13a9.34,9.34,0,0,1,2.23.31,3.14,3.14,0,0,0,.84.14,10.45,10.45,0,0,1,.43,2.93,0.48,0.48,0,0,1-.6.07,3.14,3.14,0,0,0-3.26-2.71c-2.35,0-2.86,1.56-2.86,2.67a3.78,3.78,0,0,0,2,3l1.92,1.2a5.41,5.41,0,0,1,3,4.61c0,2.64-2,4.44-5.11,4.44"/>
</svg>