<svg width="344" height="32" viewBox="0 0 344 32" fill="none" xmlns="http://www.w3.org/2000/svg">
<path d="M34.0206 29.3289C30.6508 29.3289 28.772 26.139 28.772 20.3674C28.772 14.5065 30.6508 11.406 34.0206 11.406C37.3905 11.406 39.2693 14.5541 39.2693 20.3674C39.2634 26.2284 37.3845 29.3289 34.0206 29.3289ZM34.0206 9.00317C27.1556 9.00317 23.3504 14.1189 23.3504 20.3674C23.3504 26.616 27.1556 31.7317 34.0206 31.7317C40.8856 31.7317 44.6908 26.616 44.6908 20.3674C44.6908 14.1189 40.8856 9.00317 34.0206 9.00317ZM81.7235 9.00317C78.4849 9.00317 76.6956 10.4043 75.6876 12.193H75.4252V9.43842H70.266V31.2964H75.4252V17.1776C75.4252 13.946 77.0892 12.0618 79.7552 12.0618C82.3378 12.0618 83.471 13.7671 83.471 16.3488V31.2964H88.6302V16.3011C88.6361 11.7996 86.2743 9.00317 81.7235 9.00317ZM100.35 9.00317C95.5847 9.00317 92 11.0125 92 15.2995C92 18.9305 94.4932 20.8981 97.2904 21.5957L101.662 22.6868C103.982 23.2532 105.032 24.0879 105.032 25.9243C105.032 28.1542 103.458 29.4243 100.702 29.4243C97.7258 29.4243 96.199 27.9814 95.7158 24.3562L91.0816 25.668C91.344 29.4302 94.8451 31.7436 100.135 31.7436C106.04 31.7436 109.231 28.989 109.231 24.6186C109.231 20.5105 106.386 18.8053 103.416 18.06L99.2169 17.0107C97.1175 16.4859 96.199 15.526 96.199 14.1248C96.199 12.3779 97.6841 11.3285 99.9148 11.3285C102.539 11.3285 104.155 12.7713 104.376 15.526L108.748 14.2142C108.223 11.1437 105.205 9.00317 100.35 9.00317ZM122.043 29.3289C118.672 29.3289 116.794 26.139 116.794 20.3674C116.794 14.5065 118.672 11.406 122.043 11.406C125.413 11.406 127.291 14.5541 127.291 20.3674C127.291 26.2284 125.406 29.3289 122.043 29.3289ZM122.043 9.00317C115.177 9.00317 111.372 14.1189 111.372 20.3674C111.372 26.616 115.177 31.7317 122.043 31.7317C128.908 31.7317 132.713 26.616 132.713 20.3674C132.713 14.1189 128.908 9.00317 122.043 9.00317ZM147.23 9.00317C143.992 9.00317 142.202 10.4043 141.194 12.193H140.932V9.43842H135.772V31.2964H140.932V17.1776C140.932 13.946 142.596 12.0618 145.262 12.0618C147.844 12.0618 148.978 13.7671 148.978 16.3488V31.2964H154.137V16.3011C154.137 11.7996 151.774 9.00317 147.23 9.00317ZM223.884 29.3289C220.513 29.3289 218.635 26.139 218.635 20.3674C218.635 14.5065 220.513 11.406 223.884 11.406C227.254 11.406 229.133 14.5541 229.133 20.3674C229.133 26.2284 227.248 29.3289 223.884 29.3289ZM223.884 9.00317C217.018 9.00317 213.213 14.1189 213.213 20.3674C213.213 26.616 217.018 31.7317 223.884 31.7317C230.749 31.7317 234.554 26.616 234.554 20.3674C234.554 14.1189 230.749 9.00317 223.884 9.00317ZM271.586 9.00317C268.348 9.00317 266.559 10.4043 265.551 12.193H265.288V9.43842H260.129V31.2964H265.288V17.1776C265.288 13.946 266.953 12.0618 269.619 12.0618C272.201 12.0618 273.334 13.7671 273.334 16.3488V31.2964H278.494V16.3011C278.499 11.7996 276.137 9.00317 271.586 9.00317ZM290.219 9.00317C285.454 9.00317 281.87 11.0125 281.87 15.2995C281.87 18.9305 284.363 20.8981 287.159 21.5957L291.531 22.6868C293.851 23.2532 294.901 24.0879 294.901 25.9243C294.901 28.1542 293.327 29.4243 290.572 29.4243C287.595 29.4243 286.068 27.9814 285.585 24.3562L280.951 25.668C281.213 29.4302 284.714 31.7436 290.005 31.7436C295.909 31.7436 299.1 28.989 299.1 24.6186C299.1 20.5105 296.255 18.8053 293.285 18.06L289.086 17.0107C286.986 16.4859 286.068 15.526 286.068 14.1248C286.068 12.3779 287.553 11.3285 289.784 11.3285C292.408 11.3285 294.024 12.7713 294.245 15.526L298.617 14.2142C298.086 11.1437 295.069 9.00317 290.219 9.00317ZM311.906 29.3289C308.536 29.3289 306.656 26.139 306.656 20.3674C306.656 14.5065 308.536 11.406 311.906 11.406C315.276 11.406 317.154 14.5541 317.154 20.3674C317.154 26.2284 315.269 29.3289 311.906 29.3289ZM311.906 9.00317C305.041 9.00317 301.235 14.1189 301.235 20.3674C301.235 26.616 305.041 31.7317 311.906 31.7317C318.771 31.7317 322.575 26.616 322.575 20.3674C322.575 14.1189 318.771 9.00317 311.906 9.00317ZM337.094 9.00317C333.854 9.00317 332.065 10.4043 331.057 12.193H330.795V9.43842H325.635V31.2964H330.795V17.1776C330.795 13.946 332.459 12.0618 335.125 12.0618C337.707 12.0618 338.841 13.7671 338.841 16.3488V31.2964H344V16.3011C344 11.7996 341.638 9.00317 337.094 9.00317ZM20.2908 0.697591H14.8692V23.2949C14.8692 26.9678 13.4675 29.15 10.1454 29.15C6.86496 29.15 5.4216 26.8307 5.4216 22.8537V18.6563L0 20.0096V21.8879C0 27.6117 2.845 31.9881 10.1454 31.9881C17.4457 31.9881 20.2908 27.6177 20.2908 21.8879V0.697591ZM52.9097 0.697591H47.7506V31.2964H52.9097V17.1776C52.9097 13.946 54.5739 12.0618 57.2399 12.0618C59.8224 12.0618 60.9557 13.7671 60.9557 16.3488V31.2964H66.1148V16.3011C66.1148 11.7996 63.753 9.00317 59.2081 9.00317C55.9695 9.00317 54.1801 10.4043 53.1722 12.193H52.9097V0.697591ZM210.154 0.697591H204.732V23.2949C204.732 26.9678 203.33 29.15 200.008 29.15C196.728 29.15 195.284 26.8307 195.284 22.8537V18.6563L189.863 20.0096V21.8879C189.863 27.6117 192.708 31.9881 200.008 31.9881C207.309 31.9881 210.154 27.6177 210.154 21.8879V0.697591ZM242.773 0.697591H237.614V31.2964H242.773V17.1776C242.773 13.946 244.437 12.0618 247.103 12.0618C249.685 12.0618 250.819 13.7671 250.819 16.3488V31.2964H255.978V16.3011C255.978 11.7996 253.616 9.00317 249.071 9.00317C245.833 9.00317 244.043 10.4043 243.035 12.193H242.773V0.697591ZM171.147 28.8041C166.948 28.8041 164.371 25.3937 164.371 21.7686C164.371 19.4969 165.38 17.3982 167.038 16.2176L176.921 27.0154C175.084 28.1066 173.026 28.8041 171.147 28.8041ZM180.767 23.4261L172.197 13.9817C173.729 13.3677 175.214 13.153 176.437 13.153C179.981 13.153 182.163 15.2099 182.163 18.7516C182.169 20.3257 181.728 21.9414 180.767 23.4261ZM171.016 12.7178L169.137 10.6189C167.473 8.78257 166.996 7.64375 166.996 6.29029C166.996 3.75629 168.613 2.31339 171.147 2.31339C173.729 2.31339 175.257 3.79803 175.257 6.5109C175.257 9.00317 174.034 11.3643 171.016 12.7178ZM171.279 0C165.242 0 162.272 3.36874 162.272 7.56028C162.272 9.83194 163.233 12.1096 165.773 14.8582L165.815 14.9477C161.532 17.0046 159.565 20.3257 159.565 23.7362C159.565 28.2377 163.017 32 168.356 32C171.415 32 175 30.73 178.239 28.4584L180.862 31.3024H187.728V31.0818L182.133 24.9167C184.495 22.1204 185.85 19.0617 185.85 16.3906C185.85 13.0694 183.619 10.8395 180.124 10.8395C178.287 10.8395 176.229 11.3643 174.874 11.889L174.785 11.7161C178.107 9.92138 179.509 8.26384 179.509 5.94448C179.497 2.62344 176.527 0 171.279 0Z" fill="black"/>
</svg>
