<svg width="180" height="60" viewBox="0 0 180 60" fill="none" xmlns="http://www.w3.org/2000/svg">
<path d="M50.4902 25.2656C52.7758 25.2659 54.5097 26.5706 55.4048 28.4956L44.3262 33.0923C44.0232 30.7341 44.6271 28.8896 45.6123 27.5669C46.6921 26.1169 48.4128 25.2656 50.4902 25.2656Z" fill="black"/>
<path d="M102.669 25.6538C106.145 25.6538 108.869 28.5105 108.869 32.1562C108.868 35.8995 106.297 38.6569 102.756 38.6572C99.2816 38.6572 96.5584 35.8008 96.5581 32.1562C96.5581 28.3383 99.1279 25.6539 102.669 25.6538Z" fill="black"/>
<path d="M151.493 25.6538C154.968 25.6539 157.69 28.5106 157.69 32.1562C157.69 35.8997 155.119 38.6572 151.578 38.6572C148.104 38.6569 145.38 35.8006 145.38 32.1562C145.38 28.3382 147.951 25.6538 151.493 25.6538Z" fill="black"/>
<path fill-rule="evenodd" clip-rule="evenodd" d="M180 0V60H0V0H180ZM50.376 20.2207C43.4024 20.2207 38.1446 25.3646 38.1445 32.1577C38.1445 39.1274 43.4141 44.0946 51.0732 44.0947C55.3642 44.0947 59.7529 42.0601 61.8047 39.6841L57.7954 36.6021C55.1262 38.5767 53.6004 39.0483 51.167 39.0483C48.9769 39.0483 47.2628 38.3688 46.0532 37.1763L62.2646 30.4497C61.9112 27.9439 60.9603 25.7056 59.4961 24.0029C57.3657 21.5291 54.2133 20.2208 50.376 20.2207ZM102.756 20.2207C95.7725 20.2207 90.3018 25.4639 90.3018 32.1562C90.3021 38.9243 95.7341 44.0903 102.669 44.0903C109.653 44.0903 115.123 38.8475 115.124 32.1562C115.124 25.3872 109.69 20.221 102.756 20.2207ZM151.578 20.2207C144.595 20.221 139.124 25.4641 139.124 32.1562C139.124 38.9243 144.557 44.0903 151.493 44.0903C158.476 44.0902 163.945 38.8474 163.945 32.1562C163.945 25.387 158.512 20.2207 151.578 20.2207ZM16.6992 13.7021V43.7007H37.5396V37.8794H23.127V13.7021H16.6992ZM78.4131 20.2207C75.7553 20.2209 72.7322 21.4541 70.8838 23.9209L70.8853 23.9165L70.8838 23.918L70.8853 20.6074H64.5439V43.7007H70.8838V30.5625C70.8838 28.1971 72.717 25.6831 76.1118 25.6831C78.7362 25.6831 81.4512 27.5079 81.4512 30.5625V43.7007H87.7925V29.3862C87.7925 24.0758 83.9923 20.2207 78.4131 20.2207ZM114.154 20.6104L123.656 43.6934H130.604L140.106 20.6104H132.863L127.129 36.3398L121.397 20.6104H114.154Z" fill="black"/>
</svg>
