<svg width="166" height="60" viewBox="0 0 166 60" fill="none" xmlns="http://www.w3.org/2000/svg">
<path fill-rule="evenodd" clip-rule="evenodd" d="M50.9873 38.75H34.917V21.4414H50.9873V38.75ZM44.8711 24.5195H36.2275V26.6084L36.2295 26.6064H39.9932C39.5723 31.2308 37.84 35.4096 36.3291 37.5479H39.1514C40.7112 35.2348 42.1974 30.4604 42.5439 26.6064H44.8711V32.5752C44.8711 34.491 44.697 35.7595 43.8555 37.5498H46.6279C47.1738 36.0091 47.4208 34.5169 47.4209 32.5029V26.6084H49.8477V24.5195H47.4209V22.6289H44.8711V24.5195Z" fill="black"/>
<path fill-rule="evenodd" clip-rule="evenodd" d="M43.0303 0C49.0223 6.14665e-05 51.1958 0.626225 53.3867 1.80273C55.5774 2.97927 57.2971 4.70642 58.4688 6.90625C59.6402 9.10627 60.2646 11.2895 60.2646 17.3066V42.6934C60.2646 48.7109 59.6404 50.8936 58.4688 53.0938C57.2971 55.2938 55.5776 57.0207 53.3867 58.1973C51.1958 59.3738 49.0224 59.9999 43.0303 60H17.749C11.7571 60 9.58336 59.3736 7.39258 58.1973C5.2018 57.0208 3.48225 55.2936 2.31055 53.0938C1.13886 50.8936 0.513706 48.7109 0.513672 42.6934V17.3047C0.513698 11.2873 1.13895 9.10538 2.31055 6.90527C3.48226 4.70503 5.20151 2.97838 7.39258 1.80176C9.58538 0.627035 11.7583 7.73941e-06 17.749 0H43.0303ZM11.1191 20.6123H7.23242V22.7764H16.8398V24.5176H7.77637V26.6562H16.8398V28.3223H7.77637V30.4609H16.8398V32.501H7.23242V34.665H16.2471C14.7125 36.8541 11.1463 38.644 7.7041 38.6934L6.91113 41.2051C11.9877 40.8316 16.0494 39.0155 18.1787 36.0322C20.4805 39.0171 24.616 40.7083 28.207 41.1309L29.5439 38.7939C25.6555 38.4952 22.0656 37.0025 20.1338 34.666L29.1719 34.665V32.501H19.4902V30.4609H28.5537V28.3223H19.4902V26.6562H28.5537V24.5176H19.4902V22.7764H29.1719V20.6123H25.2832C25.3829 19.9916 25.4579 19.3705 25.5068 18.7734H22.7588C22.708 19.3687 22.633 19.9916 22.5098 20.6123H13.8672C13.7693 19.9917 13.6954 19.3704 13.5957 18.7734H10.8965L11.1191 20.6123ZM32.3135 39.5947C32.3137 40.465 32.8091 40.9628 33.7012 40.9629H53.5859V20.5938H53.584C53.5838 19.7236 53.063 19.2267 52.1729 19.2266H32.3135V39.5947Z" fill="black"/>
<path d="M85.6191 7.60059C85.8168 8.79162 85.9654 10.0344 86.1631 11.2764H103.423C103.67 10.0343 103.818 8.79347 103.918 7.60059H109.407C109.307 8.79166 109.16 10.0343 108.961 11.2764H116.726V15.5967H97.3867V19.0732H115.488V23.3447H97.3867V26.6719H115.488V30.9434H97.3867V35.0156H116.726V39.3359H98.6768C102.535 44.0039 109.704 46.9844 117.469 47.5801L114.798 52.248C107.626 51.4029 99.3674 48.0258 94.7676 42.0664C90.5143 48.026 82.4027 51.6525 72.2637 52.3975L73.8477 47.3818C80.7218 47.2814 87.8449 43.7053 90.9102 39.3359H72.9082V35.0156H92.0977V30.9434H73.9961V26.6719H92.0977V23.3447H73.9961V19.0732H92.0977V15.5967H72.9082V11.2764H80.6729L80.2285 7.60059H85.6191Z" fill="black"/>
<path d="M153.172 19.0713H158.019V23.2441H153.172V35.0137C153.172 39.037 152.677 42.0176 151.591 45.0957H146.051C147.732 41.5204 148.079 38.9861 148.079 35.1631V23.2441H143.43C142.737 30.9413 139.769 40.4767 136.653 45.0957H131.017C134.033 40.8246 137.495 32.4804 138.335 23.2441H130.818V19.0713H148.079V15.2979H153.172V19.0713Z" fill="black"/>
<path fill-rule="evenodd" clip-rule="evenodd" d="M162.667 8.50195C164.446 8.50206 165.486 9.49504 165.486 11.2344V51.9131H125.772C123.992 51.913 123.003 50.9199 123.003 49.1807V8.50195H162.667ZM128.196 47.4922H160.293V12.9229H128.196V47.4922Z" fill="black"/>
</svg>
