<?xml version="1.0" encoding="UTF-8"?>
<svg xmlns="http://www.w3.org/2000/svg" xmlns:xlink="http://www.w3.org/1999/xlink" width="224.81pt" height="101.46pt" viewBox="0 0 224.81 101.46" version="1.1">
<defs>
<clipPath id="clip1">
  <path d="M 48 95 L 53 95 L 53 101.460938 L 48 101.460938 Z M 48 95 "/>
</clipPath>
<clipPath id="clip2">
  <path d="M 53 95 L 59 95 L 59 101.460938 L 53 101.460938 Z M 53 95 "/>
</clipPath>
<clipPath id="clip3">
  <path d="M 59 95 L 64 95 L 64 101.460938 L 59 101.460938 Z M 59 95 "/>
</clipPath>
<clipPath id="clip4">
  <path d="M 64 95 L 68 95 L 68 101.460938 L 64 101.460938 Z M 64 95 "/>
</clipPath>
<clipPath id="clip5">
  <path d="M 68 95 L 73 95 L 73 101.460938 L 68 101.460938 Z M 68 95 "/>
</clipPath>
<clipPath id="clip6">
  <path d="M 73 95 L 80 95 L 80 101.460938 L 73 101.460938 Z M 73 95 "/>
</clipPath>
<clipPath id="clip7">
  <path d="M 80 95 L 84 95 L 84 101.460938 L 80 101.460938 Z M 80 95 "/>
</clipPath>
<clipPath id="clip8">
  <path d="M 84 95 L 89 95 L 89 101.460938 L 84 101.460938 Z M 84 95 "/>
</clipPath>
<clipPath id="clip9">
  <path d="M 89 95 L 95 95 L 95 101.460938 L 89 101.460938 Z M 89 95 "/>
</clipPath>
<clipPath id="clip10">
  <path d="M 94 95 L 100 95 L 100 101.460938 L 94 101.460938 Z M 94 95 "/>
</clipPath>
<clipPath id="clip11">
  <path d="M 100 95 L 106 95 L 106 101.460938 L 100 101.460938 Z M 100 95 "/>
</clipPath>
<clipPath id="clip12">
  <path d="M 106 95 L 112 95 L 112 101.460938 L 106 101.460938 Z M 106 95 "/>
</clipPath>
<clipPath id="clip13">
  <path d="M 112 95 L 116 95 L 116 101.460938 L 112 101.460938 Z M 112 95 "/>
</clipPath>
<clipPath id="clip14">
  <path d="M 118 95 L 124 95 L 124 101.460938 L 118 101.460938 Z M 118 95 "/>
</clipPath>
<clipPath id="clip15">
  <path d="M 124 95 L 129 95 L 129 101.460938 L 124 101.460938 Z M 124 95 "/>
</clipPath>
<clipPath id="clip16">
  <path d="M 130 95 L 136 95 L 136 101.460938 L 130 101.460938 Z M 130 95 "/>
</clipPath>
<clipPath id="clip17">
  <path d="M 136 95 L 142 95 L 142 101.460938 L 136 101.460938 Z M 136 95 "/>
</clipPath>
<clipPath id="clip18">
  <path d="M 142 95 L 148 95 L 148 101.460938 L 142 101.460938 Z M 142 95 "/>
</clipPath>
<clipPath id="clip19">
  <path d="M 148 95 L 152 95 L 152 101.460938 L 148 101.460938 Z M 148 95 "/>
</clipPath>
<clipPath id="clip20">
  <path d="M 152 95 L 154 95 L 154 101.460938 L 152 101.460938 Z M 152 95 "/>
</clipPath>
<clipPath id="clip21">
  <path d="M 154 95 L 160 95 L 160 101.460938 L 154 101.460938 Z M 154 95 "/>
</clipPath>
<clipPath id="clip22">
  <path d="M 160 95 L 166 95 L 166 101.460938 L 160 101.460938 Z M 160 95 "/>
</clipPath>
<clipPath id="clip23">
  <path d="M 165 95 L 171 95 L 171 101.460938 L 165 101.460938 Z M 165 95 "/>
</clipPath>
<clipPath id="clip24">
  <path d="M 170 95 L 176 95 L 176 101.460938 L 170 101.460938 Z M 170 95 "/>
</clipPath>
<clipPath id="clip25">
  <path d="M 0 61 L 224.808594 61 L 224.808594 87 L 0 87 Z M 0 61 "/>
</clipPath>
</defs>
<g id="surface1">
<path style=" stroke:none;fill-rule:nonzero;fill:rgb(100%,100%,100%);fill-opacity:1;" d="M 86.734375 26.167969 C 86.734375 11.988281 98.226563 0.496094 112.40625 0.496094 C 126.578125 0.496094 138.070313 11.988281 138.070313 26.167969 C 138.070313 40.339844 126.578125 51.832031 112.40625 51.832031 C 98.226563 51.832031 86.734375 40.339844 86.734375 26.167969 "/>
<path style="fill:none;stroke-width:9.84916;stroke-linecap:butt;stroke-linejoin:miter;stroke:rgb(0%,0%,0%);stroke-opacity:1;stroke-miterlimit:4;" d="M 867.34375 752.920313 C 867.34375 894.717188 982.265625 1009.639063 1124.0625 1009.639063 C 1265.78125 1009.639063 1380.703125 894.717188 1380.703125 752.920313 C 1380.703125 611.201563 1265.78125 496.279688 1124.0625 496.279688 C 982.265625 496.279688 867.34375 611.201563 867.34375 752.920313 Z M 867.34375 752.920313 " transform="matrix(0.1,0,0,-0.1,0,101.46)"/>
<path style=" stroke:none;fill-rule:nonzero;fill:rgb(0%,0%,0%);fill-opacity:1;" d="M 112.894531 41.292969 L 101.863281 41.292969 L 99.472656 41.347656 C 98.421875 40.855469 97.800781 40.042969 97.726563 39.109375 C 97.71875 39.101563 97.726563 38.558594 97.738281 37.679688 C 97.753906 36.683594 97.769531 35.246094 97.769531 33.667969 C 97.769531 32.34375 97.746094 30.914063 97.746094 29.558594 C 97.742188 28.273438 97.652344 27.050781 97.730469 26.042969 C 98.066406 25.144531 98.738281 24.699219 99.597656 24.4375 L 111.246094 24.4375 L 111.492188 24.425781 L 111.507813 9.722656 C 111.695313 9.089844 112.332031 8.929688 112.894531 8.742188 C 113.449219 8.929688 114.089844 9.089844 114.273438 9.722656 L 114.289063 24.425781 L 114.539063 24.4375 L 126.183594 24.4375 C 127.046875 24.699219 127.71875 25.144531 128.050781 26.042969 C 128.128906 27.050781 128.039063 28.273438 128.039063 29.558594 C 128.039063 30.914063 128.015625 32.34375 128.011719 33.667969 C 128.011719 35.246094 128.027344 36.683594 128.042969 37.679688 C 128.058594 38.558594 128.066406 39.101563 128.058594 39.109375 C 127.980469 40.042969 127.359375 40.855469 126.3125 41.347656 L 123.921875 41.292969 L 112.890625 41.292969 L 112.894531 41.292969 "/>
<path style=" stroke:none;fill-rule:nonzero;fill:rgb(0%,0%,0%);fill-opacity:1;" d="M 130.253906 14.203125 C 129.507813 15.835938 128.089844 16.519531 127.71875 18.164063 C 126.933594 19.917969 127.53125 22.308594 126 23.6875 C 125.363281 23.652344 123.285156 23.632813 123.0625 23.632813 C 122.847656 23.628906 117.886719 23.679688 117.886719 23.679688 C 119.753906 21.625 120.960938 18.386719 124.019531 17.71875 C 125.589844 17.15625 127.195313 15.363281 127.789063 13.757813 C 128.339844 12.195313 129.542969 13.832031 130.253906 14.203125 "/>
<path style=" stroke:none;fill-rule:nonzero;fill:rgb(0%,0%,0%);fill-opacity:1;" d="M 122.039063 17.15625 L 122.039063 17.789063 C 121.109375 18.011719 120.363281 18.984375 119.726563 19.582031 L 116.964844 23.613281 L 115.273438 23.632813 C 115.484375 21.0625 114.617188 16.863281 116.777344 15.996094 C 118.085938 15.550781 118.832031 16.929688 119.914063 15.921875 C 120.921875 15.773438 121.59375 16.332031 122.039063 17.15625 "/>
<path style=" stroke:none;fill-rule:nonzero;fill:rgb(0%,0%,0%);fill-opacity:1;" d="M 131.300781 20.664063 C 130.664063 22.082031 132.460938 22.382813 131.824219 23.6875 L 130.105469 25.667969 C 128.574219 26.003906 128.6875 24.136719 127.34375 23.875 C 127.640625 22.867188 128.277344 21.597656 128.425781 20.292969 C 129.171875 20.144531 130.742188 19.730469 131.300781 20.664063 "/>
<path style=" stroke:none;fill-rule:nonzero;fill:rgb(0%,0%,0%);fill-opacity:1;" d="M 100.277344 15.101563 C 101.394531 14.691406 102.101563 16.410156 103.074219 15.289063 C 104.121094 16.035156 103.300781 17.75 104.121094 18.683594 C 104.007813 19.394531 103 19.132813 102.511719 19.582031 C 101.695313 21.597656 99.640625 19.957031 98.144531 19.957031 C 97.660156 19.65625 96.804688 19.84375 96.804688 19.058594 C 96.730469 18.574219 97.25 18.3125 97.0625 17.789063 C 96.578125 17.34375 96.167969 16.597656 96.351563 15.921875 C 96.464844 15.585938 96.765625 15.179688 97.136719 15.101563 C 98.40625 14.765625 99.191406 16.070313 100.277344 15.101563 "/>
<path style=" stroke:none;fill-rule:nonzero;fill:rgb(0%,0%,0%);fill-opacity:1;" d="M 96.351563 18.050781 C 96.054688 18.5 96.128906 19.246094 96.242188 19.769531 C 97.585938 20.703125 99.453125 20.886719 100.984375 21.300781 L 100.648438 22.195313 C 98.296875 21.632813 95.644531 21.898438 93.664063 22.980469 C 92.882813 23.167969 92.210938 22.753906 91.949219 22.082031 C 92.023438 20.960938 90.117188 21.222656 90.679688 19.84375 C 91.125 18.574219 93.03125 19.167969 93.105469 17.71875 C 94 17.003906 95.570313 17.417969 96.351563 18.050781 "/>
<path style=" stroke:none;fill-rule:nonzero;fill:rgb(0%,0%,0%);fill-opacity:1;" d="M 100.386719 22.792969 L 100.535156 23.613281 C 98.371094 23.539063 96.203125 24.171875 94.636719 25.667969 C 94.113281 25.707031 93.480469 25.332031 93.738281 24.699219 C 94.972656 22.457031 97.996094 22.234375 100.386719 22.792969 "/>
<path style=" stroke:none;fill-rule:nonzero;fill:rgb(0%,0%,0%);fill-opacity:1;" d="M 109.902344 19.386719 C 109.015625 19.167969 108.503906 19.664063 107.660156 19.976563 C 106.636719 19.105469 107.128906 19.796875 106.855469 19.441406 C 106.441406 19.183594 105.425781 19.058594 104.769531 18.964844 C 106.121094 18.03125 107.433594 17.144531 109.914063 17.910156 C 109.914063 17.910156 109.941406 19.050781 109.902344 19.386719 "/>
<path style=" stroke:none;fill-rule:nonzero;fill:rgb(0%,0%,0%);fill-opacity:1;" d="M 107.105469 20.550781 C 106.496094 21.160156 106.097656 21.597656 105.839844 22.269531 L 105.574219 23.6875 L 101.542969 23.6875 C 101.132813 22.492188 101.730469 21.375 102.511719 20.476563 C 103.820313 19.507813 105.835938 19.769531 107.105469 20.550781 "/>
<path style=" stroke:none;fill-rule:nonzero;fill:rgb(0%,0%,0%);fill-opacity:1;" d="M 110.054688 23.6875 L 106.660156 23.6875 C 106.511719 22.90625 107.03125 22.160156 107.367188 21.445313 C 108.078125 20.886719 109.085938 20.367188 110.054688 20.476563 L 110.054688 23.6875 "/>
<g clip-path="url(#clip1)" clip-rule="nonzero">
<path style=" stroke:none;fill-rule:nonzero;fill:rgb(0%,0%,0%);fill-opacity:1;" d="M 49.0625 100.410156 C 49.410156 100.625 49.921875 100.804688 50.460938 100.804688 C 51.257813 100.804688 51.722656 100.382813 51.722656 99.777344 C 51.722656 99.214844 51.402344 98.890625 50.585938 98.578125 C 49.597656 98.226563 48.988281 97.714844 48.988281 96.867188 C 48.988281 95.925781 49.769531 95.226563 50.945313 95.226563 C 51.5625 95.226563 52.011719 95.371094 52.277344 95.523438 L 52.0625 96.160156 C 51.867188 96.050781 51.464844 95.871094 50.917969 95.871094 C 50.09375 95.871094 49.777344 96.363281 49.777344 96.777344 C 49.777344 97.339844 50.144531 97.617188 50.980469 97.941406 C 52 98.332031 52.519531 98.828125 52.519531 99.714844 C 52.519531 100.644531 51.832031 101.460938 50.40625 101.460938 C 49.824219 101.460938 49.1875 101.28125 48.863281 101.066406 L 49.0625 100.410156 "/>
</g>
<g clip-path="url(#clip2)" clip-rule="nonzero">
<path style=" stroke:none;fill-rule:nonzero;fill:rgb(0%,0%,0%);fill-opacity:1;" d="M 54.367188 95.324219 L 54.367188 98.898438 C 54.367188 100.25 54.96875 100.824219 55.773438 100.824219 C 56.667969 100.824219 57.242188 100.234375 57.242188 98.898438 L 57.242188 95.324219 L 58.03125 95.324219 L 58.03125 98.847656 C 58.03125 100.699219 57.054688 101.460938 55.746094 101.460938 C 54.511719 101.460938 53.578125 100.753906 53.578125 98.878906 L 53.578125 95.324219 L 54.367188 95.324219 "/>
</g>
<g clip-path="url(#clip3)" clip-rule="nonzero">
<path style=" stroke:none;fill-rule:nonzero;fill:rgb(0%,0%,0%);fill-opacity:1;" d="M 59.386719 95.398438 C 59.761719 95.332031 60.253906 95.277344 60.882813 95.277344 C 61.652344 95.277344 62.214844 95.460938 62.574219 95.78125 C 62.90625 96.066406 63.101563 96.507813 63.101563 97.046875 C 63.101563 97.589844 62.941406 98.019531 62.636719 98.332031 C 62.222656 98.773438 61.554688 98.996094 60.792969 98.996094 C 60.558594 98.996094 60.34375 98.988281 60.164063 98.945313 L 60.164063 101.363281 L 59.386719 101.363281 Z M 60.164063 98.308594 C 60.335938 98.351563 60.550781 98.371094 60.808594 98.371094 C 61.75 98.371094 62.324219 97.914063 62.324219 97.078125 C 62.324219 96.285156 61.757813 95.898438 60.898438 95.898438 C 60.558594 95.898438 60.300781 95.925781 60.164063 95.960938 L 60.164063 98.308594 "/>
</g>
<g clip-path="url(#clip4)" clip-rule="nonzero">
<path style=" stroke:none;fill-rule:nonzero;fill:rgb(0%,0%,0%);fill-opacity:1;" d="M 67.28125 98.53125 L 64.933594 98.53125 L 64.933594 100.707031 L 67.546875 100.707031 L 67.546875 101.363281 L 64.15625 101.363281 L 64.15625 95.324219 L 67.414063 95.324219 L 67.414063 95.980469 L 64.933594 95.980469 L 64.933594 97.886719 L 67.28125 97.886719 L 67.28125 98.53125 "/>
</g>
<g clip-path="url(#clip5)" clip-rule="nonzero">
<path style=" stroke:none;fill-rule:nonzero;fill:rgb(0%,0%,0%);fill-opacity:1;" d="M 68.5625 95.40625 C 68.957031 95.324219 69.519531 95.277344 70.058594 95.277344 C 70.890625 95.277344 71.429688 95.433594 71.804688 95.773438 C 72.109375 96.042969 72.28125 96.453125 72.28125 96.921875 C 72.28125 97.714844 71.777344 98.246094 71.144531 98.457031 L 71.144531 98.484375 C 71.609375 98.648438 71.886719 99.078125 72.03125 99.707031 C 72.226563 100.546875 72.371094 101.128906 72.496094 101.363281 L 71.6875 101.363281 C 71.589844 101.183594 71.457031 100.671875 71.285156 99.917969 C 71.105469 99.085938 70.78125 98.773438 70.078125 98.746094 L 69.34375 98.746094 L 69.34375 101.363281 L 68.5625 101.363281 Z M 69.34375 98.15625 L 70.140625 98.15625 C 70.972656 98.15625 71.5 97.699219 71.5 97.007813 C 71.5 96.230469 70.9375 95.890625 70.113281 95.878906 C 69.738281 95.878906 69.46875 95.917969 69.34375 95.953125 L 69.34375 98.15625 "/>
</g>
<g clip-path="url(#clip6)" clip-rule="nonzero">
<path style=" stroke:none;fill-rule:nonzero;fill:rgb(0%,0%,0%);fill-opacity:1;" d="M 78.46875 98.710938 C 78.425781 97.867188 78.371094 96.855469 78.382813 96.105469 L 78.355469 96.105469 C 78.148438 96.8125 77.898438 97.570313 77.59375 98.398438 L 76.527344 101.324219 L 75.9375 101.324219 L 74.960938 98.453125 C 74.671875 97.597656 74.429688 96.820313 74.261719 96.105469 L 74.242188 96.105469 C 74.222656 96.855469 74.179688 97.867188 74.125 98.773438 L 73.964844 101.363281 L 73.222656 101.363281 L 73.644531 95.324219 L 74.636719 95.324219 L 75.667969 98.246094 C 75.917969 98.988281 76.125 99.652344 76.277344 100.277344 L 76.304688 100.277344 C 76.457031 99.667969 76.667969 99.003906 76.9375 98.246094 L 78.015625 95.324219 L 79.007813 95.324219 L 79.382813 101.363281 L 78.625 101.363281 L 78.46875 98.710938 "/>
</g>
<g clip-path="url(#clip7)" clip-rule="nonzero">
<path style=" stroke:none;fill-rule:nonzero;fill:rgb(0%,0%,0%);fill-opacity:1;" d="M 83.714844 98.53125 L 81.367188 98.53125 L 81.367188 100.707031 L 83.984375 100.707031 L 83.984375 101.363281 L 80.589844 101.363281 L 80.589844 95.324219 L 83.847656 95.324219 L 83.847656 95.980469 L 81.367188 95.980469 L 81.367188 97.886719 L 83.714844 97.886719 L 83.714844 98.53125 "/>
</g>
<g clip-path="url(#clip8)" clip-rule="nonzero">
<path style=" stroke:none;fill-rule:nonzero;fill:rgb(0%,0%,0%);fill-opacity:1;" d="M 84.996094 95.40625 C 85.390625 95.324219 85.957031 95.277344 86.492188 95.277344 C 87.328125 95.277344 87.863281 95.433594 88.242188 95.773438 C 88.542969 96.042969 88.714844 96.453125 88.714844 96.921875 C 88.714844 97.714844 88.214844 98.246094 87.578125 98.457031 L 87.578125 98.484375 C 88.042969 98.648438 88.320313 99.078125 88.464844 99.707031 C 88.660156 100.546875 88.804688 101.128906 88.929688 101.363281 L 88.125 101.363281 C 88.023438 101.183594 87.890625 100.671875 87.722656 99.917969 C 87.539063 99.085938 87.21875 98.773438 86.511719 98.746094 L 85.777344 98.746094 L 85.777344 101.363281 L 84.996094 101.363281 Z M 85.777344 98.15625 L 86.574219 98.15625 C 87.40625 98.15625 87.933594 97.699219 87.933594 97.007813 C 87.933594 96.230469 87.371094 95.890625 86.546875 95.878906 C 86.171875 95.878906 85.902344 95.917969 85.777344 95.953125 L 85.777344 98.15625 "/>
</g>
<g clip-path="url(#clip9)" clip-rule="nonzero">
<path style=" stroke:none;fill-rule:nonzero;fill:rgb(0%,0%,0%);fill-opacity:1;" d="M 94.035156 101.164063 C 93.75 101.308594 93.175781 101.460938 92.441406 101.460938 C 90.742188 101.460938 89.460938 100.375 89.460938 98.398438 C 89.460938 96.507813 90.742188 95.226563 92.613281 95.226563 C 93.363281 95.226563 93.839844 95.386719 94.046875 95.496094 L 93.859375 96.132813 C 93.5625 95.988281 93.140625 95.878906 92.640625 95.878906 C 91.222656 95.878906 90.285156 96.785156 90.285156 98.371094 C 90.285156 99.847656 91.136719 100.796875 92.601563 100.796875 C 93.078125 100.796875 93.5625 100.699219 93.875 100.546875 L 94.035156 101.164063 "/>
</g>
<g clip-path="url(#clip10)" clip-rule="nonzero">
<path style=" stroke:none;fill-rule:nonzero;fill:rgb(0%,0%,0%);fill-opacity:1;" d="M 95.992188 99.464844 L 95.367188 101.363281 L 94.558594 101.363281 L 96.609375 95.324219 L 97.550781 95.324219 L 99.609375 101.363281 L 98.777344 101.363281 L 98.132813 99.464844 Z M 97.972656 98.855469 L 97.378906 97.117188 C 97.246094 96.722656 97.15625 96.363281 97.066406 96.015625 L 97.050781 96.015625 C 96.960938 96.371094 96.859375 96.738281 96.746094 97.105469 L 96.152344 98.855469 L 97.972656 98.855469 "/>
</g>
<g clip-path="url(#clip11)" clip-rule="nonzero">
<path style=" stroke:none;fill-rule:nonzero;fill:rgb(0%,0%,0%);fill-opacity:1;" d="M 100.5 95.40625 C 100.976563 95.332031 101.539063 95.277344 102.15625 95.277344 C 103.277344 95.277344 104.074219 95.539063 104.601563 96.035156 C 105.140625 96.527344 105.453125 97.222656 105.453125 98.199219 C 105.453125 99.1875 105.148438 99.992188 104.585938 100.546875 C 104.019531 101.113281 103.089844 101.414063 101.914063 101.414063 C 101.359375 101.414063 100.894531 101.390625 100.5 101.34375 Z M 101.277344 100.746094 C 101.476563 100.777344 101.765625 100.789063 102.066406 100.789063 C 103.734375 100.789063 104.636719 99.859375 104.636719 98.226563 C 104.648438 96.800781 103.839844 95.898438 102.191406 95.898438 C 101.789063 95.898438 101.484375 95.933594 101.277344 95.980469 L 101.277344 100.746094 "/>
</g>
<g clip-path="url(#clip12)" clip-rule="nonzero">
<path style=" stroke:none;fill-rule:nonzero;fill:rgb(0%,0%,0%);fill-opacity:1;" d="M 111.628906 98.28125 C 111.628906 100.359375 110.363281 101.460938 108.824219 101.460938 C 107.230469 101.460938 106.109375 100.226563 106.109375 98.398438 C 106.109375 96.480469 107.300781 95.226563 108.914063 95.226563 C 110.5625 95.226563 111.628906 96.488281 111.628906 98.28125 Z M 106.941406 98.378906 C 106.941406 99.667969 107.640625 100.824219 108.867188 100.824219 C 110.105469 100.824219 110.804688 99.6875 110.804688 98.316406 C 110.804688 97.117188 110.175781 95.863281 108.878906 95.863281 C 107.589844 95.863281 106.941406 97.054688 106.941406 98.378906 "/>
</g>
<g clip-path="url(#clip13)" clip-rule="nonzero">
<path style=" stroke:none;fill-rule:nonzero;fill:rgb(0%,0%,0%);fill-opacity:1;" d="M 112.535156 100.410156 C 112.882813 100.625 113.394531 100.804688 113.933594 100.804688 C 114.730469 100.804688 115.195313 100.382813 115.195313 99.777344 C 115.195313 99.214844 114.871094 98.890625 114.058594 98.578125 C 113.074219 98.226563 112.464844 97.714844 112.464844 96.867188 C 112.464844 95.925781 113.242188 95.226563 114.414063 95.226563 C 115.035156 95.226563 115.480469 95.371094 115.75 95.523438 L 115.535156 96.160156 C 115.339844 96.050781 114.933594 95.871094 114.390625 95.871094 C 113.566406 95.871094 113.253906 96.363281 113.253906 96.777344 C 113.253906 97.339844 113.621094 97.617188 114.453125 97.941406 C 115.472656 98.332031 115.992188 98.828125 115.992188 99.714844 C 115.992188 100.644531 115.300781 101.460938 113.878906 101.460938 C 113.296875 101.460938 112.660156 101.28125 112.339844 101.066406 L 112.535156 100.410156 "/>
</g>
<g clip-path="url(#clip14)" clip-rule="nonzero">
<path style=" stroke:none;fill-rule:nonzero;fill:rgb(0%,0%,0%);fill-opacity:1;" d="M 118.960938 95.40625 C 119.433594 95.332031 119.996094 95.277344 120.617188 95.277344 C 121.738281 95.277344 122.535156 95.539063 123.0625 96.035156 C 123.597656 96.527344 123.914063 97.222656 123.914063 98.199219 C 123.914063 99.1875 123.609375 99.992188 123.042969 100.546875 C 122.480469 101.113281 121.546875 101.414063 120.375 101.414063 C 119.820313 101.414063 119.355469 101.390625 118.960938 101.34375 Z M 119.738281 100.746094 C 119.9375 100.777344 120.222656 100.789063 120.527344 100.789063 C 122.191406 100.789063 123.097656 99.859375 123.097656 98.226563 C 123.105469 96.800781 122.300781 95.898438 120.652344 95.898438 C 120.25 95.898438 119.945313 95.933594 119.738281 95.980469 L 119.738281 100.746094 "/>
</g>
<g clip-path="url(#clip15)" clip-rule="nonzero">
<path style=" stroke:none;fill-rule:nonzero;fill:rgb(0%,0%,0%);fill-opacity:1;" d="M 128.054688 98.53125 L 125.707031 98.53125 L 125.707031 100.707031 L 128.320313 100.707031 L 128.320313 101.363281 L 124.929688 101.363281 L 124.929688 95.324219 L 128.1875 95.324219 L 128.1875 95.980469 L 125.707031 95.980469 L 125.707031 97.886719 L 128.054688 97.886719 L 128.054688 98.53125 "/>
</g>
<g clip-path="url(#clip16)" clip-rule="nonzero">
<path style=" stroke:none;fill-rule:nonzero;fill:rgb(0%,0%,0%);fill-opacity:1;" d="M 135.453125 101.164063 C 135.167969 101.308594 134.59375 101.460938 133.859375 101.460938 C 132.160156 101.460938 130.878906 100.375 130.878906 98.398438 C 130.878906 96.507813 132.160156 95.226563 134.03125 95.226563 C 134.78125 95.226563 135.257813 95.386719 135.464844 95.496094 L 135.273438 96.132813 C 134.980469 95.988281 134.558594 95.878906 134.058594 95.878906 C 132.644531 95.878906 131.699219 96.785156 131.699219 98.371094 C 131.699219 99.847656 132.554688 100.796875 134.019531 100.796875 C 134.496094 100.796875 134.980469 100.699219 135.296875 100.546875 L 135.453125 101.164063 "/>
</g>
<g clip-path="url(#clip17)" clip-rule="nonzero">
<path style=" stroke:none;fill-rule:nonzero;fill:rgb(0%,0%,0%);fill-opacity:1;" d="M 141.59375 98.28125 C 141.59375 100.359375 140.328125 101.460938 138.789063 101.460938 C 137.195313 101.460938 136.074219 100.226563 136.074219 98.398438 C 136.074219 96.480469 137.269531 95.226563 138.878906 95.226563 C 140.527344 95.226563 141.59375 96.488281 141.59375 98.28125 Z M 136.910156 98.378906 C 136.910156 99.667969 137.605469 100.824219 138.835938 100.824219 C 140.074219 100.824219 140.769531 99.6875 140.769531 98.316406 C 140.769531 97.117188 140.140625 95.863281 138.84375 95.863281 C 137.550781 95.863281 136.910156 97.054688 136.910156 98.378906 "/>
</g>
<g clip-path="url(#clip18)" clip-rule="nonzero">
<path style=" stroke:none;fill-rule:nonzero;fill:rgb(0%,0%,0%);fill-opacity:1;" d="M 142.609375 101.363281 L 142.609375 95.324219 L 143.460938 95.324219 L 145.394531 98.378906 C 145.84375 99.085938 146.191406 99.722656 146.476563 100.339844 L 146.492188 100.332031 C 146.425781 99.523438 146.40625 98.792969 146.40625 97.851563 L 146.40625 95.324219 L 147.140625 95.324219 L 147.140625 101.363281 L 146.351563 101.363281 L 144.433594 98.300781 C 144.015625 97.625 143.613281 96.9375 143.308594 96.285156 L 143.28125 96.292969 C 143.324219 97.054688 143.34375 97.777344 143.34375 98.78125 L 143.34375 101.363281 L 142.609375 101.363281 "/>
</g>
<g clip-path="url(#clip19)" clip-rule="nonzero">
<path style=" stroke:none;fill-rule:nonzero;fill:rgb(0%,0%,0%);fill-opacity:1;" d="M 148.507813 95.324219 L 151.757813 95.324219 L 151.757813 95.980469 L 149.28125 95.980469 L 149.28125 97.984375 L 151.570313 97.984375 L 151.570313 98.628906 L 149.28125 98.628906 L 149.28125 101.363281 L 148.507813 101.363281 L 148.507813 95.324219 "/>
</g>
<g clip-path="url(#clip20)" clip-rule="nonzero">
<path style=" stroke:none;fill-rule:nonzero;fill:rgb(0%,0%,0%);fill-opacity:1;" d="M 153.648438 95.324219 L 153.648438 101.363281 L 152.867188 101.363281 L 152.867188 95.324219 L 153.648438 95.324219 "/>
</g>
<g clip-path="url(#clip21)" clip-rule="nonzero">
<path style=" stroke:none;fill-rule:nonzero;fill:rgb(0%,0%,0%);fill-opacity:1;" d="M 155.988281 99.464844 L 155.363281 101.363281 L 154.554688 101.363281 L 156.605469 95.324219 L 157.546875 95.324219 L 159.605469 101.363281 L 158.773438 101.363281 L 158.128906 99.464844 Z M 157.964844 98.855469 L 157.375 97.117188 C 157.242188 96.722656 157.152344 96.363281 157.0625 96.015625 L 157.042969 96.015625 C 156.953125 96.371094 156.855469 96.738281 156.738281 97.105469 L 156.148438 98.855469 L 157.964844 98.855469 "/>
</g>
<g clip-path="url(#clip22)" clip-rule="nonzero">
<path style=" stroke:none;fill-rule:nonzero;fill:rgb(0%,0%,0%);fill-opacity:1;" d="M 160.496094 101.363281 L 160.496094 95.324219 L 161.34375 95.324219 L 163.28125 98.378906 C 163.730469 99.085938 164.078125 99.722656 164.363281 100.339844 L 164.382813 100.332031 C 164.3125 99.523438 164.289063 98.792969 164.289063 97.851563 L 164.289063 95.324219 L 165.027344 95.324219 L 165.027344 101.363281 L 164.238281 101.363281 L 162.320313 98.300781 C 161.902344 97.625 161.496094 96.9375 161.195313 96.285156 L 161.167969 96.292969 C 161.214844 97.054688 161.230469 97.777344 161.230469 98.78125 L 161.230469 101.363281 L 160.496094 101.363281 "/>
</g>
<g clip-path="url(#clip23)" clip-rule="nonzero">
<path style=" stroke:none;fill-rule:nonzero;fill:rgb(0%,0%,0%);fill-opacity:1;" d="M 165.980469 100.90625 L 169.328125 96.007813 L 169.328125 95.980469 L 166.265625 95.980469 L 166.265625 95.324219 L 170.34375 95.324219 L 170.34375 95.800781 L 167.007813 100.679688 L 167.007813 100.707031 L 170.386719 100.707031 L 170.386719 101.363281 L 165.980469 101.363281 L 165.980469 100.90625 "/>
</g>
<g clip-path="url(#clip24)" clip-rule="nonzero">
<path style=" stroke:none;fill-rule:nonzero;fill:rgb(0%,0%,0%);fill-opacity:1;" d="M 172.324219 99.464844 L 171.699219 101.363281 L 170.890625 101.363281 L 172.941406 95.324219 L 173.882813 95.324219 L 175.941406 101.363281 L 175.109375 101.363281 L 174.464844 99.464844 Z M 174.300781 98.855469 L 173.710938 97.117188 C 173.578125 96.722656 173.488281 96.363281 173.398438 96.015625 L 173.378906 96.015625 C 173.289063 96.371094 173.191406 96.738281 173.074219 97.105469 L 172.484375 98.855469 L 174.300781 98.855469 "/>
</g>
<g clip-path="url(#clip25)" clip-rule="nonzero">
<path style=" stroke:none;fill-rule:nonzero;fill:rgb(0%,0%,0%);fill-opacity:1;" d="M 14.574219 72.4375 L 10.921875 64.285156 C 10.21875 62.625 8.597656 61.554688 6.863281 61.554688 C 4.757813 61.554688 3.285156 62.992188 2.878906 65.355469 L 0.0742188 81.109375 C 0.0390625 81.441406 0 81.769531 0 82.105469 C 0 84.6875 1.699219 86.53125 4.09375 86.53125 C 6.199219 86.53125 7.75 85.09375 8.152344 82.734375 L 8.820313 78.820313 L 10.441406 83.210938 C 11.289063 85.5 12.582031 86.53125 14.574219 86.53125 C 16.492188 86.53125 17.933594 85.386719 18.742188 83.175781 L 20.328125 78.820313 L 21.25 83.433594 C 21.582031 85.277344 23.207031 86.53125 25.273438 86.53125 C 27.488281 86.53125 29.257813 84.796875 29.257813 82.582031 C 29.257813 82.214844 29.21875 81.738281 29.109375 81.21875 L 26.304688 65.355469 C 26.085938 64.027344 25.753906 63.324219 25.050781 62.660156 C 24.351563 61.996094 23.242188 61.554688 22.246094 61.554688 C 20.734375 61.554688 19.296875 62.441406 18.667969 63.730469 L 14.574219 72.4375 M 38.976563 78.746094 L 38.976563 76.90625 L 41.886719 76.90625 C 43.179688 76.90625 43.769531 76.753906 44.398438 76.273438 C 45.0625 75.722656 45.46875 74.871094 45.46875 73.953125 C 45.46875 72.21875 44.175781 71.035156 42.183594 71.035156 L 38.976563 71.035156 L 38.976563 69.339844 L 43.03125 69.339844 C 44.546875 69.339844 45.394531 69.082031 46.132813 68.453125 C 46.980469 67.75 47.457031 66.644531 47.457031 65.464844 C 47.457031 63.769531 46.355469 62.367188 44.65625 61.921875 C 44.101563 61.773438 43.882813 61.738281 41.558594 61.738281 L 36.6875 61.738281 C 34.289063 61.738281 34.105469 61.773438 33.179688 62.144531 C 32.332031 62.511719 31.558594 63.25 31.230469 64.175781 C 30.894531 64.949219 30.855469 65.207031 30.855469 67.269531 L 30.855469 80.628906 C 30.855469 82.328125 30.894531 82.546875 31.003906 83.0625 C 31.261719 84.5 32.074219 85.5 33.328125 86.015625 C 34.03125 86.273438 34.546875 86.347656 36.429688 86.347656 L 42.738281 86.347656 C 44.582031 86.347656 45.28125 86.164063 46.097656 85.5 C 46.90625 84.796875 47.425781 83.691406 47.425781 82.546875 C 47.425781 81.441406 46.945313 80.40625 46.097656 79.671875 C 45.246094 78.96875 44.472656 78.746094 42.703125 78.746094 Z M 66.269531 76.867188 C 68.152344 74.761719 68.886719 72.953125 68.886719 70.59375 C 68.886719 66.609375 66.234375 63.179688 62.433594 62.109375 C 61.363281 61.847656 60.476563 61.738281 58.488281 61.738281 L 55.089844 61.738281 C 53.136719 61.738281 52.324219 61.996094 51.402344 62.808594 C 50.441406 63.65625 50.074219 64.65625 50.074219 66.425781 L 50.074219 81.589844 C 50.074219 83.136719 50.367188 84.207031 51.03125 85.058594 C 51.773438 85.980469 52.988281 86.53125 54.207031 86.53125 C 56.457031 86.53125 58.191406 84.761719 58.191406 82.4375 L 58.191406 79.078125 L 61.546875 84.648438 C 62.285156 85.867188 63.464844 86.53125 64.90625 86.53125 C 67.195313 86.53125 68.960938 84.796875 68.960938 82.546875 C 68.960938 81.699219 68.703125 80.738281 68.1875 79.929688 Z M 58.191406 69.265625 C 58.558594 69.300781 58.855469 69.300781 59.039063 69.300781 C 60.253906 69.265625 60.921875 69.746094 60.921875 70.628906 C 60.921875 71.515625 60.292969 71.957031 59.074219 71.921875 L 58.191406 71.921875 Z M 95.300781 79.191406 C 95.300781 77.085938 93.382813 75.207031 91.242188 75.207031 C 90.210938 75.207031 89.105469 75.683594 88.441406 76.386719 L 87.589844 77.273438 C 86.632813 78.304688 85.304688 78.894531 83.972656 78.894531 C 81.320313 78.894531 79.179688 76.753906 79.179688 74.101563 C 79.179688 71.40625 81.320313 69.300781 84.011719 69.300781 C 85.339844 69.300781 86.632813 69.816406 87.515625 70.777344 L 88.699219 72.070313 C 89.25 72.660156 90.285156 73.066406 91.242188 73.066406 C 93.492188 73.066406 95.300781 71.222656 95.300781 69.007813 C 95.300781 67.382813 94.304688 65.722656 92.3125 64.136719 C 89.953125 62.179688 87.074219 61.148438 84.085938 61.148438 C 76.894531 61.148438 71.027344 66.941406 71.027344 74.101563 C 71.027344 81.21875 76.855469 86.976563 84.046875 86.976563 C 87.183594 86.976563 90.25 85.792969 92.644531 83.726563 C 94.378906 82.214844 95.300781 80.667969 95.300781 79.191406 Z M 105.847656 83.136719 L 113.371094 83.136719 C 114.519531 85.644531 115.625 86.53125 117.507813 86.53125 C 119.753906 86.53125 121.601563 84.722656 121.601563 82.511719 C 121.601563 81.882813 121.453125 81.183594 121.121094 80.554688 L 113.371094 64.027344 C 112.636719 62.476563 111.234375 61.554688 109.574219 61.554688 C 107.949219 61.554688 106.546875 62.476563 105.847656 63.988281 L 98.136719 80.335938 C 97.808594 81.035156 97.621094 81.769531 97.621094 82.472656 C 97.621094 84.761719 99.390625 86.53125 101.640625 86.53125 C 103.597656 86.53125 104.816406 85.535156 105.847656 83.136719 Z M 108.320313 77.273438 L 109.574219 74.320313 L 110.828125 77.273438 Z M 128.195313 61.738281 C 125.835938 61.738281 124.324219 62.660156 123.730469 64.433594 C 123.546875 64.984375 123.546875 65.207031 123.546875 67.269531 L 123.546875 80.8125 C 123.546875 82.511719 123.546875 82.917969 123.695313 83.46875 C 123.953125 84.429688 124.472656 85.09375 125.390625 85.683594 C 126.128906 86.199219 126.902344 86.347656 128.824219 86.347656 L 132.253906 86.347656 C 133.953125 86.347656 135.425781 86.238281 136.421875 86.050781 C 138.5625 85.609375 140.628906 84.539063 142.214844 83.0625 C 144.722656 80.738281 146.164063 77.421875 146.164063 74.023438 C 146.164063 70.519531 144.683594 67.164063 142.105469 64.875 C 139.707031 62.734375 136.867188 61.738281 133.179688 61.738281 Z M 131.664063 69.300781 L 132.328125 69.300781 C 133.839844 69.300781 134.691406 69.449219 135.464844 69.816406 C 137.046875 70.59375 138.085938 72.253906 138.085938 74.0625 C 138.085938 75.574219 137.308594 77.085938 136.089844 77.972656 C 135.132813 78.636719 134.46875 78.746094 131.664063 78.785156 Z M 148.402344 73.914063 C 148.402344 81.183594 154.15625 86.976563 161.386719 86.976563 C 168.507813 86.976563 174.335938 81.144531 174.335938 74.023438 C 174.335938 66.902344 168.546875 61.148438 161.351563 61.148438 C 154.15625 61.148438 148.402344 66.828125 148.402344 73.914063 Z M 156.554688 74.023438 C 156.554688 71.40625 158.730469 69.300781 161.386719 69.300781 C 164.046875 69.300781 166.21875 71.441406 166.21875 74.0625 C 166.21875 76.71875 164.046875 78.933594 161.386719 78.933594 C 158.730469 78.933594 156.554688 76.71875 156.554688 74.023438 Z M 190.355469 71.109375 L 183.902344 63.179688 C 182.976563 62.035156 182.058594 61.554688 180.878906 61.554688 C 178.328125 61.554688 176.632813 63.289063 176.632813 65.910156 L 176.632813 81.480469 C 176.632813 83.289063 176.820313 84.023438 177.480469 84.945313 C 178.257813 85.941406 179.476563 86.53125 180.726563 86.53125 C 181.945313 86.53125 183.089844 85.980469 183.863281 85.058594 C 184.566406 84.171875 184.785156 83.433594 184.785156 81.808594 L 184.785156 76.644531 L 191.207031 84.871094 C 192.054688 85.980469 193.121094 86.53125 194.414063 86.53125 C 195.671875 86.53125 196.851563 85.980469 197.589844 85.019531 C 198.289063 84.09375 198.476563 83.289063 198.476563 81.332031 L 198.476563 66.277344 C 198.476563 64.765625 198.21875 63.917969 197.515625 63.03125 C 196.738281 62.109375 195.636719 61.554688 194.414063 61.554688 C 193.089844 61.554688 191.796875 62.253906 191.097656 63.324219 C 190.507813 64.175781 190.355469 64.914063 190.355469 66.535156 Z M 209.054688 83.136719 L 216.578125 83.136719 C 217.722656 85.644531 218.832031 86.53125 220.714844 86.53125 C 222.964844 86.53125 224.804688 84.722656 224.804688 82.511719 C 224.804688 81.882813 224.660156 81.183594 224.328125 80.554688 L 216.578125 64.027344 C 215.84375 62.476563 214.441406 61.554688 212.78125 61.554688 C 211.15625 61.554688 209.753906 62.476563 209.054688 63.988281 L 201.339844 80.335938 C 201.011719 81.035156 200.824219 81.769531 200.824219 82.472656 C 200.824219 84.761719 202.59375 86.53125 204.847656 86.53125 C 206.804688 86.53125 208.019531 85.535156 209.054688 83.136719 Z M 211.523438 77.273438 L 212.78125 74.320313 L 214.035156 77.273438 Z M 211.523438 77.273438 "/>
</g>
</g>
</svg>
