<svg width="200" height="40" viewBox="0 0 200 40" fill="none" xmlns="http://www.w3.org/2000/svg">
<path fill-rule="evenodd" clip-rule="evenodd" d="M43.8088 0C53.1528 0 60.8454 11.8619 60.8456 25.9851C60.8456 34.6015 57.1272 40 50.4464 40C44.6273 39.9996 41.4166 36.7367 35.6525 27.1159L32.6913 22.1503C31.99 20.9711 31.3228 19.8696 30.6889 18.8487C28.8792 22.0404 26.2472 26.6764 26.2472 26.6764C19.9376 37.677 16.3882 39.9996 11.4533 40C4.59559 40 0.500045 34.675 0.5 26.2341C0.5 12.7451 8.02369 0 17.8417 0C22.6569 0.00031493 26.6808 2.32963 31.4922 8.44002C34.9935 3.71837 38.8612 0.000615303 43.8088 0ZM17.7567 6.53874C11.9217 6.53997 7.02622 16.5534 7.02622 26.3454C7.02651 30.9214 8.76909 33.4868 11.6995 33.4876C14.5481 33.4876 16.32 31.6961 21.4361 23.6971C21.4361 23.6971 23.7637 20.0112 27.6046 14.1351C23.5596 8.35921 20.9167 6.53874 17.7567 6.53874ZM43.3954 5.15893C40.267 5.15893 37.6364 7.60584 34.4475 12.515C35.3303 13.821 36.2519 15.2508 37.2093 16.8039L40.745 22.6893C46.2783 31.5694 47.6729 33.4876 50.5872 33.4876C53.6267 33.4869 55.0933 30.8953 55.0934 26.4274C55.0934 14.704 49.8946 5.15915 43.3954 5.15893Z" fill="black"/>
<path fill-rule="evenodd" clip-rule="evenodd" d="M133.499 10.3032C136.203 10.3034 138.531 10.94 140.483 12.2162C142.433 13.4929 143.936 15.2812 144.989 17.5802C146.041 19.8797 146.566 22.5787 146.566 25.6745V27.3561H125.683C126.064 29.6733 127.003 31.4982 128.5 32.8285C129.998 34.1593 131.892 34.8265 134.179 34.8264C136.012 34.8264 137.592 34.5551 138.917 34.012C140.242 33.4689 141.484 32.6437 142.646 31.5395L145.912 35.5324C142.663 38.5014 138.678 39.9856 133.959 39.9854C131.11 39.9852 128.605 39.3569 126.445 38.0987C124.285 36.8404 122.6 35.0963 121.393 32.8695C120.187 30.6428 119.584 28.0896 119.585 25.2117C119.585 22.2971 120.176 19.7169 121.355 17.4718C122.535 15.2276 124.173 13.4721 126.269 12.2045C128.366 10.9375 130.776 10.3036 133.499 10.3032ZM133.388 15.4621C131.355 15.4624 129.653 16.1322 128.283 17.4718C126.912 18.8116 126.046 20.6137 125.683 22.8768H140.658C140.477 20.5593 139.742 18.7434 138.454 17.4308C137.165 16.1184 135.475 15.4624 133.388 15.4621Z" fill="black"/>
<path fill-rule="evenodd" clip-rule="evenodd" d="M184.606 10.3032C186.548 10.3033 188.291 10.6797 189.834 11.4311C191.356 12.1655 192.673 13.2608 193.672 14.6214V10.9829H199.5V39.3057H193.672V35.342C192.637 36.8265 191.322 37.973 189.725 38.7784C188.128 39.5837 186.311 39.9849 184.278 39.9854C181.774 39.9852 179.555 39.3482 177.623 38.0724C175.69 36.796 174.168 35.038 173.061 32.8021C171.954 30.5662 171.401 28.008 171.401 25.1296C171.402 22.2337 171.962 19.6721 173.087 17.4454C174.212 15.219 175.77 13.472 177.758 12.2045C179.745 10.9375 182.029 10.3036 184.606 10.3032ZM185.803 15.6789C183.262 15.6792 181.237 16.532 179.731 18.2335C178.225 19.9351 177.473 22.2339 177.473 25.1296C177.473 28.0448 178.199 30.3534 179.652 32.0551C181.104 33.7569 183.072 34.6098 185.559 34.6096C187.392 34.6096 189.027 34.1391 190.461 33.1976C191.894 32.2568 192.927 30.9882 193.563 29.3951V20.8935C192.927 19.2827 191.925 18.0116 190.555 17.0792C189.184 16.1469 187.599 15.6789 185.803 15.6789Z" fill="black"/>
<path d="M159.964 10.9799H168.566V16.0041H159.964V28.7418C159.964 30.8593 160.326 32.3713 161.052 33.2767C161.778 34.1823 163.023 34.6364 164.784 34.636C165.564 34.636 166.227 34.6026 166.772 34.5393C167.316 34.4763 167.914 34.3903 168.566 34.2815V39.253C167.821 39.4679 167.062 39.6318 166.294 39.7422C165.415 39.8712 164.526 39.9322 163.638 39.9297C157.231 39.9292 154.027 36.4358 154.028 29.4478V16.0041H148.363V10.9799H154.028V2.67174H159.964V10.9799Z" fill="black"/>
<path d="M93.9077 24.4236L106.731 1.28607H114.111V39.3057H107.957V10.1655L96.7134 30.3442H90.9407L79.6942 10.1655V39.3057H73.5433V1.28607H81.0839L93.9077 24.4236Z" fill="black"/>
</svg>
