<svg width="258" height="55" viewBox="0 0 258 55" fill="none" xmlns="http://www.w3.org/2000/svg">
<path d="M26.1361 55H0V28.875H26.1361V55Z" fill="black"/>
<path d="M55.0236 28.875V55H28.8875V28.875H55.0236Z" fill="black"/>
<path fill-rule="evenodd" clip-rule="evenodd" d="M171.338 19.7844C175.006 19.7844 177.91 20.8537 179.974 23.0688C182.037 25.284 183.107 28.2635 183.107 32.0063C183.107 35.8257 181.961 38.8818 179.821 41.1735C177.605 43.4651 174.624 44.6109 170.803 44.611C167.135 44.611 164.23 43.542 162.09 41.4031C159.951 39.1879 158.881 36.2085 158.881 32.5421C158.881 28.6463 160.027 25.5136 162.167 23.2219C164.383 20.9303 167.44 19.7845 171.338 19.7844ZM171.261 24.3687C169.198 24.3687 167.67 25.0553 166.524 26.4298C165.224 27.8812 164.689 29.7917 164.689 32.3125C164.689 34.7569 165.225 36.667 166.371 37.9656C167.517 39.2638 169.122 39.9515 171.185 39.9515C173.172 39.9515 174.777 39.3406 175.847 37.9656C176.917 36.667 177.451 34.7566 177.451 32.1594C177.451 29.6391 176.917 27.7295 175.847 26.3546C174.777 25.056 173.172 24.3687 171.261 24.3687Z" fill="black"/>
<path fill-rule="evenodd" clip-rule="evenodd" d="M216.426 19.7844C220.095 19.7844 222.999 20.8537 225.062 23.0688C227.126 25.284 228.196 28.2635 228.196 32.0063C228.196 35.8257 227.049 38.8818 224.91 41.1735C222.693 43.4651 219.713 44.6109 215.892 44.611C212.223 44.611 209.319 43.5419 207.179 41.4031C205.116 39.1879 203.97 36.2085 203.969 32.5421C203.969 28.6463 205.116 25.5136 207.256 23.2219C209.472 20.9303 212.529 19.7844 216.426 19.7844ZM216.35 24.3687C214.287 24.3687 212.759 25.0553 211.612 26.4298C210.39 27.8812 209.778 29.7917 209.778 32.3125C209.778 34.7569 210.313 36.667 211.46 37.9656C212.606 39.2638 214.211 39.9515 216.274 39.9515C218.26 39.9515 219.865 39.3402 220.935 37.9656C222.005 36.667 222.54 34.7566 222.54 32.1594C222.54 29.6387 222.005 27.7296 220.935 26.3546C219.865 25.056 218.261 24.3687 216.35 24.3687Z" fill="black"/>
<path d="M134.885 19.7844C135.955 19.7844 137.025 19.938 138.018 20.1671C139.088 20.3963 139.929 20.7774 140.54 21.0829V26.4298C139.7 25.8188 138.782 25.2852 137.942 24.9796C137.025 24.6741 136.107 24.4439 135.19 24.4438C132.974 24.4438 131.216 25.1315 129.84 26.5829C128.465 28.0343 127.854 29.9446 127.854 32.389C127.854 34.757 128.541 36.667 129.84 37.9656C131.139 39.2642 132.898 39.9515 135.114 39.9515C135.954 39.9515 136.872 39.7989 137.865 39.3406C138.859 38.9586 139.776 38.4236 140.617 37.8125V43.0063C139.7 43.541 138.706 43.9239 137.56 44.1531C136.413 44.3822 135.19 44.5344 133.814 44.5344C130.299 44.5343 127.472 43.465 125.332 41.25C123.116 39.0347 122.046 36.208 122.046 32.8469C122.046 29.0276 123.192 25.8959 125.408 23.4515C127.625 21.0071 130.758 19.7844 134.885 19.7844Z" fill="black"/>
<path d="M194.875 19.5562C195.716 19.5562 196.633 19.6319 197.626 19.861C198.62 20.0901 199.537 20.3193 200.225 20.5485V25.9719C199.461 25.5136 198.62 25.0554 197.626 24.6735C196.633 24.2916 195.639 24.139 194.722 24.139C193.653 24.1391 192.813 24.3682 192.278 24.75C191.743 25.2846 191.436 25.8192 191.436 26.5829C191.436 27.3468 191.666 28.034 192.201 28.4923C192.736 28.9506 193.806 29.486 195.564 30.1735C197.78 31.0901 199.384 32.0837 200.225 33.1531C201.142 34.2989 201.6 35.5975 201.6 37.2015C201.6 39.4166 200.76 41.1735 199.003 42.5485C197.322 43.9234 194.952 44.5343 192.049 44.5344C191.055 44.5344 189.985 44.3822 188.762 44.1531C187.54 43.924 186.546 43.6178 185.706 43.236V37.736C186.699 38.4234 187.845 39.0352 188.992 39.4171C190.138 39.7989 191.208 40.0281 192.201 40.0281C193.423 40.028 194.416 39.8752 194.951 39.4937C195.563 39.1117 195.869 38.5762 195.869 37.736C195.869 36.9721 195.563 36.3611 194.951 35.75C194.34 35.2153 193.117 34.6045 191.436 33.9171C189.373 33.0769 187.921 32.0834 187.081 31.014C186.24 29.9446 185.782 28.5695 185.782 26.889C185.782 24.7501 186.622 22.9923 188.303 21.6173C189.984 20.2424 192.201 19.5562 194.875 19.5562Z" fill="black"/>
<path d="M241.417 8.55615C242.104 8.55617 242.715 8.6313 243.25 8.63135C243.785 8.63135 244.244 8.78472 244.626 8.9375V13.75C244.474 13.6737 244.091 13.5213 243.633 13.3687C243.175 13.2159 242.639 13.139 242.028 13.139C240.882 13.139 239.964 13.5204 239.353 14.2079C238.741 14.8954 238.436 16.0421 238.436 17.4171V20.2437H246.765V14.8954L252.344 13.2156V20.2437H258V24.8265H252.344V35.9031C252.345 37.3538 252.65 38.3468 253.108 38.9579C253.643 39.5689 254.484 39.8749 255.631 39.875C255.936 39.875 256.319 39.7982 256.778 39.6454C257.236 39.4927 257.618 39.34 257.924 39.111V43.6938C257.542 43.923 257.006 44.0768 256.165 44.2296C255.325 44.3823 254.561 44.4579 253.721 44.4579C251.352 44.4579 249.594 43.8472 248.447 42.625C247.301 41.4028 246.689 39.4928 246.689 36.9719L246.765 24.9031H238.436V44H232.781V24.9031H228.807V20.3188H232.781V17.0344C232.781 14.5901 233.622 12.5276 235.226 10.9235C236.831 9.31936 238.895 8.55615 241.417 8.55615Z" fill="black"/>
<path d="M89.3375 35.4438H89.4903L99.5014 11H107.296V44H101.564V18.1046H101.488L91.2472 44H87.4264L76.9569 18.1046H76.8805V44H71.607V11H79.8611L89.3375 35.4438Z" fill="black"/>
<path d="M118.225 44H112.646V20.3188H118.225V44Z" fill="black"/>
<path d="M156.435 19.9375C156.893 19.9375 157.276 19.9376 157.658 20.014C158.04 20.0904 158.346 20.1673 158.575 20.2437V25.8954C158.269 25.6663 157.887 25.4371 157.276 25.2844C156.665 25.1316 156.053 24.9796 155.213 24.9796C153.837 24.9797 152.691 25.5902 151.774 26.736C150.857 27.8817 150.322 29.6386 150.322 32.0829V44H144.743V20.3188H150.322V24.0625H150.399C150.934 22.764 151.697 21.7702 152.69 21.0063C153.76 20.319 154.983 19.9376 156.435 19.9375Z" fill="black"/>
<path d="M26.1361 26.125H0V0H26.1361V26.125Z" fill="black"/>
<path d="M55.0236 26.125H28.8875V0H55.0236V26.125Z" fill="black"/>
<path d="M115.397 10.3125C116.391 10.3126 117.232 10.6186 117.843 11.2296C118.454 11.8405 118.836 12.6042 118.836 13.5204C118.836 14.4369 118.531 15.2014 117.843 15.8125C117.155 16.4235 116.391 16.7295 115.397 16.7296C114.404 16.7296 113.639 16.4236 113.028 15.8125C112.416 15.125 112.035 14.3607 112.035 13.5204C112.035 12.604 112.34 11.8406 113.028 11.2296C113.716 10.6185 114.48 10.3125 115.397 10.3125Z" fill="black"/>
</svg>
