<svg width="238" height="55" viewBox="0 0 238 55" fill="none" xmlns="http://www.w3.org/2000/svg">
<path d="M112.567 0L114.584 7.18251C114.823 8.10889 115.063 9.02291 115.223 9.78254C115.324 10.2226 115.404 10.6425 115.482 11.0424H115.522C115.603 10.6425 115.677 10.2226 115.781 9.78254C115.935 9.02291 116.14 8.10271 116.398 7.18251L118.416 0H122.549V14.3033H119.854V6.10174C119.854 5.52121 119.854 4.80172 119.914 4.18105L119.974 3.14042H119.934C119.874 3.48009 119.794 3.80123 119.734 4.12083C119.594 4.68129 119.455 5.32049 119.315 5.86088L116.86 14.3033H114.086L111.689 5.86705C111.535 5.32667 111.41 4.68747 111.269 4.12701C111.209 3.80741 111.129 3.48627 111.069 3.14659H111.029L111.089 4.18722C111.109 4.80481 111.149 5.52738 111.149 6.10791V14.3033H108.494V0H112.567ZM130.536 13.1638H130.495C130.242 13.5772 129.884 13.9156 129.457 14.1442C128.839 14.4322 128.161 14.5692 127.48 14.5441C125.364 14.5441 123.907 13.4633 123.907 11.4037C123.878 10.9362 123.974 10.4694 124.184 10.0511C124.394 9.63279 124.712 9.27797 125.104 9.02291C125.997 8.50462 126.992 8.18843 128.019 8.09653C129.745 7.86185 130.497 7.71981 130.497 6.94783C130.497 6.17585 129.938 5.7281 128.78 5.7281C127.503 5.7281 126.884 6.16813 126.803 7.16861H124.387C124.393 6.71762 124.496 6.27322 124.689 5.86579C124.882 5.45836 125.161 5.0975 125.506 4.8079C126.445 4.08 127.615 3.71747 128.8 3.78734C131.882 3.78734 133.115 5.14757 133.115 7.5685V12.784C133.115 13.5637 133.235 14.0192 133.474 14.2044V14.3048H130.855C130.671 13.9507 130.562 13.5622 130.536 13.1638ZM129.936 12.0228C130.127 11.8557 130.281 11.6499 130.388 11.4189C130.494 11.1879 130.55 10.937 130.553 10.6827V9.13871C129.958 9.43345 129.322 9.63695 128.666 9.7424C127.229 10.062 126.551 10.3831 126.551 11.3435C126.551 12.3038 127.19 12.6435 128.149 12.6435C128.804 12.6718 129.446 12.4512 129.945 12.0259M134.078 10.9853H136.594C136.775 12.1849 137.593 12.6836 138.83 12.6836C140.028 12.6836 140.707 12.2205 140.707 11.5041C140.707 11.0239 140.368 10.7444 139.889 10.5638C139.273 10.3834 138.646 10.2431 138.012 10.1438C137.133 10.0321 136.284 9.74658 135.516 9.30391C135.138 9.06618 134.832 8.73026 134.63 8.33194C134.428 7.93362 134.337 7.48781 134.368 7.04201C134.345 6.55909 134.445 6.07828 134.658 5.64441C134.871 5.21055 135.19 4.83778 135.585 4.56086C136.464 3.99473 137.497 3.71534 138.541 3.76109C141.276 3.76109 142.713 5.06111 142.934 7.15781H140.479C140.339 6.03689 139.681 5.65708 138.502 5.65708C137.423 5.65708 136.745 6.03689 136.745 6.79806C136.745 7.26125 137.084 7.47895 137.624 7.63798C138.163 7.79701 138.841 7.89736 139.561 8.05794C140.424 8.18559 141.256 8.47025 142.017 8.89785C142.403 9.161 142.714 9.52138 142.917 9.9428C143.121 10.3642 143.21 10.8318 143.176 11.2987C143.188 11.7695 143.086 12.2362 142.877 12.6582C142.668 13.0801 142.36 13.4446 141.978 13.7196C141.058 14.3323 139.969 14.6401 138.864 14.5997C135.869 14.5997 134.232 13.1793 134.072 10.9791M143.78 10.9791H146.296C146.476 12.1788 147.295 12.6775 148.532 12.6775C149.729 12.6775 150.409 12.2143 150.409 11.4979C150.409 11.0177 150.07 10.7383 149.591 10.5576C148.975 10.3772 148.348 10.2369 147.714 10.1377C146.834 10.0259 145.986 9.74041 145.217 9.29774C144.842 9.05974 144.538 8.72447 144.337 8.3274C144.136 7.93032 144.045 7.4862 144.076 7.04201C144.053 6.55909 144.153 6.07828 144.365 5.64441C144.578 5.21055 144.897 4.83778 145.293 4.56086C146.172 3.99473 147.204 3.71534 148.248 3.76109C150.984 3.76109 152.421 5.06111 152.642 7.15781H150.182C150.042 6.03689 149.384 5.65708 148.205 5.65708C147.127 5.65708 146.449 6.03689 146.449 6.79806C146.449 7.26125 146.788 7.47895 147.327 7.63798C147.866 7.79701 148.544 7.89736 149.264 8.05794C150.127 8.18559 150.959 8.47025 151.72 8.89785C152.106 9.161 152.417 9.52138 152.62 9.9428C152.824 10.3642 152.913 10.8318 152.879 11.2987C152.891 11.7695 152.789 12.2362 152.58 12.6582C152.372 13.0801 152.063 13.4446 151.682 13.7196C150.761 14.3323 149.672 14.6401 148.567 14.5997C145.572 14.5997 143.935 13.1793 143.775 10.9791M160.246 13.1592H160.206C159.953 13.5726 159.594 13.911 159.167 14.1396C158.549 14.4275 157.872 14.5646 157.19 14.5395C155.075 14.5395 153.617 13.4587 153.617 11.3991C153.588 10.9315 153.684 10.4648 153.894 10.0465C154.105 9.62816 154.422 9.27334 154.814 9.01828C155.707 8.50004 156.702 8.18385 157.73 8.0919C159.446 7.85259 160.206 7.71209 160.206 6.93239C160.206 6.15269 159.647 5.71266 158.489 5.71266C157.212 5.71266 156.592 6.15269 156.512 7.15317H154.092C154.097 6.70218 154.2 6.25778 154.393 5.85035C154.587 5.44292 154.865 5.08206 155.21 4.79246C156.149 4.06457 157.32 3.70203 158.505 3.7719C161.587 3.7719 162.819 5.13213 162.819 7.55306V12.784C162.819 13.5637 162.939 14.0192 163.178 14.2044V14.3048H160.559C160.375 13.9507 160.266 13.5622 160.24 13.1638M159.64 12.0228C159.832 11.8557 159.986 11.6499 160.092 11.4189C160.198 11.1879 160.254 10.937 160.257 10.6827V9.13871C159.658 9.43341 159.019 9.6359 158.36 9.73931C156.922 10.0589 156.244 10.3801 156.244 11.3404C156.244 12.3007 156.884 12.6404 157.842 12.6404C158.497 12.6687 159.141 12.4481 159.64 12.0228ZM165.329 13.0233C164.379 11.9747 163.871 10.5979 163.912 9.18194C163.877 7.76511 164.376 6.38717 165.309 5.32204C165.782 4.81255 166.358 4.40982 166.998 4.14068C167.639 3.87153 168.329 3.74213 169.023 3.76109C170.176 3.72687 171.305 4.09468 172.217 4.80172C173.016 5.50208 173.533 6.46857 173.675 7.52218H171.026C170.96 7.07443 170.733 6.66641 170.387 6.37514C170.041 6.08388 169.601 5.9295 169.149 5.94116C167.493 5.94116 166.673 7.16089 166.673 9.18348C166.673 11.1443 167.431 12.4258 169.109 12.4258C169.359 12.4493 169.611 12.4227 169.85 12.3476C170.089 12.2725 170.311 12.1503 170.502 11.9883C170.694 11.8263 170.851 11.6277 170.965 11.404C171.079 11.1804 171.148 10.9362 171.166 10.6858H173.786C173.719 11.7461 173.238 12.7375 172.448 13.4464C171.54 14.2295 170.372 14.6437 169.174 14.6074C168.46 14.6291 167.749 14.4991 167.088 14.2261C166.427 13.9531 165.832 13.5432 165.34 13.0233M177.62 5.38071C177.917 4.86072 178.353 4.43377 178.878 4.1475C179.404 3.86123 179.998 3.72691 180.595 3.75955C181.074 3.74535 181.55 3.83452 181.991 4.02101C182.432 4.2075 182.828 4.48693 183.152 4.84032C183.808 5.60708 184.157 6.59097 184.13 7.60092V14.3033H181.415V8.00235C181.443 7.75713 181.418 7.50866 181.34 7.27442C181.262 7.04019 181.134 6.82589 180.965 6.64661C180.795 6.46733 180.589 6.32743 180.36 6.23676C180.13 6.14609 179.884 6.10685 179.638 6.12181C179.343 6.1274 179.052 6.19451 178.784 6.31886C178.516 6.44321 178.277 6.62208 178.081 6.8441C177.886 7.06612 177.739 7.32644 177.649 7.60851C177.56 7.89058 177.53 8.18822 177.561 8.48252V14.3033H174.846V0H177.561V5.38071H177.62ZM192.155 13.1005H192.095C191.644 13.7214 191.006 14.1813 190.276 14.4129C189.545 14.6444 188.759 14.6354 188.034 14.3872C187.309 14.1391 186.682 13.6647 186.245 13.0336C185.808 12.4026 185.584 11.648 185.606 10.8803V4.04055H188.3V10.4233C188.3 11.6229 188.819 12.2838 189.995 12.2838C190.287 12.2843 190.576 12.2226 190.843 12.1029C191.11 11.9832 191.349 11.8081 191.543 11.5893C191.738 11.3704 191.883 11.1127 191.971 10.8332C192.059 10.5537 192.086 10.2588 192.052 9.96782V4.04055H194.772V14.3033H192.152L192.155 13.1005ZM195.769 10.9807H198.285C198.465 12.1803 199.283 12.679 200.521 12.679C201.718 12.679 202.398 12.2158 202.398 11.4994C202.398 11.0193 202.059 10.7398 201.579 10.5592C200.964 10.3788 200.337 10.2385 199.703 10.1392C198.823 10.0274 197.975 9.74195 197.206 9.29928C196.831 9.06051 196.526 8.72434 196.326 8.3264C196.125 7.92846 196.036 7.48358 196.068 7.03892C196.045 6.556 196.145 6.07519 196.357 5.64133C196.57 5.20746 196.889 4.83469 197.285 4.55777C198.164 3.99164 199.196 3.71225 200.24 3.758C202.976 3.758 204.413 5.05802 204.634 7.15472H202.168C202.028 6.0338 201.37 5.65399 200.191 5.65399C199.112 5.65399 198.434 6.0338 198.434 6.79498C198.434 7.25816 198.773 7.47586 199.313 7.63489C199.852 7.79392 200.53 7.89428 201.25 8.05485C202.113 8.18254 202.945 8.46719 203.706 8.89476C204.092 9.15792 204.403 9.51829 204.606 9.93971C204.81 10.3611 204.899 10.8288 204.865 11.2956C204.877 11.7664 204.775 12.2331 204.566 12.6551C204.357 13.077 204.049 13.4415 203.667 13.7166C202.747 14.3292 201.658 14.637 200.553 14.5966C197.558 14.5966 195.921 13.1762 195.761 10.976M206.945 13.0233C206.007 11.9626 205.513 10.5798 205.567 9.16341C205.536 7.74901 206.043 6.37559 206.985 5.32204C207.447 4.82013 208.009 4.42163 208.635 4.15263C209.261 3.88363 209.937 3.75021 210.618 3.76109C211.336 3.72763 212.05 3.86625 212.703 4.16542C213.356 4.46458 213.928 4.91564 214.372 5.48106C215.29 6.78084 215.747 8.35123 215.67 9.94157H208.242C208.463 11.5427 209.301 12.5015 210.862 12.5015C211.285 12.5439 211.709 12.4427 212.068 12.2143C212.427 11.9858 212.698 11.6432 212.839 11.2416H215.514C215.328 12.1787 214.81 13.0169 214.056 13.6023C213.141 14.2845 212.022 14.637 210.882 14.6028C210.152 14.6332 209.423 14.5081 208.744 14.2359C208.066 13.9636 207.453 13.5504 206.945 13.0233ZM208.282 8.06257H212.834C212.842 7.77336 212.791 7.48562 212.684 7.21675C212.578 6.94787 212.418 6.70343 212.214 6.49822C212.011 6.293 211.768 6.13126 211.5 6.02278C211.232 5.91429 210.946 5.86132 210.657 5.86705C210.356 5.85235 210.055 5.89788 209.772 6.00098C209.489 6.10408 209.229 6.26269 209.008 6.46753C208.787 6.67238 208.609 6.91935 208.484 7.19401C208.359 7.46867 208.29 7.76552 208.281 8.0672M217.425 4.0529V0.839915H220.08V4.04055H221.836V5.94116H220.08V11.2833C220.08 12.063 220.479 12.3038 221.098 12.3038H221.618C221.709 12.3068 221.801 12.3 221.892 12.2838V14.2909C221.746 14.3081 221.599 14.3148 221.453 14.311C221.154 14.3311 220.735 14.3311 220.195 14.3311C219.533 14.3608 218.878 14.1862 218.318 13.8308C218.016 13.6066 217.774 13.3091 217.617 12.9663C217.46 12.6234 217.392 12.2462 217.42 11.87V5.94116H216.002V4.04055L217.425 4.0529ZM223.733 4.0529V0.839915H226.388V4.04055H228.145V5.94116H226.388V11.2833C226.388 12.063 226.787 12.3038 227.407 12.3038H227.926C228.019 12.3071 228.113 12.3004 228.205 12.2838V14.2909C228.059 14.3081 227.912 14.3148 227.766 14.311C227.467 14.3311 227.048 14.3311 226.508 14.3311C225.846 14.3608 225.191 14.1862 224.632 13.8308C224.329 13.6066 224.088 13.3091 223.93 12.9663C223.773 12.6234 223.706 12.2462 223.733 11.87V5.94116H222.316V4.04055L223.733 4.0529ZM228.884 11.0007H231.401C231.581 12.2004 232.399 12.6991 233.637 12.6991C234.834 12.6991 235.513 12.2359 235.513 11.5195C235.513 11.0393 235.174 10.7599 234.695 10.5792C234.079 10.3988 233.452 10.2586 232.818 10.1593C231.939 10.0475 231.091 9.76202 230.322 9.31935C229.946 9.08058 229.642 8.74441 229.442 8.34647C229.241 7.94853 229.152 7.50365 229.183 7.05899C229.161 6.57608 229.26 6.09526 229.473 5.6614C229.686 5.22754 230.005 4.85476 230.401 4.57785C231.28 4.01172 232.312 3.73232 233.356 3.77807C236.091 3.77807 237.529 5.07809 237.749 7.17479H235.298C235.158 6.05387 234.5 5.67406 233.321 5.67406C232.242 5.67406 231.564 6.05387 231.564 6.81505C231.564 7.27823 231.903 7.49593 232.442 7.65496C232.982 7.81399 233.66 7.91435 234.379 8.07492C235.242 8.20258 236.075 8.48723 236.836 8.91483C237.222 9.17817 237.532 9.53863 237.735 9.96004C237.938 10.3814 238.027 10.849 237.993 11.3157C238.005 11.7865 237.903 12.2532 237.694 12.6751C237.486 13.0971 237.177 13.4615 236.796 13.7366C235.875 14.3493 234.786 14.6571 233.681 14.6167C230.686 14.6167 229.049 13.1962 228.889 10.9961M111.39 32.8987H108.494V18.5955H111.39V32.8987ZM115.982 24.0364C116.279 23.4996 116.722 23.0575 117.258 22.7605C117.795 22.4635 118.404 22.3235 119.016 22.3566C119.494 22.3425 119.97 22.4317 120.411 22.6182C120.851 22.8047 121.247 23.0841 121.571 23.4373C122.227 24.2041 122.576 25.188 122.549 26.1979V32.9003H119.834V26.5963C119.862 26.3511 119.837 26.1026 119.759 25.8684C119.681 25.6341 119.553 25.4198 119.384 25.2405C119.214 25.0613 119.008 24.9214 118.779 24.8307C118.549 24.74 118.303 24.7008 118.057 24.7157C117.762 24.7213 117.471 24.7884 117.203 24.9128C116.935 25.0371 116.695 25.216 116.5 25.438C116.305 25.6601 116.158 25.9204 116.068 26.2024C115.979 26.4845 115.949 26.7822 115.98 27.0765V32.8987H113.265V22.636H115.92V24.0364H115.982ZM123.469 29.5777H125.985C126.166 30.7773 126.984 31.276 128.221 31.276C129.418 31.276 130.098 30.8128 130.098 30.0964C130.098 29.6163 129.759 29.3368 129.28 29.1562C128.664 28.9758 128.037 28.8355 127.403 28.7362C126.524 28.6245 125.675 28.339 124.907 27.8963C124.531 27.6575 124.227 27.3214 124.026 26.9234C123.826 26.5255 123.736 26.0806 123.768 25.6359C123.746 25.1538 123.846 24.6739 124.059 24.2409C124.272 23.8079 124.59 23.4359 124.985 23.1594C125.864 22.5933 126.897 22.3139 127.941 22.3597C130.676 22.3597 132.113 23.6597 132.334 25.7564H129.878C129.737 24.6354 129.079 24.2556 127.901 24.2556C126.822 24.2556 126.144 24.6355 126.144 25.3966C126.144 25.8598 126.483 26.0775 127.022 26.2365C127.562 26.3956 128.24 26.4959 128.959 26.6565C129.822 26.7842 130.655 27.0688 131.415 27.4964C131.802 27.7596 132.112 28.1199 132.316 28.5414C132.519 28.9628 132.608 29.4304 132.574 29.8973C132.587 30.368 132.484 30.8348 132.276 31.2567C132.067 31.6787 131.758 32.0431 131.377 32.3182C130.456 32.9308 129.367 33.2386 128.263 33.1983C125.267 33.1983 123.629 31.7778 123.469 29.5777ZM134.292 22.6298V19.4354H136.947V22.636H138.704V24.5366H136.947V29.8787C136.947 30.6584 137.346 30.8993 137.966 30.8993H138.485C138.578 30.9023 138.67 30.8956 138.761 30.8792V32.8864C138.615 32.9035 138.468 32.9102 138.322 32.9065C138.023 32.9265 137.604 32.9265 137.064 32.9265C136.402 32.9553 135.747 32.7796 135.188 32.4232C134.885 32.1989 134.644 31.9015 134.487 31.5586C134.329 31.2158 134.262 30.8386 134.289 30.4624V24.5366H132.872V22.636L134.292 22.6298ZM142.698 21.4101H139.98V18.9753H142.689L142.698 21.4101ZM142.698 32.8926H139.98V22.636H142.689L142.698 32.8926ZM145.154 22.636V19.4354H147.809V22.636H149.566V24.5366H147.809V29.8787C147.809 30.6584 148.208 30.8993 148.828 30.8993H149.347C149.439 30.9023 149.532 30.8956 149.623 30.8792V32.8864C149.477 32.9035 149.33 32.9102 149.184 32.9065C148.885 32.9265 148.466 32.9265 147.926 32.9265C147.264 32.9553 146.609 32.7796 146.049 32.4232C145.747 32.1989 145.506 31.9015 145.348 31.5586C145.191 31.2158 145.123 30.8386 145.151 30.4624V24.5366H143.733V22.636H145.154ZM157.314 31.6991H157.253C156.802 32.32 156.165 32.7799 155.434 33.0114C154.703 33.243 153.918 33.234 153.192 32.9858C152.467 32.7376 151.84 32.2633 151.403 31.6322C150.966 31.0011 150.743 30.2465 150.765 29.4789V22.636H153.46V29.0172C153.46 30.2169 153.979 30.8777 155.155 30.8777C155.447 30.8782 155.736 30.8166 156.003 30.6969C156.27 30.5771 156.509 30.4021 156.703 30.1832C156.897 29.9644 157.043 29.7067 157.131 29.4272C157.219 29.1477 157.246 28.8527 157.212 28.5617V22.636H159.927V32.8987H157.307L157.314 31.6991ZM162.385 22.636V19.4354H165.032V22.636H166.789V24.5366H165.032V29.8787C165.032 30.6584 165.431 30.8993 166.051 30.8993H166.57C166.663 30.9025 166.757 30.8958 166.849 30.8792V32.8864C166.703 32.9035 166.556 32.9102 166.41 32.9065C166.111 32.9265 165.692 32.9265 165.152 32.9265C164.491 32.9544 163.838 32.7787 163.28 32.4232C162.977 32.1989 162.736 31.9015 162.579 31.5586C162.422 31.2158 162.354 30.8386 162.382 30.4624V24.5366H160.964V22.636H162.385ZM168.857 31.6188C167.918 30.558 167.425 29.1753 167.479 27.7589C167.447 26.3445 167.954 24.9711 168.897 23.9175C169.358 23.4156 169.921 23.0171 170.547 22.7481C171.173 22.4791 171.849 22.3457 172.53 22.3566C173.247 22.3231 173.962 22.4617 174.615 22.7609C175.268 23.0601 175.84 23.5111 176.284 24.0765C177.202 25.3763 177.658 26.9467 177.581 28.537H170.154C170.374 30.1381 171.213 31.0969 172.774 31.0969C173.196 31.1394 173.621 31.0382 173.98 30.8097C174.338 30.5813 174.61 30.2387 174.751 29.8371H177.426C177.239 30.7742 176.722 31.6124 175.968 32.1978C175.052 32.88 173.934 33.2325 172.794 33.1983C172.064 33.2278 171.336 33.1022 170.658 32.8297C169.981 32.5572 169.368 32.144 168.861 31.6172M170.199 26.6565H174.74C174.748 26.367 174.697 26.0789 174.591 25.8096C174.485 25.5403 174.325 25.2954 174.122 25.0897C173.919 24.884 173.676 24.7218 173.408 24.6129C173.14 24.5041 172.853 24.4508 172.564 24.4564C172.263 24.4416 171.962 24.4872 171.679 24.5903C171.396 24.6934 171.136 24.852 170.915 25.0568C170.694 25.2617 170.516 25.5086 170.391 25.7833C170.266 26.058 170.197 26.3548 170.188 26.6565M182.945 31.6172C182.455 31.1077 182.07 30.5059 181.813 29.8466C181.556 29.1873 181.432 28.4835 181.447 27.7759C181.42 26.3418 181.958 24.9547 182.945 23.916C183.448 23.408 184.049 23.0077 184.711 22.7394C185.374 22.471 186.083 22.3403 186.797 22.355C187.515 22.342 188.227 22.4734 188.892 22.7416C189.558 23.0097 190.163 23.4091 190.671 23.916C191.645 24.962 192.174 26.3459 192.149 27.7759C192.178 29.201 191.648 30.5806 190.671 31.6172C190.167 32.1308 189.563 32.5359 188.897 32.8077C188.231 33.0795 187.517 33.2124 186.797 33.1983C186.081 33.2141 185.37 33.0819 184.707 32.8099C184.044 32.5379 183.444 32.1319 182.945 31.6172ZM189.394 27.7759C189.394 25.7548 188.469 24.4147 186.799 24.4147C185.129 24.4147 184.204 25.7548 184.204 27.7759C184.204 29.7969 185.129 31.117 186.799 31.117C188.469 31.117 189.394 29.7768 189.394 27.7759ZM193.886 22.6345V21.7081C193.845 21.1974 193.944 20.6853 194.173 20.227C194.402 19.7688 194.751 19.3819 195.183 19.1081C196.188 18.6004 197.327 18.4253 198.438 18.6078V20.7076C197.16 20.6474 196.601 20.7879 196.601 21.8687V22.6283H198.438V24.5891H196.601V32.891H193.886V24.5969H192.488V22.636L193.886 22.6345ZM115.681 37.1894V39.6304H111.39V51.4942H108.494V39.6304H104.201V37.1894H115.681ZM115.382 50.2127C114.444 49.152 113.95 47.7692 114.005 46.3528C113.973 44.9384 114.48 43.565 115.422 42.5114C115.884 42.0095 116.446 41.611 117.073 41.342C117.699 41.073 118.375 40.9396 119.056 40.9505C119.773 40.9167 120.488 41.0551 121.141 41.3543C121.795 41.6535 122.367 42.1047 122.811 42.6705C123.729 43.9702 124.186 45.5406 124.108 47.131H116.681C116.902 48.7321 117.74 49.6909 119.301 49.6909C119.724 49.7333 120.148 49.6322 120.507 49.4037C120.865 49.1752 121.137 48.8326 121.278 48.431H123.953C123.766 49.3681 123.249 50.2063 122.495 50.7917C121.58 51.4739 120.461 51.8264 119.321 51.7922C118.591 51.8219 117.863 51.6964 117.185 51.4239C116.507 51.1514 115.894 50.7381 115.387 50.2112M116.724 45.2504H121.27C121.278 44.961 121.228 44.6729 121.121 44.4035C121.015 44.1342 120.856 43.8893 120.652 43.6836C120.449 43.4779 120.206 43.3157 119.938 43.2069C119.67 43.098 119.383 43.0447 119.094 43.0503C118.793 43.0356 118.493 43.0811 118.21 43.1842C117.926 43.2873 117.667 43.4459 117.445 43.6508C117.224 43.8556 117.046 44.1026 116.921 44.3772C116.796 44.6519 116.727 44.9487 116.718 45.2504M126.162 50.2112C125.212 49.1625 124.704 47.7858 124.745 46.3698C124.71 44.953 125.209 43.575 126.142 42.5099C126.615 42.0004 127.191 41.5977 127.831 41.3285C128.472 41.0594 129.162 40.93 129.856 40.9489C131.009 40.9147 132.138 41.2825 133.05 41.9896C133.849 42.6898 134.367 43.6564 134.508 44.71H131.855C131.788 44.2623 131.561 43.8543 131.215 43.563C130.87 43.2717 130.429 43.1174 129.978 43.129C128.321 43.129 127.502 44.3488 127.502 46.3713C127.502 48.3322 128.26 49.6137 129.938 49.6137C130.187 49.6371 130.439 49.6105 130.678 49.5354C130.917 49.4603 131.139 49.3382 131.331 49.1762C131.522 49.0142 131.68 48.8155 131.794 48.5919C131.908 48.3682 131.976 48.1241 131.995 47.8736H134.614C134.547 48.9339 134.067 49.9253 133.277 50.6342C132.368 51.4174 131.2 51.8316 130.002 51.7953C129.288 51.8173 128.578 51.6879 127.917 51.4154C127.256 51.1429 126.66 50.7336 126.169 50.2143M138.448 42.5717C138.745 42.0517 139.181 41.6247 139.707 41.3384C140.232 41.0522 140.826 40.9179 141.424 40.9505C141.902 40.9363 142.378 41.0255 142.819 41.212C143.26 41.3984 143.656 41.6779 143.98 42.0313C144.637 42.798 144.985 43.7819 144.959 44.7919V51.4942H142.236V45.1918C142.264 44.9465 142.238 44.6981 142.161 44.4638C142.083 44.2296 141.955 44.0153 141.785 43.836C141.616 43.6567 141.41 43.5168 141.18 43.4262C140.951 43.3355 140.705 43.2963 140.459 43.3112C140.164 43.3168 139.873 43.3839 139.605 43.5083C139.337 43.6326 139.097 43.8115 138.902 44.0335C138.707 44.2555 138.559 44.5158 138.47 44.7979C138.38 45.08 138.35 45.3776 138.382 45.6719V51.4942H135.667V37.1894H138.382V42.5701L138.448 42.5717ZM149.235 42.6319C149.532 42.0948 149.975 41.6526 150.512 41.3555C151.049 41.0585 151.658 40.9187 152.27 40.952C152.749 40.9378 153.225 41.027 153.666 41.2135C154.107 41.4 154.503 41.6794 154.827 42.0328C155.483 42.7996 155.832 43.7835 155.805 44.7934V51.4958H153.078V45.1918C153.106 44.9465 153.08 44.6981 153.003 44.4638C152.925 44.2296 152.797 44.0153 152.627 43.836C152.458 43.6567 152.251 43.5168 152.022 43.4262C151.793 43.3355 151.547 43.2963 151.301 43.3112C151.006 43.3168 150.715 43.3839 150.447 43.5083C150.178 43.6326 149.939 43.8115 149.744 44.0335C149.548 44.2555 149.401 44.5158 149.312 44.7979C149.222 45.08 149.192 45.3776 149.224 45.6719V51.4942H146.509V41.2238H149.161V42.6241L149.235 42.6319ZM158.358 50.2143C157.868 49.7047 157.483 49.1029 157.226 48.4436C156.969 47.7843 156.845 47.0805 156.861 46.3729C156.833 44.9388 157.371 43.5517 158.358 42.513C158.861 42.005 159.462 41.6047 160.125 41.3364C160.787 41.0681 161.496 40.9373 162.211 40.952C162.928 40.939 163.64 41.0704 164.306 41.3386C164.971 41.6067 165.576 42.0061 166.084 42.513C167.058 43.559 167.588 44.943 167.562 46.3729C167.592 47.798 167.061 49.1776 166.084 50.2143C165.58 50.7278 164.976 51.1329 164.31 51.4047C163.644 51.6765 162.93 51.8094 162.211 51.7953C161.495 51.8111 160.783 51.6789 160.12 51.4069C159.457 51.1349 158.858 50.7289 158.358 50.2143ZM164.807 46.3729C164.807 44.3518 163.883 43.0117 162.212 43.0117C160.542 43.0117 159.617 44.3518 159.617 46.3729C159.617 48.3939 160.542 49.714 162.212 49.714C163.883 49.714 164.807 48.3739 164.807 46.3729ZM171.456 51.4942H168.73V37.1894H171.445L171.456 51.4942ZM174.123 50.2127C173.633 49.7032 173.248 49.1014 172.991 48.4421C172.734 47.7828 172.61 47.079 172.626 46.3713C172.598 44.9372 173.136 43.5501 174.123 42.5114C174.627 42.0035 175.228 41.6032 175.89 41.3348C176.552 41.0665 177.262 40.9358 177.976 40.9505C178.693 40.9375 179.405 41.0689 180.071 41.337C180.736 41.6052 181.341 42.0046 181.85 42.5114C182.823 43.5575 183.353 44.9414 183.327 46.3713C183.357 47.7965 182.826 49.1761 181.85 50.2127C181.345 50.7263 180.741 51.1313 180.075 51.4032C179.409 51.675 178.695 51.8079 177.976 51.7937C177.26 51.8096 176.548 51.6774 175.885 51.4054C175.222 51.1334 174.623 50.7274 174.123 50.2127ZM180.572 46.3713C180.572 44.3503 179.648 43.0101 177.977 43.0101C176.307 43.0101 175.382 44.3503 175.382 46.3713C175.382 48.3924 176.307 49.7125 177.977 49.7125C179.648 49.7125 180.572 48.3723 180.572 46.3713ZM184.186 51.7922H186.881C187.101 52.4329 187.659 52.9332 188.938 52.9332C190.456 52.9332 191.214 52.2322 191.214 50.7932V49.6723H191.154C190.833 50.0681 190.423 50.3828 189.959 50.5911C189.494 50.7995 188.987 50.8957 188.479 50.872C187.902 50.8757 187.331 50.7624 186.799 50.539C186.267 50.3156 185.786 49.9866 185.384 49.572C184.915 49.1007 184.547 48.5381 184.303 47.9188C184.06 47.2996 183.945 46.6368 183.967 45.9715C183.911 44.6353 184.357 43.3266 185.218 42.3045C185.616 41.8594 186.106 41.5069 186.655 41.2719C187.203 41.0369 187.796 40.9251 188.392 40.9443C188.941 40.9171 189.487 41.0272 189.982 41.2647C190.477 41.5022 190.905 41.8596 191.228 42.3045H191.268V41.2238H193.887V50.7068C193.927 51.2847 193.839 51.8644 193.628 52.404C193.418 52.9436 193.091 53.4297 192.67 53.8271C191.625 54.6628 190.306 55.077 188.972 54.9882C186.136 54.9882 184.48 53.7885 184.179 51.7876M190.788 47.8659C191.183 47.2908 191.379 46.6023 191.348 45.9051C191.373 45.2026 191.162 44.512 190.748 43.9442C190.528 43.6732 190.246 43.4578 189.927 43.3154C189.608 43.173 189.26 43.1076 188.912 43.1244C187.514 43.1244 186.616 44.1851 186.616 45.9251C186.616 47.6652 187.514 48.6857 188.927 48.6857C189.278 48.7035 189.628 48.6386 189.949 48.4962C190.27 48.3538 190.553 48.1379 190.776 47.8659M196.686 52.7078C197.784 52.7078 198.203 52.1674 198.203 51.3074C198.199 50.9617 198.147 50.6183 198.049 50.2868C197.909 49.8669 197.73 49.3064 197.433 48.5267L194.685 41.2238H197.545L199.063 45.8449C199.217 46.325 199.362 46.8654 199.502 47.3255C199.562 47.5849 199.643 47.8258 199.723 48.0851H199.763L199.943 47.3255C200.057 46.8251 200.197 46.3309 200.362 45.8449L201.8 41.2238H204.535L200.962 51.7459C200.731 52.6443 200.277 53.47 199.644 54.1467C198.998 54.67 198.175 54.9213 197.348 54.8477H195.75V52.7139L196.686 52.7078ZM51.3772 51.488H62.7969V17.1642H51.3926L51.3772 51.488ZM68.523 11.4423H97.0777V0H68.523V11.4423ZM51.3926 0H62.8123V11.4423H51.3926V0ZM34.2607 51.4942H45.6804V0H34.2607V51.4942ZM17.1304 40.0504H28.5501V0H17.1304V40.0504ZM0 51.4942H11.4197V0H0V51.4942ZM68.523 51.4942H79.9427V17.1642H68.523V51.4942Z" fill="black"/>
</svg>
