<svg width="304" height="55" viewBox="0 0 304 55" fill="none" xmlns="http://www.w3.org/2000/svg">
<path d="M235.125 14.7208L241.062 30.066L247.029 14.7208H255.544L238.976 55H230.524L236.962 38.9686L226.611 14.7208H235.125Z" fill="black"/>
<path d="M45.1734 32.2427C48.3913 32.2427 50.9998 34.7889 50.9999 37.9307C50.9999 41.0726 48.3913 43.62 45.1734 43.62C41.9555 43.62 39.3469 41.0726 39.3469 37.9307C39.3471 34.7889 41.9556 32.2427 45.1734 32.2427Z" fill="black"/>
<path d="M18.3638 13.28C19.4793 13.3067 20.5678 13.628 21.5177 14.2119C22.4678 14.7959 23.2454 15.6213 23.7706 16.6034C24.8256 18.5929 24.6938 20.9864 23.4303 22.854L12.1203 40.5786C11.5468 41.47 10.7561 42.2024 9.82307 42.7083C8.89009 43.214 7.84393 43.477 6.78205 43.4723C5.66587 43.4747 4.56927 43.181 3.60385 42.6223C2.6383 42.0635 1.83823 41.2591 1.28643 40.2913C0.74326 39.3304 0.471895 38.2397 0.502302 37.1371C0.532805 36.0345 0.864539 34.9608 1.45993 34.0312L12.7767 16.3066C13.3559 15.3541 14.1785 14.5719 15.16 14.04C16.1415 13.5082 17.2472 13.2464 18.3638 13.28Z" fill="black"/>
<path d="M37.7692 13.2787C40.071 13.329 42.1574 14.6135 43.2124 16.6222C44.2601 18.6308 44.1068 21.0396 42.8049 22.9023L31.511 40.5853C30.9392 41.4729 30.1522 42.2025 29.2232 42.7069C28.2943 43.2112 27.2532 43.4749 26.1956 43.4723C23.9129 43.4723 21.8124 42.2541 20.7094 40.298C20.1674 39.3398 19.8963 38.2529 19.9266 37.1532C19.957 36.0535 20.2875 34.9824 20.8816 34.0554L32.1781 16.3711C32.7488 15.4053 33.5677 14.6092 34.5507 14.0656C35.5339 13.5219 36.6454 13.2498 37.7692 13.2787Z" fill="black"/>
<path fill-rule="evenodd" clip-rule="evenodd" d="M275.386 30.1976C278.882 30.1976 281.824 32.6914 281.824 36.6201C281.824 40.5489 278.865 43.1364 275.37 43.1366L275.386 43.1245C271.89 43.1244 268.971 40.5489 268.971 36.6201C268.972 32.6915 271.89 30.1978 275.386 30.1976ZM275.386 32.5717C273.177 32.5718 271.339 34.1385 271.339 36.6349C271.295 37.7349 271.703 38.8063 272.466 39.593C273.228 40.382 274.278 40.8193 275.367 40.8002H275.59C276.61 40.7693 277.582 40.3396 278.299 39.5997C279.066 38.8106 279.474 37.7373 279.433 36.6349C279.433 34.1384 277.592 32.5717 275.386 32.5717Z" fill="black"/>
<path d="M263.15 30.1976C264.035 30.1806 264.912 30.3491 265.727 30.6918C266.542 31.0345 267.276 31.5443 267.881 32.1876L266.068 33.7264C265.683 33.3497 265.227 33.0525 264.727 32.8523C264.226 32.652 263.69 32.5523 263.15 32.5596C260.945 32.5596 259.027 34.1262 259.027 36.6201C259.027 38.306 260.031 39.8242 261.573 40.4698C263.114 41.1155 264.888 40.757 266.068 39.5662L267.908 41.1063C267.301 41.7563 266.563 42.2719 265.743 42.6196C264.924 42.9672 264.041 43.1392 263.15 43.1245C259.657 43.1245 256.659 40.549 256.659 36.6201L256.635 36.6349C256.635 32.706 259.63 30.212 263.15 30.1976Z" fill="black"/>
<path d="M298.77 30.2124C301.858 30.2127 303.5 32.2278 303.5 35.7043V42.8707H301.109V35.8655C301.109 33.8209 300.056 32.5717 298.296 32.5717C296.259 32.548 295.012 34.1119 295.012 36.1824V42.8707H292.632V35.8386C292.632 33.7941 291.581 32.5717 289.979 32.5717C288.269 32.5717 286.563 33.581 286.563 36.1824V42.8707H284.168V30.4769H286.563V32.3353C287.217 30.9533 288.968 30.3437 289.951 30.2648C290.4 30.2364 290.85 30.2632 291.293 30.344C291.996 30.4202 292.665 30.6843 293.23 31.1094C293.794 31.5345 294.232 32.1046 294.498 32.7583C295.642 30.5416 297.561 30.2124 298.77 30.2124Z" fill="black"/>
<path fill-rule="evenodd" clip-rule="evenodd" d="M193.222 41.7468H185.285V38.3899C183.959 40.8768 180.744 42.3255 177.406 42.3256C170.503 42.3256 164.405 36.8281 164.405 28.3151C164.405 19.642 170.503 14.1381 177.406 14.1381C180.739 14.1381 183.964 15.5242 185.285 18.0133V0H193.222V41.7468ZM178.902 21.7207C175.507 21.7209 172.686 24.2673 172.686 28.1459C172.686 32.1485 175.506 34.6835 178.899 34.6838C182.239 34.6886 185.113 32.0244 185.113 28.1459C185.113 24.095 182.179 21.7207 178.902 21.7207Z" fill="black"/>
<path fill-rule="evenodd" clip-rule="evenodd" d="M209.169 14.1421C210.893 14.1421 214.921 14.7161 216.99 17.7286V14.7302H224.927V41.7522L216.99 41.7468V38.6799C215.264 41.286 211.236 42.2705 209.169 42.2705C202.326 42.2705 195.48 36.8902 195.48 28.205C195.48 19.5224 202.324 14.1421 209.169 14.1421ZM210.493 21.7771C207.157 21.7771 203.762 24.3314 203.762 28.2076C203.762 32.0816 207.157 34.6315 210.493 34.6315C213.77 34.6314 216.99 32.2582 216.99 28.205C216.99 24.152 213.77 21.7771 210.493 21.7771Z" fill="black"/>
<path fill-rule="evenodd" clip-rule="evenodd" d="M120.557 14.13C128.156 14.1302 134.536 19.6303 134.536 28.1432C134.536 36.6561 128.149 42.2059 120.557 42.2061C112.966 42.2061 106.633 36.6515 106.633 28.1432C106.633 19.6302 112.959 14.13 120.557 14.13ZM120.557 22.0094C119.754 21.9969 118.957 22.148 118.214 22.4525C117.472 22.7571 116.798 23.2095 116.236 23.7819C115.671 24.3571 115.228 25.0398 114.933 25.7893C114.637 26.539 114.496 27.3407 114.517 28.1459C114.519 31.9097 117.28 34.3387 120.557 34.3387C123.89 34.3386 126.654 31.9047 126.654 28.1459C126.654 24.4993 123.892 22.0096 120.557 22.0094Z" fill="black"/>
<path d="M250.638 38.8223C250.855 38.8248 251.07 38.8701 251.27 38.9552C251.47 39.0404 251.651 39.1643 251.803 39.3191C251.954 39.474 252.074 39.6578 252.155 39.8589C252.236 40.06 252.276 40.276 252.273 40.4927C252.252 40.9121 252.071 41.3082 251.768 41.5991C251.464 41.89 251.059 42.054 250.638 42.0583C250.217 42.0539 249.813 41.8899 249.509 41.5991C249.206 41.3082 249.025 40.9121 249.004 40.4927C249.001 40.276 249.041 40.06 249.122 39.8589C249.203 39.6579 249.323 39.474 249.474 39.3191C249.626 39.1643 249.808 39.0404 250.007 38.9552C250.207 38.8702 250.421 38.8248 250.638 38.8223Z" fill="black"/>
<path d="M94.3139 14.1327C100.689 14.1329 104.666 18.2414 104.666 26.4003V41.7468H96.7309V27.3322C96.7307 23.8054 94.6586 21.9518 92.3018 21.9517C89.7722 21.9517 87.7006 23.5187 87.7006 27.4476V41.7455H79.706V27.1576C79.6459 23.7431 77.5787 21.9503 75.2769 21.9503C72.8626 21.9505 70.6179 23.3397 70.6179 27.4476V41.7455H62.6273V14.7235H70.626V18.6444C71.2427 17.3082 72.232 16.1772 73.476 15.3868C74.7201 14.5964 76.1663 14.1803 77.6414 14.1877C81.8903 14.1877 84.7653 15.809 86.2615 18.9344C88.8511 14.7066 92.4197 14.1327 94.3139 14.1327Z" fill="black"/>
<path d="M152.544 14.1381C158.583 14.1383 162.381 17.9014 162.381 25.5959V41.7428H154.386V27.3308C154.386 23.7441 152.431 21.9506 149.729 21.9503C146.911 21.9503 144.782 23.3394 144.782 27.4476V41.7428H136.79V14.7208H144.779V18.6525C146.218 15.9312 149.381 14.1381 152.544 14.1381Z" fill="black"/>
</svg>
