<svg width="168" height="45" viewBox="0 0 168 45" fill="none" xmlns="http://www.w3.org/2000/svg">
<path d="M129.473 40.8321C131.82 41.0128 134.164 41.2053 136.505 41.4142V0.00352122H129.473V40.8321ZM16.3422 25.4678L7.18351 0.00352122H0.5V45C2.8394 44.6655 5.18349 44.3462 7.53226 44.0399V19.5709L15.6763 43.0352C18.238 42.737 20.8033 42.4553 23.3744 42.1901V0.00352122H16.3422V25.4678ZM30.1375 41.5339C36.6186 40.9436 43.1312 40.4565 49.672 40.0785V33.1276C45.4929 33.3694 41.3255 33.657 37.1698 33.9845V23.4631C39.8965 23.4361 43.4858 23.3527 46.6667 23.3915V16.4417C44.126 16.4359 40.0417 16.477 37.1698 16.5145V7.01661H49.672V0.00469496H30.1375V41.5339ZM54.1799 7.01544H61.5398V39.5139C63.8804 39.4259 66.2245 39.352 68.5721 39.2909V7.01544H75.932V0.00352122H54.1799V7.01544ZM80.4412 39.1008H87.4734V23.0534H97.0066V16.1037H87.4734V7.01661H100.073V0.00469496H80.4412V39.102V39.1008ZM167.5 0.00352122H159.776L154.684 11.8407L150.108 0.00352122H142.5L150.676 21.1555L141.75 41.906C144.219 42.1478 146.683 42.4049 149.142 42.6772L154.333 30.6123L159.474 43.9119C162.152 44.257 164.824 44.6174 167.489 44.9988L167.5 44.9941L158.339 21.2975L167.5 0.00352122ZM111.613 0H104.581V39.4459C110.972 39.6665 117.336 39.9893 123.674 40.4142V33.4645C119.665 33.1957 115.643 32.9692 111.613 32.7802V0Z" fill="black"/>
</svg>
