<svg width="222" height="80" viewBox="0 0 222 80" fill="none" xmlns="http://www.w3.org/2000/svg">
<path d="M107.411 21.4797V35.3834H110.111V29.5722H114.803V35.3834H117.503V21.4797H114.803V27.1617H110.111V21.4797H107.411Z" fill="black"/>
<path d="M105.397 31.1004H102.654C102.376 32.2195 101.69 33.0804 100.319 33.0804C99.5904 33.0804 98.9904 32.8006 98.5833 32.3487C98.0691 31.7676 97.8977 31.1004 97.8977 28.4315C97.8977 25.7627 98.0477 25.0955 98.5833 24.5144C98.969 24.0624 99.569 23.7826 100.319 23.7826C101.669 23.7826 102.376 24.6435 102.654 25.7627H105.397C104.904 22.8571 102.89 21.3721 100.297 21.3721C98.7762 21.3721 97.5334 21.9101 96.5693 22.9002C95.1765 24.2992 95.2194 26.0425 95.2194 28.4531C95.2194 30.8636 95.1765 32.5854 96.5693 34.0059C97.5334 34.9744 98.7976 35.534 100.297 35.534C102.869 35.534 104.904 34.049 105.397 31.1434V31.1004Z" fill="black"/>
<path d="M75.207 8.45844L80.6922 16.9814H83.092V3.09927H80.3922V11.6008L74.9071 3.09927H72.5073V16.9814H75.207V8.45844Z" fill="black"/>
<path d="M101.433 8.45844L106.897 16.9814H109.318V3.09927H106.618V11.6008L101.133 3.09927H98.7333V16.9814H101.433V8.45844Z" fill="black"/>
<path d="M93.3767 14.5278L94.1909 16.9814H96.9978L91.9411 3.07775H89.8199L84.7847 16.9814H87.5916L88.4272 14.5278H93.3767ZM90.9769 7.18859L92.6696 12.2464H89.22L90.9769 7.18859Z" fill="black"/>
<path d="M93.3339 32.9728H86.9273V29.5938H92.3911V27.1617H86.9273V23.9118H93.3339V21.4797H84.2276V35.3834H93.3339V32.9728Z" fill="black"/>
<path d="M102.012 39.8816H99.3118V53.7853H102.012V39.8816Z" fill="black"/>
<path d="M193.417 23.7826C194.767 23.7826 195.474 24.6435 195.753 25.7627H198.495C198.002 22.8571 195.988 21.3721 193.396 21.3721C191.874 21.3721 190.632 21.9101 189.667 22.9002C188.275 24.2992 188.318 26.0425 188.318 28.4531C188.318 30.8636 188.275 32.5854 189.667 34.0059C190.632 34.9744 191.874 35.534 193.396 35.534C195.967 35.534 198.002 34.049 198.495 31.1434H195.753C195.474 32.2626 194.788 33.1235 193.417 33.1235C192.689 33.1235 192.089 32.8437 191.682 32.3917C191.146 31.8106 190.996 31.1434 190.996 28.4746C190.996 25.8058 191.146 25.1386 191.682 24.5574C192.067 24.1055 192.667 23.8257 193.417 23.8257V23.7826Z" fill="black"/>
<path d="M93.3767 48.4046L87.8915 39.8816H85.4918V53.7853H88.1915V45.2623L93.6767 53.7853H96.0764V39.8816H93.3767V48.4046Z" fill="black"/>
<path d="M115.146 16.9814H117.824V11.2994L121.981 3.09927H119.046L116.496 8.69518L113.925 3.09927H110.989L115.146 11.2994V16.9814Z" fill="black"/>
<path d="M110.261 53.7853L114.867 39.8816H112.039L109.254 48.9427L106.49 39.8816H103.683L108.247 53.7853H110.261Z" fill="black"/>
<path d="M128.28 53.7853H130.98V48.2324H132.93L135.63 53.7853H138.758L135.673 47.7805C137.001 47.2854 138.201 46.0802 138.201 44.1216C138.201 41.7971 136.53 39.8601 133.701 39.8601H128.28V53.7853ZM130.98 42.3137H133.53C134.708 42.3137 135.501 43.067 135.501 44.1431C135.501 45.2193 134.73 45.9726 133.53 45.9726H130.98V42.2922V42.3137Z" fill="black"/>
<path d="M137.987 8.45844L143.472 16.9814H145.872V3.09927H143.172V11.6008L137.687 3.09927H135.287V16.9814H137.987V8.45844Z" fill="black"/>
<path d="M156.949 28.4315C156.949 30.8421 156.906 32.5639 158.299 33.9844C159.263 34.9529 160.485 35.5125 162.049 35.5125C163.613 35.5125 164.813 34.9744 165.777 33.9844C167.17 32.5854 167.148 30.8421 167.148 28.4315C167.148 26.021 167.148 24.2992 165.777 22.8787C164.791 21.9101 163.613 21.3506 162.049 21.3506C160.485 21.3506 159.263 21.8886 158.299 22.8787C156.906 24.2776 156.949 26.021 156.949 28.4315ZM160.313 24.5359C160.699 24.0839 161.32 23.8041 162.07 23.8041C162.82 23.8041 163.399 24.1055 163.806 24.5359C164.32 25.117 164.491 25.7627 164.491 28.4315C164.491 31.1004 164.341 31.746 163.806 32.3271C163.42 32.7791 162.82 33.0589 162.07 33.0589C161.32 33.0589 160.699 32.7576 160.313 32.3271C159.777 31.746 159.649 31.1004 159.649 28.4315C159.649 25.7627 159.777 25.117 160.313 24.5359Z" fill="black"/>
<path d="M215.722 32.9728V21.4797H213.022V35.3834H222V32.9728H215.722Z" fill="black"/>
<path d="M163.698 53.7853V42.3137H167.32V39.8816H157.378V42.3137H160.999V53.7853H163.698Z" fill="black"/>
<path d="M149.986 15.5825C150.95 16.551 152.214 17.1106 153.714 17.1106C155.214 17.1106 156.521 16.6801 157.613 15.5394C158.599 14.5278 158.942 13.3226 158.942 11.2994V9.2763H153.714V11.5362H156.263V12.0743C156.263 12.806 156.092 13.4302 155.642 13.9252C155.192 14.4202 154.528 14.7 153.714 14.7C152.985 14.7 152.364 14.4202 151.978 13.9683C151.443 13.3871 151.314 12.7199 151.314 10.0511C151.314 7.3823 151.443 6.73662 151.978 6.1555C152.364 5.70352 152.964 5.42373 153.714 5.42373C155.085 5.42373 155.899 6.1555 156.199 7.44687H158.92C158.556 5.10089 156.928 2.99166 153.714 2.99166C152.15 2.99166 150.95 3.52973 149.986 4.51977C148.593 5.91875 148.636 7.66209 148.636 10.0726C148.636 12.4832 148.593 14.205 149.986 15.6255V15.5825Z" fill="black"/>
<path d="M144.843 51.4824C143.558 51.4824 142.379 51.1811 141.501 50.3202L139.744 52.085C141.094 53.4625 142.701 53.9144 144.8 53.9144C147.693 53.9144 149.921 52.3863 149.921 49.696C149.921 48.4692 149.6 47.4576 148.85 46.7474C148.271 46.2093 147.479 45.8434 146.214 45.6712L144.586 45.4345C144.029 45.3484 143.579 45.1332 143.3 44.8964C143 44.6166 142.893 44.2507 142.893 43.9064C142.893 42.9594 143.6 42.1415 145.036 42.1415C145.957 42.1415 147.007 42.2491 147.864 43.0885L149.578 41.3882C148.4 40.226 147.007 39.774 145.122 39.774C142.122 39.774 140.301 41.5174 140.301 43.9925C140.301 45.1547 140.622 46.0587 141.286 46.7259C141.908 47.3285 142.786 47.6944 143.965 47.8881L145.636 48.1248C146.279 48.2324 146.6 48.3616 146.857 48.6199C147.157 48.8997 147.286 49.3086 147.286 49.7821C147.286 50.9013 146.429 51.5039 144.843 51.5039V51.4824Z" fill="black"/>
<path d="M155.728 32.9728H149.45V21.4797H146.75V35.3834H155.728V32.9728Z" fill="black"/>
<path d="M155.192 39.8816H152.492V53.7853H155.192V39.8816Z" fill="black"/>
<path d="M125.645 42.3137V39.8816H116.517V53.7853H125.645V51.3532H119.238V47.9957H124.702V45.5636H119.238V42.3137H125.645Z" fill="black"/>
<path d="M135.437 33.9844C136.401 34.9529 137.622 35.5125 139.187 35.5125C140.751 35.5125 141.951 34.9744 142.915 33.9844C144.307 32.5854 144.286 30.8421 144.286 28.4315C144.286 26.021 144.286 24.2992 142.915 22.8787C141.951 21.9101 140.751 21.3506 139.187 21.3506C137.622 21.3506 136.401 21.8886 135.437 22.8787C134.044 24.2776 134.087 26.021 134.087 28.4315C134.087 30.8421 134.044 32.5639 135.437 33.9844ZM137.451 24.5359C137.837 24.0839 138.458 23.8041 139.187 23.8041C139.915 23.8041 140.536 24.1055 140.922 24.5359C141.436 25.117 141.608 25.7627 141.608 28.4315C141.608 31.1004 141.458 31.746 140.922 32.3271C140.536 32.7791 139.936 33.0589 139.187 33.0589C138.437 33.0589 137.837 32.7576 137.451 32.3271C136.915 31.746 136.787 31.1004 136.787 28.4315C136.787 25.7627 136.915 25.117 137.451 24.5359Z" fill="black"/>
<path d="M131.323 35.3834V21.4797H128.623V30.0027L123.138 21.4797H120.717V35.3834H123.438V26.8604L128.902 35.3834H131.323Z" fill="black"/>
<path d="M170.212 33.9844C171.198 34.9529 172.441 35.5125 173.94 35.5125C175.44 35.5125 176.726 35.0821 177.84 33.9414C178.804 32.9298 179.168 31.7245 179.168 29.7014V27.6782H173.94V29.9381H176.49V30.4547C176.49 31.1864 176.319 31.8106 175.869 32.3056C175.419 32.8006 174.755 33.0804 173.94 33.0804C173.19 33.0804 172.59 32.8006 172.205 32.3487C171.669 31.7676 171.541 31.1004 171.541 28.4315C171.541 25.7627 171.669 25.117 172.205 24.5359C172.59 24.0839 173.19 23.8041 173.94 23.8041C175.312 23.8041 176.126 24.5359 176.426 25.8273H179.147C178.783 23.4813 177.154 21.3721 173.94 21.3721C172.376 21.3721 171.176 21.9101 170.212 22.9002C168.819 24.2992 168.862 26.0425 168.862 28.4531C168.862 30.8636 168.819 32.5854 170.212 34.0059V33.9844Z" fill="black"/>
<path d="M204.13 21.4797L199.095 35.3834H201.902L202.738 32.9298H207.644L208.458 35.3834H211.265L206.209 21.4797H204.087H204.13ZM203.509 30.6484L205.266 25.5905L206.959 30.6484H203.509Z" fill="black"/>
<path d="M124.188 16.9814L125.024 14.5278H129.93L130.745 16.9814H133.573L128.516 3.07775H126.395L121.36 16.9814H124.188ZM127.531 7.18859L129.223 12.2464H125.774L127.531 7.18859Z" fill="black"/>
<path d="M123.545 65.2569L119.41 76.6425H121.724L122.41 74.6193H126.438L127.102 76.6425H129.416L125.281 65.2569H123.545ZM123.031 72.7684L124.467 68.636L125.859 72.7684H123.031Z" fill="black"/>
<path d="M18.1697 42.4644C18.1697 42.4644 18.2125 42.5074 18.2554 42.5289C18.2554 42.5289 18.2554 42.5289 18.2768 42.5289C18.2768 42.5289 18.3197 42.5289 18.3197 42.5504H18.3625C18.4482 42.5935 18.8982 42.6365 18.8982 42.6365C19.3696 43.3037 19.7981 42.9379 19.8838 42.8518C19.9695 42.7657 20.2695 42.572 20.548 42.5504C20.8266 42.5289 21.1051 42.4213 21.1694 42.2491C21.1694 42.2491 21.1694 42.2061 21.1694 42.1846C21.1694 42.1846 21.1694 42.1415 21.1694 42.12C21.1694 41.8187 20.9765 41.216 20.8908 40.8501C20.7623 40.3982 20.998 40.1399 20.998 40.1399C21.2551 40.3766 21.4694 40.3982 21.8336 40.3121C22.1764 40.226 22.305 39.7094 22.305 39.7094C22.4764 39.5803 22.7764 39.7955 22.7764 39.7955L22.9906 39.6664C22.9906 39.6664 22.2836 39.2144 22.0693 39.1929C21.855 39.1714 21.1051 39.5803 20.998 39.6449C20.9765 39.6449 20.9337 39.6879 20.8908 39.7094C20.7623 39.8171 20.5909 40.0323 20.5909 40.4197C20.5909 40.9147 20.7623 41.3452 20.9123 41.9048C20.9337 42.0339 20.9337 42.12 20.9123 42.1846H20.848C20.2695 41.668 18.1482 41.8402 18.1482 41.8402H18.1054C18.2125 41.4743 18.4911 41.0439 18.6839 40.7425C18.791 40.5704 18.8767 40.4412 18.8982 40.4197C18.8982 40.3551 18.7696 40.226 18.8125 40.1399C18.8125 40.1399 18.8125 40.1184 18.8339 40.0969C18.941 40.0108 18.9839 39.7955 18.9839 39.7955C18.9839 39.7525 18.941 39.731 18.9196 39.6879C18.7482 39.4512 18.3839 39.2144 18.1054 39.0853C18.0625 39.0853 18.0411 39.0638 18.0197 39.0422C17.934 38.9992 17.8697 38.9777 17.8054 38.9777C17.5269 38.9131 16.9269 39.2575 16.9269 39.2575L17.2055 39.3651L17.4626 39.2575C17.4197 39.731 17.6769 40.1184 18.0625 40.1614C18.4482 40.2045 18.7053 39.8386 18.7053 39.8386C18.7053 39.8386 18.7268 39.8386 18.6625 39.9892C18.5768 40.1184 18.6625 40.3766 18.6625 40.3766C18.6625 40.3766 17.9126 41.5604 17.8483 41.9263C17.8483 42.0124 17.8483 42.0985 17.8911 42.1846C17.8911 42.1846 17.934 42.2491 17.9554 42.2922C17.9554 42.2922 17.9554 42.3137 17.9768 42.3352C17.9768 42.3567 18.0197 42.3783 18.0411 42.3998C18.0411 42.3998 18.0411 42.3998 18.0625 42.4213C18.084 42.4428 18.1054 42.4644 18.1482 42.4859L18.1697 42.4644ZM21.2765 39.774C21.2765 39.774 21.4265 39.9031 21.4694 39.9462C21.5336 39.9677 21.5979 39.9892 21.6408 39.9892C21.7908 39.9247 21.8336 39.731 21.7908 39.5803C21.7908 39.5803 21.9407 39.5157 22.0264 39.5803C22.0264 39.5803 22.0907 39.9247 21.8336 40.0753C21.6622 40.1829 21.4694 40.2045 21.3194 40.1184C21.3194 40.1184 21.2979 40.1184 21.2765 40.0753C21.2337 40.0323 21.1694 39.9892 21.148 39.9032L21.2765 39.774ZM17.934 39.9247C17.7626 39.8601 17.6983 39.7094 17.6983 39.5588V39.4727C17.6983 39.4727 17.6983 39.4296 17.6983 39.3866C17.6983 39.322 17.6983 39.279 17.7197 39.2575L17.9768 39.3436C17.9768 39.3436 17.934 39.4296 17.9126 39.4942V39.5373C17.9126 39.6018 17.9554 39.6664 18.0411 39.731C18.2768 39.8816 18.3411 39.5373 18.3411 39.5373C18.3411 39.5373 18.5125 39.6234 18.5339 39.7094C18.5339 39.7094 18.3197 40.0753 17.9554 39.9032L17.934 39.9247Z" fill="black"/>
<path d="M17.6983 44.8103C17.7626 45.7573 18.0197 46.5752 18.0197 46.5752C18.0197 46.5752 18.1054 47.5007 18.7053 47.2209C18.8125 47.1778 18.8768 47.1348 18.941 47.0917C19.3053 46.9196 19.3696 46.898 19.8838 47.2424C20.4837 47.6298 20.5909 47.3715 20.5909 47.3715C21.4908 45.7358 21.4051 44.466 21.4051 44.466C21.4051 44.466 20.4623 43.6696 19.6695 43.3468C18.8768 43.0455 17.5697 44.1216 17.5697 44.1216C17.5269 44.3799 17.7197 44.7888 17.7197 44.7888L17.6983 44.8103ZM20.0124 47.0272L20.2052 46.1447C20.2052 46.1447 20.4195 46.6613 20.4837 47.0272C20.548 47.3931 20.0124 47.0272 20.0124 47.0272ZM20.5052 44.0786C20.5052 44.0786 20.5909 43.9709 20.9337 44.3799C20.9337 44.3799 20.6766 44.8534 20.2695 44.8534C20.2695 44.8534 20.5052 44.4014 20.5052 44.0786ZM19.4767 45.2623C19.4767 45.2623 19.5838 44.961 20.0124 45.1762C20.4409 45.3914 20.4409 46.2739 20.4409 46.2739C20.4409 46.2739 20.398 46.1447 20.2909 46.0156C20.2052 45.8865 19.9695 45.908 19.9695 46.1232C19.9695 46.3384 19.8195 46.8119 19.8195 46.8119C19.5195 46.5106 18.9625 46.7043 18.9625 46.7043C18.9625 46.7043 18.8767 46.6828 18.8125 46.2524C18.7268 45.8219 18.6411 45.7358 18.6411 45.7358C18.9625 44.9179 19.4767 45.2838 19.4767 45.2838V45.2623ZM18.5339 46.1017C18.5339 46.1017 18.5768 46.0156 18.5982 45.9726C18.5982 46.1232 18.6411 46.2524 18.6625 46.403C18.6839 46.5322 18.7053 46.7474 18.8125 46.855C18.8125 46.855 18.5554 47.0272 18.5125 47.0272C18.4482 47.0272 18.3625 47.0702 18.3197 47.0272C18.234 46.9196 18.3197 46.7259 18.3625 46.6182C18.4054 46.5106 18.4268 46.403 18.4696 46.2954C18.4696 46.2308 18.5125 46.1878 18.5339 46.1447V46.1017ZM18.4482 43.7772C18.4482 43.7772 18.3411 44.5305 18.4482 44.7673C18.4482 44.7673 18.3197 44.961 17.8697 44.2077C17.8697 44.2077 18.084 43.8418 18.4482 43.7772Z" fill="black"/>
<path d="M21.0623 43.1961C21.4479 43.1961 21.8122 43.1961 22.1764 43.1961C22.6478 43.2177 23.0763 43.2607 23.5049 43.3253V43.1961C23.0121 43.1531 22.5407 43.1316 22.1764 43.11C21.5122 43.11 21.0837 43.1531 21.0837 43.1531L21.0623 43.1961Z" fill="black"/>
<path d="M18.1054 42.6365C18.1054 42.6365 17.8483 42.4428 17.3555 42.2061C16.9269 41.9909 16.3056 41.7111 15.5556 41.5174L15.5128 41.6465C16.0485 41.7971 16.627 41.9909 17.2483 42.2491C17.5269 42.3567 17.8054 42.4859 18.084 42.6365H18.1054Z" fill="black"/>
<path d="M15.7699 42.6796L15.8556 42.5074C15.7271 42.5074 15.5771 42.5074 15.4271 42.5074V42.6796C15.5556 42.6796 15.6628 42.6796 15.7699 42.6796Z" fill="black"/>
<path d="M30.7899 5.98332C27.8759 5.98332 25.4975 8.35082 25.4975 11.2779C25.4975 14.205 27.8759 16.5725 30.7899 16.5725C33.7039 16.5725 36.0822 14.205 36.0822 11.2779C36.0822 8.35082 33.7039 5.98332 30.7899 5.98332ZM33.3182 6.95184L32.6754 7.98493C32.4183 7.83428 32.1183 7.70514 31.8184 7.61905L32.1183 6.4353C32.5469 6.54291 32.954 6.71509 33.3182 6.93032V6.95184ZM32.6326 11.2133C32.6326 12.2464 31.7969 13.0858 30.7685 13.0858C29.74 13.0858 28.9044 12.2464 28.9044 11.2133C28.9044 10.1803 29.74 9.34087 30.7685 9.34087C31.7969 9.34087 32.6326 10.1803 32.6326 11.2133ZM30.7899 6.26312C31.1541 6.26312 31.497 6.30616 31.8398 6.37073L31.5398 7.55448C31.3898 7.53296 31.1113 7.46839 30.7685 7.46839C30.6828 7.46839 30.6185 7.46839 30.5542 7.46839L30.4256 6.24159C30.5328 6.24159 30.6613 6.24159 30.7899 6.24159V6.26312ZM28.9686 6.60748C29.3543 6.45682 29.7614 6.34921 30.1685 6.30616L30.2971 7.53296C29.9328 7.576 29.6114 7.68362 29.3115 7.83428L29.0758 7.3823L28.7544 6.73662C28.7544 6.73662 28.8829 6.67205 28.9686 6.629V6.60748ZM28.1116 7.03793C28.1116 7.03793 28.1544 7.03793 28.1759 7.01641C28.283 6.95184 28.3901 6.88728 28.5187 6.82271L28.8401 7.46839L29.0758 7.96341C28.9258 8.0495 28.7758 8.15712 28.6258 8.24321C28.5187 8.30778 28.4115 8.39387 28.3258 8.47996L27.3402 7.70514C27.4688 7.55448 27.7473 7.29621 28.1116 7.05946V7.03793ZM26.6546 8.43691C26.7831 8.24321 26.9331 8.07103 27.1045 7.89884L28.1116 8.69518C28.1116 8.69518 28.0687 8.73823 28.0473 8.75975C27.833 8.9965 27.6616 9.25478 27.5116 9.51305L26.3546 8.93194C26.4403 8.73823 26.5474 8.56605 26.6331 8.43691H26.6546ZM26.2689 9.19021L27.4045 9.77132C27.2545 10.1372 27.1688 10.4385 27.126 10.6107L25.9046 10.3955C25.9903 9.92198 26.1403 9.51305 26.2903 9.16868L26.2689 9.19021ZM25.7761 11.2564C25.7761 11.0627 25.7761 10.869 25.8189 10.6753L27.126 10.8905C27.126 10.9981 27.126 11.1057 27.126 11.2133C27.126 11.3855 27.126 11.5577 27.1688 11.7299L25.8618 11.9666C25.8189 11.7299 25.7975 11.4931 25.7975 11.2564H25.7761ZM30.7899 16.2712C28.3687 16.2712 26.3332 14.5494 25.8832 12.268L27.1902 12.0312C27.5545 13.71 29.0543 15.0013 30.8327 15.0013C32.8897 15.0013 34.5609 13.3226 34.5609 11.2564C34.5609 9.96503 33.9182 8.82432 32.9111 8.15712L33.5539 7.12402C34.9038 8.02798 35.8037 9.55609 35.8037 11.2994C35.8037 14.0543 33.5539 16.3142 30.7899 16.3142V16.2712Z" fill="black"/>
<path d="M17.8269 42.8518C17.8269 42.8518 17.4626 42.6581 16.777 42.5504C16.5413 42.5074 16.2627 42.4859 15.9627 42.4859V42.6581C16.1984 42.6581 16.4556 42.6581 16.6912 42.6796C17.0555 42.7011 17.4412 42.7441 17.8269 42.8302V42.8518Z" fill="black"/>
<path d="M15.9627 52.7737C15.9627 52.7737 16.477 52.5155 17.0126 52.2357C17.3126 52.8383 17.6769 53.2257 18.1268 53.6992L18.3197 53.8929C18.5554 54.1297 18.7053 54.3879 18.8125 54.6677C18.8767 54.8184 18.8768 54.9475 18.8768 55.1197C18.8768 55.2058 18.8768 55.3134 18.8768 55.421V55.4641C18.791 56.6048 18.6411 58.0253 18.5339 58.9077C18.4268 59.8117 17.7197 61.8133 17.7197 61.8348C17.5912 62.1577 17.2269 63.0616 16.9055 63.3629C16.5841 63.6858 15.9842 63.944 15.4485 64.1808C15.3414 64.2238 15.2128 64.2884 15.1271 64.3315C14.4629 64.6328 14.2272 64.9341 14.1843 65.5152C14.1843 65.5152 14.1843 65.5367 14.1843 65.5582C13.9487 66.2685 14.2058 66.5913 14.2486 66.6344L14.3986 66.8066L14.4843 66.5913C14.5272 66.4622 14.6986 66.3115 14.8914 66.2039C14.9557 66.2254 15.0414 66.247 15.0843 66.29C14.9771 66.5483 14.9343 66.9357 15.17 67.3446L15.32 67.6029L15.4271 67.3231C15.4271 67.3231 15.5556 67.0003 15.8342 66.8711C15.9842 67.0218 16.1984 67.0648 16.327 67.0864H16.3913C16.3913 67.2585 16.4556 67.4092 16.5627 67.6029L16.7127 67.8612L16.8198 67.5814C16.8198 67.5814 16.9269 67.3231 17.1412 67.1725C17.1412 67.1725 17.1626 67.1725 17.1841 67.1725C17.334 67.194 17.4626 67.2155 17.5912 67.2155C17.7197 67.2155 17.8269 67.194 17.9126 67.1725C17.9126 67.3231 17.9554 67.4522 18.0197 67.5599C18.1268 67.7105 18.2768 67.732 18.2768 67.7536H18.4054L18.4482 67.646C18.4911 67.4738 18.6196 67.3231 18.7268 67.1725C18.7696 67.1725 18.8339 67.1725 18.8768 67.1725C19.391 67.1725 19.4981 67.1079 19.7767 66.9142H19.8195C19.8195 66.9142 19.9481 66.8281 20.0338 66.8066C20.2695 66.7635 20.6337 66.6774 20.7194 66.0748C20.8051 65.5583 20.9337 65.3215 20.9551 65.2785C21.3622 64.9126 21.5979 64.8265 21.7265 64.8265C21.7908 64.8265 21.855 64.848 21.8979 64.9126C22.0907 65.1063 22.1336 65.6013 22.1336 65.752V66.4622L22.5193 65.8596C23.0978 64.9771 22.8621 63.7503 22.7764 63.4705C22.7764 63.4705 22.7764 63.4705 22.7978 63.4705C22.8835 63.4705 23.0763 63.5782 23.1835 63.8364C23.4192 64.4175 23.912 64.891 23.9334 64.9126L24.3405 65.3L24.2762 64.7404C24.2762 64.7404 24.2334 64.2669 24.3191 63.1692C24.3619 62.6096 24.3191 62.1577 24.2334 61.8348C24.2548 61.8994 24.2977 61.9639 24.3191 62.05C24.5119 62.8249 25.0262 63.1262 25.0476 63.1477L25.369 63.3199V62.6957C25.369 62.5235 25.369 62.3514 25.369 62.2007C25.369 61.9855 25.4118 61.7918 25.4547 61.5765C25.4547 61.4474 25.4975 61.3183 25.519 61.1676C25.5618 60.8663 25.519 60.5434 25.4761 60.2421C25.4333 60.0269 25.369 59.8332 25.2833 59.5749C25.2833 59.5749 25.2833 59.5319 25.2618 59.5104C25.3476 59.5749 25.4975 59.7041 25.6475 59.8978C26.0761 60.3928 26.5046 60.4574 26.7189 60.4574C26.826 60.4574 26.8903 60.4574 26.9117 60.4574L27.2545 60.3713L26.9974 60.113C26.6117 59.7256 26.4189 59.1875 26.3546 58.3912C26.2903 57.6809 25.7761 57.0137 25.519 56.7124C26.3117 55.7654 26.3332 55.5287 26.2903 55.378L26.1189 54.6893C26.3546 54.7969 26.676 54.883 27.0617 54.9906C27.7259 55.1628 27.8545 56.0022 27.8545 56.0237L27.9616 56.9061L28.2616 56.0667C28.4758 55.4426 28.4544 54.8184 28.3901 54.3664C28.6472 54.5171 29.0115 54.6677 29.4829 54.7323C30.4685 54.8615 31.1327 55.0767 31.1541 55.0767L31.7969 55.2919L30.5756 53.6347C30.8542 53.7207 31.1756 53.7853 31.497 53.8068C31.9041 53.8284 32.204 53.8068 32.3969 53.7638C32.3969 53.8714 32.3969 54.0005 32.4397 54.1082C32.6111 54.8184 33.0611 55.3995 33.4896 55.9591L33.6182 56.1313C34.0253 56.6478 34.5181 57.3366 34.8824 58.0468C35.268 58.8432 35.2252 59.4027 34.7109 59.8547C33.661 60.8017 30.8327 62.007 30.8113 62.007C30.747 62.0285 29.3329 62.5235 29.4186 63.4705C28.8615 64.0517 29.0329 64.5897 29.0329 64.6113L29.1186 64.848L29.29 64.6543C29.4186 64.5036 29.6329 64.396 29.8257 64.353C29.89 64.4175 29.9543 64.4391 30.04 64.4606C29.9757 64.6758 29.9543 64.9126 30.1257 65.1493L30.2542 65.343L30.3614 65.1278C30.3614 65.1278 30.5542 64.7619 30.8542 64.7619C30.9184 64.7619 30.9613 64.7619 31.0256 64.805H31.0899C31.0899 64.9771 31.0899 65.1493 31.1327 65.3861L31.197 65.6013L31.3684 65.4506C31.3684 65.4506 31.6255 65.2139 31.9469 65.0417H31.9898C31.9898 65.0417 32.1826 65.1278 32.3754 65.1278C32.4612 65.1278 32.5469 65.1278 32.6326 65.1063C32.6326 65.2785 32.6754 65.4506 32.7826 65.6228L32.954 65.9026L33.0397 65.6013C33.0397 65.6013 33.1468 65.2569 33.4682 65.1278L33.5325 65.1708C33.5325 65.1708 33.7896 65.343 34.0681 65.343C34.2181 65.343 34.3467 65.3 34.4967 65.2569C35.0109 65.0202 35.418 64.4175 35.568 64.1808C35.6966 63.9871 35.8465 63.8364 35.8894 63.8364C35.8894 63.8364 35.8894 63.8364 35.9322 63.901C36.1037 64.2454 35.9965 64.7404 35.9965 64.7404L35.8894 65.2139L36.3179 64.9771C36.3179 64.9771 36.8322 64.6758 37.0678 64.1593C37.1964 64.4821 37.3035 64.891 37.1321 65.2785L36.7893 66.0748L37.4535 65.5367C37.4535 65.5367 38.4606 64.6973 38.7605 63.5997L39.1891 64.6973L39.4033 64.2238C39.4033 64.2238 39.8747 63.1477 40.0461 62.7818C40.239 62.3944 40.3247 61.2322 39.8962 60.6295L39.8533 60.565C39.9819 60.3928 40.1533 60.113 40.0676 59.7686C40.0247 59.618 39.8961 59.3812 39.6605 58.9938C39.2962 58.3912 38.782 57.4872 38.8034 56.9492C38.8034 56.9492 38.7177 55.83 39.2319 55.1412C39.7033 56.0237 40.5175 56.6694 41.6103 56.9492C42.9173 57.2935 43.8172 57.8316 44.2243 58.4557C44.6314 59.1014 45.1671 61.0815 45.0814 62.7388C45.0385 63.3844 44.7814 64.2454 43.6886 64.6973H43.6458C43.6458 64.6973 43.5815 64.7404 43.5172 64.7404C43.1744 64.8265 42.403 65.0632 42.4459 65.8165C41.8888 66.5052 42.1888 66.8711 42.1888 66.8927L42.3173 67.0648L42.4245 66.8711C42.5316 66.6774 42.8102 66.5698 43.0244 66.5268C43.0887 66.5268 43.153 66.5483 43.2387 66.5483C43.2815 66.5483 43.3244 66.5483 43.3458 66.5483C43.2173 67.0433 43.3672 67.2801 43.4101 67.3016L43.5601 67.4953L43.6458 67.2585C43.6886 67.1294 43.9029 67.0003 44.1172 66.8927C44.3314 66.9572 44.5457 66.9787 44.6957 66.9787C44.6314 67.2155 44.6528 67.3877 44.6957 67.5168C44.76 67.6029 44.8242 67.646 44.8885 67.646H44.9742L45.0171 67.5599C45.1242 67.3446 45.2742 67.2155 45.4242 67.1509C45.5742 67.1725 45.7242 67.194 45.8527 67.194C46.1098 67.194 46.2812 67.1509 46.4312 67.0648C46.4312 67.237 46.4955 67.3877 46.5812 67.4738C46.6884 67.6029 46.8169 67.6244 46.8383 67.6244H46.9669L46.9883 67.5168C46.9883 67.4522 47.0312 67.4092 47.0526 67.3446C47.0955 67.3446 47.1383 67.3446 47.1812 67.3446C47.2883 67.3446 47.4169 67.3446 47.5454 67.3231C48.7024 67.1509 48.7453 65.838 48.7882 65.2139C48.7882 65.1278 48.7882 65.0417 48.7882 64.9771C48.7882 64.7404 49.0667 64.4175 49.3024 64.1808C49.4524 64.353 49.6666 64.5252 49.9238 64.6543H49.9452C50.1166 64.7619 50.3094 64.8695 50.5237 64.891L50.9737 64.9341L50.7165 64.5682C50.5665 64.3315 50.5237 64.1377 50.5451 63.8149C50.6308 62.997 50.3523 62.4805 50.1166 62.1792C50.3094 62.2007 50.4594 62.2868 50.588 62.4374C51.0594 63.0186 51.4665 63.2553 51.4879 63.2553L51.9164 63.4921L51.8093 63.0186C51.8093 63.0186 51.7236 62.6312 51.7022 61.4044C51.7022 60.5004 51.1236 59.9839 50.6308 59.7471C50.738 59.7041 50.8451 59.661 50.9951 59.661C51.1879 59.661 51.3808 59.7256 51.595 59.8547C52.0021 60.113 52.3664 60.2421 52.6449 60.2421C52.9235 60.2421 53.0306 60.1345 53.0735 60.0915L53.3306 59.8117L52.9449 59.7471C52.6235 59.6825 52.4735 59.3812 52.2592 58.8862C52.0021 58.3051 51.7022 57.5518 50.738 57.5087C49.8595 57.4657 49.4524 57.315 49.3024 57.229C49.4524 56.9061 49.5809 56.368 49.4738 55.9591C49.3881 55.6793 49.2381 55.5502 49.1095 55.5071C49.0238 55.4641 48.8953 55.4641 48.8096 55.4426C48.7453 55.4426 48.7024 55.4426 48.6596 55.4426C48.2096 55.3349 47.7383 55.1197 47.1812 54.7969C45.917 54.0436 45.8527 53.1396 45.8313 51.1595C45.8313 50.0619 45.6599 49.201 45.5313 48.6629C46.1098 49.0288 46.6884 49.1149 47.1383 49.1149C47.6311 49.1149 47.9525 49.0073 47.9739 49.0073L48.7024 48.7705L47.9739 48.5983C47.6954 48.5338 47.5026 48.4046 47.3954 48.2109C47.374 48.1679 47.3526 48.1248 47.3311 48.0818C47.7597 48.4046 48.3382 48.5553 49.1095 48.5553C50.1594 48.5553 51.1665 48.2324 51.2093 48.2324L51.7879 48.0603L51.2308 47.845C50.5451 47.5652 50.0523 47.2209 49.7523 46.9841C51.7879 46.8119 53.0092 46.403 53.3734 46.2739C53.4377 46.3169 53.502 46.3384 53.5877 46.36C53.8234 46.4461 54.0591 46.5106 54.3162 46.5752C54.4447 46.6182 54.5947 46.6398 54.7233 46.6828C55.1732 46.7904 55.6232 46.898 55.9875 47.1563C56.0946 47.2424 56.1803 47.3285 56.266 47.4361C56.3303 47.5222 56.416 47.5868 56.4803 47.6513L56.8445 48.0387L56.9088 47.6298C56.9516 47.4146 56.9088 47.1778 56.9088 46.9626V46.8119C56.8659 46.5322 56.8231 46.2739 56.7588 46.0371C56.6517 45.6497 56.5017 45.3054 56.3089 45.0256C56.1803 44.8319 56.0089 44.6812 55.8375 44.5521C56.1803 44.1001 56.4588 43.5835 56.716 43.11C57.3373 41.9263 57.0802 40.721 56.7374 39.9032C56.6088 39.5588 56.3946 39.2144 56.0732 38.8055C54.8733 37.2559 53.0949 36.5026 50.6737 36.5026C48.6382 36.5026 46.5169 37.0406 44.8028 37.4496C44.1172 37.6217 43.4315 37.7939 42.7459 37.9876C40.9246 38.4826 39.0177 38.9777 37.1321 39.2359C36.4679 39.322 35.8894 39.3651 35.3537 39.3651C34.2181 39.3651 33.2968 39.1714 32.5254 38.7624C32.0112 38.5042 31.6255 38.1813 31.3684 37.7939C31.0256 37.2559 30.9399 36.7824 31.1113 36.3519C31.5398 35.3403 33.3611 34.6516 34.9466 34.3503C35.718 34.1996 36.5108 34.1135 37.2821 34.1135C38.5463 34.1135 39.7247 34.3288 40.8175 34.7162C41.2032 34.8453 41.5888 35.0175 41.9531 35.1897C42.9387 35.6201 43.9458 36.0721 45.0385 36.0721H45.1242C46.0241 36.0721 46.8812 35.7277 47.6954 35.4049C47.9097 35.3188 48.1239 35.2327 48.3382 35.1681C48.4668 35.1251 48.5739 35.0821 48.681 35.039C49.0024 34.9099 49.2167 34.8238 49.6452 34.7807C50.2023 34.7377 50.7594 34.7807 51.2308 34.8668L51.6379 34.9529L51.4879 34.5655C51.4879 34.5655 51.4236 34.4364 51.4022 34.3718C50.9308 33.5539 49.9023 33.2096 49.3238 33.0804C49.3024 33.0804 49.2595 33.0804 49.2381 33.0804C49.3881 32.9944 49.5381 32.9083 49.6666 32.8006C49.8809 32.65 50.0523 32.4563 50.2452 32.2841C50.3737 32.1334 50.5237 32.0043 50.6737 31.8967C51.0594 31.5739 51.4665 31.3586 51.895 31.2725C52.0021 31.251 52.1093 31.2295 52.2164 31.2295C52.2807 31.2295 52.3664 31.2295 52.4307 31.2295C55.0233 30.9066 55.4304 29.7444 55.4518 29.6798L55.6018 29.2279L55.1732 29.4216C55.1732 29.4216 54.5305 29.7014 53.6091 29.7014C53.052 29.7014 52.4949 29.5938 51.9807 29.4001C51.6379 29.2709 51.2736 29.1633 50.9094 29.1203C50.438 29.0557 49.9452 29.0772 49.4952 29.1633C49.0024 29.2709 48.6167 29.4216 48.1882 29.6153C47.9525 29.7229 47.674 29.8951 47.4383 30.0457C47.2883 30.1318 47.2026 30.2179 47.1169 30.2825C47.0526 30.3471 46.9883 30.3901 46.8812 30.4547C46.924 30.3686 46.9455 30.2825 46.9669 30.1964V30.1318C47.1597 29.5938 47.2669 29.0126 47.3097 28.367L47.3954 27.2047L46.924 28.2593C46.0884 30.0888 44.2457 30.2394 44.1815 30.2394C44.1815 30.2394 44.1386 30.2394 44.0743 30.2394C43.6029 30.2394 41.9959 30.3471 40.7104 31.6599C40.389 32.0043 40.0247 32.2841 39.6605 32.4778C39.2748 32.693 38.932 32.7361 38.5034 32.7791C38.0535 32.8222 37.5392 32.8437 36.9821 32.8652C33.961 32.9944 29.8257 33.1665 29.3543 36.5671C29.0972 38.3105 29.89 39.6018 31.8184 40.6564C32.9111 41.2591 34.1967 41.3452 35.2037 41.3667H35.2466C35.6966 41.3667 36.1251 41.2806 36.5322 41.173C36.9393 41.0869 37.325 41.0008 37.7106 41.0008H37.7749C37.9249 41.0008 38.032 41.0439 38.0749 41.0869C38.1392 41.173 37.9678 41.3667 37.7964 41.4958C37.325 41.8187 36.8322 42.0985 36.3179 42.3352L35.7823 42.572L36.3393 42.7442C37.2607 43.0239 38.332 42.8733 39.2105 42.3783C39.489 42.2061 39.7676 41.9909 40.0247 41.7971C40.2175 41.625 40.4104 41.4743 40.6246 41.3452C40.5818 41.5604 40.4961 41.8187 40.389 42.0554C40.2818 42.2922 39.8104 42.6581 39.4462 42.8518L38.8677 43.1531L39.5105 43.2392C39.5105 43.2392 39.7033 43.2392 39.789 43.2392C40.2818 43.2392 40.7532 43.0885 41.0103 43.0024H41.096C41.5031 42.8518 41.9102 42.6796 42.2745 42.4859C42.6602 42.2922 43.0244 42.0554 43.3672 41.7971C43.4315 41.7541 43.5172 41.6895 43.5815 41.6465C43.7315 41.5389 43.9029 41.4097 44.0529 41.2806C44.3743 41.9478 44.8242 42.3783 45.467 42.6365C46.1955 42.9379 47.0098 42.9594 47.7383 42.9809H48.381L47.8882 42.5935C47.3311 42.1415 46.8383 41.7326 46.6884 41.1515C46.5384 40.6349 46.7098 40.0108 47.1169 39.5373C47.4597 39.1283 47.9954 38.8055 48.6596 38.5903C50.0095 38.1598 51.595 38.2459 52.8806 38.8701C53.8877 39.3436 54.5947 40.0969 54.809 40.9362C55.0018 41.7326 54.7447 42.6796 54.1448 43.3898C53.4591 44.1862 52.5164 44.5521 51.8307 44.7242C51.1665 44.8964 50.4594 44.961 49.4738 44.961C49.3452 44.961 49.2167 44.961 49.0667 44.961C48.5953 44.961 48.0811 44.9395 47.5668 44.8964C46.1741 44.8103 44.6743 44.6382 42.8959 44.3799C42.2102 44.2723 41.4603 44.1646 40.5604 43.9925C40.4104 43.9709 40.2604 43.9494 40.089 43.9064C39.5319 43.7988 38.932 43.6911 38.3534 43.6911C38.2035 43.6911 38.032 43.6912 37.9035 43.7127C37.3464 43.7772 36.7465 43.9279 36.0394 44.2292C35.4609 44.466 34.7109 44.5736 33.7896 44.5736C32.8683 44.5736 32.0541 44.466 31.6469 44.4014L32.1398 44.0786L31.2398 44.1862C31.2398 44.1862 31.047 44.1862 30.9399 44.1862C28.8401 44.1862 28.283 41.2376 28.1759 40.3982C28.9472 40.2906 29.3115 39.8386 29.3115 39.8171L29.59 39.4296L29.1186 39.4727C28.0259 39.5803 27.2974 37.88 26.8903 36.4595C26.6331 35.5771 26.2903 35.0175 25.9689 34.6731L26.676 35.2973L26.2046 34.3503C25.5404 33.0159 24.7262 32.7146 24.1691 32.7146C23.912 32.7146 23.6977 32.7791 23.5263 32.8437C23.312 31.7891 22.3264 31.3156 21.7908 31.208L21.4265 31.1434L21.5551 31.5093C21.7908 32.1334 21.7265 32.4993 21.6193 32.7146C21.2337 32.0689 20.1623 31.5523 19.541 31.4878C19.2839 31.4662 19.0053 31.3586 18.6625 31.208C18.5125 31.1434 18.2768 31.0143 18.0625 30.6484L17.5055 29.7229L17.6769 30.7775C17.7626 31.3156 18.1054 32.0474 18.3839 32.3487C18.2982 32.3487 18.1911 32.3487 18.1054 32.3702C17.9768 32.3917 17.8483 32.4132 17.6983 32.4132C16.9912 32.4132 16.6055 31.9828 16.5841 31.9613L16.0699 31.3586L16.1984 32.1334C16.2627 32.4563 16.4341 32.7791 16.7555 33.102C16.8627 33.2311 17.0126 33.3387 17.1412 33.4463C17.0984 33.4463 17.0555 33.4463 17.0126 33.4463H16.9269C16.477 33.4463 16.0485 33.5539 15.6842 33.7476C15.4699 33.8553 15.2771 34.0059 15.1057 34.1781C15.0628 34.2211 15.02 34.2857 14.9986 34.3288L14.72 34.7162H15.1485C15.1485 34.7162 15.2985 34.7162 15.3842 34.7162C15.2557 34.7807 15.1485 34.8668 15.02 34.9744C15.02 34.9744 14.9343 35.0605 14.87 35.1466C14.8057 35.2112 14.6986 35.3403 14.6343 35.4049C14.2701 35.4049 13.9701 35.534 13.7344 35.8354C13.413 36.2228 13.2844 36.7178 13.3701 37.1267C13.3701 37.1267 13.4558 37.4065 13.563 37.6217C12.0203 38.7409 11.8917 39.9462 11.8703 40.0108L11.7632 41.0439L12.256 40.1399C12.3631 39.9247 12.5131 39.8171 12.6631 39.774C12.1703 41.1084 11.5275 41.2591 11.2489 41.2591C11.1418 41.2591 11.0775 41.2591 11.0775 41.2591L9.55622 40.7425L10.8847 41.6465C11.2489 41.8832 11.6774 42.0124 12.2131 42.0124C12.4274 42.0124 12.6416 41.9909 12.8345 41.9693C12.5774 42.4213 12.2988 43.1316 12.3417 44.2292C12.3417 44.3153 12.3417 44.3799 12.3417 44.466C11.8274 44.0786 11.3132 43.6481 10.8847 43.1316C9.85619 41.9048 9.6205 41.0654 9.49194 40.5704C9.47051 40.4843 9.44909 40.3982 9.42766 40.3336C9.32053 40.0323 9.40623 39.4512 9.44909 38.9777C9.44909 38.8055 9.49194 38.6548 9.49194 38.5042C9.53479 38.0522 9.34196 37.7724 9.23482 37.6863C9.12769 37.5572 8.97771 37.4926 8.84915 37.5141C8.84915 37.3635 8.78487 37.2128 8.67773 37.0837C8.4849 36.8254 8.18492 36.6747 7.75639 36.6532H7.435L7.64926 36.89C7.64926 36.89 7.92781 37.2559 7.97066 37.5572C7.90638 37.5572 7.8421 37.5572 7.79925 37.6002C7.79925 37.6002 7.75639 37.6217 7.73497 37.6433C7.60641 37.2559 7.26358 37.2128 7.15645 37.2128C7.15645 37.2128 7.15645 37.2128 7.13503 37.2128C7.00647 37.0406 6.72792 36.8469 6.19226 36.7178L5.76373 36.6317L6.04227 36.9545C6.04227 36.9545 6.23511 37.2128 6.32082 37.428C6.32082 37.428 6.29939 37.428 6.27797 37.428C6.14941 37.4711 6.04227 37.5787 5.99942 37.7078C5.91371 37.9231 5.97799 38.2029 6.0637 38.4826C6.02085 38.4396 5.99942 38.3966 5.97799 38.3535C5.84944 38.1813 5.67802 38.0952 5.46376 38.0952C5.31377 38.0952 5.16379 38.1383 5.07808 38.1813C4.90667 38.0522 4.67098 37.9231 4.43529 37.9231C4.26387 37.9231 4.11389 37.9876 3.98533 38.1168L3.85677 38.2459L4.00676 38.332C4.00676 38.332 4.2853 38.5472 4.41386 38.7409C4.34958 38.827 4.32815 38.9131 4.32815 39.0207C4.30673 39.3651 4.49957 39.731 4.84239 39.9677C5.03523 40.1184 5.18521 40.3121 5.29235 40.4627C5.14236 40.3982 4.97095 40.3121 4.82096 40.226L4.71383 40.1614L4.6067 40.226C4.6067 40.226 4.47814 40.2906 4.34958 40.4197C4.11389 40.3121 3.8782 40.0969 3.77106 39.9892L3.57823 39.774L3.53537 40.0538C3.44967 40.5919 3.66393 40.9578 3.92105 41.173C3.92105 41.2591 3.92105 41.3237 3.92105 41.4097C3.98533 42.0985 4.73526 42.2706 5.0138 42.3137C5.50661 42.9163 5.80658 43.0455 6.10655 43.1961C6.19226 43.2392 6.25654 43.2607 6.34225 43.3037C6.51366 43.3898 6.59936 43.4544 6.64222 43.4974L6.68507 43.5835C6.68507 43.5835 7.1136 44.3799 7.15645 44.9179C7.19931 45.413 6.68507 45.8434 5.99942 45.8865C5.07808 45.9726 4.84239 46.36 4.79954 46.403L4.67098 46.6398L4.9281 46.7259C4.9281 46.7259 5.61374 46.9411 6.40652 47.35C6.94219 47.6298 7.60641 47.7805 8.01351 47.845C7.71354 48.1679 7.17788 48.6414 6.57794 48.749C5.91371 48.8781 5.59232 49.1579 5.57089 49.1794L5.22807 49.4808L5.67802 49.5453C5.67802 49.5453 6.42795 49.6529 7.47785 50.3417C7.92781 50.6215 8.39919 50.7721 8.91343 50.7721C9.06341 50.7721 9.2134 50.7721 9.34196 50.7291C9.2134 50.9228 9.04198 51.138 8.82772 51.2456C8.29206 51.5469 7.82067 51.8052 7.82067 51.8052L7.19931 52.1496L9.06341 52.2787C9.47051 52.3433 9.83477 52.3648 10.1776 52.3648C10.8847 52.3648 11.3346 52.2357 11.5489 52.1496C11.6132 52.1496 11.6774 52.1065 11.6989 52.1065C11.7846 52.1065 11.9346 52.3218 12.0203 52.4079C12.0845 52.4724 12.1274 52.537 12.1703 52.58C12.5131 52.9029 12.8988 53.2042 13.413 53.3118C14.1629 53.4625 15.02 53.3118 15.9842 52.9244L15.9627 52.7737ZM32.4612 53.0751C32.1612 52.8598 31.9898 52.5585 31.9255 52.3433L32.6754 52.4079C32.5897 52.6231 32.5254 52.8598 32.4612 53.0751ZM38.3534 56.82C38.3106 57.4872 38.8677 58.4127 39.2748 59.0799C39.3176 59.1445 39.3391 59.1875 39.3819 59.2521C39.3819 59.2736 39.4033 59.2951 39.4248 59.3167C39.4248 59.3597 39.4676 59.3812 39.489 59.4243C39.489 59.4458 39.5105 59.4673 39.5319 59.4888C39.5533 59.5319 39.5748 59.5749 39.5962 59.618C39.5962 59.618 39.639 59.7041 39.639 59.7471C39.639 59.7471 39.639 59.7902 39.639 59.8117C39.639 59.8117 39.639 59.9193 39.639 59.9623C39.639 59.9623 39.5962 60.0484 39.5747 60.0915C39.5319 60.1345 39.4462 60.1991 39.3176 60.3067C39.0391 60.5435 38.6106 60.9093 38.1178 61.3183C37.8392 61.555 37.5607 61.7918 37.2821 62.0285C36.5108 62.6742 35.8251 63.2553 35.718 63.3629C35.4823 63.4705 35.2895 63.7503 35.2466 63.8579C35.0323 64.2023 34.7109 64.6113 34.3681 64.7619C34.2824 64.805 34.1967 64.8265 34.111 64.8265C34.0467 64.8265 33.9824 64.8265 33.9396 64.805C33.9396 64.5682 33.7896 64.1377 33.3825 64.1377C33.3611 64.1377 33.3182 64.1377 33.2968 64.1377C33.3396 64.0947 33.3825 64.0517 33.4468 64.0086C33.661 63.8364 33.8967 63.6212 34.0467 63.4705C34.1967 63.2984 34.2824 63.1692 34.2824 63.1692C34.2824 63.1692 34.1324 63.2123 33.9182 63.3199C33.811 63.3629 33.7039 63.4275 33.5753 63.5136C33.4682 63.5782 33.3396 63.6642 33.2111 63.7719C33.1468 63.8364 33.1039 63.8795 33.0397 63.944C32.9754 64.0086 32.954 64.0732 32.9111 64.1377C32.8254 64.2669 32.7826 64.4175 32.7826 64.5467C32.7826 64.5467 32.7826 64.5897 32.7826 64.6113C32.654 64.6543 32.5469 64.6758 32.4397 64.6758C32.3754 64.6758 32.354 64.6758 32.3112 64.6758C32.3112 64.5467 32.2683 64.3315 32.1612 64.2023C32.0755 64.1162 31.9898 64.0732 31.8612 64.0947C31.8826 64.0732 31.9255 64.0517 31.9469 64.0301C32.0326 63.944 32.1398 63.8795 32.2469 63.8149C32.3326 63.7503 32.4397 63.6642 32.504 63.5997C32.654 63.4705 32.7397 63.3414 32.7397 63.3414C32.7397 63.3414 32.6111 63.3414 32.4183 63.4275C32.3326 63.449 32.204 63.5136 32.0969 63.5566C31.9898 63.5997 31.8612 63.6642 31.7541 63.7503C31.6469 63.8364 31.5398 63.944 31.4755 64.0517C31.4113 64.1377 31.3898 64.2238 31.347 64.3099C31.347 64.1808 31.3255 64.0517 31.2398 63.944C31.197 63.8795 31.1327 63.8149 31.0256 63.7934C31.0684 63.7503 31.1327 63.7288 31.1756 63.6858C31.2613 63.6212 31.3255 63.5782 31.3898 63.5136C31.497 63.406 31.5827 63.2984 31.5827 63.2984C31.5827 63.2984 31.4755 63.2984 31.3041 63.3414C31.2184 63.3414 31.1327 63.3844 31.047 63.4275C30.9613 63.449 30.8542 63.5136 30.7685 63.5782C30.6828 63.6427 30.6185 63.7073 30.5542 63.7719C30.5542 63.6427 30.5542 63.5136 30.4685 63.4275C30.3399 63.2338 30.1257 63.1908 29.9757 63.1908C30.1471 62.6957 31.047 62.3729 31.0684 62.3514C31.197 62.3083 34.0039 61.103 35.0966 60.113C35.7394 59.5319 35.8251 58.7786 35.3537 57.8101C34.9895 57.0568 34.4752 56.3465 34.0467 55.8084L33.9182 55.6363C33.5111 55.1197 33.1039 54.5817 32.954 53.9575C32.9111 53.8068 32.9111 53.6562 32.9111 53.5055L33.1254 53.3549L32.954 53.2903C32.9968 53.0535 33.0611 52.7953 33.1682 52.5585C33.1682 52.537 33.1682 52.5155 33.1897 52.4724H33.4468L35.6323 52.6661L34.3681 51.5254C34.6895 51.4393 35.0323 51.4178 35.3966 51.4178C36.875 51.4178 38.2677 52.0635 38.4177 52.1496C38.5463 52.2572 38.7605 53.2472 38.9534 54.1082C38.9962 54.2803 39.0391 54.474 39.1034 54.6462C38.3749 55.421 38.4177 56.7124 38.4391 56.8631L38.3534 56.82ZM28.3258 45.3054C28.4544 45.3054 28.6044 45.3269 28.7544 45.3269C29.7614 45.3269 30.7256 44.8534 31.1541 44.6166C31.197 44.6166 31.2398 44.6166 31.2613 44.6597H31.3255C31.3255 44.6597 32.4826 44.8964 33.7682 44.8964C34.7538 44.8964 35.568 44.7673 36.1679 44.509C36.8536 44.2292 37.4107 44.0786 37.9249 44.014C38.0535 44.014 38.182 43.9925 38.332 43.9925C38.8891 43.9925 39.4462 44.1001 40.0033 44.2077C40.1533 44.2292 40.3247 44.2723 40.4747 44.2938C41.3746 44.4444 42.1245 44.5736 42.8102 44.6812C44.61 44.961 46.1098 45.1117 47.524 45.1977C48.0382 45.2193 48.5525 45.2408 49.0453 45.2623C49.1738 45.2623 49.3238 45.2623 49.4524 45.2623C50.4594 45.2623 51.2093 45.1762 51.9164 45.004C52.9663 44.7458 53.8448 44.2292 54.4447 43.5405C55.1518 42.7226 55.4304 41.6465 55.1947 40.721C54.959 39.774 54.1662 38.9131 53.0306 38.375C51.745 37.7724 50.1809 37.6217 48.7882 38.0091L37.1536 40.5273C36.8964 40.5704 36.6607 40.6134 36.4251 40.678C36.018 40.7641 35.6323 40.8501 35.2252 40.8501H35.1823C34.3038 40.8501 33.0182 40.7641 31.9898 40.2045C30.2114 39.2359 29.5257 38.0952 29.74 36.5456C30.1685 33.4894 34.111 33.3387 36.9607 33.2096C37.5178 33.1881 38.0749 33.1665 38.5249 33.1235C38.6106 33.1235 38.6748 33.1235 38.7391 33.102C38.4606 33.2526 38.3106 33.4894 38.9962 33.7907C38.4177 33.7046 37.8392 33.6616 37.2393 33.6616C36.4465 33.6616 35.6323 33.7476 34.8395 33.8983C33.7896 34.092 31.2827 34.7377 30.6828 36.1582C30.4471 36.7178 30.5542 37.3419 30.9613 37.9876C31.2613 38.4396 31.6898 38.8055 32.2683 39.1068C33.1254 39.5373 34.111 39.7525 35.3109 39.7525C35.868 39.7525 36.4679 39.7094 37.1321 39.6234C39.0605 39.3651 40.9675 38.8485 42.7887 38.375C43.4744 38.2029 44.16 38.0091 44.8457 37.837C46.5384 37.428 48.6596 36.89 50.6308 36.89C52.9235 36.89 54.5947 37.6002 55.7089 39.0422C56.0089 39.4296 56.2017 39.7525 56.3303 40.0538C56.6303 40.7856 56.8659 41.8617 56.3303 42.9163C56.1803 43.2177 56.0089 43.519 55.8375 43.7988C55.4518 44.5736 54.7019 45.1332 53.8877 45.5206C53.8019 45.5636 53.7162 45.6067 53.6091 45.6712L53.2877 45.8004C53.2877 45.8004 52.8806 45.9726 52.1307 46.1447C51.4022 46.3384 50.8237 46.403 50.6308 46.4461C50.3523 46.5106 49.2167 46.5322 47.9954 46.5322C46.6026 46.5322 45.4028 46.5322 44.76 46.4891C44.4814 46.4891 44.31 46.4891 44.31 46.4891C44.3529 46.4891 44.3957 46.4891 44.46 46.4891C44.31 46.4891 44.2243 46.4891 44.2243 46.4891C44.2243 46.4891 44.46 47.0272 44.6957 47.5222L44.9314 48.1033C44.9314 48.1033 45.3813 49.2655 45.4028 51.1595C45.4028 53.0105 45.4456 54.2373 46.9455 55.1628C47.5454 55.5287 48.0596 55.7439 48.5525 55.873C48.6167 55.873 48.681 55.8945 48.7667 55.8945C48.831 55.8945 48.9167 55.8945 48.9596 55.9161C48.9596 55.9161 49.0453 55.9376 49.0667 56.0882C49.1524 56.4111 49.0024 56.9922 48.8524 57.1644L48.7667 57.272C48.7667 57.272 48.5953 59.1875 49.1095 63.8579C48.8739 64.0732 48.4668 64.5252 48.4239 64.9556C48.4239 65.0202 48.4239 65.1063 48.4239 65.2139C48.4025 65.9457 48.2953 66.7205 47.6525 66.8927V66.8066C47.5883 66.3331 47.2883 66.2685 47.1169 66.2685C46.9883 66.2685 46.8383 66.3115 46.7312 66.3546C46.7955 66.2685 46.8812 66.2039 46.9669 66.1178C47.1383 65.9672 47.374 65.7735 47.4811 65.6228C47.6097 65.4722 47.6954 65.343 47.6954 65.343C47.6954 65.343 47.5454 65.3861 47.374 65.4722C47.2883 65.5152 47.1812 65.5798 47.074 65.6443C46.9669 65.7089 46.8598 65.795 46.7526 65.8811C46.7098 65.9241 46.6455 65.9887 46.6026 66.0317C46.5598 66.0963 46.5169 66.1609 46.4955 66.2039C46.4312 66.3331 46.3884 66.4622 46.3884 66.5698C46.3884 66.5913 46.3884 66.6129 46.3884 66.6344C46.3241 66.699 46.1955 66.7635 45.9384 66.7635C45.8527 66.29 45.5313 66.2255 45.4028 66.2255C45.3171 66.2255 45.2313 66.2255 45.1671 66.2685C45.2313 66.1394 45.3385 66.0102 45.4456 65.8811C45.5313 65.795 45.617 65.7089 45.7027 65.6013C45.7884 65.5152 45.8527 65.4076 45.917 65.3215C46.0456 65.1493 46.1098 65.0202 46.1098 65.0202C46.1098 65.0202 45.9813 65.0632 45.7884 65.1708C45.7027 65.2139 45.5956 65.3 45.4885 65.3645C45.3813 65.4291 45.2742 65.5367 45.1885 65.6443C45.1028 65.752 45.0171 65.8811 44.9528 66.0102C44.8885 66.1394 44.8671 66.2685 44.8671 66.3761C44.8671 66.4192 44.8671 66.4622 44.8671 66.4837C44.8671 66.4837 44.8671 66.5052 44.8671 66.5268C44.7385 66.5268 44.61 66.5268 44.4814 66.4837C44.4171 66.1394 44.1386 65.9887 43.8601 65.9457C43.8601 65.9457 43.9886 65.8165 44.0743 65.7304C44.1386 65.6659 44.2029 65.5798 44.2457 65.5152C44.3314 65.3861 44.3957 65.2785 44.3957 65.2785C44.3957 65.2785 44.2886 65.3 44.1386 65.3645C44.0529 65.4076 43.9886 65.4506 43.9029 65.4937C43.8172 65.5367 43.7315 65.6013 43.6458 65.6874C43.5815 65.752 43.5387 65.8165 43.4958 65.8811C43.4101 65.6659 43.1101 65.5798 42.9173 65.5367C43.003 65.3215 43.2815 65.2139 43.6458 65.1063C43.7315 65.1063 43.7743 65.0632 43.8172 65.0632H43.8386C44.8457 64.6328 45.4242 63.7934 45.4885 62.7172C45.5742 61.103 45.0599 58.9938 44.5671 58.1975C44.1172 57.4657 43.1315 56.8846 41.7174 56.4972C40.4104 56.1528 39.5533 55.2704 39.2962 54.0436C38.9962 52.6016 38.8677 52.085 38.6748 51.8698C38.6748 51.8267 38.6534 51.7622 38.632 51.7191C38.5463 51.3963 38.4177 51.0734 38.2677 50.7506C38.1178 50.4278 37.9678 50.1264 37.7749 49.8467C37.6892 49.696 37.5821 49.5884 37.475 49.4592C37.3892 49.3301 37.2607 49.244 37.175 49.1579C37.0893 49.0718 36.9607 49.0073 36.875 48.9427C36.8322 48.9212 36.7893 48.8997 36.7465 48.8566C36.7036 48.8566 36.6607 48.8136 36.6393 48.8136C36.4893 48.7705 36.4036 48.7275 36.4036 48.7275C36.4036 48.7275 36.4679 48.7705 36.5965 48.8566C36.6393 48.8566 36.6607 48.8997 36.7036 48.9212C36.725 48.9427 36.7679 48.9857 36.8107 49.0288C36.875 49.0934 36.9607 49.1794 37.0464 49.2655C37.1321 49.3731 37.2178 49.4592 37.3035 49.5884C37.3892 49.7175 37.475 49.8251 37.5392 49.9758C37.6249 50.1049 37.6892 50.2556 37.7749 50.4062C37.8606 50.5569 37.9249 50.7076 37.9892 50.8582C38.0963 51.1165 38.2035 51.3748 38.3106 51.633C38.0106 51.5039 37.5178 51.3102 36.9393 51.1811C36.4679 51.0734 35.9322 50.9874 35.3537 50.9874C34.9895 50.9874 34.6467 51.0304 34.3038 51.095C34.2396 51.095 34.1967 51.095 34.1538 51.095C31.7327 51.095 26.3546 52.6661 25.8189 52.8168C25.8189 52.7092 25.8618 52.6016 25.8618 52.4939C25.8618 52.4294 25.8832 52.3648 25.9046 52.3002C25.9046 52.2572 25.9046 52.2142 25.9046 52.2142C25.9046 52.2142 25.8832 52.2142 25.8404 52.2572C25.7975 52.2787 25.7332 52.3218 25.6904 52.3863C25.6904 52.4079 25.6475 52.4294 25.6261 52.4724C25.5832 52.5155 25.5618 52.58 25.5404 52.6446C25.4975 52.7522 25.4761 52.8598 25.4547 52.9674C25.4547 53.0751 25.4547 53.1827 25.4547 53.2903C25.4547 53.3118 25.4547 53.3549 25.4547 53.3764C25.4547 53.4625 25.4547 53.5701 25.4547 53.6562C25.4975 54.0005 25.6047 54.3449 25.669 54.4956L25.8832 55.3995C25.8832 55.3995 25.7118 55.7654 25.0904 56.4757L24.9833 56.5833C24.9833 56.5833 22.3907 60.1345 20.9765 64.5252C20.9551 64.5897 20.9337 64.6543 20.9123 64.7189C20.9123 64.7189 20.848 64.7619 20.7623 64.8695C20.7194 64.891 20.698 64.9126 20.6551 64.9556C20.6551 64.9556 20.4409 65.2785 20.3338 65.9887C20.2909 66.3115 20.1838 66.3331 19.9909 66.3761C19.8838 66.3976 19.7338 66.4192 19.6267 66.5052H19.5838C19.4338 66.6344 19.3696 66.6774 19.241 66.699C19.241 66.699 19.2196 66.699 19.1981 66.699L19.1339 66.6129C18.9196 66.29 18.6625 66.2255 18.4696 66.2255C18.3197 66.2255 18.1911 66.2685 18.1054 66.3115C18.1482 66.247 18.2125 66.2039 18.2768 66.1394C18.3839 66.0533 18.4911 65.9457 18.6196 65.8811C18.7482 65.795 18.8767 65.7304 19.0053 65.6443C19.1339 65.5583 19.241 65.4722 19.3481 65.4076C19.4338 65.343 19.4981 65.2785 19.5624 65.2354C19.6267 65.1708 19.6695 65.1493 19.6695 65.1493C19.6695 65.1493 19.4981 65.1708 19.2624 65.2569C19.1553 65.3 19.0053 65.343 18.8768 65.4076C18.7482 65.4722 18.5982 65.5367 18.4482 65.6228C18.3839 65.6659 18.3197 65.7304 18.2554 65.7735C18.2554 65.7735 18.1482 65.9026 18.084 65.9457C17.9768 66.0748 17.9126 66.2254 17.8697 66.3546C17.8697 66.3976 17.8697 66.4407 17.8697 66.4622V66.7205C17.8697 66.7205 17.784 66.7635 17.6769 66.7635C17.6769 66.6344 17.634 66.4407 17.484 66.29C17.3769 66.1609 17.2055 66.1178 17.0126 66.1178C17.0984 66.0317 17.2055 65.9672 17.3126 65.8811C17.4197 65.795 17.5697 65.7304 17.6983 65.6443C17.8269 65.5583 17.934 65.4722 18.0411 65.4076C18.234 65.2569 18.3411 65.1278 18.3411 65.1278C18.3411 65.1278 18.1697 65.1493 17.934 65.2354C17.8269 65.2785 17.6769 65.3215 17.5483 65.3861C17.4197 65.4506 17.2698 65.5152 17.1198 65.6013C17.0555 65.6443 16.9698 65.7089 16.9055 65.752C16.8412 65.8165 16.777 65.8811 16.7341 65.9241C16.627 66.0533 16.5627 66.2039 16.5198 66.3331C16.5198 66.3976 16.4984 66.4622 16.4984 66.5268C16.4984 66.5483 16.4984 66.5698 16.4984 66.5913C16.4556 66.5913 16.4341 66.5913 16.4127 66.5913C16.3913 66.5913 16.3484 66.5913 16.3056 66.5698C16.3056 66.4622 16.2841 66.2039 16.1127 66.0102C15.9842 65.8811 15.7913 65.8165 15.5771 65.8596C15.6628 65.7735 15.7699 65.6874 15.877 65.6228C15.9413 65.5798 16.027 65.5152 16.1127 65.4506C16.1984 65.3861 16.2627 65.343 16.327 65.2785C16.4341 65.1708 16.5198 65.0632 16.5198 65.0632C16.5198 65.0632 16.3913 65.0632 16.2413 65.1063C16.1556 65.1063 16.0699 65.1493 15.9842 65.1924C15.8985 65.2139 15.7913 65.2785 15.7056 65.3215C15.6199 65.3861 15.5342 65.4722 15.4485 65.5582C15.4485 65.3861 15.3842 65.2569 15.32 65.1493C15.2342 65.0417 15.1057 64.9987 14.9557 64.9987C14.9343 64.9987 14.8914 64.9987 14.87 64.9987C14.9771 64.891 15.1271 64.7834 15.3842 64.6543C15.4914 64.6113 15.5985 64.5682 15.7056 64.5036C16.2627 64.2454 16.9055 63.9656 17.2912 63.5997C17.7411 63.1477 18.1911 61.9639 18.2125 61.8994C18.234 61.8133 18.9196 59.8332 19.0482 58.8862C19.0482 58.8647 19.3053 56.9276 19.4124 55.3565C19.4124 55.3134 19.4553 55.2704 19.4767 55.2273C19.5195 55.1628 19.5624 55.0767 19.5838 54.9906C19.6267 54.8614 19.6695 54.7108 19.7124 54.5601C19.7338 54.6247 19.7552 54.6893 19.7981 54.7538C19.8838 54.926 19.9695 55.0982 20.0766 55.2919C20.1623 55.4426 20.2695 55.5717 20.3552 55.6793L20.6337 56.0022L20.7194 55.5717C20.848 54.9475 21.1265 54.3234 21.6193 53.5916C22.0479 52.9459 22.4335 52.3218 22.7121 51.8052C22.7121 53.1612 23.4406 53.4409 23.4834 53.4625L24.212 53.7207L23.7191 53.1181C23.4192 52.7307 23.7191 51.8913 23.8477 51.59L25.4761 48.6844C25.7118 49.4162 26.3546 49.7821 26.3975 49.8036L26.9117 50.0834L26.6974 49.5453C26.2689 48.4262 26.9974 47.7159 27.0402 47.6944C28.1759 46.6398 28.3687 45.6712 28.4115 45.1977L28.3258 45.3054ZM24.0834 36.7608C24.0834 36.7608 24.3191 36.4595 24.6191 36.4595C24.769 36.4595 24.8976 36.5456 25.0476 36.6963C25.369 37.0621 25.3476 37.4711 25.2833 37.7294C24.919 37.3419 24.3405 36.9545 24.0834 36.8039C24.0834 36.8039 24.0834 36.7824 24.0834 36.7608ZM14.0344 35.986C14.1843 35.7923 14.3772 35.7062 14.6129 35.7062C14.6986 35.7062 14.8271 35.7062 14.9557 35.7493C14.9557 35.7493 15.0628 35.7708 15.1914 35.8354C14.9771 35.986 14.6772 36.2443 14.3772 36.6532L14.0558 37.1052L14.2486 37.0621C14.1415 37.1267 14.0344 37.1913 13.9272 37.2559C13.8629 37.1267 13.7987 36.9545 13.7772 36.9115C13.713 36.6102 13.8201 36.2658 14.0558 35.986H14.0344ZM12.8345 43.1746C12.8345 43.1746 12.9202 43.1531 12.963 43.1316C13.0273 43.11 13.0916 43.0885 13.1559 43.067C13.263 43.0239 13.3701 42.9809 13.4773 42.9594C14.0344 42.7872 14.5272 42.6581 14.9771 42.5935H15.02C15.17 42.5935 15.2985 42.5504 15.4485 42.5504C15.4485 42.2707 15.4914 41.9263 15.5556 41.668C15.4271 41.625 15.2771 41.6034 15.1485 41.5604C14.9771 41.5174 14.8057 41.4743 14.6557 41.4528C14.4415 41.4097 14.2272 41.3882 14.0344 41.3452C13.9915 41.3452 13.9487 41.3452 13.9058 41.3452C13.6915 41.3236 13.4773 41.3021 13.3059 41.3021C13.1773 41.3021 13.0487 41.3021 12.9202 41.3021C12.8345 41.3021 12.7702 41.3021 12.7059 41.3021C12.5345 41.3021 12.3845 41.3021 12.2774 41.3021C12.2345 41.3021 12.1917 41.3021 12.1488 41.3021C12.106 41.3021 12.0845 41.3021 12.0631 41.3021C12.0845 41.3021 12.1274 41.3021 12.1488 41.3021C12.1917 41.3021 12.256 41.3021 12.2988 41.3021C12.4702 41.2806 12.6416 41.2591 12.8131 41.2376C12.9202 41.2376 13.0487 41.2376 13.1559 41.2376C13.2844 41.2376 13.413 41.2376 13.5201 41.2376C13.6915 41.2376 13.8415 41.2376 13.9915 41.2591C14.0558 41.2591 14.0986 41.2591 14.1629 41.2591C14.3986 41.2806 14.6343 41.3236 14.8486 41.3667C14.9557 41.3882 15.0628 41.4097 15.17 41.4313C15.2985 41.4528 15.4485 41.4958 15.5771 41.5389C15.5771 41.4528 15.6199 41.3882 15.6413 41.3452C15.7485 41.1084 16.2627 39.8816 16.3056 39.4727C16.477 38.8485 16.6698 38.1383 17.0126 37.5141C17.2912 36.9976 17.8269 36.438 18.3625 36.438C18.5339 36.438 18.6839 36.5026 18.8339 36.6102L19.391 37.0406L19.1553 36.3734C19.1553 36.3734 19.1124 36.2658 19.0696 36.1582C19.3053 36.2228 19.4981 36.3089 19.541 36.3949L19.9695 37.1052L19.9266 36.2658C19.9266 36.2658 19.9266 35.8784 19.8195 35.5771C19.9481 35.6417 20.0981 35.7493 20.1409 35.8999L20.5694 37.0837V35.8999C20.6766 36.0291 20.7837 36.1797 20.8051 36.3519L20.848 36.6747L21.1265 36.5026C21.1265 36.5026 21.4051 36.3304 21.855 36.3089C21.8336 36.3519 21.7908 36.3734 21.7693 36.4165L21.6408 36.6747L21.9193 36.7393C21.9193 36.7393 22.7549 36.9545 23.1192 38.2889C23.3763 39.279 23.3977 39.774 23.3977 40.1399C23.3977 40.3121 23.3977 40.4843 23.4406 40.6564C23.462 40.7856 23.4834 40.8932 23.5049 41.0223C23.5477 41.3021 23.5906 41.5819 23.762 42.0554C23.912 42.0554 24.0405 42.0124 24.1905 42.0124C24.2334 42.0124 24.2762 42.0124 24.3191 42.0124C24.3405 42.0124 24.3619 42.0124 24.4048 42.0124C24.8119 41.9909 25.219 41.9909 25.6475 42.0124C26.0546 42.0339 26.4617 42.0985 26.8688 42.1846C26.976 42.2061 27.0831 42.2276 27.1688 42.2491C27.4259 42.3137 27.6616 42.3998 27.9187 42.4859C27.9187 42.4859 27.9187 42.4859 27.9402 42.4859C27.9402 42.4859 27.8973 42.4859 27.8759 42.4859C27.833 42.4859 27.7902 42.4859 27.7473 42.4428C27.7473 42.4428 27.7473 42.4428 27.7259 42.4428C27.6616 42.4428 27.6188 42.4213 27.5331 42.3998C27.5331 42.3998 27.5116 42.3998 27.4902 42.3998C27.4045 42.3998 27.3188 42.3567 27.2331 42.3567C27.1474 42.3567 27.0617 42.3352 26.9545 42.3137C26.676 42.2706 26.3332 42.2276 25.9261 42.2061C25.6261 42.2061 25.3047 42.2061 24.9405 42.2061C24.769 42.2061 24.5762 42.2061 24.3834 42.2276C24.3405 42.2276 24.2977 42.2276 24.2548 42.2276C24.1048 42.2276 23.9763 42.2276 23.8263 42.2706C23.8691 42.3783 23.912 42.6365 23.912 42.9809L23.3763 42.3352C23.5263 42.3137 23.6763 42.2922 23.8263 42.2706L23.762 42.0985C22.9692 42.2061 22.2836 42.3567 21.7693 42.5074C21.148 42.7011 20.7837 42.8518 20.7837 42.8518C21.148 42.7441 21.5122 42.6581 21.8336 42.5935C22.3693 42.4644 22.8621 42.3783 23.3335 42.3137L23.462 43.0885C23.462 43.0885 23.462 43.1961 23.462 43.2607C23.7191 43.2822 23.9763 43.3253 24.2548 43.3683C24.4905 43.4114 24.7476 43.4544 24.9833 43.519C25.7118 43.7127 26.4403 43.9925 27.1474 44.4014C27.2545 44.466 27.3616 44.5305 27.4688 44.6166C27.4688 44.6166 27.5116 44.6381 27.5331 44.6597C27.5331 44.6597 27.5331 44.6597 27.4688 44.6381C27.4045 44.6166 27.2974 44.5521 27.1474 44.4875C26.8688 44.3584 26.4189 44.1646 25.8404 43.9709C25.369 43.8203 24.8333 43.6696 24.212 43.5405C23.9763 43.4974 23.7191 43.4544 23.462 43.4114C23.462 43.6481 23.462 43.9279 23.312 44.0786C23.2263 44.1862 23.1192 44.3368 22.9906 44.509C23.1192 44.5736 23.2478 44.6382 23.3763 44.7027C23.462 44.7458 23.5263 44.7888 23.612 44.8319C24.0191 45.0686 24.4262 45.3699 24.7905 45.6928C24.9404 45.8219 25.0904 45.9726 25.219 46.1232C25.3476 46.2739 25.4975 46.4245 25.6047 46.5967C25.6261 46.6398 25.669 46.6828 25.6904 46.7259C25.6904 46.7259 25.669 46.6828 25.6047 46.6398C25.519 46.5537 25.4118 46.4461 25.2404 46.2739C25.1333 46.1663 24.9833 46.0587 24.8333 45.9295C24.5333 45.6928 24.1691 45.413 23.6977 45.1116C23.5692 45.0256 23.4192 44.9395 23.2692 44.8534C23.1621 44.7888 23.0335 44.7242 22.9049 44.6381C22.6264 45.0256 22.3478 45.456 22.3264 45.4775C21.9407 46.0371 21.2765 47.0056 21.2765 47.3285C21.2765 47.3931 21.2765 47.4792 21.2765 47.5868C21.2765 47.8235 21.3194 48.4692 21.2337 48.5983V48.6414C21.2337 48.6414 21.148 48.792 21.0408 48.9857C21.0408 48.8566 20.998 48.6844 20.9551 48.5122L20.7194 47.6083L20.548 48.5338C20.548 48.5338 20.4195 49.1794 20.0338 49.4592C19.9052 49.5453 19.7981 49.6099 19.7124 49.6745C19.6481 49.7175 19.5838 49.739 19.541 49.7821C19.541 49.7175 19.541 49.6314 19.541 49.5238C19.6053 48.9427 19.4338 48.7059 19.391 48.6629L19.1981 48.4477L19.0482 48.6844C19.0482 48.6844 18.9196 48.8781 18.8125 49.1364C18.7482 48.9857 18.7053 48.7705 18.7268 48.4692L18.791 47.9957L18.4054 48.2755C18.4054 48.2755 18.0197 48.5553 17.9768 49.244C17.934 49.2225 17.9126 49.201 17.8911 49.1579C17.7411 48.9857 17.5912 48.6414 17.6769 47.9096C17.7197 47.8235 17.6769 47.7159 17.4412 47.0702L16.3699 43.8633C16.1984 43.9494 16.027 44.0355 15.877 44.1431C15.877 44.1431 15.877 44.1647 15.877 44.1862C15.877 44.1862 15.877 44.1646 15.877 44.1431C15.7485 44.2292 15.6199 44.2938 15.4914 44.3799C15.4485 44.4014 15.4057 44.4229 15.3842 44.4444C15.2771 44.509 15.1914 44.5736 15.1057 44.6381C14.5486 45.0471 14.1415 45.413 13.9272 45.6282C13.7772 45.7789 13.6915 45.8865 13.6915 45.8865C13.7772 45.7573 13.8629 45.6282 13.9701 45.4991C14.2915 45.0901 14.6986 44.7458 15.1271 44.4444C15.3842 44.2723 15.6413 44.1216 15.8985 43.9925C15.8985 43.7988 15.8985 43.5835 15.8985 43.3468V42.7011C15.8985 42.7011 15.8128 42.7011 15.7485 42.7011L15.5342 43.1746C15.5342 43.0455 15.4914 42.9163 15.4485 42.7872C15.4485 42.7872 15.4485 42.7442 15.4485 42.7226C15.2985 42.7226 15.17 42.7226 15.02 42.7657C15.02 42.7657 14.9986 42.7657 14.9771 42.7657C14.3343 42.8302 13.7987 42.9379 13.413 43.0455C13.3059 43.067 13.2202 43.0885 13.1344 43.11C13.0487 43.11 13.0059 43.1531 12.9416 43.1746C12.8773 43.1746 12.8559 43.1961 12.8131 43.2177H12.7702C12.7702 43.2177 12.7702 43.2177 12.8131 43.2177L12.8345 43.1746ZM12.4274 52.1281C12.4274 52.1281 12.3631 52.042 12.2988 51.9989C12.2345 51.9344 12.1917 51.8698 12.1274 51.8052C12.1274 51.7622 12.0845 51.7191 12.0631 51.6761C12.0631 51.6546 12.0417 51.6115 12.0203 51.59C11.9988 51.5685 11.9988 51.5469 11.9774 51.5039C11.9774 51.4609 11.9346 51.4178 11.9131 51.3748C11.9131 51.3532 11.8917 51.3317 11.8703 51.3102C11.8489 51.2672 11.806 51.2026 11.7846 51.1595C11.7846 51.138 11.7632 51.1165 11.7417 51.095C11.6989 51.0304 11.6774 50.9658 11.6346 50.9013C11.6346 50.9013 11.6346 50.8582 11.5917 50.8582C11.5489 50.7721 11.506 50.7076 11.4632 50.6215C11.4632 50.6215 11.4632 50.6215 11.4632 50.5999C11.3775 50.4708 11.3132 50.3417 11.2275 50.191C11.2275 50.148 11.1846 50.1264 11.1632 50.0834C11.0989 49.9758 11.0346 49.8682 10.9704 49.7606C10.9275 49.696 10.8847 49.6099 10.8418 49.5238C10.799 49.4592 10.7561 49.3732 10.7133 49.3086C10.649 49.201 10.5847 49.1149 10.5418 49.0073C10.5204 48.9642 10.4776 48.8997 10.4561 48.8566C10.3704 48.7275 10.3061 48.5983 10.2204 48.4692C10.2204 48.4692 10.199 48.4262 10.1776 48.4046C10.0919 48.2755 10.0276 48.1248 9.9419 47.9957C9.92047 47.9527 9.89904 47.9096 9.85619 47.8666C9.77049 47.7374 9.70621 47.6083 9.6205 47.4791C9.6205 47.4361 9.57765 47.4146 9.55622 47.3715C9.47051 47.2424 9.40623 47.1133 9.32053 46.9626C9.2991 46.9196 9.27768 46.8765 9.23482 46.8335C8.4849 45.5636 7.77782 44.3799 7.37072 43.7127C7.37072 43.7127 7.32786 43.6481 7.30644 43.6051C7.19931 43.4329 7.1136 43.3037 7.07075 43.2177C7.07075 43.1961 7.04932 43.1746 7.02789 43.1531C6.89933 42.9809 6.66364 42.8518 6.55651 42.8087C6.4708 42.7657 6.36367 42.7226 6.29939 42.6796C5.99942 42.5504 5.76373 42.4428 5.31377 41.8617L5.24949 41.7971H5.16379C5.16379 41.7971 4.41386 41.7326 4.37101 41.2591L4.41386 41.216C4.6924 40.9793 4.77811 40.678 4.79954 40.5488C5.12093 40.721 5.46376 40.8932 5.63517 40.8932H5.6566C5.76373 40.8932 5.84944 40.8071 5.87086 40.6995C5.95657 40.3982 5.52804 39.8171 5.12093 39.5157C4.9281 39.3651 4.82096 39.1929 4.79954 39.0638C5.05665 39.0207 5.44233 38.8485 5.42091 38.4181C5.44233 38.4181 5.48518 38.4181 5.50661 38.4181C5.59232 38.4181 5.63517 38.4396 5.67802 38.5042C5.80658 38.6764 5.97799 38.9777 6.12798 39.2144C6.29939 39.4942 6.36367 39.6234 6.42795 39.6879C6.51366 39.7955 6.59936 39.9031 6.68507 39.9677C6.74935 40.0108 6.7922 40.0323 6.83505 40.0538C6.87791 40.0538 6.89933 40.0538 6.89933 40.0538C6.89933 40.0538 6.89933 40.0323 6.89933 39.9892C6.89933 39.9677 6.89933 39.9462 6.89933 39.9032V39.5157C6.81363 38.8485 6.7922 38.7194 6.7065 38.5687C6.4708 38.0737 6.44938 37.8585 6.4708 37.7724H6.57794C6.57794 37.7724 6.66364 37.8154 6.77078 37.8154C6.92076 37.8154 7.13503 37.7724 7.30644 37.5787V37.5141C7.34929 37.5572 7.39214 37.6217 7.41357 37.7509C7.435 37.9446 7.45642 38.0952 7.47785 38.2244C7.47785 38.5257 7.56356 38.7624 7.64926 38.9562C7.67069 39.0638 7.71354 39.1714 7.77782 39.2575C7.82067 39.322 7.86353 39.3651 7.88495 39.3866C7.92781 39.4081 7.94923 39.4296 7.94923 39.4296C7.94923 39.4296 7.94923 39.4081 7.94923 39.3651C7.94923 39.322 7.94923 39.279 7.94923 39.2144C7.94923 39.1068 7.94923 38.9777 7.94923 38.827V38.6764C7.94923 38.375 7.99209 38.0737 8.03494 37.9015C8.12064 37.9446 8.27063 38.0522 8.4849 38.0522C8.61345 38.0522 8.76344 38.0092 8.87057 37.9231H8.91343V37.8585C8.91343 37.8585 8.95628 37.8585 8.97771 37.837C9.04198 37.9015 9.14912 38.0522 9.12769 38.3535C9.12769 38.4826 9.10626 38.6333 9.08484 38.8055C9.02056 39.3436 8.95628 39.9462 9.08484 40.3336C9.08484 40.3982 9.12769 40.4627 9.14912 40.5488C9.2991 41.0869 9.53479 41.9909 10.6275 43.2822C11.0989 43.8418 11.6989 44.3584 12.2774 44.7673C12.1274 45.1332 11.806 45.413 11.3989 45.5421L10.5204 45.8004L11.4418 45.951C11.5489 45.951 11.6989 45.9941 11.8274 45.9941H11.8703C11.9988 45.9941 12.1274 45.9941 12.256 45.951C12.4702 45.908 12.6845 45.8219 12.8559 45.6928C12.8773 45.6928 12.8988 45.6497 12.9416 45.6497C12.9416 45.9941 12.9416 46.36 13.0273 46.7474C13.3701 48.5338 14.3343 48.9427 14.6343 49.0288L14.8486 49.2871C14.9771 49.4162 15.0843 49.5453 15.17 49.6745C15.17 49.6745 15.2771 49.8251 15.32 49.8897C15.3414 49.9327 15.3628 49.9758 15.4057 50.0188C15.4485 50.0834 15.4699 50.1264 15.5128 50.191C15.5128 50.2341 15.5556 50.2556 15.5771 50.2986C15.6199 50.3847 15.6628 50.4708 15.7056 50.5569C15.7056 50.5784 15.7056 50.6215 15.7485 50.643C15.7485 50.686 15.7699 50.7291 15.7913 50.7721C15.7913 50.8152 15.7913 50.8367 15.8128 50.8797C15.8128 50.9228 15.8128 50.9443 15.8128 50.9874C15.8128 51.0304 15.8128 51.0734 15.8128 51.1165C15.8128 51.138 15.8128 51.1811 15.8128 51.2026C15.8128 51.2672 15.8128 51.3317 15.8128 51.3963C15.7485 51.8698 15.4057 52.085 15.3842 52.1065L14.1843 52.8168L15.5342 52.4939C16.177 52.3433 16.5627 51.8913 16.7984 51.4824C16.8412 51.6115 16.8841 51.7407 16.9269 51.8698C16.6698 51.9989 16.4127 52.1496 16.1984 52.2572C16.1984 52.2572 16.177 52.2572 16.1556 52.2787C16.1556 52.2787 16.1127 52.2787 16.0913 52.3002C16.0485 52.3002 16.027 52.3433 16.0056 52.3433C16.0056 52.3433 15.9413 52.3863 15.9199 52.3863H15.877C14.9986 52.7737 14.2272 52.8814 13.563 52.7522C13.1773 52.6661 12.8773 52.4509 12.5131 52.1281H12.4274Z" fill="black"/>
<path d="M76.0212 35.3834H78.721V23.9118H82.3421V21.4797H72.4002V23.9118H76.0212V35.3834Z" fill="black"/>
<path d="M15.9627 42.2491L15.8556 42.5074C15.8556 42.5074 15.9199 42.5074 15.9627 42.5074V42.2491Z" fill="black"/>
<path d="M15.9199 43.9709V44.1001C15.9199 44.1001 15.9199 44.1001 15.9413 44.1001L16.0056 43.9279C16.0056 43.9279 15.9413 43.9709 15.9199 43.9709Z" fill="black"/>
<path d="M18.1054 43.1531C18.1054 43.1531 17.5055 43.2822 16.7341 43.6051C16.627 43.6481 16.5198 43.6912 16.4127 43.7342V43.8203C16.5413 43.7772 16.6484 43.7127 16.7555 43.6696C17.1626 43.4759 17.6126 43.3037 18.084 43.1531H18.1054Z" fill="black"/>
<path d="M16.3056 43.3468L16.0699 43.7988C16.0699 43.7988 16.0485 43.8418 16.0056 43.9279C16.1342 43.8633 16.2841 43.7988 16.4127 43.7342L16.2841 43.3683L16.3056 43.3468Z" fill="black"/>
<path d="M20.8694 43.6051C21.2337 43.7557 21.5979 43.9064 21.9193 44.057C22.2836 44.2292 22.6264 44.4014 22.9478 44.5736L23.0335 44.4444C22.6478 44.2507 22.2836 44.1001 21.9622 43.9709C21.3194 43.7127 20.8694 43.6051 20.8694 43.6051Z" fill="black"/>
<path d="M166.548 68.7436C166.548 66.8496 165.177 65.2569 162.863 65.2569H158.428V76.6425H160.635V72.1012H162.22L164.427 76.6425H166.998L164.47 71.7353C165.563 71.3263 166.548 70.3363 166.548 68.7436ZM162.734 70.2502H160.656V67.237H162.734C163.72 67.237 164.341 67.8612 164.341 68.7436C164.341 69.626 163.698 70.2502 162.734 70.2502Z" fill="black"/>
<path d="M149.728 65.1708C148.443 65.1708 147.457 65.6228 146.643 66.4192C145.486 67.5814 145.529 69.0019 145.529 70.9605C145.529 72.919 145.486 74.3395 146.643 75.5018C147.436 76.2981 148.421 76.7501 149.728 76.7501C151.035 76.7501 151.978 76.2981 152.792 75.5018C153.949 74.3611 153.928 72.919 153.928 70.9605C153.928 69.0019 153.928 67.5599 152.792 66.4192C152 65.6228 151.035 65.1708 149.728 65.1708ZM151.143 74.1458C150.821 74.5117 150.328 74.7485 149.728 74.7485C149.128 74.7485 148.614 74.5117 148.293 74.1458C147.864 73.6723 147.757 73.1342 147.757 70.9389C147.757 68.7436 147.864 68.2271 148.293 67.732C148.614 67.3662 149.128 67.1294 149.728 67.1294C150.328 67.1294 150.821 67.3662 151.143 67.732C151.571 68.2055 151.7 68.7436 151.7 70.9389C151.7 73.1342 151.571 73.6508 151.143 74.1458Z" fill="black"/>
<path d="M171.712 76.6425H179.168V74.6624H173.919V71.9075H178.397V69.9058H173.919V67.237H179.168V65.2569H171.712V76.6425Z" fill="black"/>
<path d="M179.211 58.8432H72.4216V60.113H179.211V58.8432Z" fill="black"/>
<path d="M184.932 21.4797H182.232V35.3834H184.932V21.4797Z" fill="black"/>
<path d="M173.79 45.4775L171.198 39.8816H168.262L172.419 48.0818V53.7853H175.097V48.0818L179.254 39.8816H176.319L173.79 45.4775Z" fill="black"/>
<path d="M137.772 65.2569H133.38V76.6425H135.587V72.3594H137.772C140.108 72.3594 141.522 70.7452 141.522 68.8082C141.522 66.8711 140.129 65.2569 137.772 65.2569ZM137.644 70.3578H135.565V67.237H137.644C138.651 67.237 139.294 67.8827 139.294 68.8082C139.294 69.7337 138.651 70.3578 137.644 70.3578Z" fill="black"/>
<path d="M77.3925 53.8929C80.2208 53.8929 82.4706 51.9559 82.4706 49.0073V39.8601H79.7923V48.8997C79.7923 50.4923 78.8281 51.4609 77.3925 51.4609C75.957 51.4609 74.9928 50.5139 74.9928 48.8997V39.8601H72.293V49.0073C72.293 51.9559 74.5428 53.8929 77.3925 53.8929Z" fill="black"/>
<path d="M77.7354 69.9919L76.4069 69.7982C75.957 69.7337 75.5713 69.5615 75.357 69.3463C75.1213 69.131 75.0142 68.8082 75.0142 68.5284C75.0142 67.7536 75.5927 67.0864 76.7712 67.0864C77.5211 67.0864 78.3782 67.1725 79.0852 67.8612L80.478 66.4622C79.5138 65.5152 78.3782 65.1278 76.814 65.1278C74.3714 65.1278 72.8715 66.5483 72.8715 68.5714C72.8715 69.54 73.1287 70.2717 73.6857 70.8098C74.2 71.3048 74.9071 71.6061 75.8712 71.7568L77.2425 71.9505C77.7782 72.0366 78.0139 72.1442 78.2496 72.3594C78.4853 72.5747 78.5924 72.919 78.5924 73.328C78.5924 74.2319 77.8853 74.7269 76.5783 74.7269C75.5284 74.7269 74.5428 74.4902 73.8357 73.7584L72.4002 75.2004C73.5143 76.3411 74.8214 76.707 76.5355 76.707C78.9138 76.707 80.7351 75.4587 80.7351 73.2419C80.7351 72.2303 80.478 71.4124 79.8566 70.8313C79.3852 70.3793 78.721 70.0995 77.6925 69.9489L77.7354 69.9919Z" fill="black"/>
<path d="M0 42.4213C0 61.4474 22.9692 80 30.9613 80C38.332 80 61.9226 61.4259 61.9226 42.4213V0H0V42.4213ZM45.3171 15.2596C45.3813 14.9583 45.4456 14.6139 45.5527 14.3126C45.6813 14.3341 45.8099 14.3772 45.9599 14.3987H46.0027C46.1527 14.4202 46.3027 14.4633 46.4527 14.4848C46.367 14.7861 46.2598 15.152 46.217 15.4318C45.8956 17.0675 46.1527 17.8639 46.5169 18.0576C46.6026 18.1006 46.7098 18.1437 46.8383 18.1437C46.9669 18.1437 47.1383 18.1006 47.3097 18.0361C47.3954 18.3589 47.5883 18.6387 47.8668 18.7893C47.5026 18.94 47.1597 19.0261 46.8383 19.0261C46.5598 19.0261 46.3027 18.9615 46.067 18.8324C45.467 18.488 44.8671 17.5841 45.3385 15.2381L45.3171 15.2596ZM45.5742 9.40543C43.6672 9.85741 42.4673 10.5677 42.4459 11.2349C42.4459 11.6438 43.003 12.268 44.5671 12.806C46.0884 13.3441 48.1239 13.6239 50.3094 13.6454H50.4808C50.7808 13.6454 51.0808 13.6454 51.3808 13.6239C51.1665 13.9467 50.9308 14.2696 50.7165 14.5494C50.6308 14.5494 50.5665 14.5494 50.4808 14.5494H50.3094C48.0382 14.5494 45.8956 14.2265 44.2886 13.6669C42.0388 12.8706 41.5674 11.9021 41.5674 11.2133C41.5674 9.96503 43.153 9.06107 45.2956 8.54453C45.2742 8.45844 45.5956 9.42696 45.5742 9.40543ZM44.5671 6.69357C44.5671 6.1555 44.9957 5.72505 45.5313 5.72505C46.067 5.72505 46.4955 6.1555 46.4955 6.69357C46.4955 7.23164 46.067 7.66209 45.5313 7.66209C44.9957 7.66209 44.5671 7.23164 44.5671 6.69357ZM50.3523 8.00646C50.3523 8.00646 50.588 8.00646 50.7165 8.00646C50.9308 8.30778 51.1451 8.60909 51.3593 8.93194C51.0379 8.93194 50.6737 8.91041 50.3309 8.91041H50.1594C49.8809 8.91041 49.6024 8.91041 49.3452 8.91041C49.5595 8.58757 49.7738 8.28625 49.988 7.98493C50.0523 7.98493 50.0952 7.98493 50.1594 7.98493H50.3309L50.3523 8.00646ZM53.1806 9.10412C52.9877 8.78128 52.7735 8.43691 52.5592 8.11407C53.052 8.15712 53.5234 8.22168 53.9734 8.30778C53.8877 8.58757 53.7805 8.88889 53.6734 9.19021C53.502 9.16868 53.352 9.14716 53.1806 9.12564V9.10412ZM53.1592 9.62066C53.2234 9.72828 53.2877 9.85741 53.352 9.96503C53.202 10.3094 53.052 10.6538 52.8806 10.9981C52.7306 10.6968 52.5592 10.374 52.3878 10.0726C51.7879 9.01803 51.1451 8.09255 50.5451 7.31773C50.738 7.05946 50.9522 6.84423 51.1451 6.60748C51.895 7.53296 52.5806 8.56605 53.1806 9.62066H53.1592ZM51.3593 11.3425C51.3593 11.8805 50.9308 12.311 50.3951 12.311C49.8595 12.311 49.4309 11.8805 49.4309 11.3425C49.4309 10.8044 49.8595 10.374 50.3951 10.374C50.9308 10.374 51.3593 10.8044 51.3593 11.3425ZM48.2953 12.4401C48.4668 12.7415 48.6596 13.0428 48.831 13.3226C48.4453 13.3011 48.0811 13.258 47.6954 13.215C47.6311 13.1073 47.5668 12.9997 47.5026 12.8921C46.5384 11.2133 45.8099 9.44848 45.4028 7.92037C45.4456 7.92037 45.4885 7.92037 45.5313 7.92037C45.8099 7.92037 46.067 7.81275 46.2812 7.66209C46.6669 9.12564 47.3526 10.7829 48.2953 12.4186V12.4401ZM46.5169 11.6438C46.6884 11.9882 46.8598 12.3325 47.0526 12.6769C46.9883 12.806 46.9455 12.9567 46.8812 13.1073C46.5598 13.0643 46.2598 12.9997 45.9813 12.9352C46.1313 12.5262 46.3241 12.0743 46.5169 11.6653V11.6438ZM47.0312 9.14716C46.924 8.84584 46.8169 8.56605 46.7312 8.26473C47.2026 8.20016 47.674 8.13559 48.1668 8.09255C47.9525 8.41539 47.7597 8.73823 47.5454 9.06107C47.374 9.06107 47.2026 9.10412 47.0312 9.12564V9.14716ZM46.7312 4.32607C46.6026 4.32607 46.4955 4.34759 46.4098 4.41216C46.1313 4.56282 45.9813 4.97175 45.9599 5.55287C45.8313 5.4883 45.6813 5.46677 45.5099 5.46677C45.3385 5.46677 45.1885 5.50982 45.0599 5.55287C45.0814 4.735 45.3171 4.00323 45.9599 3.61582C46.1955 3.48668 46.4527 3.42211 46.7312 3.42211C47.7597 3.42211 48.981 4.2615 50.1594 5.50982C49.9666 5.72505 49.7523 5.9618 49.5595 6.19855C48.4025 4.97175 47.374 4.32607 46.7312 4.32607ZM48.7024 14.7861C49.0881 14.8076 49.4738 14.8292 49.8595 14.8507C49.9666 15.0013 50.0737 15.1305 50.1809 15.2596C49.988 15.4964 49.7738 15.7331 49.5809 15.9483C49.281 15.5825 49.0024 15.1735 48.7239 14.7861H48.7024ZM47.524 17.7563C47.524 17.2182 47.9525 16.7877 48.4882 16.7877C49.0238 16.7877 49.4524 17.2182 49.4524 17.7563C49.4524 18.2943 49.0238 18.7248 48.4882 18.7248C47.9525 18.7248 47.524 18.2943 47.524 17.7563ZM49.1953 16.7447C50.2023 15.7762 51.3593 14.3126 52.4521 12.3971C53.5234 10.5246 54.2733 8.63062 54.5947 7.05946C54.8947 5.61743 54.7876 4.62739 54.3162 4.36911C54.2305 4.32607 54.1233 4.28302 53.9948 4.28302C52.8592 4.28302 50.4808 6.30616 48.3596 10.0296C48.1882 10.3524 48.0168 10.6753 47.8454 10.9766C47.674 10.6322 47.524 10.2879 47.374 9.9435C47.4383 9.81437 47.5026 9.70675 47.5668 9.57762C49.3238 6.47834 52.0021 3.35755 53.9948 3.35755C54.2733 3.35755 54.5304 3.42211 54.7661 3.55125C55.8375 4.15389 55.7518 5.83266 55.5161 7.1025C55.1947 8.75975 54.359 10.8475 53.2449 12.8275C52.2592 14.5709 50.9737 16.2927 49.7095 17.498C49.6452 17.1751 49.4524 16.8953 49.1953 16.7232V16.7447ZM52.5592 14.4633C52.7735 14.1404 52.9877 13.8176 53.1806 13.4948C53.3306 13.4948 53.502 13.4517 53.652 13.4302C53.7591 13.7315 53.8662 14.0113 53.9519 14.2911C53.502 14.3557 53.0306 14.4202 52.5592 14.4633ZM51.1451 16.3788C52.2807 17.5626 53.2877 18.1867 53.9305 18.1867C54.0591 18.1867 54.1662 18.1652 54.2519 18.1006C54.5947 17.9069 54.8733 17.0891 54.5519 15.4748C54.3805 14.6139 54.0805 13.6669 53.6734 12.6769C53.8662 12.3325 54.0376 11.9882 54.2091 11.6438C54.809 12.9352 55.2161 14.1835 55.4518 15.3027C55.9232 17.6702 55.3018 18.5741 54.7233 18.897C54.4876 19.0261 54.2305 19.0907 53.9519 19.0907C52.9235 19.0907 51.7236 18.2728 50.5666 17.046C50.7808 16.8308 50.9737 16.594 51.1879 16.3573L51.1451 16.3788ZM55.4089 14.0543C55.3232 13.753 55.2161 13.4732 55.109 13.1504C55.4518 13.0643 55.7518 12.9782 56.0517 12.8921C56.0517 12.9136 56.0517 12.9352 56.0517 12.9782C56.0517 13.2795 56.1589 13.5378 56.3303 13.753C56.0303 13.8606 55.7303 13.9467 55.4089 14.0328C55.4089 14.0328 55.4089 14.0328 55.4089 14.0543ZM56.3089 12.9567C56.3089 12.4186 56.7374 11.9882 57.273 11.9882C57.8087 11.9882 58.2372 12.4186 58.2372 12.9567C58.2372 13.4948 57.8087 13.9252 57.273 13.9252C56.7374 13.9252 56.3089 13.4948 56.3089 12.9567ZM57.8944 11.9021C58.0873 11.7084 58.173 11.5362 58.173 11.3425C58.173 10.9335 57.6159 10.3094 56.0517 9.77132C55.7518 9.66371 55.4304 9.57762 55.109 9.49153C55.2161 9.19021 55.3232 8.91041 55.4089 8.63062C55.7303 8.71671 56.0517 8.8028 56.3517 8.91041C58.6015 9.70675 59.0943 10.6753 59.0729 11.364C59.0729 11.8375 58.8372 12.268 58.4301 12.6338C58.3444 12.3325 58.1515 12.0743 57.873 11.9236L57.8944 11.9021ZM37.1321 12.1603C37.1321 12.1603 36.8536 13.9898 35.9965 14.9798L35.9108 15.0659L37.1964 16.3788C37.1964 16.3788 37.4107 16.8738 37.2393 17.1321C37.0893 17.3473 36.8107 17.6056 36.4679 17.6056C36.2965 17.6056 36.1251 17.541 35.9751 17.4119L34.8181 16.2281L34.7324 16.3142C34.7324 16.3142 33.6396 17.2612 31.9041 17.6056H31.7969V19.2413C31.7969 19.2413 31.5612 19.887 31.0042 19.887C30.9613 19.887 30.3614 19.887 30.2114 19.3059V17.6702H30.0828C30.0828 17.6702 28.5187 17.5626 27.0617 16.5079L26.976 16.4434L25.9261 17.4765C25.9261 17.4765 25.7118 17.6056 25.4333 17.6056C25.219 17.6056 25.0262 17.5195 24.8762 17.3258C24.4262 16.8093 24.8119 16.3142 24.8333 16.3142L25.8404 15.3457L25.7547 15.2381C25.7547 15.2381 24.6833 13.8822 24.4476 12.1819V12.0743L22.9049 12.0527C22.7764 12.0097 22.1979 11.7945 22.3693 10.9981C22.3693 10.9981 22.5621 10.5246 23.0335 10.4816H24.4262V10.374C24.4262 10.374 24.6833 8.523 25.7118 7.27468L25.7975 7.18859L24.7476 6.09093C24.7048 5.98332 24.4691 5.35916 25.1119 4.99327C25.1119 4.99327 25.2404 4.90718 25.4118 4.90718C25.669 4.90718 25.9046 5.03632 26.1618 5.29459L26.9545 6.06941L27.0402 5.98332C27.0402 5.98332 28.3044 4.99327 29.9971 4.84262H30.2114V3.18536C30.2114 3.18536 30.2757 2.79796 30.747 2.60425C30.8113 2.58273 30.8756 2.56121 30.9613 2.56121C31.3684 2.56121 31.7541 2.97014 31.7755 3.16384C31.7755 3.46516 31.7755 4.735 31.7755 4.75652V4.88566H31.8826C31.8826 4.88566 33.6182 5.14393 34.7324 6.17702L34.8181 6.26312L36.018 5.05784C36.018 5.05784 36.2751 4.88566 36.5322 4.88566C36.7465 4.88566 36.9393 4.99327 37.0893 5.18698C37.1536 5.25155 37.5821 5.74657 36.9607 6.34921C36.2108 7.05946 36.018 7.29621 35.9965 7.29621L35.9108 7.3823L35.9751 7.46839C35.9751 7.46839 37.025 9.06107 37.1107 10.3094V10.4385L38.9748 10.4816C39.0605 10.5031 39.3391 10.6538 39.4676 10.9335C39.5533 11.1273 39.5533 11.3855 39.4248 11.6653C39.4248 11.6653 39.2534 11.9882 38.6534 12.0527H37.1321V12.1603ZM6.3851 15.2596C6.44938 14.9583 6.51366 14.6139 6.62079 14.3126C6.74935 14.3341 6.87791 14.3772 7.02789 14.3987C7.02789 14.3987 7.04932 14.3987 7.07075 14.3987C7.22073 14.4202 7.37072 14.4633 7.5207 14.4848C7.435 14.7861 7.32786 15.152 7.28501 15.4318C6.96361 17.0675 7.22073 17.8639 7.58498 18.0576C7.67069 18.1006 7.77782 18.1437 7.90638 18.1437C8.03494 18.1437 8.20635 18.1006 8.37776 18.0361C8.46347 18.3589 8.65631 18.6387 8.93485 18.7893C8.5706 18.94 8.22778 19.0261 7.90638 19.0261C7.62784 19.0261 7.37072 18.9615 7.13503 18.8324C6.53508 18.488 5.93514 17.5841 6.40652 15.2381L6.3851 15.2596ZM6.66364 9.40543C4.75668 9.85741 3.5568 10.5677 3.5568 11.2349C3.5568 11.6438 4.11389 12.268 5.67802 12.806C7.19931 13.3441 9.23482 13.6239 11.4203 13.6454H11.5917C11.8917 13.6454 12.1917 13.6454 12.4917 13.6239C12.2774 13.9467 12.0417 14.2696 11.8274 14.5494C11.7417 14.5494 11.6774 14.5494 11.5917 14.5494H11.4203C9.14912 14.5494 7.00647 14.2265 5.39948 13.6669C3.1497 12.8706 2.65689 11.9021 2.67831 11.2133C2.67831 9.96503 4.26387 9.06107 6.40652 8.54453C6.3851 8.45844 6.7065 9.42696 6.68507 9.40543H6.66364ZM5.6566 6.69357C5.6566 6.1555 6.08513 5.72505 6.62079 5.72505C7.15645 5.72505 7.58498 6.1555 7.58498 6.69357C7.58498 7.23164 7.15645 7.66209 6.62079 7.66209C6.08513 7.66209 5.6566 7.23164 5.6566 6.69357ZM11.4203 8.00646C11.4203 8.00646 11.6774 8.00646 11.7846 8.00646C11.9988 8.30778 12.2131 8.60909 12.4274 8.93194C12.106 8.93194 11.7417 8.91041 11.3989 8.91041H11.2275C10.9489 8.91041 10.6704 8.91041 10.4133 8.91041C10.6275 8.58757 10.8418 8.28625 11.0561 7.98493C11.1204 7.98493 11.1632 7.98493 11.2275 7.98493H11.3989L11.4203 8.00646ZM14.2701 9.10412C14.0772 8.78128 13.8629 8.43691 13.6487 8.11407C14.1415 8.15712 14.6129 8.22168 15.0628 8.30778C14.9771 8.58757 14.87 8.88889 14.7629 9.19021C14.6129 9.16868 14.4415 9.14716 14.2701 9.12564V9.10412ZM14.2486 9.62066C14.3129 9.72828 14.3772 9.85741 14.4415 9.96503C14.2915 10.3094 14.1415 10.6538 13.9701 10.9981C13.8201 10.6968 13.6487 10.374 13.4773 10.0726C12.8773 9.01803 12.2345 8.09255 11.6346 7.31773C11.8274 7.05946 12.0417 6.84423 12.2345 6.60748C12.9845 7.53296 13.6701 8.56605 14.2701 9.62066H14.2486ZM12.4488 11.3425C12.4488 11.8805 12.0203 12.311 11.4846 12.311C10.9489 12.311 10.5204 11.8805 10.5204 11.3425C10.5204 10.8044 10.9489 10.374 11.4846 10.374C12.0203 10.374 12.4488 10.8044 12.4488 11.3425ZM9.36338 12.4401C9.53479 12.7415 9.72763 13.0428 9.89904 13.3226C9.51337 13.3011 9.14912 13.258 8.76344 13.215C8.69916 13.1073 8.63488 12.9997 8.5706 12.8921C7.60641 11.2133 6.87791 9.44848 6.4708 7.92037C6.51366 7.92037 6.55651 7.92037 6.59936 7.92037C6.87791 7.92037 7.13503 7.81275 7.34929 7.66209C7.71354 9.12564 8.42062 10.7829 9.36338 12.4186V12.4401ZM7.60641 11.6438C7.77782 11.9882 7.94923 12.3325 8.14207 12.6769C8.07779 12.806 8.03494 12.9567 7.97066 13.1073C7.64926 13.0643 7.34929 12.9997 7.07075 12.9352C7.22073 12.5262 7.41357 12.0743 7.60641 11.6653V11.6438ZM8.12064 9.14716C8.01351 8.84584 7.90638 8.56605 7.82067 8.26473C8.29206 8.20016 8.76344 8.13559 9.25625 8.09255C9.04198 8.41539 8.84915 8.73823 8.65631 9.06107C8.4849 9.06107 8.29206 9.10412 8.14207 9.12564L8.12064 9.14716ZM7.82067 4.32607C7.69211 4.32607 7.58498 4.34759 7.49928 4.41216C7.22073 4.56282 7.07075 4.97175 7.04932 5.55287C6.92076 5.4883 6.77077 5.46677 6.59936 5.46677C6.42795 5.46677 6.27797 5.50982 6.14941 5.55287C6.17083 4.735 6.40652 4.00323 7.04932 3.61582C7.28501 3.48668 7.5207 3.42211 7.82067 3.42211C8.84915 3.42211 10.0705 4.2615 11.2489 5.50982C11.0346 5.72505 10.8418 5.9618 10.649 6.19855C9.49194 4.97175 8.46347 4.32607 7.82067 4.32607ZM9.79191 14.7861C10.1776 14.8076 10.5633 14.8292 10.9489 14.8507C11.0561 15.0013 11.1632 15.1305 11.2703 15.2596C11.0775 15.4964 10.8632 15.7331 10.6704 15.9483C10.3704 15.5825 10.0919 15.1735 9.81334 14.7861H9.79191ZM8.61345 17.7563C8.61345 17.2182 9.04198 16.7877 9.57765 16.7877C10.1133 16.7877 10.5418 17.2182 10.5418 17.7563C10.5418 18.2943 10.1133 18.7248 9.57765 18.7248C9.04198 18.7248 8.61345 18.2943 8.61345 17.7563ZM10.2633 16.7447C11.2918 15.7762 12.4274 14.3126 13.5201 12.3971C14.5914 10.5246 15.3414 8.63062 15.6628 7.05946C15.9627 5.61743 15.8556 4.62739 15.3842 4.36911C15.2985 4.32607 15.1914 4.28302 15.0628 4.28302C13.9272 4.28302 11.5489 6.30616 9.42766 10.0296C9.23482 10.3524 9.08484 10.6753 8.91343 10.9766C8.74201 10.6322 8.59203 10.2879 8.44204 9.9435C8.50632 9.81437 8.5706 9.70675 8.63488 9.57762C10.3919 6.47834 13.0702 3.35755 15.0628 3.35755C15.3414 3.35755 15.5985 3.42211 15.8342 3.55125C16.9055 4.15389 16.8198 5.83266 16.5841 7.1025C16.2627 8.75975 15.4271 10.8475 14.3129 12.8275C13.3273 14.5709 12.0417 16.2927 10.7775 17.498C10.7133 17.1751 10.5204 16.8953 10.2633 16.7232V16.7447ZM13.6487 14.4633C13.8629 14.1404 14.0772 13.8176 14.2701 13.4948C14.42 13.4948 14.5914 13.4517 14.7414 13.4302C14.8486 13.7315 14.9557 14.0113 15.0414 14.2911C14.5914 14.3557 14.1201 14.4202 13.6487 14.4633ZM12.2345 16.3788C13.3701 17.5626 14.3772 18.1867 15.02 18.1867C15.1485 18.1867 15.2557 18.1652 15.3414 18.1006C15.6842 17.9069 15.9627 17.0891 15.6413 15.4748C15.4699 14.6139 15.17 13.6669 14.7629 12.6769C14.9557 12.3325 15.1271 11.9882 15.2985 11.6438C15.8985 12.9352 16.3056 14.1835 16.5413 15.3027C17.0126 17.6702 16.3913 18.5741 15.8128 18.897C15.5771 19.0261 15.32 19.0907 15.0414 19.0907C14.0129 19.0907 12.813 18.2728 11.656 17.046C11.8489 16.8308 12.0631 16.594 12.256 16.3573L12.2345 16.3788ZM16.477 14.0543C16.3913 13.753 16.2841 13.4732 16.177 13.1504C16.5198 13.0643 16.8198 12.9782 17.1198 12.8921C17.1198 12.9136 17.1198 12.9352 17.1198 12.9782C17.1198 13.2795 17.2269 13.5378 17.3983 13.753C17.0984 13.8606 16.7984 13.9467 16.477 14.0328C16.477 14.0328 16.477 14.0328 16.477 14.0543ZM17.3983 12.9567C17.3983 12.4186 17.8269 11.9882 18.3625 11.9882C18.8982 11.9882 19.3267 12.4186 19.3267 12.9567C19.3267 13.4948 18.8982 13.9252 18.3625 13.9252C17.8269 13.9252 17.3983 13.4948 17.3983 12.9567ZM18.9839 11.9021C19.1767 11.7084 19.2624 11.5362 19.2624 11.3425C19.2624 10.9335 18.7053 10.3094 17.1412 9.77132C16.8412 9.66371 16.5198 9.57762 16.1984 9.49153C16.3056 9.19021 16.4127 8.91041 16.4984 8.63062C16.8198 8.71671 17.1412 8.8028 17.4412 8.91041C19.691 9.70675 20.1838 10.6753 20.1623 11.364C20.1623 11.8375 19.9266 12.268 19.5195 12.6338C19.4338 12.3325 19.241 12.0743 18.9625 11.9236L18.9839 11.9021ZM0.685648 21.2214H9.10626V25.6981H16.7127V21.2214H26.9117V25.6981H34.4967V21.2214H44.8671V25.6981H52.3878V21.2214H61.2369V42.3567C61.2369 60.9739 38.182 79.1176 30.9613 79.1176C23.1406 79.1176 0.685648 60.9739 0.685648 42.3567V21.2214Z" fill="black"/>
<path d="M111.418 72.1657H113.496V72.5962C113.496 73.1773 113.346 73.6938 112.982 74.1243C112.618 74.5332 112.082 74.77 111.396 74.77C110.796 74.77 110.304 74.5548 109.982 74.1889C109.554 73.7154 109.447 73.1558 109.447 70.982C109.447 68.8082 109.554 68.2701 109.982 67.7751C110.304 67.4092 110.796 67.1725 111.396 67.1725C112.532 67.1725 113.175 67.7536 113.432 68.8297H115.66C115.36 66.9142 114.01 65.1924 111.396 65.1924C110.132 65.1924 109.147 65.6443 108.332 66.4407C107.175 67.6029 107.218 69.0234 107.218 70.982C107.218 72.9405 107.197 74.361 108.332 75.5233C109.125 76.3196 110.154 76.7716 111.396 76.7716C112.639 76.7716 113.689 76.4272 114.589 75.4802C115.382 74.6408 115.682 73.6508 115.682 72.0151V70.3578H111.396V72.2088L111.418 72.1657Z" fill="black"/>
<path d="M87.9344 65.2569H85.7274V76.6425H87.9344V65.2569Z" fill="black"/>
<path d="M99.9118 72.2303L95.4122 65.2569H93.441V76.6425H95.6479V69.6691L100.147 76.6425H102.119V65.2569H99.9118V72.2303Z" fill="black"/>
</svg>
