<svg xmlns="http://www.w3.org/2000/svg" height="800" width="1200" viewBox="-56.74209 -12.0615 491.76478 72.369">
    <g fill-rule="evenodd" fill="none">
        <path fill="white"
              d="M323.217 47.84c-.194.167-.446.257-.704.257h-13.75c-.435 0-.859-.23-1.038-.627-.207-.457-.087-.99.287-1.299l25.092-21.132c.559-.472.561-1.333.003-1.806L308.05 1.958c-.304-.259-.481-.655-.412-1.048.094-.541.558-.91 1.082-.91h13.232c.254 0 .501.09.704.256l27.306 22.97.247.211c.42.358.431 1.003.024 1.376l-.27.247-26.746 22.78"/>
        <path fill="white"
              d="M55.097.336h-8.39c-1.006 0-1.83.824-1.83 1.831v27.118c0 .637-.75.979-1.231.56L12.592 2.81C10.475.968 8.174.03 5.746.03 3.603.03 0 .905 0 6.757V45.99c0 1.011.819 1.83 1.83 1.83h8.385c1.01 0 1.829-.819 1.829-1.829V18.76c0-.638.751-.979 1.232-.559l31.382 27.444c1.945 1.726 4.06 2.601 6.287 2.601 2.234 0 5.98-.914 5.98-7.035V2.165c0-1.006-.823-1.829-1.828-1.829m61.373 0h-9.752c-.596 0-1.086.486-1.086 1.086v31.759c0 2.616-3.248 3.943-9.659 3.943H82.71c-6.531 0-9.847-1.327-9.847-3.943V1.422c0-.6-.486-1.086-1.087-1.086h-9.872c-.602 0-1.089.486-1.089 1.086v32.247c0 2.237.379 4.167 1.115 5.739.733 1.554 1.731 2.891 2.97 3.974 1.213 1.058 2.638 1.899 4.226 2.494 1.541.583 3.165 1.021 4.818 1.31 1.645.297 3.357.475 5.089.541 1.687.062 3.273.093 4.759.093h10.792c7.922 0 13.56-1.096 17.241-3.347 3.804-2.328 5.734-5.96 5.734-10.804V1.422c0-.6-.49-1.086-1.089-1.086m57.015 8.381v-6.25c0-1.21-.98-2.19-2.19-2.19h-47.697c-1.21 0-2.191.981-2.191 2.191v6.249c0 1.21.981 2.192 2.192 2.192h16.685c.61 0 1.105.494 1.105 1.104v33.616c0 1.21.981 2.191 2.191 2.191h7.665c1.211 0 2.193-.982 2.193-2.192V12.013c0-.61.494-1.104 1.104-1.104h16.751c1.211 0 2.192-.981 2.192-2.192m12.501 15.244l6.11-8.782c.279-.403.874-.405 1.157-.005l6.183 8.72c.288.405-.002.966-.499.966h-12.481c-.462 0-.734-.52-.47-.899zm13.445-20.412C197.788 1.255 195.613.09 192.966.09c-2.611 0-4.765 1.187-6.412 3.535L157.132 46.11c-.281.404-.261.954.079 1.342.221.251.558.368.892.368h11.566c.368 0 .714-.188.914-.497l7.389-11.368a.8762.8762 0 01.735-.399s24.635-.006 28.364-.001c.296 0 .569.148.732.395l7.556 11.382c.2.305.541.488.906.488h11.1c.399 0 .77-.222.957-.581.19-.355.167-.784-.058-1.117zM286.224.336h-8.621c-.945 0-1.712.767-1.712 1.713V29.54c0 .538-.633.826-1.039.473L243.607 2.81C241.491.968 239.186.03 236.755.03c-2.143 0-5.744.875-5.744 6.727v39.349c0 .943.771 1.714 1.714 1.714h8.618c.947 0 1.715-.768 1.715-1.715V18.504c0-.539.634-.826 1.04-.472l31.574 27.613c1.943 1.726 4.06 2.601 6.287 2.601 2.232 0 5.98-.914 5.98-7.035V2.051c0-.947-.768-1.715-1.715-1.715m16.51 0h-9.868c-.601 0-1.087.486-1.087 1.086v45.311c0 .599.486 1.087 1.087 1.087h9.868c.6 0 1.089-.488 1.089-1.087V1.422c0-.6-.489-1.086-1.089-1.086m51.444 19.823c.438.373 1.083.373 1.521.001l21.902-18.202c.304-.259.48-.655.412-1.048-.094-.541-.559-.91-1.082-.91h-13.232c-.254 0-.501.09-.704.256l-15.369 12.529c-.556.468-.558 1.323-.005 1.794l6.557 5.58m-.074 7.958c.439-.373 1.083-.374 1.522-.001l22.228 18.154c.304.258.48.655.412 1.048-.094.54-.559.91-1.082.91h-13.233c-.253 0-.5-.09-.703-.256l-15.273-12.717c-.556-.468-.558-1.323-.005-1.794l6.134-5.344"/>
    </g>
</svg>