<svg width="244" height="45" viewBox="0 0 244 45" fill="none" xmlns="http://www.w3.org/2000/svg">
<path d="M67.9868 0V45H25.3669V39.7271C26.2847 39.8203 27.2061 39.8683 28.1284 39.8713C37.9936 39.8711 55.3919 34.8302 62.8583 28.5805C61.7625 27.4686 56.433 24.9312 55.1309 23.8886C47.2785 30.6687 39.1693 36.3962 27.957 36.3963C27.0588 36.3963 26.1975 36.3332 25.3669 36.228V32.4747C26.3372 32.6475 27.3726 32.7498 28.4766 32.7498C40.527 32.7496 52.0926 18.6818 52.0926 18.6818C52.0926 18.6818 42.0209 5.48261 26.5653 6.00242C26.1645 6.01745 25.7648 6.04241 25.3669 6.07394V9.364C13.0928 10.3001 6.94642 19.375 6.94642 19.375C6.97137 19.455 11.6814 34.5062 25.3669 36.228V39.7238C6.6673 37.9584 0 18.6785 0 18.6785C0.0613172 18.6186 11.808 7.16125 25.3669 6.07174V0H67.9868Z" fill="black"/>
<path fill-rule="evenodd" clip-rule="evenodd" d="M241.309 34.9384C242.057 34.9384 242.501 35.1464 242.501 35.7879C242.501 36.3045 242.185 36.4866 241.802 36.5152L242.545 37.741H241.808L241.136 36.5625H240.849V37.741H240.227V34.9384H241.309ZM240.849 36.0894H241.393C241.673 36.0894 241.838 36.0341 241.838 35.7218C241.838 35.4336 241.517 35.4149 241.281 35.4148H240.849V36.0894Z" fill="black"/>
<path fill-rule="evenodd" clip-rule="evenodd" d="M241.296 33.7445C242.721 33.7445 244 34.6985 244 36.3435C244 37.9886 242.72 38.947 241.296 38.947C239.861 38.9469 238.585 37.9885 238.585 36.3435C238.585 34.6986 239.861 33.7446 241.296 33.7445ZM241.296 34.3442C240.226 34.3443 239.36 35.1462 239.36 36.3435C239.36 37.5423 240.225 38.3474 241.296 38.3385V38.3473C242.337 38.3473 243.218 37.5424 243.218 36.3435C243.218 35.1462 242.338 34.3442 241.296 34.3442Z" fill="black"/>
<path d="M94.127 8.46281C101.398 8.46281 108.83 10.0362 108.83 21.6989V38.0403H100.679V24.5522C100.679 20.4042 100.141 18.1382 98.8206 16.732C97.7797 15.6219 96.2885 15.1035 94.1303 15.1034L87.5661 15.0825V38.0403H79.1511V8.46501L79.1522 8.46281H94.127Z" fill="black"/>
<path d="M131.643 38.0403H119.622L110.099 8.50462L119.101 8.50682L125.769 31.9113L132.73 8.50462H141.242L131.643 38.0403Z" fill="black"/>
<path d="M153.096 38.0403H144.757L144.753 8.50352H153.096V38.0403Z" fill="black"/>
<path fill-rule="evenodd" clip-rule="evenodd" d="M169.885 8.50462C176.531 8.50464 180.982 9.31251 184.071 13.4364C185.786 15.7425 186.77 19.4453 186.77 23.596C186.77 28.1223 185.609 32.2657 183.81 34.1527C181.267 36.8404 178.915 38.0403 171.709 38.0403H158.181V8.50462H169.885ZM166.455 31.7364H170.04C175.241 31.7362 178.605 29.3997 178.605 23.3352C178.605 17.2734 175.241 14.9352 170.04 14.9351H166.455V31.7364Z" fill="black"/>
<path d="M198.992 8.50682V38.0403H190.652L190.649 8.50462L198.992 8.50682Z" fill="black"/>
<path fill-rule="evenodd" clip-rule="evenodd" d="M236.902 38.0293H227.975L226.231 32.8136H212.45L210.607 38.0293H202.384L214.028 8.51562L225.169 8.51453L236.902 38.0293ZM214.232 27.7289H224.494L219.442 13.9018L214.232 27.7289Z" fill="black"/>
<path d="M25.3669 16.9432L25.3505 16.9421C21.0098 16.421 17.6198 20.4776 17.6198 20.4776C17.6322 20.5221 19.539 27.3107 25.3669 29.2694V32.4747C14.9959 30.6266 12.1167 19.8416 12.1167 19.8416C12.1477 19.8073 17.123 14.3199 25.3669 13.4287V16.9432Z" fill="black"/>
<path d="M26.5653 9.30128C37.6513 8.95364 44.935 18.8035 44.9727 18.8545C44.9727 18.8545 37.0965 29.7951 28.6523 29.7953C27.5363 29.7998 26.4258 29.6224 25.3669 29.2694V16.9432C29.6926 17.466 30.5644 19.3773 33.1657 23.7159L38.9511 18.8369C38.9511 18.8369 34.7272 13.2956 27.6077 13.2956C26.8344 13.2956 26.0938 13.3506 25.3669 13.4287V9.364C25.7603 9.33396 26.16 9.3148 26.5653 9.30128Z" fill="black"/>
</svg>
