<svg width="260" height="70" viewBox="0 0 260 70" fill="none" xmlns="http://www.w3.org/2000/svg">
<path d="M32.4204 20.6712C32.4385 20.6753 32.4426 20.7025 32.4427 20.7139C32.4427 20.7237 32.4425 20.7563 32.4341 20.7703C32.336 20.7786 32.1333 20.7754 32.1333 20.9053C32.1333 20.9335 32.1341 20.9834 32.1521 21.0181L32.646 22.2025L33.0664 21.2198C33.1126 21.1092 33.1177 21.0104 33.1177 20.96C33.1174 20.8498 33.0385 20.8006 32.8306 20.7754C32.8264 20.7615 32.8221 20.7432 32.8221 20.7293C32.8221 20.7114 32.8265 20.6844 32.8306 20.6729H32.8904C32.9826 20.6729 33.0749 20.6831 33.2869 20.6831C33.319 20.6831 33.4678 20.6763 33.5364 20.6763H33.68C33.6895 20.6915 33.6936 20.7042 33.6936 20.7207C33.6936 20.7347 33.6888 20.7642 33.6748 20.7754C33.4953 20.7899 33.3754 20.887 33.3211 21.0113L32.564 22.7015C32.564 22.7015 32.5266 22.7255 32.5042 22.7255C32.4818 22.7251 32.4483 22.6997 32.4358 22.6469C32.4171 22.5854 32.3233 22.3501 32.1214 21.8915L31.8804 21.3394C31.7929 21.1377 31.7252 21.0029 31.701 20.96C31.6087 20.8074 31.5017 20.7947 31.3814 20.7737C31.3638 20.7558 31.3643 20.7394 31.3643 20.7242C31.3643 20.7088 31.364 20.6956 31.378 20.6746H31.5027C31.6408 20.6746 31.7607 20.6814 31.8667 20.6814C31.991 20.6814 32.1992 20.6712 32.3418 20.6712H32.4204Z" fill="black"/>
<path d="M36.7732 20.719C36.7732 20.74 36.7659 20.7524 36.7561 20.772C36.6779 20.786 36.5342 20.7857 36.4656 20.9002C36.4432 20.938 36.4229 20.9744 36.4229 21.1378V22.1034C36.4229 22.4726 36.5152 22.5109 36.5613 22.5375C36.58 22.5514 36.6953 22.5648 36.7595 22.5648C36.7735 22.583 36.7783 22.5979 36.7783 22.6161C36.7782 22.6462 36.7678 22.6476 36.7595 22.6657L35.958 22.6588H35.7307C35.7209 22.642 35.7205 22.6159 35.7205 22.6075C35.7205 22.5831 35.7204 22.5769 35.7341 22.5563C35.7803 22.5521 35.883 22.5557 35.9375 22.5375C36.0157 22.501 36.0486 22.4202 36.0486 22.2999V21.1326C36.0487 21.1293 36.0537 20.9225 36.0537 20.8626H36.0435L35.6231 21.794C35.5728 21.8961 35.5229 22.0066 35.4727 22.117C35.3792 22.3334 35.3247 22.4844 35.2966 22.57C35.2883 22.6077 35.2555 22.6075 35.2317 22.6075C35.208 22.6075 35.19 22.5985 35.1719 22.5529C35.1217 22.4328 35.0842 22.3538 35.0659 22.3033L34.396 20.837H34.3806V21.2129L34.396 22.1495C34.4003 22.4332 34.5434 22.568 34.7737 22.5682C34.7834 22.5837 34.7891 22.6105 34.7891 22.6161C34.7891 22.6273 34.7885 22.6476 34.7805 22.6639C34.7624 22.6639 34.719 22.6691 34.6729 22.6691C34.6433 22.6689 34.5009 22.6537 34.2901 22.6537C34.2257 22.6537 34.1002 22.6588 34.0081 22.6588H33.8731C33.8647 22.6421 33.8594 22.626 33.8594 22.6093C33.8596 22.6019 33.865 22.5816 33.8731 22.5665C33.9248 22.5525 34.1234 22.506 34.1653 22.464C34.2029 22.4246 34.2387 22.3389 34.2388 22.1427L34.2422 21.671L34.2388 21.1155C34.2346 20.9522 34.2201 20.8898 34.138 20.8352C34.1059 20.8101 33.9819 20.7931 33.8799 20.7806C33.8662 20.7626 33.8612 20.7425 33.8611 20.7259C33.8611 20.7119 33.8673 20.6925 33.8799 20.6729C33.9542 20.6729 34.0964 20.6797 34.2302 20.6797H34.719C34.733 20.6937 34.7482 20.703 34.7566 20.731L35.3513 22.0829L35.4624 21.8111C35.5505 21.5941 35.6891 21.2678 35.8777 20.9139C35.9154 20.8356 35.9708 20.7349 35.9973 20.6831L36.751 20.6729C36.7593 20.688 36.7729 20.7026 36.7732 20.719Z" fill="black"/>
<path d="M31.1473 20.6729C31.1969 20.6729 31.2288 20.6733 31.243 20.6883C31.2514 20.6981 31.2481 20.7355 31.2481 20.7635V21.2762C31.2341 21.2944 31.215 21.3018 31.1968 21.3018L31.137 21.2933C31.0951 21.1702 31.0403 21.0578 30.99 20.9976C30.9118 20.8956 30.8287 20.8279 30.6192 20.8028C30.5728 20.8014 30.4623 20.8028 30.4261 20.8028L30.4209 21.6829C30.4209 21.8229 30.4205 21.9874 30.4261 22.2897C30.4305 22.5214 30.5378 22.5221 30.7781 22.5529C30.7916 22.5775 30.7918 22.5941 30.7918 22.6093C30.7918 22.6261 30.7913 22.642 30.7815 22.6588H30.6944C30.5503 22.6588 30.2747 22.6503 30.1919 22.6503C30.1319 22.6503 29.8278 22.6639 29.6793 22.6639C29.6709 22.6429 29.6639 22.6432 29.6639 22.611C29.6639 22.5957 29.67 22.5791 29.6741 22.5597C29.9926 22.5359 30.0258 22.4754 30.0398 22.3734C30.044 22.309 30.0433 22.0456 30.0433 21.7769V21.0455C30.0433 20.9559 30.0436 20.8615 30.0296 20.8028C29.9695 20.8028 29.7713 20.804 29.7151 20.825C29.5543 20.8852 29.4414 21.022 29.317 21.2642C29.2989 21.2696 29.2747 21.2694 29.2623 21.2694C29.2445 21.2692 29.2299 21.264 29.2161 21.2488V20.7344C29.2162 20.6886 29.2261 20.678 29.2776 20.678C29.3293 20.678 29.3985 20.6797 29.4947 20.6797C29.5701 20.6798 29.8608 20.6848 30.2244 20.6848C30.6996 20.6848 31.0606 20.6729 31.1473 20.6729Z" fill="black"/>
<path d="M36.7305 17.5863C36.7305 17.607 36.7263 17.6181 36.7168 17.6359C36.6329 17.6499 36.4897 17.6513 36.4211 17.7675C36.399 17.805 36.3835 17.8422 36.3835 18.005V18.9689C36.3835 19.3386 36.4766 19.3764 36.5186 19.403C36.5414 19.417 36.656 19.432 36.7202 19.4321C36.7285 19.4501 36.7356 19.4637 36.7356 19.4817C36.7356 19.5125 36.7244 19.5147 36.7202 19.5329L35.9119 19.5244H35.6897C35.6813 19.509 35.676 19.4812 35.676 19.4714C35.6761 19.4468 35.6824 19.4413 35.6948 19.4218C35.7371 19.4177 35.8429 19.4212 35.8931 19.403C35.9768 19.3666 36.0076 19.2857 36.0076 19.1655V17.7282H36.0042L35.5786 18.6579C35.5326 18.7599 35.4774 18.8708 35.4299 18.9826C35.3335 19.1996 35.2836 19.3518 35.2556 19.4372C35.2416 19.4736 35.2075 19.4731 35.1907 19.4731C35.1629 19.4731 35.1448 19.4645 35.1309 19.4184C35.0764 19.2982 35.038 19.2193 35.0198 19.1689L34.355 17.7042H34.3413V18.0785L34.355 19.0151C34.355 19.3006 34.5028 19.4337 34.7293 19.4338C34.739 19.4491 34.7479 19.4744 34.7481 19.4817C34.7481 19.4929 34.7442 19.5144 34.7344 19.5312C34.7205 19.5312 34.6753 19.5346 34.6336 19.5346C34.6056 19.5346 34.4565 19.521 34.2439 19.521C34.1838 19.521 34.0599 19.5261 33.9636 19.5261H33.8286C33.8245 19.5108 33.8184 19.4932 33.8184 19.4765C33.8184 19.4695 33.8244 19.4475 33.8286 19.4321C33.8829 19.4182 34.076 19.3731 34.1192 19.3313C34.1611 19.2921 34.1978 19.2057 34.1978 19.0083V17.9828C34.1936 17.819 34.1753 17.7554 34.0969 17.7008C34.0642 17.6758 33.9396 17.6618 33.8338 17.6478C33.8254 17.6297 33.8201 17.6082 33.8201 17.5914C33.8202 17.5775 33.8255 17.5592 33.8338 17.5385C33.912 17.5385 34.0509 17.5453 34.1892 17.5453H34.6746C34.6927 17.5592 34.7034 17.5676 34.7173 17.5966L35.312 18.9501L35.4197 18.6784C35.512 18.4614 35.6462 18.1353 35.835 17.7811C35.8768 17.703 35.928 17.6023 35.9546 17.5504L36.7117 17.5367C36.7201 17.5535 36.7305 17.5681 36.7305 17.5863Z" fill="black"/>
<path fill-rule="evenodd" clip-rule="evenodd" d="M32.5025 17.4889C32.5344 17.4889 32.5771 17.509 32.5913 17.5299C32.6093 17.5659 32.6329 17.6065 32.6375 17.629C32.7535 17.9033 32.8453 18.1493 32.9878 18.4921C33.0619 18.6656 33.0997 18.7732 33.1792 18.9536C33.2337 19.0667 33.2654 19.1527 33.3211 19.2561C33.3951 19.4058 33.514 19.4099 33.6355 19.4406C33.6398 19.4545 33.6543 19.4687 33.6543 19.4868C33.6542 19.5047 33.6438 19.5149 33.6355 19.5329H33.48C33.3779 19.5329 33.2619 19.5193 33.1416 19.5193C32.953 19.5193 32.7123 19.5329 32.6187 19.5329C32.6104 19.5245 32.605 19.5039 32.605 19.4817C32.6051 19.4677 32.6094 19.4494 32.6136 19.4355C32.8077 19.4257 32.8868 19.394 32.887 19.3159C32.887 19.2837 32.8856 19.2185 32.8255 19.0561C32.7655 18.911 32.7335 18.8429 32.7195 18.8066C32.7114 18.7931 32.7046 18.7861 32.6648 18.7861H32.0359C31.9954 18.8351 31.9449 18.9771 31.889 19.1689C31.8751 19.2191 31.8753 19.2653 31.8753 19.2834C31.8753 19.3477 31.9355 19.4227 32.1573 19.427C32.1709 19.449 32.1726 19.4678 32.1726 19.4817C32.1726 19.4956 32.1713 19.5125 32.1658 19.5278H32.1111C31.9634 19.5278 31.9206 19.5193 31.7642 19.5193C31.6631 19.5193 31.419 19.5278 31.3352 19.5278C31.3311 19.5129 31.3268 19.5058 31.3267 19.4868C31.3267 19.4728 31.3269 19.4579 31.3352 19.4355C31.4555 19.4103 31.5678 19.3757 31.6224 19.2902C31.6546 19.2411 31.7607 19.0558 31.8753 18.769C31.9869 18.5037 32.1192 18.1674 32.1795 18.0255C32.2633 17.8521 32.29 17.792 32.3179 17.7333C32.3599 17.6451 32.4074 17.5573 32.4256 17.5265C32.4436 17.5045 32.4839 17.4893 32.5025 17.4889ZM32.2256 18.2716C32.1196 18.5301 32.0831 18.6167 32.065 18.6545H32.6614C32.6152 18.5367 32.4641 18.1683 32.376 17.9486H32.3709C32.3289 18.0256 32.2536 18.1988 32.2256 18.2716Z" fill="black"/>
<path d="M31.19 17.5385C31.2403 17.5385 31.2734 17.5384 31.2874 17.5538C31.2953 17.5628 31.2909 17.5998 31.2908 17.6273V18.1418C31.277 18.1597 31.2592 18.1672 31.2413 18.1674L31.1832 18.1588C31.1412 18.0356 31.0865 17.9234 31.0362 17.8632C30.9579 17.761 30.875 17.6935 30.6653 17.6683C30.619 17.667 30.5082 17.6666 30.4705 17.6666L30.4671 18.5485C30.4671 18.6883 30.4663 18.8505 30.4705 19.1535C30.4761 19.3859 30.5834 19.3859 30.8226 19.4167C30.8365 19.4419 30.8362 19.4594 30.8362 19.4748C30.8362 19.4902 30.8357 19.5076 30.826 19.5244H30.7405C30.5965 19.5244 30.3189 19.5158 30.2364 19.5158C30.1763 19.5159 29.8721 19.5295 29.7237 19.5295C29.7153 19.5086 29.7101 19.5084 29.71 19.4765C29.71 19.4613 29.7127 19.4442 29.7169 19.4236C30.0348 19.4012 30.0685 19.3407 30.0826 19.239C30.0868 19.1746 30.086 18.911 30.086 18.6425V17.911C30.086 17.82 30.0863 17.7271 30.0723 17.6683C30.0116 17.6683 29.8137 17.6679 29.7579 17.6889C29.5971 17.7491 29.4858 17.8862 29.3614 18.1298C29.3432 18.1354 29.319 18.1349 29.305 18.1349C29.287 18.1349 29.273 18.1295 29.2606 18.1144V17.6C29.2606 17.5539 29.2687 17.5419 29.3204 17.5419C29.3721 17.5419 29.4409 17.5453 29.5374 17.5453C29.6118 17.5453 29.9023 17.5504 30.2654 17.5504C30.7421 17.5504 31.1017 17.5385 31.19 17.5385Z" fill="black"/>
<path d="M35.5479 14.4057C35.5655 14.4103 35.57 14.4372 35.5701 14.4485C35.5701 14.4583 35.5696 14.4909 35.5598 14.5049C35.4632 14.5132 35.2608 14.5098 35.2608 14.6399C35.2608 14.668 35.2615 14.718 35.2796 14.7527L35.7734 15.9371L36.1939 14.9543C36.24 14.8437 36.2434 14.7464 36.2434 14.6946C36.2432 14.5845 36.1655 14.5352 35.958 14.51C35.9538 14.496 35.9495 14.4778 35.9495 14.4638C35.9495 14.4458 35.9539 14.4188 35.958 14.4074H36.0178C36.1099 14.4075 36.2023 14.4177 36.4143 14.4177C36.4465 14.4177 36.5953 14.4109 36.6638 14.4109H36.8057C36.814 14.4261 36.8192 14.4387 36.8193 14.4553C36.8193 14.4692 36.8146 14.4985 36.8022 14.51L36.6792 14.5356C36.5668 14.5746 36.4894 14.6531 36.4485 14.7475L35.6897 16.4361C35.6897 16.4361 35.6523 16.4617 35.6299 16.4617C35.6075 16.4617 35.5755 16.4362 35.5615 16.3831C35.5431 16.3222 35.4511 16.0855 35.2488 15.626L35.0078 15.074C34.92 14.8715 34.8506 14.737 34.8267 14.6946C34.7344 14.5434 34.629 14.5293 34.5088 14.5083C34.4909 14.4902 34.49 14.474 34.49 14.4587C34.49 14.4433 34.4897 14.4301 34.5037 14.4092H34.6284C34.7669 14.4092 34.8879 14.416 34.9942 14.416C35.1187 14.416 35.3268 14.4057 35.4692 14.4057H35.5479Z" fill="black"/>
<path fill-rule="evenodd" clip-rule="evenodd" d="M33.2613 14.3528C33.436 14.3528 33.5989 14.3961 33.7876 14.4997C34.0965 14.6957 34.2763 15.0253 34.2764 15.385C34.2764 15.6664 34.1656 15.9494 33.9671 16.1524L33.8098 16.2823C33.6407 16.3936 33.4418 16.4532 33.2561 16.4532C33.0089 16.453 32.7474 16.3521 32.5589 16.1661C32.3521 15.9687 32.2598 15.6994 32.2598 15.4055C32.2599 15.1118 32.3522 14.853 32.5589 14.6501C32.7812 14.4401 33.0221 14.3528 33.2613 14.3528ZM33.2476 14.4844C33.0814 14.4844 32.9745 14.5574 32.8767 14.6929C32.7566 14.8439 32.6923 15.0879 32.6922 15.397C32.6922 15.7064 32.7563 15.944 32.8682 16.0994C32.9703 16.2449 33.0851 16.3182 33.2613 16.3182C33.4737 16.3181 33.5989 16.22 33.6953 16.0464C33.7834 15.8938 33.8252 15.68 33.8252 15.4055C33.8251 15.0754 33.7601 14.8443 33.6441 14.6946L33.5672 14.604C33.484 14.5262 33.3827 14.4844 33.2476 14.4844Z" fill="black"/>
<path d="M29.939 14.4109H30.0347C30.0529 14.4179 30.0857 14.439 30.0997 14.4502L31.1421 15.5918C31.2204 15.68 31.3237 15.7962 31.3797 15.8704V15.0483C31.3797 14.9377 31.3685 14.8568 31.3643 14.8176C31.36 14.7326 31.3369 14.6609 31.3062 14.6023C31.2734 14.5521 31.0792 14.5241 30.9815 14.5031C30.9732 14.4823 30.9679 14.4587 30.9678 14.4433C30.9678 14.4323 30.9683 14.4185 30.9764 14.4006H31.0362C31.1324 14.4006 31.2886 14.4142 31.3865 14.4143C31.6228 14.4143 31.702 14.4074 31.8223 14.4074H31.8958C31.9041 14.4226 31.9093 14.444 31.9095 14.4553C31.9095 14.4651 31.9042 14.4881 31.8958 14.5049L31.7505 14.5305C31.6162 14.5798 31.5148 14.7019 31.5147 14.9441V15.9729C31.5147 16.0121 31.5283 16.3029 31.5284 16.4139C31.5004 16.4349 31.4637 16.4464 31.4498 16.4464C31.4359 16.4461 31.4213 16.4346 31.3951 16.4139L29.9869 14.8962L30.0057 15.2056L30.0091 15.7662C30.0091 15.8096 30.0189 15.9151 30.0245 15.9935C30.0384 16.1172 30.0753 16.1595 30.1253 16.2054C30.1992 16.2654 30.3139 16.2844 30.3936 16.2943C30.402 16.3111 30.409 16.3267 30.409 16.3421C30.4087 16.3485 30.4018 16.3739 30.3936 16.3917H30.2381C30.1136 16.3917 30.0108 16.3883 29.8724 16.3883C29.7844 16.3883 29.6646 16.3968 29.5767 16.3968H29.5118C29.5063 16.3831 29.5017 16.3595 29.5015 16.3507C29.5015 16.3423 29.5029 16.3218 29.5169 16.2994C29.6134 16.2894 29.77 16.243 29.8314 16.1592C29.8591 16.1087 29.8638 16.0163 29.8638 15.92V15.2039C29.8638 15.0892 29.8629 15.0299 29.8587 14.9167C29.8545 14.8245 29.8308 14.7557 29.7903 14.6997C29.7819 14.6885 29.7395 14.6388 29.6878 14.5954C29.647 14.5565 29.5319 14.5242 29.4622 14.4963C29.458 14.4781 29.4537 14.4544 29.4537 14.4502C29.4537 14.4392 29.4581 14.4134 29.4622 14.4006H29.5169C29.5547 14.4006 29.7712 14.4109 29.939 14.4109Z" fill="black"/>
<path d="M23.3595 20.678H23.4552C23.4733 20.685 23.5051 20.7061 23.515 20.7173L24.5592 21.859C24.6373 21.947 24.739 22.0616 24.795 22.1358V21.3155C24.795 21.2049 24.789 21.124 24.7848 21.0848C24.7764 20.9995 24.7574 20.9281 24.7267 20.8694C24.6944 20.8191 24.5007 20.7913 24.3985 20.7703C24.3903 20.7496 24.39 20.7259 24.39 20.7105C24.39 20.6993 24.3892 20.6842 24.3934 20.666H24.4532C24.5497 20.666 24.7074 20.6797 24.8053 20.6797C25.0456 20.6797 25.1205 20.6746 25.2393 20.6746H25.3163C25.3246 20.69 25.3248 20.7112 25.3248 20.7224C25.3248 20.7322 25.3246 20.7552 25.3163 20.772L25.1676 20.7959C25.0325 20.8452 24.9334 20.9687 24.9334 21.2112L24.93 22.2401C24.93 22.2793 24.9471 22.5703 24.9471 22.681C24.9151 22.7019 24.8829 22.7135 24.8634 22.7135C24.8535 22.7132 24.8358 22.7017 24.8138 22.681L23.4056 21.1634L23.4193 21.4727L23.4244 22.0333C23.4245 22.0769 23.4335 22.1824 23.4432 22.2606C23.4531 22.3845 23.4913 22.4264 23.5458 22.4725C23.6143 22.5325 23.7303 22.5516 23.8141 22.5614C23.8221 22.5776 23.8275 22.5926 23.8277 22.6075C23.8277 22.6131 23.8215 22.6406 23.8089 22.6588H23.6568C23.5268 22.6588 23.4253 22.6554 23.2911 22.6554C23.2033 22.6555 23.0798 22.6622 22.9921 22.6622H22.9271C22.9231 22.6482 22.922 22.6244 22.922 22.6161C22.922 22.6074 22.9228 22.5882 22.9322 22.5665C23.0329 22.5567 23.1917 22.5104 23.2518 22.4264C23.2741 22.376 23.2843 22.2836 23.2843 22.1871V21.4693C23.2843 21.3553 23.2799 21.2965 23.2757 21.1839C23.2716 21.0919 23.253 21.0227 23.2074 20.9668C23.2032 20.9556 23.1544 20.906 23.1083 20.8626C23.0635 20.8236 22.9525 20.7914 22.8827 20.7635C22.8746 20.7459 22.8694 20.7226 22.869 20.7173C22.869 20.7061 22.8729 20.6786 22.8827 20.666H22.9339C22.9759 20.666 23.1931 20.678 23.3595 20.678Z" fill="black"/>
<path d="M21.2882 20.6729C21.6338 20.6729 21.9697 20.6797 22.0453 20.6797C22.0914 20.6797 22.2272 20.6831 22.2538 20.6831C22.3007 20.6832 22.317 20.6875 22.317 20.7293L22.3461 21.1822C22.3184 21.1961 22.3132 21.2009 22.2914 21.201C22.2735 21.201 22.259 21.2015 22.2452 21.1976C22.1111 20.9709 22.0468 20.9258 21.9462 20.8489C21.9084 20.8209 21.8509 20.8064 21.7684 20.7994C21.74 20.7993 21.6693 20.7942 21.5001 20.7942C21.3628 20.7942 21.2931 20.8 21.2745 20.8028C21.2522 20.8028 21.2553 20.7996 21.2455 20.878C21.2413 20.9271 21.2369 21.0188 21.2369 21.2813V21.5394H21.307C21.3948 21.5393 21.4824 21.5297 21.5326 21.5172C21.6108 21.4962 21.694 21.4396 21.736 21.3753C21.7541 21.3515 21.7737 21.2414 21.7821 21.2078C21.796 21.1996 21.8193 21.1943 21.8453 21.1942C21.8635 21.1942 21.884 21.2 21.8966 21.2112C21.8924 21.2925 21.8778 21.4456 21.8778 21.6385C21.8778 21.7366 21.8863 21.9467 21.8863 22.035C21.8682 22.049 21.8582 22.0504 21.8317 22.0504C21.8177 22.0504 21.791 22.0489 21.777 22.0436C21.7588 21.8729 21.7298 21.7585 21.5873 21.6983C21.509 21.6661 21.4434 21.6556 21.3651 21.6556C21.3232 21.6556 21.2721 21.6603 21.2301 21.6659V22.1888C21.2301 22.3087 21.2397 22.381 21.2592 22.423C21.2731 22.4579 21.3188 22.5269 21.3788 22.5341C21.4068 22.5383 21.4574 22.5477 21.5651 22.5477H21.8505C21.9246 22.5477 22.0312 22.5376 22.0675 22.5153C22.1365 22.4684 22.3198 22.2695 22.3854 22.088C22.413 22.0769 22.4261 22.0777 22.4452 22.0777C22.4648 22.0777 22.4843 22.0816 22.5067 22.0914V22.6229C22.5063 22.6698 22.4727 22.6759 22.399 22.6759L21.3856 22.6537C21.3211 22.6537 21.1728 22.6503 21.1002 22.6503C21.0161 22.6503 20.8235 22.6639 20.6115 22.6639L20.4918 22.6605C20.482 22.6451 20.4816 22.6315 20.4816 22.6161C20.4816 22.5995 20.481 22.5763 20.485 22.5597C20.6458 22.5485 20.7643 22.5186 20.7909 22.4948C20.8229 22.454 20.8444 22.369 20.8541 22.1888C20.8542 22.0966 20.8593 21.9947 20.8593 21.8915C20.8593 21.7388 20.8541 21.5532 20.8541 21.3292V21.0181C20.8499 20.7983 20.744 20.7972 20.5175 20.772C20.5133 20.7513 20.5072 20.7329 20.5072 20.719C20.5073 20.7075 20.5137 20.6766 20.526 20.6695H20.6371C20.7117 20.6695 20.9103 20.6729 21.2882 20.6729Z" fill="black"/>
<path d="M25.1385 17.4803C25.2728 17.4803 25.4587 17.4908 25.6153 17.6154C25.6474 17.5791 25.6898 17.5402 25.7315 17.5026C25.7912 17.5028 25.8319 17.5346 25.8375 17.5555C25.8319 17.6031 25.805 17.7296 25.805 17.829C25.8052 17.8829 25.8375 18.0926 25.8375 18.1247C25.8151 18.1345 25.791 18.152 25.7589 18.152C25.7506 18.152 25.7368 18.1476 25.723 18.1435C25.6671 18.0469 25.6142 17.8851 25.5555 17.7982C25.4632 17.6737 25.3337 17.6274 25.159 17.6273C24.9605 17.6273 24.7984 17.7522 24.7984 17.923C24.7988 18.0932 24.9325 18.1666 25.0428 18.217C25.1267 18.2492 25.2272 18.2896 25.3419 18.3246C25.4901 18.375 25.6013 18.4141 25.6615 18.4477C25.8918 18.5653 25.9879 18.7366 25.9879 18.9758C25.9875 19.3423 25.6545 19.5791 25.2855 19.5791L25.1573 19.5671C25.0305 19.5464 24.9068 19.4996 24.8241 19.4577C24.8045 19.4479 24.7671 19.4406 24.7489 19.4406C24.7263 19.4409 24.6657 19.4732 24.6002 19.5193C24.5542 19.519 24.4996 19.4954 24.4857 19.4577C24.486 19.4153 24.5232 19.2915 24.5233 19.2133C24.5233 19.1658 24.5104 18.9437 24.5062 18.8886C24.5243 18.8608 24.56 18.846 24.5934 18.8459C24.6073 18.8459 24.6161 18.8466 24.6258 18.8493C24.6678 18.9305 24.7506 19.1474 24.8121 19.2356C24.9364 19.3809 25.1205 19.4456 25.2547 19.4458C25.401 19.4458 25.5133 19.4151 25.5777 19.3484C25.6699 19.2602 25.6888 19.2021 25.6888 19.1057C25.6888 19.0343 25.6747 18.9735 25.6341 18.9245C25.5825 18.8603 25.5401 18.8317 25.4256 18.7758C25.3369 18.7338 25.028 18.6582 24.9164 18.5981C24.7784 18.5338 24.7093 18.4787 24.6395 18.4032C24.5556 18.2968 24.525 18.1512 24.525 18.0392C24.5254 17.7178 24.7784 17.4807 25.1385 17.4803Z" fill="black"/>
<path d="M22.7665 17.5367C23.1174 17.5367 23.4504 17.5436 23.5287 17.5436C23.5706 17.5436 23.7059 17.5469 23.7303 17.547C23.7821 17.547 23.8004 17.5511 23.8004 17.5931L23.8226 18.046C23.7992 18.0598 23.7912 18.0648 23.7679 18.0648C23.7541 18.0648 23.7396 18.0655 23.7218 18.0614C23.5918 17.8347 23.5275 17.7897 23.4227 17.7128C23.385 17.6848 23.3341 17.6702 23.2518 17.6632C23.2238 17.6632 23.1546 17.6581 22.9784 17.6581C22.8443 17.6581 22.7702 17.6638 22.7562 17.6666C22.7284 17.6666 22.7335 17.6636 22.7237 17.7418C22.7237 17.7909 22.7203 17.8822 22.7203 18.1435V18.4015H22.7836C22.8759 18.4015 22.9647 18.3919 23.0109 18.3793C23.0947 18.3583 23.1715 18.3015 23.2176 18.2358C23.2315 18.2135 23.2559 18.1058 23.2604 18.07C23.2784 18.0617 23.3014 18.0547 23.3236 18.0546C23.3459 18.0546 23.366 18.0606 23.38 18.0717C23.3744 18.1529 23.3578 18.3057 23.3578 18.499C23.3578 18.5956 23.3714 18.809 23.3714 18.8972C23.3494 18.9109 23.3432 18.9125 23.3168 18.9125C23.2987 18.9125 23.275 18.9112 23.2569 18.9057C23.2388 18.7351 23.2153 18.619 23.069 18.5588C22.9908 18.5266 22.9245 18.5178 22.8519 18.5177C22.81 18.5177 22.7589 18.5221 22.7169 18.5263V19.0493C22.7169 19.1696 22.7251 19.2431 22.7391 19.2851C22.7574 19.3202 22.8047 19.3875 22.8605 19.3945C22.8885 19.3987 22.9441 19.4081 23.045 19.4082H23.3373C23.4111 19.4081 23.5113 19.3996 23.5492 19.3774C23.6233 19.3312 23.8081 19.1321 23.8739 18.9501C23.8962 18.939 23.9142 18.9382 23.9337 18.9382C23.9477 18.9382 23.9719 18.9421 23.9901 18.9519V19.4834C23.99 19.5307 23.9577 19.538 23.8841 19.5381L22.869 19.5193C22.8043 19.5192 22.6565 19.5158 22.5785 19.5158C22.5 19.5159 22.3012 19.5295 22.0931 19.5295L21.9735 19.5244C21.9639 19.5092 21.9598 19.4969 21.9598 19.4817C21.9598 19.4651 21.959 19.4416 21.9684 19.4236C22.1292 19.4124 22.2468 19.3838 22.2692 19.3586C22.3067 19.3179 22.3226 19.2327 22.3324 19.0527C22.3366 18.9605 22.3409 18.8586 22.3409 18.7553C22.3409 18.6027 22.3375 18.417 22.3375 18.193C22.3375 18.0384 22.3324 17.9463 22.3324 17.882C22.3282 17.6622 22.2257 17.6611 21.9991 17.6359C21.9909 17.6152 21.9855 17.5967 21.9855 17.5829C21.9857 17.5715 21.9955 17.5409 22.0077 17.5333H22.1154C22.1942 17.5334 22.3889 17.5367 22.7665 17.5367Z" fill="black"/>
<path d="M21.5463 17.5385C21.5966 17.5385 21.6311 17.5384 21.6437 17.5538C21.6518 17.5625 21.6472 17.5996 21.6471 17.6273V18.1418C21.6332 18.1597 21.6155 18.1673 21.5975 18.1674L21.5377 18.1588C21.4958 18.0357 21.4411 17.9234 21.3907 17.8632C21.3126 17.7613 21.2293 17.6936 21.0216 17.6683C20.9757 17.6669 20.8653 17.6666 20.8285 17.6666L20.8217 18.5485C20.8217 18.6883 20.8229 18.8505 20.8285 19.1535C20.8327 19.3858 20.9385 19.386 21.1788 19.4167C21.1928 19.4419 21.1925 19.4594 21.1925 19.4748C21.1925 19.4902 21.1937 19.5076 21.184 19.5244H21.0951C20.9524 19.5244 20.6748 19.5158 20.5909 19.5158C20.529 19.516 20.2259 19.5295 20.0783 19.5295C20.0699 19.5086 20.0646 19.5084 20.0646 19.4765C20.0646 19.4613 20.0707 19.4443 20.0748 19.4236C20.3923 19.4012 20.4248 19.3406 20.4389 19.239C20.443 19.1746 20.444 18.911 20.444 18.6425V17.911C20.444 17.82 20.4443 17.7271 20.4303 17.6683C20.3702 17.6683 20.1701 17.6679 20.1141 17.6889C19.9535 17.7491 19.842 17.8864 19.7177 18.1298C19.6995 18.1353 19.6755 18.1349 19.663 18.1349C19.645 18.1349 19.6307 18.1296 19.6168 18.1144V17.6C19.6168 17.554 19.6254 17.5419 19.6766 17.5419C19.7283 17.5419 19.7973 17.5453 19.8937 17.5453C19.9678 17.5453 20.2587 17.5504 20.6234 17.5504C21.0979 17.5504 21.4586 17.5385 21.5463 17.5385Z" fill="black"/>
<path d="M20.4576 14.4485C20.4576 14.4583 20.4572 14.4909 20.4474 14.5049C20.355 14.5132 20.1483 14.5098 20.1483 14.6399C20.1484 14.668 20.1533 14.718 20.1671 14.7527L20.6661 15.9371L21.0831 14.9543C21.1334 14.8438 21.1378 14.7464 21.1378 14.6946C21.1376 14.5844 21.0585 14.5352 20.8507 14.51C20.8465 14.496 20.837 14.4778 20.837 14.4638C20.8371 14.4459 20.8451 14.4189 20.8507 14.4074H20.9105C21.0028 14.4074 21.0951 14.4177 21.3019 14.4177C21.3396 14.4177 21.4829 14.4109 21.5514 14.4109H21.6949C21.7033 14.4261 21.7136 14.4387 21.7137 14.4553C21.7137 14.4692 21.7033 14.4986 21.6949 14.51C21.5112 14.5244 21.3919 14.6219 21.3361 14.7475L20.5773 16.4361C20.5773 16.4361 20.5398 16.4617 20.5175 16.4617C20.4951 16.4617 20.4673 16.4363 20.4491 16.3831C20.4306 16.3223 20.3379 16.0856 20.1398 15.626L19.8954 15.074C19.8076 14.8716 19.7382 14.737 19.7142 14.6946C19.6262 14.5435 19.5166 14.5293 19.3964 14.5083C19.3826 14.4902 19.3827 14.474 19.3827 14.4587C19.3827 14.4433 19.3829 14.4302 19.3913 14.4092H19.5143C19.6566 14.4092 19.7773 14.416 19.8834 14.416C20.0078 14.416 20.2167 14.4057 20.3551 14.4057H20.4389C20.4527 14.4099 20.4576 14.4371 20.4576 14.4485Z" fill="black"/>
<path d="M22.693 14.4074C23.0395 14.4075 23.376 14.416 23.4501 14.416C23.4961 14.416 23.6298 14.4177 23.6568 14.4177C23.7028 14.4177 23.7217 14.4222 23.7218 14.4638L23.7491 14.9185C23.7215 14.9323 23.7167 14.9355 23.6944 14.9355C23.6764 14.9355 23.6622 14.9363 23.6483 14.9321C23.5141 14.7054 23.4498 14.6621 23.3492 14.5852C23.3115 14.5572 23.2571 14.5409 23.1732 14.5339C23.1452 14.5339 23.0754 14.5305 22.9049 14.5305C22.7665 14.5305 22.6972 14.5342 22.6776 14.5356C22.6545 14.5356 22.66 14.5349 22.6503 14.6125C22.6461 14.6615 22.6417 14.7526 22.6417 15.0142V15.2739H22.7101C22.7982 15.2739 22.887 15.2643 22.9374 15.2517C23.0156 15.2307 23.0971 15.1722 23.139 15.1065C23.1571 15.0841 23.177 14.9762 23.1869 14.9407C23.2009 14.9323 23.2238 14.927 23.2518 14.927C23.2699 14.927 23.2892 14.9312 23.3031 14.9424C23.2975 15.0237 23.2843 15.1757 23.2843 15.3679C23.2843 15.4659 23.2928 15.6779 23.2928 15.7662C23.275 15.7798 23.2655 15.7815 23.2381 15.7815C23.2243 15.7815 23.1975 15.7802 23.1835 15.7747C23.1653 15.6039 23.1364 15.4897 22.9938 15.4295C22.9155 15.3973 22.8499 15.3867 22.7716 15.3867C22.7299 15.3868 22.68 15.3914 22.6383 15.397V15.9183C22.6383 16.0387 22.6461 16.1121 22.6656 16.1541C22.6796 16.189 22.7254 16.2579 22.7853 16.2652C22.8132 16.2694 22.8641 16.2789 22.9715 16.2789H23.2587C23.3328 16.2789 23.438 16.2688 23.4757 16.2464C23.5445 16.1984 23.7293 15.9991 23.7936 15.8174C23.8211 15.8064 23.8356 15.8072 23.8534 15.8072C23.8716 15.8072 23.8925 15.811 23.9149 15.8208V16.3507C23.9147 16.3978 23.8811 16.4053 23.8072 16.4053L22.7921 16.39C22.7278 16.39 22.5792 16.3848 22.505 16.3848C22.4211 16.3848 22.2257 16.3985 22.0145 16.3985L21.8949 16.3951C21.8853 16.38 21.8846 16.3674 21.8846 16.3524C21.8846 16.3356 21.8856 16.3111 21.8898 16.2943C22.0518 16.2816 22.1674 16.2531 22.194 16.2293C22.2261 16.1887 22.2505 16.1052 22.2589 15.9251C22.2589 15.8327 22.2623 15.7296 22.2623 15.626C22.2623 15.4736 22.2589 15.289 22.2589 15.0654V14.7527C22.2547 14.5331 22.1483 14.5334 21.9222 14.5083C21.918 14.4873 21.912 14.4676 21.912 14.4536C21.9122 14.4417 21.9185 14.4109 21.9308 14.404H22.0402C22.1143 14.404 22.314 14.4074 22.693 14.4074Z" fill="black"/>
<path d="M26.1639 14.4092C26.2101 14.4092 26.2431 14.4091 26.2613 14.4245V15.0125C26.2527 15.0303 26.2281 15.0364 26.21 15.0364L26.1554 15.0278C26.1078 14.9047 26.0528 14.7923 26.0067 14.7322C25.9229 14.6302 25.8453 14.5642 25.6358 14.539C25.5897 14.5376 25.4791 14.5373 25.4427 14.5373L25.4393 15.4175C25.4393 15.5575 25.4385 15.7218 25.4427 16.0242C25.447 16.2562 25.5491 16.2567 25.7879 16.2874C25.8016 16.3122 25.8066 16.3286 25.8067 16.3438C25.8067 16.3605 25.8027 16.3767 25.7931 16.3934H25.7059C25.5661 16.3934 25.2885 16.3848 25.2018 16.3848C25.1404 16.3849 24.8361 16.3985 24.6925 16.3985C24.6789 16.3782 24.6754 16.3773 24.6754 16.3455C24.6755 16.3303 24.6794 16.3136 24.6891 16.2943C25.0078 16.2705 25.0399 16.2101 25.0497 16.108C25.0594 16.0436 25.0599 15.7803 25.0599 15.5115V14.78C25.0599 14.6895 25.0536 14.5977 25.0411 14.539C24.9806 14.539 24.7862 14.5386 24.7318 14.5595C24.5714 14.6198 24.4561 14.7572 24.3319 14.9988C24.3179 15.0058 24.2946 15.0056 24.2806 15.0056C24.2625 15.0056 24.2429 14.9991 24.2345 14.9851V14.4707C24.2345 14.425 24.2389 14.4143 24.2943 14.4143C24.339 14.4143 24.4149 14.416 24.5113 14.416C24.5798 14.416 24.8723 14.4211 25.2359 14.4211C25.7161 14.4211 26.0709 14.4092 26.1639 14.4092Z" fill="black"/>
<path fill-rule="evenodd" clip-rule="evenodd" d="M27.9703 0C27.9744 0.00727428 28.0944 0.217827 28.3309 0.577665C28.4473 0.754857 28.5931 0.967379 28.7667 1.21002C29.0314 1.57999 29.3621 2.01873 29.7613 2.50208C31.1148 4.14066 33.2467 6.29531 36.1956 8.05484C36.4868 8.22859 36.7856 8.39899 37.0928 8.56414C37.7114 8.89676 38.3623 9.2103 39.0461 9.49729C39.6204 9.73826 40.2181 9.95924 40.8388 10.1587C42.5796 10.7182 44.5026 11.0988 46.6135 11.2046C47.0085 11.2244 47.4101 11.2355 47.8183 11.2354C48.0899 11.2354 48.3645 11.231 48.642 11.2217C50.104 11.1732 51.6464 10.9921 53.2716 10.656C53.8759 10.5311 54.492 10.3865 55.119 10.2168C55.1278 10.2742 56.3342 18.2059 54.003 29.249C53.9865 29.3273 53.9721 29.4062 53.9552 29.4848C53.9532 29.494 53.9503 29.5031 53.9484 29.5122C52.708 35.272 50.5028 41.8613 46.6698 48.611L46.6681 48.6127C46.299 49.2624 45.9128 49.9124 45.5129 50.5645C44.9262 51.5208 44.3061 52.4791 43.6501 53.4374C43.3728 53.8425 43.0892 54.2476 42.799 54.6526C42.5663 54.9774 42.3293 55.3021 42.0881 55.6267C41.7415 56.0932 41.386 56.5591 41.0217 57.0248C40.8903 57.1927 40.7607 57.3629 40.6269 57.5306C37.2274 61.7952 33.0646 66.007 27.9703 70C23.1958 66.2566 19.2384 62.3201 15.9613 58.3288L15.3154 57.5306L15.3136 57.5324C12.9477 54.5658 10.9529 51.5737 9.27072 48.6127L9.27243 48.611C5.43976 41.8619 3.23265 35.2734 1.99221 29.5139L1.77518 28.4714C-0.0738448 19.174 0.574228 12.2235 0.772009 10.586L0.82157 10.2185L0.823279 10.2168C1.46104 10.3896 2.08736 10.5365 2.70144 10.6629C4.31344 10.9944 5.84394 11.1734 7.29515 11.2217C7.57426 11.2311 7.8508 11.2354 8.124 11.2354C8.52456 11.2354 8.91869 11.2237 9.30661 11.2046C10.2558 11.1579 11.167 11.0563 12.041 10.9073C12.1931 10.8814 12.344 10.8539 12.4938 10.8252C13.3806 10.6552 14.2272 10.4361 15.0351 10.1792C15.6754 9.9756 16.2912 9.74846 16.8825 9.50071C24.4056 6.34795 27.9703 0 27.9703 0ZM16.298 56.5582C16.3285 56.5967 16.358 56.636 16.3886 56.6744C19.7042 60.8354 23.5975 64.7256 27.9703 68.2482C32.3415 64.7257 36.2334 60.8353 39.5503 56.6744C39.5806 56.6363 39.6088 56.5963 39.6391 56.5582L27.9703 45.0408L16.298 56.5582ZM3.40041 29.5139C4.79902 35.87 7.11605 41.9582 10.2927 47.6215L27.9703 30.4829L45.6462 47.6215C48.823 41.958 51.1415 35.8703 52.5402 29.5139H3.40041ZM16.7799 13.7717V25.8291C17.3299 25.9076 19.1612 26.1504 20.9003 26.1504C23.6677 26.128 26.3539 25.7643 26.6937 25.7181V26.5487C26.8552 26.6133 27.2981 26.7851 27.9652 26.7879C28.625 26.7907 29.0966 26.6131 29.252 26.5487V25.7181C29.7794 25.7923 32.3367 26.128 35.0437 26.1504C36.7847 26.1504 38.6162 25.9089 39.1658 25.8291L39.164 13.7734C38.8665 13.7118 38.3188 13.5903 38.0361 13.5273C38.0361 13.5273 38.0396 24.3888 38.0327 24.4824C38.0243 24.4964 37.8118 24.8596 37.3201 25.0208C36.0615 25.4408 35.122 25.3144 34.1277 25.1814C33.2414 25.0624 32.4349 24.9499 31.6548 24.8379C30.4832 24.6811 29.0473 24.2859 28.2249 25.4275L28.213 25.4463L28.1326 25.3985H27.8114L27.731 25.4463L27.7191 25.4275C27.5178 25.0976 27.1927 24.9123 26.9552 24.8157C26.1022 24.4811 25.1715 24.7161 24.2892 24.8379C23.5117 24.9499 22.7034 25.0621 21.8197 25.1797C20.8212 25.3127 19.8825 25.4391 18.6239 25.019C18.138 24.86 17.9246 24.5061 17.9113 24.4824C17.9029 24.4796 17.9107 13.5312 17.9079 13.5256C17.6269 13.5872 17.0778 13.7073 16.7799 13.7717ZM30.7696 12.066C29.8578 11.9134 28.9198 11.8968 28.2318 12.7872V24.6943C29.0567 24.0226 29.9759 24.0875 30.9183 24.2107C32.3386 24.3577 33.7283 24.6647 35.1514 24.7781C35.947 24.8285 36.9849 24.7294 37.5149 24.3081V12.3036C36.1166 12.8817 34.6106 12.6806 33.3074 12.4454C32.4573 12.2928 31.6197 12.2018 30.7696 12.066ZM27.7105 12.7855C27.0225 11.8952 26.0844 11.9117 25.1727 12.0643C24.3226 12.2001 23.485 12.2911 22.6349 12.4437C21.333 12.6789 19.8271 12.88 18.4274 12.3019V24.3047C18.956 24.7275 19.9938 24.8268 20.7909 24.7764C22.2127 24.6629 23.6036 24.3542 25.024 24.2072C25.9651 24.0826 26.8827 24.0189 27.7105 24.6909V12.7855ZM15.1769 23.2895H16.2826V21.0796H15.1769V23.2895ZM39.6614 23.2895H40.7671V21.0796H39.6614V23.2895ZM15.1769 17.5009H16.2826V15.2893H15.1769V17.5009ZM39.6614 17.5009H40.7671V15.2893H39.6614V17.5009Z" fill="black"/>
<path d="M84.7645 39.5923C85.0351 39.5924 85.0345 39.7019 85.0345 39.864L85.0362 40.2725C85.0362 40.4079 85.0362 40.5422 84.7662 40.5425C82.7317 40.5425 82.3242 41.4939 82.3241 43.3949V51.0003C82.3241 55.7535 80.9674 58.8774 74.7277 58.8774C69.4376 58.8774 67.5381 55.7535 67.5381 51.0003V43.3949C67.538 40.6792 66.996 40.5425 64.826 40.5425C64.6906 40.5425 64.5547 40.408 64.5542 40.2725V39.864C64.5545 39.7548 64.6904 39.5923 64.826 39.5923C67.5387 39.6735 69.8453 39.6735 72.6923 39.5923C72.9628 39.5925 72.9624 39.7284 72.9624 39.864V40.2725C72.9624 40.4079 72.9625 40.5423 72.6923 40.5425C70.5221 40.5425 69.8436 40.6791 69.8435 43.3949V50.0501C69.8435 53.8523 70.4949 56.9749 75.5395 56.9752C80.5848 56.9752 81.3722 53.8525 81.3722 50.0501V43.3949C81.372 40.6794 79.3386 40.5425 77.4399 40.5425C77.1691 40.5425 77.1681 40.408 77.1681 40.2725V39.864C77.1681 39.7283 77.1688 39.5923 77.4399 39.5923C81.2374 39.6735 82.3231 39.6735 84.7645 39.5923Z" fill="black"/>
<path d="M196.309 39.4555C198.859 39.4557 199.862 40.4336 200.785 41.086L201.598 40.2725C201.843 40.0009 201.87 39.9453 202.277 40.1357C202.521 40.2716 202.684 40.4084 202.684 40.5442C202.412 41.7927 201.952 42.7714 202.549 44.4819C202.658 44.889 202.657 45.0247 202.277 45.1604C201.843 45.2962 201.788 45.2701 201.598 44.7537C200.351 41.9017 198.858 40.3263 196.579 40.4075C192.891 40.5435 192.755 43.1229 192.782 43.6667C192.755 48.8273 204.012 46.2473 204.039 53.3075C204.012 57.1101 201.868 58.8757 197.934 58.8757C194.002 58.8756 193.594 57.3825 192.645 57.382C192.347 57.382 191.805 57.8153 191.56 58.0605C191.424 58.1963 191.153 58.1963 190.881 58.0605C190.366 57.7889 190.448 57.6803 190.61 56.9752C190.854 55.4813 190.826 54.8014 190.745 53.3075C190.69 52.9006 190.584 52.7648 191.016 52.629C191.559 52.4386 191.505 52.7651 191.695 53.1725C193.025 56.7032 194.653 57.9254 197.393 57.9254C201.433 57.9252 201.84 55.0732 201.868 53.851C201.842 49.2338 190.719 51.4064 190.746 44.6169C190.72 41.6292 193.161 39.4555 196.309 39.4555Z" fill="black"/>
<path d="M122.3 39.5923C122.571 39.5925 122.57 39.7284 122.57 39.864V40.2725C122.57 40.4079 122.571 40.5423 122.3 40.5425C119.181 40.5425 118.908 40.6791 118.908 48.1479V50.0501C118.908 57.655 119.181 57.6554 122.3 57.6554C122.571 57.6556 122.57 57.7914 122.57 57.9271V58.3339C122.57 58.4696 122.571 58.6054 122.3 58.6056C118.502 58.5244 117.01 58.5245 113.212 58.6056C112.941 58.6056 112.94 58.4697 112.94 58.3339V57.9271C112.94 57.7913 112.941 57.6554 113.212 57.6554C116.331 57.6554 116.603 57.6546 116.603 50.0501V48.1479C116.603 40.6795 116.331 40.5425 113.212 40.5425C112.941 40.5425 112.94 40.408 112.94 40.2725V39.864C112.94 39.7018 112.941 39.5923 113.212 39.5923C117.145 39.6735 118.502 39.6735 122.3 39.5923Z" fill="black"/>
<path d="M163.311 39.5923C163.446 39.5924 163.582 39.7283 163.582 39.864L163.852 44.0751C163.852 44.2105 163.717 44.3448 163.582 44.3452H163.311C162.904 44.3452 162.822 44.21 162.767 43.9384C162.034 40.8697 161.41 40.5691 155.742 40.5425C153.926 40.5692 153.68 40.897 153.68 42.0379V48.5563H155.581C156.531 48.5563 158.564 48.4193 158.565 45.2971C158.565 45.0261 158.699 45.0254 158.835 45.0254H159.243C159.379 45.0254 159.513 45.026 159.513 45.2971V52.9025C159.513 53.1729 159.378 53.1725 159.243 53.1725H158.835C158.699 53.1725 158.565 53.1728 158.565 52.9025C158.565 49.7798 156.531 49.5067 155.581 49.5066H153.68V53.4443C153.68 57.3826 153.952 57.6554 157.208 57.6554H158.293C164.288 57.6554 163.447 56.7043 164.532 53.581C164.642 53.3094 164.669 53.1725 165.076 53.1725H165.346C165.481 53.1725 165.616 53.1739 165.616 53.4443V58.3339C165.616 58.4696 165.616 58.6054 165.346 58.6056C153.818 58.5244 151.24 58.5244 148.391 58.6056C148.12 58.6056 148.119 58.4151 148.119 58.3339V57.9271C148.119 57.7913 148.12 57.6554 148.391 57.6554C151.239 57.6553 151.375 56.1609 151.375 50.0501V48.1479C151.375 42.0373 151.239 40.5426 148.391 40.5425C148.12 40.5425 148.119 40.408 148.119 40.2725V39.7871C148.126 39.6994 148.168 39.5923 148.391 39.5923C151.24 39.6735 153.817 39.6735 163.311 39.5923Z" fill="black"/>
<path fill-rule="evenodd" clip-rule="evenodd" d="M178.611 39.5923C181.702 39.5925 184.444 41.0869 184.444 44.2102C184.444 47.6596 181.459 49.0996 178.611 49.0998C182.028 49.1003 183.656 52.5762 184.444 55.8899C184.661 56.8137 185.691 57.6554 187.021 57.6554C187.291 57.6556 187.291 57.7649 187.291 57.9271V58.3339C187.291 58.4696 187.291 58.6054 187.021 58.6056H182.273C182.029 58.6056 181.73 58.4696 181.73 58.0622C181.73 49.8338 177.065 49.3717 175.355 49.3716H174.27C174.27 57.3831 173.998 57.6554 177.389 57.6554C177.66 57.6554 177.661 57.7913 177.661 57.9271V58.3339C177.661 58.4697 177.66 58.6056 177.389 58.6056C174.134 58.5245 172.235 58.5245 168.844 58.6056C168.573 58.6056 168.572 58.4697 168.572 58.3339V57.9271C168.572 57.7913 168.573 57.6554 168.844 57.6554C172.235 57.6554 171.963 57.3831 171.963 49.5066V48.4196C171.963 40.5436 172.235 40.5425 168.844 40.5425C168.573 40.5425 168.572 40.4345 168.572 40.2725V39.864C168.572 39.7283 168.573 39.5923 168.844 39.5923H178.611ZM174.27 48.4196H175.355C180.509 48.4195 181.323 46.6546 181.323 44.2102C181.323 42.1731 180.916 40.5426 175.355 40.5425H174.27V48.4196Z" fill="black"/>
<path d="M216.137 39.5923C216.407 39.5924 216.408 39.7284 216.408 39.864V40.2725C216.408 40.408 216.407 40.5424 216.137 40.5425C213.017 40.5425 212.744 40.6791 212.744 48.1479V50.0501C212.744 57.655 213.017 57.6554 216.137 57.6554C216.407 57.6555 216.408 57.7914 216.408 57.9271V58.3339C216.408 58.4696 216.407 58.6055 216.137 58.6056C212.339 58.5244 210.846 58.5244 207.048 58.6056C206.777 58.6056 206.777 58.4697 206.777 58.3339V57.9271C206.777 57.7913 206.777 57.6554 207.048 57.6554C210.168 57.6554 210.439 57.6548 210.439 50.0501V48.1479C210.439 40.6793 210.168 40.5425 207.048 40.5425C206.777 40.5425 206.777 40.408 206.777 40.2725V39.864C206.777 39.7018 206.777 39.5923 207.048 39.5923C210.982 39.6735 212.339 39.6735 216.137 39.5923Z" fill="black"/>
<path d="M259.228 39.5923C259.364 39.5926 259.498 39.7285 259.498 39.864V40.2725C259.498 40.4079 259.499 40.5423 259.228 40.5425C258.143 40.5425 256.596 41.4938 255.701 43.3949L251.767 51.6788C251.767 57.6543 252.174 57.6554 255.294 57.6554C255.565 57.6555 255.566 57.9263 255.566 58.0622V58.3339C255.566 58.4697 255.565 58.6056 255.294 58.6056C251.632 58.5244 249.597 58.5244 246.206 58.6056C245.935 58.6056 245.934 58.4963 245.934 58.3339V57.9271C245.934 57.7913 245.935 57.6554 246.206 57.6554C249.054 57.6554 249.462 57.6544 249.462 51.9505L244.986 43.3949C243.955 41.4392 243.738 40.5427 241.73 40.5425C241.459 40.5425 241.458 40.408 241.458 40.2725V39.864C241.458 39.7283 241.459 39.5923 241.73 39.5923C243.765 39.6735 247.427 39.6735 249.055 39.5923C249.325 39.5924 249.326 39.7284 249.326 39.864V40.2725C249.326 40.408 249.325 40.5424 249.055 40.5425C247.427 40.5425 246.342 41.0317 247.563 43.3949L251.225 50.4568L254.616 43.3949C255.565 41.4128 255.701 40.5427 252.989 40.5425C252.718 40.5425 252.717 40.408 252.717 40.2725V39.864C252.717 39.7283 252.718 39.5923 252.989 39.5923C255.701 39.6734 258.143 39.5923 259.228 39.5923Z" fill="black"/>
<path d="M92.2481 39.5923C92.3838 39.5923 92.5192 39.5932 92.6548 39.729L105.134 54.5295V44.4819C105.134 40.9509 103.64 40.5425 101.741 40.5425C101.471 40.5423 101.471 40.408 101.471 40.2725V39.864C101.471 39.7284 101.471 39.5924 101.741 39.5923C105.132 39.6735 106.082 39.6735 109.473 39.5923C109.744 39.5923 109.745 39.7283 109.745 39.864V40.2725C109.745 40.408 109.744 40.5425 109.473 40.5425C107.574 40.5426 106.082 40.9515 106.082 44.4819V58.3322C106.082 58.5131 106.037 58.6037 105.947 58.6039H105.269C105.133 58.6039 105.268 58.4682 92.3831 43.6667V53.851C92.3831 57.2462 93.7408 57.6537 95.7754 57.6537C96.0463 57.6538 96.0454 57.7897 96.0454 57.9254V58.3322C96.0454 58.4679 96.0463 58.6038 95.7754 58.6039C92.3846 58.5227 91.4345 58.5228 88.044 58.6039C87.7727 58.6039 87.7723 58.468 87.7723 58.3322V57.9254C87.7723 57.7896 87.7727 57.6537 88.044 57.6537C90.2139 57.6536 91.4346 57.2458 91.4346 53.851V42.7164C90.4851 41.3584 90.0774 40.5425 88.314 40.5425C88.0438 40.5423 88.044 40.4079 88.044 40.2725V39.864C88.044 39.7284 88.0435 39.5924 88.314 39.5923H92.2481Z" fill="black"/>
<path d="M145.013 39.5923C145.284 39.5923 145.284 39.7018 145.284 39.864V40.2725C145.284 40.408 145.283 40.5425 145.013 40.5425C143.249 40.5425 142.651 41.4937 141.892 43.3949L135.924 58.3322C135.815 58.6038 135.788 58.6039 135.653 58.6039H135.246C135.11 58.6039 135.083 58.6037 134.974 58.3322L129.006 43.3949C128.166 41.2769 127.894 40.5425 125.886 40.5425C125.616 40.5422 125.616 40.4079 125.616 40.2725V39.864C125.616 39.7284 125.616 39.5925 125.886 39.5923C127.92 39.6735 130.498 39.6469 133.754 39.5923C134.025 39.5923 134.026 39.7548 134.026 39.864V40.2725C134.026 40.408 134.025 40.5425 133.754 40.5425C130.499 40.5425 130.905 41.494 131.719 43.3949C132.342 44.8342 133.89 48.7728 136.331 54.8013L140.944 43.3949C141.215 42.742 142.027 40.5427 138.773 40.5425C138.502 40.5425 138.501 40.408 138.501 40.2725V39.864C138.501 39.7283 138.502 39.5923 138.773 39.5923C142.028 39.6735 143.927 39.5923 145.013 39.5923Z" fill="black"/>
<path d="M238.586 39.5923C238.857 39.5923 238.857 39.7283 238.857 39.864V44.8887C238.857 45.1603 238.721 45.1604 238.586 45.1604H238.314C238.179 45.1604 238.043 45.1597 237.907 44.8887C237.094 43.1232 237.365 40.5426 232.211 40.5425H230.582V50.0483C230.582 57.6535 230.855 57.6537 233.975 57.6537C234.245 57.6539 234.245 57.7897 234.245 57.9254V58.3322C234.245 58.4945 234.245 58.6037 233.975 58.6039C230.448 58.5493 228.412 58.5493 224.886 58.6039C224.616 58.6037 224.616 58.4944 224.616 58.3322V57.9254C224.616 57.7898 224.616 57.654 224.886 57.6537C228.006 57.6537 228.279 57.6535 228.279 50.0483V40.5425H226.65C221.497 40.5427 221.768 43.1233 220.954 44.8887C220.819 45.1598 220.683 45.1604 220.547 45.1604H220.276C220.14 45.1604 220.004 45.1603 220.004 44.8887V39.864C220.004 39.7283 220.005 39.5923 220.276 39.5923H238.586Z" fill="black"/>
<path d="M158.936 10.7774C162.106 10.7776 163.761 12.0261 164.763 12.8129L165.442 11.8643C165.686 11.5381 165.849 11.4568 166.12 11.5926L166.118 11.5892L166.39 11.7259C166.932 11.9973 166.823 12.0524 166.797 12.2694C166.418 15.0369 166.823 15.6895 166.932 17.1539C166.932 17.4254 166.877 17.6686 166.66 17.8324C166.172 18.1303 165.712 18.1037 165.577 17.5607C164.655 13.9783 162.243 11.9977 159.884 11.9977C155.872 12.0791 154.327 16.2045 154.326 21.2249C154.326 25.7036 156.225 29.3684 160.561 29.3686C163.272 29.3686 164.899 27.6047 165.712 26.5196C166.119 25.9764 167.066 26.3831 166.93 26.9264C163.813 33.5748 149.283 31.92 149.311 21.2266C149.284 14.9025 153.053 10.7774 158.936 10.7774Z" fill="black"/>
<path fill-rule="evenodd" clip-rule="evenodd" d="M224.758 10.7757C230.071 10.8303 234.951 15.443 234.923 20.8164C234.95 26.2444 230.071 30.8572 224.758 30.8572C219.446 30.8024 214.566 26.1896 214.593 20.8164C214.567 15.3885 219.446 10.7759 224.758 10.7757ZM224.758 11.8592C219.906 11.8862 219.581 19.1616 219.609 20.8164C219.528 22.8525 219.907 29.6904 224.758 29.772C229.61 29.7454 229.99 22.9072 229.909 20.8164C229.936 19.2148 229.611 11.9404 224.758 11.8592Z" fill="black"/>
<path fill-rule="evenodd" clip-rule="evenodd" d="M96.5974 11.4542C101.612 11.4542 103.102 13.4898 103.102 16.6104C103.102 19.5953 100.338 20.8985 97.2742 20.9532C100.636 21.6042 102.614 24.4005 103.374 27.7382C103.564 28.5794 104.621 29.475 105.949 29.5019C106.111 29.5019 106.22 29.6115 106.221 29.7737V30.1821C106.22 30.3177 106.111 30.4539 105.949 30.4539H99.5779C99.3348 30.4534 99.0365 30.236 99.0361 29.9104C98.2503 21.7696 95.0245 21.4967 93.3436 21.4967H92.3951V21.9051C92.3951 27.9567 92.3952 29.5035 95.2405 29.5036C95.4027 29.5036 95.5122 29.613 95.5122 29.7754V30.1821C95.5122 30.3179 95.4027 30.4539 95.2405 30.4539C91.988 30.3727 88.5998 30.3727 85.3473 30.4539C85.1851 30.4539 85.0756 30.3725 85.0756 30.1821V29.7754C85.0756 29.6662 85.1851 29.5036 85.3473 29.5036C88.1927 29.5036 88.1927 28.0114 88.1927 21.9051V20.0046C88.1927 13.9522 88.1929 12.4045 85.3473 12.4044C85.1851 12.4044 85.0756 12.2951 85.0756 12.1327V11.7259C85.0756 11.5901 85.1851 11.4542 85.3473 11.4542H96.5974ZM92.3934 20.4097H95.3772C96.4613 20.4093 98.6294 19.596 98.6294 16.6104C98.6293 15.118 98.0333 12.5397 94.6988 12.5394H92.3934V20.4097Z" fill="black"/>
<path d="M121.02 11.4542C121.156 11.4543 121.292 11.5902 121.292 11.7259V12.1327C121.292 12.2684 121.156 12.4043 121.02 12.4044C117.903 12.4044 117.496 13.8709 117.496 20.0046V21.9051C117.496 28.0115 117.903 29.5036 121.02 29.5036C121.156 29.5038 121.292 29.6397 121.292 29.7754V30.1821C121.292 30.3179 121.156 30.4537 121.02 30.4539H109.77C109.635 30.4539 109.498 30.3179 109.498 30.1821V29.7754C109.499 29.6396 109.635 29.5036 109.77 29.5036C112.887 29.5036 113.294 27.9834 113.294 21.9051V20.0046C113.294 13.9256 112.887 12.4045 109.77 12.4044C109.608 12.4044 109.498 12.2685 109.498 12.1327V11.7259C109.498 11.5635 109.608 11.4542 109.77 11.4542C113.565 11.5354 117.225 11.4542 121.02 11.4542Z" fill="black"/>
<path d="M147.576 11.4542C147.738 11.4543 147.848 11.5636 147.848 11.7259L147.846 12.1327C147.846 12.2685 147.71 12.4044 147.574 12.4044C145.975 12.4044 144.05 12.8122 144.05 16.3404V30.1821C144.05 30.3177 143.914 30.4539 143.779 30.4539H143.237C143.101 30.4539 142.966 30.4527 142.83 30.3172L130.495 16.2054V25.5677C130.495 29.0958 132.421 29.5036 134.02 29.5036C134.156 29.5042 134.29 29.6399 134.29 29.7754V30.1821C134.29 30.3443 134.182 30.4535 134.02 30.4539C131.31 30.3727 128.598 30.3727 125.887 30.4539C125.726 30.4537 125.617 30.3444 125.617 30.1821V29.7754C125.618 29.6398 125.752 29.504 125.887 29.5036C127.487 29.5036 129.411 29.0958 129.411 25.5677V15.3919C128.435 13.9542 127.298 12.5689 126.024 12.4061C125.889 12.4061 125.752 12.2702 125.752 12.1344V11.7276C125.752 11.5652 125.862 11.4559 126.024 11.4559H132.124C132.259 11.4559 132.421 11.4555 132.53 11.5909L142.967 24.2124V16.3404C142.967 12.8126 141.043 12.4045 139.443 12.4044C139.307 12.4044 139.171 12.2685 139.171 12.1327V11.7259C139.171 11.5635 139.281 11.4542 139.443 11.4542C142.154 11.5354 144.865 11.5354 147.576 11.4542Z" fill="black"/>
<path d="M211.688 11.4542C211.824 11.4543 211.96 11.5902 211.96 11.7259V16.7472C211.959 16.8826 211.823 17.0187 211.688 17.0189H211.281C211.146 17.0189 210.984 17.0445 210.875 16.7472C210.251 14.9832 209.193 12.4031 205.589 12.4027H204.369V21.9034C204.369 27.982 204.748 29.5019 207.892 29.5019C208.028 29.5019 208.164 29.638 208.164 29.7737V30.1821C208.164 30.3177 208.028 30.4539 207.892 30.4539C204.097 30.3727 200.438 30.3727 196.642 30.4539C196.507 30.4537 196.371 30.3177 196.371 30.1821V29.7737C196.371 29.6381 196.507 29.5021 196.642 29.5019C199.787 29.5019 200.166 27.9821 200.166 21.9034V12.4027H198.948C195.369 12.4027 194.312 14.9831 193.662 16.7472C193.553 17.0184 193.389 17.0189 193.253 17.0189H192.847C192.711 17.0185 192.577 16.8825 192.577 16.7472V11.7259C192.577 11.5903 192.711 11.4546 192.847 11.4542H211.688Z" fill="black"/>
<path d="M259.23 11.4542C259.392 11.4545 259.5 11.5638 259.5 11.7259L259.498 12.1327C259.498 12.2683 259.364 12.4041 259.228 12.4044C257.629 12.4044 255.704 12.8122 255.704 16.3404V30.1821C255.704 30.3177 255.568 30.4538 255.433 30.4539H254.889C254.754 30.4539 254.618 30.4527 254.482 30.3172L242.149 16.2054V25.5677C242.149 29.0955 244.073 29.5036 245.673 29.5036C245.808 29.5036 245.944 29.6396 245.944 29.7754V30.1821C245.944 30.3445 245.835 30.4539 245.673 30.4539C242.963 30.3727 240.251 30.3727 237.541 30.4539C237.379 30.4539 237.27 30.3445 237.27 30.1821V29.7754C237.27 29.6396 237.406 29.5036 237.541 29.5036C239.141 29.5036 241.065 29.0958 241.065 25.5677V15.3919C240.089 13.954 238.95 12.5685 237.676 12.4061C237.541 12.4057 237.406 12.27 237.406 12.1344V11.7276C237.406 11.5654 237.515 11.4562 237.676 11.4559H243.777C243.913 11.4559 244.075 11.4554 244.184 11.5909L254.619 24.2124V16.3404C254.619 12.8122 252.695 12.4044 251.095 12.4044C250.96 12.4039 250.825 12.2682 250.825 12.1327V11.7259C250.825 11.5638 250.934 11.4545 251.095 11.4542C253.807 11.5354 256.518 11.5354 259.23 11.4542Z" fill="black"/>
<path fill-rule="evenodd" clip-rule="evenodd" d="M76.0761 11.4525C81.0904 11.4525 82.5804 13.4881 82.5805 16.6087L82.5822 16.6104C82.5821 20.5458 79.7369 21.4949 75.3994 21.4949H71.8755V21.9034C71.8755 27.9552 71.8753 29.5019 74.7209 29.5019C74.8565 29.502 74.9926 29.6379 74.9926 29.7737V30.1804C74.9926 30.3162 74.8565 30.4521 74.7209 30.4522C71.4683 30.371 68.0799 30.371 64.826 30.4522C64.6903 30.4522 64.5542 30.3162 64.5542 30.1804V29.7737C64.5543 29.6379 64.6638 29.5019 64.826 29.5019C67.6727 29.5018 67.6731 28.0096 67.6731 21.9034V20.0029C67.6731 13.9506 67.6728 12.4028 64.826 12.4027C64.6903 12.4027 64.5542 12.2668 64.5542 12.131V11.7242C64.5542 11.5884 64.6903 11.4525 64.826 11.4525H76.0761ZM71.8737 20.4097H74.5859C76.0765 20.4094 78.1097 19.5962 78.1098 16.6104C78.1098 14.3031 77.2959 12.5394 74.1774 12.5394H71.8737V20.4097Z" fill="black"/>
<path d="M187.315 11.4525C187.45 11.4525 187.586 11.5884 187.586 11.7242L187.858 15.9319C187.858 16.0675 187.722 16.2037 187.586 16.2037H187.045C186.773 16.2037 186.61 16.0668 186.501 15.7952C185.308 12.7013 182.57 12.4293 179.453 12.4027C178.342 12.4293 178.098 12.7295 178.098 14.3032V20.4097H179.86C180.808 20.4097 182.842 20.2743 182.842 17.1539C182.842 17.0183 182.977 16.8826 183.112 16.8822H183.521C183.656 16.8827 183.791 17.0184 183.791 17.1539C183.71 19.7325 183.71 22.1739 183.791 24.7524C183.791 24.888 183.656 25.0236 183.521 25.0242H183.112C182.977 25.0237 182.842 24.888 182.842 24.7524C182.842 21.6323 180.808 21.4967 179.86 21.4967H178.098V24.4807C178.098 28.7955 178.803 29.5019 182.029 29.5019H182.572C185.337 29.5019 187.153 28.7684 188.265 25.4309C188.4 25.1595 188.536 25.0244 188.807 25.0242H189.348C189.484 25.0242 189.62 25.1602 189.62 25.2959V30.1804C189.62 30.3162 189.484 30.4522 189.348 30.4522H171.05C170.915 30.4521 170.779 30.3162 170.779 30.1804V29.7737C170.779 29.6379 170.915 29.502 171.05 29.5019C173.896 29.5019 173.896 28.0098 173.896 21.9034V20.0029C173.896 13.8958 173.896 12.4027 171.05 12.4027C170.915 12.4027 170.779 12.2667 170.779 12.131V11.7242C170.779 11.5884 170.915 11.4525 171.05 11.4525H187.315Z" fill="black"/>
</svg>
