<?xml version="1.0" encoding="utf-8"?>
<!-- Generator: Adobe Illustrator 24.3.0, SVG Export Plug-In . SVG Version: 6.00 Build 0)  -->
<svg version="1.1" id="Layer_1" xmlns="http://www.w3.org/2000/svg" xmlns:xlink="http://www.w3.org/1999/xlink" x="0px"
     y="0px"
     viewBox="0 0 204.3 46.4" style="enable-background:new 0 0 204.3 46.4;" xml:space="preserve">
<style type="text/css">
	.st0{clip-path:url(#SVGID_2_);}
	.st1{clip-path:url(#SVGID_4_);}
	.st2{fill:#B12028;}
	.st3{fill:#000;}
	.st4{clip-path:url(#SVGID_6_);}
	.st5{fill:none;stroke:#FFFFFF;stroke-width:1.05;stroke-miterlimit:10;}
</style>
    <g>
	<defs>
		<rect id="SVGID_1_" x="-2.4" y="-5.7" width="210.9" height="55.2"/>
	</defs>
        <clipPath id="SVGID_2_">
		<use href="#SVGID_1_" style="overflow:visible;"/>
	</clipPath>
        <g class="st0">
		<g>
			<defs>
				<rect id="SVGID_3_" x="-2.4" y="-5.7" width="210.9" height="55.2"/>
			</defs>
            <clipPath id="SVGID_4_">
				<use href="#SVGID_3_" style="overflow:visible;"/>
			</clipPath>
            <g class="st1">
<!--				<path class="st2" d="M0,23.2C0,10.4,10.4,0,23.2,0s23.2,10.4,23.2,23.2C46.4,36,36,46.4,23.2,46.4c0,0,0,0,0,0-->
                <!--					C10.4,46.4,0,36,0,23.2C0,23.2,0,23.2,0,23.2"/>-->
                <path class="st3" d="M28.9,9.2h-1.6c0,0.2-0.1,0.4-0.2,0.5c-0.7,1.5-2.2,2.5-3.9,2.6c-0.6,0-1.1-0.1-1.6-0.4
					c-1-0.4-1.8-1.3-2.2-2.3c0-0.1-0.1-0.3-0.1-0.4h-1.9l-3.7,3.7l3.2,3.2l2.3-2.3H27l2.2,2.2l3.2-3.2L28.9,9.2z"/>
                <path class="st3" d="M13.8,27v-7.7l2.2-2.2l-3.2-3.2l-3.5,3.5v1.5c0.3,0.1,0.5,0.1,0.7,0.2c2.1,0.9,3.2,3.3,2.3,5.5
					c-0.5,1.3-1.7,2.2-3,2.5V29l3.5,3.5l3.2-3.2L13.8,27z"/>
                <path class="st3" d="M32.4,33.5l-3.2-3.2L27,32.5h-7.8l-2.3-2.3l-3.2,3.2l3.6,3.7h1.9c0-0.1,0.1-0.3,0.1-0.4
					c0.7-1.5,2.2-2.5,3.9-2.5c0.6,0,1.2,0.1,1.7,0.3c1.1,0.5,1.9,1.4,2.3,2.6h1.6L32.4,33.5z"/>
                <path class="st3" d="M34.3,21.2c0.5-1.2,1.5-2,2.7-2.4v-1.5l-3.7-3.6L30.1,17l2.3,2.3V27l-2.3,2.3l3.2,3.2l3.7-3.7v-2
					c-0.2,0-0.4-0.1-0.5-0.2C34.4,25.8,33.4,23.3,34.3,21.2"/>
                <path class="st3" d="M24.4,5.5c-0.4-0.2-0.7-0.2-1.1-0.2c-1.6,0-2.9,1.3-2.9,2.8s1.3,2.9,2.8,2.9s2.9-1.3,2.9-2.8
					C26.1,7,25.4,5.9,24.4,5.5"/>
                <path class="st3" d="M9.4,20.3c-0.4-0.2-0.7-0.2-1.1-0.2c-1.6,0-2.8,1.3-2.8,2.8c0,1.1,0.7,2.2,1.7,2.6c0.4,0.2,0.7,0.2,1.1,0.2
					c1.6,0,2.8-1.2,2.9-2.8C11.1,21.8,10.4,20.7,9.4,20.3"/>
                <path class="st3" d="M24.4,35.7c-0.4-0.2-0.7-0.2-1.1-0.2c-1.6,0-2.8,1.3-2.8,2.8c0,1.1,0.7,2.2,1.7,2.6
					c0.4,0.2,0.7,0.2,1.1,0.2c1.6,0,2.8-1.3,2.8-2.8C26.1,37.2,25.4,36.2,24.4,35.7"/>
                <path class="st3" d="M39.3,20.3c-0.4-0.2-0.7-0.2-1.1-0.2c-1.6,0-2.8,1.2-2.9,2.8c0,1.1,0.7,2.2,1.7,2.6
					c0.4,0.2,0.7,0.2,1.1,0.2c1.6,0,2.8-1.2,2.9-2.8C41,21.8,40.4,20.7,39.3,20.3"/>
                <path class="st3" d="M53.8,14.1h3.8l0.7,2.2c2.9-1.6,6-2.5,9.3-2.7c3.7,0,7.1,1.2,7.1,11.3S71,36.3,67.3,36.3
					c-3-0.1-6-0.8-8.8-2v10.9h-4.7V14.1z M69.8,25c0-6-1.2-7.2-4.1-7.2c-2.5,0.1-5,0.8-7.2,1.9v11.1c2.3,0.9,4.7,1.4,7.2,1.5
					C68.6,32.3,69.8,31,69.8,25"/>
                <path class="st3" d="M79.4,30.5V14.1h4.7v14.8c0,2.3,0.7,3.2,3.3,3.2c2.4-0.1,4.8-0.8,7-1.8V14.1h4.7v21.8h-3.9l-0.7-2.2
					c-1.2,0.7-5.5,2.6-9.1,2.6C81.5,36.4,79.4,34.6,79.4,30.5"/>
                <rect x="105.3" y="1.2" class="st3" width="4.7" height="34.7"/>
                <path class="st3" d="M115.3,35.2l0.6-3.6c2.6,0.6,5.2,1,7.8,1.1c4.2,0,5.1-0.7,5.1-3.2c0-1.8-0.9-2.2-4.7-2.8
					c-6.9-1-8.7-1.8-8.7-6.9c0-4.9,3.1-6.5,8.9-6.5c2.7,0,5.4,0.2,8.1,0.7l-0.6,3.6c-2.5-0.4-5-0.6-7.6-0.7c-3.3,0-4.3,0.7-4.3,2.7
					c0,2.2,0.9,2.4,5.6,3c6.2,0.7,7.9,2.1,7.9,6.5c0,6-3.4,7.1-9.9,7.1C120.8,36.4,118,36,115.3,35.2"/>
                <path class="st3" d="M136.8,29.5c0-2.6,0.5-4.5,2-5.4c2.4-1.4,5.7-1.6,12.3-1.6v-1c0-3.1-0.5-4.3-4-4.3c-2.5,0-5,0.3-7.5,0.8
					l-0.6-3.9c2.7-0.6,5.5-0.9,8.2-0.9c6.4,0,8.6,2,8.6,7.6v15H152l-0.7-2.3c-2.6,1.7-5.6,2.6-8.7,2.7
					C139.7,36.3,136.8,34.9,136.8,29.5 M151.1,30.6v-5c-5.4,0-7.6,0.3-8.6,0.9c-0.9,0.5-1,1.8-1,2.9c0,2.5,1,3,3,3
					C146.8,32.3,149.1,31.6,151.1,30.6"/>
                <path class="st3"
                      d="M161.6,14.1h3.8l0.7,2.5c2.5-1.6,5.2-2.6,8.1-3.1l0.6,4.4c-2.5,0.3-6.5,1.1-8.4,2.2v15.8h-4.7V14.1z"/>
                <path class="st3" d="M175.8,29.5c0-2.6,0.5-4.5,2-5.4c2.4-1.4,5.7-1.6,12.3-1.6v-1c0-3.1-0.5-4.3-4-4.3c-2.5,0-5,0.3-7.5,0.8
					l-0.6-3.9c2.7-0.6,5.5-0.9,8.2-0.9c6.4,0,8.6,2,8.6,7.6v15h-3.8l-0.7-2.3c-2.6,1.7-5.7,2.6-8.8,2.7
					C178.7,36.3,175.8,34.9,175.8,29.5 M190.1,30.6v-5c-5.4,0-7.6,0.3-8.6,0.9c-0.9,0.5-1,1.8-1,2.9c0,2.5,1,3,3,3
					C185.8,32.3,188.1,31.6,190.1,30.6"/>
			</g>
		</g>
            <g>
			<defs>
				<rect id="SVGID_5_" x="193.6" y="2.7" width="10.8" height="10.8"/>
			</defs>
                <clipPath id="SVGID_6_">
				<use href="#SVGID_5_" style="overflow:visible;"/>
			</clipPath>
                <g class="st4">
				<path class="st5" d="M203.8,8.1c0,2.7-2.1,4.8-4.8,4.9c-2.7,0-4.8-2.1-4.9-4.8s2.1-4.8,4.8-4.9c0,0,0,0,0.1,0
					C201.6,3.3,203.8,5.4,203.8,8.1z"/>
                    <path class="st3" d="M201.4,10.8h-1.2L199,9h-1v1.7h-1.1V5.3h2.1c1.3,0,2,0.3,2,1.8c0,1.1-0.3,1.5-1,1.6L201.4,10.8z M199.1,8.1
					c0.6,0,0.9-0.1,0.9-1s-0.4-1-0.9-1H198v1.9L199.1,8.1z"/>
			</g>
		</g>
	</g>
</g>
</svg>
