<svg width="246" height="45" viewBox="0 0 246 45" fill="none" xmlns="http://www.w3.org/2000/svg">
<path d="M66.6266 12.9152C67.2831 12.9152 67.8459 13.4468 67.8459 14.1348V37.4322C67.8459 38.0889 67.2519 38.6206 66.6266 38.6206H63.4687C62.8747 38.6206 62.2807 38.1515 62.2807 37.4948V35.337C60.6861 37.6824 57.9347 39.3085 53.9328 39.3085C47.2419 39.3085 43.1149 34.868 43.1149 28.2696V14.0723C43.1149 13.4156 43.7089 12.8839 44.3343 12.8839H47.4921C48.1486 12.8839 48.6802 13.4156 48.6802 14.0723V27.3628C48.6802 31.647 50.9313 34.4927 55.371 34.4927C59.7169 34.4927 62.2807 31.5532 62.2807 27.4253V14.0723C62.2807 13.4156 62.8747 12.8839 63.4687 12.8839H66.6266M20.0409 0C9.22308 0 0.5 8.41209 0.5 19.6386C0.5 30.8965 9.22308 39.2773 20.0409 39.2773C21.8856 39.2773 23.6677 39.0271 25.3561 38.558L27.4821 44.0306C27.701 44.6247 28.1387 45 28.9204 45H32.297C33.1099 45 33.704 44.4684 33.3288 43.4364L30.5774 36.2752C35.9864 32.8666 39.5819 26.8311 39.5819 19.6074C39.5819 8.41209 30.8588 0 20.0409 0ZM28.5452 31.0528L26.0752 24.6421C25.8563 24.1105 25.4186 23.6101 24.4806 23.6101H21.2603C20.4474 23.6101 19.8221 24.1418 20.1973 25.1737L23.4489 33.5858C22.3859 33.8673 21.229 33.9924 20.0409 33.9924C12.1308 33.9924 6.50298 27.7693 6.50298 19.6386C6.50298 11.508 12.1308 5.28492 20.0409 5.28492C27.9511 5.28492 33.5789 11.508 33.5789 19.6386C33.5789 24.3919 31.6717 28.4573 28.5452 31.0528ZM245.403 37.3072C245.684 37.9639 245.34 38.5893 244.559 38.5893H241.026C240.369 38.5893 239.838 38.2766 239.619 37.6199L233.084 20.0452L226.456 37.6199C226.174 38.3079 225.706 38.5893 225.049 38.5893H221.891C221.235 38.5893 220.766 38.3079 220.484 37.6199L213.793 19.9514L207.196 37.6199C206.915 38.2766 206.446 38.5893 205.789 38.5893H202.475C201.819 38.5893 201.35 38.2766 201.068 37.6199L194.534 19.9514L187.78 37.6199C187.499 38.3079 187.03 38.5893 186.373 38.5893H183.216C182.559 38.5893 182.09 38.3079 181.809 37.6199L175.212 19.9514L168.615 37.6199C168.396 38.2766 167.864 38.5893 167.208 38.5893H163.769C162.956 38.5893 162.643 37.9326 162.924 37.3072L171.866 13.9159C172.148 13.2279 172.617 12.8839 173.273 12.8839H177.119C177.775 12.8839 178.244 13.1967 178.526 13.9159L184.967 30.9903L191.345 13.9159C191.626 13.2279 192.095 12.8839 192.752 12.8839H196.535C197.191 12.8839 197.66 13.1967 197.942 13.9159L204.257 30.9903L210.573 13.9159C210.854 13.2279 211.323 12.8839 211.98 12.8839H215.794C216.451 12.8839 216.92 13.1967 217.201 13.9159L223.611 30.9903L229.864 13.9159C230.145 13.2279 230.614 12.8839 231.271 12.8839H235.116C235.773 12.8839 236.242 13.1967 236.523 13.9159L245.403 37.3072ZM97.2355 12.9152H94.0777C93.4211 12.9152 92.8583 13.4468 92.8583 14.1348V16.2613C91.2638 13.8534 88.1372 12.1334 84.4479 12.1334C77.4757 12.1334 71.504 17.6372 71.504 25.6741C71.504 33.8047 77.507 39.2773 84.4166 39.2773C88.1685 39.2773 91.2013 37.5573 92.8896 35.1494V37.401C92.8896 38.0577 93.4836 38.5893 94.1089 38.5893H97.2668C97.9233 38.5893 98.4549 38.0577 98.4549 37.401V14.1348C98.4236 13.4468 97.8921 12.9152 97.2355 12.9152ZM85.042 34.1487C80.4459 34.1487 77.163 30.3961 77.163 25.7366C77.163 21.0146 80.4147 17.3871 85.042 17.3871C89.6067 17.3871 92.9209 21.0146 92.9209 25.7366C92.8896 30.4274 89.5755 34.1487 85.042 34.1487ZM134.91 34.9618C135.598 35.8061 135.004 36.4628 134.629 36.7443C132.44 38.4017 129.533 39.3085 126.375 39.3085C118.402 39.3085 113.087 33.4607 113.087 25.7679C113.087 18.0751 118.402 12.1647 126.375 12.1647C129.533 12.1647 132.409 13.0716 134.629 14.729C135.004 15.0104 135.536 15.5733 134.91 16.5115L133.41 18.6067C132.816 19.4197 132.128 19.2008 131.534 18.8256C130.127 17.9812 128.47 17.262 126.563 17.262C121.904 17.262 118.809 21.0146 118.809 25.7679C118.809 30.5212 121.904 34.2425 126.563 34.2425C128.501 34.2425 130.033 33.492 131.44 32.6789C132.034 32.3662 132.659 32.0848 133.316 32.9604L134.91 34.9618ZM149.793 12.196C142.289 12.196 136.317 18.0751 136.317 25.7366C136.317 33.4607 142.32 39.2773 149.793 39.2773C157.297 39.2773 163.268 33.4295 163.268 25.7366C163.3 18.1063 157.297 12.196 149.793 12.196ZM149.793 34.1174C145.197 34.1174 141.914 30.4274 141.914 25.7679C141.914 21.0459 145.166 17.4183 149.793 17.4183C154.389 17.4183 157.672 21.0459 157.672 25.7679C157.672 30.4274 154.42 34.1174 149.793 34.1174ZM108.303 0.687978C108.991 0.687978 109.492 1.28214 109.492 1.90757V37.3697C109.492 38.0264 109.023 38.5893 108.303 38.5893H105.146C104.489 38.5893 103.926 37.9951 103.926 37.3697V1.93885C103.926 1.28214 104.52 0.719249 105.146 0.719249H108.303" fill="black"/>
</svg>
