<svg version="1.1" id="Layer_1" xmlns:x="ns_extend;" xmlns:i="ns_ai;" xmlns:graph="ns_graphs;" xmlns="http://www.w3.org/2000/svg" xmlns:xlink="http://www.w3.org/1999/xlink" x="0px" y="0px" viewBox="0 0 305.9 72" style="enable-background:new 0 0 305.9 72;" xml:space="preserve">
 <style type="text/css">
  .st0{fill:none;}
	.st1{fill:#FFFFFF;}
 </style>
 <metadata>
  <sfw xmlns="ns_sfw;">
   <slices>
   </slices>
   <sliceSourceBounds bottomLeftOrigin="true" height="72" width="305.9" x="0" y="0">
   </sliceSourceBounds>
  </sfw>
 </metadata>
 <g>
  <path class="st0" d="M185.1,40.7c0,4,3.2,7.1,7.3,7.1c2.2,0.1,4.3-0.7,5.9-2.2v-9.7c-1.6-1.5-3.7-2.2-5.9-2.2
		C188.3,33.7,185.1,36.7,185.1,40.7z">
  </path>
  <path class="st0" d="M130.8,25.5L130.8,25.5l-8.9,0.1v8.3h8.9c3,0,4.7-1.9,4.7-4.2S133.8,25.5,130.8,25.5z">
  </path>
  <path class="st0" d="M263.1,46.3c0,1.7,1.7,2.8,4.3,2.8c1.8,0,3.7-0.4,5.3-1.3v-3.6c-1.6-0.4-3.3-0.6-5-0.6
		C264.9,43.6,263.1,44.5,263.1,46.3z">
  </path>
  <path class="st0" d="M159.8,33.2c-2.9,0-5,1.7-5.8,4.4h11.6C164.7,34.9,162.5,33.2,159.8,33.2z">
  </path>
  <path class="st1" d="M78.8,32.8c0-0.4,0-0.8-0.1-1.2l-0.1-0.5l-3.7-16.2C74,11.3,73.3,9.7,67,6.6C62.2,4.1,51.6,0,48.5,0
		c-2.9,0-3.8,3.8-7.2,3.8C38,3.8,35.5,1,32.4,1c-3,0-5,2-6.5,6.2c0,0-4.2,11.9-4.7,13.6c-0.1,0.3-0.1,0.6-0.1,1
		C21,26.4,39.2,41.5,63.5,41.5C69.8,41.5,78.8,40.2,78.8,32.8z">
  </path>
  <path class="st1" d="M79.8,35.8c0.9,4.1,0.9,4.5,0.9,5.1c0,7-7.9,10.9-18.2,10.9c-23.5,0-44-13.8-44-22.8c0-1.3,0.3-2.5,0.8-3.7
		C10.9,25.8,0,27.2,0,36.9C0,52.6,37.3,72,66.8,72c22.6,0,28.3-10.2,28.3-18.3C95.2,47.3,89.7,40.1,79.8,35.8z">
  </path>
  <path class="st1" d="M78.6,31.1l0.1,0.5C78.7,31.4,78.7,31.3,78.6,31.1z">
  </path>
  <path class="st1" d="M269.6,26.3c-4.3,0-8.5,1-13,3l3,6.3c3.3-1.4,6-2.2,8.4-2.2c3.5,0,5.3,1.4,5.3,4.2V39
		c-2.1-0.5-4.2-0.8-6.3-0.8c-7.2,0-11.5,3-11.5,8.4c0.1,4.8,4,8.5,10.2,8.5c3,0,5.4-0.6,7.7-2.2v1.7h8.4V36.8
		C281.8,30,277.2,26.3,269.6,26.3z M272.7,47.8c-1.6,0.9-3.5,1.3-5.3,1.3c-2.6,0-4.3-1.1-4.3-2.8c0-1.8,1.8-2.7,4.6-2.7
		c1.7,0,3.4,0.2,5,0.6L272.7,47.8L272.7,47.8z">
  </path>
  <path class="st1" d="M198.3,28.3c-2.2-1.2-4.6-1.9-7.1-1.8c-8.1,0-14.5,6.3-14.5,14.2c-0.1,7.8,6.1,14.2,13.9,14.3
		c0.1,0,0.2,0,0.3,0c2.7,0,5.3-0.8,7.5-2.4v2h8.4V16l-8.5,1.8L198.3,28.3L198.3,28.3z M198.3,45.6c-1.6,1.5-3.7,2.3-5.9,2.2
		c-4.1,0-7.3-3.1-7.3-7.1s3.2-7,7.3-7c2.2,0,4.3,0.7,5.9,2.2V45.6z">
  </path>
  <polygon class="st1" points="243.7,32 228.6,32 228.6,17.8 219.6,17.8 219.5,54.6 228.5,54.6 228.5,40.2 243.6,40.2 243.6,54.6 
		252.7,54.6 252.7,17.8 243.7,17.8 	">
  </polygon>
  <path class="st1" d="M160,26.4c-7.9-0.1-14.4,6.2-14.5,14.1c-0.1,0-0.1,0.1-0.1,0.3c0,8.1,6.6,14.4,15.1,14.4
		c4.7,0,8.1-1.3,11.6-4.2l-5.6-5c-1.3,1.4-3.3,2.1-5.6,2.1c-3,0.1-5.7-1.7-6.8-4.4H174v-2.1C174,32.8,168.1,26.4,160,26.4z
		 M154,37.6c0.8-2.7,2.9-4.4,5.8-4.4c2.7,0,4.9,1.7,5.8,4.4H154z">
  </path>
  <path class="st1" d="M144.5,29.5c0-6.6-5.2-11.7-13-11.7h-18.8v36.8h0.1h9V41.2h6.9l6.9,13.4h10.1l-8.1-14.7
		C141.8,38.2,144.6,34.1,144.5,29.5z M130.8,33.9h-8.9v-8.3h8.9v-0.1c3,0,4.7,1.9,4.7,4.2S133.8,33.9,130.8,33.9z">
  </path>
  <path class="st1" d="M305.9,33.9v-7.1h-7.8v-9l-8.5,1.8v7.2H284v7.1h5.6v12.3c0,5.9,3.6,8.8,10.1,8.8c2,0,4-0.3,5.9-0.8v-6.9
		c-1.2,0.4-2.5,0.6-3.8,0.6c-2.7,0-3.7-0.8-3.7-3.4V33.9H305.9z">
  </path>
 </g>
</svg>