<svg version="1.1" id="Layer_1" xmlns:x="ns_extend;" xmlns:i="ns_ai;" xmlns:graph="ns_graphs;" xmlns="http://www.w3.org/2000/svg" xmlns:xlink="http://www.w3.org/1999/xlink" x="0px" y="0px" viewBox="0 0 705 100" style="enable-background:new 0 0 705 100;" xml:space="preserve">
 <style type="text/css">
  .st0{fill:#FFFFFF;}
 </style>
 <metadata>
  <sfw xmlns="ns_sfw;">
   <slices>
   </slices>
   <sliceSourceBounds bottomLeftOrigin="true" height="100" width="705" x="-423.9" y="-211.5">
   </sliceSourceBounds>
  </sfw>
 </metadata>
 <g>
  <path class="st0" d="M31.9,53.2L27,81.6H0L14.3,0.3h38.9c5.1-0.1,10.2,0.3,15.2,1c3.6,0.5,7,1.6,10.2,3.3c2.4,1.2,4.3,3.1,5.7,5.5
		c1.3,2.4,1.9,5.1,1.8,7.8c0,1.9-0.2,3.7-0.6,5.5c-0.8,4.5-2.7,8.8-5.5,12.4c-3,3.7-7.1,6.3-11.7,7.4c1.6,0.6,3.1,1.2,4.4,1.9
		c1.3,0.6,2.5,1.4,3.5,2.4c1,1,1.7,2.3,2.2,3.6c0.6,1.8,0.9,3.6,0.9,5.5c-0.1,2.7-0.3,5.5-0.9,8.2L77,72c-0.3,1.5-0.4,3-0.4,4.5
		c0,1.7,0.7,2.7,2.2,2.7l-0.4,2.5H51c-0.1-0.9-0.2-1.7-0.2-2.6c0-1.3,0.1-2.9,0.3-4.9c0.2-2,0.4-4.3,1-6.7c0.4-2.1,0.6-4.3,0.6-6.4
		c0.2-2.4-0.8-4.7-2.7-6.1c-3.1-1.4-6.5-2-9.9-1.7C40.1,53.2,31.9,53.2,31.9,53.2z M35.1,35.4h10.6c3.4,0.1,6.7-0.5,9.8-1.7
		c2.3-1.1,3.9-3.3,4.2-5.9c0.1-0.6,0.1-1.2,0.1-1.7c0.1-2-0.9-4-2.6-5.1c-2.1-1.2-4.4-1.8-6.8-1.7H37.8L35.1,35.4z M123.8,22.4h21.8
		l-1.6,9.2c2.9-3.3,6.3-6,10.1-8.2c3.7-1.9,7.8-2.8,12-2.7c5.3-0.5,10.7,1.2,14.8,4.6c3.3,3.7,5,8.6,4.6,13.5c0,2.5-0.2,4.9-0.7,7.3
		l-6.2,35.4h-23.7l5.5-31.2c0.2-1.3,0.3-2.6,0.3-3.9c0.1-1.8-0.4-3.6-1.4-5.1c-1.3-1.5-3.3-2.3-5.3-2c-3-0.3-6,0.9-8,3.2
		c-1.9,2.6-3.1,5.7-3.5,9l-5.2,30.1h-23.8L123.8,22.4z M207.8,83.2v0.3c0,0.9,0.4,1.7,1,2.3c1.3,1.2,3.1,1.7,4.9,1.5
		c2.8,0.2,5.6-0.7,7.7-2.6c2.1-2.5,3.4-5.6,3.8-8.9l0.9-4.8c-2.2,1.8-4.7,3.3-7.3,4.4c-3.5,1.4-7.2,2-11,1.9c-3.2,0-6.4-0.5-9.4-1.7
		c-2.5-1-4.8-2.6-6.7-4.6c-1.8-2-3.2-4.4-4.1-7c-0.9-2.8-1.3-5.8-1.3-8.7c0-1,0-2,0.1-3l0.4-3c0.6-3.7,1.7-7.4,3.2-10.9
		c1.5-3.5,3.6-6.8,6.3-9.6c2.7-2.9,6-5.2,9.6-6.9c4.1-1.8,8.5-2.7,12.9-2.6c3.4-0.1,6.8,0.8,9.8,2.5c2.8,1.7,5.1,4,6.8,6.8l1.3-7.7
		h20.9l-8.4,47.6c-0.7,4.2-1.7,8.3-2.9,12.4c-1.2,3.7-3.1,7.1-5.7,10c-2.9,3.1-6.6,5.4-10.6,6.7c-10.1,2.8-20.7,3.2-30.9,1
		c-3.1-0.7-6-1.9-8.7-3.6c-2.1-1.3-3.7-3.1-4.9-5.2c-1-1.9-1.5-4-1.5-6.1V83h23.9L207.8,83.2z M221.9,35.9c-1.6,0-3.1,0.3-4.5,1
		c-1.3,0.7-2.4,1.6-3.3,2.8c-1,1.3-1.7,2.8-2.3,4.4c-0.6,1.7-1,3.4-1.3,5.2c0,0.6-0.1,1.1-0.1,1.5l-0.1,1.3
		c-0.1,2.2,0.5,4.3,1.7,6.1c1.4,1.8,3.6,2.8,5.8,2.6h0.6c1.6,0,3.1-0.3,4.5-1c1.3-0.7,2.5-1.6,3.5-2.7c1-1.2,1.7-2.5,2.3-3.9
		c0.6-1.5,1.1-3,1.4-4.6c0.2-1.3,0.3-2.5,0.3-3.8c0.1-2.3-0.6-4.5-1.8-6.4c-1.5-1.9-4-2.9-6.4-2.6L221.9,35.9L221.9,35.9z
		 M82.7,81.5l13.5-48h17.2l-7,48C106.4,81.5,82.7,81.5,82.7,81.5z">
  </path>
  <path class="st0" d="M313.2,32.1c0-0.3,0-0.5,0.1-0.8c0-0.2,0-0.5,0-0.7c0.2-3.1-0.9-6.1-3-8.3c-2.4-2-5.5-3-8.7-2.8
		c-4.5,0-8.8,2.1-11.6,5.7c-3.6,4.9-5.9,10.7-6.7,16.8c-0.3,1.4-0.5,2.8-0.7,4.1c-0.1,1.3-0.2,2.5-0.2,3.8c0,1.8,0.2,3.5,0.6,5.2
		c0.4,1.5,1.1,2.9,2.1,4c1.1,1.2,2.4,2.2,3.9,2.8c1.9,0.7,4,1.1,6,1c3.7,0.2,7.2-1.2,9.9-3.7c2.5-2.6,4.4-5.8,5.4-9.3h24.5
		c-1.3,4.8-3.4,9.3-6.2,13.4c-2.6,3.8-5.8,7.2-9.6,10c-3.8,2.7-8,4.8-12.4,6.2c-9.6,2.9-19.8,2.9-29.5,0.1c-4-1.3-7.8-3.4-11-6.2
		c-3-2.7-5.3-6.1-6.8-9.9c-1.6-4.2-2.4-8.7-2.3-13.1c0-1.4,0.1-2.9,0.2-4.4s0.4-3.1,0.7-4.8c1-5.9,3-11.6,6-16.8
		c2.7-4.8,6.3-9,10.4-12.6c4-3.6,8.7-6.4,13.7-8.3c5-1.9,10.3-2.9,15.7-2.9c11.3,0,19.8,2.5,25.4,7.4c5.7,5.3,8.8,12.9,8.4,20.8v1.6
		c0,0.5-0.1,1.1-0.1,1.6L313.2,32.1L313.2,32.1z M362.3,55.6l-0.2,1.1c0,0.4,0,0.8,0,1.2c-0.1,2.6,0.9,5.1,2.8,6.8
		c2,1.7,4.5,2.6,7.1,2.5c1.9,0,3.8-0.5,5.5-1.3c1.8-0.9,3.3-2.2,4.4-3.9h22.8c-1.5,3.5-3.8,6.6-6.5,9.3c-2.7,2.5-5.7,4.5-9,6.1
		c-3.3,1.5-6.8,2.6-10.4,3.2c-3.5,0.6-7.1,0.9-10.7,0.9c-4,0-7.9-0.5-11.7-1.6c-3.4-0.9-6.5-2.5-9.3-4.7c-2.6-2.1-4.7-4.7-6.1-7.7
		c-1.5-3.3-2.2-6.9-2.2-10.5c0-1,0.1-2,0.2-3c0-1,0.2-2,0.3-3c0.8-4.7,2.4-9.1,4.9-13.1c2.4-3.9,5.4-7.2,9-10
		c3.6-2.8,7.6-4.9,11.9-6.4c4.4-1.5,9.1-2.3,13.8-2.3c4.3-0.1,8.7,0.6,12.8,2c3.4,1.2,6.6,3.1,9.3,5.7c2.5,2.5,4.5,5.5,5.7,8.8
		c1.3,3.6,2,7.5,2,11.3c-0.1,2.9-0.4,5.8-1,8.7L362.3,55.6L362.3,55.6z M385.9,43.6c0.1-0.5,0.1-1.1,0.1-1.7
		c0.1-2.3-0.8-4.5-2.5-6.1c-1.7-1.6-3.9-2.5-6.3-2.5c-3.1-0.2-6.2,0.8-8.7,2.7c-2.3,1.9-3.8,4.5-4.4,7.4L385.9,43.6L385.9,43.6z
		 M416.2,22.5H438l-1.7,9.2c2.9-3.3,6.4-6,10.2-8.2c3.7-1.9,7.9-2.9,12.1-2.7c5.3-0.5,10.6,1.2,14.7,4.6c3.4,3.7,5.1,8.5,4.7,13.5
		c0,2.5-0.3,4.9-0.7,7.3l-6.1,35.4h-23.8l5.4-31.2c0.2-1.3,0.3-2.6,0.3-3.9c0.1-1.8-0.4-3.6-1.4-5.1c-1.3-1.5-3.3-2.2-5.3-2
		c-3-0.3-6,0.9-8,3.2c-1.9,2.7-3,5.7-3.4,9l-5.2,30.1H406L416.2,22.5z M515,81.1c-2.6,0.2-5.1,0.3-7.4,0.4c-2.3,0.1-4.4,0.1-6.2,0.1
		c-3,0-6-0.1-9-0.5c-2-0.2-4-0.8-5.8-1.7c-1.4-0.8-2.4-2-3-3.5c-0.6-1.7-0.9-3.6-0.9-5.4c0-1.5,0.1-3.1,0.3-4.6
		c0.2-1.7,0.4-3.6,0.9-5.6l4.4-24.7h-8.5l2.3-13.6h8.8l3.3-18.4h23.4l-3.3,18.4h11.4l-2.3,13.6h-11.4l-3.8,21.5l-0.3,1.7
		c-0.1,0.5-0.1,1.1-0.1,1.6c-0.1,1.2,0.4,2.3,1.3,3c1.6,0.7,3.4,1,5.2,0.9h3.7L515,81.1z M530.4,22.5H552l-2.1,11.9h0.3
		c3.6-8.3,11.8-13.7,20.8-13.6c0.5,0,1,0,1.5,0.1l1.5,0.3l-4.2,23.5c-0.7-0.2-1.5-0.3-2.3-0.4c-0.8-0.2-1.6-0.2-2.5-0.3
		c-4.2-0.2-8.4,1.1-11.6,3.8c-3.4,3.7-5.5,8.4-6,13.4L544,81.7h-23.8L530.4,22.5z M605.8,81.7l-0.1-8.1c-3.4,2.9-7.3,5-11.5,6.4
		c-4,1.1-8.2,1.7-12.4,1.7c-2.4,0-4.8-0.3-7.1-0.9c-2.1-0.5-4.2-1.4-6-2.6c-1.7-1.2-3.1-2.7-4-4.5c-1-2-1.5-4.2-1.5-6.4
		c0-1.2,0.1-2.3,0.3-3.5c0.5-3.9,2.3-7.6,5-10.4c2.5-2.5,5.6-4.4,8.9-5.7c3.5-1.3,7.1-2.2,10.7-2.7l10.5-1.3
		c2.8-0.3,5.5-0.9,8.1-1.7c2-0.4,3.5-1.9,3.9-3.9c0-0.1,0-0.2,0-0.3c0-0.1,0-0.3,0-0.4c0-0.8-0.2-1.5-0.7-2.1
		c-0.5-0.5-1.2-0.9-1.9-1.2c-0.7-0.3-1.5-0.5-2.3-0.6c-0.7-0.1-1.4-0.2-2-0.2c-0.9,0-1.8,0.1-2.7,0.2c-0.9,0.1-1.8,0.4-2.7,0.8
		c-0.9,0.4-1.7,1-2.3,1.7c-0.8,0.9-1.3,1.9-1.5,3h-22.8c0.5-3,1.5-5.9,3.2-8.4c1.7-2.6,4.1-4.8,6.8-6.3c3.4-1.9,7.1-3.2,10.9-3.9
		c5-1,10.1-1.4,15.2-1.3c4.5-0.1,8.9,0.3,13.3,1c2.9,0.5,5.7,1.6,8.2,3.1c1.8,1.1,3.3,2.8,4.1,4.8c0.8,2,1.2,4.2,1.2,6.4
		c0,1.5-0.1,2.9-0.3,4.4c-0.2,1.6-0.4,3.1-0.7,4.8l-4.8,27.6c-0.2,1-0.3,2.1-0.3,3.2c0,0.7,0.1,1.5,0.4,2.2c0.5,0.8,1,1.5,1.7,2.2
		l-0.1,3L605.8,81.7L605.8,81.7z M594.9,68.3c1.9,0,3.8-0.3,5.5-1.1c1.5-0.7,2.9-1.8,3.9-3c1.1-1.4,1.9-3,2.5-4.7
		c0.6-1.8,1.1-3.7,1.3-5.7c-2.1,0.9-4.3,1.5-6.5,2l-6,1.3c-1.7,0.4-3.3,1.2-4.8,2.2c-1.4,1-2.3,2.5-2.5,4.1V64
		c0,1.3,0.6,2.4,1.7,3.1C591.4,68,593.2,68.4,594.9,68.3L594.9,68.3z M634.6,81.6l14.3-81.3h23.8l-14.3,81.2L634.6,81.6L634.6,81.6z
		 M121.9,12.1c-0.1-0.2-0.2-0.4-0.3-0.6c-0.5-0.7-1.1-1.3-1.7-1.8c-2.5-2.1-5.5-3.4-8.7-3.9c-1.9-0.3-3.8-0.4-5.7-0.2
		c-2.5,0.2-4.9,1.1-7,2.5c-0.1,0.1-0.2,0.2-0.3,0.3c-1.1,1-2.8,1-3.9,0c-1.1-1.1-1.1-2.8,0-3.9c0,0,0,0,0,0c3-2.6,6.7-4.1,10.7-4.4
		c2.4-0.2,4.8-0.1,7.2,0.3c6.1,0.7,11.5,4.1,14.8,9.3c0.7,1.3,0.2,3-1.2,3.7c0,0,0,0,0,0c-0.3,0.2-0.7,0.3-1,0.3
		C123.6,13.8,122.5,13.2,121.9,12.1L121.9,12.1z M115,18.5c-0.1-0.1-0.1-0.2-0.1-0.3c-0.3-0.4-0.6-0.7-1-1c-1.4-1.2-3.1-1.9-4.9-2.2
		c-1-0.2-2.1-0.2-3.1-0.1c-1.4,0.1-2.7,0.6-3.8,1.4c0,0-0.1,0.1-0.1,0.1c-0.9,0.9-2.4,0.9-3.3,0c-0.9-0.9-0.9-2.4,0-3.3c0,0,0,0,0,0
		c1.9-1.6,4.3-2.6,6.7-2.8c1.5-0.1,3-0.1,4.4,0.2c3.8,0.4,7.3,2.6,9.4,5.9c0.5,1.1,0,2.5-1.1,3c-0.3,0.1-0.6,0.2-0.9,0.3
		C116.3,19.9,115.3,19.4,115,18.5L115,18.5z M113,24.1c0.5,3.4-1.8,6.5-5.1,7.1c-3.4,0.5-6.5-1.8-7.1-5.1c-0.5-3.4,1.8-6.5,5.1-7.1
		c0.3-0.1,0.6-0.1,1-0.1C110,18.7,112.8,21,113,24.1C113,24.1,113,24.1,113,24.1 M679.3,9.3c0.7-1.6,1.7-3,2.9-4.2
		c3.9-3.7,9.6-4.8,14.6-2.8c1.6,0.6,3,1.6,4.3,2.8c1.2,1.2,2.2,2.6,2.9,4.1c0.7,1.6,1.1,3.4,1.1,5.2c0,1.8-0.3,3.6-1,5.2
		c-0.7,1.5-1.7,2.9-2.9,4.1c-1.2,1.2-2.6,2.1-4.2,2.8c-1.7,0.7-3.4,1-5.2,1c-1.8,0-3.5-0.3-5.1-1c-3.2-1.3-5.8-3.8-7.2-7
		c-0.7-1.6-1.1-3.4-1-5.2C678.3,12.8,678.6,11,679.3,9.3L679.3,9.3z M681.5,18.9c0.5,1.3,1.3,2.5,2.3,3.6c1,1,2.2,1.8,3.5,2.4
		c1.4,0.6,2.9,0.9,4.4,0.9c4.4,0,8.5-2.7,10.1-6.8c0.6-1.4,0.9-2.9,0.9-4.5c0-1.5-0.3-3-0.9-4.4c-0.5-1.3-1.3-2.5-2.3-3.5
		c-2.1-2.1-4.9-3.3-7.8-3.3c-1.5,0-3,0.3-4.4,0.9c-2.6,1.1-4.7,3.2-5.7,5.9c-0.6,1.4-0.9,2.9-0.9,4.4
		C680.6,16,680.9,17.5,681.5,18.9L681.5,18.9z M692.4,6.8c1.5-0.1,2.9,0.3,4.1,1.1c0.9,0.8,1.4,2.1,1.3,3.3c0.1,1.1-0.3,2.3-1.2,3
		c-0.8,0.7-1.9,1.1-2.9,1.1l4.5,6.8h-2.6l-4.3-6.6h-2.5v6.6h-2.4V6.8H692.4L692.4,6.8z M691.4,13.7h1.5c0.5,0,0.9-0.2,1.3-0.3
		c0.4-0.2,0.7-0.4,0.9-0.8c0.3-0.4,0.4-0.9,0.4-1.4c0-0.4-0.1-0.9-0.3-1.2c-0.2-0.3-0.5-0.6-0.8-0.7c-0.3-0.2-0.7-0.3-1.1-0.3
		c-0.4-0.1-0.9-0.1-1.3-0.1h-3.1v4.9L691.4,13.7L691.4,13.7z">
  </path>
 </g>
</svg>