<svg width="116" height="60" viewBox="0 0 116 60" fill="none" xmlns="http://www.w3.org/2000/svg">
<path fill-rule="evenodd" clip-rule="evenodd" d="M88.9589 22.1843C90.7066 22.1845 92.1836 22.8691 93.2277 24.1635C94.1289 25.2871 94.7179 27.016 94.8329 28.6016C94.9019 29.6326 94.9145 30.1181 94.9283 30.414C94.9512 31.1591 94.9389 32.3935 94.9387 32.4067H86.6218C86.6172 33.9232 86.6899 34.3725 86.7083 34.7702C86.8096 36.1799 87.408 37.589 88.9529 37.5894C90.77 37.5894 91.1112 35.7259 91.217 34.8521C91.2572 34.5285 91.2545 34.2575 91.2542 34.243L94.8419 34.2474C94.6025 38.3481 92.3393 40.7568 88.9634 40.757C85.5778 40.757 83.3133 38.2789 83.0879 34.4321C83.0741 34.1593 82.9925 32.957 82.9925 31.5191C82.9925 29.499 83.0511 28.9762 83.0879 28.5971C83.4973 24.385 85.6009 22.1843 88.9589 22.1843ZM88.9634 25.346C87.4546 25.3599 86.7962 26.5859 86.6904 28.0654C86.672 28.3011 86.6718 28.473 86.6442 29.2911H91.299C91.3036 28.9259 91.2671 28.5831 91.2349 28.0699C91.1705 27.0944 90.7523 25.3325 88.9634 25.346Z" fill="black"/>
<path d="M60.1567 22.1843C62.604 22.1843 65.709 23.4235 66.1276 28.5465C66.1368 28.6668 66.1466 28.8706 66.1604 29.1198H62.4715C62.4487 28.4116 62.4171 28.082 62.4163 28.061C62.3979 26.711 61.74 25.3371 60.1672 25.346C58.64 25.3553 58.0499 26.5439 57.9165 28.0744C57.8797 28.4674 57.8027 29.0922 57.8211 31.5146C57.8349 33.5902 57.8162 34.1358 57.8852 34.8431C58.0002 36.0083 58.6124 37.5849 60.1672 37.5849C61.8319 37.5846 62.3105 36.1282 62.4163 34.7597C62.4301 34.5842 62.4487 34.3395 62.4625 34.0717H66.1515C66.1605 34.1732 66.1368 34.28 66.1276 34.4276C65.7825 38.5423 63.7814 40.7665 60.1567 40.7526C56.6612 40.743 54.4252 38.3387 54.1858 34.4276C54.1628 34.1271 54.0721 32.9524 54.0905 31.5146C54.1088 29.5413 54.1596 28.9256 54.1918 28.5926C54.5736 24.4039 56.6887 22.1846 60.1567 22.1843Z" fill="black"/>
<path fill-rule="evenodd" clip-rule="evenodd" d="M45.6081 22.1798C48.0552 22.18 51.0396 23.3127 51.5686 28.5971C51.6145 29.092 51.6744 30.8629 51.6744 31.5101C51.6744 32.9479 51.5974 34.1458 51.579 34.4232C51.3351 38.2973 49.1082 40.7478 45.6081 40.7481C42.1122 40.7481 39.872 38.3344 39.6372 34.4232C39.6188 34.1226 39.5265 32.9479 39.5403 31.5101C39.5587 29.5368 39.6095 28.9212 39.6417 28.5882C40.0235 24.3992 42.1351 22.1798 45.6081 22.1798ZM45.6081 25.3415C44.0809 25.3415 43.3759 26.7104 43.3575 28.0744C43.3575 28.0836 43.2621 29.0918 43.2621 31.5146C43.2621 33.9069 43.3511 34.7334 43.3575 34.7597C43.4265 36.0682 44.0579 37.5849 45.6081 37.5849C47.1623 37.5845 47.7329 36.1658 47.8617 34.8253C47.8801 34.6126 47.9586 33.9326 47.9586 31.5146C47.9586 29.1057 47.8673 28.0952 47.8617 28.0565C47.8387 26.7066 47.1349 25.3419 45.6081 25.3415Z" fill="black"/>
<path d="M72.2088 23.2193C73 22.5813 74.1414 22.1983 75.3373 22.1798C76.4366 22.1613 77.5678 22.4894 78.29 23.0302C79.9827 24.2878 80.4197 25.4944 80.4244 28.8786V40.3505H76.6952L76.6996 29.0171C76.6997 28.014 76.726 27.0938 76.2614 26.4004C75.8245 25.7491 74.9699 25.4764 74.3492 25.5039C72.96 25.564 72.2088 26.5532 72.2088 27.4548V40.3549H68.4781V15.6419H72.2088V23.2193Z" fill="black"/>
<path fill-rule="evenodd" clip-rule="evenodd" d="M30.505 15.8355C33.9916 15.8725 36.955 17.5553 36.9737 22.3541C36.9875 25.5025 35.6813 27.0112 34.6739 27.6216C36.0718 28.4401 36.7753 30.0401 36.9409 32.7537L37.3225 38.8195C37.3545 39.671 37.5149 40.3489 37.5118 40.3505H33.8273C33.8273 40.3505 33.6747 39.6568 33.6425 38.8433L33.2609 33.1007C33.0585 30.1739 31.7246 29.1332 30.5378 29.1332H28.4913V40.3505H24.8113V15.8355H30.505ZM28.4913 18.9928L28.4869 25.9655H30.432C32.6812 25.9655 33.155 24.0751 33.2609 22.9885C33.2747 22.8637 33.2788 22.7433 33.2788 22.4106C33.2788 22.1287 33.2655 21.9758 33.2609 21.8417C33.2149 20.0155 32.1756 18.9929 30.2576 18.9928H28.4913Z" fill="black"/>
<path fill-rule="evenodd" clip-rule="evenodd" d="M115.5 30.1921L89.8144 60H26.2824L0.5 30.0953L26.278 0H89.8144L115.5 30.1921ZM4.47811 30.1921L27.7416 57.1659H88.3553L111.526 30.2845L88.3463 3.0277H27.7416L4.47811 30.1921Z" fill="black"/>
</svg>
