<svg width="100" height="70" viewBox="0 0 100 70" fill="none" xmlns="http://www.w3.org/2000/svg">
<path d="M26.522 33.0645C27.3429 33.0645 28.079 33.1921 28.0972 33.1953V35.8311C28.0786 35.8349 27.3532 35.9851 26.5327 36.0391C25.3696 36.1035 24.8424 35.7119 24.8374 35.7002C24.6081 35.5145 24.575 35.4706 24.4985 35.3613C24.3892 35.1864 24.3238 34.9344 24.3237 34.6064C24.3237 34.0926 24.4877 33.731 24.8374 33.4795C24.8374 33.4795 25.3411 33.0427 26.522 33.0645Z" fill="black"/>
<path d="M39.5054 29.7061C40.2708 29.7061 40.7634 30.002 41.1353 30.5488C41.3757 30.9097 41.4743 31.3803 41.5181 31.916H37.3726C37.4491 31.3695 37.6019 30.9097 37.8423 30.5488C38.2032 30.002 38.7399 29.7061 39.5054 29.7061Z" fill="black"/>
<path d="M62.7905 29.7285C63.5562 29.7285 64.0927 29.9912 64.4536 30.5381C64.8144 31.0849 65.0005 31.8614 65.0005 32.8564L65.0024 33.2197C64.9619 34.0425 64.7801 34.6986 64.4644 35.1865C64.1035 35.7329 63.5564 35.995 62.8022 35.9951C62.0478 35.995 61.5 35.7332 61.1392 35.1865C60.7783 34.6288 60.5923 33.8516 60.5923 32.8564C60.5923 31.8615 60.7787 31.0849 61.1284 30.5381C61.4892 29.9914 62.0253 29.7287 62.7905 29.7285Z" fill="black"/>
<path d="M85.9233 29.7061C86.689 29.7061 87.1815 30.002 87.5425 30.5488C87.783 30.9097 87.8816 31.3802 87.9253 31.916H83.7905C83.8671 31.3694 84.0208 30.9097 84.2612 30.5488C84.6111 30.0021 85.1581 29.7062 85.9233 29.7061Z" fill="black"/>
<path fill-rule="evenodd" clip-rule="evenodd" d="M26.1724 0C32.4724 0 38.0729 2.99727 41.6167 7.63477C44.8433 4.27695 49.3278 2.1875 54.2935 2.1875C60.8995 2.18767 66.6527 5.87339 69.7261 11.3311C72.3947 10.139 75.3477 9.4717 78.4429 9.47168C90.3538 9.47168 100 19.2063 100 31.2266C100 43.2469 90.3429 52.9814 78.4429 52.9814C76.9884 52.9814 75.5667 52.839 74.1997 52.5547C71.4982 57.3672 66.3462 60.6269 60.4399 60.627C57.9682 60.627 55.6274 60.0581 53.5493 59.041C50.8149 65.483 44.4269 70 37.0005 70C29.5741 69.9999 22.6621 65.1 20.1245 58.2314C19.0198 58.4611 17.8712 58.5918 16.6899 58.5918C7.46963 58.5918 -0.000488281 51.0453 -0.000488281 41.7266C-0.000487683 35.4814 3.35692 30.0346 8.34424 27.1143C7.31614 24.7518 6.74759 22.1376 6.74756 19.4033C6.74756 8.68468 15.4428 0.000171142 26.1724 0ZM58.2407 24.4453C57.191 24.4454 56.3701 24.7415 55.7905 25.332C55.2113 25.9117 54.8172 26.7982 54.6313 27.957L54.5659 28.3506H53.2534C53.2449 28.3507 53.0881 28.3551 53.0562 28.5146L52.8374 29.7178C52.8267 29.8376 52.8713 29.9032 53.0239 29.9033H54.3032L53.0015 37.1553C52.903 37.7347 52.7831 38.2162 52.6519 38.5879C52.5207 38.9485 52.4006 39.2114 52.2476 39.4082C52.0946 39.594 51.9626 39.736 51.7222 39.8125C51.5255 39.878 51.2957 39.9111 51.0444 39.9111C50.9023 39.9111 50.7158 39.8892 50.5737 39.8564C50.4318 39.8346 50.3656 39.8015 50.2563 39.7578C50.2468 39.7546 50.1012 39.7084 50.0483 39.8564C50.004 39.9784 49.6553 40.9179 49.6226 41.0381C49.5793 41.1471 49.6441 41.2455 49.7095 41.2676C49.8844 41.3332 50.0053 41.3662 50.2349 41.4209C50.5517 41.4973 50.8252 41.4971 51.0874 41.4971C51.623 41.4971 52.1047 41.4203 52.5093 41.2783C52.9137 41.1362 53.2645 40.8739 53.5815 40.5352C53.9205 40.1634 54.1287 39.7691 54.3364 39.2334C54.5333 38.7085 54.7079 38.0516 54.8501 37.2861L56.1519 29.8926H58.0659C58.0659 29.8926 58.2302 29.8922 58.2632 29.7285L58.4819 28.5254C58.4929 28.4051 58.4485 28.3398 58.2954 28.3398H56.4468C56.4468 28.3398 56.5458 27.6506 56.7534 27.0273C56.8408 26.7651 57.0156 26.5564 57.1577 26.4033C57.2997 26.2613 57.4644 26.1633 57.6392 26.0977C57.825 26.043 58.0336 26.0098 58.2632 26.0098C58.4378 26.0098 58.6126 26.0319 58.7437 26.0537C58.9185 26.0865 58.9958 26.108 59.0396 26.1299C59.2248 26.1843 59.2578 26.1299 59.2905 26.043L59.7397 24.8281C59.783 24.6976 59.6743 24.643 59.6304 24.6318L59.5972 24.6426C59.4114 24.588 59.2473 24.5445 59.0288 24.5117C58.8101 24.468 58.5359 24.4453 58.2407 24.4453ZM17.9146 28.1533C16.0336 28.1534 14.7214 29.2907 14.7212 30.9092V30.9424C14.7214 32.6592 16.1649 33.2069 17.521 33.6006L17.7397 33.666C18.724 33.9722 19.5767 34.2348 19.5767 34.9238V34.9561C19.5765 35.5902 19.019 36.0615 18.1333 36.0615C17.783 36.0615 16.6785 36.061 15.4868 35.2959C15.3447 35.2084 15.2563 35.1535 15.147 35.0879C15.0921 35.055 14.9391 34.9895 14.8735 35.1748L14.4692 36.3018H14.4907C14.4256 36.465 14.5126 36.4985 14.5347 36.5312C14.7206 36.6625 14.9181 36.7615 15.104 36.8818C16.1209 37.4175 17.0834 37.581 18.0894 37.5811C20.1455 37.5811 21.4144 36.4871 21.4146 34.7373V34.7051C21.4146 33.0864 19.9708 32.4959 18.6255 32.0693L18.4507 32.0146C17.4337 31.6866 16.5584 31.4015 16.5581 30.7236V30.6904C16.5584 30.122 17.0726 29.6955 17.8706 29.6953C18.7565 29.6953 19.8069 29.9905 20.4741 30.3623C20.4741 30.3623 20.6709 30.4932 20.7476 30.2969C20.7917 30.1865 21.1283 29.2733 21.1626 29.1709C21.2063 29.0616 21.1305 28.9842 21.0649 28.9404C20.2884 28.4702 19.2271 28.1534 18.1226 28.1533H17.9146ZM47.938 28.1533C46.0571 28.1534 44.7439 29.2907 44.7437 30.9092V30.9424C44.7438 32.6592 46.1883 33.2069 47.5444 33.6006L47.7632 33.666C48.7474 33.9722 49.6001 34.2348 49.6001 34.9238V34.9561C49.5999 35.5902 49.0424 36.0615 48.1567 36.0615C47.8064 36.0615 46.7011 36.0613 45.5093 35.2959C45.3672 35.2085 45.2797 35.1535 45.1704 35.0879C45.1372 35.0659 44.9626 35.0005 44.897 35.1748L44.4927 36.3018H44.5142C44.449 36.4651 44.536 36.4985 44.5581 36.5312C44.744 36.6624 44.9406 36.7616 45.1265 36.8818C46.1435 37.4177 47.1067 37.581 48.1128 37.5811C50.1689 37.5811 51.4378 36.4871 51.438 34.7373V34.7051C51.438 33.0864 50.0051 32.4959 48.6489 32.0693L48.4741 32.0146C47.4572 31.6866 46.5818 31.4015 46.5815 30.7236V30.6904C46.5818 30.122 47.096 29.6954 47.894 29.6953C48.7799 29.6953 49.8304 29.9905 50.4976 30.3623C50.5001 30.364 50.6948 30.4919 50.771 30.2969C50.8151 30.1864 51.1517 29.2733 51.186 29.1709C51.2298 29.0615 51.153 28.9842 51.0874 28.9404C50.311 28.4704 49.2503 28.1534 48.146 28.1533H47.938ZM78.6177 28.1748C77.896 28.1748 77.2613 28.2954 76.7036 28.5469C76.1571 28.7874 75.6974 29.1267 75.3257 29.542C74.954 29.9576 74.6795 30.4617 74.4937 31.0303C74.3079 31.5987 74.2095 32.2112 74.2095 32.8779C74.2095 34.2996 74.5925 35.4489 75.3472 36.291C76.1018 37.1331 77.2398 37.5595 78.7271 37.5596C79.6018 37.5595 80.4986 37.3844 81.1548 37.1221C81.1548 37.1221 81.2747 37.067 81.2202 36.9141L80.8052 35.7549L80.7944 35.7334C80.7411 35.5733 80.5833 35.6318 80.5757 35.6348C80.3242 35.7331 80.0611 35.8205 79.7769 35.8643C79.4926 35.908 79.1753 35.9297 78.8364 35.9297C78.0054 35.9296 77.3487 35.6784 76.8784 35.1973C76.4082 34.7051 76.1351 33.9172 76.146 32.8564C76.146 31.8833 76.3868 31.1613 76.8022 30.6035C77.2178 30.0459 77.8519 29.7726 78.7046 29.7725C79.4155 29.7725 79.9523 29.8483 80.521 30.0342C80.5263 30.0363 80.653 30.085 80.7173 29.9141C80.8703 29.4987 80.9801 29.2032 81.144 28.7441C81.1878 28.6129 81.0784 28.5578 81.0347 28.5469C80.8158 28.4594 80.2906 28.3174 79.897 28.2627C79.5253 28.2081 79.0986 28.1748 78.6177 28.1748ZM26.3364 28.1641C25.8989 28.1641 25.1982 28.2192 24.7827 28.3066C24.7462 28.3136 23.507 28.5534 23.0005 28.9629C22.9935 28.9673 22.893 29.034 22.9458 29.1924L23.3608 30.2969C23.4139 30.4344 23.5396 30.3979 23.5474 30.3955C23.55 30.3942 23.5932 30.3727 23.646 30.3516C24.752 29.7554 26.1485 29.7606 26.1724 29.7607C26.7956 29.7608 27.2769 29.8923 27.605 30.1328C27.9221 30.3734 28.0864 30.7454 28.0864 31.5107V31.752C27.5943 31.6754 27.1343 31.6426 27.1343 31.6426L27.146 31.6318C26.9054 31.61 26.6095 31.6094 26.2378 31.6094C25.7458 31.6094 25.2644 31.6756 24.8052 31.7959C24.3569 31.9162 23.9412 32.1021 23.5913 32.3535C23.2415 32.605 22.9563 32.922 22.7485 33.3047C22.5409 33.6874 22.4429 34.1367 22.4429 34.6396C22.4429 35.1425 22.5297 35.6021 22.7046 35.9629C22.8795 36.3236 23.1316 36.6296 23.4595 36.8701C23.7766 37.0998 24.1818 37.2754 24.6411 37.3848C25.1004 37.4832 25.6147 37.5381 26.1724 37.5381C26.7628 37.5381 27.3645 37.483 27.9331 37.3955C28.5015 37.2971 29.2017 37.1552 29.3882 37.1113C29.5798 37.0687 29.7821 37.0154 29.7925 37.0127C29.9293 36.9811 29.9239 36.8379 29.9233 36.8271V31.5225C29.9233 30.3631 29.6062 29.4988 28.9937 28.9629C28.3812 28.4271 27.4956 28.1641 26.3364 28.1641ZM39.6255 28.1641C38.9038 28.1641 38.2473 28.2846 37.7114 28.5361C37.1757 28.7877 36.7274 29.1273 36.3774 29.5537C36.0276 29.9802 35.7643 30.4831 35.5894 31.0625C35.4254 31.6311 35.3384 32.2551 35.3384 32.9111C35.3384 33.5673 35.4251 34.202 35.6001 34.7598C35.7751 35.3284 36.0601 35.8208 36.4429 36.2363C36.8255 36.6517 37.3176 36.9795 37.897 37.1982C38.4766 37.4279 39.1883 37.5381 39.9976 37.5381C41.6701 37.538 42.5563 37.1549 42.9175 36.958C42.9831 36.9252 43.0379 36.8594 42.9614 36.6846L42.5786 35.624C42.5244 35.4723 42.3628 35.5244 42.3599 35.5254C41.9443 35.6785 41.3528 35.9521 39.9751 35.9521C39.0785 35.952 38.4111 35.689 37.9956 35.2734C37.5692 34.8469 37.3616 34.2233 37.3179 33.3486H43.1147C43.1221 33.3485 43.2679 33.3443 43.2788 33.2061C43.2797 33.136 43.4749 32.0114 43.104 30.7129L43.1362 30.7021C42.9941 30.1555 42.6337 29.5974 42.3931 29.3457C42.0212 28.941 41.6595 28.667 41.2876 28.5029C40.8174 28.2953 40.2486 28.1641 39.6255 28.1641ZM62.8022 28.1641C62.1024 28.1641 61.4893 28.2846 60.9644 28.5361C60.4396 28.7767 60.0018 29.1158 59.6519 29.5312C59.3021 29.9467 59.0395 30.4502 58.8755 31.0186C58.7115 31.5872 58.6235 32.2004 58.6235 32.8564C58.6236 33.5126 58.7115 34.1366 58.8755 34.6943C59.0396 35.2628 59.302 35.7662 59.6519 36.1816C60.0018 36.5972 60.4504 36.9362 60.9644 37.1768C61.4893 37.4173 62.1024 37.5381 62.8022 37.5381C63.5019 37.538 64.1144 37.4172 64.6392 37.1768C65.1639 36.9362 65.6017 36.6079 65.9517 36.1816C66.3015 35.7662 66.5639 35.2628 66.728 34.6943C66.8921 34.1257 66.9799 33.5126 66.98 32.8564C66.98 32.2003 66.892 31.5763 66.728 31.0186C66.564 30.45 66.3015 29.9467 65.9517 29.5312C65.6017 29.1157 65.1641 28.7767 64.6392 28.5361C64.1143 28.2956 63.5019 28.1641 62.8022 28.1641ZM86.0444 28.1641C85.3228 28.1641 84.6662 28.2847 84.1304 28.5361C83.5946 28.7877 83.1453 29.1273 82.7954 29.5537C82.4457 29.9801 82.1832 30.4832 82.0083 31.0625C81.8443 31.6311 81.7564 32.2551 81.7563 32.9111C81.7564 33.5673 81.8441 34.202 82.019 34.7598C82.194 35.3283 82.4782 35.8208 82.8608 36.2363C83.2436 36.6519 83.7364 36.9795 84.3159 37.1982C84.8954 37.4279 85.6065 37.538 86.4155 37.5381C88.0884 37.5381 88.9752 37.1549 89.3364 36.958C89.402 36.9252 89.4566 36.8593 89.3911 36.6846L89.0083 35.624C88.9544 35.473 88.794 35.5239 88.7896 35.5254C88.3739 35.6785 87.7825 35.9521 86.4048 35.9521C85.5082 35.952 84.8408 35.689 84.4253 35.2734C83.9989 34.8469 83.7913 34.2234 83.7476 33.3486H89.5444C89.5525 33.3485 89.6976 33.3439 89.7085 33.2061C89.7094 33.136 89.9037 32.0115 89.5327 30.7129L89.5552 30.7021C89.413 30.1553 89.0517 29.5973 88.811 29.3457C88.4392 28.941 88.0784 28.667 87.7065 28.5029C87.2364 28.2952 86.6676 28.1641 86.0444 28.1641ZM32.0015 24.6318C31.9034 24.6322 31.8374 24.7084 31.8374 24.8066V37.1768C31.8376 37.2748 31.9035 37.3512 32.0015 37.3516H33.5444C33.6426 37.3514 33.7083 37.2749 33.7085 37.1768V24.8066C33.7085 24.7083 33.6427 24.632 33.5444 24.6318H32.0015ZM72.8315 28.2734C72.0991 28.2298 71.6943 28.3507 71.3335 28.5146C70.9727 28.6787 70.5787 28.9412 70.3491 29.2363V28.5254C70.3491 28.4271 70.2833 28.3507 70.1851 28.3506H68.6968C68.5988 28.351 68.5327 28.4272 68.5327 28.5254V37.1768C68.5329 37.2749 68.6103 37.3514 68.7085 37.3516H70.228C70.3264 37.3516 70.4036 37.275 70.4038 37.1768V32.8564C70.4038 32.277 70.469 31.6969 70.6001 31.3359C70.7203 30.9755 70.8956 30.6911 71.103 30.4834C71.3106 30.2758 71.5518 30.1333 71.814 30.0566C72.0873 29.9692 72.3835 29.9473 72.5913 29.9473C72.8902 29.9473 73.21 30.02 73.2251 30.0234C73.3342 30.0343 73.4002 29.9691 73.4331 29.8711C73.5315 29.6088 73.8156 28.8104 73.8706 28.6562L73.8921 28.6455C73.9358 28.5143 73.8489 28.4485 73.8052 28.4375C73.7063 28.4046 73.2141 28.2953 72.8315 28.2734Z" fill="black"/>
</svg>
