<svg width="122" height="60" viewBox="0 0 122 60" fill="none" xmlns="http://www.w3.org/2000/svg">
<path d="M48.4668 34.9531C47.2604 35.3745 45.991 35.5897 44.7129 35.5889C43.4063 35.5967 42.1088 35.3692 40.8828 34.918L44.6748 22.9795H44.7393L48.4668 34.9531Z" fill="black"/>
<path d="M73.0566 19.0918C76.5714 19.0919 79.373 20.2684 79.373 23.8389C79.3728 27.5443 76.5713 28.7118 73.0566 28.7119L70.4219 28.7266V19.0918H73.0566Z" fill="black"/>
<path fill-rule="evenodd" clip-rule="evenodd" d="M121.75 0L61.6543 60H0.25V0H121.75ZM16.7725 10.6445C11.6814 10.6446 7.43858 12.2912 4.81055 15.0059C2.99072 16.8708 1.96583 19.3672 1.9502 21.9707C1.88243 25.6325 3.22916 28.2351 6.05762 30.2939C8.44411 32.0409 11.4966 33.1735 14.1895 34.0059C17.5095 35.0322 20.2195 35.9266 20.1875 37.8291C20.1688 38.5305 19.8886 39.2004 19.4014 39.7061C18.5735 40.559 17.2999 40.8827 15.5439 40.9121C12.1588 40.9827 9.65134 40.4534 5.6416 38.0918L1.9502 45.418C6.08296 47.7596 10.7509 48.9972 15.5029 49.0117H16.125C20.3204 48.9381 23.7084 47.7438 26.4131 45.5674C26.5692 45.4468 26.7082 45.3208 26.8525 45.1914L25.6387 48.3828H36.4893L38.3135 42.8477C40.3732 43.5297 42.5312 43.8705 44.7012 43.8564C46.8166 43.8668 48.9207 43.544 50.9355 42.9004L52.7031 48.3828H70.4219V36.9121H74.2852C83.6278 36.912 89.1523 32.1619 89.1523 24.2061C89.1523 15.3503 83.7839 11.2823 72.3555 11.2822H60.3926V39.6709L49.9453 11.2734H39.5859L30.668 35.0146C29.7133 29.0295 23.5256 26.9621 18.6348 25.4121C15.4116 24.3798 11.9911 22.859 12.0352 21.1768C12.0617 19.8003 13.8707 18.5297 17.4502 18.7119C19.8573 18.8384 21.9792 19.0322 26.2041 21.0645L30.3584 13.8447C26.49 11.8889 21.1691 10.6505 16.7998 10.6445H16.7725Z" fill="black"/>
</svg>
