<svg width="188" height="60" viewBox="0 0 188 60" fill="none" xmlns="http://www.w3.org/2000/svg">
<path fill-rule="evenodd" clip-rule="evenodd" d="M34.3068 42.3473C33.977 45.0647 32.3275 47.241 29.7727 48.3308C28.3498 48.9378 26.4394 49.2656 24.9272 49.1626C22.5683 49.0726 20.3521 48.4999 18.3093 47.4531C17.5795 47.0788 16.4916 46.3317 15.6562 45.6319C15.4446 45.455 15.4195 45.3417 15.5595 45.1434C15.6351 45.0297 15.7745 44.8244 16.0826 44.3738C16.5294 43.7202 16.5852 43.6383 16.6354 43.5616C16.7784 43.3426 17.0107 43.3235 17.2398 43.5035C17.2638 43.5222 17.2638 43.5222 17.282 43.5364C17.3196 43.5655 17.3196 43.5655 17.4083 43.6343C17.498 43.7041 17.5512 43.7453 17.5728 43.7614C19.7759 45.4839 22.3417 46.4773 24.9321 46.5766C28.5361 46.5276 31.1277 44.91 31.5921 42.4261C32.1027 39.6923 29.953 37.3309 25.7472 36.0147C24.4319 35.6031 21.1071 34.2745 20.494 33.9156C17.6152 32.2294 16.2693 30.0208 16.4606 27.2928C16.7537 23.5113 20.2702 20.691 24.7135 20.6721C26.7006 20.668 28.6835 21.0803 30.5884 21.8815C31.2628 22.1653 32.4671 22.8195 32.8829 23.1294C33.1224 23.305 33.1697 23.5096 33.0324 23.7304C32.9558 23.8584 32.8291 24.0613 32.5619 24.4843L32.559 24.489C32.2074 25.0462 32.1964 25.0636 32.1157 25.1939C31.9764 25.4057 31.8125 25.4255 31.5612 25.2663C29.5228 23.8993 27.2631 23.2116 24.7779 23.1619C21.6839 23.223 19.3649 25.0612 19.2125 27.5653C19.1719 29.8269 20.8712 31.4781 24.5416 32.7371C31.9922 35.1272 34.8434 37.9293 34.3068 42.3473ZM25.1055 3.30387C29.9562 3.30387 33.91 7.89915 34.095 13.6515H16.1162C16.3011 7.89915 20.255 3.30387 25.1055 3.30387ZM50.2092 14.733C50.2092 14.1356 49.7274 13.6515 49.1332 13.6515H37.4798C37.1939 6.05628 31.7631 0 25.1055 0C18.4481 0 13.0173 6.05628 12.7314 13.6515L1.06132 13.6517C0.476179 13.6623 0.00506903 14.1424 0.00506903 14.733C0.00506903 14.7612 0.00612782 14.7892 0.0082354 14.8168H0L1.66356 51.4247C1.66377 51.5266 1.66757 51.6293 1.67518 51.7327C1.67687 51.7561 1.67877 51.7792 1.68067 51.8023L1.68426 51.8796L1.68827 51.8836C1.94103 54.431 3.79296 56.4827 6.3111 56.5774L6.3168 56.5829H43.3352C43.3527 56.5832 43.3702 56.5834 43.3878 56.5834C43.4053 56.5834 43.4228 56.5832 43.4403 56.5829H43.5191L43.5208 56.5815C46.0829 56.5116 48.1582 54.4312 48.3774 51.8525L48.3787 51.8512L48.3803 51.8166C48.3824 51.7894 48.3844 51.7624 48.3861 51.7353C48.3901 51.6703 48.3928 51.6056 48.3939 51.5413L50.2091 14.7888H50.2078C50.2089 14.7703 50.2092 14.7516 50.2092 14.733ZM173.618 38.592C174.332 36.2695 176.488 34.7212 179.005 34.7212C181.407 34.7212 183.694 36.3497 184.484 38.5875L184.538 38.7413H173.572L173.618 38.592ZM186.979 41.9566C186.994 41.9573 186.994 41.9573 187.015 41.9575C187.037 41.9573 187.037 41.9573 187.059 41.9566C187.584 41.9326 188 41.4858 188 40.942C188 40.9157 187.999 40.893 187.997 40.8565C187.997 40.8498 187.997 40.8365 187.997 40.7937C187.997 35.6646 183.97 31.508 179.002 31.508C174.034 31.508 170.006 35.6646 170.006 40.7937C170.006 41.1761 170.028 41.5574 170.073 41.9364L170.076 41.9567L170.09 42.0567C170.338 43.9022 171.126 45.5961 172.372 46.9667C172.372 46.9661 172.373 46.9673 172.379 46.9745C173.76 48.492 175.636 49.5262 177.716 49.913L177.743 49.9182V49.9155L177.878 49.938C177.948 49.9498 178.021 49.9614 178.119 49.9766C180.857 50.3052 183.285 49.9113 185.342 48.8775C185.848 48.6228 186.303 48.3417 186.698 48.0449C186.825 47.9492 186.939 47.8568 187.038 47.7702C187.089 47.7255 187.129 47.688 187.151 47.6663C187.615 47.1891 187.644 47.02 187.364 46.5843C187.056 46.0947 186.784 45.6775 186.551 45.3322C186.469 45.2113 186.398 45.1083 186.338 45.0228C186.306 44.9758 186.306 44.9758 186.285 44.9461C186.277 44.9345 186.277 44.9345 186.271 44.9271L186.268 44.9234C186.014 44.6084 185.841 44.5795 185.56 44.8275C185.53 44.854 185.429 44.9314 185.411 44.9505C183.433 46.7042 180.731 47.2684 178.034 46.7048C177.531 46.5702 177.062 46.3991 176.629 46.1927C174.939 45.3466 173.741 43.8392 173.396 42.0944L173.368 41.9566L186.979 41.9566ZM152.213 38.592C152.926 36.2695 155.083 34.7212 157.599 34.7212C160.001 34.7212 162.288 36.3497 163.078 38.5875L163.133 38.7413H152.167L152.213 38.592ZM165.573 41.9566C165.588 41.9573 165.588 41.9573 165.61 41.9575C165.631 41.9573 165.631 41.9573 165.653 41.9566C166.178 41.9326 166.594 41.4858 166.594 40.942C166.594 40.9157 166.593 40.893 166.591 40.8565C166.592 40.8498 166.592 40.8365 166.592 40.7937C166.592 35.6646 162.564 31.508 157.596 31.508C152.629 31.508 148.6 35.6646 148.6 40.7937C148.6 41.1761 148.623 41.5574 148.668 41.9364L148.67 41.9567L148.684 42.0567C148.932 43.9022 149.721 45.5961 150.966 46.9667C150.966 46.9661 150.967 46.9673 150.973 46.9745C152.355 48.492 154.23 49.5262 156.31 49.913L156.337 49.9182V49.9155L156.472 49.938C156.542 49.9498 156.615 49.9614 156.713 49.9766C159.451 50.3052 161.88 49.9113 163.936 48.8775C164.442 48.6228 164.898 48.3417 165.292 48.0449C165.419 47.9492 165.533 47.8568 165.632 47.7702C165.683 47.7255 165.723 47.688 165.745 47.6663C166.209 47.1891 166.238 47.02 165.958 46.5843C165.65 46.0947 165.378 45.6775 165.145 45.3322C165.063 45.2113 164.992 45.1083 164.933 45.0228C164.9 44.9758 164.9 44.9758 164.879 44.9461C164.871 44.9345 164.871 44.9345 164.865 44.9271L164.863 44.9234C164.609 44.6084 164.436 44.5795 164.154 44.8275C164.124 44.854 164.024 44.9314 164.006 44.9505C162.028 46.7042 159.326 47.2684 156.629 46.7048C156.126 46.5702 155.657 46.3991 155.224 46.1927C153.534 45.3466 152.336 43.8392 151.991 42.0944L151.963 41.9566L165.573 41.9566ZM135.876 47.0708C132.53 47.0708 129.794 44.4228 129.71 41.1043V40.792C129.793 37.4788 132.53 34.8303 135.876 34.8303C139.282 34.8303 142.044 37.5705 142.044 40.9506C142.044 44.3307 139.282 47.0708 135.876 47.0708ZM135.878 31.5835C133.684 31.5835 131.587 32.3296 129.902 33.6981L129.71 33.8535V32.1408C129.71 31.6841 129.612 31.5835 129.149 31.5835H126.995C126.526 31.5835 126.433 31.6767 126.433 32.1408V59.4427C126.433 59.8911 126.538 60 126.995 60H129.149C129.607 60 129.71 59.8935 129.71 59.4427V48.057L129.902 48.2124C131.587 49.5811 133.684 50.3272 135.878 50.3272C141.094 50.3272 145.322 46.1312 145.322 40.9553C145.322 35.7795 141.094 31.5835 135.878 31.5835ZM113.698 46.8617C110.285 46.8617 107.518 44.1456 107.518 40.7942C107.518 37.4429 110.285 34.7266 113.698 34.7266C117.111 34.7266 119.878 37.4429 119.878 40.7942C119.878 44.1454 117.111 46.8617 113.698 46.8617ZM113.7 31.508C108.474 31.508 104.238 35.6678 104.238 40.7989C104.238 45.9297 108.474 50.0897 113.7 50.0897C118.926 50.0897 123.162 45.9297 123.162 40.7989C123.162 35.6678 118.927 31.508 113.7 31.508ZM92.6071 31.7144C90.6993 31.7144 88.8532 32.3267 87.3216 33.4584L87.1354 33.596V20.9164C87.1354 20.4962 86.9972 20.359 86.5763 20.359H84.322C83.8668 20.359 83.7628 20.4677 83.7628 20.9164V49.8415C83.7628 50.2794 83.8751 50.3994 84.322 50.3994H86.5763C86.9945 50.3994 87.1354 50.2554 87.1354 49.8415V40.3937C87.1588 37.4196 89.6022 35.019 92.6071 35.019C95.6196 35.019 98.0659 37.4313 98.0786 40.4152V49.8415C98.0786 50.3201 98.1584 50.3992 98.6379 50.3992H100.887C101.363 50.3992 101.446 50.3177 101.446 49.8415V40.3876C101.428 35.6186 97.4445 31.7144 92.6071 31.7144ZM61.1953 45.1526L61.1901 45.1607C60.8686 45.6468 60.734 45.8513 60.6588 45.9687C60.4054 46.3452 60.4369 46.513 60.8238 46.8396C61.7269 47.5664 62.8878 48.3296 63.671 48.7119C65.8501 49.7756 68.2038 50.3378 70.698 50.3887C72.3093 50.4698 74.3328 50.0873 75.8397 49.4165C78.5677 48.2017 80.3053 45.8339 80.6098 42.9175C81.1031 38.1919 78.023 35.2379 70.0896 32.8572L70.0875 32.8565C66.3912 31.6665 64.6548 30.0845 64.6542 27.8756C64.763 25.4343 67.0305 23.6105 70.0896 23.4967C72.5538 23.5028 74.7325 24.1562 76.8732 25.5314C77.3246 25.8047 77.5328 25.7543 77.8363 25.3612C77.8711 25.3032 77.9681 25.1625 78.3739 24.5808L78.3752 24.5789C78.7541 24.0356 78.8788 23.8542 78.9099 23.8006C79.1656 23.3202 79.129 23.135 78.6675 22.8083C78.2129 22.4832 76.9324 21.8181 76.2001 21.5263C74.1634 20.7152 72.0578 20.3212 69.9622 20.3619C65.1931 20.4653 61.4738 23.5616 61.2286 27.6235C61.0731 30.5575 62.5647 32.9167 65.6813 34.6609C66.555 35.1213 69.7496 36.3268 71.2406 36.7627C75.4803 38.0021 77.6907 40.2822 77.234 42.9722C76.8191 45.4163 74.2539 47.0417 70.6541 47.153C68.0437 47.0987 65.4135 46.1437 63.1298 44.4305C63.1184 44.4222 63.0605 44.3792 62.9538 44.2998C62.8037 44.1881 62.8037 44.1881 62.7813 44.1714C62.3157 43.8505 62.0418 43.8772 61.7576 44.3C61.7233 44.3523 61.3697 44.889 61.1953 45.1526Z" fill="black"/>
</svg>
