<svg width="228" height="36" viewBox="0 0 228 36" fill="none" xmlns="http://www.w3.org/2000/svg">
<path d="M14.0344 0C16.3237 1.22326e-05 19.6371 0.420643 23.9709 1.26373V7.85566C20.7463 6.56861 17.7532 5.92607 14.9878 5.92601C11.0933 5.92601 9.14569 6.99448 9.14569 9.13619C9.14571 9.93671 9.53803 10.5897 10.3235 11.0959C10.9768 11.5055 12.7769 12.3706 15.7194 13.6941C19.9561 15.5742 22.7767 17.2086 24.1821 18.5987C25.8496 20.2476 26.6852 22.3816 26.6852 24.997C26.6852 28.7562 25.0483 31.624 21.7779 33.5999C19.1284 35.202 15.6926 36 11.473 36C7.90934 36 4.31848 35.5801 0.703311 34.7372V27.8852C4.60642 29.1127 8.06044 29.7264 11.0648 29.7264C15.2128 29.7264 17.2868 28.6306 17.2868 26.4411C17.2867 25.625 16.9852 24.9394 16.3803 24.3841C15.7615 23.795 14.1767 22.9781 11.6303 21.9318C7.06103 20.0545 4.081 18.4532 2.69485 17.1289C0.898435 15.3809 0 13.1761 0 10.5122C3.72705e-05 7.08184 1.30918 4.46749 3.92476 2.67073C6.5114 0.889734 9.87943 0 14.0344 0Z" fill="black"/>
<path d="M215.353 0C217.689 0 220.717 0.370429 224.43 1.11516L225.287 1.26373V7.85477C222.062 6.5678 219.06 5.92607 216.28 5.92601C212.4 5.92601 210.465 6.99448 210.465 9.13619C210.465 9.93661 210.855 10.5898 211.638 11.0959C212.261 11.4899 214.069 12.3555 217.06 13.6941C221.264 15.5742 224.079 17.2086 225.497 18.5987C227.167 20.2476 228 22.3817 228 24.997C228 28.7561 226.373 31.6232 223.119 33.599C220.454 35.2012 217.01 35.9991 212.79 35.9991C209.223 35.9993 205.631 35.58 202.019 34.7372V27.8852C205.889 29.1126 209.342 29.7264 212.381 29.7264C216.53 29.7264 218.602 28.6306 218.602 26.4411C218.602 25.625 218.308 24.9394 217.723 24.3841C217.101 23.795 215.51 22.9782 212.948 21.9318C208.392 20.0699 205.409 18.4694 204.011 17.1289C202.215 15.3964 201.318 13.1832 201.318 10.4884C201.318 7.07287 202.624 4.46657 205.242 2.66984C207.825 0.88882 211.197 9.90005e-06 215.353 0Z" fill="black"/>
<path d="M103.677 22.7719L112.632 0.603125H124.577V35.2987H115.381V10.7333L105.197 35.6507H99.1854L89.1977 10.7333V35.2987H82.3643V0.603125H94.9399L103.677 22.7719Z" fill="black"/>
<path d="M41.8611 35.2987H32.1623V0.603125H41.8611V35.2987Z" fill="black"/>
<path d="M75.6324 6.87845H60.1048V14.7129H73.6206V20.4373H60.1048V28.6705H76.0327V35.2987H50.7568V0.603125H75.6324V6.87845Z" fill="black"/>
<path d="M158.349 6.87845H142.822V14.7129H156.338V20.4373H142.822V28.6705H158.752V35.2987H133.474V0.603125H158.349V6.87845Z" fill="black"/>
<path d="M188.301 23.8287V0.603125H195.133V35.2987H184.211L171.968 11.76V35.2987H165.134V0.603125H176.375L188.301 23.8287Z" fill="black"/>
</svg>
