<svg width="228" height="40" viewBox="0 0 228 40" fill="none" xmlns="http://www.w3.org/2000/svg">
<path d="M81.371 40C73.14 40 65.5128 37.5455 60.428 32.9682C58.6097 31.3324 57.1609 29.3271 56.1784 27.0861C55.1959 24.8451 54.7022 22.42 54.7303 19.9727C54.7247 17.5356 55.2287 15.1242 56.21 12.8939C57.1913 10.6635 58.6281 8.66357 60.428 7.02273C65.1496 2.72727 73.5032 0 81.371 0C90.0742 0 97.0431 2.19545 102.369 7.03182C104.161 8.6721 105.589 10.6724 106.557 12.9023C107.525 15.1321 108.013 17.5413 107.989 19.9727C107.977 22.4065 107.473 24.8127 106.507 27.0462C105.541 29.2796 104.133 31.2941 102.369 32.9682C97.4063 37.5727 89.6157 40 81.371 40V34.7364C85.734 34.7364 89.7837 33.2273 92.6121 30.4091C95.4405 27.5909 96.7253 24.1727 96.7253 19.9545C96.7253 15.9273 95.3134 12.1636 92.6121 9.5C89.82 6.75 85.675 5.2 81.371 5.2C77.0671 5.2 72.9039 6.73636 70.1118 9.5C67.4196 12.1682 66.0258 15.9455 66.0258 19.9545C65.9854 21.8807 66.3256 23.7959 67.0268 25.5901C67.728 27.3842 68.7765 29.0219 70.1118 30.4091C72.9039 33.1955 77.0399 34.7364 81.371 34.7364V40ZM21.2705 0C16.8713 0 11.8727 0.827273 7.65053 2.72727C3.70981 4.49091 0.500028 7.32273 0.500028 12.0182C0.494108 14.4771 1.42813 16.845 3.11053 18.6364C4.25007 19.6909 6.08877 21.4818 10.8921 22.5364C13.0395 22.9909 17.6294 23.7227 22.2012 24.2045C26.773 24.6864 31.204 25.1136 33.02 25.6C34.4638 25.9682 36.8927 26.4682 36.8927 29.1955C36.8927 31.9227 34.3366 32.7409 33.8917 32.9182C33.4468 33.0955 30.3778 34.5045 24.8662 34.5045C21.2145 34.4031 17.5959 33.7801 14.12 32.6545C12.0634 31.9182 9.90691 30.95 7.89569 28.4909C7.08403 27.3329 6.63373 25.9598 6.60179 24.5455H1.60779V38.5455H7.15567V36.65C7.15479 36.5094 7.19136 36.3711 7.26162 36.2494C7.33187 36.1276 7.43327 36.0269 7.55536 35.9574C7.67746 35.8879 7.81584 35.8523 7.95626 35.8542C8.09667 35.8561 8.23404 35.8955 8.35423 35.9682C10.968 37.1069 13.6868 37.9869 16.4717 38.5955C19.3864 39.2045 21.2705 39.6455 24.8934 39.6455C28.7164 39.7182 32.5265 39.1796 36.1799 38.05C38.6059 37.3842 40.8821 36.2594 42.8855 34.7364C44.0123 33.8698 44.923 32.7534 45.5461 31.4749C46.1692 30.1964 46.4877 28.7907 46.4766 27.3682C46.4955 24.6657 45.4538 22.0638 43.5755 20.1227C42.5312 19.1079 41.3212 18.2793 39.998 17.6727C38.5755 17.0293 37.0988 16.5136 35.5851 16.1318C32.7068 15.4273 26.2418 14.5455 23.1501 14.2364C19.9085 13.9 14.2835 13.4318 12.0362 12.7364C11.3552 12.5227 9.96593 11.8636 9.96593 10.25C9.96593 9.1 10.6015 8.12727 11.8546 7.34091C13.8476 6.09091 17.8701 5.31364 22.065 5.31364C26.1255 5.26456 30.1527 6.05209 33.8963 7.62727C34.902 8.06596 35.8479 8.63112 36.7111 9.30909C38.1181 10.5123 39.0925 12.1441 39.485 13.9545H43.966V1.76818H38.972V3.18182C38.972 3.63636 38.518 4.23636 37.61 3.74091C35.3581 2.56818 29.0294 0.0318182 21.2705 0ZM130.907 2.23636L155.314 24.2864L155.064 9.44091C155.037 7.49091 154.683 6.67727 152.576 6.67727H147.991V2.23636H168.875V6.67727H164.394C162.251 6.67727 162.124 7.36818 162.088 9.44091L162.465 37.8091H155.314L127.198 12.6909V30.5136C127.22 32.4545 127.311 33.3682 129.304 33.3682H134.298V37.8091H113.827V33.3682H118.622C120.41 33.3682 120.338 31.6591 120.338 30.4136V9.60909C120.338 8.24545 120.147 6.68182 117.341 6.68182H113.455V2.23636H130.907ZM192.701 33.3591C193.114 33.3591 193.526 33.3333 193.936 33.2818C194.149 33.2179 194.345 33.1083 194.511 32.9607C194.677 32.8132 194.809 32.6311 194.898 32.4273C194.961 32.1114 194.993 31.7902 194.994 31.4682V24.4455C194.994 24.2091 194.994 24.2045 194.694 23.8318C194.394 23.4591 181.909 9.28636 181.342 8.65C180.634 7.87727 179.39 6.68182 177.496 6.68182H173.161V2.23636H197.631V6.67273H194.68C193.999 6.67273 193.545 7.32273 194.126 8.03636C194.126 8.03636 202.362 17.9 202.439 18.0045C202.516 18.1091 202.584 18.1318 202.689 18.0364C202.793 17.9409 211.129 8.12727 211.192 8.03636C211.291 7.90691 211.35 7.75184 211.363 7.58961C211.376 7.42738 211.343 7.2648 211.266 7.12118C211.19 6.97757 211.074 6.85897 210.932 6.77947C210.79 6.69998 210.628 6.66293 210.466 6.67273H207.438V2.23636H227.5V6.68182H223.019C221.394 6.68182 220.749 6.98182 219.51 8.36364L206.003 23.7909C205.871 23.9819 205.813 24.2146 205.84 24.4455V31.4636C205.842 31.7858 205.875 32.107 205.94 32.4227C206.027 32.6268 206.158 32.8091 206.323 32.9568C206.489 33.1045 206.685 33.2139 206.897 33.2773C207.304 33.331 207.713 33.3568 208.123 33.3545H212.704V37.8H188.361V33.3545L192.701 33.3591Z" fill="black"/>
</svg>
