<svg width="192" height="40" viewBox="0 0 192 40" fill="none" xmlns="http://www.w3.org/2000/svg">
<path fill-rule="evenodd" clip-rule="evenodd" d="M188.309 0.0299091C187.932 10.4774 188.094 20.9315 188.088 31.3795C188.385 34.7044 187.217 36.6598 191.442 37.3795V38.6735C188.461 38.8462 185.495 39.2621 182.594 40.0006C182.589 39.2511 182.573 38.5011 182.546 37.7516C178.799 40.2856 173.682 40.7393 169.682 38.5397C166.323 36.7337 164.47 32.9327 164.238 29.2291C163.828 24.4524 165.235 19.0928 169.337 16.2194C173.084 13.4751 178.007 13.4267 182.412 14.1813C182.32 10.9252 182.643 7.64203 182.185 4.40686C182.104 2.81153 180.238 2.90299 179.095 2.55823C179.122 2.27787 179.182 1.71652 179.214 1.43616C181.903 1.3182 184.559 0.858233 187.185 0.282839L188.309 0.0299091ZM177.348 16.8776C175.961 16.8922 174.592 17.2639 173.419 18.068C171.08 19.729 170.518 22.7908 170.308 25.4703C170.12 28.4141 170.476 31.7129 172.583 33.9664C175.042 36.6295 179.285 36.733 182.422 35.2936C182.401 29.6703 182.417 24.0465 182.412 18.4235C180.947 17.4289 179.132 16.8585 177.348 16.8776Z" fill="black"/>
<path fill-rule="evenodd" clip-rule="evenodd" d="M128.936 13.7125C132.429 13.6425 136.176 14.6781 138.516 17.4166C141.557 20.9855 141.972 26.1238 140.98 30.5446C140.058 34.8034 136.796 38.6037 132.457 39.5582C128.343 40.4154 123.54 40.1296 120.235 37.2506C117.436 34.889 116.331 31.0993 116.347 27.5465C116.202 23.3955 117.635 18.9746 120.94 16.3004C123.161 14.4512 126.095 13.7447 128.936 13.7125ZM128.713 16.7301C128.106 16.7448 127.504 16.8561 126.93 17.0602C125.032 17.6749 123.836 19.497 123.221 21.2975C122.342 23.9877 122.245 26.8946 122.627 29.6871C122.994 31.7897 123.599 34.0272 125.221 35.5309C127.34 37.6712 131.303 37.4062 133.141 35.0289C135.012 32.603 135.389 29.3958 135.368 26.4254C135.238 23.6977 134.763 20.7756 132.99 18.6032C132.011 17.3875 130.5 16.7599 128.973 16.7301H128.713Z" fill="black"/>
<path d="M32.6733 8.82288C32.668 10.7043 32.6685 12.5804 32.6685 14.4615H41.2944V17.6969H32.6685C32.701 22.2255 32.5976 26.7596 32.7163 31.2936C32.835 33.019 32.8835 35.1705 34.4956 36.2272C36.5282 37.4351 38.9601 36.6798 40.9927 35.8873C41.618 37.4182 40.0277 38.2756 38.9224 38.9117C36.3291 40.168 33.1644 40.3031 30.4849 39.2574C28.1937 38.4 27.088 35.8928 26.9692 33.5963C26.6943 28.3022 26.9699 22.9974 27.0132 17.6979H23.6431L23.6265 16.6403C27.2875 15.2599 29.7563 12.1058 31.5464 8.76331C31.8267 8.77941 32.3929 8.80677 32.6733 8.82288Z" fill="black"/>
<path fill-rule="evenodd" clip-rule="evenodd" d="M54.6313 13.6061C56.3982 13.6243 58.1584 14.0503 59.6577 14.8824C61.577 16.02 62.5471 18.2365 62.6548 20.4039C62.8758 24.5925 62.644 28.7869 62.5796 32.9703C62.644 33.9458 62.5317 35.2122 63.4478 35.8434C64.154 36.3981 64.9685 35.8276 65.6909 35.6442C65.8905 35.8763 66.2939 36.3345 66.4937 36.5612C65.3452 37.7958 64.1861 39.2563 62.4341 39.5963C60.4237 40.1623 58.1161 39.4232 57.1401 37.4938C53.9381 40.3022 48.5307 40.7825 45.2905 37.8121C42.5409 34.7013 43.037 28.9536 46.8755 26.9264C50.0778 25.3305 53.5879 24.4733 56.979 23.3844C57.0219 21.3194 56.8383 18.6831 54.6821 17.7018C51.9328 16.1813 48.444 17.5349 46.9507 20.1715C46.6056 19.9774 45.9161 19.5939 45.5767 19.4C46.8256 15.4975 50.745 13.5665 54.6313 13.6061ZM56.9194 26.652C54.8221 27.3582 52.628 27.9568 50.7788 29.2291C48.8543 30.7873 48.7574 34.4958 51.0864 35.736C52.9895 36.6575 55.1348 35.9134 56.9409 35.11C56.9191 32.2907 56.9409 29.4712 56.9194 26.652Z" fill="black"/>
<path d="M10.4624 3.4635C14.0151 3.24788 17.5791 3.48021 21.0942 3.9762C20.884 6.47758 20.905 8.99533 21.0991 11.4967C20.7591 11.4967 20.0802 11.5016 19.7407 11.5016C19.4711 9.93831 19.1905 8.0409 17.5249 7.34534C15.0557 6.30477 12.1657 6.20217 9.60498 6.94592C6.25708 7.93792 5.70703 12.8659 8.19775 15.0172C11.3139 17.7452 15.1312 19.5294 18.3228 22.1764C23.3201 26.1551 22.668 35.4174 16.7378 38.2047C11.7457 40.5123 5.88503 39.9305 0.730957 38.4801C0.763168 36.0017 0.671437 33.5229 0.558105 31.0475C0.930028 31.0421 1.67984 31.0255 2.05713 31.0201C2.32137 32.5781 2.56379 34.4919 4.14307 35.2955C6.9677 36.8804 10.6122 37.0098 13.5454 35.6461C17.2062 33.6243 16.5325 27.78 13.1089 25.8121C10.1384 23.5246 6.7261 21.8334 3.98193 19.2506C0.941232 16.4255 0.563852 11.4763 2.521 7.94495C4.12208 5.1308 7.35171 3.72433 10.4624 3.46546V3.4635Z" fill="black"/>
<path d="M77.606 15.9821C80.8029 13.8905 84.9326 13.0766 88.5933 14.3707C91.2134 15.2494 93.0458 17.8158 93.2778 20.5328C93.8167 25.7032 93.035 30.9438 93.7251 36.1031C93.8008 37.7253 95.5481 38.0918 96.8149 38.3561C96.8203 38.6579 96.8203 39.262 96.8257 39.5641C92.557 39.225 84.0206 39.5457 83.9731 39.5475L83.9565 38.3258C83.9565 38.3258 87.0491 37.4557 87.2456 36.566C87.9518 32.7276 87.7845 28.7597 87.7466 24.8619C87.6064 22.533 87.666 19.6217 85.4399 18.2037C83.0515 16.8288 80.1233 17.4647 77.6812 18.3541C77.6973 23.4006 77.6812 28.4522 77.6812 33.4987C77.7512 34.8468 77.655 36.3834 78.5337 37.5045C79.2721 38.0167 80.1991 38.1083 81.0454 38.3453C81.0508 38.6475 81.0562 39.2569 81.0562 39.5641C76.8349 39.2894 72.6031 39.1109 68.3872 39.5582C68.3872 39.2564 68.3979 38.6577 68.3979 38.361C69.681 38.0645 71.3733 37.6602 71.6157 36.108C72.2033 32.3882 71.7509 28.5869 71.8911 24.8346C71.8375 22.6942 72.074 20.5273 71.6968 18.4137C71.4 16.969 69.6376 17.0497 68.5269 16.7643C68.5269 16.43 68.521 15.7618 68.521 15.4274C71.5352 15.3788 74.5927 15.0664 77.3745 13.8209C77.4714 14.5377 77.5466 15.2545 77.606 15.9821Z" fill="black"/>
<path d="M112.606 0.0347919C115.361 -0.143266 118.478 0.315924 120.408 2.49378C119.427 3.78779 118.488 5.10826 117.507 6.40198C116.413 5.14603 115.512 3.37724 113.744 3.02112C112.002 2.48234 109.814 3.38844 109.361 5.25354C108.627 8.21331 109.069 11.3077 108.961 14.3268H114.617V17.6969H108.957C108.957 22.7755 108.956 27.8537 108.951 32.9323C108.929 34.3716 109.162 35.7951 109.431 37.2076C110.725 37.8058 112.121 38.1134 113.549 38.1403C113.544 38.4907 113.539 39.1975 113.534 39.5533C108.908 39.2515 104.277 39.1592 99.6567 39.5475C99.6567 39.251 99.6675 38.6574 99.6675 38.361C101.128 38.102 102.939 37.4231 102.999 35.6656C103.565 29.6976 103.182 23.6864 103.295 17.6969C102.169 17.6969 101.041 17.6964 99.9146 17.691C99.9199 17.1841 99.9307 16.6723 99.936 16.1657C101.079 15.6371 102.196 15.0499 103.295 14.4459C103.295 10.9847 103.09 7.24295 104.923 4.15393C106.471 1.47456 109.587 0.0617222 112.606 0.0347919Z" fill="black"/>
<path d="M152.844 16.1168C155.745 13.7824 160.118 13.1898 163.207 15.5026L159.986 20.4186C158.482 18.1006 155.43 17.5399 153.02 18.7203C153.02 18.7203 153.004 28.9258 153.037 34.026C153.161 35.1635 152.983 36.6415 154.05 37.3854C155.08 37.989 156.331 37.9562 157.479 38.1393C157.479 38.49 157.473 39.2019 157.473 39.5524C152.842 39.2395 148.2 39.1748 143.569 39.5416L143.568 38.1403C145.061 37.8856 146.615 37.3688 146.841 36.4791C147.483 34.2849 147.171 31.9608 147.236 29.7018C147.171 26.106 147.365 22.5048 147.149 18.9147C147.133 17.1681 145.154 17.0119 143.871 16.7584C143.873 16.2633 143.863 15.7542 143.861 15.3131C146.879 15.2696 149.897 14.8606 152.764 13.8961L152.844 16.1168Z" fill="black"/>
</svg>
