<svg width="120" height="50" viewBox="0 0 120 50" fill="none" xmlns="http://www.w3.org/2000/svg">
<path fill-rule="evenodd" clip-rule="evenodd" d="M82.3662 10.5473C88.1994 10.5473 93.6992 15.8208 93.7328 25.5C93.7328 36.0806 88.2998 40.8873 82.3333 40.8874C79.4001 40.8874 77.6333 39.6526 76.4333 38.7848L76.3991 48.2307L68.0662 50V11.0809H75.3993L75.8327 13.1505C76.9994 12.0824 79.0996 10.5473 82.3662 10.5473ZM80.3666 17.9577C78.4666 17.9577 77.2658 18.6247 76.3991 19.5927L76.4333 31.9764C77.2333 32.844 78.4003 33.5442 80.3666 33.5442C83.433 33.5439 85.4999 30.2068 85.5 25.7345C85.5 21.3621 83.3998 17.958 80.3666 17.9577Z" fill="black"/>
<path d="M11.2664 10.5473C14.0331 10.5473 16.7668 10.9806 19.5335 12.0821V19.926C17.0001 18.5575 13.7998 17.7904 11.2664 17.7904C9.49989 17.7905 8.43305 18.291 8.43305 19.5927C8.43305 23.331 21.1335 21.5621 21.1668 31.5087C21.1668 37.4832 16.4001 40.9215 9.46703 40.9216C6.60038 40.9216 3.46622 40.3532 0.36623 39.018V31.0752C3.16622 32.6106 6.70038 33.7444 9.46703 33.7444C11.3334 33.7443 12.6666 33.2441 12.6667 31.709C12.6667 27.737 0 29.2055 0 19.9932C2.43007e-05 14.0854 4.49992 10.5473 11.2664 10.5473Z" fill="black"/>
<path d="M30.933 11.115H37.2663V18.2239H30.933V30.074C30.9333 35.0127 36.1987 33.4789 37.2663 33.0448V39.8203C36.1663 40.421 34.1664 40.9216 31.4335 40.9216C26.5002 40.9216 22.8002 37.2826 22.8002 32.3427L22.8332 5.60697L30.9671 3.87189L30.933 11.115Z" fill="black"/>
<path fill-rule="evenodd" clip-rule="evenodd" d="M107.966 10.5473C115.866 10.5473 120 17.2898 120 25.8346C120 26.6357 119.933 28.3715 119.933 28.8053H103.633C104 32.7436 106.866 33.8787 110.1 33.8787C113.4 33.8787 116 33.1771 118.267 32.0423V38.7177C116 39.986 112.999 40.8874 109.033 40.8874C100.899 40.8874 95.2331 35.8141 95.2331 25.7674C95.2332 17.2897 100.033 10.5475 107.966 10.5473ZM107.933 17.3228C105.833 17.3228 103.533 18.8919 103.533 22.6636H112.133C112.133 18.8919 109.966 17.3228 107.933 17.3228Z" fill="black"/>
<path d="M47.633 13.5852C49.5997 9.98038 53.5003 10.7145 54.567 11.115V18.7917C53.5337 18.4245 50.2003 17.9579 48.2337 20.528V40.3209H39.8995V11.115H47.0996L47.633 13.5852Z" fill="black"/>
<path d="M64.9667 40.3209H56.5996V11.115H64.9667V40.3209Z" fill="black"/>
<path d="M64.9667 6.7755L56.5996 8.57774V1.76927L64.9667 0V6.7755Z" fill="black"/>
</svg>
