<svg width="238" height="32" viewBox="0 0 238 32" fill="none" xmlns="http://www.w3.org/2000/svg">
<path fill-rule="evenodd" clip-rule="evenodd" d="M216.078 9.208C215.321 14.2664 214.465 19.3095 213.51 24.3344C214.976 23.2543 216.403 22.123 217.789 20.9424L217.006 25.5456C214.12 27.9606 211.029 30.1202 207.769 32C209.159 25.5456 210.443 18.696 211.368 12.384H208.017L208.59 9.2112H216.077V9.208H216.078ZM34.6218 9.4512C42.8464 9.4512 44.522 15.2176 43.701 19.9408C43.5252 20.9552 43.2793 21.7696 43.0748 22.232H26.1544C25.6433 26.1472 28.8986 27.8512 32.9941 27.8512C35.9332 27.8512 39.3994 26.7584 42.126 24.808L41.2587 29.7376C38.4681 31.2896 35.0355 31.9808 31.3649 31.9808C23.1515 31.9808 19.0927 27.1408 20.238 20.5296C21.273 14.5776 26.4835 9.4512 34.6218 9.4512ZM111.427 9.4512C119.653 9.4512 121.33 15.2176 120.513 19.9408C120.386 20.7248 120.177 21.4928 119.887 22.232H102.965C102.457 26.1472 105.709 27.8512 109.801 27.8512C112.74 27.8512 116.209 26.7584 118.933 24.808L118.069 29.7376C115.278 31.2896 111.842 31.9808 108.175 31.9808C99.9616 31.9808 95.9012 27.1408 97.0481 20.5296C98.0832 14.5776 103.29 9.4512 111.427 9.4512ZM89.4033 9.464C91.745 9.4464 94.0691 9.88 96.2462 10.7456L95.2527 16.6128C93.5532 14.3728 90.8585 13.7088 88.8682 13.7088C83.9884 13.7088 80.2443 16.7488 79.5798 20.7008C78.8115 25.1248 82.1116 27.6624 86.4691 27.6624C88.6063 27.6624 91.622 27.1664 93.8455 24.7744L92.812 30.5392C91.3872 31.0672 87.6191 31.976 84.466 31.976C76.5322 31.976 71.8472 27.128 73.0069 20.432C74.1298 13.9776 80.5015 9.464 89.4033 9.464ZM235.685 0.968C237.863 0.968 238.219 1.6464 237.898 3.4304C236.473 11.6704 234.796 20.1952 233.192 28.3632H237.257L235.936 31.5744H228.306C229.306 26.544 230.303 21.2304 231.195 16.0576H225.811C224.955 21.2304 223.958 26.4016 222.96 31.5744H218.644C219.679 26.4384 220.676 21.1952 221.497 16.0576H217.54L218.073 12.8832H222.104L223.493 5.2496L227.272 7.4608L226.346 12.8832H231.766C232.266 10.3488 232.764 7.7456 233.227 5.1776C233.403 4.2512 233.013 4.1408 232.192 4.1408H219.751L219.038 0.9696H235.687L235.685 0.968ZM198.519 0.0400002C198.449 1.5728 198.233 3.392 197.88 4.8208H199.34C199.912 3.536 200.482 2 200.944 0.6448H204.618C204.075 2.0528 203.492 3.4448 202.87 4.8208H205.439L204.76 7.64H197.094C196.951 8.1024 196.666 8.7808 196.417 9.2432H205.83L205.188 11.9536H199.7C200.875 13.7024 203.693 15.0256 205.865 15.4864L204.654 18.5536C203.156 18.2336 201.519 17.5184 200.198 16.7008L199.378 20.408H201.124C202.303 20.408 203.156 20.6592 202.944 22.1216C202.551 24.7616 201.838 28.4336 201.267 31.5376H191.783L191.001 28.72H197.989C198.308 27.2224 198.7 25.4016 198.914 23.904C198.987 23.4064 198.773 23.2272 198.273 23.2272H186.435L187.506 17.4848C186.419 17.9616 185.282 18.32 184.119 18.5536L184.867 15.0944C187.078 14.56 189.323 13.488 190.713 11.9552H185.437L186.044 9.2464H192.568C192.924 8.7456 193.211 8.1024 193.353 7.6384H186.29L186.825 4.8224H189.357L188.43 0.6464H192.031L192.887 4.8224H194.136C194.558 3.26183 194.797 1.65747 194.849 0.0416L198.519 0.0400002ZM184.044 0.9344C185.792 0.9344 186.504 1.2208 186.185 2.8944C184.437 12.4912 182.869 21.9792 181.084 31.5376H177.484C178.198 27.936 179.018 24.1184 179.623 20.5888H177.058C176.28 24.2425 175.483 27.8921 174.668 31.5376H171.068C174.098 21.8704 175.594 11.9216 177.305 0.9344H184.044ZM62.8991 9.4528C67.3109 9.4528 71.5022 11.8768 70.3186 18.696L68.0632 31.512H61.6628L63.8032 19.336C64.3383 16.2416 63.3879 13.8848 59.8913 13.8848C57.3484 13.8848 55.3422 15.4192 54.387 17.0848C54.1123 17.5328 53.8998 18.1936 53.7928 18.816L51.5661 31.5104H45.1641L47.7933 16.352C48.2277 13.8608 48.5057 11.3216 48.7117 9.4528L54.3503 12.784H54.4988C55.9076 11.1088 58.9026 9.4528 62.9007 9.4528H62.8991ZM139.708 9.4528C144.116 9.4528 148.311 11.8768 147.126 18.696L144.873 31.512H138.471L140.61 19.336C141.147 16.2416 140.198 13.8848 136.698 13.8848C134.155 13.8848 132.149 15.4192 131.194 17.0848C130.919 17.5328 130.705 18.1936 130.6 18.816L128.373 31.5104H121.971L124.6 16.352C125.035 13.8608 125.314 11.3216 125.522 9.4528L131.156 12.784H131.303C132.715 11.1088 135.706 9.4528 139.704 9.4528H139.708ZM29.8858 0L29.0919 4.5824H17.6983L12.9702 31.5104H6.56497L11.2946 4.5824H0L0.798658 0H29.8874H29.8858ZM168.7 14.0048H160.715L157.637 31.5104H151.234L154.305 14.0048H150.651L147.814 9.936H155.024L156.091 3.8576L168.7 14.0016V14.0048ZM196.808 24.5824V24.6176L196.203 27.328H184.115L183.616 24.5824H196.808ZM196.487 17.1984H188.68L191.036 18.2704L190.604 20.408H195.777L196.487 17.1984ZM33.5756 13.1744C29.635 13.1744 27.4706 16.2224 26.803 18.4304H37.9378C38.3132 16.4336 37.858 13.1744 33.574 13.1744H33.5756ZM110.379 13.1744C106.445 13.1744 104.279 16.2224 103.613 18.4304H114.748C115.122 16.4336 114.668 13.1744 110.379 13.1744ZM181.227 12.064H178.767C178.397 13.9678 178.016 15.8697 177.626 17.7696H180.193L181.227 12.064ZM196.166 11.952H194.845C194.05 12.9168 193.14 13.7808 192.136 14.5248H197.805C197.198 13.8448 196.559 12.7392 196.166 11.9552V11.952ZM181.973 3.8944H180.188C179.904 5.6064 179.618 7.3888 179.264 9.2432H181.687L182.578 4.5728C182.688 4.0352 182.473 3.8944 181.971 3.8944H181.973ZM215.612 0.00639992C216.184 2.4304 216.861 5.0352 217.396 7.5312H213.152C212.689 5.1072 212.117 2.4672 211.585 0.00639992H215.612Z" fill="black"/>
</svg>
