<svg width="224" height="42" viewBox="0 0 224 42" fill="none" xmlns="http://www.w3.org/2000/svg">
<path d="M205.572 42C207.711 42 209.721 40.418 213.741 31.992C216.478 26.005 218.531 20.702 220.669 15.271C221.353 13.517 221.696 13.175 222.765 12.876C223.534 12.662 223.834 12.363 223.834 11.892C223.834 11.464 223.577 11.079 222.936 11.079C221.995 11.079 220.883 11.208 219.6 11.208C218.274 11.208 217.291 11.079 216.307 11.079C215.708 11.079 215.409 11.422 215.409 11.849C215.409 12.319 215.708 12.619 216.392 12.833C218.274 13.346 218.445 14.159 217.718 16.383C216.563 19.89 215.28 23.268 213.313 27.759C211.645 23.61 210.234 19.889 208.823 15.699C208.309 14.073 208.481 13.389 210.491 12.833C211.26 12.619 211.517 12.363 211.517 11.893C211.517 11.422 211.175 11.079 210.576 11.079C209.293 11.079 207.967 11.208 206.214 11.208C204.332 11.208 202.964 11.079 201.638 11.079C200.996 11.079 200.697 11.464 200.697 11.892C200.697 12.405 200.953 12.662 201.723 12.876C202.707 13.132 203.006 13.474 203.605 15.014C205.957 20.874 208.053 26.048 210.79 33.062C208.951 36.44 207.582 37.21 205.743 37.552C204.247 37.809 203.263 38.75 203.263 39.947C203.263 40.931 203.947 42 205.572 42ZM192.229 12.79C194.966 12.79 196.207 15.27 196.207 16.254C196.207 16.596 196.036 16.854 195.651 16.939C193.341 17.537 190.561 18.093 187.653 18.607C188.166 14.715 190.091 12.79 192.229 12.79ZM192.529 32.035C196.249 32.035 198.815 30.196 200.355 28.357C201.039 27.545 200.612 26.817 199.927 26.817C199.756 26.817 199.585 26.903 199.414 26.989C197.618 28.101 196.207 28.699 194.282 28.699C190.048 28.699 187.525 24.979 187.525 20.745V20.659C191.716 20.061 195.822 19.248 200.056 18.264C200.612 18.136 200.996 17.708 200.868 17.067C200.184 13.987 197.361 10.609 192.486 10.609C187.61 10.609 183.12 15.142 183.12 21.686C183.12 27.844 187.097 32.035 192.529 32.035ZM172.557 31.693C173.968 31.693 175.465 31.565 177.175 31.565C178.886 31.565 180.469 31.693 181.88 31.693C182.521 31.693 182.821 31.308 182.821 30.88C182.821 30.41 182.521 29.982 181.794 29.897C179.87 29.683 179.528 29.469 179.528 28.571C179.442 24.423 179.442 20.531 179.442 16.682C179.442 13.132 179.442 9.24101 179.57 0.602014C179.57 0.046014 179.228 -0.082986 178.758 0.046014C176.748 0.549316 174.704 0.906581 172.642 1.11501C171.915 1.15801 171.616 1.50001 171.616 1.92701C171.616 2.39701 171.915 2.74001 172.728 2.86801C174.609 3.21001 174.823 3.42401 174.866 4.40801C174.952 8.72801 174.952 12.79 174.952 16.682C174.952 20.531 174.952 24.422 174.866 28.572C174.823 29.469 174.567 29.64 172.642 29.897C171.872 29.982 171.616 30.41 171.616 30.881C171.616 31.308 171.915 31.693 172.557 31.693ZM162.892 12.79C165.629 12.79 166.869 15.27 166.869 16.254C166.869 16.596 166.698 16.854 166.313 16.939C164.003 17.537 161.224 18.093 158.316 18.607C158.829 14.715 160.753 12.79 162.892 12.79ZM163.191 32.035C166.912 32.035 169.478 30.196 171.017 28.357C171.702 27.545 171.274 26.817 170.59 26.817C170.419 26.817 170.247 26.903 170.076 26.989C168.28 28.101 166.869 28.699 164.944 28.699C160.71 28.699 158.187 24.979 158.187 20.745V20.659C162.378 20.061 166.484 19.248 170.718 18.264C171.274 18.136 171.659 17.708 171.531 17.067C170.846 13.987 168.024 10.609 163.148 10.609C158.273 10.609 153.782 15.142 153.782 21.686C153.782 27.844 157.76 32.035 163.191 32.035ZM132.313 31.693C133.725 31.693 135.136 31.565 136.846 31.565C138.557 31.565 140.011 31.693 141.423 31.693C142.064 31.693 142.363 31.308 142.363 30.88C142.363 30.41 142.107 30.068 141.337 29.897C139.413 29.597 139.199 29.469 139.199 28.571C139.156 27.203 139.156 25.834 139.156 24.508C140.099 23.9058 141.026 23.2786 141.936 22.627C143.732 25.321 145.571 28.101 147.367 30.667C147.923 31.479 148.223 31.65 149.121 31.65C150.404 31.65 151.986 31.608 153.825 31.65C154.466 31.65 154.809 31.266 154.809 30.795C154.809 30.367 154.637 29.982 153.739 29.897C152.542 29.769 151.9 29.17 150.874 27.844C149.078 25.406 147.196 22.626 145.443 19.932C145.443 19.89 145.485 19.89 145.528 19.847C148.821 16.981 151.002 14.8 152.628 12.662C152.841 12.362 152.97 12.106 152.97 11.849C152.97 11.336 152.628 10.994 151.943 11.037C149.933 11.207 148.094 11.207 145.827 11.079C144.929 11.037 144.673 11.464 144.673 11.892C144.673 12.277 144.972 12.705 145.571 12.833L146.426 13.047C147.838 13.389 147.838 14.544 146.084 16.383C144.202 18.393 141.765 20.317 139.113 21.985V16.682C139.113 13.132 139.113 9.24101 139.241 0.602014C139.241 0.046014 138.899 -0.082986 138.429 0.046014C136.419 0.549316 134.375 0.906581 132.313 1.11501C131.586 1.15801 131.287 1.50001 131.287 1.92701C131.287 2.39701 131.586 2.74001 132.399 2.86801C134.28 3.21001 134.494 3.42401 134.537 4.40801C134.623 8.72801 134.623 12.79 134.623 16.682C134.623 20.531 134.623 24.422 134.537 28.572C134.494 29.469 134.323 29.598 132.399 29.897C131.629 30.068 131.372 30.41 131.372 30.881C131.372 31.308 131.672 31.693 132.313 31.693ZM116.447 31.693C117.816 31.693 119.27 31.565 120.937 31.565C122.605 31.565 124.53 31.693 125.898 31.693C126.497 31.693 126.797 31.308 126.797 30.88C126.797 30.41 126.54 30.025 125.685 29.897C123.504 29.64 123.29 29.427 123.247 28.528C123.161 26.176 123.161 24.081 123.161 21.344V17.75C125.385 14.8 126.412 14.2 127.524 14.2C128.849 14.2 129.961 15.868 130.517 15.868C130.817 15.868 130.988 15.783 131.202 15.355C131.629 14.5 132.057 13.645 132.485 12.747C132.741 12.191 132.613 11.891 132.1 11.549C131.073 10.865 130.004 10.394 128.935 10.394C127.053 10.394 125.342 11.977 123.204 15.484C123.204 14.072 123.247 12.533 123.29 10.822C123.29 10.266 122.948 10.138 122.477 10.266C120.253 10.865 118.158 11.206 116.361 11.336C115.634 11.421 115.378 11.72 115.378 12.19C115.378 12.661 115.634 13.003 116.447 13.131C118.329 13.473 118.543 13.687 118.585 14.628C118.671 16.767 118.671 19.033 118.671 21.343C118.671 24.08 118.671 26.175 118.585 28.527C118.543 29.426 118.414 29.639 116.532 29.896C115.763 30.067 115.506 30.409 115.506 30.88C115.506 31.307 115.806 31.692 116.447 31.692V31.693ZM106.055 12.79C108.792 12.79 110.032 15.27 110.032 16.254C110.032 16.596 109.861 16.854 109.476 16.939C107.167 17.537 104.387 18.093 101.479 18.607C101.992 14.715 103.917 12.79 106.055 12.79ZM106.354 32.035C110.075 32.035 112.641 30.196 114.181 28.357C114.865 27.545 114.437 26.817 113.753 26.817C113.582 26.817 113.411 26.903 113.24 26.989C111.444 28.101 110.032 28.699 108.108 28.699C103.874 28.699 101.351 24.979 101.351 20.745V20.659C105.542 20.061 109.648 19.248 113.881 18.264C114.437 18.136 114.822 17.708 114.694 17.067C114.01 13.987 111.187 10.609 106.312 10.609C101.436 10.609 96.946 15.142 96.946 21.686C96.946 27.844 100.923 32.035 106.354 32.035ZM80.267 29.341C78.984 29.041 78.557 28.614 78.514 27.074C78.428 23.824 78.428 21.301 78.428 16.682V16.597C85.698 16.425 89.505 18.05 89.505 23.354C89.505 26.476 87.281 29.598 82.79 29.598C81.636 29.598 80.909 29.512 80.267 29.341ZM78.514 5.52001C78.514 4.66401 78.727 4.32201 79.369 4.06601C79.882 3.89501 80.652 3.80901 81.849 3.80901C85.399 3.80901 87.58 5.73401 87.58 9.49701C87.58 11.593 86.896 13.347 85.784 14.672C83.603 14.287 81.122 14.159 78.428 14.287C78.428 10.908 78.428 8.47101 78.514 5.52001ZM83.474 31.95C90.574 31.95 94.808 27.801 94.808 22.969C94.808 19.163 92.498 16.725 88.692 15.399C90.83 14.116 92.67 11.764 92.67 8.94101C92.67 4.36501 88.863 1.54201 82.191 1.54201C79.326 1.54201 78.641 1.79901 75.947 1.79901C73.167 1.79901 71.457 1.58501 70.345 1.58501C69.661 1.58501 69.319 1.97001 69.319 2.52601C69.319 2.99601 69.575 3.38201 70.473 3.55301C72.783 3.89501 73.339 4.36501 73.339 5.52001C73.382 9.15501 73.424 11.892 73.424 16.682C73.424 21.472 73.424 24.295 73.339 27.93C73.296 29.17 72.869 29.512 70.559 29.726C69.661 29.854 69.404 30.282 69.404 30.752C69.404 31.308 69.746 31.693 70.431 31.693C72.099 31.693 73.681 31.608 75.947 31.608C78.086 31.608 80.052 31.95 83.474 31.95ZM48.706 32.206C52.341 32.206 55.72 31.18 58.927 29.084C59.825 28.528 60.082 27.93 60.082 27.331C60.082 26.176 60.167 25.107 60.124 24.166C60.082 23.439 59.74 23.012 59.141 23.012C58.671 23.012 58.328 23.311 58.157 23.952C57.045 27.673 53.709 29.683 49.476 29.683C43.231 29.683 38.527 24.508 38.527 16.682C38.527 8.77001 42.975 3.59501 49.561 3.59501C53.838 3.59501 56.404 5.17801 57.815 8.51401C58.115 9.19801 58.371 9.54001 58.927 9.54001C59.526 9.54001 59.782 9.11201 59.825 8.42801C59.868 7.44401 59.868 5.90501 59.868 4.96401C59.868 4.32201 59.654 3.80901 58.713 3.29601C56.447 2.05601 53.282 1.15801 49.903 1.15801C39.896 1.15801 33.053 8.04301 33.053 17.153C33.053 26.005 39.468 32.206 48.706 32.206ZM16.204 32.206C23.602 32.206 28.478 27.63 28.478 19.547V16.682C28.478 11.849 28.478 9.02701 28.52 5.13501C28.563 4.23701 28.99 3.85201 31.343 3.63801C32.156 3.51001 32.413 3.08201 32.413 2.61201C32.413 2.05601 32.07 1.67101 31.428 1.67101C30.06 1.67101 28.734 1.79901 27.024 1.79901C25.27 1.79901 23.901 1.67101 22.49 1.67101C21.849 1.67101 21.507 2.05601 21.507 2.61101C21.507 3.03901 21.763 3.46701 22.619 3.59501C25.099 3.85201 25.527 4.23701 25.527 5.13501C25.612 9.02701 25.612 11.849 25.612 16.682V19.205C25.612 25.535 22.49 28.742 17.272 28.742C11.927 28.742 9.147 25.407 9.147 19.505V16.682C9.147 11.849 9.147 9.02701 9.233 5.13501C9.233 4.23701 9.66 3.85201 12.013 3.63801C12.868 3.51001 13.124 3.08201 13.124 2.61201C13.124 2.05601 12.782 1.67101 12.098 1.67101C10.473 1.67101 8.848 1.79901 6.624 1.79901C4.4 1.79901 2.816 1.67101 1.15 1.67101C0.508 1.67101 0.166 2.05601 0.166 2.61101C0.166 3.08201 0.423 3.51001 1.278 3.63801C3.63 3.85201 4.058 4.23701 4.058 5.13501C4.143 9.02701 4.143 11.849 4.143 16.682V20.061C4.143 28.058 8.764 32.206 16.204 32.206Z" fill="black"/>
</svg>
