<svg width="170" height="50" viewBox="0 0 170 50" fill="none" xmlns="http://www.w3.org/2000/svg">
<path d="M41.5156 25.6465V25.7939C41.5157 25.8022 41.5217 25.8075 41.5293 25.8076L41.5674 25.8086C41.5864 25.8088 41.5879 25.8268 41.5879 25.8447C41.588 25.8685 41.5991 25.9892 41.6826 26.0615C41.6936 26.0722 41.6891 26.1016 41.6641 26.1016H41.6357C41.6142 26.1017 41.6124 26.1159 41.6191 26.127C41.6268 26.1411 41.6289 26.1812 41.6289 26.2002V26.2686C41.629 26.2804 41.6306 26.2899 41.6436 26.29H41.6562C41.6562 26.29 41.6658 26.2891 41.666 26.2998V29.7148C41.6554 29.7259 41.6206 29.76 41.6172 29.7637C41.614 29.7665 41.6114 29.7713 41.6113 29.7764V29.834C41.6113 29.8381 41.6106 29.8443 41.6074 29.8467C41.6056 29.8492 41.6 29.8505 41.5947 29.8506H41.5527C41.5453 29.8509 41.5383 29.8574 41.5381 29.8643V29.9512H40.4502V29.8643C40.45 29.8573 40.4445 29.8507 40.4375 29.8506H40.3936C40.3893 29.8505 40.3841 29.8492 40.3818 29.8467C40.3786 29.8443 40.377 29.8382 40.377 29.834V29.7764C40.3769 29.7721 40.3753 29.7687 40.3721 29.7646C40.3664 29.7595 40.3361 29.7297 40.3223 29.7148V26.2998C40.3224 26.2904 40.3311 26.29 40.3311 26.29H40.3438C40.3561 26.2899 40.3583 26.2804 40.3584 26.2686V26.2002C40.3584 26.1812 40.3614 26.1401 40.3701 26.126C40.3749 26.1149 40.3729 26.1016 40.3525 26.1016H40.3252C40.2986 26.1014 40.2958 26.0724 40.3066 26.0615C40.3908 25.9925 40.4003 25.8716 40.4004 25.8477C40.4004 25.827 40.3992 25.8087 40.4219 25.8086L40.46 25.8076C40.4671 25.8076 40.4745 25.8023 40.4746 25.7939V25.6465H41.5156Z" fill="black"/>
<path d="M43.5088 25.6465V25.7939C43.5089 25.8022 43.5135 25.8075 43.5205 25.8076L43.5596 25.8086C43.5779 25.8086 43.5791 25.8267 43.5791 25.8447C43.5792 25.8685 43.5907 25.9892 43.6748 26.0615C43.6859 26.0724 43.68 26.1016 43.6562 26.1016H43.6289C43.6073 26.1017 43.6052 26.1159 43.6113 26.127C43.619 26.1411 43.622 26.1812 43.6221 26.2002V26.2686C43.6221 26.2804 43.6234 26.2899 43.6357 26.29H43.6494C43.6494 26.29 43.659 26.29 43.6592 26.2998V29.7148C43.6497 29.7252 43.6143 29.759 43.6094 29.7637C43.6072 29.7665 43.6046 29.7714 43.6045 29.7764V29.834C43.6044 29.8382 43.6029 29.8443 43.5996 29.8467C43.5963 29.8491 43.5911 29.8505 43.5869 29.8506H43.5439C43.5371 29.8509 43.5315 29.8574 43.5312 29.8643V29.9512H42.4414V29.8643C42.4412 29.8573 42.4362 29.8507 42.4297 29.8506H42.3857C42.3814 29.8505 42.3767 29.8494 42.374 29.8467C42.3708 29.8443 42.3701 29.8381 42.3701 29.834V29.7764C42.3701 29.7721 42.3686 29.7687 42.3643 29.7646C42.3598 29.7601 42.3286 29.7299 42.3135 29.7148V26.2998C42.3136 26.2901 42.3242 26.29 42.3242 26.29H42.3359C42.3488 26.2899 42.3505 26.2804 42.3506 26.2686V26.2002C42.3506 26.1812 42.3527 26.1402 42.3604 26.126C42.368 26.1149 42.3662 26.1016 42.3447 26.1016H42.3164C42.2906 26.1014 42.2871 26.0721 42.2988 26.0615C42.3835 25.9925 42.3925 25.8716 42.3926 25.8477C42.3926 25.8271 42.3918 25.8089 42.4131 25.8086L42.4521 25.8076C42.4599 25.8076 42.4657 25.8023 42.4658 25.7939V25.6465H43.5088Z" fill="black"/>
<path d="M45.5 25.6465V25.7939C45.5001 25.8021 45.5053 25.8074 45.5127 25.8076L45.5537 25.8086C45.5705 25.8089 45.5713 25.8269 45.5713 25.8447C45.5714 25.8685 45.5834 25.9892 45.667 26.0615C45.6777 26.0723 45.6732 26.1016 45.6494 26.1016H45.6211C45.5995 26.1017 45.5978 26.1159 45.6045 26.127C45.6116 26.1412 45.6142 26.1812 45.6143 26.2002V26.2686C45.6143 26.2804 45.6162 26.2899 45.627 26.29H45.6416C45.6416 26.29 45.6512 26.2894 45.6514 26.2998V29.7148C45.6409 29.7257 45.6065 29.7595 45.6016 29.7637C45.5984 29.7665 45.5958 29.7714 45.5957 29.7764V29.834C45.5957 29.8381 45.5949 29.8443 45.5928 29.8467C45.5894 29.8494 45.5835 29.8506 45.5791 29.8506H45.5371C45.5306 29.8508 45.5237 29.8573 45.5234 29.8643V29.9512H44.4346V29.8643C44.4343 29.8572 44.428 29.8506 44.4209 29.8506H44.3779C44.3731 29.8505 44.3685 29.8494 44.3652 29.8467C44.363 29.8443 44.3623 29.8382 44.3623 29.834V29.7764C44.3623 29.7721 44.3608 29.7687 44.3564 29.7646C44.3514 29.76 44.3216 29.7299 44.3076 29.7148V26.3135C44.3076 26.3135 44.3067 26.3086 44.3066 26.2998C44.3068 26.2901 44.3164 26.29 44.3164 26.29H44.3291C44.3395 26.29 44.3427 26.2805 44.3428 26.2686V26.2002C44.3428 26.1812 44.3458 26.1402 44.3535 26.126C44.3594 26.1149 44.3573 26.1016 44.3369 26.1016H44.3096C44.2833 26.1014 44.2799 26.0721 44.291 26.0615C44.3762 25.9925 44.3847 25.8716 44.3848 25.8477C44.3848 25.8271 44.384 25.8089 44.4053 25.8086L44.4453 25.8076C44.4525 25.8076 44.4579 25.8023 44.458 25.7939V25.6465H45.5Z" fill="black"/>
<path d="M47.4922 25.6465V25.7939C47.4923 25.8021 47.498 25.8073 47.5049 25.8076L47.5459 25.8086C47.5633 25.8088 47.5644 25.8268 47.5645 25.8447C47.5645 25.8685 47.5752 25.9892 47.6582 26.0615C47.6698 26.0721 47.6656 26.1016 47.6416 26.1016H47.6133C47.5921 26.1019 47.5896 26.1159 47.5957 26.127C47.6044 26.1412 47.6055 26.1812 47.6055 26.2002V26.2686C47.6056 26.2804 47.6088 26.2899 47.6201 26.29H47.6338C47.6338 26.29 47.6424 26.2906 47.6426 26.2998C47.6426 26.3082 47.6436 26.3135 47.6436 26.3135V29.7148C47.6325 29.7257 47.5977 29.7594 47.5938 29.7637C47.5911 29.7665 47.5889 29.7714 47.5889 29.7764V29.834C47.5889 29.8382 47.5884 29.8443 47.584 29.8467C47.5817 29.8492 47.5774 29.8505 47.5723 29.8506H47.5283C47.5224 29.8508 47.5168 29.8573 47.5166 29.8643V29.9512H46.4268V29.8643C46.4265 29.8574 46.4205 29.8509 46.4141 29.8506H46.3711C46.3656 29.8505 46.3596 29.8494 46.3574 29.8467C46.3558 29.8443 46.3536 29.8381 46.3535 29.834V29.7764C46.3535 29.7722 46.3528 29.7686 46.3496 29.7646C46.344 29.76 46.315 29.7299 46.2988 29.7148V26.2998C46.299 26.2901 46.3096 26.29 46.3096 26.29H46.3193C46.3336 26.29 46.3349 26.2805 46.335 26.2686V26.2002C46.335 26.1812 46.338 26.1402 46.3457 26.126C46.3511 26.1149 46.3514 26.1017 46.3301 26.1016H46.3008C46.2754 26.101 46.2724 26.072 46.2852 26.0615C46.3687 25.9925 46.3769 25.8716 46.377 25.8477C46.377 25.827 46.377 25.8088 46.3984 25.8086L46.4375 25.8076C46.4452 25.8076 46.4501 25.8023 46.4502 25.7939V25.6465H47.4922Z" fill="black"/>
<path d="M49.4834 25.6465V25.7939C49.4835 25.8021 49.4915 25.8074 49.498 25.8076L49.5371 25.8086C49.5554 25.8086 49.5566 25.8267 49.5566 25.8447C49.5567 25.8685 49.5669 25.9892 49.6504 26.0615C49.6627 26.072 49.6598 26.1014 49.6338 26.1016H49.6055C49.585 26.1017 49.5831 26.1159 49.5898 26.127C49.5969 26.1413 49.5996 26.1813 49.5996 26.2002V26.2686C49.5997 26.2804 49.6014 26.2899 49.6133 26.29H49.627C49.627 26.29 49.6356 26.29 49.6357 26.2998V29.7148C49.6255 29.7255 49.5921 29.7592 49.5869 29.7637C49.5847 29.7665 49.5812 29.7714 49.5811 29.7764V29.834C49.581 29.8382 49.5794 29.8443 49.5762 29.8467C49.5738 29.8492 49.5687 29.8506 49.5635 29.8506H49.5215C49.5139 29.8507 49.5071 29.8573 49.5068 29.8643V29.9512H48.4189V29.8643C48.4187 29.8572 48.4123 29.8506 48.4062 29.8506H48.3633C48.3584 29.8505 48.3528 29.8494 48.3506 29.8467C48.3473 29.8443 48.3458 29.8382 48.3457 29.834V29.7764C48.3457 29.7722 48.345 29.7686 48.3408 29.7646C48.3369 29.7601 48.3067 29.7299 48.291 29.7148V26.2998C48.2912 26.2901 48.3018 26.29 48.3018 26.29H48.3135C48.325 26.29 48.3261 26.2805 48.3262 26.2686V26.2002C48.3262 26.1812 48.3307 26.1402 48.3379 26.126C48.3433 26.115 48.3414 26.1018 48.3213 26.1016H48.2939C48.2682 26.1014 48.2651 26.0721 48.2764 26.0615C48.361 25.9925 48.3701 25.8716 48.3701 25.8477C48.3701 25.827 48.3692 25.8088 48.3906 25.8086L48.4307 25.8076C48.4367 25.8075 48.4432 25.8022 48.4434 25.7939V25.6465H49.4834Z" fill="black"/>
<path fill-rule="evenodd" clip-rule="evenodd" d="M170 0V49.9941L159.336 50V42.8682H144.759V16.6816H133.526V50H123.177C124.017 49.4331 124.813 48.7922 125.549 48.0713C127.26 46.3644 128.116 44.7571 129.023 43.0498L119.452 38.4297C119.049 39.6343 117.487 44.2557 112.248 44.2559C106.707 44.2559 104.74 39.2827 104.74 34.0107C104.74 32.6024 104.741 28.5838 107.411 26.0234C108.167 25.27 109.729 24.1153 112.196 24.1152C116.932 24.1152 118.644 27.8813 119.553 29.9922L128.973 25.3193C128.218 23.9139 127.512 22.7095 126 21.1533C122.271 17.3354 117.134 15.4258 111.743 15.4258C99.704 15.4258 93.3048 25.1189 93.3047 34.6611C93.3047 40.4538 95.6425 46.4261 100.617 50H83.7188C84.1942 49.6585 84.6347 49.3004 85.0342 48.9258C89.2152 44.9583 89.2158 39.6831 89.2158 35.6162V16.7324H77.8809V38.8818C77.8809 40.389 77.8299 41.9456 76.5215 43.2012C75.8663 43.802 74.7066 44.4561 72.9434 44.4561C71.6343 44.4561 70.2732 44.1045 69.3672 43.1494C68.1087 41.945 68.0566 40.3889 68.0566 38.8818V16.7324H56.7725V37.8262C56.8731 41.5432 56.9218 45.5105 60.4492 48.9258C60.8449 49.3046 61.2884 49.6624 61.7646 50H0V0H170ZM38.9014 24.6904C38.8687 24.6971 38.8789 24.7256 38.8789 24.7256L38.9629 25.0361H38.9785C38.9842 25.0355 39.0739 25.0275 39.127 25.1113L39.2178 25.6123C39.2183 25.6169 39.2231 25.6463 39.2559 25.6465H39.5234V25.7939C39.5235 25.8022 39.5291 25.8075 39.5361 25.8076L39.5762 25.8086C39.5943 25.8088 39.5957 25.8268 39.5957 25.8447C39.5958 25.8685 39.6063 25.9892 39.6904 26.0615C39.7008 26.0722 39.6966 26.1014 39.6729 26.1016H39.6436C39.6231 26.1017 39.6218 26.1159 39.6279 26.127C39.6355 26.1413 39.6367 26.1813 39.6367 26.2002V26.2686C39.6368 26.2803 39.6384 26.2897 39.6504 26.29H39.6641C39.6641 26.29 39.6737 26.2891 39.6738 26.2998V29.7148C39.664 29.7256 39.6287 29.7602 39.625 29.7637C39.6218 29.7665 39.6192 29.7713 39.6191 29.7764V29.834C39.6191 29.8382 39.6184 29.8443 39.6162 29.8467C39.6128 29.8493 39.6069 29.8506 39.6025 29.8506H39.5605C39.5535 29.8507 39.5462 29.8573 39.5459 29.8643V30.3066H39.0693V31.1221H38.5898V31.9453L51.3682 31.9463V31.123H50.8887V30.3076H50.4131L50.4121 29.9512V29.8643C50.4119 29.8572 50.405 29.8506 50.3984 29.8506H50.3564C50.3509 29.8506 50.3461 29.8495 50.3428 29.8467C50.3406 29.8443 50.3389 29.8382 50.3389 29.834V29.7764C50.3388 29.7721 50.3374 29.7687 50.333 29.7646C50.327 29.7596 50.2981 29.7298 50.2842 29.7148V26.2998C50.2843 26.2905 50.293 26.29 50.293 26.29H50.3057C50.3172 26.29 50.3202 26.2805 50.3203 26.2686V26.2002C50.3204 26.1812 50.3235 26.1402 50.3301 26.126C50.3376 26.1149 50.3351 26.1016 50.3135 26.1016H50.2861C50.2609 26.1012 50.2573 26.0723 50.2676 26.0615C50.3523 25.9925 50.3622 25.8716 50.3623 25.8477C50.3623 25.827 50.3611 25.8087 50.3838 25.8086L50.4219 25.8076C50.4285 25.8075 50.4345 25.8022 50.4346 25.7939V25.6465H50.7031C50.732 25.6465 50.7368 25.6239 50.7373 25.6211L50.8281 25.1211C50.8778 25.0275 50.9731 25.0352 50.9814 25.0361H50.9951L51.0791 24.7256C51.0791 24.7256 51.0907 24.6971 51.0576 24.6904C51.0137 24.6811 45.0377 23.3955 44.9785 23.3828C44.9311 23.393 38.9495 24.6798 38.9014 24.6904ZM44.9814 16.9814C44.9776 16.9866 44.9212 17.0637 44.9209 17.083V17.127C44.9209 17.1417 44.9257 17.1455 44.9355 17.1455C44.9517 17.1455 44.9562 17.1776 44.9268 17.1777C44.8953 17.1779 44.8811 17.2047 44.8809 17.2188C44.8808 17.2315 44.8799 17.2329 44.8799 17.2432C44.8789 17.2637 44.7626 17.3959 44.6475 17.4873C44.6325 17.4992 44.6205 17.5056 44.6055 17.5078H44.5703C44.5621 17.5081 44.5547 17.516 44.5547 17.5244V17.5898C44.5548 17.5985 44.5622 17.6062 44.5703 17.6064H44.5977C44.6099 17.6091 44.6201 17.6238 44.6201 17.6553C44.6201 17.6853 44.612 17.7 44.6016 17.7051H44.5703C44.5622 17.7053 44.5549 17.7117 44.5547 17.7207V17.7861C44.5548 17.7947 44.5622 17.8025 44.5703 17.8027H44.5723C44.5753 17.8035 44.578 17.8037 44.5801 17.8037C44.5951 17.8037 44.6141 17.8006 44.6143 17.8232V18.5049C44.5947 18.5145 44.5684 18.533 44.5684 18.5654V18.6211C44.568 18.635 44.556 18.6572 44.5312 18.6572C44.5094 18.6572 44.4649 18.6572 44.4277 18.6572C44.4052 18.6574 44.3899 18.6749 44.3896 18.6904V18.8018C44.3898 18.8121 44.4026 18.8267 44.418 18.8262C44.4705 18.8247 44.5059 18.8397 44.5059 18.8779C44.5058 18.8823 44.5049 18.9199 44.5049 18.9199C44.5046 18.9555 44.4692 18.9719 44.4297 18.9854C44.3535 19.0121 44.1784 19.0588 44.1738 19.1816C43.8847 19.3157 43.3619 19.6048 42.9854 20.1719C42.5033 20.8323 42.5484 21.7448 42.5439 21.874C42.5426 21.9007 42.5234 21.9169 42.5029 21.917H42.4473C42.4235 21.9171 42.4229 21.9385 42.4229 21.9385V22.0332C42.4228 22.0371 42.4209 22.0557 42.3984 22.0557H42.3047C42.3021 22.0558 42.2805 22.0577 42.2803 22.082V22.1846C42.2803 22.1869 42.2796 22.2061 42.2539 22.2061H42.1592C42.1565 22.2061 42.1328 22.2072 42.1328 22.2324V22.3428C42.1329 22.3544 42.1404 22.3568 42.1484 22.3584C42.1769 22.3621 42.2352 22.3884 42.2354 22.4512C42.2355 22.5582 42.3007 22.5693 42.3271 22.5693V22.9668C42.3269 23.0589 42.2546 23.0956 42.2139 23.1055C42.2056 23.1072 42.1943 23.1171 42.1943 23.1279V23.5361L44.9814 22.9209H44.9854L47.7715 23.5361V23.1279C47.7715 23.1168 47.7594 23.1068 47.751 23.1055C47.7102 23.0955 47.6399 23.0587 47.6396 22.9668V22.5693C47.6661 22.5693 47.7313 22.5582 47.7314 22.4512C47.7316 22.3887 47.7889 22.3623 47.8164 22.3584C47.8259 22.3568 47.8339 22.3548 47.834 22.3428V22.2324C47.834 22.2067 47.8066 22.2061 47.8066 22.2061H47.7119C47.6886 22.2059 47.6875 22.1869 47.6875 22.1846V22.082C47.6873 22.0579 47.6651 22.0558 47.6621 22.0557H47.5684C47.5456 22.0555 47.544 22.0371 47.5439 22.0332V21.9385C47.5439 21.9385 47.5436 21.917 47.5195 21.917H47.4639C47.4445 21.9168 47.4242 21.9007 47.4229 21.874C47.4195 21.7448 47.4635 20.8324 46.9824 20.1719C46.6035 19.6046 46.0819 19.3157 45.7939 19.1816C45.7882 19.0587 45.6132 19.0121 45.5371 18.9854C45.4965 18.9719 45.4621 18.9555 45.4619 18.9199C45.4619 18.9199 45.4601 18.8822 45.46 18.8779C45.46 18.8398 45.496 18.8247 45.5479 18.8262C45.5644 18.8267 45.576 18.8122 45.5762 18.8018V18.6904C45.5759 18.6748 45.5618 18.6572 45.5391 18.6572C45.5008 18.6572 45.4574 18.6572 45.4355 18.6572C45.4109 18.6571 45.3988 18.6349 45.3984 18.6211V18.5654C45.3984 18.5329 45.3731 18.5145 45.3535 18.5049V17.8232C45.3536 17.8008 45.3708 17.8036 45.3857 17.8037C45.3878 17.8037 45.3913 17.8034 45.3936 17.8027H45.3965C45.4046 17.8025 45.4119 17.7947 45.4121 17.7861V17.7207C45.4119 17.7117 45.4046 17.7053 45.3965 17.7051H45.3652C45.3547 17.7 45.3467 17.6853 45.3467 17.6553C45.3467 17.6241 45.3568 17.6092 45.3701 17.6064H45.3965C45.4047 17.6062 45.412 17.5986 45.4121 17.5898V17.5244C45.4121 17.516 45.4048 17.508 45.3965 17.5078H45.3613C45.3463 17.5056 45.3344 17.4993 45.3193 17.4873C45.2041 17.3959 45.0878 17.2636 45.0869 17.2432V17.2188C45.0867 17.2046 45.0726 17.1777 45.041 17.1777C45.0109 17.1775 45.0153 17.1458 45.0312 17.1455C45.0423 17.1455 45.0449 17.1418 45.0449 17.127V17.083C45.0447 17.0634 44.9874 16.9843 44.9854 16.9814H44.9814Z" fill="black"/>
</svg>
