<svg width="270" height="60" viewBox="0 0 270 60" fill="none" xmlns="http://www.w3.org/2000/svg">
<path d="M80.7677 24.9968L85.0045 11.3497H90.5574L94.7574 24.9968L99.4926 11.3497H105.259L96.929 35.0739H92.9787L87.7452 18.5613L82.5484 35.0739H78.5971L70.2677 11.3497H76.0345L80.7677 24.9968ZM108.142 11.3497H113.482V35.0739H108.142V11.3497ZM119.355 11.3497H124.695V21.1065L133.7 11.3487H140.286L130.782 21.8487C131.6 22.981 133.131 25.1023 135.338 28.1777C137.545 31.2542 139.183 33.5526 140.286 35.0729H134.056L127.044 25.7032L124.66 28.3548V35.0729H119.32V11.3497H119.355ZM143.596 11.3497H148.936V35.0739H143.596V11.3497ZM176.203 20.1532L169.76 33.1287H166.592L160.185 20.1532V35.0739H154.845V11.3497H162.072L168.229 24.3958L174.423 11.3497H181.614V35.0739H176.274V20.1532H176.203ZM204.645 11.3497V16.0519H192.756V20.9661H203.435V25.4923H192.756V30.4065H205.036V35.0739H187.452V11.3497H204.645ZM227.996 14.461C230.274 16.5465 231.413 19.411 231.413 23.0874C231.413 26.7648 230.31 29.699 228.067 31.8561C225.86 34.0132 222.443 35.0739 217.886 35.0739H209.735V11.3497H218.172C222.479 11.3497 225.718 12.4103 227.996 14.461ZM224.116 28.5677C225.434 27.331 226.074 25.5629 226.074 23.2287C226.074 20.8965 225.434 19.0926 224.116 17.8548C222.799 16.5823 220.806 15.9813 218.1 15.9813H215.11V30.4065H218.492C220.912 30.4065 222.799 29.8065 224.116 28.5677ZM236.041 11.3497H241.38V35.0739H236.041V11.3497ZM264.269 35.0739L262.062 29.9468H252.059L249.853 35.0739H244.192L254.515 11.3497H259.677L270 35.0739H264.269ZM257.043 18.421L254.053 25.3152H260.033L257.043 18.421ZM79.9848 45.8574V48.7219H84.6126V50.3477H79.9858V54.6252H78.2052V44.2316H85.1826V45.8574H79.9848ZM104.974 53.1406C103.906 54.1665 102.625 54.661 101.058 54.661C99.4926 54.661 98.2113 54.1664 97.1429 53.1416C96.0755 52.1158 95.5413 50.8423 95.5413 49.3219C95.5413 47.8026 96.0755 46.529 97.1429 45.5042C98.2113 44.4784 99.4926 43.9839 101.058 43.9839C102.625 43.9839 103.906 44.4784 104.974 45.5032C106.042 46.529 106.576 47.8016 106.576 49.3219C106.576 50.8423 106.042 52.1158 104.974 53.1406ZM103.693 46.6703C102.981 45.9281 102.091 45.5748 101.058 45.5748C100.027 45.5748 99.1365 45.9281 98.4242 46.6703C98.0794 47.0195 97.8075 47.4337 97.6242 47.8889C97.441 48.3442 97.3501 48.8313 97.3568 49.3219C97.3568 50.3826 97.7129 51.2671 98.4242 51.9735C99.1365 52.681 100.027 53.07 101.058 53.07C102.091 53.07 102.981 52.7168 103.693 51.9735C104.038 51.6246 104.31 51.2104 104.493 50.7551C104.677 50.2999 104.768 49.8127 104.761 49.3219C104.761 48.2613 104.405 47.3777 103.693 46.6703ZM120.103 52.2213C120.565 52.7874 121.242 53.07 122.06 53.07C122.879 53.07 123.52 52.7874 124.018 52.2213C124.516 51.6561 124.73 50.9129 124.73 49.9587V44.1958H126.51V50.0294C126.51 51.5148 126.083 52.681 125.265 53.4939C124.446 54.3068 123.377 54.6968 122.096 54.6968C120.815 54.6968 119.746 54.3077 118.928 53.4948C118.109 52.6819 117.682 51.5497 117.682 50.0303V44.1948H119.462V49.9587C119.391 50.9129 119.64 51.6561 120.103 52.2213ZM146.053 44.1958H147.832V54.5903H145.91L140.001 47.0245V54.5903H138.222V44.1968H140.001L146.088 51.9397V44.1968L146.053 44.1958ZM167.589 45.5748C168.585 46.4942 169.084 47.731 169.084 49.3577C169.084 50.9835 168.585 52.2571 167.625 53.1765C166.664 54.1306 165.168 54.5903 163.139 54.5903H159.686V44.1968H163.281C165.133 44.1968 166.592 44.6555 167.589 45.5748ZM167.339 49.3926C167.339 47.0245 165.951 45.8216 163.245 45.8216H161.466V52.9287H163.424C164.706 52.9287 165.667 52.6461 166.343 52.0452C166.984 51.4432 167.339 50.5587 167.339 49.3926ZM181.827 52.2213L180.795 54.5903H178.908L183.5 44.1958H185.387L189.979 54.5903H188.092L187.06 52.2213H181.827ZM186.348 50.5955L184.461 46.3171L182.575 50.5945H186.348V50.5955ZM203.541 45.8216V54.5903H201.762V45.8226H198.593V44.2306H206.71V45.8216H203.541ZM217.602 44.1958H219.381V54.5903H217.602V44.1958ZM239.956 53.1406C238.889 54.1665 237.607 54.661 236.041 54.661C234.474 54.661 233.193 54.1664 232.125 53.1416C231.057 52.1158 230.524 50.8423 230.524 49.3219C230.524 47.8026 231.057 46.529 232.125 45.5042C233.193 44.4784 234.474 43.9839 236.041 43.9839C237.607 43.9839 238.889 44.4784 239.956 45.5032C241.025 46.529 241.558 47.8016 241.558 49.3219C241.558 50.8423 241.025 52.1158 239.956 53.1406ZM238.675 46.6703C237.963 45.9281 237.074 45.5748 236.041 45.5748C235.008 45.5748 234.119 45.9281 233.407 46.6703C233.062 47.0193 232.789 47.4335 232.606 47.8887C232.423 48.344 232.332 48.8312 232.338 49.3219C232.338 50.3826 232.695 51.2671 233.407 51.9735C234.119 52.681 235.008 53.07 236.041 53.07C237.074 53.07 237.963 52.7168 238.675 51.9735C239.02 51.6245 239.292 51.2103 239.476 50.7551C239.659 50.2998 239.75 49.8126 239.743 49.3219C239.743 48.2613 239.387 47.3777 238.675 46.6703ZM260.566 44.1958H262.347V54.5903H260.424L254.515 47.0245V54.5903H252.735V44.1968H254.515L260.602 51.9397L260.566 44.1958ZM32.7484 48.3319C41.7552 47.0594 48.66 39.3871 48.66 30.1239C48.66 24.4665 46.0974 19.4458 42.0755 16.0519L32.7484 25.3152V48.3319ZM27.5158 48.3319V25.3161L18.1897 16.0171C16.1261 17.7353 14.4663 19.8868 13.3282 22.3189C12.19 24.7509 11.6014 27.4038 11.6042 30.089C11.6042 39.389 18.51 47.0594 27.5158 48.3319ZM46.2397 14.1077C50.5471 18.3852 52.8968 24.0774 52.8968 30.0881C52.8968 36.0987 50.5113 41.8268 46.2397 46.0694C41.9332 50.3468 36.2013 52.681 30.15 52.681C24.1235 52.6916 18.3382 50.3143 14.0603 46.0694C9.78871 41.8268 7.36839 36.1345 7.36839 30.0881C7.36839 24.0426 9.75387 18.3494 14.0255 14.1068C14.3806 13.7535 14.7726 13.4003 15.1645 13.0461L9.96774 7.88419C9.57581 8.23839 9.21968 8.59161 8.82774 8.94484C6.05129 11.7029 3.87968 14.8848 2.38452 18.4558C0.811525 22.1322 0.000341608 26.0893 0 30.0881C0 34.1187 0.783871 38.0429 2.38452 41.7203C3.91548 45.2913 6.0871 48.4742 8.82774 51.2313C11.6052 53.9894 14.8084 56.1464 18.4035 57.631C22.1101 59.1946 26.0923 60.0002 30.1152 60C34.1729 60 38.1242 59.2219 41.8258 57.631C45.3932 56.1215 48.6424 53.95 51.4016 51.2313C54.1781 48.4732 56.3497 45.2913 57.8448 41.7203C59.4178 38.0439 60.229 34.0868 60.2294 30.0881C60.2294 26.0574 59.4455 22.1332 57.8448 18.4558C56.3139 14.8848 54.1423 11.7029 51.4016 8.94484C51.0455 8.59161 50.6535 8.23839 50.2626 7.88419L45.1006 13.0461C45.4926 13.3655 45.8487 13.7187 46.2397 14.1077ZM30.1161 0C35.3129 0 39.5129 4.17194 39.5129 9.33387C39.5129 14.4958 35.3129 18.6687 30.1161 18.6687C24.9194 18.6687 20.7184 14.4958 20.7184 9.33387C20.7184 4.17194 24.9184 0 30.1152 0H30.1161Z" fill="black"/>
</svg>
