<svg width="176" height="50" viewBox="0 0 176 50" fill="none" xmlns="http://www.w3.org/2000/svg">
<path fill-rule="evenodd" clip-rule="evenodd" d="M22.4268 0.00672185C22.4764 -0.0177629 26.4395 0.0300868 27.075 0.0629353C27.3519 0.0772036 28.1063 0.11101 28.7511 0.137479C29.9393 0.186233 30.0815 0.19336 31.5756 0.282901C35.1111 0.494871 37.9203 1.17484 40.5062 2.4459C42.0261 3.19295 43.262 4.05633 44.3949 5.16125C45.6526 6.3879 46.5158 7.58676 47.3084 9.21228C48.2317 11.1061 48.7872 13.1171 49.2211 16.1363C49.5572 18.475 49.7013 20.8465 49.7014 24.0441C49.7014 25.4637 49.6358 28.7742 49.6075 28.8332C49.5993 28.8476 49.5789 29.3471 49.5612 29.9428C49.4558 33.5705 49.0643 36.0239 48.1459 38.8038C47.3224 41.2975 46.2433 43.0848 44.5095 44.8284C43.3122 46.0323 42.1434 46.8769 40.6501 47.617C37.2609 49.2967 33.0075 50 26.2363 50C22.8699 50 20.1775 49.9259 18.2151 49.78C16.1738 49.6283 13.9446 49.2989 12.4929 48.9344C9.6396 48.2178 7.21298 46.8273 5.18122 44.7453C4.61287 44.1628 4.5669 44.1111 4.05605 43.456C2.45185 41.3989 1.48361 39.1667 0.981664 36.3719C0.32123 32.6945 0.00973218 29.2156 0.000346586 25.4164C-0.00744661 22.2459 0.115099 20.1301 0.478206 17.2068C0.985688 13.1208 1.53225 10.9792 2.61394 8.84078C3.28466 7.51473 4.03131 6.46383 5.0459 5.41421C6.68092 3.72261 8.61596 2.51649 11.0801 1.65402C13.5718 0.782003 17.5395 0.163775 21.3285 0.0568251C21.9209 0.0401164 22.4152 0.016977 22.4268 0.00672185ZM9.84888 15.5057C9.6714 15.5059 9.52832 15.6539 9.52827 15.8357V35.6118C9.52827 35.7921 9.67137 35.9404 9.84888 35.9405H13.9972C14.1738 35.9405 14.3203 35.7921 14.3203 35.6118V20.3474C14.3259 20.1392 14.3336 20.0185 14.341 19.9735C14.3527 19.9423 14.3698 19.9138 14.3898 19.8879C14.4274 19.8461 14.4776 19.81 14.5226 19.7951C14.5828 19.7759 16.1945 19.7638 18.2967 19.7621H20.4825C22.7541 19.766 23.68 19.7728 24.1225 19.7975C26.0238 20.0453 26.6904 21.5876 26.7873 22.7658C26.7943 23.0235 26.7978 23.3786 26.8019 23.8779V35.6118C26.8019 35.7921 26.9462 35.9404 27.1237 35.9405H31.2696C31.4462 35.9405 31.5915 35.7921 31.5915 35.6118V21.5829C31.5915 21.1775 31.5729 20.7099 31.4903 20.2106C31.4633 19.9861 31.4295 19.8496 31.3818 19.6985C31.1801 18.9126 30.7889 18.0754 30.0287 17.296C28.5342 15.7675 27.1706 15.5057 25.6463 15.5057H9.84888ZM35.6594 15.5057C35.4818 15.5057 35.3376 15.6538 35.3375 15.8357V35.6118C35.3375 35.7921 35.4818 35.9405 35.6594 35.9405H39.8065C39.9825 35.9405 40.1283 35.7921 40.1283 35.6118V35.156L40.1478 35.1315V15.8772L40.1283 15.8577V15.8357C40.1283 15.6539 39.9825 15.5058 39.8065 15.5057H35.6594ZM20.5702 23.2497C18.328 23.2497 18.2606 23.2527 18.1675 23.3463C18.073 23.4414 18.0724 23.5109 18.0724 29.3171C18.0724 35.1206 18.0732 35.1929 18.1675 35.288C18.2606 35.3816 18.3273 35.3845 20.5617 35.3845C22.7963 35.3845 22.8628 35.3816 22.9559 35.288C23.0505 35.1928 23.0522 35.1263 23.0522 29.3012C23.0522 23.6549 23.0483 23.4056 22.9644 23.3292C22.8853 23.2575 22.6475 23.2497 20.5702 23.2497Z" fill="black"/>
<path fill-rule="evenodd" clip-rule="evenodd" d="M123.301 15.8882C124.221 15.8413 126.532 15.8638 127.084 15.9249C128.029 16.0298 128.846 16.181 129.347 16.3441C129.911 16.5282 130.636 16.859 130.967 17.0834C131.084 17.163 131.192 17.2284 131.208 17.23C131.259 17.23 131.845 17.6945 132.12 17.9522C132.274 18.0977 132.464 18.3033 132.542 18.4093C132.619 18.5152 132.797 18.7561 132.937 18.9433C133.076 19.1304 133.19 19.2987 133.19 19.3173C133.191 19.3364 133.241 19.4316 133.301 19.5299C133.755 20.265 134.145 21.6273 134.269 22.9125C134.286 23.0846 134.311 23.2801 134.325 23.3463C134.382 23.6223 134.395 26.1111 134.343 26.6555C134.235 27.7729 133.932 29.3968 133.807 29.531C133.784 29.5561 133.764 29.6073 133.764 29.6446C133.764 29.7365 133.435 30.5516 133.313 30.7616C133.259 30.8543 133.171 30.9809 133.118 31.0426C133.065 31.1042 133.021 31.1692 133.021 31.1868C133.017 31.25 132.553 31.9176 132.512 31.9176C132.49 31.9177 132.472 31.9411 132.472 31.9702C132.472 32.0384 132.26 32.2405 131.753 32.6557C131.529 32.8389 131.325 33.0133 131.298 33.0431C131.249 33.0986 131.025 33.2254 130.556 33.4647C129.934 33.7818 128.826 34.1094 127.779 34.2847C127.267 34.3704 126.943 34.3865 125.529 34.3959C123.385 34.41 122.17 34.3229 121.362 34.0989C121.217 34.0587 120.941 33.9861 120.749 33.9376C120.2 33.7992 119.934 33.7027 119.471 33.4757C119.039 33.264 118.868 33.1692 118.824 33.1164C118.809 33.1001 118.702 33.031 118.585 32.9624C118.311 32.8024 117.62 32.1162 117.276 31.6634C116.766 30.9912 116.501 30.5114 116.297 29.8854C115.752 28.2175 115.657 27.6013 115.629 25.5582C115.61 24.1746 115.62 23.889 115.709 23.1263C115.808 22.2815 116.08 21.0081 116.219 20.7385C116.256 20.6658 116.286 20.5722 116.286 20.5307C116.286 20.3246 116.868 19.1754 117.199 18.727C117.617 18.1605 118.258 17.5113 118.602 17.3046C118.763 17.2079 118.936 17.1031 118.988 17.0712C119.462 16.7797 119.62 16.6953 119.976 16.5432C120.48 16.3282 120.932 16.2028 121.65 16.0789C122.435 15.9432 122.604 15.9238 123.301 15.8882ZM126.112 19.5922C125.561 19.5349 123.97 19.5344 123.565 19.591C123.226 19.6383 122.475 19.8163 122.32 19.8855C122.178 19.9489 121.796 20.143 121.536 20.2839C121.312 20.4055 120.82 20.9808 120.613 21.3629C120.159 22.2065 119.979 23.363 119.975 25.4592C119.973 26.4097 120.112 27.5354 120.327 28.3053C120.451 28.7482 120.777 29.3523 121.028 29.6067C121.444 30.0266 122.015 30.3533 122.638 30.5269C123.434 30.7483 123.771 30.786 124.978 30.786C126.511 30.786 127.106 30.6918 127.9 30.3253C128.456 30.0678 129.134 29.4863 129.412 29.0275C129.851 28.3036 130.01 26.8487 129.934 24.2604C129.874 22.2167 129.682 21.5078 128.981 20.7385C128.397 20.0985 127.49 19.7358 126.112 19.5922Z" fill="black"/>
<path fill-rule="evenodd" clip-rule="evenodd" d="M101.681 15.6072C101.71 15.5803 104.2 15.6291 104.363 15.6597C104.428 15.6721 104.579 15.6946 104.698 15.7098C105.226 15.7778 105.85 15.8955 106.158 15.986C108.022 16.5327 109.633 17.8165 110.41 19.3747C110.719 19.9935 110.852 20.372 111.089 21.2994C111.219 21.8053 111.33 22.6555 111.378 23.5137C111.418 24.2246 111.422 26.7479 111.384 27.4144C111.334 28.3019 111.165 29.515 111.066 29.6947C111.042 29.7387 110.977 29.9475 110.922 30.1591C110.825 30.5332 110.328 31.5688 110.098 31.8761C109.975 32.0415 109.592 32.4376 109.314 32.6887C108.877 33.0834 108.657 33.2155 107.787 33.6016C107.372 33.7859 106.871 33.9233 105.775 34.1527C104.99 34.3172 104.403 34.3486 102.184 34.3482C99.9876 34.3478 99.9787 34.348 99.1915 34.2126C98.7569 34.1379 98.3044 34.0437 98.1858 34.0036C98.0671 33.9636 97.7979 33.881 97.5872 33.8191C97.3765 33.7572 97.0558 33.639 96.8753 33.5576C96.6958 33.4764 96.5206 33.41 96.4852 33.4097C96.4504 33.4097 96.4147 33.3933 96.406 33.373C96.3974 33.3527 96.2713 33.2611 96.1268 33.169C95.5735 32.8161 94.4537 31.8203 94.4507 31.6793C94.4507 31.6539 94.3898 31.5289 94.3166 31.4019C94.1055 31.0381 93.9763 30.6861 93.8241 30.0638C93.4261 28.4335 93.557 26.6855 94.18 25.3199C94.4833 24.6556 95.5422 23.8046 96.6425 23.3414C97.4795 22.989 99.1557 22.6379 100.508 22.5312L101.848 22.4249C102.683 22.3591 104.607 22.4159 106.298 22.5556L106.725 22.5911L106.693 22.1133C106.66 21.6048 106.653 21.5618 106.569 21.2273C106.439 20.7135 106.28 20.4212 106.02 20.224C105.665 19.9545 105.341 19.8001 104.933 19.7071C104.738 19.6627 104.499 19.5972 104.403 19.5617C103.914 19.3817 101.531 19.3513 100.484 19.5116C99.8735 19.605 98.7743 19.8421 97.7798 20.0945C96.9988 20.2927 96.7008 20.3753 95.9586 20.6004C95.7573 20.6615 95.5507 20.6933 95.4405 20.6798C95.1058 20.6386 95.113 20.6848 95.1479 18.7466C95.1805 16.9396 95.198 16.7951 95.3942 16.7351C95.4411 16.7207 95.6305 16.6506 95.8148 16.5799C96.6302 16.2667 98.0449 15.9444 98.9696 15.8613C99.1499 15.8451 99.3129 15.8226 99.3316 15.8112C99.3498 15.8 99.5573 15.7755 99.7924 15.7575C100.028 15.7394 100.236 15.7157 100.254 15.7049C100.274 15.6941 100.597 15.673 100.972 15.6573C101.349 15.6414 101.668 15.6189 101.681 15.6072ZM104.938 26.0482C104.379 26.0095 101.952 25.9949 101.514 26.0274C101.206 26.0503 100.17 26.172 99.7571 26.2339C99.2863 26.3046 98.524 26.6028 98.3564 26.7814C98.1797 26.9702 97.8992 27.3432 97.8274 27.4841C97.6618 27.809 97.7151 28.8009 97.9225 29.2585C98.0815 29.6089 98.4546 30.0729 98.6868 30.2092C99.0206 30.4051 99.6174 30.5933 100.22 30.6931C100.326 30.7106 101.091 30.7316 101.921 30.7396C103.523 30.755 104.438 30.6944 104.842 30.5453C104.96 30.5014 105.106 30.4556 105.166 30.4438C105.538 30.3706 106.124 29.9569 106.329 29.6239C106.486 29.3678 106.648 28.7726 106.702 28.2503C106.771 27.5865 106.816 26.2403 106.77 26.2315C106.75 26.2295 106.69 26.2204 106.637 26.2119C106.584 26.2035 106.358 26.1839 106.135 26.168C105.911 26.152 105.673 26.1274 105.607 26.113C105.54 26.0985 105.24 26.0691 104.938 26.0482Z" fill="black"/>
<path d="M73.7138 16.129C73.891 16.0924 78.6035 16.1104 78.8276 16.1485C78.9591 16.1709 78.9823 16.195 78.98 16.3049C78.9757 16.5271 78.8242 16.8275 78.5704 17.1188C78.2045 17.5388 77.8241 18.0016 77.6646 18.2174C77.5867 18.3232 77.501 18.4382 77.4745 18.4741C77.4481 18.5097 77.3384 18.6404 77.2307 18.7637C77.1229 18.8869 77 19.0309 76.9588 19.0838C76.9172 19.1368 76.768 19.3211 76.6273 19.4932C76.486 19.6654 76.2546 19.9579 76.1128 20.1433C75.9711 20.3287 75.826 20.513 75.791 20.5527C75.7555 20.5925 75.6246 20.7556 75.4996 20.9144C75.1757 21.3272 75.1487 21.3596 74.9401 21.6061C74.8367 21.7284 74.6566 21.9592 74.5403 22.1181C74.424 22.2769 74.3144 22.4177 74.2977 22.431C74.2805 22.4442 74.1926 22.5526 74.1026 22.6717C73.8915 22.9506 73.8679 22.9776 73.5614 23.3218C73.2715 23.6477 73.0335 23.9512 72.8397 24.2408C72.7669 24.3492 72.6537 24.4845 72.5886 24.5414C72.5238 24.5981 72.4709 24.6629 72.4704 24.6856C72.4704 24.708 72.4164 24.7508 72.3509 24.781C72.282 24.8124 72.2315 24.8768 72.2314 24.9313C72.2314 25.0699 72.5066 25.4674 72.8897 25.882C72.9481 25.9455 72.9962 26.009 72.997 26.0238C72.997 26.0571 73.4077 26.5935 73.5407 26.7338C73.5971 26.7933 73.6654 26.8769 73.6918 26.9195C73.756 27.0235 74.3023 27.7458 74.3391 27.7761C74.357 27.7916 74.492 27.964 74.6402 28.1611C74.8244 28.4039 75.0112 28.6449 75.201 28.8833C75.5108 29.2709 75.7743 29.6101 76.2091 30.1835C76.3595 30.3822 76.5278 30.5865 76.5834 30.6369C76.6386 30.6871 76.684 30.7548 76.6845 30.7885C76.6845 30.8217 76.7014 30.8564 76.7223 30.8654C76.7582 30.8808 77.3159 31.5815 77.6171 31.9897C77.6957 32.0957 77.9001 32.3462 78.0718 32.547C78.2435 32.7476 78.4155 32.9754 78.4546 33.0529C78.4938 33.13 78.5963 33.2649 78.6825 33.3523C78.7676 33.4385 78.838 33.5202 78.8398 33.5356C78.8398 33.5494 78.8668 33.5894 78.9007 33.6236C78.9381 33.6611 78.9556 33.7622 78.9446 33.8802C78.9303 34.0303 78.9021 34.0811 78.8227 34.1026C78.7662 34.1179 77.5842 34.1316 76.1969 34.1319H73.6748L73.5273 34.0073C73.447 33.9392 73.3818 33.8626 73.381 33.8362C73.381 33.7915 73.1315 33.4036 73.0238 33.2802C72.9959 33.2485 72.9187 33.145 72.8531 33.0492C72.7435 32.8896 72.5346 32.6153 72.3387 32.3759C72.2961 32.3235 72.2165 32.2152 72.1619 32.1351C72.1068 32.0549 71.9711 31.8658 71.8596 31.7148C71.7483 31.5639 71.6564 31.4276 71.6561 31.4117C71.6561 31.3791 71.2941 30.8798 71.1672 30.7371C71.0112 30.5626 70.8612 30.3574 70.5419 29.8854C70.3685 29.629 70.0989 29.2586 69.9433 29.0617C69.7877 28.8648 69.5885 28.5928 69.5008 28.4568C69.4134 28.3212 69.3206 28.2092 69.2936 28.2087C69.2199 28.2087 68.9438 28.5281 68.6475 28.9554C68.5017 29.1656 68.3696 29.3489 68.3525 29.3648C68.3295 29.3848 68.0639 29.7321 67.7076 30.208C67.4543 30.5468 67.3347 30.6946 67.281 30.7371C67.2474 30.7636 67.0714 30.9914 66.8909 31.243C66.7104 31.4946 66.4577 31.8309 66.3289 31.9897C66.1996 32.1486 66.0669 32.3124 66.0339 32.3539C65.8968 32.5258 65.5408 33.0061 65.4024 33.2044C65.321 33.3215 65.1546 33.5301 65.0331 33.6676C64.9111 33.8049 64.7801 33.9596 64.7417 34.0122C64.6742 34.1052 64.6054 34.1087 62.0952 34.1173C60.6585 34.1221 59.4716 34.1071 59.4097 34.083C59.3303 34.051 59.3025 33.9998 59.3024 33.8887C59.3024 33.738 59.4332 33.4587 59.5036 33.4586C59.5242 33.4586 59.5414 33.4374 59.5414 33.4122C59.5414 33.3869 59.5893 33.3136 59.6486 33.2496C59.7075 33.1857 59.8432 33.0107 59.9485 32.861C60.0537 32.7115 60.195 32.5271 60.263 32.4504C60.3305 32.3738 60.4492 32.2305 60.5263 32.1327C60.6034 32.0348 60.7139 31.9032 60.7714 31.8406C60.8283 31.7779 60.9134 31.6616 60.9603 31.5816C61.0069 31.502 61.0625 31.437 61.0834 31.4361C61.1039 31.4361 61.121 31.4035 61.1212 31.364C61.1212 31.3243 61.1439 31.2907 61.1712 31.2907C61.1984 31.2905 61.2352 31.2536 61.2529 31.2076C61.2705 31.1615 61.3281 31.0772 61.3821 31.0206C61.5411 30.8543 61.8132 30.5201 62.0842 30.1591C62.223 29.9739 62.371 29.7894 62.4122 29.7497C62.5 29.6651 62.7129 29.4115 62.9168 29.1485C62.9955 29.0469 63.087 28.9365 63.1204 28.9029C63.1534 28.8697 63.1813 28.8244 63.1814 28.8027C63.1814 28.781 63.2548 28.6824 63.3447 28.5839C63.4344 28.4857 63.5361 28.365 63.5715 28.3151C63.6691 28.1765 64.0053 27.7686 64.1261 27.6429C64.1845 27.5817 64.2338 27.5217 64.2346 27.5085C64.2346 27.4893 64.4685 27.1856 64.7539 26.8364C64.7975 26.7833 64.8696 26.6861 64.9136 26.6201C64.9582 26.5538 65.0923 26.3945 65.2123 26.2657C65.3933 26.0717 65.7556 25.6149 66.0424 25.2184C66.0936 25.1476 66.0657 25.0924 65.851 24.8311C65.7136 24.6633 65.5894 24.5143 65.5755 24.5011C65.5611 24.4871 65.4622 24.3577 65.3549 24.2127C65.2467 24.067 65.0945 23.8786 65.016 23.7948C64.9379 23.711 64.8102 23.5622 64.7332 23.4636C64.6561 23.365 64.5703 23.2596 64.543 23.2302C64.5152 23.2 64.4299 23.0898 64.3529 22.9846C64.2754 22.8794 64.1998 22.7826 64.1846 22.7683C64.1698 22.755 64.1049 22.6679 64.0408 22.5752C63.8928 22.3612 63.8877 22.3547 63.4118 21.7858C63.1925 21.5238 62.8967 21.1553 62.7559 20.967C62.503 20.6299 62.0839 20.1195 61.938 19.971C61.8972 19.9292 61.8211 19.8345 61.7685 19.7608C61.7157 19.687 61.4999 19.4113 61.2894 19.1474C61.0787 18.8831 60.8127 18.5434 60.6982 18.3934C60.5838 18.2434 60.2805 17.8607 60.0253 17.5429C59.4188 16.7877 59.3699 16.7141 59.3024 16.4614C59.2518 16.2721 59.2545 16.2408 59.3305 16.1852C59.398 16.1353 59.9488 16.1226 62.005 16.1253C63.4285 16.1272 64.6366 16.1477 64.6893 16.1705C64.7419 16.1933 64.7677 16.2139 64.7466 16.2157C64.7086 16.2195 64.945 16.588 65.0623 16.7082C65.0968 16.7433 65.1973 16.8813 65.2854 17.0137C65.3741 17.1462 65.5576 17.3953 65.6926 17.5673C65.8281 17.7395 66.1082 18.1181 66.3155 18.4093C66.5223 18.6999 66.7158 18.9597 66.7458 18.9873C66.775 19.0138 66.904 19.1981 67.0323 19.3967C67.1606 19.5953 67.3536 19.8652 67.4614 19.9955C67.5691 20.1257 67.6898 20.2801 67.7296 20.3389C67.833 20.4925 68.147 20.9315 68.589 21.5401C68.8006 21.8315 68.9807 22.0901 68.9888 22.1145C69.0114 22.1768 69.3131 21.8685 69.5057 21.5866C69.6417 21.3876 69.893 21.0485 70.1944 20.6578C70.2371 20.6044 70.2815 20.5521 70.3273 20.5014C70.3733 20.4504 70.4114 20.3957 70.4114 20.3804C70.4122 20.3193 71.2581 19.2466 71.333 19.2122C71.3526 19.2033 71.3696 19.165 71.3696 19.1266C71.3696 19.0883 71.4018 19.0441 71.4415 19.0289C71.4806 19.0135 71.5134 18.9755 71.5134 18.9445C71.5139 18.9134 71.5561 18.8566 71.6085 18.8187C71.6611 18.7805 71.7048 18.7218 71.7048 18.6879C71.7049 18.6541 71.7223 18.6268 71.7438 18.6268C71.766 18.6253 71.8333 18.5331 71.895 18.4215C72.0219 18.1913 72.1212 18.052 72.3984 17.7164C72.5037 17.5888 72.6327 17.4327 72.6849 17.3693C72.7366 17.306 72.8541 17.1461 72.9446 17.0137C73.035 16.8814 73.1212 16.762 73.1372 16.7485C73.153 16.7353 73.2088 16.6416 73.2615 16.5408C73.3873 16.299 73.5326 16.1666 73.7138 16.129Z" fill="black"/>
<path d="M171.791 16.1656C172.023 16.1253 175.406 16.1138 175.732 16.1522L176 16.184V34.0769L175.677 34.1112C175.499 34.1303 174.538 34.1349 173.541 34.1209C171.943 34.0984 171.719 34.0859 171.649 34.0158C171.577 33.9417 171.571 33.2485 171.576 25.1622C171.579 20.3485 171.592 16.3643 171.604 16.2915C171.62 16.2268 171.681 16.1849 171.791 16.1656Z" fill="black"/>
<path d="M146.735 15.8846C148.209 15.882 148.45 15.8972 149.543 16.0679C150.489 16.2155 151.006 16.3708 151.746 16.7302C152.194 16.9478 152.248 16.9623 152.584 16.9575C152.916 16.9527 152.979 16.9342 153.444 16.6997C153.719 16.5608 154.01 16.4277 154.09 16.4027C154.719 16.2096 155.436 16.0578 156.008 15.9982C156.14 15.9845 156.323 15.9607 156.415 15.9457C156.508 15.9306 157.24 15.9094 158.042 15.898C160.87 15.8578 162.151 16.1306 163.616 17.0846C164.193 17.4607 164.65 17.942 164.963 18.5058C165.318 19.1458 165.454 19.6608 165.589 20.89C165.606 21.0386 165.628 24.0547 165.639 27.5953L165.661 34.0366L165.527 34.0892C165.366 34.1505 161.376 34.1298 161.313 34.0672C161.292 34.0459 161.263 31.326 161.249 28.0242C161.219 21.6303 161.212 21.4573 160.978 20.7104C160.836 20.2558 160.26 19.8558 159.569 19.7315C158.406 19.5224 156.443 19.5893 155.68 19.8647C155.426 19.9565 155.005 20.3415 154.964 20.5185C154.951 20.5776 154.904 20.754 154.861 20.9108C154.818 21.0678 154.773 21.3169 154.76 21.4644C154.746 21.6126 154.73 24.501 154.722 27.8837C154.714 31.2628 154.692 34.0453 154.672 34.072C154.633 34.1112 150.937 34.1344 150.565 34.0977C150.359 34.0773 150.34 34.0637 150.315 33.923C150.3 33.8348 150.284 31.1354 150.277 27.9203C150.271 24.7024 150.246 21.8203 150.222 21.5157C150.163 20.7614 150.033 20.4707 149.598 20.1103C149.142 19.7316 148.753 19.6495 147.293 19.6215C146.09 19.5985 145.474 19.6616 144.922 19.8647C144.651 19.9645 144.298 20.2174 144.141 20.4244C144.027 20.5745 143.863 21.044 143.793 21.4191C143.776 21.5118 143.747 24.3893 143.727 27.8128C143.708 31.2186 143.676 34.0242 143.657 34.072C143.608 34.1205 139.397 34.1157 139.334 34.0672C139.282 34.0151 139.27 21.5333 139.321 20.8851C139.36 20.3908 139.466 19.719 139.567 19.3246C139.663 18.9517 140.175 17.9758 140.417 17.7054C140.658 17.4355 141.457 16.8552 141.882 16.6398C142.278 16.4389 143.163 16.1609 143.607 16.0984C143.711 16.0837 143.936 16.051 144.108 16.0263C144.279 16.0016 144.592 15.9685 144.803 15.9518C145.011 15.9352 145.19 15.9137 145.202 15.9041C145.212 15.8947 145.902 15.8861 146.735 15.8846Z" fill="black"/>
<path d="M86.1174 16.1326C87.294 16.1405 88.2719 16.1613 88.297 16.1791C88.3439 16.2266 88.3517 34.021 88.3043 34.0684C88.2374 34.1205 84.0017 34.1204 83.9317 34.0684C83.8694 34.0056 83.856 16.332 83.9183 16.2145C83.9685 16.12 84.0104 16.1186 86.1174 16.1326Z" fill="black"/>
</svg>
