<svg width="94" height="40" viewBox="0 0 94 40" fill="none" xmlns="http://www.w3.org/2000/svg">
<path d="M31.4426 8.40028L21.9707 24.2859V34.9719C23.0611 37.5432 25.8168 37.8857 28.4578 38.0003V39.4859H9.91495V38.0003C12.5558 37.8857 15.7706 37.4861 16.6316 35.7721V24.743L6.98712 8.51433C5.32261 5.77144 3.71519 4.85758 0.500183 4.62874V3.14316H16.6318V4.62874C13.589 4.8 12.6132 5.3719 11.7523 6.05786L20.7078 21.4858L29.4911 6.11451C28.5726 5.42893 27.3671 4.8 24.3246 4.62893V3.14335H38.1021V4.62893C35.0021 4.74335 33.0502 5.77144 31.4426 8.40028ZM50.2721 40.0002C47.1724 40.0002 45.6796 37.8857 45.5648 36.4005C43.6128 38.4574 41.0872 40.0002 38.6761 40.0002C35.5761 40.0002 32.9351 38.1143 32.9351 34.8579C32.9351 33.2573 33.337 31.6001 34.1409 30.2861L45.5648 26.1717V21.9431C45.5648 19.3718 44.3592 16.9146 41.7758 16.9146C40.2259 16.9146 38.7332 18.7999 38.6187 21.7146L33.4516 22.5713V22.0005C35.1737 16.857 40.8573 14.8575 43.6126 14.8575C48.8368 14.8575 50.7312 17.6 50.6739 21.8286L50.5018 33.8285C50.4443 36.1714 51.7071 36.7428 52.8555 36.7428C53.7737 36.7428 54.6922 36.1714 55.7833 35.0859V36.7428C54.5205 38.2289 52.2818 40.0002 50.2721 40.0002ZM38.7909 30.686C38.5612 31.6001 38.3891 32.4001 38.3891 33.6574C38.3891 35.3714 39.3651 37.0855 41.2593 37.0855C42.9815 37.0855 43.9574 36.5147 45.5075 35.3144L45.5648 27.5997C44.0724 28.2855 40.3985 29.886 38.7909 30.686ZM56.3002 39.4859V38.1713C58.8834 38.0001 59.6292 37.4287 60.0892 36.4567V6.85693C60.0892 4.91405 59.8018 4.11442 55.8408 3.77135V2.62865L66.3466 0L66.6907 0.971997L65.0262 3.02893V36.4569C65.6002 37.6002 66.6907 38.0003 69.0445 38.1715V39.486H56.3002V39.4859ZM82.8219 39.943C76.7944 39.943 72.1442 35.2002 72.1442 28.5715C72.1442 20.4571 77.1391 14.9141 84.2002 14.9141C89.8832 14.9141 93.0408 18.1149 93.0408 23.2002V24.2287L77.5408 24.1146C77.4262 24.743 77.3682 25.772 77.3682 27.0287C77.3682 32.8572 81.0425 36.6858 85.9225 36.6858C88.8498 36.6858 90.3428 35.6571 92.6386 33.7144L93.4998 35.0284C90.2279 38.0003 87.5296 39.943 82.8219 39.943ZM83.3392 16.6861C80.4683 16.6861 78.4597 18.9715 77.7705 22.5713L87.8748 22.4572C87.8746 19.4286 85.9796 16.6861 83.3392 16.6861Z" fill="black"/>
</svg>
