<svg width="57" height="56" viewBox="0 0 57 56" fill="none" xmlns="http://www.w3.org/2000/svg">
<circle cx="28.5" cy="28" r="28" fill="white"/>
<path d="M42.4819 30.9121C41.6781 35.2729 38.1707 39.0838 34.1117 41.2238C33.6039 41.4909 33.4007 41.6437 32.8281 41.6806H41.067C41.2525 41.6865 41.4373 41.655 41.6104 41.5879C41.7835 41.5208 41.9414 41.4196 42.0748 41.2901C42.2082 41.1607 42.3144 41.0057 42.387 40.8344C42.4597 40.663 42.4973 40.4788 42.4976 40.2926V30.9121H42.4819Z" fill="#F7931E"/>
<path d="M33.5008 41.4316C33.3341 41.4439 33.1667 41.4439 33 41.4316H33.5008Z" fill="#FFCE00"/>
<path d="M25.2973 22.4986C25.173 22.6005 25.0486 22.6953 24.9208 22.7849C22.8353 24.2573 16.4683 29.0328 15.0271 26.9771C13.614 24.9601 15.1024 19.2376 18.7675 16.4844C18.8375 16.4282 18.9076 16.379 18.9794 16.3281C22.9596 13.5222 25.9364 13.9105 27.3758 15.9679C28.7277 17.897 27.2147 20.9208 25.2973 22.4986Z" fill="#8427E0"/>
<path d="M40.8638 26.9171C38.8938 28.3051 35.7856 26.6852 34.2464 24.6998C34.1834 24.6189 34.1238 24.5364 34.0713 24.4556C32.6056 22.3612 27.8462 15.9729 29.895 14.5286C31.9437 13.0844 37.8256 14.6622 40.5083 18.4941C40.5678 18.5785 40.6256 18.6698 40.6834 18.7454C43.2838 22.623 42.874 25.5027 40.8638 26.9171Z" fill="#00B5FF"/>
<path d="M38.2212 39.5191C38.1511 39.5736 38.0829 39.6246 38.0146 39.672C34.0343 42.4832 31.0575 42.0878 29.6181 40.0339C28.268 38.1013 29.7774 35.0828 31.6949 33.5033C31.8175 33.3996 31.9453 33.303 32.0731 33.2134C34.1587 31.7428 40.5256 26.9691 41.965 29.023C43.3781 31.04 41.8897 36.766 38.2212 39.5191Z" fill="#FFBD00"/>
<path d="M27.1146 41.4722C25.0658 42.9147 19.1839 41.3387 16.5013 37.5067C16.4452 37.4294 16.3945 37.3521 16.3419 37.2748C13.724 33.3954 14.1373 30.4999 16.144 29.0838C18.1123 27.6958 21.2222 29.314 22.7597 31.3011C22.8227 31.3819 22.8822 31.4627 22.9348 31.5453C24.4074 33.6396 29.1651 40.028 27.1146 41.4722Z" fill="#E3006D"/>
<path d="M25.2969 22.4986C22.4513 23.753 16.4171 26.3639 15.51 24.2714C14.7501 22.5144 16.1579 18.9161 18.7688 16.4844C18.8388 16.4282 18.9089 16.379 18.9807 16.3281C22.9592 13.5222 25.936 13.9105 27.3754 15.9679C28.7273 17.897 27.2143 20.9208 25.2969 22.4986Z" fill="#8427E0"/>
<path d="M40.8605 26.9167C38.8905 28.3047 35.7824 26.6848 34.2432 24.6994C32.9631 21.7705 30.5256 15.9743 32.5656 15.087C34.4043 14.2876 38.2549 15.8776 40.6731 18.745C43.2805 22.6227 42.8708 25.5023 40.8605 26.9167Z" fill="#00C8FF"/>
<path d="M38.2212 39.5206C38.1511 39.575 38.0829 39.626 38.0146 39.6734C34.0343 42.4846 31.0575 42.0893 29.6181 40.0354C28.268 38.1027 29.7774 35.0842 31.6949 33.5047C34.5386 32.2484 40.5764 29.6393 41.4835 31.7301C42.2434 33.4889 40.8356 37.0872 38.2212 39.5206Z" fill="#FFCE00"/>
<path d="M24.4367 40.9153C22.6051 41.7129 18.765 40.1299 16.345 37.2748C13.7236 33.3954 14.1368 30.4999 16.1436 29.0838C18.1118 27.6958 21.2217 29.314 22.7592 31.3011C24.041 34.2317 26.4767 40.0262 24.4367 40.9153Z" fill="#FB006D"/>
</svg>
