<svg width="57" height="56" viewBox="0 0 57 56" fill="none" xmlns="http://www.w3.org/2000/svg">
<circle cx="28.5" cy="28" r="28" fill="white"/>
<path d="M17.164 15.2024L32.3154 14.0675C34.1546 13.8929 34.6363 14.0239 35.8186 14.8532L40.6793 18.2577C41.4676 18.8251 41.7303 18.9997 41.7303 19.6544V38.2918C41.7303 39.4703 41.2924 40.1686 39.8035 40.2559L22.1999 41.3035C21.0614 41.3471 20.5359 41.2162 19.9666 40.4742L16.4196 35.8912C15.7627 35.0183 15.5 34.4072 15.5 33.6652V17.0792C15.5 16.119 15.9379 15.2897 17.164 15.2024Z" fill="white"/>
<path fill-rule="evenodd" clip-rule="evenodd" d="M32.3154 14.0683L17.164 15.2032C15.9379 15.2905 15.5 16.1198 15.5 17.08V33.666C15.5 34.408 15.7627 35.0627 16.4196 35.892L19.9666 40.5186C20.5359 41.2606 21.1051 41.4352 22.1999 41.3479L39.8035 40.3004C41.2924 40.2131 41.7303 39.5147 41.7303 38.3363V19.6552C41.7303 19.0441 41.5114 18.8696 40.7669 18.3458C40.7231 18.3021 40.6793 18.3021 40.6356 18.2585L35.8186 14.8976C34.6801 14.0247 34.1984 13.9374 32.3154 14.0683ZM22.594 19.3497C21.1489 19.437 20.8424 19.4806 20.0104 18.7823L17.9522 17.1673C17.7333 16.9491 17.8209 16.6872 18.3902 16.6435L32.9723 15.596C34.1984 15.5087 34.8115 15.9015 35.2932 16.2944L37.7892 18.0839C37.9206 18.1275 38.1833 18.4331 37.833 18.4331L22.7692 19.3497H22.594ZM20.93 38.1617V22.3177C20.93 21.6193 21.1489 21.3138 21.762 21.2702L39.0591 20.2663C39.6284 20.2226 39.8911 20.5718 39.8911 21.2702V36.9832C39.8911 37.6816 39.7598 38.249 38.8402 38.2926L22.2875 39.2529C21.3679 39.3402 20.93 38.991 20.93 38.1617ZM37.2637 23.1906C37.3513 23.6708 37.2637 24.1509 36.782 24.1945L35.9938 24.3691V36.0666C35.2932 36.4594 34.6801 36.634 34.1546 36.634C33.3226 36.634 33.1036 36.3721 32.4468 35.5865L27.192 27.3808V35.281L28.856 35.6738C28.856 35.6738 28.856 36.634 27.5423 36.634L23.8639 36.8523C23.7763 36.634 23.8639 36.1103 24.2142 36.023L25.1776 35.7611V25.2857L23.8639 25.1548C23.7763 24.6747 24.0391 23.9763 24.7835 23.9326L28.7246 23.6708L34.1546 31.9638V24.631L32.7533 24.4564C32.6657 23.889 33.0599 23.4525 33.5853 23.4089L37.2637 23.1906Z" fill="black"/>
</svg>
