<svg width="100" height="100" viewBox="0 0 100 100" fill="none" xmlns="http://www.w3.org/2000/svg">
<rect width="100" height="100" rx="50" fill="#601DAA"/>
<path d="M72.5843 44.6881C73.1738 42.9035 73.3776 41.013 73.1823 39.1429C72.9869 37.2728 72.3969 35.4661 71.4516 33.8435C70.0501 31.391 67.9102 29.4493 65.3404 28.2983C62.7706 27.1473 59.9036 26.8465 57.1527 27.4393C55.5899 25.6916 53.5972 24.388 51.3747 23.6596C49.1522 22.9312 46.7782 22.8035 44.4911 23.2894C42.204 23.7753 40.0844 24.8577 38.345 26.4279C36.6057 27.9981 35.3079 30.0007 34.582 32.2347C32.7494 32.6125 31.0181 33.3793 29.5038 34.4837C27.9895 35.5881 26.7272 37.0047 25.801 38.6389C24.3844 41.0873 23.7789 43.9252 24.0722 46.7424C24.3654 49.5596 25.5422 52.21 27.4324 54.3105C26.8408 56.0942 26.6349 57.9844 26.8285 59.8546C27.022 61.7248 27.6106 63.5319 28.5548 65.1549C29.958 67.6083 32.0998 69.5505 34.6715 70.7015C37.2431 71.8524 40.1118 72.1528 42.8642 71.5593C44.1058 72.965 45.6314 74.0882 47.3392 74.854C49.0469 75.6197 50.8975 76.0103 52.7674 75.9998C55.5869 76.0024 58.3343 75.1042 60.6131 73.4348C62.8918 71.7654 64.5839 69.4112 65.4452 66.712C67.2776 66.3335 69.0087 65.5665 70.5229 64.4621C72.0371 63.3578 73.2996 61.9414 74.2262 60.3076C75.6262 57.8628 76.2212 55.0355 75.9263 52.2301C75.6314 49.4247 74.4617 46.7848 72.5843 44.6881ZM52.7674 72.5309C50.4583 72.5346 48.2215 71.7209 46.4494 70.2325L46.761 70.055L57.2566 63.964C57.5179 63.8099 57.7347 63.5902 57.886 63.3265C58.0372 63.0627 58.1176 62.7639 58.1192 62.4594V47.5822L62.5562 50.1628C62.5781 50.174 62.5971 50.1902 62.6116 50.2102C62.6261 50.2301 62.6357 50.2532 62.6396 50.2776V62.6058C62.6341 65.2365 61.5922 67.7577 59.742 69.6178C57.8918 71.478 55.3839 72.5254 52.7674 72.5309ZM31.5476 63.4207C30.3895 61.4103 29.9737 59.0537 30.3733 56.7655L30.6852 56.9536L41.1911 63.0446C41.4511 63.198 41.747 63.2789 42.0484 63.2789C42.3498 63.2789 42.6458 63.198 42.9057 63.0446L55.7395 55.6059V60.7566C55.7383 60.7833 55.7311 60.8094 55.7185 60.8329C55.7059 60.8564 55.6881 60.8767 55.6666 60.8924L45.0359 67.0565C42.7672 68.3705 40.0725 68.7256 37.5436 68.044C35.0147 67.3623 32.8582 65.6995 31.5476 63.4207ZM28.7835 40.436C29.9496 38.4127 31.7901 36.8694 33.9793 36.0794V48.6165C33.9754 48.9194 34.0523 49.2178 34.2022 49.4806C34.3521 49.7434 34.5693 49.9609 34.8313 50.1105L47.6027 57.5179L43.1656 60.0983C43.1416 60.1111 43.1148 60.1178 43.0876 60.1178C43.0604 60.1178 43.0336 60.1111 43.0096 60.0983L32.3998 53.9448C30.1353 52.6251 28.4833 50.457 27.8055 47.9153C27.1277 45.3736 27.4794 42.6655 28.7835 40.3839V40.436ZM65.2374 48.9509L52.4245 41.4704L56.8514 38.8999C56.8754 38.8871 56.9022 38.8804 56.9294 38.8804C56.9565 38.8804 56.9833 38.8871 57.0073 38.8999L67.6171 45.064C69.2394 46.0051 70.5619 47.3907 71.4302 49.0591C72.2985 50.7275 72.6769 52.6098 72.5211 54.4863C72.3653 56.3627 71.6818 58.1559 70.5503 59.6565C69.4189 61.1571 67.8862 62.3031 66.1312 62.9607V50.4236C66.122 50.1212 66.0348 49.8265 65.878 49.5682C65.7213 49.31 65.5007 49.0974 65.2374 48.9509ZM69.654 42.2749L69.3421 42.0867L58.857 35.9436C58.5955 35.7893 58.2977 35.7079 57.9944 35.7079C57.6912 35.7079 57.3934 35.7893 57.1319 35.9436L44.3089 43.3821V38.2317C44.3061 38.2055 44.3105 38.179 44.3215 38.1551C44.3324 38.1312 44.3496 38.1107 44.3712 38.0958L54.9811 31.9421C56.6072 31.0003 58.4664 30.5435 60.3413 30.625C62.2161 30.7065 64.0292 31.3231 65.5683 32.4025C67.1075 33.482 68.3091 34.9797 69.0326 36.7206C69.7562 38.4614 69.9718 40.3734 69.6542 42.2329L69.654 42.2749ZM41.8872 51.4057L37.4502 48.8356C37.4281 48.8222 37.4091 48.804 37.3946 48.7823C37.3802 48.7607 37.3707 48.7361 37.3668 48.7104V36.4138C37.3692 34.5274 37.9058 32.6806 38.9137 31.0895C39.9216 29.4984 41.3592 28.2286 43.0585 27.4286C44.7577 26.6286 46.6484 26.3316 48.5094 26.5721C50.3704 26.8126 52.1248 27.5808 53.5676 28.7869L53.2557 28.9646L42.7603 35.0552C42.4991 35.2092 42.2822 35.4289 42.131 35.6927C41.9798 35.9565 41.8994 36.2553 41.8977 36.5597L41.8872 51.4057ZM44.2981 46.1821L50.0134 42.87L55.7395 46.1821V52.8057L50.0343 56.1176L44.3086 52.8057L44.2981 46.1821Z" fill="#F1F1F2"/>
<rect x="0.5" y="0.5" width="99" height="99" rx="49.5" stroke="#9327FF" stroke-opacity="0.2"/>
</svg>
