<svg width="232" height="231" viewBox="0 0 232 231" fill="none" xmlns="http://www.w3.org/2000/svg">
<g filter="url(#filter0_bd_138_37830)">
<rect x="36" y="6.2002" width="160" height="160" rx="80" fill="white"/>
<path d="M158.387 94.875C155.952 108.044 145.325 119.552 133.026 126.014C131.487 126.821 130.872 127.283 129.137 127.394H154.1C154.662 127.412 155.222 127.317 155.747 127.114C156.271 126.911 156.75 126.606 157.154 126.215C157.558 125.824 157.88 125.356 158.1 124.838C158.32 124.321 158.434 123.765 158.435 123.202V94.875H158.387Z" fill="#F7931E"/>
<path d="M131.177 126.638C130.671 126.675 130.164 126.675 129.659 126.638H131.177Z" fill="#FFCE00"/>
<path d="M106.315 69.46C105.938 69.7677 105.562 70.0542 105.174 70.3248C98.8552 74.771 79.5635 89.1921 75.1969 82.9843C70.9151 76.8933 75.425 59.6125 86.5299 51.2984C86.7422 51.1286 86.9544 50.98 87.1719 50.8262C99.2319 42.3529 108.252 43.5254 112.613 49.7385C116.709 55.5642 112.125 64.6954 106.315 69.46Z" fill="#8427E0"/>
<path d="M153.466 82.8071C147.498 86.9986 138.08 82.1067 133.416 76.1112C133.225 75.8672 133.045 75.6178 132.885 75.3737C128.445 69.0493 114.024 49.7575 120.231 45.3962C126.439 41.0349 144.261 45.7994 152.389 57.3713C152.57 57.626 152.745 57.9019 152.92 58.13C160.799 69.8398 159.557 78.536 153.466 82.8071Z" fill="#00B5FF"/>
<path d="M145.479 120.866C145.267 121.031 145.06 121.185 144.853 121.328C132.793 129.817 123.773 128.623 119.412 122.421C115.321 116.585 119.895 107.469 125.704 102.699C126.076 102.386 126.463 102.095 126.85 101.824C133.17 97.3831 152.461 82.9674 156.823 89.1698C161.104 95.2608 156.594 112.552 145.479 120.866Z" fill="#FFBD00"/>
<path d="M111.817 126.76C105.61 131.116 87.7877 126.357 79.6593 114.785C79.4895 114.552 79.3356 114.318 79.1764 114.085C71.2443 102.37 72.4965 93.626 78.5769 89.3496C84.5405 85.158 93.9635 90.0446 98.622 96.0455C98.813 96.2895 98.9934 96.5336 99.1526 96.783C103.615 103.107 118.03 122.399 111.817 126.76Z" fill="#E3006D"/>
<path d="M106.313 69.46C97.6913 73.2483 79.4077 81.1326 76.6593 74.8135C74.3566 69.5077 78.6224 58.6415 86.5333 51.2984C86.7455 51.1286 86.9578 50.98 87.1753 50.8262C99.23 42.3529 108.25 43.5254 112.611 49.7385C116.707 55.5642 112.123 64.6954 106.313 69.46Z" fill="#9327FF"/>
<path d="M153.469 82.8085C147.5 87.0001 138.082 82.1082 133.419 76.1127C129.54 67.268 122.154 49.7643 128.336 47.0849C133.907 44.6707 145.574 49.4725 152.901 58.1315C160.801 69.8413 159.56 78.5374 153.469 82.8085Z" fill="#00C8FF"/>
<path d="M145.479 120.865C145.267 121.029 145.06 121.183 144.853 121.326C132.793 129.815 123.773 128.622 119.412 122.419C115.321 116.583 119.895 107.467 125.704 102.698C134.321 98.904 152.615 91.0249 155.364 97.3388C157.666 102.65 153.4 113.516 145.479 120.865Z" fill="#FFCE00"/>
<path d="M103.703 125.079C98.1537 127.487 86.5182 122.707 79.1856 114.085C71.2429 102.37 72.4951 93.626 78.5755 89.3496C84.5391 85.158 93.9621 90.0446 98.6206 96.0455C102.504 104.895 109.885 122.394 103.703 125.079Z" fill="#FB006D"/>
<rect x="36.5" y="6.7002" width="159" height="159" rx="79.5" stroke="#9327FF" stroke-opacity="0.2"/>
</g>
<defs>
<filter id="filter0_bd_138_37830" x="0.799999" y="-7.3998" width="230.4" height="238.4" filterUnits="userSpaceOnUse" color-interpolation-filters="sRGB">
<feFlood flood-opacity="0" result="BackgroundImageFix"/>
<feGaussianBlur in="BackgroundImageFix" stdDeviation="6.8"/>
<feComposite in2="SourceAlpha" operator="in" result="effect1_backgroundBlur_138_37830"/>
<feColorMatrix in="SourceAlpha" type="matrix" values="0 0 0 0 0 0 0 0 0 0 0 0 0 0 0 0 0 0 127 0" result="hardAlpha"/>
<feOffset dy="29.6"/>
<feGaussianBlur stdDeviation="17.6"/>
<feComposite in2="hardAlpha" operator="out"/>
<feColorMatrix type="matrix" values="0 0 0 0 0.427743 0 0 0 0 0.450282 0 0 0 0 0.529167 0 0 0 0.2 0"/>
<feBlend mode="normal" in2="effect1_backgroundBlur_138_37830" result="effect2_dropShadow_138_37830"/>
<feBlend mode="normal" in="SourceGraphic" in2="effect2_dropShadow_138_37830" result="shape"/>
</filter>
</defs>
</svg>
