<svg xmlns="http://www.w3.org/2000/svg" width="288" height="288" viewBox="0 0 288 288" fill="none">
    <g filter="url(#filter0_bd_1182_66412)">
        <rect x="44" y="7" width="200" height="200" rx="100" fill="white" fill-opacity="1"
              shape-rendering="crispEdges"/>
        <path d="M196.985 117.844C193.941 134.305 180.657 148.69 165.283 156.768C163.36 157.776 162.591 158.353 160.422 158.492H191.626C192.329 158.515 193.029 158.396 193.684 158.142C194.34 157.889 194.938 157.507 195.443 157.018C195.949 156.53 196.351 155.945 196.626 155.298C196.901 154.651 197.043 153.956 197.045 153.253V117.844H196.985Z"
              fill="#F7931E"/>
        <path d="M162.971 157.547C162.34 157.593 161.706 157.593 161.074 157.547H162.971Z" fill="#FFCE00"/>
        <path d="M131.894 86.0751C131.423 86.4598 130.953 86.8179 130.468 87.1561C122.569 92.7139 98.4548 110.74 92.9966 102.981C87.6444 95.3668 93.2817 73.7657 107.163 63.3731C107.428 63.1609 107.693 62.9752 107.965 62.7828C123.04 52.1912 134.315 53.6569 139.767 61.4232C144.887 68.7054 139.157 80.1194 131.894 86.0751Z"
              fill="#8427E0"/>
        <path d="M190.833 102.759C183.372 107.999 171.6 101.884 165.77 94.3893C165.531 94.0842 165.306 93.7725 165.107 93.4674C159.556 85.5618 141.529 61.4472 149.289 55.9955C157.049 50.5438 179.326 56.4996 189.487 70.9644C189.712 71.2827 189.931 71.6276 190.15 71.9128C199.999 86.55 198.447 97.4202 190.833 102.759Z"
              fill="#00B5FF"/>
        <path d="M180.849 150.333C180.584 150.539 180.325 150.731 180.066 150.91C164.991 161.522 153.717 160.029 148.265 152.276C143.152 144.981 148.868 133.587 156.131 127.625C156.595 127.233 157.079 126.868 157.563 126.53C165.462 120.979 189.577 102.959 195.029 110.712C200.381 118.326 194.743 139.941 180.849 150.333Z"
              fill="#FFBD00"/>
        <path d="M138.771 157.701C131.012 163.146 108.734 157.197 98.5736 142.732C98.3614 142.44 98.169 142.148 97.9701 141.856C88.0549 127.212 89.6201 116.283 97.2206 110.937C104.675 105.698 116.454 111.806 122.277 119.307C122.516 119.612 122.741 119.917 122.94 120.229C128.518 128.134 146.538 152.249 138.771 157.701Z"
              fill="#E3006D"/>
        <path d="M131.892 86.0751C121.115 90.8105 98.2601 100.666 94.8246 92.767C91.9462 86.1348 97.2785 72.5521 107.167 63.3731C107.432 63.1609 107.698 62.9752 107.97 62.7828C123.038 52.1912 134.313 53.6569 139.764 61.4232C144.884 68.7054 139.154 80.1194 131.892 86.0751Z"
              fill="#9327FF"/>
        <path d="M190.837 102.761C183.375 108 171.603 101.885 165.774 94.3909C160.925 83.3351 151.693 61.4555 159.42 58.1062C166.384 55.0886 180.968 61.0907 190.127 71.9144C200.002 86.5517 198.45 97.4219 190.837 102.761Z"
              fill="#00C8FF"/>
        <path d="M180.849 150.331C180.584 150.536 180.325 150.729 180.066 150.908C164.991 161.519 153.717 160.027 148.265 152.274C143.152 144.978 148.868 133.584 156.131 127.622C166.901 122.88 189.769 113.031 193.205 120.923C196.083 127.562 190.751 141.145 180.849 150.331Z"
              fill="#FFCE00"/>
        <path d="M128.629 155.598C121.692 158.609 107.147 152.634 97.9815 141.856C88.0532 127.212 89.6184 116.283 97.2188 110.937C104.673 105.698 116.452 111.806 122.275 119.307C127.13 130.369 136.355 152.242 128.629 155.598Z"
              fill="#FB006D"/>
        <rect x="44.5" y="7.5" width="199" height="199" rx="99.5" stroke="#9327FF" stroke-opacity="0.2"
              shape-rendering="crispEdges"/>
    </g>
    <defs>
        <filter id="filter0_bd_1182_66412" x="0" y="-10" width="288" height="288" filterUnits="userSpaceOnUse"
                color-interpolation-filters="sRGB">
            <feFlood flood-opacity="0" result="BackgroundImageFix"/>
            <feGaussianBlur in="BackgroundImageFix" stdDeviation="8.5"/>
            <feComposite in2="SourceAlpha" operator="in" result="effect1_backgroundBlur_1182_66412"/>
            <feColorMatrix in="SourceAlpha" type="matrix" values="0 0 0 0 0 0 0 0 0 0 0 0 0 0 0 0 0 0 127 0"
                           result="hardAlpha"/>
            <feOffset dy="37"/>
            <feGaussianBlur stdDeviation="22"/>
            <feComposite in2="hardAlpha" operator="out"/>
            <feColorMatrix type="matrix" values="0 0 0 0 0.427743 0 0 0 0 0.450282 0 0 0 0 0.529167 0 0 0 0.2 0"/>
            <feBlend mode="normal" in2="effect1_backgroundBlur_1182_66412" result="effect2_dropShadow_1182_66412"/>
            <feBlend mode="normal" in="SourceGraphic" in2="effect2_dropShadow_1182_66412" result="shape"/>
        </filter>
    </defs>
</svg>