<svg width="1571" height="100" viewBox="0 0 1571 100" fill="none" xmlns="http://www.w3.org/2000/svg">
<g opacity="0.5">
<rect width="100" height="100" rx="50" fill="white"/>
<path d="M48.8125 36.25H53.125V62.5H48.8125V51.1375H37.5625V62.5H33.25V36.25H37.5625V47.0125H48.8125V36.25Z" fill="#00B5FF"/>
<path d="M64.5721 52.1C65.7554 52.45 66.7137 53.0667 67.4471 53.95C68.1971 54.8167 68.5721 55.8667 68.5721 57.1C68.5721 58.9 67.9637 60.3083 66.7471 61.325C65.5471 62.3417 64.0721 62.85 62.3221 62.85C60.9554 62.85 59.7304 62.5417 58.6471 61.925C57.5804 61.2917 56.8054 60.3667 56.3221 59.15L59.2721 57.45C59.7054 58.8 60.7221 59.475 62.3221 59.475C63.2054 59.475 63.8887 59.2667 64.3721 58.85C64.8721 58.4167 65.1221 57.8333 65.1221 57.1C65.1221 56.3833 64.8721 55.8083 64.3721 55.375C63.8887 54.9417 63.2054 54.725 62.3221 54.725H61.5721L60.2471 52.725L63.6971 48.225H56.8471V45H67.8471V47.85L64.5721 52.1Z" fill="#00B5FF"/>
<rect x="0.5" y="0.5" width="99" height="99" rx="49.5" stroke="#00C8FF" stroke-opacity="0.2"/>
</g>
<g opacity="0.5">
<rect x="130" width="100" height="100" rx="50" fill="white"/>
<path d="M177.363 61.9872L175.118 55.7942H162.708L160.463 61.9872H156.562L166.845 34.375H170.981L181.263 61.9872H177.363ZM163.969 52.3624H173.857L168.893 38.7535L163.969 52.3624Z" fill="#FB006D"/>
<path d="M200.01 42.2642H203.438V61.9872H200.01V58.5948C198.303 61.1983 195.821 62.5 192.564 62.5C189.807 62.5 187.456 61.5007 185.513 59.5021C183.569 57.4772 182.597 55.0184 182.597 52.1257C182.597 49.233 183.569 46.7873 185.513 44.7887C187.456 42.7639 189.807 41.7514 192.564 41.7514C195.821 41.7514 198.303 43.0531 200.01 45.6566V42.2642ZM192.998 59.1865C194.994 59.1865 196.661 58.516 198.001 57.1748C199.34 55.8073 200.01 54.1243 200.01 52.1257C200.01 50.1271 199.34 48.4572 198.001 47.1161C196.661 45.7486 194.994 45.0649 192.998 45.0649C191.028 45.0649 189.373 45.7486 188.034 47.1161C186.694 48.4572 186.025 50.1271 186.025 52.1257C186.025 54.1243 186.694 55.8073 188.034 57.1748C189.373 58.516 191.028 59.1865 192.998 59.1865Z" fill="#FB006D"/>
<rect x="130.5" y="0.5" width="99" height="99" rx="49.5" stroke="#FB006D" stroke-opacity="0.2"/>
</g>
<g opacity="0.5">
<rect x="260" width="100" height="100" rx="50" fill="white"/>
<path d="M306.875 52.86C307.549 53.8307 308.409 54.6338 309.397 55.215C310.385 55.7962 311.477 56.1418 312.6 56.2284C313.723 56.315 314.849 56.1405 315.904 55.7169C316.959 55.2932 317.916 54.6303 318.712 53.773L323.422 48.701C324.851 47.1067 325.643 44.9713 325.625 42.7549C325.607 40.5384 324.781 38.4182 323.326 36.8509C321.871 35.2836 319.902 34.3946 317.844 34.3753C315.786 34.3561 313.803 35.2081 312.322 36.748L309.622 39.639" stroke="#8427E0" stroke-width="3.125" stroke-linecap="round" stroke-linejoin="round"/>
<path d="M313.125 47.14C312.451 46.1693 311.591 45.3662 310.603 44.785C309.615 44.2038 308.523 43.8582 307.4 43.7716C306.277 43.685 305.151 43.8595 304.096 44.2831C303.041 44.7068 302.084 45.3697 301.288 46.227L296.578 51.299C295.149 52.8933 294.357 55.0287 294.375 57.2451C294.393 59.4616 295.219 61.5818 296.674 63.1491C298.129 64.7164 300.098 65.6054 302.156 65.6247C304.214 65.6439 306.197 64.7919 307.678 63.252L310.362 60.361" stroke="#8427E0" stroke-width="3.125" stroke-linecap="round" stroke-linejoin="round"/>
<rect x="260.5" y="0.5" width="99" height="99" rx="49.5" stroke="#9327FF" stroke-opacity="0.2"/>
</g>
<g opacity="0.5">
<rect x="390" width="100" height="100" rx="50" fill="white"/>
<path d="M447.812 34.375H450.938C451.974 34.375 452.967 34.7774 453.7 35.4937C454.432 36.21 454.844 37.1815 454.844 38.1944V64.9306C454.844 65.9435 454.432 66.915 453.7 67.6313C452.967 68.3476 451.974 68.75 450.938 68.75H429.062C428.026 68.75 427.033 68.3476 426.3 67.6313C425.568 66.915 425.156 65.9435 425.156 64.9306V38.1944C425.156 37.1815 425.568 36.21 426.3 35.4937C427.033 34.7774 428.026 34.375 429.062 34.375H432.188" stroke="#00B5FF" stroke-width="3.125" stroke-linecap="round" stroke-linejoin="round"/>
<path d="M444.688 31.25H435.312C434.45 31.25 433.75 31.9496 433.75 32.8125V35.9375C433.75 36.8004 434.45 37.5 435.312 37.5H444.688C445.55 37.5 446.25 36.8004 446.25 35.9375V32.8125C446.25 31.9496 445.55 31.25 444.688 31.25Z" stroke="#00B5FF" stroke-width="3.125" stroke-linecap="round" stroke-linejoin="round"/>
<rect x="390.5" y="0.5" width="99" height="99" rx="49.5" stroke="#00C8FF" stroke-opacity="0.2"/>
</g>
<g opacity="0.5">
<rect x="520" width="100" height="100" rx="50" fill="white"/>
<path d="M565.312 50L570.361 54.6875L587.187 39.0625" stroke="#9327FF" stroke-width="3.125" stroke-linecap="round" stroke-linejoin="round"/>
<path d="M585.625 51.5625V62.1528C585.625 63.0737 585.259 63.9568 584.608 64.608C583.957 65.2592 583.074 65.625 582.153 65.625H557.847C556.926 65.625 556.043 65.2592 555.392 64.608C554.741 63.9568 554.375 63.0737 554.375 62.1528V37.8472C554.375 36.9263 554.741 36.0432 555.392 35.392C556.043 34.7408 556.926 34.375 557.847 34.375H576.944" stroke="#9327FF" stroke-width="3.125" stroke-linecap="round" stroke-linejoin="round"/>
<rect x="520.5" y="0.5" width="99" height="99" rx="49.5" stroke="#9327FF" stroke-opacity="0.2"/>
</g>
<g opacity="0.5">
<rect x="650" width="100" height="100" rx="50" fill="white"/>
<path fill-rule="evenodd" clip-rule="evenodd" d="M690.039 46.9219C690.039 46.0589 690.739 45.3594 691.602 45.3594H708.407C709.27 45.3594 709.97 46.0589 709.97 46.9219C709.97 47.7848 709.27 48.4844 708.407 48.4844H691.602C690.739 48.4844 690.039 47.7848 690.039 46.9219Z" fill="#FFCE00"/>
<path fill-rule="evenodd" clip-rule="evenodd" d="M690.039 53.2266C690.039 52.3636 690.739 51.6641 691.602 51.6641H708.407C709.27 51.6641 709.97 52.3636 709.97 53.2266C709.97 54.0895 709.27 54.7891 708.407 54.7891H691.602C690.739 54.7891 690.039 54.0895 690.039 53.2266Z" fill="#FFCE00"/>
<path fill-rule="evenodd" clip-rule="evenodd" d="M698.074 39.0722C698.932 39.1675 699.55 39.94 699.455 40.7977L697.354 59.7041C697.259 60.5618 696.486 61.1798 695.628 61.0845C694.771 60.9892 694.153 60.2167 694.248 59.359L696.349 40.4526C696.444 39.5949 697.217 38.9769 698.074 39.0722Z" fill="#FFCE00"/>
<path fill-rule="evenodd" clip-rule="evenodd" d="M704.375 39.0722C705.233 39.1675 705.851 39.94 705.755 40.7977L703.655 59.7041C703.559 60.5618 702.787 61.1798 701.929 61.0845C701.071 60.9892 700.453 60.2167 700.549 59.359L702.649 40.4526C702.745 39.5949 703.517 38.9769 704.375 39.0722Z" fill="#FFCE00"/>
<path fill-rule="evenodd" clip-rule="evenodd" d="M709.375 34.375H690.625C687.173 34.375 684.375 37.1732 684.375 40.625V59.375C684.375 62.8268 687.173 65.625 690.625 65.625H709.375C712.827 65.625 715.625 62.8268 715.625 59.375V40.625C715.625 37.1732 712.827 34.375 709.375 34.375ZM690.625 31.25C685.447 31.25 681.25 35.4473 681.25 40.625V59.375C681.25 64.5527 685.447 68.75 690.625 68.75H709.375C714.553 68.75 718.75 64.5527 718.75 59.375V40.625C718.75 35.4473 714.553 31.25 709.375 31.25H690.625Z" fill="#FFCE00"/>
<rect x="650.5" y="0.5" width="99" height="99" rx="49.5" stroke="#FFCE00" stroke-opacity="0.2"/>
</g>
<g opacity="0.5">
<rect x="780" width="100" height="100" rx="50" fill="white"/>
<path d="M845 31.25H815C812.929 31.25 811.25 32.9989 811.25 35.1562V42.9688C811.25 45.1261 812.929 46.875 815 46.875H845C847.071 46.875 848.75 45.1261 848.75 42.9688V35.1562C848.75 32.9989 847.071 31.25 845 31.25Z" stroke="#FB006D" stroke-width="3.125" stroke-linecap="round" stroke-linejoin="round"/>
<path d="M845 53.125H815C812.929 53.125 811.25 54.8739 811.25 57.0312V64.8438C811.25 67.0011 812.929 68.75 815 68.75H845C847.071 68.75 848.75 67.0011 848.75 64.8438V57.0312C848.75 54.8739 847.071 53.125 845 53.125Z" stroke="#FB006D" stroke-width="3.125" stroke-linecap="round" stroke-linejoin="round"/>
<circle cx="819.062" cy="39.0625" r="1.5625" fill="#FB006D"/>
<circle cx="819.062" cy="60.9375" r="1.5625" fill="#FB006D"/>
<rect x="780.5" y="0.5" width="99" height="99" rx="49.5" stroke="#FB006D" stroke-opacity="0.2"/>
</g>
<g opacity="0.5">
<rect x="910" width="100" height="100" rx="50" fill="white"/>
<rect x="939.688" y="34.375" width="40.625" height="31.25" rx="4.6875" stroke="#FFBD00" stroke-width="3.125"/>
<circle cx="952.188" cy="45.3125" r="3.125" stroke="#FFBD00" stroke-width="3.125"/>
<path d="M950.625 65.625L966.6 51.4251C967.566 50.5664 968.961 50.391 970.109 50.9838L980.312 56.25" stroke="#FFBD00" stroke-width="3.125"/>
<rect x="910.5" y="0.5" width="99" height="99" rx="49.5" stroke="#FFCE00" stroke-opacity="0.2"/>
</g>
<g opacity="0.5">
<rect x="1040" width="100" height="100" rx="50" fill="white"/>
<path d="M1093.12 32.8125V43.75C1093.12 45.4759 1094.52 46.875 1096.25 46.875H1102.5" stroke="#8427E0" stroke-width="3.125"/>
<path d="M1075.94 35.9375C1075.94 34.2116 1077.34 32.8125 1079.06 32.8125H1090H1091.56C1093.53 32.8125 1095.38 33.7387 1096.56 35.3125L1102.81 43.6458C1103.62 44.7277 1104.06 46.0435 1104.06 47.3958V50V64.0625C1104.06 65.7884 1102.66 67.1875 1100.94 67.1875H1079.06C1077.34 67.1875 1075.94 65.7884 1075.94 64.0625V35.9375Z" stroke="#8427E0" stroke-width="3.125"/>
<rect x="1040.5" y="0.5" width="99" height="99" rx="49.5" stroke="#9327FF" stroke-opacity="0.2"/>
</g>
<g opacity="0.5">
<rect x="1170" width="100" height="100" rx="50" fill="white"/>
<rect x="1205.94" y="32.8125" width="28.125" height="34.375" rx="7.8125" stroke="#FFBD00" stroke-width="3.125"/>
<rect x="1214.53" y="44.5312" width="10.9375" height="1.5625" rx="0.78125" stroke="#FFBD00" stroke-width="1.5625"/>
<rect x="1214.53" y="53.9062" width="10.9375" height="1.5625" rx="0.78125" stroke="#FFBD00" stroke-width="1.5625"/>
<rect x="1170.5" y="0.5" width="99" height="99" rx="49.5" stroke="#FFCE00" stroke-opacity="0.2"/>
</g>
<g opacity="0.5">
<rect x="1300" width="100" height="100" rx="50" fill="white"/>
<path fill-rule="evenodd" clip-rule="evenodd" d="M1350 46.875C1353.45 46.875 1356.25 44.0768 1356.25 40.625C1356.25 37.1732 1353.45 34.375 1350 34.375C1346.55 34.375 1343.75 37.1732 1343.75 40.625C1343.75 44.0768 1346.55 46.875 1350 46.875ZM1350 50C1355.18 50 1359.38 45.8027 1359.38 40.625C1359.38 35.4473 1355.18 31.25 1350 31.25C1344.82 31.25 1340.62 35.4473 1340.62 40.625C1340.62 45.8027 1344.82 50 1350 50Z" fill="#00B5FF"/>
<path fill-rule="evenodd" clip-rule="evenodd" d="M1350 51.5625C1342.23 51.5625 1335.94 57.8585 1335.94 65.625C1335.94 66.4879 1335.24 67.1875 1334.38 67.1875C1333.51 67.1875 1332.81 66.4879 1332.81 65.625C1332.81 56.1326 1340.51 48.4375 1350 48.4375C1359.49 48.4375 1367.19 56.1326 1367.19 65.625C1367.19 66.4879 1366.49 67.1875 1365.62 67.1875C1364.76 67.1875 1364.06 66.4879 1364.06 65.625C1364.06 57.8585 1357.77 51.5625 1350 51.5625Z" fill="#00B5FF"/>
<rect x="1300.5" y="0.5" width="99" height="99" rx="49.5" stroke="#00C8FF" stroke-opacity="0.2"/>
</g>
<g opacity="0.5">
<rect x="1430" width="100" height="100" rx="50" fill="white"/>
<path fill-rule="evenodd" clip-rule="evenodd" d="M1459.69 34.375C1459.69 31.7862 1461.79 29.6875 1464.38 29.6875H1473.75C1476.34 29.6875 1478.44 31.7862 1478.44 34.375V43.75C1478.44 46.3388 1476.34 48.4375 1473.75 48.4375H1464.38C1461.79 48.4375 1459.69 46.3388 1459.69 43.75V34.375ZM1464.38 32.8125C1463.51 32.8125 1462.81 33.5121 1462.81 34.375V43.75C1462.81 44.6129 1463.51 45.3125 1464.38 45.3125H1473.75C1474.61 45.3125 1475.31 44.6129 1475.31 43.75V34.375C1475.31 33.5121 1474.61 32.8125 1473.75 32.8125H1464.38Z" fill="#9327FF"/>
<path fill-rule="evenodd" clip-rule="evenodd" d="M1481.56 34.375C1481.56 31.7862 1483.66 29.6875 1486.25 29.6875H1495.62C1498.21 29.6875 1500.31 31.7862 1500.31 34.375V43.75C1500.31 46.3388 1498.21 48.4375 1495.62 48.4375H1486.25C1483.66 48.4375 1481.56 46.3388 1481.56 43.75V34.375ZM1486.25 32.8125C1485.39 32.8125 1484.69 33.5121 1484.69 34.375V43.75C1484.69 44.6129 1485.39 45.3125 1486.25 45.3125H1495.62C1496.49 45.3125 1497.19 44.6129 1497.19 43.75V34.375C1497.19 33.5121 1496.49 32.8125 1495.62 32.8125H1486.25Z" fill="#9327FF"/>
<path fill-rule="evenodd" clip-rule="evenodd" d="M1481.56 56.25C1481.56 53.6612 1483.66 51.5625 1486.25 51.5625H1495.62C1498.21 51.5625 1500.31 53.6612 1500.31 56.25V65.625C1500.31 68.2138 1498.21 70.3125 1495.62 70.3125H1486.25C1483.66 70.3125 1481.56 68.2138 1481.56 65.625V56.25ZM1486.25 54.6875C1485.39 54.6875 1484.69 55.3871 1484.69 56.25V65.625C1484.69 66.4879 1485.39 67.1875 1486.25 67.1875H1495.62C1496.49 67.1875 1497.19 66.4879 1497.19 65.625V56.25C1497.19 55.3871 1496.49 54.6875 1495.62 54.6875H1486.25Z" fill="#9327FF"/>
<path fill-rule="evenodd" clip-rule="evenodd" d="M1459.69 56.25C1459.69 53.6612 1461.79 51.5625 1464.38 51.5625H1473.75C1476.34 51.5625 1478.44 53.6612 1478.44 56.25V65.625C1478.44 68.2138 1476.34 70.3125 1473.75 70.3125H1464.38C1461.79 70.3125 1459.69 68.2138 1459.69 65.625V56.25ZM1464.38 54.6875C1463.51 54.6875 1462.81 55.3871 1462.81 56.25V65.625C1462.81 66.4879 1463.51 67.1875 1464.38 67.1875H1473.75C1474.61 67.1875 1475.31 66.4879 1475.31 65.625V56.25C1475.31 55.3871 1474.61 54.6875 1473.75 54.6875H1464.38Z" fill="#9327FF"/>
<rect x="1430.5" y="0.5" width="99" height="99" rx="49.5" stroke="#9327FF" stroke-opacity="0.2"/>
</g>
<g opacity="0.5">
<rect x="1560" width="100" height="100" rx="50" fill="white"/>
<rect x="1560.5" y="0.5" width="99" height="99" rx="49.5" stroke="black" stroke-opacity="0.1"/>
</g>
</svg>
