<svg width="1600" height="100" viewBox="0 0 1600 100" fill="none" xmlns="http://www.w3.org/2000/svg">
<g opacity="0.5">
<rect x="-33" width="100" height="100" rx="50" fill="white"/>
<path fill-rule="evenodd" clip-rule="evenodd" d="M-1.75 37.5C-1.75 34.9112 0.348665 32.8125 2.9375 32.8125H9.1875C11.7763 32.8125 13.875 34.9112 13.875 37.5V62.5C13.875 65.0888 11.7763 67.1875 9.1875 67.1875H2.9375C0.348665 67.1875 -1.75 65.0888 -1.75 62.5V37.5ZM2.9375 35.9375C2.07456 35.9375 1.375 36.6371 1.375 37.5V62.5C1.375 63.3629 2.07456 64.0625 2.9375 64.0625H9.1875C10.0504 64.0625 10.75 63.3629 10.75 62.5V37.5C10.75 36.6371 10.0504 35.9375 9.1875 35.9375H2.9375Z" fill="#FFBD00"/>
<path fill-rule="evenodd" clip-rule="evenodd" d="M20.125 50C20.125 47.4112 22.2237 45.3125 24.8125 45.3125H31.0625C33.6513 45.3125 35.75 47.4112 35.75 50V62.5C35.75 65.0888 33.6513 67.1875 31.0625 67.1875H24.8125C22.2237 67.1875 20.125 65.0888 20.125 62.5V50ZM24.8125 48.4375C23.9496 48.4375 23.25 49.1371 23.25 50V62.5C23.25 63.3629 23.9496 64.0625 24.8125 64.0625H31.0625C31.9254 64.0625 32.625 63.3629 32.625 62.5V50C32.625 49.1371 31.9254 48.4375 31.0625 48.4375H24.8125Z" fill="#FFBD00"/>
<rect x="-32.5" y="0.5" width="99" height="99" rx="49.5" stroke="#FFCE00" stroke-opacity="0.2"/>
</g>
<g opacity="0.5">
<rect x="97" width="100" height="100" rx="50" fill="white"/>
<path fill-rule="evenodd" clip-rule="evenodd" d="M147 35.9375C139.233 35.9375 132.938 42.2335 132.938 50C132.938 57.7665 139.233 64.0625 147 64.0625C154.767 64.0625 161.062 57.7665 161.062 50C161.062 42.2335 154.767 35.9375 147 35.9375ZM129.812 50C129.812 40.5076 137.508 32.8125 147 32.8125C156.492 32.8125 164.188 40.5076 164.188 50C164.188 59.4924 156.492 67.1875 147 67.1875C137.508 67.1875 129.812 59.4924 129.812 50Z" fill="#8427E0"/>
<path fill-rule="evenodd" clip-rule="evenodd" d="M147 39.0625C147.863 39.0625 148.562 39.7621 148.562 40.625V49.0343L153.949 51.7275C154.721 52.1134 155.033 53.0519 154.648 53.8238C154.262 54.5956 153.323 54.9085 152.551 54.5225L146.301 51.3975C145.772 51.1329 145.438 50.5918 145.438 50V40.625C145.438 39.7621 146.137 39.0625 147 39.0625Z" fill="#8427E0"/>
<rect x="97.5" y="0.5" width="99" height="99" rx="49.5" stroke="#9327FF" stroke-opacity="0.2"/>
</g>
<g opacity="0.5">
<rect x="227" width="100" height="100" rx="50" fill="white"/>
<path fill-rule="evenodd" clip-rule="evenodd" d="M264.847 37.5C263.634 37.5 262.938 38.3503 262.938 39.0625V60.9375C262.938 61.6497 263.634 62.5 264.847 62.5H289.153C290.366 62.5 291.062 61.6497 291.062 60.9375V39.0625C291.062 38.3503 290.366 37.5 289.153 37.5H264.847ZM259.812 39.0625C259.812 36.3229 262.226 34.375 264.847 34.375H289.153C291.774 34.375 294.188 36.3229 294.188 39.0625V60.9375C294.188 63.6771 291.774 65.625 289.153 65.625H264.847C262.226 65.625 259.812 63.6771 259.812 60.9375V39.0625Z" fill="#00B5FF"/>
<path fill-rule="evenodd" clip-rule="evenodd" d="M283.25 31.25C284.113 31.25 284.812 31.9496 284.812 32.8125V39.3182C284.812 40.1811 284.113 40.8807 283.25 40.8807C282.387 40.8807 281.688 40.1811 281.688 39.3182V32.8125C281.688 31.9496 282.387 31.25 283.25 31.25Z" fill="#00B5FF"/>
<path fill-rule="evenodd" clip-rule="evenodd" d="M270.75 31.25C271.613 31.25 272.312 31.9496 272.312 32.8125V39.3182C272.312 40.1811 271.613 40.8807 270.75 40.8807C269.887 40.8807 269.188 40.1811 269.188 39.3182V32.8125C269.188 31.9496 269.887 31.25 270.75 31.25Z" fill="#00B5FF"/>
<path fill-rule="evenodd" clip-rule="evenodd" d="M259.812 45.3125C259.812 44.4496 260.512 43.75 261.375 43.75H292.625C293.488 43.75 294.188 44.4496 294.188 45.3125C294.188 46.1754 293.488 46.875 292.625 46.875H261.375C260.512 46.875 259.812 46.1754 259.812 45.3125Z" fill="#00B5FF"/>
<rect x="227.5" y="0.5" width="99" height="99" rx="49.5" stroke="#00C8FF" stroke-opacity="0.2"/>
</g>
<g opacity="0.5">
<rect x="357" width="100" height="100" rx="50" fill="white"/>
<path fill-rule="evenodd" clip-rule="evenodd" d="M390.48 37.8301C388.914 35.7729 390.381 32.8125 392.967 32.8125H421.036C423.621 32.8125 425.089 35.7729 423.523 37.8301L412.001 52.9679V62.9695C412.001 65.3523 409.442 66.8584 407.359 65.7012L403.609 63.6179C402.617 63.0668 402.001 62.0211 402.001 60.8862L402.001 52.9679L390.48 37.8301ZM421.036 35.9375H392.967L404.488 51.0753C404.902 51.6194 405.126 52.2842 405.126 52.9679V60.8862L408.876 62.9695V52.9679C408.876 52.2842 409.101 51.6194 409.515 51.0753L421.036 35.9375Z" fill="#FB006D"/>
<rect x="357.5" y="0.5" width="99" height="99" rx="49.5" stroke="#FB006D" stroke-opacity="0.2"/>
</g>
<g opacity="0.5">
<rect x="487" width="100" height="100" rx="50" fill="white"/>
<path d="M518.881 45H521.381V62.5H518.506V48.075L514.981 49.075L514.281 46.625L518.881 45Z" fill="#FFBD00"/>
<path d="M524.227 62.5V59.6875L531.852 51.9063C533.706 50.0521 534.633 48.4479 534.633 47.0938C534.633 46.0313 534.31 45.2083 533.664 44.625C533.039 44.0208 532.237 43.7188 531.258 43.7188C529.425 43.7188 528.071 44.625 527.196 46.4375L524.164 44.6562C524.852 43.1979 525.821 42.0938 527.071 41.3438C528.321 40.5938 529.706 40.2188 531.227 40.2188C533.143 40.2188 534.789 40.8229 536.164 42.0313C537.539 43.2396 538.227 44.8854 538.227 46.9688C538.227 49.1979 536.987 51.5729 534.508 54.0938L529.571 59.0313H538.633V62.5H524.227Z" fill="#FFBD00"/>
<path d="M552.324 46.975C554.224 47.425 555.761 48.3125 556.936 49.6375C558.136 50.9375 558.736 52.575 558.736 54.55C558.736 57.175 557.849 59.2375 556.074 60.7375C554.299 62.2375 552.124 62.9875 549.549 62.9875C547.549 62.9875 545.749 62.525 544.149 61.6C542.574 60.675 541.436 59.325 540.736 57.55L544.411 55.4125C545.186 57.6625 546.899 58.7875 549.549 58.7875C551.049 58.7875 552.236 58.4125 553.111 57.6625C553.986 56.8875 554.424 55.85 554.424 54.55C554.424 53.25 553.986 52.225 553.111 51.475C552.236 50.725 551.049 50.35 549.549 50.35H548.574L546.849 47.7625L552.511 40.3H541.524V36.25H557.649V39.925L552.324 46.975Z" fill="#FFBD00"/>
<rect x="487.5" y="0.5" width="99" height="99" rx="49.5" stroke="#FFCE00" stroke-opacity="0.2"/>
</g>
<g opacity="0.5">
<rect x="617" width="100" height="100" rx="50" fill="white"/>
<path fill-rule="evenodd" clip-rule="evenodd" d="M679.128 36.6198C679.536 36.6198 679.927 36.7818 680.215 37.0701C680.503 37.3585 680.665 37.7495 680.665 38.1573V46.101C680.665 47.0445 681.43 47.8094 682.374 47.8094C683.317 47.8094 684.082 47.0445 684.082 46.101V38.1573C684.082 36.8434 683.56 35.5833 682.631 34.6542C681.702 33.7251 680.442 33.2031 679.128 33.2031H653.161C651.847 33.2031 650.587 33.7251 649.658 34.6542C648.729 35.5833 648.207 36.8434 648.207 38.1573V57.6323C648.207 58.9462 648.729 60.2063 649.658 61.1354C650.587 62.0645 651.847 62.5865 653.161 62.5865H667.597C668.54 62.5865 669.305 61.8216 669.305 60.8781C669.305 59.9346 668.54 59.1698 667.597 59.1698H653.161C652.753 59.1698 652.362 59.0078 652.074 58.7195C651.786 58.4311 651.624 58.0401 651.624 57.6323V38.1573C651.624 37.7495 651.786 37.3585 652.074 37.0701C652.362 36.7818 652.753 36.6198 653.161 36.6198H679.128Z" fill="#8427E0"/>
<rect width="3.24583" height="12.9833" rx="1.62292" transform="matrix(-1 0 0 1 684 54.3906)" fill="#8427E0"/>
<rect width="3.24583" height="12.9833" rx="1.62292" transform="matrix(4.37114e-08 1 1 -4.37114e-08 675.883 59.25)" fill="#8427E0"/>
<rect x="617.5" y="0.5" width="99" height="99" rx="49.5" stroke="#9327FF" stroke-opacity="0.2"/>
</g>
<g opacity="0.5">
<rect x="747" width="100" height="100" rx="50" fill="white"/>
<path d="M791.828 39.6719L809.911 39.6719" stroke="#00B5FF" stroke-width="3.85156" stroke-linecap="round" stroke-linejoin="round"/>
<path d="M791.254 49.9375H809.911" stroke="#00B5FF" stroke-width="3.85156" stroke-linecap="round" stroke-linejoin="round"/>
<path d="M791.254 60.2031H809.911" stroke="#00B5FF" stroke-width="3.85156" stroke-linecap="round" stroke-linejoin="round"/>
<path d="M784.078 39.6719H784.094" stroke="#00B5FF" stroke-width="3.85156" stroke-linecap="round" stroke-linejoin="round"/>
<path d="M784.078 49.9375H784.094" stroke="#00B5FF" stroke-width="3.85156" stroke-linecap="round" stroke-linejoin="round"/>
<path d="M784.078 60.2031H784.094" stroke="#00B5FF" stroke-width="3.85156" stroke-linecap="round" stroke-linejoin="round"/>
<rect x="747.5" y="0.5" width="99" height="99" rx="49.5" stroke="#00C8FF" stroke-opacity="0.2"/>
</g>
<g opacity="0.5">
<rect x="877" width="100" height="100" rx="50" fill="white"/>
<path fill-rule="evenodd" clip-rule="evenodd" d="M927 35.9375C919.233 35.9375 912.938 42.2335 912.938 50C912.938 57.7665 919.233 64.0625 927 64.0625C934.767 64.0625 941.062 57.7665 941.062 50C941.062 42.2335 934.767 35.9375 927 35.9375ZM909.812 50C909.812 40.5076 917.508 32.8125 927 32.8125C936.492 32.8125 944.188 40.5076 944.188 50C944.188 59.4924 936.492 67.1875 927 67.1875C917.508 67.1875 909.812 59.4924 909.812 50Z" fill="#FB006D"/>
<path fill-rule="evenodd" clip-rule="evenodd" d="M927 39.0625C927.863 39.0625 928.562 39.7621 928.562 40.625V49.0343L933.949 51.7275C934.721 52.1134 935.033 53.0519 934.648 53.8238C934.262 54.5956 933.323 54.9085 932.551 54.5225L926.301 51.3975C925.772 51.1329 925.438 50.5918 925.438 50V40.625C925.438 39.7621 926.137 39.0625 927 39.0625Z" fill="#FB006D"/>
<path fill-rule="evenodd" clip-rule="evenodd" d="M936.833 31.7076C937.443 31.0975 938.432 31.0975 939.042 31.7076L945.292 37.9576C945.903 38.5678 945.903 39.5572 945.292 40.1674C944.682 40.7775 943.693 40.7775 943.083 40.1674L936.833 33.9174C936.222 33.3072 936.222 32.3178 936.833 31.7076Z" fill="#FB006D"/>
<path fill-rule="evenodd" clip-rule="evenodd" d="M917.167 31.7076C916.557 31.0975 915.568 31.0975 914.958 31.7076L908.708 37.9576C908.097 38.5678 908.097 39.5572 908.708 40.1674C909.318 40.7775 910.307 40.7775 910.917 40.1674L917.167 33.9174C917.778 33.3072 917.778 32.3178 917.167 31.7076Z" fill="#FB006D"/>
<rect x="877.5" y="0.5" width="99" height="99" rx="49.5" stroke="#FB006D" stroke-opacity="0.2"/>
</g>
<g opacity="0.5">
<rect x="1007" width="100" height="100" rx="50" fill="white"/>
<path d="M1047.65 39C1048.7 39 1049.71 39.1999 1050.68 39.5997C1051.62 40.0206 1052.45 40.6098 1053.17 41.3673C1053.87 42.1248 1054.44 43.0297 1054.87 44.0818C1055.28 45.155 1055.49 46.3439 1055.49 47.6485C1055.49 49.3529 1055.26 50.889 1054.81 52.2568C1054.36 53.6456 1053.74 54.8871 1052.96 55.9813C1052.16 57.0966 1051.21 58.0646 1050.12 58.8852C1049.03 59.7059 1047.85 60.4108 1046.57 61L1044.5 59.0115C1045.88 58.1908 1046.95 57.2965 1047.71 56.3286C1048.45 55.3606 1048.97 54.2138 1049.26 52.8881C1048.97 52.9723 1048.66 53.0459 1048.33 53.109C1048 53.1722 1047.6 53.2037 1047.13 53.2037C1046.06 53.2037 1045.09 53.0459 1044.23 52.7303C1043.34 52.4146 1042.59 51.9517 1041.97 51.3415C1041.34 50.7523 1040.85 50.0158 1040.52 49.132C1040.17 48.2482 1040 47.2382 1040 46.1019C1040 45.1129 1040.17 44.187 1040.52 43.3242C1040.85 42.4615 1041.35 41.704 1042.01 41.0517C1042.64 40.4204 1043.45 39.9154 1044.41 39.5366C1045.36 39.1789 1046.44 39 1047.65 39ZM1066.16 39C1067.21 39 1068.22 39.1999 1069.19 39.5997C1070.13 40.0206 1070.97 40.6098 1071.69 41.3673C1072.39 42.1248 1072.95 43.0297 1073.38 44.0818C1073.79 45.155 1074 46.3439 1074 47.6485C1074 49.3529 1073.77 50.889 1073.32 52.2568C1072.87 53.6456 1072.25 54.8871 1071.47 55.9813C1070.67 57.0966 1069.72 58.0646 1068.63 58.8852C1067.54 59.7059 1066.36 60.4108 1065.08 61L1063.02 59.0115C1064.39 58.1908 1065.46 57.2965 1066.23 56.3286C1066.97 55.3606 1067.48 54.2138 1067.77 52.8881C1067.48 52.9723 1067.17 53.0459 1066.84 53.109C1066.51 53.1722 1066.11 53.2037 1065.64 53.2037C1064.57 53.2037 1063.6 53.0459 1062.74 52.7303C1061.85 52.4146 1061.1 51.9517 1060.49 51.3415C1059.85 50.7523 1059.37 50.0158 1059.04 49.132C1058.69 48.2482 1058.51 47.2382 1058.51 46.1019C1058.51 45.1129 1058.69 44.187 1059.04 43.3242C1059.37 42.4615 1059.86 41.704 1060.52 41.0517C1061.15 40.4204 1061.96 39.9154 1062.92 39.5366C1063.87 39.1789 1064.95 39 1066.16 39Z" fill="#FFBD00"/>
<rect x="1007.5" y="0.5" width="99" height="99" rx="49.5" stroke="#FFCE00" stroke-opacity="0.2"/>
</g>
<g opacity="0.5">
<rect x="1137" width="100" height="100" rx="50" fill="white"/>
<path d="M1184.36 61.9872L1182.12 55.7942H1169.71L1167.46 61.9872H1163.56L1173.84 34.375H1177.98L1188.26 61.9872H1184.36ZM1170.97 52.3624H1180.86L1175.89 38.7535L1170.97 52.3624Z" fill="#00B5FF"/>
<path d="M1207.01 42.2642H1210.44V61.9872H1207.01V58.5948C1205.3 61.1983 1202.82 62.5 1199.56 62.5C1196.81 62.5 1194.46 61.5007 1192.51 59.5021C1190.57 57.4772 1189.6 55.0184 1189.6 52.1257C1189.6 49.233 1190.57 46.7873 1192.51 44.7887C1194.46 42.7639 1196.81 41.7514 1199.56 41.7514C1202.82 41.7514 1205.3 43.0531 1207.01 45.6566V42.2642ZM1200 59.1865C1201.99 59.1865 1203.66 58.516 1205 57.1748C1206.34 55.8073 1207.01 54.1243 1207.01 52.1257C1207.01 50.1271 1206.34 48.4572 1205 47.1161C1203.66 45.7486 1201.99 45.0649 1200 45.0649C1198.03 45.0649 1196.37 45.7486 1195.03 47.1161C1193.69 48.4572 1193.02 50.1271 1193.02 52.1257C1193.02 54.1243 1193.69 55.8073 1195.03 57.1748C1196.37 58.516 1198.03 59.1865 1200 59.1865Z" fill="#00B5FF"/>
<rect x="1137.5" y="0.5" width="99" height="99" rx="49.5" stroke="#00C8FF" stroke-opacity="0.2"/>
</g>
<g opacity="0.5">
<rect x="1267" width="100" height="100" rx="50" fill="white"/>
<path d="M1308 65L1308.45 59.7H1311.97L1314.09 35.3H1310.57L1311.07 30H1325L1324.5 35.3H1320.98L1318.86 59.7H1322.38L1321.93 65H1308Z" fill="#8427E0"/>
<rect x="1267.5" y="0.5" width="99" height="99" rx="49.5" stroke="#9327FF" stroke-opacity="0.2"/>
</g>
<g opacity="0.5">
<rect x="1397" width="100" height="100" rx="50" fill="white"/>
<path fill-rule="evenodd" clip-rule="evenodd" d="M1445.44 65.625C1445.44 64.7621 1446.14 64.0625 1447 64.0625H1465.75C1466.61 64.0625 1467.31 64.7621 1467.31 65.625C1467.31 66.4879 1466.61 67.1875 1465.75 67.1875H1447C1446.14 67.1875 1445.44 66.4879 1445.44 65.625Z" fill="#FFBD00"/>
<path fill-rule="evenodd" clip-rule="evenodd" d="M1458.75 35.9375C1458.14 35.9375 1457.55 36.1808 1457.12 36.6139L1434.61 59.123L1433.52 63.4776L1437.88 62.3889L1460.39 39.8798C1460.6 39.6654 1460.77 39.4108 1460.89 39.1306C1461 38.8504 1461.06 38.5501 1461.06 38.2469C1461.06 37.9436 1461 37.6433 1460.89 37.3631C1460.77 37.0829 1460.6 36.8283 1460.39 36.6139C1460.17 36.3995 1459.92 36.2293 1459.64 36.1133C1459.36 35.9972 1459.06 35.9375 1458.75 35.9375ZM1454.91 34.4042C1455.93 33.385 1457.31 32.8125 1458.75 32.8125C1459.47 32.8125 1460.17 32.9531 1460.83 33.2262C1461.49 33.4993 1462.09 33.8996 1462.6 34.4042C1463.1 34.9088 1463.5 35.5079 1463.77 36.1672C1464.05 36.8265 1464.19 37.5332 1464.19 38.2469C1464.19 38.9605 1464.05 39.6672 1463.77 40.3265C1463.5 40.9858 1463.1 41.5849 1462.6 42.0895L1439.78 64.9046C1439.58 65.1049 1439.33 65.247 1439.05 65.3156L1431.75 67.1409C1431.22 67.274 1430.66 67.118 1430.27 66.7299C1429.88 66.3418 1429.73 65.7785 1429.86 65.246L1431.68 57.9452C1431.75 57.6705 1431.9 57.4196 1432.1 57.2193L1454.91 34.4042Z" fill="#FFBD00"/>
<rect x="1397.5" y="0.5" width="99" height="99" rx="49.5" stroke="#FFCE00" stroke-opacity="0.2"/>
</g>
<g opacity="0.5">
<rect x="1527" width="100" height="100" rx="50" fill="white"/>
<path fill-rule="evenodd" clip-rule="evenodd" d="M1558.25 37.5C1558.25 34.9112 1560.35 32.8125 1562.94 32.8125H1569.19C1571.78 32.8125 1573.88 34.9112 1573.88 37.5V62.5C1573.88 65.0888 1571.78 67.1875 1569.19 67.1875H1562.94C1560.35 67.1875 1558.25 65.0888 1558.25 62.5V37.5ZM1562.94 35.9375C1562.07 35.9375 1561.38 36.6371 1561.38 37.5V62.5C1561.38 63.3629 1562.07 64.0625 1562.94 64.0625H1569.19C1570.05 64.0625 1570.75 63.3629 1570.75 62.5V37.5C1570.75 36.6371 1570.05 35.9375 1569.19 35.9375H1562.94Z" fill="#FB006D"/>
<path fill-rule="evenodd" clip-rule="evenodd" d="M1580.12 50C1580.12 47.4112 1582.22 45.3125 1584.81 45.3125H1591.06C1593.65 45.3125 1595.75 47.4112 1595.75 50V62.5C1595.75 65.0888 1593.65 67.1875 1591.06 67.1875H1584.81C1582.22 67.1875 1580.12 65.0888 1580.12 62.5V50ZM1584.81 48.4375C1583.95 48.4375 1583.25 49.1371 1583.25 50V62.5C1583.25 63.3629 1583.95 64.0625 1584.81 64.0625H1591.06C1591.93 64.0625 1592.62 63.3629 1592.62 62.5V50C1592.62 49.1371 1591.93 48.4375 1591.06 48.4375H1584.81Z" fill="#FB006D"/>
<rect x="1527.5" y="0.5" width="99" height="99" rx="49.5" stroke="#FB006D" stroke-opacity="0.2"/>
</g>
</svg>
