<svg width="1600" height="100" viewBox="0 0 1600 100" fill="none" xmlns="http://www.w3.org/2000/svg">
<g opacity="0.5">
<rect x="-39" width="100" height="100" rx="50" fill="white"/>
<path fill-rule="evenodd" clip-rule="evenodd" d="M-7.75 37.5C-7.75 34.9112 -5.65134 32.8125 -3.0625 32.8125H3.1875C5.77633 32.8125 7.875 34.9112 7.875 37.5V62.5C7.875 65.0888 5.77634 67.1875 3.1875 67.1875H-3.0625C-5.65133 67.1875 -7.75 65.0888 -7.75 62.5V37.5ZM-3.0625 35.9375C-3.92544 35.9375 -4.625 36.6371 -4.625 37.5V62.5C-4.625 63.3629 -3.92544 64.0625 -3.0625 64.0625H3.1875C4.05044 64.0625 4.75 63.3629 4.75 62.5V37.5C4.75 36.6371 4.05044 35.9375 3.1875 35.9375H-3.0625Z" fill="#FB006D"/>
<path fill-rule="evenodd" clip-rule="evenodd" d="M14.125 50C14.125 47.4112 16.2237 45.3125 18.8125 45.3125H25.0625C27.6513 45.3125 29.75 47.4112 29.75 50V62.5C29.75 65.0888 27.6513 67.1875 25.0625 67.1875H18.8125C16.2237 67.1875 14.125 65.0888 14.125 62.5V50ZM18.8125 48.4375C17.9496 48.4375 17.25 49.1371 17.25 50V62.5C17.25 63.3629 17.9496 64.0625 18.8125 64.0625H25.0625C25.9254 64.0625 26.625 63.3629 26.625 62.5V50C26.625 49.1371 25.9254 48.4375 25.0625 48.4375H18.8125Z" fill="#FB006D"/>
<rect x="-38.5" y="0.5" width="99" height="99" rx="49.5" stroke="#FB006D" stroke-opacity="0.2"/>
</g>
<g opacity="0.5">
<rect x="91" width="100" height="100" rx="50" fill="white"/>
<path fill-rule="evenodd" clip-rule="evenodd" d="M141 35.9375C133.233 35.9375 126.938 42.2335 126.938 50C126.938 57.7665 133.233 64.0625 141 64.0625C148.767 64.0625 155.062 57.7665 155.062 50C155.062 42.2335 148.767 35.9375 141 35.9375ZM123.812 50C123.812 40.5076 131.508 32.8125 141 32.8125C150.492 32.8125 158.188 40.5076 158.188 50C158.188 59.4924 150.492 67.1875 141 67.1875C131.508 67.1875 123.812 59.4924 123.812 50Z" fill="#9327FF"/>
<path fill-rule="evenodd" clip-rule="evenodd" d="M141 39.0625C141.863 39.0625 142.562 39.7621 142.562 40.625V49.0343L147.949 51.7275C148.721 52.1134 149.033 53.0519 148.648 53.8238C148.262 54.5956 147.323 54.9085 146.551 54.5225L140.301 51.3975C139.772 51.1329 139.438 50.5918 139.438 50V40.625C139.438 39.7621 140.137 39.0625 141 39.0625Z" fill="#9327FF"/>
<path fill-rule="evenodd" clip-rule="evenodd" d="M150.833 31.7076C151.443 31.0975 152.432 31.0975 153.042 31.7076L159.292 37.9576C159.903 38.5678 159.903 39.5572 159.292 40.1674C158.682 40.7775 157.693 40.7775 157.083 40.1674L150.833 33.9174C150.222 33.3072 150.222 32.3178 150.833 31.7076Z" fill="#9327FF"/>
<path fill-rule="evenodd" clip-rule="evenodd" d="M131.167 31.7076C130.557 31.0975 129.568 31.0975 128.958 31.7076L122.708 37.9576C122.097 38.5678 122.097 39.5572 122.708 40.1674C123.318 40.7775 124.307 40.7775 124.917 40.1674L131.167 33.9174C131.778 33.3072 131.778 32.3178 131.167 31.7076Z" fill="#9327FF"/>
<rect x="91.5" y="0.5" width="99" height="99" rx="49.5" stroke="#9327FF" stroke-opacity="0.2"/>
</g>
<g opacity="0.5">
<rect x="221" width="100" height="100" rx="50" fill="white"/>
<path fill-rule="evenodd" clip-rule="evenodd" d="M254.48 37.8301C252.914 35.7729 254.381 32.8125 256.967 32.8125H285.036C287.621 32.8125 289.089 35.7729 287.523 37.8301L276.001 52.9679V62.9695C276.001 65.3523 273.442 66.8584 271.359 65.7012L267.609 63.6179C266.617 63.0668 266.001 62.0211 266.001 60.8862L266.001 52.9679L254.48 37.8301ZM285.036 35.9375H256.967L268.488 51.0753C268.902 51.6194 269.126 52.2842 269.126 52.9679V60.8862L272.876 62.9695V52.9679C272.876 52.2842 273.101 51.6194 273.515 51.0753L285.036 35.9375Z" fill="#00B5FF"/>
<rect x="221.5" y="0.5" width="99" height="99" rx="49.5" stroke="#00C8FF" stroke-opacity="0.2"/>
</g>
<g opacity="0.5">
<rect x="351" width="100" height="100" rx="50" fill="white"/>
<path fill-rule="evenodd" clip-rule="evenodd" d="M419.332 37.9993C419.92 38.6317 419.883 39.6203 419.251 40.2075L402.424 55.8325C401.824 56.3892 400.897 56.3892 400.297 55.8325L395.249 51.145C394.617 50.5578 394.58 49.5692 395.168 48.9368C395.755 48.3044 396.743 48.2678 397.376 48.855L401.361 52.5553L417.124 37.9175C417.757 37.3303 418.745 37.3669 419.332 37.9993Z" fill="#FFBD00"/>
<path fill-rule="evenodd" clip-rule="evenodd" d="M401 34.375C392.371 34.375 385.375 41.3706 385.375 50C385.375 58.6294 392.371 65.625 401 65.625C409.629 65.625 416.625 58.6294 416.625 50C416.625 49.1371 417.325 48.4375 418.188 48.4375C419.05 48.4375 419.75 49.1371 419.75 50C419.75 60.3553 411.355 68.75 401 68.75C390.645 68.75 382.25 60.3553 382.25 50C382.25 39.6447 390.645 31.25 401 31.25C403.789 31.25 406.44 31.86 408.823 32.9553C409.607 33.3157 409.95 34.2435 409.59 35.0276C409.23 35.8117 408.302 36.1551 407.518 35.7947C405.536 34.8837 403.329 34.375 401 34.375Z" fill="#FFBD00"/>
<rect x="351.5" y="0.5" width="99" height="99" rx="49.5" stroke="#FFCE00" stroke-opacity="0.2"/>
</g>
<g opacity="0.5">
<rect x="481" width="100" height="100" rx="50" fill="white"/>
<path d="M546.625 49.025L531.851 62.959C530.041 64.666 527.586 65.625 525.026 65.625C522.467 65.625 520.012 64.666 518.202 62.959C516.392 61.252 515.375 58.9368 515.375 56.5227C515.375 54.1086 516.392 51.7934 518.202 50.0863L532.976 36.1523C534.183 35.0143 535.819 34.375 537.526 34.375C539.232 34.375 540.869 35.0143 542.075 36.1523C543.282 37.2904 543.96 38.8338 543.96 40.4432C543.96 42.0526 543.282 43.5961 542.075 44.7341L527.285 58.6681C526.682 59.2371 525.863 59.5568 525.01 59.5568C524.157 59.5568 523.339 59.2371 522.735 58.6681C522.132 58.0991 521.793 57.3274 521.793 56.5227C521.793 55.718 522.132 54.9462 522.735 54.3772L536.384 41.5197" stroke="#9327FF" stroke-width="3.12156" stroke-linecap="round" stroke-linejoin="round"/>
<rect x="481.5" y="0.5" width="99" height="99" rx="49.5" stroke="#9327FF" stroke-opacity="0.2"/>
</g>
<g opacity="0.5">
<rect x="611" width="100" height="100" rx="50" fill="white"/>
<path fill-rule="evenodd" clip-rule="evenodd" d="M644.544 36.5443C645.533 35.5555 646.874 35 648.273 35H673.727C675.126 35 676.467 35.5555 677.456 36.5443C678.444 37.5332 679 38.8743 679 40.2727V69.3636C679 70.0254 678.601 70.6221 677.99 70.8754C677.378 71.1287 676.675 70.9887 676.207 70.5207L669.413 63.7272H648.273C646.874 63.7272 645.533 63.1717 644.544 62.1829C643.556 61.1941 643 59.8529 643 58.4545V40.2727C643 38.8743 643.556 37.5332 644.544 36.5443ZM648.273 38.2727C647.742 38.2727 647.234 38.4834 646.859 38.8585C646.483 39.2336 646.273 39.7423 646.273 40.2727V58.4545C646.273 58.9849 646.483 59.4937 646.859 59.8687C647.234 60.2438 647.742 60.4545 648.273 60.4545H670.091C670.525 60.4545 670.941 60.6269 671.248 60.9338L675.727 65.4131V40.2727C675.727 39.7423 675.517 39.2336 675.141 38.8585C674.766 38.4834 674.258 38.2727 673.727 38.2727H648.273Z" fill="#FFBD00"/>
<rect x="611.5" y="0.5" width="99" height="99" rx="49.5" stroke="#FFCE00" stroke-opacity="0.2"/>
</g>
<g opacity="0.5">
<rect x="741" width="100" height="100" rx="50" fill="white"/>
<rect x="776.938" y="32.8125" width="28.125" height="34.375" rx="7.8125" stroke="#00B5FF" stroke-width="3.125"/>
<rect x="785.531" y="44.5312" width="10.9375" height="1.5625" rx="0.78125" stroke="#00B5FF" stroke-width="1.5625"/>
<rect x="785.531" y="53.9062" width="10.9375" height="1.5625" rx="0.78125" stroke="#00B5FF" stroke-width="1.5625"/>
<rect x="741.5" y="0.5" width="99" height="99" rx="49.5" stroke="#00C8FF" stroke-opacity="0.2"/>
</g>
<g opacity="0.5">
<rect x="871" width="100" height="100" rx="50" fill="white"/>
<path fill-rule="evenodd" clip-rule="evenodd" d="M921 46.875C924.452 46.875 927.25 44.0768 927.25 40.625C927.25 37.1732 924.452 34.375 921 34.375C917.548 34.375 914.75 37.1732 914.75 40.625C914.75 44.0768 917.548 46.875 921 46.875ZM921 50C926.178 50 930.375 45.8027 930.375 40.625C930.375 35.4473 926.178 31.25 921 31.25C915.822 31.25 911.625 35.4473 911.625 40.625C911.625 45.8027 915.822 50 921 50Z" fill="#9327FF"/>
<path fill-rule="evenodd" clip-rule="evenodd" d="M921 51.5625C913.233 51.5625 906.938 57.8585 906.938 65.625C906.938 66.4879 906.238 67.1875 905.375 67.1875C904.512 67.1875 903.812 66.4879 903.812 65.625C903.812 56.1326 911.508 48.4375 921 48.4375C930.492 48.4375 938.188 56.1326 938.188 65.625C938.188 66.4879 937.488 67.1875 936.625 67.1875C935.762 67.1875 935.062 66.4879 935.062 65.625C935.062 57.8585 928.767 51.5625 921 51.5625Z" fill="#9327FF"/>
<rect x="871.5" y="0.5" width="99" height="99" rx="49.5" stroke="#9327FF" stroke-opacity="0.2"/>
</g>
<g opacity="0.5">
<rect x="1001" width="100" height="100" rx="50" fill="white"/>
<path d="M1049.98 36.25H1054.3V62.5H1049.98V51.1375H1038.73V62.5H1034.42V36.25H1038.73V47.0125H1049.98V36.25Z" fill="#00B5FF"/>
<path d="M1057.59 62.5V59.925L1063.57 53.775C1064.9 52.375 1065.57 51.2083 1065.57 50.275C1065.57 49.5917 1065.35 49.0417 1064.92 48.625C1064.5 48.2083 1063.96 48 1063.29 48C1061.98 48 1061 48.6833 1060.37 50.05L1057.47 48.35C1058.02 47.15 1058.81 46.2333 1059.84 45.6C1060.88 44.9667 1062.01 44.65 1063.24 44.65C1064.83 44.65 1066.19 45.15 1067.32 46.15C1068.45 47.1333 1069.02 48.4667 1069.02 50.15C1069.02 51.9667 1068.06 53.8333 1066.14 55.75L1062.72 59.175H1069.29V62.5H1057.59Z" fill="#00B5FF"/>
<rect x="1001.5" y="0.5" width="99" height="99" rx="49.5" stroke="#00C8FF" stroke-opacity="0.2"/>
</g>
<g opacity="0.5">
<rect x="1131" width="100" height="100" rx="50" fill="white"/>
<path d="M1172 65L1172.45 59.7H1175.97L1178.09 35.3H1174.57L1175.07 30H1189L1188.5 35.3H1184.98L1182.86 59.7H1186.38L1185.93 65H1172Z" fill="#FB006D"/>
<rect x="1131.5" y="0.5" width="99" height="99" rx="49.5" stroke="#FB006D" stroke-opacity="0.2"/>
</g>
<g opacity="0.5">
<rect x="1261" width="100" height="100" rx="50" fill="white"/>
<path fill-rule="evenodd" clip-rule="evenodd" d="M1309 46.3516C1308.09 46.3516 1307.36 47.087 1307.36 47.9942V62.4173C1307.36 63.3245 1308.09 64.0599 1309 64.0599H1323.42C1324.33 64.0599 1325.06 63.3245 1325.06 62.4173V47.9942C1325.06 47.087 1324.33 46.3516 1323.42 46.3516H1309ZM1304.23 47.9942C1304.23 45.3611 1306.37 43.2266 1309 43.2266H1323.42C1326.05 43.2266 1328.19 45.3611 1328.19 47.9942V62.4173C1328.19 65.0504 1326.05 67.1849 1323.42 67.1849H1309C1306.37 67.1849 1304.23 65.0504 1304.23 62.4173V47.9942Z" fill="#00B5FF"/>
<path fill-rule="evenodd" clip-rule="evenodd" d="M1298.58 35.9375C1298.14 35.9375 1297.73 36.1106 1297.42 36.4186C1297.11 36.7267 1296.94 37.1445 1296.94 37.5801V52.0032C1296.94 52.4389 1297.11 52.8567 1297.42 53.1647C1297.73 53.4728 1298.14 53.6458 1298.58 53.6458H1300.18C1301.05 53.6458 1301.75 54.3454 1301.75 55.2083C1301.75 56.0713 1301.05 56.7708 1300.18 56.7708H1298.58C1297.32 56.7708 1296.1 56.2685 1295.21 55.3744C1294.31 54.4803 1293.81 53.2677 1293.81 52.0032V37.5801C1293.81 36.3157 1294.31 35.103 1295.21 34.2089C1296.1 33.3148 1297.32 32.8125 1298.58 32.8125H1313C1314.27 32.8125 1315.48 33.3148 1316.37 34.2089C1317.27 35.103 1317.77 36.3157 1317.77 37.5801V39.1827C1317.77 40.0456 1317.07 40.7452 1316.21 40.7452C1315.35 40.7452 1314.65 40.0456 1314.65 39.1827V37.5801C1314.65 37.1445 1314.47 36.7267 1314.16 36.4186C1313.86 36.1106 1313.44 35.9375 1313 35.9375H1298.58Z" fill="#00B5FF"/>
<rect x="1261.5" y="0.5" width="99" height="99" rx="49.5" stroke="#00C8FF" stroke-opacity="0.2"/>
</g>
<g opacity="0.5">
<rect x="1391" width="100" height="100" rx="50" fill="white"/>
<path fill-rule="evenodd" clip-rule="evenodd" d="M1438.33 38.6742C1437.59 37.9419 1436.41 37.9419 1435.67 38.6742L1425.67 48.6742C1424.94 49.4064 1424.94 50.5936 1425.67 51.3258L1435.67 61.3258C1436.41 62.0581 1437.59 62.0581 1438.33 61.3258C1439.06 60.5936 1439.06 59.4064 1438.33 58.6742L1429.65 50L1438.33 41.3258C1439.06 40.5936 1439.06 39.4064 1438.33 38.6742Z" fill="#FFBD00"/>
<path fill-rule="evenodd" clip-rule="evenodd" d="M1445.67 38.6742C1446.41 37.9419 1447.59 37.9419 1448.33 38.6742L1458.33 48.6742C1459.06 49.4064 1459.06 50.5936 1458.33 51.3258L1448.33 61.3258C1447.59 62.0581 1446.41 62.0581 1445.67 61.3258C1444.94 60.5936 1444.94 59.4064 1445.67 58.6742L1454.35 50L1445.67 41.3258C1444.94 40.5936 1444.94 39.4064 1445.67 38.6742Z" fill="#FFBD00"/>
<rect x="1391.5" y="0.5" width="99" height="99" rx="49.5" stroke="#FFCE00" stroke-opacity="0.2"/>
</g>
<g opacity="0.5">
<rect x="1521" width="100" height="100" rx="50" fill="white"/>
<path fill-rule="evenodd" clip-rule="evenodd" d="M1552.25 37.5C1552.25 34.9112 1554.35 32.8125 1556.94 32.8125H1563.19C1565.78 32.8125 1567.88 34.9112 1567.88 37.5V62.5C1567.88 65.0888 1565.78 67.1875 1563.19 67.1875H1556.94C1554.35 67.1875 1552.25 65.0888 1552.25 62.5V37.5ZM1556.94 35.9375C1556.07 35.9375 1555.38 36.6371 1555.38 37.5V62.5C1555.38 63.3629 1556.07 64.0625 1556.94 64.0625H1563.19C1564.05 64.0625 1564.75 63.3629 1564.75 62.5V37.5C1564.75 36.6371 1564.05 35.9375 1563.19 35.9375H1556.94Z" fill="#FB006D"/>
<path fill-rule="evenodd" clip-rule="evenodd" d="M1574.12 50C1574.12 47.4112 1576.22 45.3125 1578.81 45.3125H1585.06C1587.65 45.3125 1589.75 47.4112 1589.75 50V62.5C1589.75 65.0888 1587.65 67.1875 1585.06 67.1875H1578.81C1576.22 67.1875 1574.12 65.0888 1574.12 62.5V50ZM1578.81 48.4375C1577.95 48.4375 1577.25 49.1371 1577.25 50V62.5C1577.25 63.3629 1577.95 64.0625 1578.81 64.0625H1585.06C1585.93 64.0625 1586.62 63.3629 1586.62 62.5V50C1586.62 49.1371 1585.93 48.4375 1585.06 48.4375H1578.81Z" fill="#FB006D"/>
<rect x="1521.5" y="0.5" width="99" height="99" rx="49.5" stroke="#FB006D" stroke-opacity="0.2"/>
</g>
</svg>
