<svg width="1440" height="515" viewBox="0 0 1440 515" fill="none" xmlns="http://www.w3.org/2000/svg">
<mask id="mask0_7_975" style="mask-type:alpha" maskUnits="userSpaceOnUse" x="0" y="0" width="1440" height="515">
<rect width="1440" height="515" fill="#2B1A3F"/>
</mask>
<g mask="url(#mask0_7_975)">
<g opacity="0.2">
<g opacity="0.5">
<rect x="-55.5" y="383" width="90" height="90" rx="45" fill="white" fill-opacity="0.05"/>
<rect x="-55.05" y="383.45" width="89.1" height="89.1" rx="44.55" stroke="white" stroke-opacity="0.2" stroke-width="0.9"/>
<path fill-rule="evenodd" clip-rule="evenodd" d="M-6.88672 428C-6.88672 425.67 -4.99792 423.781 -2.66797 423.781H2.95703C5.28698 423.781 7.17578 425.67 7.17578 428V439.25C7.17578 441.58 5.28698 443.469 2.95703 443.469H-2.66797C-4.99792 443.469 -6.88672 441.58 -6.88672 439.25V428ZM-2.66797 426.594C-3.44462 426.594 -4.07422 427.223 -4.07422 428V439.25C-4.07422 440.027 -3.44462 440.656 -2.66797 440.656H2.95703C3.73368 440.656 4.36328 440.027 4.36328 439.25V428C4.36328 427.223 3.73368 426.594 2.95703 426.594H-2.66797Z" fill="white"/>
</g>
<g opacity="0.5">
<rect x="61.5" y="383" width="90" height="90" rx="45" fill="white" fill-opacity="0.05"/>
<rect x="61.95" y="383.45" width="89.1" height="89.1" rx="44.55" stroke="white" stroke-opacity="0.2" stroke-width="0.9"/>
<path fill-rule="evenodd" clip-rule="evenodd" d="M107.301 415.344C100.311 415.344 94.6445 421.01 94.6445 428C94.6445 434.99 100.311 440.656 107.301 440.656C114.291 440.656 119.957 434.99 119.957 428C119.957 421.01 114.291 415.344 107.301 415.344ZM91.832 428C91.832 419.457 98.7576 412.531 107.301 412.531C115.844 412.531 122.77 419.457 122.77 428C122.77 436.543 115.844 443.469 107.301 443.469C98.7576 443.469 91.832 436.543 91.832 428Z" fill="white"/>
<path fill-rule="evenodd" clip-rule="evenodd" d="M107.301 418.156C108.077 418.156 108.707 418.786 108.707 419.562V427.131L113.555 429.555C114.249 429.902 114.531 430.747 114.184 431.441C113.836 432.136 112.992 432.418 112.297 432.07L106.672 429.258C106.195 429.02 105.895 428.533 105.895 428V419.562C105.895 418.786 106.524 418.156 107.301 418.156Z" fill="white"/>
</g>
<g opacity="0.5">
<rect x="178.5" y="383" width="90" height="90" rx="45" fill="white" fill-opacity="0.05"/>
<rect x="178.95" y="383.45" width="89.1" height="89.1" rx="44.55" stroke="white" stroke-opacity="0.2" stroke-width="0.9"/>
<path fill-rule="evenodd" clip-rule="evenodd" d="M213.363 416.75C212.271 416.75 211.645 417.515 211.645 418.156V437.844C211.645 438.485 212.271 439.25 213.363 439.25H235.238C236.331 439.25 236.957 438.485 236.957 437.844V418.156C236.957 417.515 236.331 416.75 235.238 416.75H213.363ZM208.832 418.156C208.832 415.691 211.004 413.938 213.363 413.938H235.238C237.598 413.938 239.77 415.691 239.77 418.156V437.844C239.77 440.309 237.598 442.062 235.238 442.062H213.363C211.004 442.062 208.832 440.309 208.832 437.844V418.156Z" fill="white"/>
<path fill-rule="evenodd" clip-rule="evenodd" d="M229.926 411.125C230.702 411.125 231.332 411.755 231.332 412.531V418.386C231.332 419.163 230.702 419.793 229.926 419.793C229.149 419.793 228.52 419.163 228.52 418.386V412.531C228.52 411.755 229.149 411.125 229.926 411.125Z" fill="white"/>
<path fill-rule="evenodd" clip-rule="evenodd" d="M218.676 411.125C219.452 411.125 220.082 411.755 220.082 412.531V418.386C220.082 419.163 219.452 419.793 218.676 419.793C217.899 419.793 217.27 419.163 217.27 418.386V412.531C217.27 411.755 217.899 411.125 218.676 411.125Z" fill="white"/>
<path fill-rule="evenodd" clip-rule="evenodd" d="M208.832 423.781C208.832 423.005 209.462 422.375 210.238 422.375H238.363C239.14 422.375 239.77 423.005 239.77 423.781C239.77 424.558 239.14 425.188 238.363 425.188H210.238C209.462 425.188 208.832 424.558 208.832 423.781Z" fill="white"/>
</g>
<g opacity="0.5">
<rect x="295.5" y="383" width="90" height="90" rx="45" fill="white" fill-opacity="0.05"/>
<rect x="295.95" y="383.45" width="89.1" height="89.1" rx="44.55" stroke="white" stroke-opacity="0.2" stroke-width="0.9"/>
<path fill-rule="evenodd" clip-rule="evenodd" d="M326.433 417.047C325.024 415.196 326.344 412.531 328.671 412.531H353.934C356.26 412.531 357.581 415.196 356.172 417.047L345.802 430.671V439.673C345.802 441.817 343.499 443.173 341.624 442.131L338.249 440.256C337.356 439.76 336.802 438.819 336.802 437.798L336.802 430.671L326.433 417.047ZM353.934 415.344H328.671L339.04 428.968C339.413 429.457 339.615 430.056 339.615 430.671V437.798L342.99 439.673V430.671C342.99 430.056 343.192 429.457 343.564 428.968L353.934 415.344Z" fill="white"/>
</g>
<g opacity="0.5">
<rect x="412.5" y="383" width="90" height="90" rx="45" fill="white" fill-opacity="0.05"/>
<rect x="412.95" y="383.45" width="89.1" height="89.1" rx="44.55" stroke="white" stroke-opacity="0.2" stroke-width="0.9"/>
<path d="M441.994 423.5H444.244V439.25H441.656V426.268L438.484 427.168L437.854 424.963L441.994 423.5Z" fill="white"/>
<path d="M446.804 439.25V436.719L453.667 429.716C455.336 428.047 456.17 426.603 456.17 425.384C456.17 424.428 455.879 423.688 455.298 423.163C454.736 422.619 454.014 422.347 453.133 422.347C451.483 422.347 450.264 423.163 449.476 424.794L446.748 423.191C447.367 421.878 448.239 420.884 449.364 420.209C450.489 419.534 451.736 419.197 453.104 419.197C454.829 419.197 456.311 419.741 457.548 420.828C458.786 421.916 459.404 423.397 459.404 425.272C459.404 427.278 458.289 429.416 456.058 431.684L451.614 436.128H459.77V439.25H446.804Z" fill="white"/>
<path d="M472.092 425.278C473.802 425.683 475.185 426.481 476.243 427.674C477.323 428.844 477.863 430.318 477.863 432.095C477.863 434.458 477.064 436.314 475.467 437.664C473.869 439.014 471.912 439.689 469.594 439.689C467.794 439.689 466.174 439.273 464.734 438.44C463.317 437.608 462.293 436.393 461.663 434.795L464.97 432.871C465.668 434.896 467.209 435.909 469.594 435.909C470.944 435.909 472.013 435.571 472.8 434.896C473.588 434.199 473.982 433.265 473.982 432.095C473.982 430.925 473.588 430.003 472.8 429.328C472.013 428.653 470.944 428.315 469.594 428.315H468.717L467.164 425.986L472.26 419.27H462.372V415.625H476.884V418.932L472.092 425.278Z" fill="white"/>
</g>
<g opacity="0.5">
<rect x="529.5" y="383" width="90" height="90" rx="45" fill="white" fill-opacity="0.05"/>
<rect x="529.95" y="383.45" width="89.1" height="89.1" rx="44.55" stroke="white" stroke-opacity="0.2" stroke-width="0.9"/>
<path fill-rule="evenodd" clip-rule="evenodd" d="M586.217 415.958C586.584 415.958 586.936 416.104 587.195 416.363C587.455 416.623 587.601 416.975 587.601 417.342V424.491C587.601 425.34 588.289 426.028 589.138 426.028C589.987 426.028 590.676 425.34 590.676 424.491V417.342C590.676 416.159 590.206 415.025 589.37 414.189C588.534 413.353 587.4 412.883 586.217 412.883H562.847C561.664 412.883 560.53 413.353 559.694 414.189C558.858 415.025 558.388 416.159 558.388 417.342V434.869C558.388 436.052 558.858 437.186 559.694 438.022C560.53 438.858 561.664 439.328 562.847 439.328H575.839C576.688 439.328 577.376 438.639 577.376 437.79C577.376 436.941 576.688 436.253 575.839 436.253H562.847C562.48 436.253 562.128 436.107 561.869 435.848C561.609 435.588 561.463 435.236 561.463 434.869V417.342C561.463 416.975 561.609 416.623 561.869 416.363C562.128 416.104 562.48 415.958 562.847 415.958H586.217Z" fill="white"/>
<rect width="2.92125" height="11.685" rx="1.46063" transform="matrix(-1 0 0 1 590.602 431.951)" fill="white"/>
<rect width="2.92125" height="11.685" rx="1.46063" transform="matrix(4.37114e-08 1 1 -4.37114e-08 583.295 436.324)" fill="white"/>
</g>
<g opacity="0.5">
<rect x="646.5" y="383" width="90" height="90" rx="45" fill="white" fill-opacity="0.05"/>
<rect x="646.95" y="383.45" width="89.1" height="89.1" rx="44.55" stroke="white" stroke-opacity="0.2" stroke-width="0.9"/>
<path d="M687.646 418.703H703.921" stroke="white" stroke-width="3.4664" stroke-linecap="round" stroke-linejoin="round"/>
<path d="M687.131 427.941H703.922" stroke="white" stroke-width="3.4664" stroke-linecap="round" stroke-linejoin="round"/>
<path d="M687.131 437.18H703.922" stroke="white" stroke-width="3.4664" stroke-linecap="round" stroke-linejoin="round"/>
<path d="M680.672 418.703H680.686" stroke="white" stroke-width="3.4664" stroke-linecap="round" stroke-linejoin="round"/>
<path d="M680.672 427.941H680.686" stroke="white" stroke-width="3.4664" stroke-linecap="round" stroke-linejoin="round"/>
<path d="M680.672 437.182H680.686" stroke="white" stroke-width="3.4664" stroke-linecap="round" stroke-linejoin="round"/>
</g>
<g opacity="0.5">
<rect x="763.5" y="383" width="90" height="90" rx="45" fill="white" fill-opacity="0.05"/>
<rect x="763.95" y="383.45" width="89.1" height="89.1" rx="44.55" stroke="white" stroke-opacity="0.2" stroke-width="0.9"/>
<path fill-rule="evenodd" clip-rule="evenodd" d="M809.301 415.344C802.311 415.344 796.645 421.01 796.645 428C796.645 434.99 802.311 440.656 809.301 440.656C816.291 440.656 821.957 434.99 821.957 428C821.957 421.01 816.291 415.344 809.301 415.344ZM793.832 428C793.832 419.457 800.758 412.531 809.301 412.531C817.844 412.531 824.77 419.457 824.77 428C824.77 436.543 817.844 443.469 809.301 443.469C800.758 443.469 793.832 436.543 793.832 428Z" fill="white"/>
<path fill-rule="evenodd" clip-rule="evenodd" d="M809.301 418.156C810.077 418.156 810.707 418.786 810.707 419.562V427.131L815.555 429.555C816.249 429.902 816.531 430.747 816.184 431.441C815.836 432.136 814.992 432.418 814.297 432.07L808.672 429.258C808.195 429.02 807.895 428.533 807.895 428V419.562C807.895 418.786 808.524 418.156 809.301 418.156Z" fill="white"/>
<path fill-rule="evenodd" clip-rule="evenodd" d="M818.15 411.537C818.699 410.988 819.59 410.988 820.139 411.537L825.764 417.162C826.313 417.711 826.313 418.601 825.764 419.151C825.215 419.7 824.324 419.7 823.775 419.151L818.15 413.526C817.601 412.976 817.601 412.086 818.15 411.537Z" fill="white"/>
<path fill-rule="evenodd" clip-rule="evenodd" d="M800.451 411.537C799.902 410.988 799.012 410.988 798.463 411.537L792.838 417.162C792.288 417.711 792.288 418.601 792.838 419.151C793.387 419.7 794.277 419.7 794.826 419.151L800.451 413.526C801.001 412.976 801.001 412.086 800.451 411.537Z" fill="white"/>
</g>
<g opacity="0.5">
<rect x="880.5" y="383" width="90" height="90" rx="45" fill="white" fill-opacity="0.05"/>
<rect x="880.95" y="383.45" width="89.1" height="89.1" rx="44.55" stroke="white" stroke-opacity="0.2" stroke-width="0.9"/>
<path d="M917.888 418.1C918.832 418.1 919.739 418.28 920.609 418.64C921.461 419.019 922.21 419.549 922.858 420.231C923.488 420.913 923.997 421.727 924.386 422.674C924.756 423.64 924.941 424.71 924.941 425.884C924.941 427.418 924.737 428.801 924.33 430.032C923.923 431.281 923.367 432.399 922.664 433.384C921.942 434.387 921.09 435.258 920.109 435.997C919.128 436.736 918.064 437.37 916.916 437.9L915.056 436.111C916.296 435.372 917.259 434.567 917.943 433.696C918.61 432.825 919.073 431.793 919.332 430.6C919.073 430.675 918.795 430.742 918.499 430.799C918.203 430.855 917.842 430.884 917.416 430.884C916.453 430.884 915.583 430.742 914.806 430.458C914.01 430.174 913.334 429.757 912.779 429.208C912.205 428.677 911.77 428.015 911.474 427.219C911.159 426.424 911.002 425.515 911.002 424.492C911.002 423.602 911.159 422.769 911.474 421.992C911.77 421.216 912.214 420.534 912.806 419.947C913.38 419.379 914.102 418.924 914.972 418.583C915.824 418.261 916.796 418.1 917.888 418.1ZM934.549 418.1C935.493 418.1 936.4 418.28 937.27 418.64C938.121 419.019 938.871 419.549 939.519 420.231C940.148 420.913 940.657 421.727 941.046 422.674C941.416 423.64 941.602 424.71 941.602 425.884C941.602 427.418 941.398 428.801 940.991 430.032C940.583 431.281 940.028 432.399 939.325 433.384C938.603 434.387 937.751 435.258 936.77 435.997C935.789 436.736 934.724 437.37 933.577 437.9L931.716 436.111C932.957 435.372 933.919 434.567 934.604 433.696C935.271 432.825 935.733 431.793 935.992 430.6C935.733 430.675 935.456 430.742 935.159 430.799C934.863 430.855 934.502 430.884 934.077 430.884C933.114 430.884 932.244 430.742 931.466 430.458C930.67 430.174 929.995 429.757 929.439 429.208C928.865 428.677 928.43 428.015 928.134 427.219C927.82 426.424 927.662 425.515 927.662 424.492C927.662 423.602 927.82 422.769 928.134 421.992C928.43 421.216 928.875 420.534 929.467 419.947C930.041 419.379 930.763 418.924 931.633 418.583C932.485 418.261 933.456 418.1 934.549 418.1Z" fill="white"/>
</g>
<g opacity="0.5">
<rect x="997.5" y="383" width="90" height="90" rx="45" fill="white" fill-opacity="0.05"/>
<rect x="997.95" y="383.45" width="89.1" height="89.1" rx="44.55" stroke="white" stroke-opacity="0.2" stroke-width="0.9"/>
<path d="M1040.93 438.788L1038.91 433.215H1027.74L1025.72 438.788H1022.21L1031.46 413.938H1035.18L1044.44 438.788H1040.93ZM1028.87 430.126H1037.77L1033.3 417.878L1028.87 430.126Z" fill="white"/>
<path d="M1061.31 421.038H1064.39V438.788H1061.31V435.735C1059.77 438.078 1057.54 439.25 1054.61 439.25C1052.13 439.25 1050.01 438.351 1048.26 436.552C1046.51 434.729 1045.64 432.517 1045.64 429.913C1045.64 427.31 1046.51 425.109 1048.26 423.31C1050.01 421.487 1052.13 420.576 1054.61 420.576C1057.54 420.576 1059.77 421.748 1061.31 424.091V421.038ZM1055 436.268C1056.8 436.268 1058.3 435.664 1059.5 434.457C1060.71 433.227 1061.31 431.712 1061.31 429.913C1061.31 428.114 1060.71 426.612 1059.5 425.404C1058.3 424.174 1056.8 423.558 1055 423.558C1053.23 423.558 1051.74 424.174 1050.53 425.404C1049.33 426.612 1048.72 428.114 1048.72 429.913C1048.72 431.712 1049.33 433.227 1050.53 434.457C1051.74 435.664 1053.23 436.268 1055 436.268Z" fill="white"/>
</g>
<g opacity="0.5">
<rect x="1114.5" y="383" width="90" height="90" rx="45" fill="white" fill-opacity="0.05"/>
<rect x="1114.95" y="383.45" width="89.1" height="89.1" rx="44.55" stroke="white" stroke-opacity="0.2" stroke-width="0.9"/>
<path d="M1152.2 441.5L1152.61 436.73H1155.78L1157.68 414.77H1154.51L1154.96 410H1167.5L1167.05 414.77H1163.88L1161.98 436.73H1165.15L1164.74 441.5H1152.2Z" fill="white"/>
</g>
<g opacity="0.5">
<rect x="1231.5" y="383" width="90" height="90" rx="45" fill="white" fill-opacity="0.05"/>
<rect x="1231.95" y="383.45" width="89.1" height="89.1" rx="44.55" stroke="white" stroke-opacity="0.2" stroke-width="0.9"/>
<path fill-rule="evenodd" clip-rule="evenodd" d="M1275.89 442.062C1275.89 441.286 1276.52 440.656 1277.3 440.656H1294.18C1294.95 440.656 1295.58 441.286 1295.58 442.062C1295.58 442.839 1294.95 443.469 1294.18 443.469H1277.3C1276.52 443.469 1275.89 442.839 1275.89 442.062Z" fill="white"/>
<path fill-rule="evenodd" clip-rule="evenodd" d="M1287.88 415.344C1287.33 415.344 1286.8 415.563 1286.41 415.953L1266.15 436.211L1265.17 440.13L1269.09 439.15L1289.35 418.892C1289.54 418.699 1289.69 418.47 1289.8 418.218C1289.9 417.965 1289.96 417.695 1289.96 417.422C1289.96 417.149 1289.9 416.879 1289.8 416.627C1289.69 416.375 1289.54 416.146 1289.35 415.953C1289.16 415.76 1288.93 415.606 1288.67 415.502C1288.42 415.398 1288.15 415.344 1287.88 415.344ZM1284.42 413.964C1285.34 413.047 1286.58 412.531 1287.88 412.531C1288.52 412.531 1289.16 412.658 1289.75 412.904C1290.34 413.149 1290.88 413.51 1291.34 413.964C1291.79 414.418 1292.15 414.957 1292.4 415.55C1292.64 416.144 1292.77 416.78 1292.77 417.422C1292.77 418.064 1292.64 418.7 1292.4 419.294C1292.15 419.887 1291.79 420.426 1291.34 420.881L1270.8 441.414C1270.62 441.594 1270.4 441.722 1270.15 441.784L1263.58 443.427C1263.1 443.547 1262.59 443.406 1262.24 443.057C1261.89 442.708 1261.75 442.201 1261.87 441.721L1263.52 435.151C1263.58 434.903 1263.71 434.678 1263.89 434.497L1284.42 413.964Z" fill="white"/>
</g>
<g opacity="0.5">
<rect x="1348.5" y="383" width="90" height="90" rx="45" fill="white" fill-opacity="0.05"/>
<rect x="1348.95" y="383.45" width="89.1" height="89.1" rx="44.55" stroke="white" stroke-opacity="0.2" stroke-width="0.9"/>
<path fill-rule="evenodd" clip-rule="evenodd" d="M1377.43 416.75C1377.43 414.42 1379.31 412.531 1381.64 412.531H1387.27C1389.6 412.531 1391.49 414.42 1391.49 416.75V439.25C1391.49 441.58 1389.6 443.469 1387.27 443.469H1381.64C1379.31 443.469 1377.43 441.58 1377.43 439.25V416.75ZM1381.64 415.344C1380.87 415.344 1380.24 415.973 1380.24 416.75V439.25C1380.24 440.027 1380.87 440.656 1381.64 440.656H1387.27C1388.05 440.656 1388.68 440.027 1388.68 439.25V416.75C1388.68 415.973 1388.05 415.344 1387.27 415.344H1381.64Z" fill="white"/>
<path fill-rule="evenodd" clip-rule="evenodd" d="M1397.11 428C1397.11 425.67 1399 423.781 1401.33 423.781H1406.96C1409.29 423.781 1411.18 425.67 1411.18 428V439.25C1411.18 441.58 1409.29 443.469 1406.96 443.469H1401.33C1399 443.469 1397.11 441.58 1397.11 439.25V428ZM1401.33 426.594C1400.56 426.594 1399.93 427.223 1399.93 428V439.25C1399.93 440.027 1400.56 440.656 1401.33 440.656H1406.96C1407.73 440.656 1408.36 440.027 1408.36 439.25V428C1408.36 427.223 1407.73 426.594 1406.96 426.594H1401.33Z" fill="white"/>
</g>
<g opacity="0.5">
<rect x="3.59961" y="277" width="90" height="90" rx="45" fill="white" fill-opacity="0.05"/>
<rect x="4.04961" y="277.45" width="89.1" height="89.1" rx="44.55" stroke="white" stroke-opacity="0.2" stroke-width="0.9"/>
<path d="M48.3324 309.625H52.2137V333.25H48.3324V323.024H38.2074V333.25H34.3262V309.625H38.2074V319.311H48.3324V309.625Z" fill="white"/>
<path d="M62.516 323.89C63.581 324.205 64.4435 324.76 65.1035 325.555C65.7785 326.335 66.116 327.28 66.116 328.39C66.116 330.01 65.5685 331.278 64.4735 332.193C63.3935 333.108 62.066 333.565 60.491 333.565C59.261 333.565 58.1585 333.288 57.1835 332.733C56.2235 332.163 55.526 331.33 55.091 330.235L57.746 328.705C58.136 329.92 59.051 330.528 60.491 330.528C61.286 330.528 61.901 330.34 62.336 329.965C62.786 329.575 63.011 329.05 63.011 328.39C63.011 327.745 62.786 327.228 62.336 326.838C61.901 326.448 61.286 326.253 60.491 326.253H59.816L58.6235 324.453L61.7285 320.403H55.5635V317.5H65.4635V320.065L62.516 323.89Z" fill="white"/>
</g>
<g opacity="0.5">
<rect x="120.6" y="277" width="90" height="90" rx="45" fill="white" fill-opacity="0.05"/>
<rect x="121.05" y="277.45" width="89.1" height="89.1" rx="44.55" stroke="white" stroke-opacity="0.2" stroke-width="0.9"/>
<path d="M164.027 332.788L162.006 327.215H150.838L148.817 332.788H145.307L154.561 307.938H158.283L167.537 332.788H164.027ZM151.972 324.126H160.872L156.404 311.878L151.972 324.126Z" fill="white"/>
<path d="M184.409 315.038H187.494V332.788H184.409V329.735C182.873 332.078 180.639 333.25 177.708 333.25C175.226 333.25 173.111 332.351 171.362 330.552C169.613 328.729 168.738 326.517 168.738 323.913C168.738 321.31 169.613 319.109 171.362 317.31C173.111 315.487 175.226 314.576 177.708 314.576C180.639 314.576 182.873 315.748 184.409 318.091V315.038ZM178.098 330.268C179.895 330.268 181.396 329.664 182.601 328.457C183.807 327.227 184.409 325.712 184.409 323.913C184.409 322.114 183.807 320.612 182.601 319.404C181.396 318.174 179.895 317.558 178.098 317.558C176.326 317.558 174.836 318.174 173.631 319.404C172.425 320.612 171.823 322.114 171.823 323.913C171.823 325.712 172.425 327.227 173.631 328.457C174.836 329.664 176.326 330.268 178.098 330.268Z" fill="white"/>
</g>
<g opacity="0.5">
<rect x="237.6" y="277" width="90" height="90" rx="45" fill="white" fill-opacity="0.05"/>
<rect x="238.05" y="277.45" width="89.1" height="89.1" rx="44.55" stroke="white" stroke-opacity="0.2" stroke-width="0.9"/>
<path d="M280.588 324.574C281.195 325.448 281.969 326.17 282.858 326.694C283.747 327.217 284.73 327.528 285.74 327.606C286.751 327.683 287.765 327.526 288.714 327.145C289.663 326.764 290.525 326.167 291.241 325.396L295.48 320.831C296.767 319.396 297.479 317.474 297.463 315.479C297.447 313.485 296.704 311.576 295.394 310.166C294.084 308.755 292.312 307.955 290.46 307.938C288.608 307.92 286.823 308.687 285.491 310.073L283.06 312.675" stroke="white" stroke-width="2.8125" stroke-linecap="round" stroke-linejoin="round"/>
<path d="M286.213 319.426C285.606 318.552 284.832 317.83 283.943 317.306C283.054 316.783 282.071 316.472 281.061 316.394C280.05 316.317 279.036 316.474 278.087 316.855C277.138 317.236 276.276 317.833 275.56 318.604L271.321 323.169C270.034 324.604 269.322 326.526 269.338 328.521C269.354 330.515 270.097 332.424 271.407 333.834C272.717 335.245 274.489 336.045 276.341 336.062C278.193 336.08 279.978 335.313 281.31 333.927L283.726 331.325" stroke="white" stroke-width="2.8125" stroke-linecap="round" stroke-linejoin="round"/>
</g>
<g opacity="0.5">
<rect x="354.6" y="277" width="90" height="90" rx="45" fill="white" fill-opacity="0.05"/>
<rect x="355.05" y="277.45" width="89.1" height="89.1" rx="44.55" stroke="white" stroke-opacity="0.2" stroke-width="0.9"/>
<path d="M407.432 307.938H410.244C411.177 307.938 412.071 308.3 412.73 308.944C413.389 309.589 413.76 310.463 413.76 311.375V335.437C413.76 336.349 413.389 337.224 412.73 337.868C412.071 338.513 411.177 338.875 410.244 338.875H390.557C389.624 338.875 388.73 338.513 388.071 337.868C387.411 337.224 387.041 336.349 387.041 335.437V311.375C387.041 310.463 387.411 309.589 388.071 308.944C388.73 308.3 389.624 307.938 390.557 307.938H393.369" stroke="white" stroke-width="2.8125" stroke-linecap="round" stroke-linejoin="round"/>
<path d="M404.619 305.125H396.182C395.405 305.125 394.775 305.755 394.775 306.531V309.344C394.775 310.12 395.405 310.75 396.182 310.75H404.619C405.396 310.75 406.025 310.12 406.025 309.344V306.531C406.025 305.755 405.396 305.125 404.619 305.125Z" stroke="white" stroke-width="2.8125" stroke-linecap="round" stroke-linejoin="round"/>
</g>
<g opacity="0.5">
<rect x="471.6" y="277" width="90" height="90" rx="45" fill="white" fill-opacity="0.05"/>
<rect x="472.05" y="277.45" width="89.1" height="89.1" rx="44.55" stroke="white" stroke-opacity="0.2" stroke-width="0.9"/>
<path d="M513.182 322L517.725 326.219L532.869 312.156" stroke="white" stroke-width="2.8125" stroke-linecap="round" stroke-linejoin="round"/>
<path d="M531.463 323.406V332.938C531.463 333.766 531.134 334.561 530.548 335.147C529.962 335.733 529.167 336.062 528.338 336.062H506.463C505.634 336.062 504.839 335.733 504.253 335.147C503.667 334.561 503.338 333.766 503.338 332.938V311.063C503.338 310.234 503.667 309.439 504.253 308.853C504.839 308.267 505.634 307.938 506.463 307.938H523.65" stroke="white" stroke-width="2.8125" stroke-linecap="round" stroke-linejoin="round"/>
</g>
<g opacity="0.5">
<rect x="588.6" y="277" width="90" height="90" rx="45" fill="white" fill-opacity="0.05"/>
<rect x="589.05" y="277.45" width="89.1" height="89.1" rx="44.55" stroke="white" stroke-opacity="0.2" stroke-width="0.9"/>
<path fill-rule="evenodd" clip-rule="evenodd" d="M625.436 319.23C625.436 318.454 626.065 317.824 626.842 317.824H641.967C642.744 317.824 643.373 318.454 643.373 319.23C643.373 320.007 642.744 320.637 641.967 320.637H626.842C626.065 320.637 625.436 320.007 625.436 319.23Z" fill="white"/>
<path fill-rule="evenodd" clip-rule="evenodd" d="M625.436 324.904C625.436 324.128 626.065 323.498 626.842 323.498H641.967C642.744 323.498 643.373 324.128 643.373 324.904C643.373 325.681 642.744 326.311 641.967 326.311H626.842C626.065 326.311 625.436 325.681 625.436 324.904Z" fill="white"/>
<path fill-rule="evenodd" clip-rule="evenodd" d="M632.667 312.165C633.439 312.251 633.995 312.946 633.91 313.718L632.019 330.734C631.933 331.506 631.238 332.062 630.466 331.976C629.694 331.89 629.138 331.195 629.224 330.423L631.114 313.407C631.2 312.635 631.895 312.079 632.667 312.165Z" fill="white"/>
<path fill-rule="evenodd" clip-rule="evenodd" d="M638.337 312.165C639.109 312.251 639.665 312.946 639.579 313.718L637.689 330.734C637.603 331.506 636.908 332.062 636.136 331.976C635.364 331.89 634.808 331.195 634.893 330.423L636.784 313.407C636.87 312.635 637.565 312.079 638.337 312.165Z" fill="white"/>
<path fill-rule="evenodd" clip-rule="evenodd" d="M642.838 307.938H625.963C622.856 307.938 620.338 310.456 620.338 313.562V330.438C620.338 333.544 622.856 336.062 625.963 336.062H642.838C645.944 336.062 648.463 333.544 648.463 330.438V313.562C648.463 310.456 645.944 307.938 642.838 307.938ZM625.963 305.125C621.303 305.125 617.525 308.903 617.525 313.562V330.438C617.525 335.097 621.303 338.875 625.963 338.875H642.838C647.498 338.875 651.275 335.097 651.275 330.438V313.562C651.275 308.903 647.498 305.125 642.838 305.125H625.963Z" fill="white"/>
</g>
<g opacity="0.5">
<rect x="705.6" y="277" width="90" height="90" rx="45" fill="white" fill-opacity="0.05"/>
<rect x="706.05" y="277.45" width="89.1" height="89.1" rx="44.55" stroke="white" stroke-opacity="0.2" stroke-width="0.9"/>
<path d="M764.9 305.125H737.9C736.036 305.125 734.525 306.699 734.525 308.641V315.672C734.525 317.614 736.036 319.188 737.9 319.188H764.9C766.764 319.188 768.275 317.614 768.275 315.672V308.641C768.275 306.699 766.764 305.125 764.9 305.125Z" stroke="white" stroke-width="2.8125" stroke-linecap="round" stroke-linejoin="round"/>
<path d="M764.9 324.812H737.9C736.036 324.812 734.525 326.386 734.525 328.328V335.359C734.525 337.301 736.036 338.875 737.9 338.875H764.9C766.764 338.875 768.275 337.301 768.275 335.359V328.328C768.275 326.386 766.764 324.812 764.9 324.812Z" stroke="white" stroke-width="2.8125" stroke-linecap="round" stroke-linejoin="round"/>
<circle cx="741.557" cy="312.156" r="1.40625" fill="white"/>
<circle cx="741.557" cy="331.844" r="1.40625" fill="white"/>
</g>
<g opacity="0.5">
<rect x="822.6" y="277" width="90" height="90" rx="45" fill="white" fill-opacity="0.05"/>
<rect x="823.05" y="277.45" width="89.1" height="89.1" rx="44.55" stroke="white" stroke-opacity="0.2" stroke-width="0.9"/>
<rect x="850.119" y="307.938" width="36.5625" height="28.125" rx="4.21875" stroke="white" stroke-width="2.8125"/>
<circle cx="861.369" cy="317.781" r="2.8125" stroke="white" stroke-width="2.8125"/>
<path d="M859.963 336.062L874.34 323.283C875.21 322.51 876.465 322.352 877.499 322.885L886.682 327.625" stroke="white" stroke-width="2.8125"/>
</g>
<g opacity="0.5">
<rect x="939.6" y="277" width="90" height="90" rx="45" fill="white" fill-opacity="0.05"/>
<rect x="940.05" y="277.45" width="89.1" height="89.1" rx="44.55" stroke="white" stroke-opacity="0.2" stroke-width="0.9"/>
<path d="M988.213 306.531V316.375C988.213 317.928 989.472 319.188 991.025 319.188H996.65" stroke="white" stroke-width="2.8125"/>
<path d="M972.744 309.344C972.744 307.79 974.003 306.531 975.557 306.531H985.4H986.807C988.577 306.531 990.244 307.365 991.307 308.781L996.932 316.281C997.662 317.255 998.057 318.439 998.057 319.656V322V334.656C998.057 336.21 996.797 337.469 995.244 337.469H975.557C974.003 337.469 972.744 336.21 972.744 334.656V309.344Z" stroke="white" stroke-width="2.8125"/>
</g>
<g opacity="0.5">
<rect x="1056.6" y="277" width="90" height="90" rx="45" fill="white" fill-opacity="0.05"/>
<rect x="1057.05" y="277.45" width="89.1" height="89.1" rx="44.55" stroke="white" stroke-opacity="0.2" stroke-width="0.9"/>
<rect x="1089.74" y="306.531" width="25.3125" height="30.9375" rx="7.03125" stroke="white" stroke-width="2.8125"/>
<rect x="1097.48" y="317.078" width="9.84375" height="1.40625" rx="0.703125" stroke="white" stroke-width="1.40625"/>
<rect x="1097.48" y="325.516" width="9.84375" height="1.40625" rx="0.703125" stroke="white" stroke-width="1.40625"/>
</g>
<g opacity="0.5">
<rect x="1173.6" y="277" width="90" height="90" rx="45" fill="white" fill-opacity="0.05"/>
<rect x="1174.05" y="277.45" width="89.1" height="89.1" rx="44.55" stroke="white" stroke-opacity="0.2" stroke-width="0.9"/>
<path fill-rule="evenodd" clip-rule="evenodd" d="M1219.4 319.188C1222.51 319.188 1225.03 316.669 1225.03 313.562C1225.03 310.456 1222.51 307.938 1219.4 307.938C1216.29 307.938 1213.78 310.456 1213.78 313.562C1213.78 316.669 1216.29 319.188 1219.4 319.188ZM1219.4 322C1224.06 322 1227.84 318.222 1227.84 313.562C1227.84 308.903 1224.06 305.125 1219.4 305.125C1214.74 305.125 1210.96 308.903 1210.96 313.562C1210.96 318.222 1214.74 322 1219.4 322Z" fill="white"/>
<path fill-rule="evenodd" clip-rule="evenodd" d="M1219.4 323.406C1212.41 323.406 1206.74 329.073 1206.74 336.062C1206.74 336.839 1206.11 337.469 1205.34 337.469C1204.56 337.469 1203.93 336.839 1203.93 336.062C1203.93 327.519 1210.86 320.594 1219.4 320.594C1227.94 320.594 1234.87 327.519 1234.87 336.062C1234.87 336.839 1234.24 337.469 1233.46 337.469C1232.69 337.469 1232.06 336.839 1232.06 336.062C1232.06 329.073 1226.39 323.406 1219.4 323.406Z" fill="white"/>
</g>
<g opacity="0.5">
<rect x="1290.6" y="277" width="90" height="90" rx="45" fill="white" fill-opacity="0.05"/>
<rect x="1291.05" y="277.45" width="89.1" height="89.1" rx="44.55" stroke="white" stroke-opacity="0.2" stroke-width="0.9"/>
<path fill-rule="evenodd" clip-rule="evenodd" d="M1318.12 307.938C1318.12 305.608 1320.01 303.719 1322.34 303.719H1330.78C1333.11 303.719 1334.99 305.608 1334.99 307.938V316.375C1334.99 318.705 1333.11 320.594 1330.78 320.594H1322.34C1320.01 320.594 1318.12 318.705 1318.12 316.375V307.938ZM1322.34 306.531C1321.56 306.531 1320.93 307.161 1320.93 307.938V316.375C1320.93 317.152 1321.56 317.781 1322.34 317.781H1330.78C1331.55 317.781 1332.18 317.152 1332.18 316.375V307.938C1332.18 307.161 1331.55 306.531 1330.78 306.531H1322.34Z" fill="white"/>
<path fill-rule="evenodd" clip-rule="evenodd" d="M1337.81 307.938C1337.81 305.608 1339.7 303.719 1342.03 303.719H1350.46C1352.79 303.719 1354.68 305.608 1354.68 307.938V316.375C1354.68 318.705 1352.79 320.594 1350.46 320.594H1342.03C1339.7 320.594 1337.81 318.705 1337.81 316.375V307.938ZM1342.03 306.531C1341.25 306.531 1340.62 307.161 1340.62 307.938V316.375C1340.62 317.152 1341.25 317.781 1342.03 317.781H1350.46C1351.24 317.781 1351.87 317.152 1351.87 316.375V307.938C1351.87 307.161 1351.24 306.531 1350.46 306.531H1342.03Z" fill="white"/>
<path fill-rule="evenodd" clip-rule="evenodd" d="M1337.81 327.625C1337.81 325.295 1339.7 323.406 1342.03 323.406H1350.46C1352.79 323.406 1354.68 325.295 1354.68 327.625V336.062C1354.68 338.392 1352.79 340.281 1350.46 340.281H1342.03C1339.7 340.281 1337.81 338.392 1337.81 336.062V327.625ZM1342.03 326.219C1341.25 326.219 1340.62 326.848 1340.62 327.625V336.062C1340.62 336.839 1341.25 337.469 1342.03 337.469H1350.46C1351.24 337.469 1351.87 336.839 1351.87 336.062V327.625C1351.87 326.848 1351.24 326.219 1350.46 326.219H1342.03Z" fill="white"/>
<path fill-rule="evenodd" clip-rule="evenodd" d="M1318.12 327.625C1318.12 325.295 1320.01 323.406 1322.34 323.406H1330.78C1333.11 323.406 1334.99 325.295 1334.99 327.625V336.062C1334.99 338.392 1333.11 340.281 1330.78 340.281H1322.34C1320.01 340.281 1318.12 338.392 1318.12 336.062V327.625ZM1322.34 326.219C1321.56 326.219 1320.93 326.848 1320.93 327.625V336.062C1320.93 336.839 1321.56 337.469 1322.34 337.469H1330.78C1331.55 337.469 1332.18 336.839 1332.18 336.062V327.625C1332.18 326.848 1331.55 326.219 1330.78 326.219H1322.34Z" fill="white"/>
</g>
<g opacity="0.5">
<g clip-path="url(#clip0_7_975)">
<rect x="1407.6" y="277" width="90" height="90" rx="45" fill="white" fill-opacity="0.05"/>
</g>
<rect x="1408.05" y="277.45" width="89.1" height="89.1" rx="44.55" stroke="white" stroke-opacity="0.1" stroke-width="0.9"/>
</g>
<g opacity="0.5">
<g clip-path="url(#clip1_7_975)">
<rect x="-57.5996" y="160" width="90" height="90" rx="45" fill="white" fill-opacity="0.05"/>
</g>
<rect x="-57.1496" y="160.45" width="89.1" height="89.1" rx="44.55" stroke="white" stroke-opacity="0.2" stroke-width="0.9"/>
</g>
<g opacity="0.5">
<rect x="59.4004" y="160" width="90" height="90" rx="45" fill="white" fill-opacity="0.05"/>
<rect x="59.8504" y="160.45" width="89.1" height="89.1" rx="44.55" stroke="white" stroke-opacity="0.2" stroke-width="0.9"/>
<path fill-rule="evenodd" clip-rule="evenodd" d="M105.201 192.344C98.2113 192.344 92.5449 198.01 92.5449 205C92.5449 211.99 98.2113 217.656 105.201 217.656C112.191 217.656 117.857 211.99 117.857 205C117.857 198.01 112.191 192.344 105.201 192.344ZM89.7324 205C89.7324 196.457 96.658 189.531 105.201 189.531C113.744 189.531 120.67 196.457 120.67 205C120.67 213.543 113.744 220.469 105.201 220.469C96.658 220.469 89.7324 213.543 89.7324 205Z" fill="white"/>
<path fill-rule="evenodd" clip-rule="evenodd" d="M105.201 195.156C105.978 195.156 106.607 195.786 106.607 196.562V204.131L111.455 206.555C112.15 206.902 112.431 207.747 112.084 208.441C111.737 209.136 110.892 209.418 110.197 209.07L104.572 206.258C104.096 206.02 103.795 205.533 103.795 205V196.562C103.795 195.786 104.425 195.156 105.201 195.156Z" fill="white"/>
<path fill-rule="evenodd" clip-rule="evenodd" d="M114.051 188.537C114.6 187.988 115.49 187.988 116.039 188.537L121.664 194.162C122.213 194.711 122.213 195.601 121.664 196.151C121.115 196.7 120.225 196.7 119.676 196.151L114.051 190.526C113.501 189.976 113.501 189.086 114.051 188.537Z" fill="white"/>
<path fill-rule="evenodd" clip-rule="evenodd" d="M96.3518 188.537C95.8026 187.988 94.9122 187.988 94.3631 188.537L88.7381 194.162C88.1889 194.711 88.1889 195.601 88.7381 196.151C89.2872 196.7 90.1776 196.7 90.7268 196.151L96.3518 190.526C96.901 189.976 96.901 189.086 96.3518 188.537Z" fill="white"/>
</g>
<g opacity="0.5">
<rect x="176.4" y="160" width="90" height="90" rx="45" fill="white" fill-opacity="0.05"/>
<rect x="176.85" y="160.45" width="89.1" height="89.1" rx="44.55" stroke="white" stroke-opacity="0.2" stroke-width="0.9"/>
<path fill-rule="evenodd" clip-rule="evenodd" d="M207.334 194.047C205.924 192.196 207.245 189.531 209.572 189.531H234.834C237.161 189.531 238.481 192.196 237.072 194.047L226.703 207.671V216.673C226.703 218.817 224.399 220.173 222.524 219.131L219.149 217.256C218.257 216.76 217.703 215.819 217.703 214.798L217.703 207.671L207.334 194.047ZM234.834 192.344H209.572L219.941 205.968C220.313 206.457 220.515 207.056 220.515 207.671V214.798L223.89 216.673V207.671C223.89 207.056 224.092 206.457 224.465 205.968L234.834 192.344Z" fill="white"/>
</g>
<g opacity="0.5">
<rect x="293.4" y="160" width="90" height="90" rx="45" fill="white" fill-opacity="0.05"/>
<rect x="293.85" y="160.45" width="89.1" height="89.1" rx="44.55" stroke="white" stroke-opacity="0.2" stroke-width="0.9"/>
<path fill-rule="evenodd" clip-rule="evenodd" d="M355.7 194.199C356.229 194.768 356.196 195.658 355.627 196.187L340.483 210.249C339.943 210.75 339.108 210.75 338.569 210.249L334.026 206.03C333.456 205.502 333.423 204.612 333.952 204.043C334.48 203.474 335.37 203.441 335.939 203.97L339.526 207.3L353.713 194.126C354.282 193.597 355.172 193.63 355.7 194.199Z" fill="white"/>
<path fill-rule="evenodd" clip-rule="evenodd" d="M339.201 190.938C331.435 190.938 325.139 197.233 325.139 205C325.139 212.767 331.435 219.062 339.201 219.062C346.968 219.062 353.264 212.767 353.264 205C353.264 204.223 353.893 203.594 354.67 203.594C355.447 203.594 356.076 204.223 356.076 205C356.076 214.32 348.521 221.875 339.201 221.875C329.881 221.875 322.326 214.32 322.326 205C322.326 195.68 329.881 188.125 339.201 188.125C341.711 188.125 344.097 188.674 346.242 189.66C346.947 189.984 347.257 190.819 346.932 191.525C346.608 192.23 345.773 192.54 345.067 192.215C343.283 191.395 341.298 190.938 339.201 190.938Z" fill="white"/>
</g>
<g opacity="0.5">
<rect x="410.4" y="160" width="90" height="90" rx="45" fill="white" fill-opacity="0.05"/>
<rect x="410.85" y="160.45" width="89.1" height="89.1" rx="44.55" stroke="white" stroke-opacity="0.2" stroke-width="0.9"/>
<path d="M470.264 204.122L456.967 216.663C455.338 218.199 453.129 219.062 450.825 219.062C448.521 219.062 446.312 218.199 444.683 216.663C443.054 215.127 442.139 213.043 442.139 210.87C442.139 208.698 443.054 206.614 444.683 205.078L457.98 192.537C459.066 191.513 460.539 190.937 462.074 190.938C463.61 190.938 465.083 191.513 466.169 192.537C467.255 193.561 467.865 194.95 467.865 196.399C467.865 197.847 467.255 199.236 466.169 200.261L452.858 212.801C452.315 213.313 451.578 213.601 450.81 213.601C450.042 213.601 449.306 213.313 448.763 212.801C448.22 212.289 447.915 211.595 447.915 210.87C447.915 210.146 448.22 209.452 448.763 208.939L461.047 197.368" stroke="white" stroke-width="2.80941" stroke-linecap="round" stroke-linejoin="round"/>
</g>
<g opacity="0.5">
<rect x="527.4" y="160" width="90" height="90" rx="45" fill="white" fill-opacity="0.05"/>
<rect x="527.85" y="160.45" width="89.1" height="89.1" rx="44.55" stroke="white" stroke-opacity="0.2" stroke-width="0.9"/>
<path fill-rule="evenodd" clip-rule="evenodd" d="M558.39 192.89C559.28 192 560.487 191.5 561.745 191.5H584.655C585.913 191.5 587.12 192 588.01 192.89C588.9 193.78 589.4 194.987 589.4 196.245V222.427C589.4 223.023 589.041 223.56 588.491 223.788C587.941 224.016 587.307 223.89 586.886 223.469L580.772 217.355H561.745C560.487 217.355 559.28 216.855 558.39 215.965C557.5 215.075 557 213.868 557 212.609V196.245C557 194.987 557.5 193.78 558.39 192.89ZM561.745 194.445C561.268 194.445 560.81 194.635 560.473 194.973C560.135 195.31 559.945 195.768 559.945 196.245V212.609C559.945 213.086 560.135 213.544 560.473 213.882C560.81 214.219 561.268 214.409 561.745 214.409H581.382C581.772 214.409 582.147 214.564 582.423 214.84L586.455 218.872V196.245C586.455 195.768 586.265 195.31 585.927 194.973C585.59 194.635 585.132 194.445 584.655 194.445H561.745Z" fill="white"/>
</g>
<g opacity="0.5">
<rect x="644.4" y="160" width="90" height="90" rx="45" fill="white" fill-opacity="0.05"/>
<rect x="644.85" y="160.45" width="89.1" height="89.1" rx="44.55" stroke="white" stroke-opacity="0.2" stroke-width="0.9"/>
<rect x="677.545" y="189.531" width="25.3125" height="30.9375" rx="7.03125" stroke="white" stroke-width="2.8125"/>
<rect x="685.279" y="200.078" width="9.84375" height="1.40625" rx="0.703125" stroke="white" stroke-width="1.40625"/>
<rect x="685.279" y="208.516" width="9.84375" height="1.40625" rx="0.703125" stroke="white" stroke-width="1.40625"/>
</g>
<g opacity="0.5">
<rect x="761.4" y="160" width="90" height="90" rx="45" fill="white" fill-opacity="0.05"/>
<rect x="761.85" y="160.45" width="89.1" height="89.1" rx="44.55" stroke="white" stroke-opacity="0.2" stroke-width="0.9"/>
<path fill-rule="evenodd" clip-rule="evenodd" d="M807.201 202.188C810.308 202.188 812.826 199.669 812.826 196.562C812.826 193.456 810.308 190.938 807.201 190.938C804.095 190.938 801.576 193.456 801.576 196.562C801.576 199.669 804.095 202.188 807.201 202.188ZM807.201 205C811.861 205 815.639 201.222 815.639 196.562C815.639 191.903 811.861 188.125 807.201 188.125C802.541 188.125 798.764 191.903 798.764 196.562C798.764 201.222 802.541 205 807.201 205Z" fill="white"/>
<path fill-rule="evenodd" clip-rule="evenodd" d="M807.201 206.406C800.211 206.406 794.545 212.073 794.545 219.062C794.545 219.839 793.915 220.469 793.139 220.469C792.362 220.469 791.732 219.839 791.732 219.062C791.732 210.519 798.658 203.594 807.201 203.594C815.744 203.594 822.67 210.519 822.67 219.062C822.67 219.839 822.04 220.469 821.264 220.469C820.487 220.469 819.857 219.839 819.857 219.062C819.857 212.073 814.191 206.406 807.201 206.406Z" fill="white"/>
</g>
<g opacity="0.5">
<rect x="878.4" y="160" width="90" height="90" rx="45" fill="white" fill-opacity="0.05"/>
<rect x="878.85" y="160.45" width="89.1" height="89.1" rx="44.55" stroke="white" stroke-opacity="0.2" stroke-width="0.9"/>
<path d="M923.288 192.625H927.169V216.25H923.288V206.024H913.162V216.25H909.281V192.625H913.162V202.311H923.288V192.625Z" fill="white"/>
<path d="M930.136 216.25V213.933L935.514 208.398C936.714 207.138 937.314 206.088 937.314 205.248C937.314 204.633 937.119 204.138 936.729 203.763C936.354 203.388 935.866 203.2 935.266 203.2C934.081 203.2 933.204 203.815 932.634 205.045L930.024 203.515C930.519 202.435 931.231 201.61 932.161 201.04C933.091 200.47 934.111 200.185 935.221 200.185C936.646 200.185 937.869 200.635 938.889 201.535C939.909 202.42 940.419 203.62 940.419 205.135C940.419 206.77 939.556 208.45 937.831 210.175L934.749 213.258H940.666V216.25H930.136Z" fill="white"/>
</g>
<g opacity="0.5">
<rect x="995.4" y="160" width="90" height="90" rx="45" fill="white" fill-opacity="0.05"/>
<rect x="995.85" y="160.45" width="89.1" height="89.1" rx="44.55" stroke="white" stroke-opacity="0.2" stroke-width="0.9"/>
<path d="M1033.1 218.5L1033.51 213.73H1036.68L1038.58 191.77H1035.41L1035.86 187H1048.4L1047.95 191.77H1044.78L1042.88 213.73H1046.05L1045.64 218.5H1033.1Z" fill="white"/>
</g>
<g opacity="0.5">
<rect x="1112.4" y="160" width="90" height="90" rx="45" fill="white" fill-opacity="0.05"/>
<rect x="1112.85" y="160.45" width="89.1" height="89.1" rx="44.55" stroke="white" stroke-opacity="0.2" stroke-width="0.9"/>
<path fill-rule="evenodd" clip-rule="evenodd" d="M1156.4 201.717C1155.58 201.717 1154.92 202.379 1154.92 203.195V216.176C1154.92 216.992 1155.58 217.654 1156.4 217.654H1169.38C1170.2 217.654 1170.86 216.992 1170.86 216.176V203.195C1170.86 202.379 1170.2 201.717 1169.38 201.717H1156.4ZM1152.11 203.195C1152.11 200.825 1154.03 198.904 1156.4 198.904H1169.38C1171.75 198.904 1173.67 200.825 1173.67 203.195V216.176C1173.67 218.546 1171.75 220.467 1169.38 220.467H1156.4C1154.03 220.467 1152.11 218.546 1152.11 216.176V203.195Z" fill="white"/>
<path fill-rule="evenodd" clip-rule="evenodd" d="M1147.02 192.344C1146.63 192.344 1146.26 192.5 1145.98 192.777C1145.7 193.054 1145.54 193.43 1145.54 193.822V206.803C1145.54 207.195 1145.7 207.571 1145.98 207.848C1146.26 208.125 1146.63 208.281 1147.02 208.281H1148.47C1149.24 208.281 1149.87 208.911 1149.87 209.687C1149.87 210.464 1149.24 211.094 1148.47 211.094H1147.02C1145.89 211.094 1144.79 210.642 1143.99 209.837C1143.18 209.032 1142.73 207.941 1142.73 206.803V193.822C1142.73 192.684 1143.18 191.593 1143.99 190.788C1144.79 189.983 1145.89 189.531 1147.02 189.531H1160C1161.14 189.531 1162.23 189.983 1163.04 190.788C1163.84 191.593 1164.29 192.684 1164.29 193.822V195.264C1164.29 196.041 1163.67 196.671 1162.89 196.671C1162.11 196.671 1161.48 196.041 1161.48 195.264V193.822C1161.48 193.43 1161.33 193.054 1161.05 192.777C1160.77 192.5 1160.4 192.344 1160 192.344H1147.02Z" fill="white"/>
</g>
<g opacity="0.5">
<rect x="1229.4" y="160" width="90" height="90" rx="45" fill="white" fill-opacity="0.05"/>
<rect x="1229.85" y="160.45" width="89.1" height="89.1" rx="44.55" stroke="white" stroke-opacity="0.2" stroke-width="0.9"/>
<path fill-rule="evenodd" clip-rule="evenodd" d="M1272.8 194.807C1272.14 194.148 1271.07 194.148 1270.41 194.807L1261.41 203.807C1260.75 204.466 1260.75 205.534 1261.41 206.193L1270.41 215.193C1271.07 215.852 1272.14 215.852 1272.8 215.193C1273.45 214.534 1273.45 213.466 1272.8 212.807L1264.99 205L1272.8 197.193C1273.45 196.534 1273.45 195.466 1272.8 194.807Z" fill="white"/>
<path fill-rule="evenodd" clip-rule="evenodd" d="M1279.41 194.807C1280.07 194.148 1281.14 194.148 1281.8 194.807L1290.8 203.807C1291.45 204.466 1291.45 205.534 1290.8 206.193L1281.8 215.193C1281.14 215.852 1280.07 215.852 1279.41 215.193C1278.75 214.534 1278.75 213.466 1279.41 212.807L1287.22 205L1279.41 197.193C1278.75 196.534 1278.75 195.466 1279.41 194.807Z" fill="white"/>
</g>
<g opacity="0.5">
<rect x="1346.4" y="160" width="90" height="90" rx="45" fill="white" fill-opacity="0.05"/>
<rect x="1346.85" y="160.45" width="89.1" height="89.1" rx="44.55" stroke="white" stroke-opacity="0.2" stroke-width="0.9"/>
<path fill-rule="evenodd" clip-rule="evenodd" d="M1375.33 193.75C1375.33 191.42 1377.21 189.531 1379.54 189.531H1385.17C1387.5 189.531 1389.39 191.42 1389.39 193.75V216.25C1389.39 218.58 1387.5 220.469 1385.17 220.469H1379.54C1377.21 220.469 1375.33 218.58 1375.33 216.25V193.75ZM1379.54 192.344C1378.77 192.344 1378.14 192.973 1378.14 193.75V216.25C1378.14 217.027 1378.77 217.656 1379.54 217.656H1385.17C1385.95 217.656 1386.58 217.027 1386.58 216.25V193.75C1386.58 192.973 1385.95 192.344 1385.17 192.344H1379.54Z" fill="white"/>
<path fill-rule="evenodd" clip-rule="evenodd" d="M1395.01 205C1395.01 202.67 1396.9 200.781 1399.23 200.781H1404.86C1407.19 200.781 1409.08 202.67 1409.08 205V216.25C1409.08 218.58 1407.19 220.469 1404.86 220.469H1399.23C1396.9 220.469 1395.01 218.58 1395.01 216.25V205ZM1399.23 203.594C1398.46 203.594 1397.83 204.223 1397.83 205V216.25C1397.83 217.027 1398.46 217.656 1399.23 217.656H1404.86C1405.63 217.656 1406.26 217.027 1406.26 216.25V205C1406.26 204.223 1405.63 203.594 1404.86 203.594H1399.23Z" fill="white"/>
</g>
<g opacity="0.5">
<g clip-path="url(#clip2_7_975)">
<rect x="-42.2988" y="43" width="90" height="90" rx="45" fill="white" fill-opacity="0.05"/>
</g>
<rect x="-41.8488" y="43.45" width="89.1" height="89.1" rx="44.55" stroke="white" stroke-opacity="0.2" stroke-width="0.9"/>
</g>
<g opacity="0.5">
<rect x="74.7012" y="43" width="90" height="90" rx="45" fill="white" fill-opacity="0.05"/>
<rect x="75.1512" y="43.45" width="89.1" height="89.1" rx="44.55" stroke="white" stroke-opacity="0.2" stroke-width="0.9"/>
<path d="M134.002 71.125H107.002C105.138 71.125 103.627 72.699 103.627 74.6406V81.6719C103.627 83.6135 105.138 85.1875 107.002 85.1875H134.002C135.866 85.1875 137.377 83.6135 137.377 81.6719V74.6406C137.377 72.699 135.866 71.125 134.002 71.125Z" stroke="white" stroke-width="2.8125" stroke-linecap="round" stroke-linejoin="round"/>
<path d="M134.002 90.8125H107.002C105.138 90.8125 103.627 92.3865 103.627 94.3281V101.359C103.627 103.301 105.138 104.875 107.002 104.875H134.002C135.866 104.875 137.377 103.301 137.377 101.359V94.3281C137.377 92.3865 135.866 90.8125 134.002 90.8125Z" stroke="white" stroke-width="2.8125" stroke-linecap="round" stroke-linejoin="round"/>
<circle cx="110.658" cy="78.1562" r="1.40625" fill="white"/>
<circle cx="110.658" cy="97.8438" r="1.40625" fill="white"/>
</g>
<g opacity="0.5">
<rect x="191.701" y="43" width="90" height="90" rx="45" fill="white" fill-opacity="0.05"/>
<rect x="192.151" y="43.45" width="89.1" height="89.1" rx="44.55" stroke="white" stroke-opacity="0.2" stroke-width="0.9"/>
<path fill-rule="evenodd" clip-rule="evenodd" d="M222.033 82.7974C222.033 82.0207 222.663 81.3911 223.439 81.3911H251.564C252.341 81.3911 252.971 82.0207 252.971 82.7974C252.971 83.574 252.341 84.2036 251.564 84.2036H223.439C222.663 84.2036 222.033 83.574 222.033 82.7974Z" fill="white"/>
<path fill-rule="evenodd" clip-rule="evenodd" d="M222.033 93.3442C222.033 92.5676 222.663 91.938 223.439 91.938H251.564C252.341 91.938 252.971 92.5676 252.971 93.3442C252.971 94.1209 252.341 94.7505 251.564 94.7505H223.439C222.663 94.7505 222.033 94.1209 222.033 93.3442Z" fill="white"/>
<path fill-rule="evenodd" clip-rule="evenodd" d="M234.142 70.853C234.914 70.9387 235.47 71.634 235.384 72.4059L231.868 104.047C231.783 104.818 231.087 105.375 230.316 105.289C229.544 105.203 228.987 104.508 229.073 103.736L232.589 72.0953C232.675 71.3234 233.37 70.7672 234.142 70.853ZM244.688 70.853C245.46 70.9387 246.016 71.634 245.93 72.4059L242.414 104.047C242.329 104.818 241.633 105.375 240.861 105.289C240.09 105.203 239.533 104.508 239.619 103.736L243.135 72.0953C243.221 71.3234 243.916 70.7672 244.688 70.853Z" fill="white"/>
</g>
<g opacity="0.5">
<rect x="308.701" y="43" width="90" height="90" rx="45" fill="white" fill-opacity="0.05"/>
<rect x="309.151" y="43.45" width="89.1" height="89.1" rx="44.55" stroke="white" stroke-opacity="0.2" stroke-width="0.9"/>
<rect x="339.033" y="72.5312" width="30.9375" height="30.9375" rx="7.03125" stroke="white" stroke-width="2.8125"/>
<path d="M353.706 92.8295L347.985 87.108C347.276 86.3993 347.778 85.1875 348.78 85.1875H360.223C361.226 85.1875 361.728 86.3993 361.019 87.108L355.297 92.8295C354.858 93.2688 354.146 93.2688 353.706 92.8295Z" fill="white"/>
</g>
<g opacity="0.5">
<rect x="425.701" y="43" width="90" height="90" rx="45" fill="white" fill-opacity="0.05"/>
<rect x="426.151" y="43.45" width="89.1" height="89.1" rx="44.55" stroke="white" stroke-opacity="0.2" stroke-width="0.9"/>
<path fill-rule="evenodd" clip-rule="evenodd" d="M470.096 102.063C470.096 101.286 470.725 100.656 471.502 100.656H488.377C489.154 100.656 489.783 101.286 489.783 102.063C489.783 102.839 489.154 103.469 488.377 103.469H471.502C470.725 103.469 470.096 102.839 470.096 102.063Z" fill="white"/>
<path fill-rule="evenodd" clip-rule="evenodd" d="M482.08 75.344C481.529 75.344 481 75.563 480.61 75.9527L460.352 96.2109L459.372 100.13L463.291 99.1503L483.549 78.8921C483.742 78.6991 483.896 78.47 484 78.2178C484.104 77.9656 484.158 77.6954 484.158 77.4224C484.158 77.1495 484.104 76.8792 484 76.627C483.896 76.3749 483.742 76.1457 483.549 75.9527C483.356 75.7597 483.127 75.6067 482.875 75.5022C482.623 75.3978 482.353 75.344 482.08 75.344ZM478.621 73.964C479.539 73.0468 480.783 72.5315 482.08 72.5315C482.722 72.5315 483.358 72.658 483.951 72.9038C484.545 73.1496 485.084 73.5098 485.538 73.964C485.992 74.4182 486.353 74.9573 486.598 75.5507C486.844 76.1441 486.971 76.7801 486.971 77.4224C486.971 78.0647 486.844 78.7007 486.598 79.2941C486.353 79.8875 485.992 80.4267 485.538 80.8808L465.005 101.414C464.824 101.595 464.599 101.723 464.351 101.784L457.781 103.427C457.301 103.547 456.794 103.406 456.445 103.057C456.096 102.708 455.955 102.201 456.075 101.722L457.718 95.1509C457.78 94.9037 457.908 94.6778 458.088 94.4976L478.621 73.964Z" fill="white"/>
</g>
<g opacity="0.5">
<rect x="542.701" y="43" width="90" height="90" rx="45" fill="white" fill-opacity="0.05"/>
<rect x="543.151" y="43.45" width="89.1" height="89.1" rx="44.55" stroke="white" stroke-opacity="0.2" stroke-width="0.9"/>
<path fill-rule="evenodd" clip-rule="evenodd" d="M582.324 79.0054C582.324 78.0791 583.075 77.3281 584.002 77.3281H599.752C600.678 77.3281 601.429 78.0791 601.429 79.0054C601.429 79.9318 600.678 80.6827 599.752 80.6827H584.002C583.075 80.6827 582.324 79.9318 582.324 79.0054Z" fill="white"/>
<path fill-rule="evenodd" clip-rule="evenodd" d="M581.822 87.9488C581.822 87.0224 582.573 86.2715 583.5 86.2715H599.75C600.676 86.2715 601.427 87.0224 601.427 87.9488C601.427 88.8751 600.676 89.6261 599.75 89.6261H583.5C582.573 89.6261 581.822 88.8751 581.822 87.9488Z" fill="white"/>
<path fill-rule="evenodd" clip-rule="evenodd" d="M581.822 96.8785C581.822 95.9521 582.573 95.2012 583.5 95.2012H599.75C600.676 95.2012 601.427 95.9521 601.427 96.8785C601.427 97.8048 600.676 98.5558 599.75 98.5558H583.5C582.573 98.5558 581.822 97.8048 581.822 96.8785Z" fill="white"/>
<path d="M575.386 83.0508H577.006V92.5008H575.143V85.0218L573.361 85.5213L572.902 83.9283L575.386 83.0508Z" fill="white"/>
</g>
<g opacity="0.5">
<rect x="659.701" y="43" width="90" height="90" rx="45" fill="white" fill-opacity="0.05"/>
<rect x="660.151" y="43.45" width="89.1" height="89.1" rx="44.55" stroke="white" stroke-opacity="0.2" stroke-width="0.9"/>
<path d="M705.31 102.937C702.553 102.937 700.205 102.309 698.267 101.053C696.356 99.7972 695.018 98.0773 694.254 95.8933L698.308 93.5182C699.455 96.7396 701.83 98.3503 705.433 98.3503C707.208 98.3503 708.532 98.0091 709.405 97.3266C710.306 96.6168 710.757 95.7022 710.757 94.5829C710.757 93.409 710.279 92.5218 709.324 91.9212C708.368 91.2933 706.675 90.6108 704.246 89.8737C702.881 89.4642 701.775 89.082 700.929 88.7271C700.082 88.3722 699.182 87.8808 698.226 87.2529C697.298 86.5977 696.602 85.7923 696.138 84.8368C695.674 83.8813 695.441 82.762 695.441 81.4789C695.441 78.94 696.342 76.9335 698.144 75.4593C699.946 73.9578 702.116 73.207 704.655 73.207C706.948 73.207 708.955 73.7667 710.675 74.886C712.395 76.0053 713.719 77.5477 714.647 79.5133L710.675 81.8065C709.474 79.1311 707.467 77.7934 704.655 77.7934C703.29 77.7934 702.198 78.121 701.379 78.7762C700.56 79.4041 700.151 80.2641 700.151 81.3561C700.151 82.4208 700.56 83.2671 701.379 83.895C702.226 84.4956 703.741 85.1371 705.925 85.8196C707.017 86.1745 707.808 86.4475 708.3 86.6386C708.818 86.8024 709.528 87.0754 710.429 87.4576C711.357 87.8398 712.054 88.222 712.518 88.6042C712.982 88.9864 713.473 89.4642 713.992 90.0375C714.538 90.6108 714.92 91.266 715.138 92.0031C715.357 92.7402 715.466 93.5728 715.466 94.501C715.466 97.0945 714.524 99.1557 712.64 100.684C710.784 102.186 708.341 102.937 705.31 102.937Z" fill="white"/>
<rect x="692.9" y="86.6504" width="25.2" height="3.15" rx="1.575" fill="white"/>
<rect x="692.113" y="85.8629" width="26.775" height="4.725" rx="2.3625" stroke="white" stroke-opacity="0.05" stroke-width="1.575"/>
</g>
<g opacity="0.5">
<rect x="776.701" y="43" width="90" height="90" rx="45" fill="white" fill-opacity="0.05"/>
<rect x="777.151" y="43.45" width="89.1" height="89.1" rx="44.55" stroke="white" stroke-opacity="0.2" stroke-width="0.9"/>
<path d="M828.303 85.5197C830.276 86.6565 831.263 88.3725 831.263 90.6677C831.263 92.5767 830.587 94.1426 829.236 95.3652C827.885 96.5879 826.222 97.1992 824.249 97.1992H814.693V74.6767H823.573C825.504 74.6767 827.123 75.2773 828.432 76.4785C829.762 77.6583 830.427 79.1705 830.427 81.0152C830.427 82.8813 829.719 84.3828 828.303 85.5197ZM823.573 78.8273H819.133V83.7822H823.573C824.26 83.7822 824.828 83.5463 825.279 83.0744C825.75 82.6025 825.986 82.0126 825.986 81.3048C825.986 80.5969 825.761 80.007 825.311 79.5351C824.86 79.0632 824.281 78.8273 823.573 78.8273ZM824.249 93.0486C825 93.0486 825.622 92.802 826.115 92.3086C826.608 91.7938 826.855 91.1503 826.855 90.3781C826.855 89.6274 826.608 89.0053 826.115 88.512C825.622 87.9972 825 87.7398 824.249 87.7398H819.133V93.0486H824.249Z" fill="white"/>
<rect x="812.602" y="102.85" width="19.8" height="2.475" rx="1.2375" fill="white"/>
</g>
<g opacity="0.5">
<rect x="893.701" y="43" width="90" height="90" rx="45" fill="white" fill-opacity="0.05"/>
<rect x="894.151" y="43.45" width="89.1" height="89.1" rx="44.55" stroke="white" stroke-opacity="0.2" stroke-width="0.9"/>
<path d="M939.502 101.125C946.751 101.125 952.627 95.2487 952.627 88C952.627 80.7513 946.751 74.875 939.502 74.875C932.253 74.875 926.377 80.7513 926.377 88C926.377 95.2487 932.253 101.125 939.502 101.125Z" stroke="white" stroke-width="2.8125" stroke-linecap="round" stroke-linejoin="round"/>
<path d="M926.377 88H952.627" stroke="white" stroke-width="2.8125" stroke-linecap="round" stroke-linejoin="round"/>
<path d="M939.502 74.875C942.785 78.4691 944.651 83.1333 944.752 88C944.651 92.8667 942.785 97.5309 939.502 101.125C936.22 97.5309 934.354 92.8667 934.252 88C934.354 83.1333 936.22 78.4691 939.502 74.875V74.875Z" stroke="white" stroke-width="2.8125" stroke-linecap="round" stroke-linejoin="round"/>
</g>
<g opacity="0.5">
<rect x="1010.7" y="43" width="90" height="90" rx="45" fill="white" fill-opacity="0.05"/>
<rect x="1011.15" y="43.45" width="89.1" height="89.1" rx="44.55" stroke="white" stroke-opacity="0.2" stroke-width="0.9"/>
<path d="M1055.43 75.625H1059.32V99.25H1055.43V89.0238H1045.31V99.25H1041.43V75.625H1045.31V85.3113H1055.43V75.625Z" fill="white"/>
<path d="M1069.62 89.89C1070.68 90.205 1071.55 90.76 1072.21 91.555C1072.88 92.335 1073.22 93.28 1073.22 94.39C1073.22 96.01 1072.67 97.2775 1071.58 98.1925C1070.5 99.1075 1069.17 99.565 1067.59 99.565C1066.36 99.565 1065.26 99.2875 1064.29 98.7325C1063.33 98.1625 1062.63 97.33 1062.19 96.235L1064.85 94.705C1065.24 95.92 1066.15 96.5275 1067.59 96.5275C1068.39 96.5275 1069 96.34 1069.44 95.965C1069.89 95.575 1070.11 95.05 1070.11 94.39C1070.11 93.745 1069.89 93.2275 1069.44 92.8375C1069 92.4475 1068.39 92.2525 1067.59 92.2525H1066.92L1065.73 90.4525L1068.83 86.4025H1062.67V83.5H1072.57V86.065L1069.62 89.89Z" fill="white"/>
</g>
<g opacity="0.5">
<rect x="1127.7" y="43" width="90" height="90" rx="45" fill="white" fill-opacity="0.05"/>
<rect x="1128.15" y="43.45" width="89.1" height="89.1" rx="44.55" stroke="white" stroke-opacity="0.2" stroke-width="0.9"/>
<path d="M1174.22 75.6252H1178.1V99.2502H1174.22V89.024H1164.09V99.2502H1160.21V75.6252H1164.09V85.3115H1174.22V75.6252Z" fill="white"/>
<path d="M1184.84 83.5002H1187.54V99.2502H1184.44V86.7852L1181.47 87.6177L1180.7 84.9627L1184.84 83.5002Z" fill="white"/>
</g>
<g opacity="0.5">
<rect x="1244.7" y="43" width="90" height="90" rx="45" fill="white" fill-opacity="0.05"/>
<rect x="1245.15" y="43.45" width="89.1" height="89.1" rx="44.55" stroke="white" stroke-opacity="0.2" stroke-width="0.9"/>
<path fill-rule="evenodd" clip-rule="evenodd" d="M1275.03 82.7974C1275.03 82.0207 1275.66 81.3911 1276.44 81.3911H1304.56C1305.34 81.3911 1305.97 82.0207 1305.97 82.7974C1305.97 83.574 1305.34 84.2036 1304.56 84.2036H1276.44C1275.66 84.2036 1275.03 83.574 1275.03 82.7974Z" fill="white"/>
<path fill-rule="evenodd" clip-rule="evenodd" d="M1275.03 93.3442C1275.03 92.5676 1275.66 91.938 1276.44 91.938H1304.56C1305.34 91.938 1305.97 92.5676 1305.97 93.3442C1305.97 94.1209 1305.34 94.7505 1304.56 94.7505H1276.44C1275.66 94.7505 1275.03 94.1209 1275.03 93.3442Z" fill="white"/>
<path fill-rule="evenodd" clip-rule="evenodd" d="M1287.14 70.853C1287.91 70.9387 1288.47 71.634 1288.38 72.4059L1284.87 104.047C1284.78 104.818 1284.09 105.375 1283.32 105.289C1282.54 105.203 1281.99 104.508 1282.07 103.736L1285.59 72.0953C1285.67 71.3234 1286.37 70.7672 1287.14 70.853ZM1297.69 70.853C1298.46 70.9387 1299.02 71.634 1298.93 72.4059L1295.41 104.047C1295.33 104.818 1294.63 105.375 1293.86 105.289C1293.09 105.203 1292.53 104.508 1292.62 103.736L1296.13 72.0953C1296.22 71.3234 1296.92 70.7672 1297.69 70.853Z" fill="white"/>
</g>
<g opacity="0.5">
<rect x="1361.7" y="43" width="90" height="90" rx="45" fill="white" fill-opacity="0.05"/>
<rect x="1362.15" y="43.45" width="89.1" height="89.1" rx="44.55" stroke="white" stroke-opacity="0.2" stroke-width="0.9"/>
<path fill-rule="evenodd" clip-rule="evenodd" d="M1398.54 85.2307C1398.54 84.4541 1399.17 83.8245 1399.94 83.8245H1415.07C1415.84 83.8245 1416.47 84.4541 1416.47 85.2307C1416.47 86.0074 1415.84 86.637 1415.07 86.637H1399.94C1399.17 86.637 1398.54 86.0074 1398.54 85.2307Z" fill="white"/>
<path fill-rule="evenodd" clip-rule="evenodd" d="M1398.54 90.9043C1398.54 90.1276 1399.17 89.498 1399.94 89.498H1415.07C1415.84 89.498 1416.47 90.1276 1416.47 90.9043C1416.47 91.6809 1415.84 92.3105 1415.07 92.3105H1399.94C1399.17 92.3105 1398.54 91.6809 1398.54 90.9043Z" fill="white"/>
<path fill-rule="evenodd" clip-rule="evenodd" d="M1405.77 78.1655C1406.54 78.2512 1407.1 78.9465 1407.01 79.7184L1405.12 96.7342C1405.03 97.5061 1404.34 98.0623 1403.57 97.9765C1402.8 97.8908 1402.24 97.1955 1402.32 96.4236L1404.22 79.4078C1404.3 78.6359 1405 78.0797 1405.77 78.1655Z" fill="white"/>
<path fill-rule="evenodd" clip-rule="evenodd" d="M1411.44 78.1652C1412.21 78.251 1412.77 78.9463 1412.68 79.7182L1410.79 96.7339C1410.7 97.5058 1410.01 98.062 1409.24 97.9763C1408.47 97.8905 1407.91 97.1952 1407.99 96.4233L1409.89 79.4076C1409.97 78.6357 1410.67 78.0795 1411.44 78.1652Z" fill="white"/>
<path fill-rule="evenodd" clip-rule="evenodd" d="M1415.94 73.9377H1399.06C1395.96 73.9377 1393.44 76.4561 1393.44 79.5627V96.4377C1393.44 99.5443 1395.96 102.063 1399.06 102.063H1415.94C1419.05 102.063 1421.56 99.5443 1421.56 96.4377V79.5627C1421.56 76.4561 1419.05 73.9377 1415.94 73.9377ZM1399.06 71.1252C1394.4 71.1252 1390.63 74.9028 1390.63 79.5627V96.4377C1390.63 101.098 1394.4 104.875 1399.06 104.875H1415.94C1420.6 104.875 1424.38 101.098 1424.38 96.4377V79.5627C1424.38 74.9028 1420.6 71.1252 1415.94 71.1252H1399.06Z" fill="white"/>
</g>
</g>
<g opacity="0.3" filter="url(#filter0_f_7_975)">
<ellipse cx="720" cy="753" rx="1030" ry="515" fill="#8A2CE7"/>
</g>
</g>
<defs>
<filter id="filter0_f_7_975" x="-810" y="-262" width="3060" height="2030" filterUnits="userSpaceOnUse" color-interpolation-filters="sRGB">
<feFlood flood-opacity="0" result="BackgroundImageFix"/>
<feBlend mode="normal" in="SourceGraphic" in2="BackgroundImageFix" result="shape"/>
<feGaussianBlur stdDeviation="250" result="effect1_foregroundBlur_7_975"/>
</filter>
<clipPath id="clip0_7_975">
<rect x="1407.6" y="277" width="90" height="90" rx="45" fill="white"/>
</clipPath>
<clipPath id="clip1_7_975">
<rect x="-57.5996" y="160" width="90" height="90" rx="45" fill="white"/>
</clipPath>
<clipPath id="clip2_7_975">
<rect x="-42.2988" y="43" width="90" height="90" rx="45" fill="white"/>
</clipPath>
</defs>
</svg>
