<svg preserveAspectRatio="none" overflow="visible" style="display: block;" width="136" height="32" viewBox="0 0 136 32" fill="none" xmlns="http://www.w3.org/2000/svg">
<g id="Brand">
<path id="Nokia" d="M45.8574 0.459805C37.077 0.459805 30.2639 6.85049 30.2639 16C30.2639 25.5615 37.0766 31.5406 45.8574 31.5402C54.6382 31.5398 61.465 25.5611 61.4509 16C61.4381 7.33117 54.6382 0.459805 45.8574 0.459805ZM45.8574 4.7382C51.9846 4.7382 56.9517 9.3499 56.9517 16C56.9517 22.7734 51.9846 27.2622 45.8574 27.2622C39.7302 27.2622 34.7631 22.773 34.7631 16C34.7631 9.3495 39.7302 4.7382 45.8574 4.7382ZM94.0114 0.973019V31.0266H98.5186V0.973019H94.0114ZM81.5686 0.973019L64.841 15.9996L81.5686 31.0266H88.2757L71.5228 15.9996L88.2757 0.973019H81.5686ZM119.205 0L116.758 4.51854L125.057 19.9342H108.413L102.409 31.027H107.367L110.994 24.3717H127.416L131.042 31.027H136L119.205 0ZM0 0V31.027H4.60003V10.5225L28.5038 32V25.5672L0 0Z" fill="#140F28"/>
</g>
</svg>
