<svg preserveAspectRatio="none" overflow="visible" style="display: block;" width="152" height="28" viewBox="0 0 152 28" fill="none" xmlns="http://www.w3.org/2000/svg">
<g id="Logo / NVIDIA">
<path id="NVIDIA" d="M42.3525 0V28H15.8027V24.7188C16.3744 24.7767 16.948 24.8067 17.5225 24.8086C23.668 24.8085 34.507 21.673 39.1582 17.7842C38.4761 17.0924 35.155 15.513 34.3438 14.8643C29.4521 19.083 24.4006 22.6464 17.416 22.6465C16.8565 22.6465 16.3201 22.6074 15.8027 22.542V20.207C16.4071 20.3145 17.0517 20.3779 17.7393 20.3779C25.2462 20.3779 32.4512 11.624 32.4512 11.624C32.4256 11.5905 26.1572 3.41159 16.5488 3.73438C16.2992 3.74372 16.0505 3.75968 15.8027 3.7793V5.82715C8.15643 6.40953 4.32715 12.0557 4.32715 12.0557C4.34431 12.1106 7.27955 21.4711 15.8027 22.542V24.7168C4.15362 23.6184 0 11.6221 0 11.6221C0.0443825 11.5788 7.35971 4.45488 15.8027 3.77734V0H42.3525ZM150.315 20.9971C151.203 20.9971 152 21.5908 152 22.6143C152 23.6379 151.202 24.2344 150.315 24.2344C149.422 24.2344 148.627 23.6379 148.627 22.6143C148.627 21.5908 149.422 20.9971 150.315 20.9971ZM150.315 21.3701C149.649 21.3701 149.109 21.8693 149.109 22.6143C149.109 23.3602 149.648 23.8611 150.315 23.8555V23.8613C150.964 23.8613 151.513 23.3602 151.513 22.6143C151.513 21.8693 150.965 21.3701 150.315 21.3701ZM58.6367 5.2666C63.1663 5.2666 67.7959 6.24503 67.7959 13.502V23.6699H62.7178V15.2773C62.7178 12.6963 62.383 11.2861 61.5605 10.4111C60.9121 9.72046 59.9831 9.39845 58.6387 9.39844L54.5498 9.38477V23.6699H49.3076V5.26758L49.3086 5.2666H58.6367ZM82.0068 23.6699H74.5186L68.5869 5.29199L74.1943 5.29297L78.3486 19.8564L82.6846 5.29199H87.9873L82.0068 23.6699ZM95.3711 23.6699H90.1768L90.1748 5.29102H95.3711V23.6699ZM105.83 5.29199C109.97 5.29199 112.743 5.7943 114.668 8.36035C115.736 9.79529 116.349 12.0998 116.349 14.6826C116.349 17.4989 115.626 20.0767 114.505 21.251C112.921 22.9233 111.455 23.6699 106.966 23.6699H98.5391V5.29199H105.83ZM123.963 5.29297V23.6699H118.767L118.765 5.29199L123.963 5.29297ZM147.579 23.6631H142.018L140.931 20.418H132.346L131.198 23.6631H126.075L133.329 5.29883L140.27 5.29785L147.579 23.6631ZM150.324 21.7402C150.79 21.7403 151.065 21.8695 151.065 22.2686C151.065 22.5901 150.869 22.7029 150.631 22.7207L151.093 23.4834H150.635L150.216 22.751H150.037V23.4834H149.649V21.7402H150.324ZM150.037 22.4561H150.376C150.55 22.4561 150.653 22.4219 150.653 22.2275C150.653 22.0481 150.453 22.0371 150.306 22.0371H150.037V22.4561ZM15.8027 10.543L15.792 10.542C13.1031 10.2196 10.9999 12.7134 10.9766 12.7412C10.9766 12.7412 12.1602 16.9892 15.8027 18.2119V20.207C9.34192 19.0572 7.54785 12.3457 7.54785 12.3457C7.56377 12.3281 10.6642 8.91025 15.8027 8.35547V10.543ZM103.693 19.7471H105.927C109.167 19.747 111.263 18.2933 111.263 14.5195C111.263 10.7479 109.167 9.29303 105.927 9.29297H103.693V19.7471ZM16.5488 5.78711C23.4412 5.57122 27.9744 11.6758 28.0156 11.7314C28.0156 11.7314 23.109 18.5391 17.8486 18.5391C17.1536 18.5418 16.4623 18.4315 15.8027 18.2119V10.543C18.4972 10.8683 19.0397 12.0573 20.6602 14.7568L24.2646 11.7207C24.2583 11.7124 21.628 8.27344 17.1982 8.27344C16.7166 8.27345 16.2554 8.30688 15.8027 8.35547V5.82715C16.0477 5.80847 16.2964 5.79552 16.5488 5.78711ZM133.456 17.2539H139.85L136.702 8.65039L133.456 17.2539Z" fill="#140F28"/>
</g>
</svg>
