<svg width="1600" height="100" viewBox="0 0 1600 100" fill="none" xmlns="http://www.w3.org/2000/svg">
<g opacity="0.7">
<rect x="-22" width="100" height="100" rx="50" fill="#1C1C1E"/>
<path fill-rule="evenodd" clip-rule="evenodd" d="M18.0391 46.9219C18.0391 46.0589 18.7386 45.3594 19.6016 45.3594H36.4073C37.2702 45.3594 37.9698 46.0589 37.9698 46.9219C37.9698 47.7848 37.2702 48.4844 36.4073 48.4844H19.6016C18.7386 48.4844 18.0391 47.7848 18.0391 46.9219Z" fill="#FFBD00"/>
<path fill-rule="evenodd" clip-rule="evenodd" d="M18.0391 53.2266C18.0391 52.3636 18.7386 51.6641 19.6016 51.6641H36.4073C37.2702 51.6641 37.9698 52.3636 37.9698 53.2266C37.9698 54.0895 37.2702 54.7891 36.4073 54.7891H19.6016C18.7386 54.7891 18.0391 54.0895 18.0391 53.2266Z" fill="#FFBD00"/>
<path fill-rule="evenodd" clip-rule="evenodd" d="M26.0742 39.0722C26.9318 39.1675 27.5499 39.94 27.4546 40.7977L25.3539 59.7041C25.2586 60.5618 24.486 61.1798 23.6284 61.0845C22.7707 60.9892 22.1527 60.2167 22.248 59.359L24.3487 40.4526C24.444 39.5949 25.2165 38.9769 26.0742 39.0722Z" fill="#FFBD00"/>
<path fill-rule="evenodd" clip-rule="evenodd" d="M32.375 39.0722C33.2326 39.1675 33.8507 39.94 33.7554 40.7977L31.6546 59.7041C31.5593 60.5618 30.7868 61.1798 29.9292 61.0845C29.0715 60.9892 28.4535 60.2167 28.5488 59.359L30.6495 40.4526C30.7448 39.5949 31.5173 38.9769 32.375 39.0722Z" fill="#FFBD00"/>
<path fill-rule="evenodd" clip-rule="evenodd" d="M37.375 34.375H18.625C15.1732 34.375 12.375 37.1732 12.375 40.625V59.375C12.375 62.8268 15.1732 65.625 18.625 65.625H37.375C40.8268 65.625 43.625 62.8268 43.625 59.375V40.625C43.625 37.1732 40.8268 34.375 37.375 34.375ZM18.625 31.25C13.4473 31.25 9.25 35.4473 9.25 40.625V59.375C9.25 64.5527 13.4473 68.75 18.625 68.75H37.375C42.5527 68.75 46.75 64.5527 46.75 59.375V40.625C46.75 35.4473 42.5527 31.25 37.375 31.25H18.625Z" fill="#FFBD00"/>
<rect x="-21.5" y="0.5" width="99" height="99" rx="49.5" stroke="#FFCE00" stroke-opacity="0.2"/>
</g>
<g opacity="0.7">
<rect x="108" width="100" height="100" rx="50" fill="#1C1C1E"/>
<path d="M173 31.25H143C140.929 31.25 139.25 32.9989 139.25 35.1562V42.9688C139.25 45.1261 140.929 46.875 143 46.875H173C175.071 46.875 176.75 45.1261 176.75 42.9688V35.1562C176.75 32.9989 175.071 31.25 173 31.25Z" stroke="#9327FF" stroke-width="3.125" stroke-linecap="round" stroke-linejoin="round"/>
<path d="M173 53.125H143C140.929 53.125 139.25 54.8739 139.25 57.0312V64.8438C139.25 67.0011 140.929 68.75 143 68.75H173C175.071 68.75 176.75 67.0011 176.75 64.8438V57.0312C176.75 54.8739 175.071 53.125 173 53.125Z" stroke="#9327FF" stroke-width="3.125" stroke-linecap="round" stroke-linejoin="round"/>
<circle cx="147.062" cy="39.0625" r="1.5625" fill="#9327FF"/>
<circle cx="147.062" cy="60.9375" r="1.5625" fill="#9327FF"/>
<rect x="108.5" y="0.5" width="99" height="99" rx="49.5" stroke="#9327FF" stroke-opacity="0.2"/>
</g>
<g opacity="0.7">
<rect x="238" width="100" height="100" rx="50" fill="#1C1C1E"/>
<path fill-rule="evenodd" clip-rule="evenodd" d="M270.812 44.2188C270.812 43.3558 271.512 42.6562 272.375 42.6562H303.625C304.488 42.6562 305.188 43.3558 305.188 44.2188C305.188 45.0817 304.488 45.7812 303.625 45.7812H272.375C271.512 45.7812 270.812 45.0817 270.812 44.2188Z" fill="#FB006D"/>
<path fill-rule="evenodd" clip-rule="evenodd" d="M270.812 55.9375C270.812 55.0746 271.512 54.375 272.375 54.375H303.625C304.488 54.375 305.188 55.0746 305.188 55.9375C305.188 56.8004 304.488 57.5 303.625 57.5H272.375C271.512 57.5 270.812 56.8004 270.812 55.9375Z" fill="#FB006D"/>
<path fill-rule="evenodd" clip-rule="evenodd" d="M284.266 30.9472C285.124 31.0425 285.742 31.815 285.647 32.6727L281.741 67.8289C281.645 68.6866 280.873 69.3046 280.015 69.2093C279.157 69.114 278.539 68.3415 278.635 67.4838L282.541 32.3276C282.636 31.4699 283.409 30.8519 284.266 30.9472ZM295.984 30.9472C296.842 31.0425 297.46 31.815 297.365 32.6727L293.458 67.8289C293.363 68.6866 292.59 69.3046 291.733 69.2093C290.875 69.114 290.257 68.3415 290.352 67.4838L294.259 32.3276C294.354 31.4699 295.126 30.8519 295.984 30.9472Z" fill="#FB006D"/>
<rect x="238.5" y="0.5" width="99" height="99" rx="49.5" stroke="#FB006D" stroke-opacity="0.2"/>
</g>
<g opacity="0.7">
<rect x="368" width="100" height="100" rx="50" fill="#1C1C1E"/>
<rect x="400.812" y="32.8125" width="34.375" height="34.375" rx="7.8125" stroke="#00B5FF" stroke-width="3.125"/>
<path d="M417.116 55.3661L410.759 49.0089C409.971 48.2214 410.529 46.875 411.643 46.875H424.357C425.471 46.875 426.029 48.2214 425.241 49.0089L418.884 55.3661C418.396 55.8543 417.604 55.8543 417.116 55.3661Z" fill="#00B5FF"/>
<rect x="368.5" y="0.5" width="99" height="99" rx="49.5" stroke="#00C8FF" stroke-opacity="0.2"/>
</g>
<g opacity="0.7">
<rect x="498" width="100" height="100" rx="50" fill="#1C1C1E"/>
<path fill-rule="evenodd" clip-rule="evenodd" d="M546.438 65.625C546.438 64.7621 547.137 64.0625 548 64.0625H566.75C567.613 64.0625 568.312 64.7621 568.312 65.625C568.312 66.4879 567.613 67.1875 566.75 67.1875H548C547.137 67.1875 546.438 66.4879 546.438 65.625Z" fill="#FB006D"/>
<path fill-rule="evenodd" clip-rule="evenodd" d="M559.753 35.9375C559.141 35.9375 558.553 36.1808 558.12 36.6139L535.611 59.123L534.522 63.4776L538.877 62.3889L561.386 39.8798C561.601 39.6654 561.771 39.4108 561.887 39.1306C562.003 38.8504 562.063 38.5501 562.063 38.2469C562.063 37.9436 562.003 37.6433 561.887 37.3631C561.771 37.0829 561.601 36.8283 561.386 36.6139C561.172 36.3995 560.917 36.2293 560.637 36.1133C560.357 35.9972 560.056 35.9375 559.753 35.9375ZM555.911 34.4042C556.93 33.385 558.312 32.8125 559.753 32.8125C560.467 32.8125 561.173 32.9531 561.833 33.2262C562.492 33.4993 563.091 33.8996 563.596 34.4042C564.1 34.9088 564.501 35.5079 564.774 36.1672C565.047 36.8265 565.188 37.5332 565.188 38.2469C565.188 38.9605 565.047 39.6672 564.774 40.3265C564.501 40.9858 564.1 41.5849 563.596 42.0895L540.781 64.9046C540.58 65.1049 540.33 65.247 540.055 65.3156L532.754 67.1409C532.222 67.274 531.658 67.118 531.27 66.7299C530.882 66.3418 530.726 65.7785 530.859 65.246L532.684 57.9452C532.753 57.6705 532.895 57.4196 533.095 57.2193L555.911 34.4042Z" fill="#FB006D"/>
<rect x="498.5" y="0.5" width="99" height="99" rx="49.5" stroke="#FB006D" stroke-opacity="0.2"/>
</g>
<g opacity="0.7">
<rect x="628" width="100" height="100" rx="50" fill="#1C1C1E"/>
<path fill-rule="evenodd" clip-rule="evenodd" d="M671.137 40.0043C671.137 38.975 671.971 38.1406 673 38.1406L690.5 38.1406C691.53 38.1406 692.364 38.975 692.364 40.0043C692.364 41.0336 691.53 41.8679 690.5 41.8679L673 41.8679C671.971 41.8679 671.137 41.0336 671.137 40.0043Z" fill="#9327FF"/>
<path fill-rule="evenodd" clip-rule="evenodd" d="M670.578 49.9418C670.578 48.9125 671.413 48.0781 672.442 48.0781H690.497C691.527 48.0781 692.361 48.9125 692.361 49.9418C692.361 50.9711 691.527 51.8054 690.497 51.8054H672.442C671.413 51.8054 670.578 50.9711 670.578 49.9418Z" fill="#9327FF"/>
<path fill-rule="evenodd" clip-rule="evenodd" d="M670.578 59.8637C670.578 58.8344 671.413 58 672.442 58H690.497C691.527 58 692.361 58.8344 692.361 59.8637C692.361 60.8929 691.527 61.7273 690.497 61.7273H672.442C671.413 61.7273 670.578 60.8929 670.578 59.8637Z" fill="#9327FF"/>
<path d="M663.428 44.5H665.228V55H663.158V46.69L661.178 47.245L660.668 45.475L663.428 44.5Z" fill="#9327FF"/>
<rect x="628.5" y="0.5" width="99" height="99" rx="49.5" stroke="#9327FF" stroke-opacity="0.2"/>
</g>
<g opacity="0.7">
<rect x="758" width="100" height="100" rx="50" fill="#1C1C1E"/>
<path d="M807.789 66.5955C804.725 66.5955 802.117 65.8978 799.963 64.5025C797.84 63.1072 796.353 61.1962 795.504 58.7695L800.008 56.1305C801.282 59.7098 803.921 61.4995 807.925 61.4995C809.897 61.4995 811.368 61.1203 812.339 60.362C813.34 59.5733 813.84 58.5572 813.84 57.3135C813.84 56.0092 813.31 55.0233 812.248 54.356C811.186 53.6583 809.306 52.9 806.606 52.081C805.089 51.626 803.861 51.2013 802.92 50.807C801.98 50.4127 800.979 49.8667 799.917 49.169C798.886 48.441 798.113 47.5462 797.597 46.4845C797.081 45.4228 796.823 44.1792 796.823 42.7535C796.823 39.9325 797.824 37.703 799.826 36.065C801.828 34.3967 804.24 33.5625 807.061 33.5625C809.609 33.5625 811.838 34.1843 813.749 35.428C815.66 36.6717 817.132 38.3855 818.163 40.5695L813.749 43.1175C812.415 40.1448 810.185 38.6585 807.061 38.6585C805.544 38.6585 804.331 39.0225 803.421 39.7505C802.511 40.4482 802.056 41.4037 802.056 42.617C802.056 43.8 802.511 44.7403 803.421 45.438C804.361 46.1053 806.045 46.8182 808.471 47.5765C809.685 47.9708 810.564 48.2742 811.11 48.4865C811.687 48.6685 812.475 48.9718 813.476 49.3965C814.508 49.8212 815.281 50.2458 815.797 50.6705C816.313 51.0952 816.859 51.626 817.435 52.263C818.042 52.9 818.466 53.628 818.709 54.447C818.952 55.266 819.073 56.1912 819.073 57.2225C819.073 60.1042 818.026 62.3943 815.933 64.093C813.871 65.7613 811.156 66.5955 807.789 66.5955Z" fill="#00B5FF"/>
<rect x="793.125" y="47.625" width="29.75" height="5.25" rx="2.625" fill="#00B5FF" stroke="white" stroke-width="1.75"/>
<rect x="758.5" y="0.5" width="99" height="99" rx="49.5" stroke="#00C8FF" stroke-opacity="0.2"/>
</g>
<g opacity="0.7">
<rect x="888" width="100" height="100" rx="50" fill="#1C1C1E"/>
<path d="M944.446 47.0227C946.639 48.2859 947.735 50.1926 947.735 52.7427C947.735 54.8639 946.984 56.6037 945.483 57.9622C943.981 59.3207 942.134 60 939.942 60H929.324V34.975H939.191C941.336 34.975 943.135 35.6423 944.589 36.977C946.067 38.2878 946.806 39.9681 946.806 42.0177C946.806 44.0912 946.019 45.7596 944.446 47.0227ZM939.191 39.5867H934.257V45.0922H939.191C939.953 45.0922 940.585 44.8301 941.086 44.3057C941.61 43.7814 941.872 43.126 941.872 42.3395C941.872 41.553 941.622 40.8976 941.121 40.3732C940.621 39.8489 939.977 39.5867 939.191 39.5867ZM939.942 55.3882C940.776 55.3882 941.467 55.1142 942.015 54.566C942.563 53.994 942.837 53.279 942.837 52.421C942.837 51.5868 942.563 50.8957 942.015 50.3475C941.467 49.7755 940.776 49.4895 939.942 49.4895H934.257V55.3882H939.942Z" fill="#8427E0"/>
<rect x="927" y="66.5" width="22" height="2.75" rx="1.375" fill="#8427E0"/>
<rect x="888.5" y="0.5" width="99" height="99" rx="49.5" stroke="#9327FF" stroke-opacity="0.2"/>
</g>
<g opacity="0.7">
<rect x="1018" width="100" height="100" rx="50" fill="#1C1C1E"/>
<path d="M1068 64.5827C1076.05 64.5827 1082.58 58.0535 1082.58 49.9993C1082.58 41.9452 1076.05 35.416 1068 35.416C1059.95 35.416 1053.42 41.9452 1053.42 49.9993C1053.42 58.0535 1059.95 64.5827 1068 64.5827Z" stroke="#FFBD00" stroke-width="3.125" stroke-linecap="round" stroke-linejoin="round"/>
<path d="M1053.42 50H1082.58" stroke="#FFBD00" stroke-width="3.125" stroke-linecap="round" stroke-linejoin="round"/>
<path d="M1068 35.416C1071.65 39.4094 1073.72 44.5919 1073.83 49.9993C1073.72 55.4068 1071.65 60.5892 1068 64.5827C1064.35 60.5892 1062.28 55.4068 1062.17 49.9993C1062.28 44.5919 1064.35 39.4094 1068 35.416V35.416Z" stroke="#FFBD00" stroke-width="3.125" stroke-linecap="round" stroke-linejoin="round"/>
<rect x="1018.5" y="0.5" width="99" height="99" rx="49.5" stroke="#FFCE00" stroke-opacity="0.2"/>
</g>
<g opacity="0.7">
<rect x="1148" width="100" height="100" rx="50" fill="#1C1C1E"/>
<path d="M1196.81 36.25H1201.12V62.5H1196.81V51.1375H1185.56V62.5H1181.25V36.25H1185.56V47.0125H1196.81V36.25Z" fill="#FB006D"/>
<path d="M1212.57 52.1C1213.76 52.45 1214.71 53.0667 1215.45 53.95C1216.2 54.8167 1216.57 55.8667 1216.57 57.1C1216.57 58.9 1215.96 60.3083 1214.75 61.325C1213.55 62.3417 1212.07 62.85 1210.32 62.85C1208.96 62.85 1207.73 62.5417 1206.65 61.925C1205.58 61.2917 1204.81 60.3667 1204.32 59.15L1207.27 57.45C1207.71 58.8 1208.72 59.475 1210.32 59.475C1211.21 59.475 1211.89 59.2667 1212.37 58.85C1212.87 58.4167 1213.12 57.8333 1213.12 57.1C1213.12 56.3833 1212.87 55.8083 1212.37 55.375C1211.89 54.9417 1211.21 54.725 1210.32 54.725H1209.57L1208.25 52.725L1211.7 48.225H1204.85V45H1215.85V47.85L1212.57 52.1Z" fill="#FB006D"/>
<rect x="1148.5" y="0.5" width="99" height="99" rx="49.5" stroke="#FB006D" stroke-opacity="0.2"/>
</g>
<g opacity="0.7">
<rect x="1278" width="100" height="100" rx="50" fill="#1C1C1E"/>
<path d="M1328.79 36.25H1333.11V62.5H1328.79V51.1375H1317.54V62.5H1313.23V36.25H1317.54V47.0125H1328.79V36.25Z" fill="#8427E0"/>
<path d="M1340.6 45H1343.6V62.5H1340.15V48.65L1336.85 49.575L1336 46.625L1340.6 45Z" fill="#8427E0"/>
<rect x="1278.5" y="0.5" width="99" height="99" rx="49.5" stroke="#9327FF" stroke-opacity="0.2"/>
</g>
<g opacity="0.7">
<rect x="1408" width="100" height="100" rx="50" fill="#1C1C1E"/>
<path fill-rule="evenodd" clip-rule="evenodd" d="M1440.81 44.2188C1440.81 43.3558 1441.51 42.6562 1442.38 42.6562H1473.62C1474.49 42.6562 1475.19 43.3558 1475.19 44.2188C1475.19 45.0817 1474.49 45.7812 1473.62 45.7812H1442.38C1441.51 45.7812 1440.81 45.0817 1440.81 44.2188Z" fill="#00B5FF"/>
<path fill-rule="evenodd" clip-rule="evenodd" d="M1440.81 55.9375C1440.81 55.0746 1441.51 54.375 1442.38 54.375H1473.62C1474.49 54.375 1475.19 55.0746 1475.19 55.9375C1475.19 56.8004 1474.49 57.5 1473.62 57.5H1442.38C1441.51 57.5 1440.81 56.8004 1440.81 55.9375Z" fill="#00B5FF"/>
<path fill-rule="evenodd" clip-rule="evenodd" d="M1454.27 30.9472C1455.12 31.0425 1455.74 31.815 1455.65 32.6727L1451.74 67.8289C1451.65 68.6866 1450.87 69.3046 1450.02 69.2093C1449.16 69.114 1448.54 68.3415 1448.63 67.4838L1452.54 32.3276C1452.64 31.4699 1453.41 30.8519 1454.27 30.9472ZM1465.98 30.9472C1466.84 31.0425 1467.46 31.815 1467.36 32.6727L1463.46 67.8289C1463.36 68.6866 1462.59 69.3046 1461.73 69.2093C1460.88 69.114 1460.26 68.3415 1460.35 67.4838L1464.26 32.3276C1464.35 31.4699 1465.13 30.8519 1465.98 30.9472Z" fill="#00B5FF"/>
<rect x="1408.5" y="0.5" width="99" height="99" rx="49.5" stroke="#00C8FF" stroke-opacity="0.2"/>
</g>
<g opacity="0.7">
<rect x="1538" width="100" height="100" rx="50" fill="#1C1C1E"/>
<path fill-rule="evenodd" clip-rule="evenodd" d="M1578.04 46.9219C1578.04 46.0589 1578.74 45.3594 1579.6 45.3594H1596.41C1597.27 45.3594 1597.97 46.0589 1597.97 46.9219C1597.97 47.7848 1597.27 48.4844 1596.41 48.4844H1579.6C1578.74 48.4844 1578.04 47.7848 1578.04 46.9219Z" fill="#FFBD00"/>
<path fill-rule="evenodd" clip-rule="evenodd" d="M1578.04 53.2266C1578.04 52.3636 1578.74 51.6641 1579.6 51.6641H1596.41C1597.27 51.6641 1597.97 52.3636 1597.97 53.2266C1597.97 54.0895 1597.27 54.7891 1596.41 54.7891H1579.6C1578.74 54.7891 1578.04 54.0895 1578.04 53.2266Z" fill="#FFBD00"/>
<path fill-rule="evenodd" clip-rule="evenodd" d="M1586.07 39.0722C1586.93 39.1675 1587.55 39.94 1587.45 40.7977L1585.35 59.7041C1585.26 60.5618 1584.49 61.1798 1583.63 61.0845C1582.77 60.9892 1582.15 60.2167 1582.25 59.359L1584.35 40.4526C1584.44 39.5949 1585.22 38.9769 1586.07 39.0722Z" fill="#FFBD00"/>
<path fill-rule="evenodd" clip-rule="evenodd" d="M1592.37 39.0722C1593.23 39.1675 1593.85 39.94 1593.76 40.7977L1591.65 59.7041C1591.56 60.5618 1590.79 61.1798 1589.93 61.0845C1589.07 60.9892 1588.45 60.2167 1588.55 59.359L1590.65 40.4526C1590.74 39.5949 1591.52 38.9769 1592.37 39.0722Z" fill="#FFBD00"/>
<path fill-rule="evenodd" clip-rule="evenodd" d="M1597.38 34.375H1578.62C1575.17 34.375 1572.38 37.1732 1572.38 40.625V59.375C1572.38 62.8268 1575.17 65.625 1578.62 65.625H1597.38C1600.83 65.625 1603.62 62.8268 1603.62 59.375V40.625C1603.62 37.1732 1600.83 34.375 1597.38 34.375ZM1578.62 31.25C1573.45 31.25 1569.25 35.4473 1569.25 40.625V59.375C1569.25 64.5527 1573.45 68.75 1578.62 68.75H1597.38C1602.55 68.75 1606.75 64.5527 1606.75 59.375V40.625C1606.75 35.4473 1602.55 31.25 1597.38 31.25H1578.62Z" fill="#FFBD00"/>
<rect x="1538.5" y="0.5" width="99" height="99" rx="49.5" stroke="#FFCE00" stroke-opacity="0.2"/>
</g>
</svg>
