<svg width="1600" height="290" viewBox="0 0 1600 290" fill="none" xmlns="http://www.w3.org/2000/svg">
<path d="M-238 218V135.35C-238 126.35 -238.85 118.1 -240.55 110.6C-242.25 103 -245 96.4 -248.8 90.8C-252.5 85.1 -257.35 80.7 -263.35 77.6C-269.25 74.5 -276.45 72.95 -284.95 72.95C-292.75 72.95 -299.65 74.3 -305.65 77C-311.55 79.7 -316.55 83.6 -320.65 88.7C-324.65 93.7 -327.7 99.8 -329.8 107C-331.9 114.2 -332.95 122.4 -332.95 131.6L-348.55 128.15C-348.55 111.55 -345.65 97.6 -339.85 86.3C-334.05 75 -326.05 66.45 -315.85 60.65C-305.65 54.85 -293.95 51.95 -280.75 51.95C-271.05 51.95 -262.6 53.45 -255.4 56.45C-248.1 59.45 -241.95 63.5 -236.95 68.6C-231.85 73.7 -227.75 79.55 -224.65 86.15C-221.55 92.65 -219.3 99.6 -217.9 107C-216.5 114.3 -215.8 121.6 -215.8 128.9V218H-238ZM-355.15 218V56H-335.2V95.9H-332.95V218H-355.15ZM-125.104 222.5C-141.204 222.5 -154.954 218.85 -166.354 211.55C-177.754 204.25 -186.504 194.15 -192.604 181.25C-198.704 168.35 -201.754 153.55 -201.754 136.85C-201.754 119.85 -198.654 104.95 -192.454 92.15C-186.254 79.35 -177.454 69.4 -166.054 62.3C-154.554 55.1 -140.904 51.5 -125.104 51.5C-108.904 51.5 -95.1039 55.15 -83.7039 62.45C-72.2039 69.65 -63.4539 79.7 -57.4539 92.6C-51.3539 105.4 -48.3039 120.15 -48.3039 136.85C-48.3039 153.85 -51.3539 168.8 -57.4539 181.7C-63.5539 194.5 -72.3539 204.5 -83.8539 211.7C-95.3539 218.9 -109.104 222.5 -125.104 222.5ZM-125.104 201.35C-107.104 201.35 -93.7039 195.4 -84.9039 183.5C-76.1039 171.5 -71.7039 155.95 -71.7039 136.85C-71.7039 117.25 -76.1539 101.65 -85.0539 90.05C-93.8539 78.45 -107.204 72.65 -125.104 72.65C-137.204 72.65 -147.204 75.4 -155.104 80.9C-162.904 86.3 -168.754 93.85 -172.654 103.55C-176.454 113.15 -178.354 124.25 -178.354 136.85C-178.354 156.35 -173.854 172 -164.854 183.8C-155.854 195.5 -142.604 201.35 -125.104 201.35ZM57.9852 218C48.8852 219.9 39.8852 220.65 30.9852 220.25C22.1852 219.85 14.2852 217.95 7.28516 214.55C0.385158 211.15 -4.86484 205.85 -8.46484 198.65C-11.3648 192.65 -12.9648 186.6 -13.2648 180.5C-13.4648 174.3 -13.5648 167.25 -13.5648 159.35V11H8.33516V158.45C8.33516 165.25 8.38516 170.95 8.48516 175.55C8.68516 180.05 9.73516 184.05 11.6352 187.55C15.2352 194.25 20.9352 198.25 28.7352 199.55C36.6352 200.85 46.3852 200.55 57.9852 198.65V218ZM-48.2148 74.9V56H57.9852V74.9H-48.2148ZM137.593 222.5C121.793 222.5 108.093 219 96.493 212C84.993 205 76.043 195.15 69.643 182.45C63.243 169.75 60.043 154.85 60.043 137.75C60.043 120.05 63.193 104.75 69.493 91.85C75.793 78.95 84.643 69 96.043 62C107.543 55 121.093 51.5 136.693 51.5C152.693 51.5 166.343 55.2 177.643 62.6C188.943 69.9 197.493 80.4 203.293 94.1C209.093 107.8 211.743 124.15 211.243 143.15H188.743V135.35C188.343 114.35 183.793 98.5 175.093 87.8C166.493 77.1 153.893 71.75 137.293 71.75C119.893 71.75 106.543 77.4 97.243 88.7C88.043 100 83.443 116.1 83.443 137C83.443 157.4 88.043 173.25 97.243 184.55C106.543 195.75 119.693 201.35 136.693 201.35C148.293 201.35 158.393 198.7 166.993 193.4C175.693 188 182.543 180.25 187.543 170.15L208.093 178.1C201.693 192.2 192.243 203.15 179.743 210.95C167.343 218.65 153.293 222.5 137.593 222.5ZM75.643 143.15V124.7H199.393V143.15H75.643ZM289.981 222.35C270.981 222.35 255.331 218.25 243.031 210.05C230.831 201.85 223.331 190.45 220.531 175.85L243.031 172.1C245.431 181.3 250.881 188.65 259.381 194.15C267.981 199.55 278.581 202.25 291.181 202.25C303.481 202.25 313.181 199.7 320.281 194.6C327.381 189.4 330.931 182.35 330.931 173.45C330.931 168.45 329.781 164.4 327.481 161.3C325.281 158.1 320.731 155.15 313.831 152.45C306.931 149.75 296.631 146.55 282.931 142.85C268.231 138.85 256.731 134.85 248.431 130.85C240.131 126.85 234.231 122.25 230.731 117.05C227.231 111.75 225.481 105.3 225.481 97.7C225.481 88.5 228.081 80.45 233.281 73.55C238.481 66.55 245.681 61.15 254.881 57.35C264.081 53.45 274.781 51.5 286.981 51.5C299.181 51.5 310.081 53.5 319.681 57.5C329.381 61.4 337.181 66.9 343.081 74C348.981 81.1 352.481 89.35 353.581 98.75L331.081 102.8C329.581 93.3 324.831 85.8 316.831 80.3C308.931 74.7 298.881 71.8 286.681 71.6C275.181 71.3 265.831 73.5 258.631 78.2C251.431 82.8 247.831 88.95 247.831 96.65C247.831 100.95 249.131 104.65 251.731 107.75C254.331 110.75 259.031 113.6 265.831 116.3C272.731 119 282.531 121.95 295.231 125.15C310.131 128.95 321.831 132.95 330.331 137.15C338.831 141.35 344.881 146.3 348.481 152C352.081 157.7 353.881 164.75 353.881 173.15C353.881 188.45 348.181 200.5 336.781 209.3C325.481 218 309.881 222.35 289.981 222.35ZM369.148 132.95V114.05H459.148V132.95H369.148ZM571.325 218C562.225 219.9 553.225 220.65 544.325 220.25C535.525 219.85 527.625 217.95 520.625 214.55C513.725 211.15 508.475 205.85 504.875 198.65C501.975 192.65 500.375 186.6 500.075 180.5C499.875 174.3 499.775 167.25 499.775 159.35V11H521.675V158.45C521.675 165.25 521.725 170.95 521.825 175.55C522.025 180.05 523.075 184.05 524.975 187.55C528.575 194.25 534.275 198.25 542.075 199.55C549.975 200.85 559.725 200.55 571.325 198.65V218ZM465.125 74.9V56H571.325V74.9H465.125ZM634.592 222.5C622.392 222.5 612.142 220.3 603.842 215.9C595.642 211.5 589.492 205.65 585.392 198.35C581.292 191.05 579.242 183.1 579.242 174.5C579.242 165.7 580.992 158.2 584.492 152C588.092 145.7 592.942 140.55 599.042 136.55C605.242 132.55 612.392 129.5 620.492 127.4C628.692 125.4 637.742 123.65 647.642 122.15C657.642 120.55 667.392 119.2 676.892 118.1C686.492 116.9 694.892 115.75 702.092 114.65L694.292 119.45C694.592 103.45 691.492 91.6 684.992 83.9C678.492 76.2 667.192 72.35 651.092 72.35C639.992 72.35 630.592 74.85 622.892 79.85C615.292 84.85 609.942 92.75 606.842 103.55L585.392 97.25C589.092 82.75 596.542 71.5 607.742 63.5C618.942 55.5 633.492 51.5 651.392 51.5C666.192 51.5 678.742 54.3 689.042 59.9C699.442 65.4 706.792 73.4 711.092 83.9C713.092 88.6 714.392 93.85 714.992 99.65C715.592 105.45 715.892 111.35 715.892 117.35V218H696.242V177.35L701.942 179.75C696.442 193.65 687.892 204.25 676.292 211.55C664.692 218.85 650.792 222.5 634.592 222.5ZM637.142 203.45C647.442 203.45 656.442 201.6 664.142 197.9C671.842 194.2 678.042 189.15 682.742 182.75C687.442 176.25 690.492 168.95 691.892 160.85C693.092 155.65 693.742 149.95 693.842 143.75C693.942 137.45 693.992 132.75 693.992 129.65L702.392 134C694.892 135 686.742 136 677.942 137C669.242 138 660.642 139.15 652.142 140.45C643.742 141.75 636.142 143.3 629.342 145.1C624.742 146.4 620.292 148.25 615.992 150.65C611.692 152.95 608.142 156.05 605.342 159.95C602.642 163.85 601.292 168.7 601.292 174.5C601.292 179.2 602.442 183.75 604.742 188.15C607.142 192.55 610.942 196.2 616.142 199.1C621.442 202 628.442 203.45 637.142 203.45ZM800.391 222.35C781.391 222.35 765.741 218.25 753.441 210.05C741.241 201.85 733.741 190.45 730.941 175.85L753.441 172.1C755.841 181.3 761.291 188.65 769.791 194.15C778.391 199.55 788.991 202.25 801.591 202.25C813.891 202.25 823.591 199.7 830.691 194.6C837.791 189.4 841.341 182.35 841.341 173.45C841.341 168.45 840.191 164.4 837.891 161.3C835.691 158.1 831.141 155.15 824.241 152.45C817.341 149.75 807.041 146.55 793.341 142.85C778.641 138.85 767.141 134.85 758.841 130.85C750.541 126.85 744.641 122.25 741.141 117.05C737.641 111.75 735.891 105.3 735.891 97.7C735.891 88.5 738.491 80.45 743.691 73.55C748.891 66.55 756.091 61.15 765.291 57.35C774.491 53.45 785.191 51.5 797.391 51.5C809.591 51.5 820.491 53.5 830.091 57.5C839.791 61.4 847.591 66.9 853.491 74C859.391 81.1 862.891 89.35 863.991 98.75L841.491 102.8C839.991 93.3 835.241 85.8 827.241 80.3C819.341 74.7 809.291 71.8 797.091 71.6C785.591 71.3 776.241 73.5 769.041 78.2C761.841 82.8 758.241 88.95 758.241 96.65C758.241 100.95 759.541 104.65 762.141 107.75C764.741 110.75 769.441 113.6 776.241 116.3C783.141 119 792.941 121.95 805.641 125.15C820.541 128.95 832.241 132.95 840.741 137.15C849.241 141.35 855.291 146.3 858.891 152C862.491 157.7 864.291 164.75 864.291 173.15C864.291 188.45 858.591 200.5 847.191 209.3C835.891 218 820.291 222.35 800.391 222.35ZM882.409 218L882.559 1.99999H904.759V134L977.059 56H1006.46L930.559 137L1016.36 218H984.259L904.759 140V218H882.409ZM1073.91 222.35C1054.91 222.35 1039.26 218.25 1026.96 210.05C1014.76 201.85 1007.26 190.45 1004.46 175.85L1026.96 172.1C1029.36 181.3 1034.81 188.65 1043.31 194.15C1051.91 199.55 1062.51 202.25 1075.11 202.25C1087.41 202.25 1097.11 199.7 1104.21 194.6C1111.31 189.4 1114.86 182.35 1114.86 173.45C1114.86 168.45 1113.71 164.4 1111.41 161.3C1109.21 158.1 1104.66 155.15 1097.76 152.45C1090.86 149.75 1080.56 146.55 1066.86 142.85C1052.16 138.85 1040.66 134.85 1032.36 130.85C1024.06 126.85 1018.16 122.25 1014.66 117.05C1011.16 111.75 1009.41 105.3 1009.41 97.7C1009.41 88.5 1012.01 80.45 1017.21 73.55C1022.41 66.55 1029.61 61.15 1038.81 57.35C1048.01 53.45 1058.71 51.5 1070.91 51.5C1083.11 51.5 1094.01 53.5 1103.61 57.5C1113.31 61.4 1121.11 66.9 1127.01 74C1132.91 81.1 1136.41 89.35 1137.51 98.75L1115.01 102.8C1113.51 93.3 1108.76 85.8 1100.76 80.3C1092.86 74.7 1082.81 71.8 1070.61 71.6C1059.11 71.3 1049.76 73.5 1042.56 78.2C1035.36 82.8 1031.76 88.95 1031.76 96.65C1031.76 100.95 1033.06 104.65 1035.66 107.75C1038.26 110.75 1042.96 113.6 1049.76 116.3C1056.66 119 1066.46 121.95 1079.16 125.15C1094.06 128.95 1105.76 132.95 1114.26 137.15C1122.76 141.35 1128.81 146.3 1132.41 152C1136.01 157.7 1137.81 164.75 1137.81 173.15C1137.81 188.45 1132.11 200.5 1120.71 209.3C1109.41 218 1093.81 222.35 1073.91 222.35ZM1153.07 132.95V114.05H1243.07V132.95H1153.07ZM1339.8 222.5C1324.9 222.5 1312.3 218.75 1302 211.25C1291.7 203.65 1283.9 193.4 1278.6 180.5C1273.3 167.5 1270.65 152.95 1270.65 136.85C1270.65 120.45 1273.3 105.85 1278.6 93.05C1284 80.15 1291.9 70 1302.3 62.6C1312.7 55.2 1325.5 51.5 1340.7 51.5C1355.5 51.5 1368.2 55.25 1378.8 62.75C1389.4 70.25 1397.5 80.45 1403.1 93.35C1408.8 106.25 1411.65 120.75 1411.65 136.85C1411.65 153.05 1408.8 167.6 1403.1 180.5C1397.4 193.4 1389.2 203.65 1378.5 211.25C1367.8 218.75 1354.9 222.5 1339.8 222.5ZM1266.9 290V56H1286.7V177.95H1289.1V290H1266.9ZM1337.55 201.95C1348.85 201.95 1358.25 199.1 1365.75 193.4C1373.25 187.7 1378.85 179.95 1382.55 170.15C1386.35 160.25 1388.25 149.15 1388.25 136.85C1388.25 124.65 1386.4 113.65 1382.7 103.85C1379 94.05 1373.35 86.3 1365.75 80.6C1358.25 74.9 1348.7 72.05 1337.1 72.05C1325.8 72.05 1316.4 74.8 1308.9 80.3C1301.5 85.8 1295.95 93.45 1292.25 103.25C1288.55 112.95 1286.7 124.15 1286.7 136.85C1286.7 149.35 1288.55 160.55 1292.25 170.45C1295.95 180.25 1301.55 187.95 1309.05 193.55C1316.55 199.15 1326.05 201.95 1337.55 201.95ZM1429.59 218V56H1449.39V95L1445.49 89.9C1447.29 85.1 1449.64 80.7 1452.54 76.7C1455.44 72.6 1458.59 69.25 1461.99 66.65C1466.19 62.95 1471.09 60.15 1476.69 58.25C1482.29 56.25 1487.94 55.1 1493.64 54.8C1499.34 54.4 1504.54 54.8 1509.24 56V76.7C1503.34 75.2 1496.89 74.85 1489.89 75.65C1482.89 76.45 1476.44 79.25 1470.54 84.05C1465.14 88.25 1461.09 93.3 1458.39 99.2C1455.69 105 1453.89 111.2 1452.99 117.8C1452.09 124.3 1451.64 130.75 1451.64 137.15V218H1429.59ZM1587.42 222.5C1571.32 222.5 1557.57 218.85 1546.17 211.55C1534.77 204.25 1526.02 194.15 1519.92 181.25C1513.82 168.35 1510.77 153.55 1510.77 136.85C1510.77 119.85 1513.87 104.95 1520.07 92.15C1526.27 79.35 1535.07 69.4 1546.47 62.3C1557.97 55.1 1571.62 51.5 1587.42 51.5C1603.62 51.5 1617.42 55.15 1628.82 62.45C1640.32 69.65 1649.07 79.7 1655.07 92.6C1661.17 105.4 1664.22 120.15 1664.22 136.85C1664.22 153.85 1661.17 168.8 1655.07 181.7C1648.97 194.5 1640.17 204.5 1628.67 211.7C1617.17 218.9 1603.42 222.5 1587.42 222.5ZM1587.42 201.35C1605.42 201.35 1618.82 195.4 1627.62 183.5C1636.42 171.5 1640.82 155.95 1640.82 136.85C1640.82 117.25 1636.37 101.65 1627.47 90.05C1618.67 78.45 1605.32 72.65 1587.42 72.65C1575.32 72.65 1565.32 75.4 1557.42 80.9C1549.62 86.3 1543.77 93.85 1539.87 103.55C1536.07 113.15 1534.17 124.25 1534.17 136.85C1534.17 156.35 1538.67 172 1547.67 183.8C1556.67 195.5 1569.92 201.35 1587.42 201.35ZM1658.3 290V268.7H1667.45C1674.75 268.7 1680.55 266.8 1684.85 263C1689.25 259.3 1691.45 253.05 1691.45 244.25V56H1713.35V249.8C1713.35 263.3 1710.1 273.35 1703.6 279.95C1697.2 286.65 1687.35 290 1674.05 290H1658.3ZM1691.45 25.25V0.499993H1713.35V25.25H1691.45ZM1811.15 222.5C1795.35 222.5 1781.65 219 1770.05 212C1758.55 205 1749.6 195.15 1743.2 182.45C1736.8 169.75 1733.6 154.85 1733.6 137.75C1733.6 120.05 1736.75 104.75 1743.05 91.85C1749.35 78.95 1758.2 69 1769.6 62C1781.1 55 1794.65 51.5 1810.25 51.5C1826.25 51.5 1839.9 55.2 1851.2 62.6C1862.5 69.9 1871.05 80.4 1876.85 94.1C1882.65 107.8 1885.3 124.15 1884.8 143.15H1862.3V135.35C1861.9 114.35 1857.35 98.5 1848.65 87.8C1840.05 77.1 1827.45 71.75 1810.85 71.75C1793.45 71.75 1780.1 77.4 1770.8 88.7C1761.6 100 1757 116.1 1757 137C1757 157.4 1761.6 173.25 1770.8 184.55C1780.1 195.75 1793.25 201.35 1810.25 201.35C1821.85 201.35 1831.95 198.7 1840.55 193.4C1849.25 188 1856.1 180.25 1861.1 170.15L1881.65 178.1C1875.25 192.2 1865.8 203.15 1853.3 210.95C1840.9 218.65 1826.85 222.5 1811.15 222.5ZM1749.2 143.15V124.7H1872.95V143.15H1749.2ZM1970.29 222.5C1953.99 222.5 1940.19 218.85 1928.89 211.55C1917.59 204.25 1908.99 194.2 1903.09 181.4C1897.29 168.5 1894.29 153.7 1894.09 137C1894.29 120 1897.39 105.1 1903.39 92.3C1909.39 79.4 1918.04 69.4 1929.34 62.3C1940.64 55.1 1954.34 51.5 1970.44 51.5C1986.84 51.5 2001.09 55.5 2013.19 63.5C2025.39 71.5 2033.74 82.45 2038.24 96.35L2016.64 103.25C2012.84 93.55 2006.79 86.05 1998.49 80.75C1990.29 75.35 1980.89 72.65 1970.29 72.65C1958.39 72.65 1948.54 75.4 1940.74 80.9C1932.94 86.3 1927.14 93.85 1923.34 103.55C1919.54 113.25 1917.59 124.4 1917.49 137C1917.69 156.4 1922.19 172 1930.99 183.8C1939.79 195.5 1952.89 201.35 1970.29 201.35C1981.29 201.35 1990.64 198.85 1998.34 193.85C2006.14 188.75 2012.04 181.35 2016.04 171.65L2038.24 178.25C2032.24 192.65 2023.44 203.65 2011.84 211.25C2000.24 218.75 1986.39 222.5 1970.29 222.5ZM2142.4 218C2133.3 219.9 2124.3 220.65 2115.4 220.25C2106.6 219.85 2098.7 217.95 2091.7 214.55C2084.8 211.15 2079.55 205.85 2075.95 198.65C2073.05 192.65 2071.45 186.6 2071.15 180.5C2070.95 174.3 2070.85 167.25 2070.85 159.35V11H2092.75V158.45C2092.75 165.25 2092.8 170.95 2092.9 175.55C2093.1 180.05 2094.15 184.05 2096.05 187.55C2099.65 194.25 2105.35 198.25 2113.15 199.55C2121.05 200.85 2130.8 200.55 2142.4 198.65V218ZM2036.2 74.9V56H2142.4V74.9H2036.2ZM2219.77 222.35C2200.77 222.35 2185.12 218.25 2172.82 210.05C2160.62 201.85 2153.12 190.45 2150.32 175.85L2172.82 172.1C2175.22 181.3 2180.67 188.65 2189.17 194.15C2197.77 199.55 2208.37 202.25 2220.97 202.25C2233.27 202.25 2242.97 199.7 2250.07 194.6C2257.17 189.4 2260.72 182.35 2260.72 173.45C2260.72 168.45 2259.57 164.4 2257.27 161.3C2255.07 158.1 2250.52 155.15 2243.62 152.45C2236.72 149.75 2226.42 146.55 2212.72 142.85C2198.02 138.85 2186.52 134.85 2178.22 130.85C2169.92 126.85 2164.02 122.25 2160.52 117.05C2157.02 111.75 2155.27 105.3 2155.27 97.7C2155.27 88.5 2157.87 80.45 2163.07 73.55C2168.27 66.55 2175.47 61.15 2184.67 57.35C2193.87 53.45 2204.57 51.5 2216.77 51.5C2228.97 51.5 2239.87 53.5 2249.47 57.5C2259.17 61.4 2266.97 66.9 2272.87 74C2278.77 81.1 2282.27 89.35 2283.37 98.75L2260.87 102.8C2259.37 93.3 2254.62 85.8 2246.62 80.3C2238.72 74.7 2228.67 71.8 2216.47 71.6C2204.97 71.3 2195.62 73.5 2188.42 78.2C2181.22 82.8 2177.62 88.95 2177.62 96.65C2177.62 100.95 2178.92 104.65 2181.52 107.75C2184.12 110.75 2188.82 113.6 2195.62 116.3C2202.52 119 2212.32 121.95 2225.02 125.15C2239.92 128.95 2251.62 132.95 2260.12 137.15C2268.62 141.35 2274.67 146.3 2278.27 152C2281.87 157.7 2283.67 164.75 2283.67 173.15C2283.67 188.45 2277.97 200.5 2266.57 209.3C2255.27 218 2239.67 222.35 2219.77 222.35Z" fill="black"/>
</svg>
