<svg width="305" height="93" viewBox="0 0 305 93" fill="none" xmlns="http://www.w3.org/2000/svg">
<rect x="6.24805" y="5.75269" width="289.503" height="81.2896" rx="14" fill="white"/>
<rect x="25.0439" y="18.7966" width="83.871" height="26.088" rx="4.8915" fill="#E5DCFF"/>
<path d="M40.3868 27.9082V35.8406H39.0856V32.3709H35.3534V35.8406H34.0523V27.9082H35.3534V31.3094H39.0856V27.9082H40.3868ZM42.7617 28.7186C42.5258 28.7186 42.328 28.6387 42.1682 28.4789C42.0084 28.3191 41.9285 28.1213 41.9285 27.8854C41.9285 27.6495 42.0084 27.4517 42.1682 27.2919C42.328 27.1321 42.5258 27.0522 42.7617 27.0522C42.99 27.0522 43.184 27.1321 43.3438 27.2919C43.5036 27.4517 43.5835 27.6495 43.5835 27.8854C43.5835 28.1213 43.5036 28.3191 43.3438 28.4789C43.184 28.6387 42.99 28.7186 42.7617 28.7186ZM43.4008 29.5517V35.8406H42.0997V29.5517H43.4008ZM47.6429 29.449C48.1299 29.449 48.5598 29.5479 48.9326 29.7458C49.3131 29.936 49.6098 30.1757 49.8229 30.4648V29.5517H51.1354V35.9433C51.1354 36.5216 51.0137 37.0352 50.7702 37.4841C50.5267 37.9407 50.1729 38.2983 49.7088 38.557C49.2522 38.8157 48.7044 38.945 48.0652 38.945C47.213 38.945 46.5054 38.7434 45.9423 38.3401C45.3792 37.9445 45.0597 37.4042 44.9836 36.7194H46.2733C46.3722 37.0466 46.5815 37.3091 46.901 37.5069C47.2282 37.7124 47.6163 37.8151 48.0652 37.8151C48.5902 37.8151 49.0125 37.6553 49.3321 37.3357C49.6593 37.0162 49.8229 36.552 49.8229 35.9433V34.8933C49.6022 35.19 49.3017 35.4411 48.9212 35.6465C48.5484 35.8444 48.1223 35.9433 47.6429 35.9433C47.0951 35.9433 46.5929 35.8063 46.1363 35.5324C45.6874 35.2509 45.3298 34.8628 45.0635 34.3682C44.8048 33.866 44.6754 33.2992 44.6754 32.6676C44.6754 32.0361 44.8048 31.4768 45.0635 30.9898C45.3298 30.5029 45.6874 30.1262 46.1363 29.8599C46.5929 29.586 47.0951 29.449 47.6429 29.449ZM49.8229 32.6905C49.8229 32.2567 49.7316 31.8801 49.549 31.5605C49.374 31.2409 49.1419 30.9975 48.8527 30.8301C48.5636 30.6627 48.2516 30.579 47.9168 30.579C47.582 30.579 47.2701 30.6627 46.9809 30.8301C46.6918 30.9898 46.4559 31.2295 46.2733 31.5491C46.0983 31.8611 46.0108 32.2339 46.0108 32.6676C46.0108 33.1013 46.0983 33.4818 46.2733 33.809C46.4559 34.1362 46.6918 34.3873 46.9809 34.5623C47.2777 34.7297 47.5897 34.8134 47.9168 34.8134C48.2516 34.8134 48.5636 34.7297 48.8527 34.5623C49.1419 34.3949 49.374 34.1514 49.549 33.8318C49.7316 33.5046 49.8229 33.1242 49.8229 32.6905ZM56.0973 29.449C56.5766 29.449 57.0027 29.5517 57.3756 29.7572C57.756 29.9626 58.0528 30.267 58.2658 30.6703C58.4865 31.0735 58.5968 31.5605 58.5968 32.1312V35.8406H57.3071V32.3252C57.3071 31.7622 57.1663 31.3322 56.8848 31.0355C56.6033 30.7311 56.219 30.579 55.732 30.579C55.2451 30.579 54.857 30.7311 54.5679 31.0355C54.2863 31.3322 54.1456 31.7622 54.1456 32.3252V35.8406H52.8444V27.3946H54.1456V30.2822C54.3662 30.0159 54.644 29.8104 54.9788 29.6659C55.3212 29.5213 55.694 29.449 56.0973 29.449ZM61.5577 27.3946V35.8406H60.2565V27.3946H61.5577ZM63.9279 28.7186C63.692 28.7186 63.4942 28.6387 63.3344 28.4789C63.1746 28.3191 63.0947 28.1213 63.0947 27.8854C63.0947 27.6495 63.1746 27.4517 63.3344 27.2919C63.4942 27.1321 63.692 27.0522 63.9279 27.0522C64.1562 27.0522 64.3502 27.1321 64.51 27.2919C64.6698 27.4517 64.7497 27.6495 64.7497 27.8854C64.7497 28.1213 64.6698 28.3191 64.51 28.4789C64.3502 28.6387 64.1562 28.7186 63.9279 28.7186ZM64.5671 29.5517V35.8406H63.2659V29.5517H64.5671ZM68.8091 29.449C69.2961 29.449 69.726 29.5479 70.0989 29.7458C70.4793 29.936 70.7761 30.1757 70.9891 30.4648V29.5517H72.3017V35.9433C72.3017 36.5216 72.1799 37.0352 71.9364 37.4841C71.6929 37.9407 71.3391 38.2983 70.875 38.557C70.4184 38.8157 69.8706 38.945 69.2314 38.945C68.3792 38.945 67.6716 38.7434 67.1085 38.3401C66.5455 37.9445 66.2259 37.4042 66.1498 36.7194H67.4395C67.5384 37.0466 67.7477 37.3091 68.0673 37.5069C68.3945 37.7124 68.7825 37.8151 69.2314 37.8151C69.7565 37.8151 70.1788 37.6553 70.4983 37.3357C70.8255 37.0162 70.9891 36.552 70.9891 35.9433V34.8933C70.7685 35.19 70.4679 35.4411 70.0875 35.6465C69.7146 35.8444 69.2885 35.9433 68.8091 35.9433C68.2613 35.9433 67.7591 35.8063 67.3026 35.5324C66.8536 35.2509 66.496 34.8628 66.2297 34.3682C65.971 33.866 65.8416 33.2992 65.8416 32.6676C65.8416 32.0361 65.971 31.4768 66.2297 30.9898C66.496 30.5029 66.8536 30.1262 67.3026 29.8599C67.7591 29.586 68.2613 29.449 68.8091 29.449ZM70.9891 32.6905C70.9891 32.2567 70.8978 31.8801 70.7152 31.5605C70.5402 31.2409 70.3081 30.9975 70.019 30.8301C69.7298 30.6627 69.4179 30.579 69.0831 30.579C68.7483 30.579 68.4363 30.6627 68.1472 30.8301C67.858 30.9898 67.6221 31.2295 67.4395 31.5491C67.2645 31.8611 67.177 32.2339 67.177 32.6676C67.177 33.1013 67.2645 33.4818 67.4395 33.809C67.6221 34.1362 67.858 34.3873 68.1472 34.5623C68.4439 34.7297 68.7559 34.8134 69.0831 34.8134C69.4179 34.8134 69.7298 34.7297 70.019 34.5623C70.3081 34.3949 70.5402 34.1514 70.7152 33.8318C70.8978 33.5046 70.9891 33.1242 70.9891 32.6905ZM77.2635 29.449C77.7429 29.449 78.169 29.5517 78.5418 29.7572C78.9223 29.9626 79.219 30.267 79.4321 30.6703C79.6527 31.0735 79.7631 31.5605 79.7631 32.1312V35.8406H78.4733V32.3252C78.4733 31.7622 78.3326 31.3322 78.051 31.0355C77.7695 30.7311 77.3852 30.579 76.8983 30.579C76.4113 30.579 76.0232 30.7311 75.7341 31.0355C75.4526 31.3322 75.3118 31.7622 75.3118 32.3252V35.8406H74.0107V27.3946H75.3118V30.2822C75.5325 30.0159 75.8102 29.8104 76.145 29.6659C76.4874 29.5213 76.8602 29.449 77.2635 29.449Z" fill="black"/>
<circle cx="92.6095" cy="30.0065" r="0.917155" fill="#2F3030"/>
<circle cx="92.6095" cy="33.675" r="0.917155" fill="#2F3030"/>
<rect x="115.437" y="18.7966" width="94.871" height="26.088" rx="4.8915" fill="#FDDCFA"/>
<path d="M127.036 27.9082C127.88 27.9082 128.618 28.0718 129.25 28.399C129.889 28.7186 130.38 29.1827 130.722 29.7914C131.072 30.3925 131.247 31.0964 131.247 31.9029C131.247 32.7095 131.072 33.4095 130.722 34.003C130.38 34.5965 129.889 35.053 129.25 35.3726C128.618 35.6846 127.88 35.8406 127.036 35.8406H124.445V27.9082H127.036ZM127.036 34.7791C127.964 34.7791 128.675 34.528 129.17 34.0258C129.665 33.5236 129.912 32.816 129.912 31.9029C129.912 30.9822 129.665 30.2632 129.17 29.7458C128.675 29.2284 127.964 28.9697 127.036 28.9697H125.746V34.7791H127.036ZM132.103 32.6676C132.103 32.0361 132.233 31.4768 132.491 30.9898C132.758 30.5029 133.115 30.1262 133.564 29.8599C134.021 29.586 134.523 29.449 135.071 29.449C135.565 29.449 135.995 29.5479 136.36 29.7458C136.733 29.936 137.03 30.1757 137.251 30.4648V29.5517H138.563V35.8406H137.251V34.9047C137.03 35.2014 136.729 35.4487 136.349 35.6465C135.969 35.8444 135.535 35.9433 135.048 35.9433C134.508 35.9433 134.013 35.8063 133.564 35.5324C133.115 35.2509 132.758 34.8628 132.491 34.3682C132.233 33.866 132.103 33.2992 132.103 32.6676ZM137.251 32.6905C137.251 32.2567 137.159 31.8801 136.977 31.5605C136.802 31.2409 136.57 30.9975 136.28 30.8301C135.991 30.6627 135.679 30.579 135.345 30.579C135.01 30.579 134.698 30.6627 134.409 30.8301C134.12 30.9898 133.884 31.2295 133.701 31.5491C133.526 31.8611 133.439 32.2339 133.439 32.6676C133.439 33.1013 133.526 33.4818 133.701 33.809C133.884 34.1362 134.12 34.3873 134.409 34.5623C134.705 34.7297 135.017 34.8134 135.345 34.8134C135.679 34.8134 135.991 34.7297 136.28 34.5623C136.57 34.3949 136.802 34.1514 136.977 33.8318C137.159 33.5046 137.251 33.1242 137.251 32.6905ZM142.555 35.9433C142.06 35.9433 141.615 35.8558 141.219 35.6808C140.831 35.4982 140.523 35.2547 140.295 34.9503C140.067 34.6384 139.945 34.2921 139.93 33.9117H141.277C141.299 34.178 141.425 34.4025 141.653 34.5851C141.889 34.7601 142.182 34.8476 142.532 34.8476C142.897 34.8476 143.179 34.7791 143.377 34.6422C143.582 34.4976 143.685 34.315 143.685 34.0943C143.685 33.8584 143.571 33.6834 143.342 33.5693C143.122 33.4552 142.768 33.3296 142.281 33.1926C141.809 33.0633 141.425 32.9377 141.128 32.816C140.831 32.6943 140.573 32.5078 140.352 32.2567C140.139 32.0056 140.032 31.6747 140.032 31.2638C140.032 30.929 140.131 30.6246 140.329 30.3507C140.527 30.0692 140.809 29.8485 141.174 29.6887C141.547 29.5289 141.973 29.449 142.452 29.449C143.167 29.449 143.742 29.6316 144.176 29.9969C144.617 30.3545 144.853 30.8453 144.883 31.4692H143.582C143.559 31.1877 143.445 30.9632 143.24 30.7958C143.034 30.6284 142.757 30.5447 142.407 30.5447C142.064 30.5447 141.802 30.6094 141.619 30.7387C141.436 30.8681 141.345 31.0393 141.345 31.2524C141.345 31.4198 141.406 31.5605 141.528 31.6747C141.649 31.7888 141.798 31.8801 141.973 31.9486C142.148 32.0094 142.407 32.0893 142.749 32.1883C143.205 32.31 143.578 32.4356 143.867 32.5649C144.164 32.6866 144.419 32.8693 144.632 33.1128C144.845 33.3562 144.956 33.6796 144.963 34.0829C144.963 34.4405 144.864 34.7601 144.666 35.0416C144.469 35.3232 144.187 35.5438 143.822 35.7036C143.464 35.8634 143.042 35.9433 142.555 35.9433ZM149.622 29.449C150.101 29.449 150.527 29.5517 150.9 29.7572C151.281 29.9626 151.577 30.267 151.79 30.6703C152.011 31.0735 152.121 31.5605 152.121 32.1312V35.8406H150.832V32.3252C150.832 31.7622 150.691 31.3322 150.409 31.0355C150.128 30.7311 149.744 30.579 149.257 30.579C148.77 30.579 148.382 30.7311 148.092 31.0355C147.811 31.3322 147.67 31.7622 147.67 32.3252V35.8406H146.369V27.3946H147.67V30.2822C147.891 30.0159 148.169 29.8104 148.503 29.6659C148.846 29.5213 149.219 29.449 149.622 29.449ZM158.047 27.9082V35.8406H156.746V27.9082H158.047ZM161.273 30.6132V34.0943C161.273 34.3302 161.327 34.5014 161.433 34.6079C161.547 34.7068 161.738 34.7563 162.004 34.7563H162.803V35.8406H161.776C161.19 35.8406 160.741 35.7036 160.429 35.4297C160.117 35.1558 159.961 34.7106 159.961 34.0943V30.6132H159.219V29.5517H159.961V27.9881H161.273V29.5517H162.803V30.6132H161.273ZM169.766 32.5421C169.766 32.778 169.751 32.991 169.72 33.1812H164.915C164.953 33.6834 165.14 34.0867 165.474 34.3911C165.809 34.6954 166.22 34.8476 166.707 34.8476C167.407 34.8476 167.902 34.5547 168.191 33.9688H169.595C169.404 34.547 169.058 35.0226 168.556 35.3955C168.061 35.7607 167.445 35.9433 166.707 35.9433C166.106 35.9433 165.566 35.8101 165.086 35.5438C164.615 35.2699 164.242 34.8895 163.968 34.4025C163.701 33.9079 163.568 33.3372 163.568 32.6905C163.568 32.0437 163.698 31.4768 163.956 30.9898C164.223 30.4953 164.592 30.1148 165.063 29.8485C165.543 29.5822 166.091 29.449 166.707 29.449C167.3 29.449 167.829 29.5784 168.293 29.8371C168.758 30.0958 169.119 30.461 169.378 30.9328C169.636 31.3969 169.766 31.9334 169.766 32.5421ZM168.408 32.1312C168.4 31.6518 168.229 31.2676 167.894 30.9784C167.559 30.6893 167.144 30.5447 166.65 30.5447C166.201 30.5447 165.817 30.6893 165.497 30.9784C165.178 31.26 164.987 31.6442 164.926 32.1312H168.408ZM178.659 29.449C179.154 29.449 179.595 29.5517 179.983 29.7572C180.379 29.9626 180.687 30.267 180.907 30.6703C181.136 31.0735 181.25 31.5605 181.25 32.1312V35.8406H179.96V32.3252C179.96 31.7622 179.819 31.3322 179.538 31.0355C179.256 30.7311 178.872 30.579 178.385 30.579C177.898 30.579 177.51 30.7311 177.221 31.0355C176.939 31.3322 176.799 31.7622 176.799 32.3252V35.8406H175.509V32.3252C175.509 31.7622 175.368 31.3322 175.087 31.0355C174.805 30.7311 174.421 30.579 173.934 30.579C173.447 30.579 173.059 30.7311 172.77 31.0355C172.488 31.3322 172.347 31.7622 172.347 32.3252V35.8406H171.046V29.5517H172.347V30.2708C172.56 30.0121 172.831 29.8104 173.158 29.6659C173.485 29.5213 173.835 29.449 174.208 29.449C174.71 29.449 175.159 29.5555 175.555 29.7686C175.95 29.9817 176.255 30.2898 176.468 30.6931C176.658 30.3126 176.955 30.0121 177.358 29.7914C177.761 29.5632 178.195 29.449 178.659 29.449Z" fill="black"/>
<circle cx="194.002" cy="30.0065" r="0.917155" fill="#2F3030"/>
<circle cx="194.002" cy="33.675" r="0.917155" fill="#2F3030"/>
<rect x="216.83" y="18.7966" width="59.871" height="26.088" rx="4.8915" fill="#D6F9FF"/>
<path d="M230.963 27.9082V28.9697H228.852V35.8406H227.55V28.9697H225.428V27.9082H230.963ZM232.943 28.7186C232.707 28.7186 232.509 28.6387 232.349 28.4789C232.19 28.3191 232.11 28.1213 232.11 27.8854C232.11 27.6495 232.19 27.4517 232.349 27.2919C232.509 27.1321 232.707 27.0522 232.943 27.0522C233.171 27.0522 233.365 27.1321 233.525 27.2919C233.685 27.4517 233.765 27.6495 233.765 27.8854C233.765 28.1213 233.685 28.3191 233.525 28.4789C233.365 28.6387 233.171 28.7186 232.943 28.7186ZM233.582 29.5517V35.8406H232.281V29.5517H233.582ZM236.808 30.6132V34.0943C236.808 34.3302 236.861 34.5014 236.968 34.6079C237.082 34.7068 237.272 34.7563 237.539 34.7563H238.338V35.8406H237.31C236.725 35.8406 236.276 35.7036 235.964 35.4297C235.652 35.1558 235.496 34.7106 235.496 34.0943V30.6132H234.754V29.5517H235.496V27.9881H236.808V29.5517H238.338V30.6132H236.808ZM240.838 27.3946V35.8406H239.537V27.3946H240.838ZM248.31 32.5421C248.31 32.778 248.295 32.991 248.264 33.1812H243.459C243.497 33.6834 243.684 34.0867 244.019 34.3911C244.353 34.6954 244.764 34.8476 245.251 34.8476C245.951 34.8476 246.446 34.5547 246.735 33.9688H248.139C247.949 34.547 247.602 35.0226 247.1 35.3955C246.606 35.7607 245.989 35.9433 245.251 35.9433C244.65 35.9433 244.11 35.8101 243.631 35.5438C243.159 35.2699 242.786 34.8895 242.512 34.4025C242.246 33.9079 242.113 33.3372 242.113 32.6905C242.113 32.0437 242.242 31.4768 242.501 30.9898C242.767 30.4953 243.136 30.1148 243.608 29.8485C244.087 29.5822 244.635 29.449 245.251 29.449C245.845 29.449 246.374 29.5784 246.838 29.8371C247.302 30.0958 247.663 30.461 247.922 30.9328C248.181 31.3969 248.31 31.9334 248.31 32.5421ZM246.952 32.1312C246.944 31.6518 246.773 31.2676 246.438 30.9784C246.103 30.6893 245.689 30.5447 245.194 30.5447C244.745 30.5447 244.361 30.6893 244.041 30.9784C243.722 31.26 243.532 31.6442 243.471 32.1312H246.952Z" fill="black"/>
<circle cx="260.396" cy="30.0065" r="0.917155" fill="#2F3030"/>
<circle cx="260.396" cy="33.675" r="0.917155" fill="#2F3030"/>
<rect x="25.0439" y="51.4065" width="51.871" height="26.088" rx="4.8915" fill="#FFE6EE"/>
<path d="M40.3868 60.5181V68.4504H39.0856V64.9807H35.3534V68.4504H34.0523V60.5181H35.3534V63.9193H39.0856V60.5181H40.3868ZM42.7617 61.3284C42.5258 61.3284 42.328 61.2485 42.1682 61.0887C42.0084 60.9289 41.9285 60.7311 41.9285 60.4952C41.9285 60.2594 42.0084 60.0615 42.1682 59.9017C42.328 59.7419 42.5258 59.6621 42.7617 59.6621C42.99 59.6621 43.184 59.7419 43.3438 59.9017C43.5036 60.0615 43.5835 60.2594 43.5835 60.4952C43.5835 60.7311 43.5036 60.9289 43.3438 61.0887C43.184 61.2485 42.99 61.3284 42.7617 61.3284ZM43.4008 62.1616V68.4504H42.0997V62.1616H43.4008ZM46.6271 63.2231V66.7042C46.6271 66.9401 46.6804 67.1113 46.7869 67.2178C46.901 67.3167 47.0913 67.3662 47.3576 67.3662H48.1565V68.4504H47.1293C46.5434 68.4504 46.0945 68.3135 45.7825 68.0396C45.4705 67.7656 45.3146 67.3205 45.3146 66.7042V63.2231H44.5727V62.1616H45.3146V60.598H46.6271V62.1616H48.1565V63.2231H46.6271Z" fill="black"/>
<circle cx="60.6095" cy="62.6164" r="0.917155" fill="#2F3030"/>
<circle cx="60.6095" cy="66.2848" r="0.917155" fill="#2F3030"/>
<rect x="82.6221" y="51.4065" width="78.871" height="26.088" rx="4.8915" fill="#FFEFE3"/>
<path d="M95.8762 64.3758C96.3023 64.4519 96.6638 64.6764 96.9605 65.0492C97.2573 65.4221 97.4057 65.8444 97.4057 66.3161C97.4057 66.7194 97.2991 67.0846 97.0861 67.4118C96.8806 67.7314 96.5801 67.9863 96.1844 68.1765C95.7887 68.3591 95.3284 68.4504 94.8034 68.4504H91.6304V60.5181H94.655C95.1952 60.5181 95.6594 60.6094 96.0474 60.792C96.4355 60.9746 96.7285 61.2219 96.9263 61.5339C97.1241 61.8382 97.223 62.1806 97.223 62.5611C97.223 63.0176 97.1013 63.3981 96.8578 63.7024C96.6143 64.0068 96.2871 64.2313 95.8762 64.3758ZM92.9316 63.8508H94.5409C94.967 63.8508 95.298 63.7557 95.5338 63.5655C95.7773 63.3676 95.8991 63.0861 95.8991 62.7209C95.8991 62.3632 95.7773 62.0855 95.5338 61.8877C95.298 61.6822 94.967 61.5795 94.5409 61.5795H92.9316V63.8508ZM94.6892 67.389C95.1306 67.389 95.4768 67.2825 95.7279 67.0694C95.979 66.8564 96.1045 66.5596 96.1045 66.1792C96.1045 65.7911 95.9714 65.4829 95.705 65.2547C95.4387 65.0264 95.0849 64.9123 94.6436 64.9123H92.9316V67.389H94.6892ZM101.547 68.5532C100.954 68.5532 100.417 68.42 99.9381 68.1537C99.4587 67.8798 99.0821 67.4993 98.8082 67.0123C98.5342 66.5178 98.3973 65.9471 98.3973 65.3003C98.3973 64.6612 98.5381 64.0943 98.8196 63.5997C99.1011 63.1051 99.4854 62.7247 99.9723 62.4584C100.459 62.192 101.003 62.0589 101.604 62.0589C102.206 62.0589 102.75 62.192 103.237 62.4584C103.724 62.7247 104.108 63.1051 104.389 63.5997C104.671 64.0943 104.812 64.6612 104.812 65.3003C104.812 65.9395 104.667 66.5063 104.378 67.0009C104.089 67.4955 103.693 67.8798 103.191 68.1537C102.696 68.42 102.149 68.5532 101.547 68.5532ZM101.547 67.4232C101.882 67.4232 102.194 67.3433 102.483 67.1835C102.78 67.0238 103.02 66.7841 103.202 66.4645C103.385 66.1449 103.476 65.7569 103.476 65.3003C103.476 64.8438 103.389 64.4595 103.214 64.1476C103.039 63.828 102.807 63.5883 102.518 63.4285C102.228 63.2687 101.916 63.1888 101.582 63.1888C101.247 63.1888 100.935 63.2687 100.646 63.4285C100.364 63.5883 100.14 63.828 99.9723 64.1476C99.805 64.4595 99.7213 64.8438 99.7213 65.3003C99.7213 65.9775 99.8925 66.5025 100.235 66.8754C100.585 67.2406 101.022 67.4232 101.547 67.4232ZM108.826 68.5532C108.232 68.5532 107.696 68.42 107.216 68.1537C106.737 67.8798 106.36 67.4993 106.087 67.0123C105.813 66.5178 105.676 65.9471 105.676 65.3003C105.676 64.6612 105.816 64.0943 106.098 63.5997C106.379 63.1051 106.764 62.7247 107.251 62.4584C107.738 62.192 108.282 62.0589 108.883 62.0589C109.484 62.0589 110.028 62.192 110.515 62.4584C111.002 62.7247 111.386 63.1051 111.668 63.5997C111.949 64.0943 112.09 64.6612 112.09 65.3003C112.09 65.9395 111.945 66.5063 111.656 67.0009C111.367 67.4955 110.971 67.8798 110.469 68.1537C109.975 68.42 109.427 68.5532 108.826 68.5532ZM108.826 67.4232C109.161 67.4232 109.473 67.3433 109.762 67.1835C110.058 67.0238 110.298 66.7841 110.481 66.4645C110.663 66.1449 110.755 65.7569 110.755 65.3003C110.755 64.8438 110.667 64.4595 110.492 64.1476C110.317 63.828 110.085 63.5883 109.796 63.4285C109.507 63.2687 109.195 63.1888 108.86 63.1888C108.525 63.1888 108.213 63.2687 107.924 63.4285C107.643 63.5883 107.418 63.828 107.251 64.1476C107.083 64.4595 107 64.8438 107 65.3003C107 65.9775 107.171 66.5025 107.513 66.8754C107.863 67.2406 108.301 67.4232 108.826 67.4232ZM115.864 65.3117L118.763 68.4504H117.006L114.677 65.7454V68.4504H113.376V60.0045H114.677V64.9123L116.96 62.1616H118.763L115.864 65.3117ZM125.46 65.1519C125.46 65.3878 125.445 65.6009 125.414 65.7911H120.609C120.647 66.2933 120.834 66.6966 121.168 67.0009C121.503 67.3053 121.914 67.4575 122.401 67.4575C123.101 67.4575 123.596 67.1645 123.885 66.5786H125.289C125.098 67.1569 124.752 67.6325 124.25 68.0053C123.755 68.3705 123.139 68.5532 122.401 68.5532C121.8 68.5532 121.26 68.42 120.78 68.1537C120.309 67.8798 119.936 67.4993 119.662 67.0123C119.395 66.5178 119.262 65.9471 119.262 65.3003C119.262 64.6536 119.392 64.0867 119.65 63.5997C119.917 63.1051 120.286 62.7247 120.757 62.4584C121.237 62.192 121.785 62.0589 122.401 62.0589C122.995 62.0589 123.523 62.1882 123.987 62.4469C124.452 62.7056 124.813 63.0709 125.072 63.5426C125.33 64.0068 125.46 64.5432 125.46 65.1519ZM124.102 64.7411C124.094 64.2617 123.923 63.8774 123.588 63.5883C123.253 63.2992 122.839 63.1546 122.344 63.1546C121.895 63.1546 121.511 63.2992 121.191 63.5883C120.872 63.8698 120.681 64.2541 120.621 64.7411H124.102ZM126.307 65.2775C126.307 64.6459 126.436 64.0867 126.695 63.5997C126.961 63.1127 127.319 62.7361 127.767 62.4698C128.224 62.1958 128.73 62.0589 129.285 62.0589C129.696 62.0589 130.1 62.1502 130.495 62.3328C130.899 62.5078 131.218 62.7437 131.454 63.0404V60.0045H132.767V68.4504H131.454V67.5031C131.241 67.8075 130.944 68.0586 130.564 68.2564C130.191 68.4542 129.761 68.5532 129.274 68.5532C128.726 68.5532 128.224 68.4162 127.767 68.1423C127.319 67.8607 126.961 67.4727 126.695 66.9781C126.436 66.4759 126.307 65.909 126.307 65.2775ZM131.454 65.3003C131.454 64.8666 131.363 64.49 131.18 64.1704C131.005 63.8508 130.773 63.6073 130.484 63.4399C130.195 63.2725 129.883 63.1888 129.548 63.1888C129.213 63.1888 128.901 63.2725 128.612 63.4399C128.323 63.5997 128.087 63.8394 127.904 64.159C127.729 64.4709 127.642 64.8438 127.642 65.2775C127.642 65.7112 127.729 66.0917 127.904 66.4188C128.087 66.746 128.323 66.9971 128.612 67.1721C128.909 67.3395 129.221 67.4232 129.548 67.4232C129.883 67.4232 130.195 67.3395 130.484 67.1721C130.773 67.0047 131.005 66.7612 131.18 66.4417C131.363 66.1145 131.454 65.734 131.454 65.3003Z" fill="black"/>
<circle cx="145.188" cy="62.6164" r="0.917155" fill="#2F3030"/>
<circle cx="145.188" cy="66.2848" r="0.917155" fill="#2F3030"/>
<rect x="167.199" y="51.4065" width="100.871" height="26.088" rx="4.8915" fill="#DDFFD6"/>
<path d="M177.509 60.5181V68.4504H176.208V60.5181H177.509ZM182.39 62.0589C182.885 62.0589 183.326 62.1616 183.714 62.367C184.11 62.5725 184.418 62.8769 184.638 63.2801C184.859 63.6834 184.969 64.1704 184.969 64.7411V68.4504H183.68V64.9351C183.68 64.372 183.539 63.9421 183.257 63.6454C182.976 63.341 182.592 63.1888 182.105 63.1888C181.618 63.1888 181.23 63.341 180.94 63.6454C180.659 63.9421 180.518 64.372 180.518 64.9351V68.4504H179.217V62.1616H180.518V62.8807C180.731 62.622 181.001 62.4203 181.328 62.2757C181.663 62.1312 182.017 62.0589 182.39 62.0589ZM190.895 63.0861C191.116 62.797 191.416 62.5535 191.797 62.3556C192.177 62.1578 192.607 62.0589 193.086 62.0589C193.634 62.0589 194.133 62.1958 194.582 62.4698C195.038 62.7361 195.396 63.1127 195.654 63.5997C195.913 64.0867 196.043 64.6459 196.043 65.2775C196.043 65.909 195.913 66.4759 195.654 66.9781C195.396 67.4727 195.038 67.8607 194.582 68.1423C194.133 68.4162 193.634 68.5532 193.086 68.5532C192.607 68.5532 192.181 68.458 191.808 68.2678C191.435 68.07 191.131 67.8265 190.895 67.5374V71.4408H189.594V62.1616H190.895V63.0861ZM194.719 65.2775C194.719 64.8438 194.627 64.4709 194.445 64.159C194.27 63.8394 194.034 63.5997 193.737 63.4399C193.448 63.2725 193.136 63.1888 192.801 63.1888C192.474 63.1888 192.162 63.2725 191.865 63.4399C191.576 63.6073 191.34 63.8508 191.158 64.1704C190.983 64.49 190.895 64.8666 190.895 65.3003C190.895 65.734 190.983 66.1145 191.158 66.4417C191.34 66.7612 191.576 67.0047 191.865 67.1721C192.162 67.3395 192.474 67.4232 192.801 67.4232C193.136 67.4232 193.448 67.3395 193.737 67.1721C194.034 66.9971 194.27 66.746 194.445 66.4188C194.627 66.0917 194.719 65.7112 194.719 65.2775ZM198.63 63.0747C198.821 62.7551 199.072 62.5078 199.384 62.3328C199.703 62.1502 200.08 62.0589 200.514 62.0589V63.4057H200.183C199.673 63.4057 199.285 63.535 199.018 63.7937C198.76 64.0524 198.63 64.5014 198.63 65.1405V68.4504H197.329V62.1616H198.63V63.0747ZM204.437 68.5532C203.844 68.5532 203.307 68.42 202.828 68.1537C202.349 67.8798 201.972 67.4993 201.698 67.0123C201.424 66.5178 201.287 65.9471 201.287 65.3003C201.287 64.6612 201.428 64.0943 201.71 63.5997C201.991 63.1051 202.375 62.7247 202.862 62.4584C203.349 62.192 203.893 62.0589 204.494 62.0589C205.096 62.0589 205.64 62.192 206.127 62.4584C206.614 62.7247 206.998 63.1051 207.279 63.5997C207.561 64.0943 207.702 64.6612 207.702 65.3003C207.702 65.9395 207.557 66.5063 207.268 67.0009C206.979 67.4955 206.583 67.8798 206.081 68.1537C205.586 68.42 205.039 68.5532 204.437 68.5532ZM204.437 67.4232C204.772 67.4232 205.084 67.3433 205.373 67.1835C205.67 67.0238 205.91 66.7841 206.092 66.4645C206.275 66.1449 206.366 65.7569 206.366 65.3003C206.366 64.8438 206.279 64.4595 206.104 64.1476C205.929 63.828 205.697 63.5883 205.408 63.4285C205.118 63.2687 204.806 63.1888 204.472 63.1888C204.137 63.1888 203.825 63.2687 203.536 63.4285C203.254 63.5883 203.03 63.828 202.862 64.1476C202.695 64.4595 202.611 64.8438 202.611 65.3003C202.611 65.9775 202.782 66.5025 203.125 66.8754C203.475 67.2406 203.912 67.4232 204.437 67.4232ZM211.522 62.0589C212.009 62.0589 212.439 62.1578 212.811 62.3556C213.192 62.5459 213.489 62.7855 213.702 63.0747V62.1616H215.014V68.5532C215.014 69.1314 214.892 69.6451 214.649 70.094C214.406 70.5505 214.052 70.9081 213.588 71.1668C213.131 71.4256 212.583 71.5549 211.944 71.5549C211.092 71.5549 210.384 71.3533 209.821 70.95C209.258 70.5543 208.938 70.0141 208.862 69.3293H210.152C210.251 69.6565 210.46 69.919 210.78 70.1168C211.107 70.3223 211.495 70.425 211.944 70.425C212.469 70.425 212.891 70.2652 213.211 69.9456C213.538 69.626 213.702 69.1619 213.702 68.5532V67.5031C213.481 67.7999 213.18 68.051 212.8 68.2564C212.427 68.4542 212.001 68.5532 211.522 68.5532C210.974 68.5532 210.472 68.4162 210.015 68.1423C209.566 67.8607 209.209 67.4727 208.942 66.9781C208.684 66.4759 208.554 65.909 208.554 65.2775C208.554 64.6459 208.684 64.0867 208.942 63.5997C209.209 63.1127 209.566 62.7361 210.015 62.4698C210.472 62.1958 210.974 62.0589 211.522 62.0589ZM213.702 65.3003C213.702 64.8666 213.61 64.49 213.428 64.1704C213.253 63.8508 213.021 63.6073 212.732 63.4399C212.442 63.2725 212.13 63.1888 211.796 63.1888C211.461 63.1888 211.149 63.2725 210.86 63.4399C210.571 63.5997 210.335 63.8394 210.152 64.159C209.977 64.4709 209.89 64.8438 209.89 65.2775C209.89 65.7112 209.977 66.0917 210.152 66.4188C210.335 66.746 210.571 66.9971 210.86 67.1721C211.156 67.3395 211.468 67.4232 211.796 67.4232C212.13 67.4232 212.442 67.3395 212.732 67.1721C213.021 67.0047 213.253 66.7612 213.428 66.4417C213.61 66.1145 213.702 65.734 213.702 65.3003ZM218.024 63.0747C218.215 62.7551 218.466 62.5078 218.778 62.3328C219.097 62.1502 219.474 62.0589 219.908 62.0589V63.4057H219.577C219.067 63.4057 218.679 63.535 218.412 63.7937C218.154 64.0524 218.024 64.5014 218.024 65.1405V68.4504H216.723V62.1616H218.024V63.0747ZM226.867 65.1519C226.867 65.3878 226.852 65.6009 226.822 65.7911H222.017C222.055 66.2933 222.241 66.6966 222.576 67.0009C222.911 67.3053 223.322 67.4575 223.809 67.4575C224.509 67.4575 225.003 67.1645 225.292 66.5786H226.696C226.506 67.1569 226.16 67.6325 225.658 68.0053C225.163 68.3705 224.547 68.5532 223.809 68.5532C223.207 68.5532 222.667 68.42 222.188 68.1537C221.716 67.8798 221.343 67.4993 221.069 67.0123C220.803 66.5178 220.67 65.9471 220.67 65.3003C220.67 64.6536 220.799 64.0867 221.058 63.5997C221.324 63.1051 221.693 62.7247 222.165 62.4584C222.644 62.192 223.192 62.0589 223.809 62.0589C224.402 62.0589 224.931 62.1882 225.395 62.4469C225.859 62.7056 226.221 63.0709 226.479 63.5426C226.738 64.0068 226.867 64.5432 226.867 65.1519ZM225.509 64.7411C225.502 64.2617 225.33 63.8774 224.996 63.5883C224.661 63.2992 224.246 63.1546 223.752 63.1546C223.303 63.1546 222.918 63.2992 222.599 63.5883C222.279 63.8698 222.089 64.2541 222.028 64.7411H225.509ZM230.431 68.5532C229.936 68.5532 229.491 68.4657 229.095 68.2907C228.707 68.108 228.399 67.8645 228.171 67.5602C227.942 67.2482 227.821 66.902 227.805 66.5216H229.152C229.175 66.7879 229.301 67.0123 229.529 67.195C229.765 67.37 230.058 67.4575 230.408 67.4575C230.773 67.4575 231.055 67.389 231.252 67.252C231.458 67.1075 231.561 66.9248 231.561 66.7042C231.561 66.4683 231.446 66.2933 231.218 66.1792C230.997 66.065 230.644 65.9395 230.157 65.8025C229.685 65.6732 229.301 65.5476 229.004 65.4259C228.707 65.3041 228.448 65.1177 228.228 64.8666C228.015 64.6155 227.908 64.2845 227.908 63.8736C227.908 63.5388 228.007 63.2345 228.205 62.9606C228.403 62.679 228.684 62.4584 229.05 62.2986C229.422 62.1388 229.848 62.0589 230.328 62.0589C231.043 62.0589 231.618 62.2415 232.051 62.6067C232.493 62.9644 232.728 63.4551 232.759 64.0791H231.458C231.435 63.7975 231.321 63.5731 231.115 63.4057C230.91 63.2383 230.632 63.1546 230.282 63.1546C229.94 63.1546 229.677 63.2193 229.495 63.3486C229.312 63.478 229.221 63.6492 229.221 63.8622C229.221 64.0296 229.282 64.1704 229.403 64.2845C229.525 64.3987 229.673 64.49 229.848 64.5584C230.023 64.6193 230.282 64.6992 230.625 64.7981C231.081 64.9199 231.454 65.0454 231.743 65.1748C232.04 65.2965 232.295 65.4791 232.508 65.7226C232.721 65.9661 232.831 66.2895 232.839 66.6928C232.839 67.0504 232.74 67.37 232.542 67.6515C232.344 67.933 232.063 68.1537 231.697 68.3135C231.34 68.4733 230.918 68.5532 230.431 68.5532ZM236.527 68.5532C236.033 68.5532 235.588 68.4657 235.192 68.2907C234.804 68.108 234.496 67.8645 234.268 67.5602C234.039 67.2482 233.918 66.902 233.902 66.5216H235.249C235.272 66.7879 235.397 67.0123 235.626 67.195C235.862 67.37 236.155 67.4575 236.505 67.4575C236.87 67.4575 237.151 67.389 237.349 67.252C237.555 67.1075 237.657 66.9248 237.657 66.7042C237.657 66.4683 237.543 66.2933 237.315 66.1792C237.094 66.065 236.74 65.9395 236.253 65.8025C235.782 65.6732 235.397 65.5476 235.101 65.4259C234.804 65.3041 234.545 65.1177 234.325 64.8666C234.112 64.6155 234.005 64.2845 234.005 63.8736C234.005 63.5388 234.104 63.2345 234.302 62.9606C234.5 62.679 234.781 62.4584 235.146 62.2986C235.519 62.1388 235.945 62.0589 236.425 62.0589C237.14 62.0589 237.714 62.2415 238.148 62.6067C238.589 62.9644 238.825 63.4551 238.856 64.0791H237.555C237.532 63.7975 237.418 63.5731 237.212 63.4057C237.007 63.2383 236.729 63.1546 236.379 63.1546C236.037 63.1546 235.774 63.2193 235.592 63.3486C235.409 63.478 235.318 63.6492 235.318 63.8622C235.318 64.0296 235.378 64.1704 235.5 64.2845C235.622 64.3987 235.77 64.49 235.945 64.5584C236.12 64.6193 236.379 64.6992 236.721 64.7981C237.178 64.9199 237.551 65.0454 237.84 65.1748C238.137 65.2965 238.392 65.4791 238.605 65.7226C238.818 65.9661 238.928 66.2895 238.936 66.6928C238.936 67.0504 238.837 67.37 238.639 67.6515C238.441 67.933 238.16 68.1537 237.794 68.3135C237.437 68.4733 237.014 68.5532 236.527 68.5532Z" fill="black"/>
<circle cx="251.765" cy="62.6164" r="0.917155" fill="#2F3030"/>
<circle cx="251.765" cy="66.2848" r="0.917155" fill="#2F3030"/>
<rect x="6.74805" y="6.25269" width="288.503" height="80.2896" rx="13.5" stroke="#9327FF" stroke-opacity="0.2"/>
<rect x="0.5" y="0.5" width="301" height="92" rx="19.5" stroke="#9327FF" stroke-opacity="0.2"/>
</svg>
