<svg width="311" height="243" viewBox="0 0 311 243" fill="none" xmlns="http://www.w3.org/2000/svg">
<g clip-path="url(#clip0_1182_65896)">
<rect x="6" y="6" width="299" height="231.227" rx="14" fill="white"/>
<g filter="url(#filter0_d_1182_65896)">
<rect width="310" height="47.84" transform="translate(1 4)" fill="white"/>
<path d="M31.7815 23.7683C27.745 23.7683 24.4727 27.0405 24.4727 31.0772C24.4727 35.1139 27.745 38.3861 31.7815 38.3861C35.8181 38.3861 39.0904 35.1139 39.0904 31.0772C39.0904 27.0405 35.8181 23.7683 31.7815 23.7683ZM31.7815 27.4228C32.1852 27.4228 32.5124 27.7502 32.5124 28.1536V30.3463H34.7051C35.1088 30.3463 35.436 30.6737 35.436 31.0772C35.436 31.4807 35.1088 31.8081 34.7051 31.8081H32.5124V34.0008C32.5124 34.4042 32.1852 34.7316 31.7815 34.7316C31.3779 34.7316 31.0507 34.4042 31.0507 34.0008V31.8081H28.858C28.4543 31.8081 28.1271 31.4807 28.1271 31.0772C28.1271 30.6737 28.4543 30.3463 28.858 30.3463H31.0507V28.1536C31.0507 27.7502 31.3779 27.4228 31.7815 27.4228Z" fill="#676666"/>
<path d="M58.4183 24.656C58.0986 24.6568 57.7637 24.8346 57.6465 25.2046L54.1079 36.3672C53.9748 36.7866 54.1869 37.2299 54.6063 37.3639C55.0257 37.497 55.4698 37.2849 55.6029 36.8655L56.6993 33.4267H60.1629L61.2839 36.8655C61.4203 37.2841 61.862 37.4994 62.2806 37.3639C62.6992 37.2275 62.9145 36.7858 62.7789 36.3672L59.1662 25.2046C59.0466 24.8354 58.7388 24.6552 58.4183 24.656ZM66.4666 27.8453C65.2483 27.8453 64.0818 28.7758 63.6759 29.9886C63.5364 30.4056 63.7565 30.8449 64.1743 30.9852C64.5921 31.1248 65.0314 30.9039 65.1709 30.4869C65.3671 29.9009 65.9619 29.44 66.4666 29.44H67.1643C67.8268 29.44 68.4105 30.1289 68.4105 31.0347V31.832C67.704 31.832 66.8302 31.832 66.4666 31.832C64.899 31.832 63.6265 33.0766 63.6265 34.6227C63.6265 36.1695 64.899 37.4157 66.4666 37.4133C66.5065 37.4133 66.7616 37.4141 66.8405 37.4133C67.4521 37.4069 68.0118 37.2028 68.5101 36.8903C68.6274 37.1845 68.8713 37.4133 69.2078 37.4133C69.6479 37.4133 70.0051 37.0561 70.0051 36.616V34.224C70.0067 34.0582 70.0051 32.6907 70.0051 32.6293V31.0347C70.0051 29.2981 68.7669 27.8453 67.1643 27.8453H66.4666ZM58.4183 28.0694L59.6398 31.832H57.2223L58.4183 28.0694ZM66.4666 33.4267C66.8302 33.4267 67.7064 33.4267 68.4105 33.4267C68.4105 33.7887 68.4113 34.1219 68.4105 34.1993C68.3969 35.184 67.6634 35.8099 66.8158 35.8187C66.7608 35.8195 66.5328 35.8187 66.4666 35.8187C65.7713 35.8195 65.2211 35.2789 65.2211 34.6227C65.2211 33.9673 65.7697 33.4267 66.4666 33.4267Z" fill="#2DA2F6"/>
<path d="M86.7007 24.6683C86.2603 24.6683 85.9033 25.0255 85.9033 25.4656V36.6283C85.9033 37.0684 86.2603 37.4256 86.7007 37.4256C87.141 37.4256 87.498 37.0684 87.498 36.6283V31.8443H92.282V36.6283C92.282 37.0684 92.639 37.4256 93.0793 37.4256C93.5197 37.4256 93.8767 37.0684 93.8767 36.6283V25.4656C93.8767 25.0255 93.5197 24.6683 93.0793 24.6683C92.639 24.6683 92.282 25.0255 92.282 25.4656V30.2496H87.498V25.4656C87.498 25.0255 87.141 24.6683 86.7007 24.6683ZM99.757 24.7177C99.4795 24.6029 99.1361 24.6412 98.8849 24.8924L95.6955 28.0817C95.3842 28.3934 95.3842 28.9165 95.6955 29.2282C96.007 29.5392 96.5303 29.5392 96.8418 29.2282L98.6607 27.4087V36.6283C98.6607 37.0684 99.0176 37.4256 99.458 37.4256C99.8984 37.4256 100.255 37.0684 100.255 36.6283V25.4656C100.255 25.1108 100.034 24.8334 99.757 24.7177Z" fill="#676666"/>
<path d="M116.98 24.7288C116.54 24.7288 116.183 25.0857 116.183 25.5261V36.6888C116.183 37.1291 116.54 37.4861 116.98 37.4861C117.42 37.4861 117.777 37.1291 117.777 36.6888V25.5261C117.777 25.0857 117.42 24.7288 116.98 24.7288ZM120.169 28.7154C119.729 28.7154 119.372 29.0724 119.372 29.5128C119.372 29.9531 119.729 30.3101 120.169 30.3101H126.548C126.988 30.3101 127.345 29.9531 127.345 29.5128C127.345 29.0724 126.988 28.7154 126.548 28.7154H120.169ZM120.169 31.9048C119.729 31.9048 119.372 32.2617 119.372 32.7021C119.372 33.1425 119.729 33.4994 120.169 33.4994H131.332C131.772 33.4994 132.129 33.1425 132.129 32.7021C132.129 32.2617 131.772 31.9048 131.332 31.9048H120.169Z" fill="#676666"/>
<path d="M151.215 23.9258C149.453 23.9258 148.025 25.3538 148.025 27.1151V34.2911V35.0884C148.025 36.8498 149.453 38.2778 151.215 38.2778H159.188C160.949 38.2778 162.377 36.8498 162.377 35.0884V34.2911V27.1151C162.377 25.3538 160.949 23.9258 159.188 23.9258H151.215ZM151.215 25.5204H159.188C160.069 25.5204 160.783 26.2341 160.783 27.1151L160.786 32.0554C160.166 31.4797 159.533 31.1193 158.839 31.1018C158.814 31.101 158.815 31.1018 158.789 31.1018C157.883 31.1018 156.875 31.7986 156.198 32.6717C156.025 32.281 155.85 31.8951 155.65 31.5252C154.709 29.7878 153.681 28.7122 152.411 28.7098C151.331 28.7074 150.405 29.59 149.614 30.7988L149.62 27.1151C149.62 26.2341 150.334 25.5204 151.215 25.5204ZM158.391 27.1151C157.951 27.1151 157.593 27.4723 157.593 27.9124C157.593 28.3526 157.951 28.7098 158.391 28.7098C158.831 28.7098 159.188 28.3526 159.188 27.9124C159.188 27.4723 158.831 27.1151 158.391 27.1151ZM152.411 30.3044C152.875 30.3052 153.58 31.0276 154.254 32.2731C154.522 32.7658 154.762 33.3088 154.977 33.843C155.107 34.1619 155.206 34.4059 155.251 34.5399C155.469 35.1913 156.352 35.2838 156.696 34.6898C156.731 34.6308 156.793 34.5176 156.896 34.3661C157.068 34.1109 157.264 33.8526 157.469 33.6182C157.981 33.0313 158.474 32.6964 158.789 32.6964C159.108 32.7044 159.599 33.0385 160.11 33.6182C160.317 33.8534 160.508 34.1109 160.683 34.3661C160.738 34.4458 160.746 34.4833 160.783 34.5399V35.0884C160.783 35.9695 160.069 36.6831 159.188 36.6831H151.215C150.334 36.6831 149.62 35.9695 149.62 35.0884V34.4155C149.67 34.2736 149.737 34.1053 149.844 33.843C150.062 33.3088 150.298 32.7666 150.567 32.2731C151.247 31.0252 151.947 30.3037 152.411 30.3044Z" fill="#676666"/>
<path d="M179.082 26.4077C178.642 26.4077 178.285 26.7649 178.285 27.205C178.285 27.6452 178.642 28.0024 179.082 28.0024H193.434C193.875 28.0024 194.232 27.6452 194.232 27.205C194.232 26.7649 193.875 26.4077 193.434 26.4077H179.082ZM179.082 30.3944C178.642 30.3944 178.285 30.7516 178.285 31.1917C178.285 31.6318 178.642 31.989 179.082 31.989H193.434C193.875 31.989 194.232 31.6318 194.232 31.1917C194.232 30.7516 193.875 30.3944 193.434 30.3944H179.082ZM179.082 34.381C178.642 34.381 178.285 34.7383 178.285 35.1784C178.285 35.6185 178.642 35.9757 179.082 35.9757H193.434C193.875 35.9757 194.232 35.6185 194.232 35.1784C194.232 34.7383 193.875 34.381 193.434 34.381H179.082Z" fill="#676666"/>
<path d="M216.693 24.7472C216.262 24.6555 215.838 24.9146 215.746 25.3452L215.198 27.9118H213.329C212.889 27.9118 212.532 28.269 212.532 28.7091C212.532 29.1492 212.889 29.5064 213.329 29.5064H214.849L214.176 32.6958H212.532C212.092 32.6958 211.734 33.053 211.734 33.4931C211.734 33.9332 212.092 34.2904 212.532 34.2904H213.827L213.354 36.5078C213.262 36.9384 213.521 37.3626 213.952 37.455C214.382 37.5475 214.806 37.2876 214.899 36.857L215.447 34.2904H217.814L217.34 36.5078C217.249 36.9384 217.508 37.3626 217.938 37.455C218.369 37.5475 218.793 37.2876 218.886 36.857L219.433 34.2904H221.302C221.743 34.2904 222.1 33.9332 222.1 33.4931C222.1 33.053 221.743 32.6958 221.302 32.6958H219.783L220.456 29.5064H222.1C222.54 29.5064 222.897 29.1492 222.897 28.7091C222.897 28.269 222.54 27.9118 222.1 27.9118H220.804L221.278 25.6944C221.369 25.2638 221.11 24.8396 220.68 24.7472C220.249 24.6555 219.825 24.9146 219.732 25.3452L219.185 27.9118H216.817L217.291 25.6944C217.383 25.2638 217.124 24.8396 216.693 24.7472ZM216.469 29.5064H218.835L218.162 32.6958H215.796L216.469 29.5064Z" fill="#676666"/>
<path d="M243.601 24.7288C241.84 24.7288 240.412 26.1568 240.412 27.9181V37.4861C240.412 38.1431 241.157 38.5035 241.683 38.1088L244.648 35.8914H253.169C254.931 35.8914 256.359 34.4634 256.359 32.7021V27.9181C256.359 26.1568 254.931 24.7288 253.169 24.7288H243.601ZM243.601 26.3234H253.169C254.05 26.3234 254.764 27.037 254.764 27.9181V32.7021C254.764 33.5831 254.05 34.2968 253.169 34.2968H244.399C244.227 34.2968 244.063 34.343 243.925 34.4467L242.007 35.8914V27.9181C242.007 27.037 242.72 26.3234 243.601 26.3234Z" fill="#676666"/>
<path d="M277.014 23.4992C275.883 23.858 274.908 24.4432 274.048 25.2437C273.783 25.4909 273.702 25.896 273.874 26.2149C274.512 27.3957 273.844 28.6595 272.403 28.7321C272.051 28.7496 271.739 29.0111 271.656 29.3548C271.514 29.9488 271.457 30.4463 271.457 31.0986C271.457 31.6463 271.516 32.2666 271.632 32.8184C271.703 33.1629 272.003 33.4108 272.354 33.4411C273.804 33.5663 274.521 34.6722 273.874 36.0819C273.73 36.3952 273.796 36.77 274.048 37.0044C274.895 37.7874 275.868 38.3399 277.014 38.6987C277.341 38.8008 277.71 38.6772 277.911 38.3997C278.797 37.1726 280.083 37.1687 280.925 38.3997C281.124 38.6892 281.487 38.8287 281.822 38.7235C282.928 38.375 283.958 37.7826 284.812 37.0044C285.075 36.7644 285.145 36.3761 284.987 36.0572C284.324 34.7184 285.087 33.4898 286.456 33.4658C286.82 33.4595 287.144 33.2211 287.229 32.8678C287.367 32.2961 287.404 31.7986 287.404 31.0986C287.404 30.4974 287.333 29.9049 287.204 29.3301C287.123 28.9657 286.805 28.7074 286.432 28.7066C285.083 28.7042 284.328 27.379 284.987 26.2149C285.17 25.8912 285.113 25.4941 284.837 25.2437C283.968 24.4544 282.908 23.8372 281.798 23.4992C281.456 23.3955 281.094 23.5231 280.901 23.8229C280.13 25.0197 278.692 25.0404 277.935 23.8484C277.742 23.5422 277.358 23.3899 277.014 23.4992ZM281.86 25.1927C282.404 25.4207 282.834 25.6591 283.328 26.0331C282.749 27.8646 283.73 29.767 285.764 30.2303C285.814 30.5596 285.809 30.7589 285.809 31.0986C285.809 31.5044 285.815 31.6471 285.768 31.9405C283.744 32.3599 282.742 34.209 283.306 36.1632C282.821 36.5148 282.475 36.7588 281.866 36.994C280.437 35.5397 278.454 35.4759 276.995 37.0036C276.425 36.7533 275.987 36.5308 275.545 36.1568C276.094 34.1723 275.166 32.4588 273.108 31.9389C273.016 31.5754 273.052 30.5484 273.105 30.2366C275.234 29.7264 276.073 27.8422 275.544 26.0275C276.011 25.6759 276.432 25.42 276.978 25.1983C278.353 26.5976 280.418 26.7371 281.86 25.1927ZM279.43 27.9092C277.669 27.9092 276.241 29.3372 276.241 31.0986C276.241 32.8607 277.669 34.2879 279.43 34.2879C281.192 34.2879 282.62 32.8607 282.62 31.0986C282.62 29.3372 281.192 27.9092 279.43 27.9092ZM279.43 29.5039C280.311 29.5039 281.025 30.2183 281.025 31.0986C281.025 31.9796 280.311 32.6932 279.43 32.6932C278.549 32.6932 277.836 31.9796 277.836 31.0986C277.836 30.2183 278.549 29.5039 279.43 29.5039Z" fill="#676666"/>
</g>
<path d="M33.4997 75.2905C32.8392 75.2905 32.3037 75.7944 32.3037 76.4163C32.3037 76.9793 32.3037 80.356 32.3037 80.9189V86.922C32.3037 87.5439 32.8392 88.0478 33.4997 88.0478C33.6782 88.0478 35.4096 88.0478 36.689 88.0478C39.111 88.0478 41.0744 86.1996 41.0744 83.9208C41.0744 82.6339 40.4422 81.4938 39.5043 80.7682C40.011 80.1853 40.277 79.4789 40.277 78.6672C40.277 76.8023 38.6706 75.2905 36.689 75.2905C36.0883 75.2905 33.9246 75.2905 33.4997 75.2905ZM34.6957 77.5422C35.4861 77.5422 36.3136 77.5422 36.689 77.5422C37.3496 77.5422 37.885 78.0461 37.885 78.6672C37.885 79.2891 37.3496 79.793 36.689 79.793C36.3236 79.793 35.4868 79.793 34.6957 79.793C34.6957 78.9837 34.6957 78.3507 34.6957 77.5422ZM34.6957 82.0447C35.4881 82.0447 36.3189 82.0447 36.689 82.0447C37.7899 82.0447 38.6824 82.8843 38.6824 83.9208C38.6824 84.9565 37.7899 85.7962 36.689 85.7962C35.8894 85.7962 35.359 85.7962 34.6957 85.7962V82.0447Z" fill="#2F3030"/>
<path d="M54.0464 81.2591C54.4631 81.3335 54.8166 81.553 55.1068 81.9177C55.397 82.2823 55.5422 82.6953 55.5422 83.1567C55.5422 83.5511 55.438 83.9083 55.2296 84.2283C55.0287 84.5409 54.7347 84.7902 54.3477 84.9762C53.9608 85.1548 53.5105 85.2441 52.9971 85.2441H49.8938V77.4861H52.8519C53.3803 77.4861 53.8343 77.5754 54.2138 77.754C54.5933 77.9326 54.8798 78.1745 55.0733 78.4796C55.2668 78.7772 55.3635 79.1121 55.3635 79.4842C55.3635 79.9307 55.2445 80.3028 55.0063 80.6005C54.7682 80.8981 54.4482 81.1177 54.0464 81.2591ZM51.1664 80.7456H52.7403C53.1571 80.7456 53.4808 80.6526 53.7115 80.4665C53.9496 80.273 54.0687 79.9977 54.0687 79.6405C54.0687 79.2907 53.9496 79.0191 53.7115 78.8256C53.4808 78.6247 53.1571 78.5242 52.7403 78.5242H51.1664V80.7456ZM52.8854 84.206C53.3171 84.206 53.6557 84.1018 53.9012 83.8935C54.1468 83.6851 54.2696 83.3949 54.2696 83.0228C54.2696 82.6432 54.1394 82.3418 53.8789 82.1186C53.6185 81.8953 53.2724 81.7837 52.8408 81.7837H51.1664V84.206H52.8854ZM59.5929 85.3446C59.0124 85.3446 58.4878 85.2144 58.019 84.9539C57.5501 84.686 57.1818 84.3139 56.9139 83.8376C56.6459 83.3539 56.512 82.7958 56.512 82.1632C56.512 81.5381 56.6497 80.9837 56.925 80.5C57.2004 80.0163 57.5762 79.6442 58.0524 79.3837C58.5287 79.1233 59.0608 78.993 59.6487 78.993C60.2366 78.993 60.7687 79.1233 61.245 79.3837C61.7212 79.6442 62.097 80.0163 62.3724 80.5C62.6477 80.9837 62.7854 81.5381 62.7854 82.1632C62.7854 82.7884 62.644 83.3428 62.3612 83.8265C62.0784 84.3102 61.6915 84.686 61.2003 84.9539C60.7166 85.2144 60.1808 85.3446 59.5929 85.3446ZM59.5929 84.2395C59.9203 84.2395 60.2254 84.1614 60.5082 84.0051C60.7985 83.8488 61.0329 83.6144 61.2115 83.3018C61.3901 82.9893 61.4794 82.6098 61.4794 82.1632C61.4794 81.7167 61.3938 81.3409 61.2226 81.0358C61.0515 80.7233 60.8245 80.4888 60.5417 80.3326C60.2589 80.1763 59.9538 80.0982 59.6264 80.0982C59.2989 80.0982 58.9938 80.1763 58.711 80.3326C58.4357 80.4888 58.2162 80.7233 58.0524 81.0358C57.8887 81.3409 57.8069 81.7167 57.8069 82.1632C57.8069 82.8256 57.9743 83.339 58.3092 83.7037C58.6515 84.0609 59.0794 84.2395 59.5929 84.2395ZM65.3159 76.9838V85.2441H64.0434V76.9838H65.3159ZM66.5625 82.1409C66.5625 81.5233 66.689 80.9763 66.942 80.5C67.2025 80.0237 67.5523 79.6554 67.9913 79.3949C68.4378 79.127 68.9327 78.993 69.476 78.993C69.8778 78.993 70.2722 79.0823 70.6592 79.261C71.0536 79.4321 71.3662 79.6628 71.5969 79.953V76.9838H72.8806V85.2441H71.5969V84.3176C71.3885 84.6153 71.0983 84.8609 70.7262 85.0544C70.3615 85.2479 69.9411 85.3446 69.4648 85.3446C68.929 85.3446 68.4378 85.2107 67.9913 84.9427C67.5523 84.6674 67.2025 84.2879 66.942 83.8042C66.689 83.313 66.5625 82.7586 66.5625 82.1409ZM71.5969 82.1632C71.5969 81.7391 71.5076 81.3707 71.329 81.0581C71.1578 80.7456 70.9308 80.5074 70.648 80.3437C70.3652 80.18 70.0601 80.0982 69.7327 80.0982C69.4053 80.0982 69.1001 80.18 68.8174 80.3437C68.5346 80.5 68.3039 80.7344 68.1253 81.047C67.9541 81.3521 67.8685 81.7167 67.8685 82.1409C67.8685 82.5651 67.9541 82.9372 68.1253 83.2572C68.3039 83.5772 68.5346 83.8228 68.8174 83.9939C69.1076 84.1576 69.4127 84.2395 69.7327 84.2395C70.0601 84.2395 70.3652 84.1576 70.648 83.9939C70.9308 83.8302 71.1578 83.5921 71.329 83.2795C71.5076 82.9595 71.5969 82.5874 71.5969 82.1632Z" fill="#676666"/>
<rect x="19.1565" y="65.3987" width="132.756" height="32.6907" rx="4.38533" stroke="#E3E3E3" stroke-width="0.797333"/>
<path d="M173.033 75.2905C172.593 75.2905 172.235 75.6477 172.235 76.0879V80.8718C172.235 83.0733 174.021 84.8585 176.222 84.8585C178.423 84.8585 180.209 83.0733 180.209 80.8718V76.0879C180.209 75.6477 179.851 75.2905 179.411 75.2905C178.971 75.2905 178.614 75.6477 178.614 76.0879V80.8718C178.614 82.193 177.543 83.2638 176.222 83.2638C174.901 83.2638 173.83 82.193 173.83 80.8718V76.0879C173.83 75.6477 173.473 75.2905 173.033 75.2905ZM173.033 86.4532C172.593 86.4532 172.235 86.8104 172.235 87.2505C172.235 87.6906 172.593 88.0478 173.033 88.0478H179.411C179.851 88.0478 180.209 87.6906 180.209 87.2505C180.209 86.8104 179.851 86.4532 179.411 86.4532H173.033Z" fill="#2F3030"/>
<path d="M191.087 77.4861V82.4311C191.087 83.019 191.239 83.4618 191.545 83.7595C191.857 84.0572 192.289 84.206 192.839 84.206C193.398 84.206 193.829 84.0572 194.134 83.7595C194.447 83.4618 194.603 83.019 194.603 82.4311V77.4861H195.876V82.4088C195.876 83.0414 195.738 83.5772 195.463 84.0162C195.187 84.4553 194.819 84.7828 194.358 84.9986C193.896 85.2144 193.386 85.3223 192.828 85.3223C192.27 85.3223 191.76 85.2144 191.299 84.9986C190.845 84.7828 190.484 84.4553 190.216 84.0162C189.948 83.5772 189.814 83.0414 189.814 82.4088V77.4861H191.087ZM200.636 78.993C201.119 78.993 201.551 79.0935 201.931 79.2944C202.318 79.4954 202.619 79.793 202.835 80.1875C203.051 80.5819 203.159 81.0581 203.159 81.6163V85.2441H201.897V81.806C201.897 81.2553 201.759 80.8349 201.484 80.5447C201.209 80.247 200.833 80.0982 200.357 80.0982C199.88 80.0982 199.501 80.247 199.218 80.5447C198.943 80.8349 198.805 81.2553 198.805 81.806V85.2441H197.533V79.0935H198.805V79.7968C199.013 79.5437 199.278 79.3465 199.598 79.2051C199.925 79.0637 200.271 78.993 200.636 78.993ZM204.358 82.1409C204.358 81.5233 204.484 80.9763 204.737 80.5C204.998 80.0237 205.347 79.6554 205.786 79.3949C206.233 79.127 206.728 78.993 207.271 78.993C207.673 78.993 208.067 79.0823 208.454 79.261C208.849 79.4321 209.161 79.6628 209.392 79.953V76.9838H210.676V85.2441H209.392V84.3176C209.184 84.6153 208.893 84.8609 208.521 85.0544C208.157 85.2479 207.736 85.3446 207.26 85.3446C206.724 85.3446 206.233 85.2107 205.786 84.9427C205.347 84.6674 204.998 84.2879 204.737 83.8042C204.484 83.313 204.358 82.7586 204.358 82.1409ZM209.392 82.1632C209.392 81.7391 209.303 81.3707 209.124 81.0581C208.953 80.7456 208.726 80.5074 208.443 80.3437C208.16 80.18 207.855 80.0982 207.528 80.0982C207.2 80.0982 206.895 80.18 206.612 80.3437C206.33 80.5 206.099 80.7344 205.92 81.047C205.749 81.3521 205.664 81.7167 205.664 82.1409C205.664 82.5651 205.749 82.9372 205.92 83.2572C206.099 83.5772 206.33 83.8228 206.612 83.9939C206.903 84.1576 207.208 84.2395 207.528 84.2395C207.855 84.2395 208.16 84.1576 208.443 83.9939C208.726 83.8302 208.953 83.5921 209.124 83.2795C209.303 82.9595 209.392 82.5874 209.392 82.1632ZM217.984 82.0181C217.984 82.2488 217.969 82.4572 217.94 82.6432H213.24C213.277 83.1344 213.46 83.5288 213.787 83.8265C214.114 84.1242 214.516 84.273 214.993 84.273C215.677 84.273 216.161 83.9865 216.444 83.4135H217.817C217.631 83.979 217.292 84.4441 216.801 84.8088C216.317 85.166 215.714 85.3446 214.993 85.3446C214.405 85.3446 213.876 85.2144 213.407 84.9539C212.946 84.686 212.581 84.3139 212.314 83.8376C212.053 83.3539 211.923 82.7958 211.923 82.1632C211.923 81.5307 212.049 80.9763 212.302 80.5C212.563 80.0163 212.924 79.6442 213.385 79.3837C213.854 79.1233 214.39 78.993 214.993 78.993C215.573 78.993 216.09 79.1196 216.544 79.3726C216.998 79.6256 217.352 79.9828 217.605 80.4442C217.858 80.8981 217.984 81.4228 217.984 82.0181ZM216.656 81.6163C216.648 81.1474 216.481 80.7716 216.154 80.4888C215.826 80.2061 215.42 80.0647 214.937 80.0647C214.498 80.0647 214.122 80.2061 213.809 80.4888C213.497 80.7642 213.311 81.14 213.251 81.6163H216.656ZM220.509 79.9865C220.695 79.674 220.941 79.4321 221.246 79.261C221.558 79.0823 221.927 78.993 222.351 78.993V80.3102H222.027C221.529 80.3102 221.149 80.4368 220.889 80.6898C220.636 80.9428 220.509 81.3819 220.509 82.007V85.2441H219.236V79.0935H220.509V79.9865ZM224.793 76.9838V85.2441H223.521V76.9838H224.793ZM227.111 78.2786C226.881 78.2786 226.687 78.2005 226.531 78.0442C226.375 77.8879 226.296 77.6945 226.296 77.4638C226.296 77.2331 226.375 77.0396 226.531 76.8833C226.687 76.727 226.881 76.6489 227.111 76.6489C227.335 76.6489 227.524 76.727 227.681 76.8833C227.837 77.0396 227.915 77.2331 227.915 77.4638C227.915 77.6945 227.837 77.8879 227.681 78.0442C227.524 78.2005 227.335 78.2786 227.111 78.2786ZM227.736 79.0935V85.2441H226.464V79.0935H227.736ZM232.51 78.993C232.994 78.993 233.426 79.0935 233.805 79.2944C234.192 79.4954 234.494 79.793 234.709 80.1875C234.925 80.5819 235.033 81.0581 235.033 81.6163V85.2441H233.772V81.806C233.772 81.2553 233.634 80.8349 233.359 80.5447C233.083 80.247 232.708 80.0982 232.231 80.0982C231.755 80.0982 231.376 80.247 231.093 80.5447C230.817 80.8349 230.68 81.2553 230.68 81.806V85.2441H229.407V79.0935H230.68V79.7968C230.888 79.5437 231.152 79.3465 231.472 79.2051C231.8 79.0637 232.146 78.993 232.51 78.993ZM242.294 82.0181C242.294 82.2488 242.279 82.4572 242.249 82.6432H237.549C237.587 83.1344 237.769 83.5288 238.096 83.8265C238.424 84.1242 238.826 84.273 239.302 84.273C239.987 84.273 240.47 83.9865 240.753 83.4135H242.126C241.94 83.979 241.601 84.4441 241.11 84.8088C240.627 85.166 240.024 85.3446 239.302 85.3446C238.714 85.3446 238.186 85.2144 237.717 84.9539C237.255 84.686 236.891 84.3139 236.623 83.8376C236.362 83.3539 236.232 82.7958 236.232 82.1632C236.232 81.5307 236.359 80.9763 236.612 80.5C236.872 80.0163 237.233 79.6442 237.694 79.3837C238.163 79.1233 238.699 78.993 239.302 78.993C239.882 78.993 240.4 79.1196 240.854 79.3726C241.307 79.6256 241.661 79.9828 241.914 80.4442C242.167 80.8981 242.294 81.4228 242.294 82.0181ZM240.965 81.6163C240.958 81.1474 240.79 80.7716 240.463 80.4888C240.135 80.2061 239.73 80.0647 239.246 80.0647C238.807 80.0647 238.431 80.2061 238.119 80.4888C237.806 80.7642 237.62 81.14 237.561 81.6163H240.965Z" fill="#676666"/>
<rect x="159.088" y="65.3987" width="132.756" height="32.6907" rx="4.38533" stroke="#E3E3E3" stroke-width="0.797333"/>
<path d="M35.5121 115.157C35.0719 115.157 34.7147 115.514 34.7147 115.955C34.7147 116.395 35.0719 116.752 35.5121 116.752H36.8324L34.1167 126.32H32.3227C31.8826 126.32 31.5254 126.677 31.5254 127.117C31.5254 127.557 31.8826 127.915 32.3227 127.915H37.1067C37.5468 127.915 37.904 127.557 37.904 127.117C37.904 126.677 37.5468 126.32 37.1067 126.32H35.7863L38.502 116.752H40.296C40.7362 116.752 41.0934 116.395 41.0934 115.955C41.0934 115.514 40.7362 115.157 40.296 115.157H35.5121Z" fill="#2DA2F6"/>
<path d="M51.3896 117.319V125.111H49.8269V117.319H51.3896ZM54.7532 120.21V123.202C54.7532 123.41 54.8015 123.563 54.8983 123.66C55.0025 123.749 55.1736 123.794 55.4118 123.794H56.1373V125.111H55.155C53.8378 125.111 53.1792 124.471 53.1792 123.191V120.21H52.4425V118.927H53.1792V117.397H54.7532V118.927H56.1373V120.21H54.7532ZM56.8595 121.996C56.8595 121.371 56.9823 120.817 57.2279 120.333C57.4809 119.85 57.8195 119.477 58.2437 119.217C58.6753 118.956 59.1553 118.826 59.6837 118.826C60.1451 118.826 60.5469 118.919 60.8892 119.105C61.239 119.291 61.5181 119.526 61.7264 119.809V118.927H63.3004V125.111H61.7264V124.207C61.5255 124.497 61.2464 124.739 60.8892 124.932C60.5395 125.118 60.1339 125.211 59.6725 125.211C59.1516 125.211 58.6753 125.077 58.2437 124.809C57.8195 124.542 57.4809 124.166 57.2279 123.682C56.9823 123.191 56.8595 122.629 56.8595 121.996ZM61.7264 122.019C61.7264 121.639 61.652 121.316 61.5032 121.048C61.3544 120.772 61.1534 120.564 60.9004 120.423C60.6474 120.274 60.3758 120.199 60.0855 120.199C59.7953 120.199 59.5274 120.27 59.2818 120.411C59.0362 120.553 58.8353 120.761 58.679 121.036C58.5302 121.304 58.4558 121.624 58.4558 121.996C58.4558 122.369 58.5302 122.696 58.679 122.979C58.8353 123.254 59.0362 123.466 59.2818 123.615C59.5348 123.764 59.8027 123.838 60.0855 123.838C60.3758 123.838 60.6474 123.768 60.9004 123.626C61.1534 123.477 61.3544 123.269 61.5032 123.001C61.652 122.726 61.7264 122.398 61.7264 122.019ZM66.3895 116.85V125.111H64.8267V116.85H66.3895ZM68.726 118.19C68.4507 118.19 68.22 118.104 68.034 117.933C67.8554 117.755 67.7661 117.535 67.7661 117.275C67.7661 117.014 67.8554 116.798 68.034 116.627C68.22 116.449 68.4507 116.359 68.726 116.359C69.0014 116.359 69.2284 116.449 69.407 116.627C69.593 116.798 69.686 117.014 69.686 117.275C69.686 117.535 69.593 117.755 69.407 117.933C69.2284 118.104 69.0014 118.19 68.726 118.19ZM69.4963 118.927V125.111H67.9335V118.927H69.4963ZM70.6384 122.019C70.6384 121.379 70.7687 120.821 71.0291 120.344C71.2896 119.861 71.6505 119.489 72.1119 119.228C72.5733 118.96 73.1017 118.826 73.697 118.826C74.4635 118.826 75.0961 119.02 75.5947 119.407C76.1007 119.786 76.4393 120.322 76.6105 121.014H74.9249C74.8356 120.746 74.683 120.538 74.4672 120.389C74.2589 120.233 73.9984 120.155 73.6858 120.155C73.2393 120.155 72.8859 120.318 72.6254 120.646C72.3649 120.966 72.2347 121.423 72.2347 122.019C72.2347 122.607 72.3649 123.064 72.6254 123.392C72.8859 123.712 73.2393 123.872 73.6858 123.872C74.3184 123.872 74.7314 123.589 74.9249 123.023H76.6105C76.4393 123.693 76.1007 124.225 75.5947 124.62C75.0886 125.014 74.4561 125.211 73.697 125.211C73.1017 125.211 72.5733 125.081 72.1119 124.821C71.6505 124.553 71.2896 124.181 71.0291 123.704C70.7687 123.221 70.6384 122.659 70.6384 122.019Z" fill="#676666"/>
<rect x="19.5551" y="105.664" width="131.959" height="31.8933" rx="3.98667" stroke="#2DA2F6" stroke-width="1.59467"/>
<path d="M176.235 115.157C174.473 115.157 173.045 116.585 173.045 118.347C173.045 118.85 173.171 119.35 173.395 119.791C173.542 120.085 173.783 120.393 174.117 120.739H171.451C171.011 120.739 170.653 121.096 170.653 121.536C170.653 121.976 171.011 122.333 171.451 122.333H175.96C176.005 122.372 176.028 122.387 176.085 122.433C176.338 122.639 176.6 122.863 176.833 123.08C176.998 123.235 177.127 123.365 177.256 123.504C177.486 123.752 177.652 123.982 177.705 124.102C177.791 124.3 177.829 124.503 177.829 124.725C177.829 125.606 177.116 126.32 176.235 126.32C175.354 126.32 174.64 125.606 174.64 124.725C174.64 124.285 174.283 123.928 173.843 123.928C173.403 123.928 173.045 124.285 173.045 124.725C173.045 126.486 174.473 127.915 176.235 127.915C177.996 127.915 179.424 126.486 179.424 124.725C179.424 124.283 179.323 123.852 179.15 123.454C179.01 123.132 178.769 122.801 178.427 122.433C178.398 122.401 178.359 122.366 178.328 122.333H181.019C181.459 122.333 181.816 121.976 181.816 121.536C181.816 121.096 181.459 120.739 181.019 120.739H176.509C176.463 120.699 176.44 120.684 176.385 120.639C176.136 120.436 175.891 120.227 175.661 120.016C175.522 119.887 175.402 119.759 175.287 119.642C175.043 119.391 174.876 119.192 174.815 119.069C174.704 118.849 174.64 118.6 174.64 118.347C174.64 117.465 175.354 116.752 176.235 116.752C177.116 116.752 177.829 117.465 177.829 118.347C177.829 118.787 178.187 119.144 178.627 119.144C179.067 119.144 179.424 118.787 179.424 118.347C179.424 116.585 177.996 115.157 176.235 115.157Z" fill="#2F3030"/>
<path d="M192.382 125.189C191.861 125.189 191.392 125.1 190.975 124.921C190.558 124.735 190.231 124.475 189.993 124.14C189.755 123.805 189.636 123.414 189.636 122.968H190.998C191.027 123.302 191.158 123.578 191.388 123.794C191.626 124.009 191.958 124.117 192.382 124.117C192.821 124.117 193.163 124.013 193.409 123.805C193.654 123.589 193.777 123.314 193.777 122.979C193.777 122.718 193.699 122.506 193.543 122.342C193.394 122.179 193.204 122.052 192.973 121.963C192.75 121.874 192.438 121.777 192.036 121.673C191.53 121.539 191.117 121.405 190.797 121.271C190.484 121.129 190.216 120.914 189.993 120.623C189.77 120.333 189.658 119.946 189.658 119.463C189.658 119.016 189.77 118.625 189.993 118.29C190.216 117.956 190.529 117.699 190.931 117.52C191.332 117.342 191.798 117.252 192.326 117.252C193.078 117.252 193.691 117.442 194.168 117.822C194.651 118.194 194.919 118.707 194.971 119.362H193.565C193.543 119.079 193.409 118.837 193.163 118.636C192.918 118.436 192.594 118.335 192.192 118.335C191.827 118.335 191.53 118.428 191.299 118.614C191.068 118.8 190.953 119.068 190.953 119.418C190.953 119.656 191.024 119.853 191.165 120.01C191.314 120.158 191.5 120.277 191.723 120.367C191.946 120.456 192.252 120.553 192.638 120.657C193.152 120.798 193.569 120.94 193.889 121.081C194.216 121.223 194.491 121.442 194.715 121.74C194.945 122.03 195.061 122.421 195.061 122.912C195.061 123.306 194.953 123.678 194.737 124.028C194.529 124.378 194.22 124.661 193.811 124.876C193.409 125.085 192.932 125.189 192.382 125.189ZM198.047 119.998V123.403C198.047 123.634 198.099 123.801 198.203 123.905C198.315 124.002 198.501 124.05 198.761 124.05H199.543V125.111H198.538C197.965 125.111 197.526 124.977 197.221 124.709C196.916 124.441 196.763 124.006 196.763 123.403V119.998H196.038V118.96H196.763V117.431H198.047V118.96H199.543V119.998H198.047ZM201.988 119.853C202.174 119.541 202.42 119.299 202.725 119.128C203.037 118.949 203.406 118.86 203.83 118.86V120.177H203.506C203.008 120.177 202.628 120.303 202.368 120.556C202.115 120.809 201.988 121.249 201.988 121.874V125.111H200.716V118.96H201.988V119.853ZM205.647 118.145C205.416 118.145 205.223 118.067 205.067 117.911C204.91 117.755 204.832 117.561 204.832 117.33C204.832 117.1 204.91 116.906 205.067 116.75C205.223 116.594 205.416 116.516 205.647 116.516C205.87 116.516 206.06 116.594 206.216 116.75C206.373 116.906 206.451 117.1 206.451 117.33C206.451 117.561 206.373 117.755 206.216 117.911C206.06 118.067 205.87 118.145 205.647 118.145ZM206.272 118.96V125.111H205V118.96H206.272ZM210.376 122.041L213.212 125.111H211.493L209.216 122.465V125.111H207.943V116.85H209.216V121.65L211.448 118.96H213.212L210.376 122.041ZM219.761 121.885C219.761 122.116 219.746 122.324 219.716 122.51H215.017C215.054 123.001 215.236 123.396 215.564 123.693C215.891 123.991 216.293 124.14 216.769 124.14C217.454 124.14 217.938 123.853 218.221 123.28H219.594C219.408 123.846 219.069 124.311 218.578 124.675C218.094 125.033 217.491 125.211 216.769 125.211C216.182 125.211 215.653 125.081 215.184 124.821C214.723 124.553 214.358 124.181 214.09 123.704C213.83 123.221 213.7 122.662 213.7 122.03C213.7 121.397 213.826 120.843 214.079 120.367C214.34 119.883 214.701 119.511 215.162 119.25C215.631 118.99 216.167 118.86 216.769 118.86C217.35 118.86 217.867 118.986 218.321 119.239C218.775 119.492 219.129 119.85 219.382 120.311C219.635 120.765 219.761 121.289 219.761 121.885ZM218.433 121.483C218.425 121.014 218.258 120.638 217.93 120.356C217.603 120.073 217.197 119.931 216.714 119.931C216.275 119.931 215.899 120.073 215.586 120.356C215.274 120.631 215.088 121.007 215.028 121.483H218.433ZM222.498 119.998V123.403C222.498 123.634 222.55 123.801 222.654 123.905C222.766 124.002 222.952 124.05 223.212 124.05H223.994V125.111H222.989C222.416 125.111 221.977 124.977 221.672 124.709C221.367 124.441 221.214 124.006 221.214 123.403V119.998H220.489V118.96H221.214V117.431H222.498V118.96H223.994V119.998H222.498ZM228.348 118.86C228.817 118.86 229.234 118.96 229.598 119.161C229.97 119.362 230.261 119.66 230.469 120.054C230.685 120.449 230.793 120.925 230.793 121.483V125.111H229.531V121.673C229.531 121.122 229.394 120.702 229.118 120.411C228.843 120.114 228.467 119.965 227.991 119.965C227.515 119.965 227.135 120.114 226.852 120.411C226.577 120.702 226.439 121.122 226.439 121.673V125.111H225.167V116.85H226.439V119.675C226.655 119.414 226.927 119.213 227.254 119.072C227.589 118.93 227.954 118.86 228.348 118.86ZM233.688 119.853C233.874 119.541 234.12 119.299 234.425 119.128C234.738 118.949 235.106 118.86 235.53 118.86V120.177H235.207C234.708 120.177 234.328 120.303 234.068 120.556C233.815 120.809 233.688 121.249 233.688 121.874V125.111H232.416V118.96H233.688V119.853ZM239.368 125.211C238.787 125.211 238.263 125.081 237.794 124.821C237.325 124.553 236.957 124.181 236.689 123.704C236.421 123.221 236.287 122.662 236.287 122.03C236.287 121.405 236.425 120.85 236.7 120.367C236.975 119.883 237.351 119.511 237.827 119.25C238.304 118.99 238.836 118.86 239.424 118.86C240.012 118.86 240.544 118.99 241.02 119.25C241.496 119.511 241.872 119.883 242.147 120.367C242.423 120.85 242.56 121.405 242.56 122.03C242.56 122.655 242.419 123.209 242.136 123.693C241.853 124.177 241.466 124.553 240.975 124.821C240.492 125.081 239.956 125.211 239.368 125.211ZM239.368 124.106C239.695 124.106 240 124.028 240.283 123.872C240.573 123.716 240.808 123.481 240.986 123.169C241.165 122.856 241.254 122.476 241.254 122.03C241.254 121.583 241.169 121.208 240.998 120.903C240.826 120.59 240.599 120.356 240.317 120.199C240.034 120.043 239.729 119.965 239.401 119.965C239.074 119.965 238.769 120.043 238.486 120.199C238.211 120.356 237.991 120.59 237.827 120.903C237.664 121.208 237.582 121.583 237.582 122.03C237.582 122.692 237.749 123.206 238.084 123.57C238.426 123.928 238.854 124.106 239.368 124.106ZM249.389 118.96V125.111H248.116V124.385C247.915 124.638 247.651 124.839 247.323 124.988C247.003 125.129 246.661 125.2 246.296 125.2C245.813 125.2 245.377 125.1 244.99 124.899C244.611 124.698 244.31 124.4 244.086 124.006C243.87 123.611 243.763 123.135 243.763 122.577V118.96H245.024V122.387C245.024 122.938 245.162 123.362 245.437 123.66C245.712 123.95 246.088 124.095 246.564 124.095C247.041 124.095 247.416 123.95 247.692 123.66C247.975 123.362 248.116 122.938 248.116 122.387V118.96H249.389ZM253.546 118.86C254.022 118.86 254.442 118.956 254.807 119.15C255.179 119.336 255.469 119.57 255.678 119.853V118.96H256.961V125.211C256.961 125.777 256.842 126.279 256.604 126.718C256.366 127.165 256.02 127.515 255.566 127.768C255.12 128.021 254.584 128.147 253.959 128.147C253.125 128.147 252.433 127.95 251.882 127.555C251.332 127.168 251.019 126.64 250.945 125.97H252.206C252.303 126.29 252.508 126.547 252.82 126.741C253.14 126.942 253.52 127.042 253.959 127.042C254.472 127.042 254.885 126.886 255.198 126.573C255.518 126.261 255.678 125.807 255.678 125.211V124.184C255.462 124.475 255.168 124.72 254.796 124.921C254.431 125.115 254.014 125.211 253.546 125.211C253.01 125.211 252.519 125.077 252.072 124.809C251.633 124.534 251.283 124.155 251.023 123.671C250.77 123.18 250.643 122.625 250.643 122.008C250.643 121.39 250.77 120.843 251.023 120.367C251.283 119.89 251.633 119.522 252.072 119.262C252.519 118.994 253.01 118.86 253.546 118.86ZM255.678 122.03C255.678 121.606 255.588 121.237 255.41 120.925C255.239 120.612 255.012 120.374 254.729 120.21C254.446 120.047 254.141 119.965 253.814 119.965C253.486 119.965 253.181 120.047 252.898 120.21C252.615 120.367 252.385 120.601 252.206 120.914C252.035 121.219 251.949 121.583 251.949 122.008C251.949 122.432 252.035 122.804 252.206 123.124C252.385 123.444 252.615 123.689 252.898 123.861C253.188 124.024 253.494 124.106 253.814 124.106C254.141 124.106 254.446 124.024 254.729 123.861C255.012 123.697 255.239 123.459 255.41 123.146C255.588 122.826 255.678 122.454 255.678 122.03ZM261.814 118.86C262.283 118.86 262.7 118.96 263.064 119.161C263.437 119.362 263.727 119.66 263.935 120.054C264.151 120.449 264.259 120.925 264.259 121.483V125.111H262.997V121.673C262.997 121.122 262.86 120.702 262.584 120.411C262.309 120.114 261.933 119.965 261.457 119.965C260.981 119.965 260.601 120.114 260.318 120.411C260.043 120.702 259.905 121.122 259.905 121.673V125.111H258.633V116.85H259.905V119.675C260.121 119.414 260.393 119.213 260.72 119.072C261.055 118.93 261.42 118.86 261.814 118.86Z" fill="#676666"/>
<rect x="159.088" y="105.265" width="132.756" height="32.6907" rx="4.38533" stroke="#E3E3E3" stroke-width="0.797333"/>
<path d="M29.1352 155.9C28.6951 155.9 28.3379 156.257 28.3379 156.697C28.3379 157.137 28.6951 157.495 29.1352 157.495H43.4872C43.9274 157.495 44.2846 157.137 44.2846 156.697C44.2846 156.257 43.9274 155.9 43.4872 155.9H29.1352ZM37.1086 159.089C36.6684 159.089 36.3112 159.446 36.3112 159.887C36.3112 160.327 36.6684 160.684 37.1086 160.684H43.4872C43.9274 160.684 44.2846 160.327 44.2846 159.887C44.2846 159.446 43.9274 159.089 43.4872 159.089H37.1086ZM30.8543 159.164C29.7803 159.989 29.1352 161.272 29.1352 162.653C29.1352 162.66 29.1352 162.669 29.1352 162.677C29.1352 163.338 29.6702 163.873 30.3312 163.873C30.9922 163.873 31.5272 163.338 31.5272 162.677C31.5272 162.016 30.9922 161.481 30.3312 161.481C30.2746 161.481 30.1869 161.474 30.1319 161.481C30.3551 160.804 30.757 160.225 31.3279 159.787C31.5025 159.653 31.5368 159.414 31.4028 159.239C31.2681 159.064 31.0289 159.029 30.8543 159.164ZM34.0436 159.164C32.9696 159.989 32.3246 161.272 32.3246 162.653C32.3246 162.66 32.3246 162.669 32.3246 162.677C32.3246 163.338 32.8596 163.873 33.5206 163.873C34.1815 163.873 34.7166 163.338 34.7166 162.677C34.7166 162.016 34.1815 161.481 33.5206 161.481C33.4639 161.481 33.3762 161.499 33.3212 161.506C33.5445 160.829 33.9463 160.225 34.5172 159.787C34.6918 159.653 34.7261 159.414 34.5922 159.239C34.4574 159.064 34.2182 159.029 34.0436 159.164ZM37.1086 162.279C36.6684 162.279 36.3112 162.636 36.3112 163.076C36.3112 163.516 36.6684 163.873 37.1086 163.873H43.4872C43.9274 163.873 44.2846 163.516 44.2846 163.076C44.2846 162.636 43.9274 162.279 43.4872 162.279H37.1086ZM29.1352 165.468C28.6951 165.468 28.3379 165.825 28.3379 166.265C28.3379 166.705 28.6951 167.063 29.1352 167.063H43.4872C43.9274 167.063 44.2846 166.705 44.2846 166.265C44.2846 165.825 43.9274 165.468 43.4872 165.468H29.1352Z" fill="#2F3030"/>
<path d="M54.0464 160.992C54.4631 161.067 54.8166 161.286 55.1068 161.651C55.397 162.016 55.5422 162.429 55.5422 162.89C55.5422 163.285 55.438 163.642 55.2296 163.962C55.0287 164.274 54.7347 164.524 54.3477 164.71C53.9608 164.888 53.5105 164.978 52.9971 164.978H49.8938V157.219H52.8519C53.3803 157.219 53.8343 157.309 54.2138 157.487C54.5933 157.666 54.8798 157.908 55.0733 158.213C55.2668 158.511 55.3635 158.846 55.3635 159.218C55.3635 159.664 55.2445 160.036 55.0063 160.334C54.7682 160.632 54.4482 160.851 54.0464 160.992ZM51.1664 160.479H52.7403C53.1571 160.479 53.4808 160.386 53.7115 160.2C53.9496 160.006 54.0687 159.731 54.0687 159.374C54.0687 159.024 53.9496 158.752 53.7115 158.559C53.4808 158.358 53.1571 158.258 52.7403 158.258H51.1664V160.479ZM52.8854 163.939C53.3171 163.939 53.6557 163.835 53.9012 163.627C54.1468 163.418 54.2696 163.128 54.2696 162.756C54.2696 162.377 54.1394 162.075 53.8789 161.852C53.6185 161.629 53.2724 161.517 52.8408 161.517H51.1664V163.939H52.8854ZM58.1976 156.717V164.978H56.925V156.717H58.1976ZM62.5362 165.078C61.9557 165.078 61.4311 164.948 60.9622 164.687C60.4934 164.419 60.125 164.047 59.8571 163.571C59.5892 163.087 59.4553 162.529 59.4553 161.897C59.4553 161.272 59.5929 160.717 59.8683 160.233C60.1436 159.75 60.5195 159.378 60.9957 159.117C61.472 158.857 62.0041 158.726 62.592 158.726C63.1799 158.726 63.712 158.857 64.1882 159.117C64.6645 159.378 65.0403 159.75 65.3157 160.233C65.591 160.717 65.7287 161.272 65.7287 161.897C65.7287 162.522 65.5873 163.076 65.3045 163.56C65.0217 164.044 64.6348 164.419 64.1436 164.687C63.6599 164.948 63.1241 165.078 62.5362 165.078ZM62.5362 163.973C62.8636 163.973 63.1687 163.895 63.4515 163.738C63.7417 163.582 63.9762 163.348 64.1548 163.035C64.3334 162.723 64.4227 162.343 64.4227 161.897C64.4227 161.45 64.3371 161.074 64.1659 160.769C63.9948 160.457 63.7678 160.222 63.485 160.066C63.2022 159.91 62.8971 159.832 62.5697 159.832C62.2422 159.832 61.9371 159.91 61.6543 160.066C61.379 160.222 61.1594 160.457 60.9957 160.769C60.832 161.074 60.7501 161.45 60.7501 161.897C60.7501 162.559 60.9176 163.072 61.2525 163.437C61.5948 163.794 62.0227 163.973 62.5362 163.973ZM66.5625 161.897C66.5625 161.264 66.689 160.71 66.942 160.233C67.2025 159.75 67.5597 159.378 68.0136 159.117C68.4676 158.857 68.9885 158.726 69.5764 158.726C70.3206 158.726 70.9345 158.905 71.4183 159.262C71.9094 159.612 72.2406 160.114 72.4117 160.769H71.0387C70.9271 160.464 70.7485 160.226 70.5029 160.055C70.2573 159.884 69.9485 159.798 69.5764 159.798C69.0555 159.798 68.6388 159.984 68.3262 160.356C68.0211 160.721 67.8685 161.234 67.8685 161.897C67.8685 162.559 68.0211 163.076 68.3262 163.448C68.6388 163.82 69.0555 164.006 69.5764 164.006C70.3132 164.006 70.8006 163.683 71.0387 163.035H72.4117C72.2331 163.66 71.8982 164.159 71.4071 164.531C70.9159 164.896 70.3057 165.078 69.5764 165.078C68.9885 165.078 68.4676 164.948 68.0136 164.687C67.5597 164.419 67.2025 164.047 66.942 163.571C66.689 163.087 66.5625 162.529 66.5625 161.897ZM76.1134 161.908L78.9487 164.978H77.2296L74.9525 162.332V164.978H73.6799V156.717H74.9525V161.517L77.185 158.827H78.9487L76.1134 161.908ZM79.4366 161.874C79.4366 161.257 79.5631 160.71 79.8162 160.233C80.0766 159.757 80.4264 159.389 80.8654 159.128C81.312 158.86 81.8068 158.726 82.3501 158.726C82.8264 158.726 83.2468 158.823 83.6115 159.017C83.9836 159.21 84.2701 159.445 84.471 159.72V158.827H85.7547V167.902H84.471V164.085C84.2701 164.36 83.9798 164.594 83.6003 164.788C83.2208 164.981 82.7891 165.078 82.3054 165.078C81.7771 165.078 81.2933 164.944 80.8543 164.676C80.4227 164.401 80.0766 164.021 79.8162 163.538C79.5631 163.046 79.4366 162.492 79.4366 161.874ZM84.471 161.897C84.471 161.472 84.3817 161.104 84.2031 160.792C84.0319 160.479 83.8049 160.241 83.5222 160.077C83.2394 159.913 82.9343 159.832 82.6068 159.832C82.2794 159.832 81.9743 159.913 81.6915 160.077C81.4087 160.233 81.178 160.468 80.9994 160.78C80.8282 161.085 80.7427 161.45 80.7427 161.874C80.7427 162.298 80.8282 162.671 80.9994 162.991C81.178 163.311 81.4087 163.556 81.6915 163.727C81.9817 163.891 82.2868 163.973 82.6068 163.973C82.9343 163.973 83.2394 163.891 83.5222 163.727C83.8049 163.564 84.0319 163.325 84.2031 163.013C84.3817 162.693 84.471 162.321 84.471 161.897ZM92.9963 158.827V164.978H91.7238V164.252C91.5228 164.505 91.2586 164.706 90.9312 164.855C90.6112 164.996 90.2689 165.067 89.9042 165.067C89.4205 165.067 88.9852 164.966 88.5982 164.765C88.2187 164.565 87.9173 164.267 87.694 163.872C87.4782 163.478 87.3703 163.002 87.3703 162.444V158.827H88.6317V162.254C88.6317 162.805 88.7694 163.229 89.0447 163.526C89.3201 163.817 89.6959 163.962 90.1721 163.962C90.6484 163.962 91.0242 163.817 91.2996 163.526C91.5824 163.229 91.7238 162.805 91.7238 162.254V158.827H92.9963ZM97.3432 165.078C96.7627 165.078 96.2381 164.948 95.7693 164.687C95.3004 164.419 94.9321 164.047 94.6642 163.571C94.3963 163.087 94.2623 162.529 94.2623 161.897C94.2623 161.272 94.4 160.717 94.6753 160.233C94.9507 159.75 95.3265 159.378 95.8028 159.117C96.279 158.857 96.8111 158.726 97.399 158.726C97.9869 158.726 98.519 158.857 98.9953 159.117C99.4715 159.378 99.8474 159.75 100.123 160.233C100.398 160.717 100.536 161.272 100.536 161.897C100.536 162.522 100.394 163.076 100.112 163.56C99.8288 164.044 99.4418 164.419 98.9506 164.687C98.4669 164.948 97.9311 165.078 97.3432 165.078ZM97.3432 163.973C97.6706 163.973 97.9758 163.895 98.2585 163.738C98.5488 163.582 98.7832 163.348 98.9618 163.035C99.1404 162.723 99.2297 162.343 99.2297 161.897C99.2297 161.45 99.1441 161.074 98.973 160.769C98.8018 160.457 98.5748 160.222 98.292 160.066C98.0092 159.91 97.7041 159.832 97.3767 159.832C97.0493 159.832 96.7441 159.91 96.4614 160.066C96.186 160.222 95.9665 160.457 95.8028 160.769C95.639 161.074 95.5572 161.45 95.5572 161.897C95.5572 162.559 95.7246 163.072 96.0595 163.437C96.4018 163.794 96.8297 163.973 97.3432 163.973ZM103.278 159.865V163.27C103.278 163.5 103.33 163.668 103.435 163.772C103.546 163.869 103.732 163.917 103.993 163.917H104.774V164.978H103.769C103.196 164.978 102.757 164.844 102.452 164.576C102.147 164.308 101.995 163.872 101.995 163.27V159.865H101.269V158.827H101.995V157.298H103.278V158.827H104.774V159.865H103.278ZM111.584 161.752C111.584 161.982 111.569 162.191 111.539 162.377H106.84C106.877 162.868 107.06 163.262 107.387 163.56C107.714 163.858 108.116 164.006 108.593 164.006C109.277 164.006 109.761 163.72 110.044 163.147H111.417C111.231 163.712 110.892 164.178 110.401 164.542C109.917 164.899 109.314 165.078 108.593 165.078C108.005 165.078 107.476 164.948 107.007 164.687C106.546 164.419 106.181 164.047 105.914 163.571C105.653 163.087 105.523 162.529 105.523 161.897C105.523 161.264 105.649 160.71 105.902 160.233C106.163 159.75 106.524 159.378 106.985 159.117C107.454 158.857 107.99 158.726 108.593 158.726C109.173 158.726 109.69 158.853 110.144 159.106C110.598 159.359 110.952 159.716 111.205 160.178C111.458 160.632 111.584 161.156 111.584 161.752ZM110.256 161.35C110.248 160.881 110.081 160.505 109.753 160.222C109.426 159.939 109.02 159.798 108.537 159.798C108.098 159.798 107.722 159.939 107.409 160.222C107.097 160.498 106.911 160.873 106.851 161.35H110.256Z" fill="#676666"/>
<rect x="19.1565" y="145.132" width="132.756" height="32.6907" rx="4.38533" stroke="#E3E3E3" stroke-width="0.797333"/>
<path d="M175.795 156.021L171.011 159.21C170.645 159.454 170.542 159.967 170.786 160.331C171.03 160.697 171.542 160.799 171.907 160.556L176.243 157.666L180.579 160.556C180.944 160.799 181.456 160.697 181.7 160.331C181.944 159.967 181.841 159.454 181.475 159.21L176.691 156.021C176.424 155.843 176.062 155.843 175.795 156.021ZM171.309 162.3C171.11 162.34 170.908 162.442 170.786 162.625C170.542 162.989 170.645 163.502 171.011 163.746L175.795 166.935C176.062 167.113 176.424 167.113 176.691 166.935L181.475 163.746C181.841 163.502 181.944 162.989 181.7 162.625C181.456 162.259 180.944 162.157 180.579 162.4L176.243 165.29L171.907 162.4C171.724 162.279 171.509 162.26 171.309 162.3Z" fill="#2F3030"/>
<path d="M191.098 158.246V160.524H193.777V161.562H191.098V163.939H194.112V164.978H189.825V157.208H194.112V158.246H191.098ZM203.125 158.726C203.609 158.726 204.04 158.827 204.42 159.028C204.807 159.229 205.108 159.526 205.324 159.921C205.547 160.315 205.659 160.792 205.659 161.35V164.978H204.397V161.539C204.397 160.989 204.26 160.568 203.984 160.278C203.709 159.98 203.333 159.832 202.857 159.832C202.381 159.832 202.001 159.98 201.718 160.278C201.443 160.568 201.305 160.989 201.305 161.539V164.978H200.044V161.539C200.044 160.989 199.906 160.568 199.631 160.278C199.356 159.98 198.98 159.832 198.503 159.832C198.027 159.832 197.648 159.98 197.365 160.278C197.09 160.568 196.952 160.989 196.952 161.539V164.978H195.679V158.827H196.952V159.53C197.16 159.277 197.424 159.08 197.744 158.939C198.064 158.797 198.407 158.726 198.771 158.726C199.263 158.726 199.702 158.831 200.089 159.039C200.476 159.247 200.773 159.549 200.982 159.943C201.168 159.571 201.458 159.277 201.852 159.061C202.247 158.838 202.671 158.726 203.125 158.726ZM208.551 159.742C208.766 159.445 209.06 159.203 209.432 159.017C209.812 158.823 210.232 158.726 210.694 158.726C211.237 158.726 211.728 158.857 212.167 159.117C212.606 159.378 212.952 159.75 213.205 160.233C213.458 160.71 213.585 161.257 213.585 161.874C213.585 162.492 213.458 163.046 213.205 163.538C212.952 164.021 212.603 164.401 212.156 164.676C211.717 164.944 211.23 165.078 210.694 165.078C210.218 165.078 209.793 164.985 209.421 164.799C209.057 164.613 208.766 164.375 208.551 164.085V164.978H207.278V156.717H208.551V159.742ZM212.29 161.874C212.29 161.45 212.201 161.085 212.022 160.78C211.851 160.468 211.62 160.233 211.33 160.077C211.047 159.913 210.742 159.832 210.415 159.832C210.095 159.832 209.79 159.913 209.499 160.077C209.217 160.241 208.986 160.479 208.807 160.792C208.636 161.104 208.551 161.472 208.551 161.897C208.551 162.321 208.636 162.693 208.807 163.013C208.986 163.325 209.217 163.564 209.499 163.727C209.79 163.891 210.095 163.973 210.415 163.973C210.742 163.973 211.047 163.891 211.33 163.727C211.62 163.556 211.851 163.311 212.022 162.991C212.201 162.671 212.29 162.298 212.29 161.874ZM220.481 161.752C220.481 161.982 220.466 162.191 220.436 162.377H215.736C215.774 162.868 215.956 163.262 216.283 163.56C216.611 163.858 217.013 164.006 217.489 164.006C218.174 164.006 218.657 163.72 218.94 163.147H220.313C220.127 163.712 219.788 164.178 219.297 164.542C218.814 164.899 218.211 165.078 217.489 165.078C216.901 165.078 216.373 164.948 215.904 164.687C215.442 164.419 215.078 164.047 214.81 163.571C214.549 163.087 214.419 162.529 214.419 161.897C214.419 161.264 214.546 160.71 214.799 160.233C215.059 159.75 215.42 159.378 215.882 159.117C216.35 158.857 216.886 158.726 217.489 158.726C218.069 158.726 218.587 158.853 219.041 159.106C219.494 159.359 219.848 159.716 220.101 160.178C220.354 160.632 220.481 161.156 220.481 161.752ZM219.152 161.35C219.145 160.881 218.977 160.505 218.65 160.222C218.322 159.939 217.917 159.798 217.433 159.798C216.994 159.798 216.618 159.939 216.306 160.222C215.993 160.498 215.807 160.873 215.748 161.35H219.152ZM221.309 161.874C221.309 161.257 221.435 160.71 221.688 160.233C221.949 159.757 222.298 159.389 222.737 159.128C223.184 158.86 223.679 158.726 224.222 158.726C224.624 158.726 225.018 158.816 225.405 158.994C225.8 159.166 226.112 159.396 226.343 159.686V156.717H227.627V164.978H226.343V164.051C226.135 164.349 225.844 164.594 225.472 164.788C225.108 164.981 224.687 165.078 224.211 165.078C223.675 165.078 223.184 164.944 222.737 164.676C222.298 164.401 221.949 164.021 221.688 163.538C221.435 163.046 221.309 162.492 221.309 161.874ZM226.343 161.897C226.343 161.472 226.254 161.104 226.075 160.792C225.904 160.479 225.677 160.241 225.394 160.077C225.111 159.913 224.806 159.832 224.479 159.832C224.151 159.832 223.846 159.913 223.564 160.077C223.281 160.233 223.05 160.468 222.871 160.78C222.7 161.085 222.615 161.45 222.615 161.874C222.615 162.298 222.7 162.671 222.871 162.991C223.05 163.311 223.281 163.556 223.564 163.727C223.854 163.891 224.159 163.973 224.479 163.973C224.806 163.973 225.111 163.891 225.394 163.727C225.677 163.564 225.904 163.325 226.075 163.013C226.254 162.693 226.343 162.321 226.343 161.897ZM233.47 163.951H236.094V164.978H232.198V157.219H233.47V163.951ZM237.805 158.012C237.575 158.012 237.381 157.934 237.225 157.778C237.069 157.621 236.99 157.428 236.99 157.197C236.99 156.966 237.069 156.773 237.225 156.617C237.381 156.46 237.575 156.382 237.805 156.382C238.028 156.382 238.218 156.46 238.375 156.617C238.531 156.773 238.609 156.966 238.609 157.197C238.609 157.428 238.531 157.621 238.375 157.778C238.218 157.934 238.028 158.012 237.805 158.012ZM238.43 158.827V164.978H237.158V158.827H238.43ZM243.204 158.726C243.688 158.726 244.12 158.827 244.499 159.028C244.886 159.229 245.188 159.526 245.403 159.921C245.619 160.315 245.727 160.792 245.727 161.35V164.978H244.466V161.539C244.466 160.989 244.328 160.568 244.053 160.278C243.777 159.98 243.402 159.832 242.925 159.832C242.449 159.832 242.069 159.98 241.787 160.278C241.511 160.568 241.374 160.989 241.374 161.539V164.978H240.101V158.827H241.374V159.53C241.582 159.277 241.846 159.08 242.166 158.939C242.494 158.797 242.84 158.726 243.204 158.726ZM249.784 161.908L252.619 164.978H250.9L248.623 162.332V164.978H247.35V156.717H248.623V161.517L250.855 158.827H252.619L249.784 161.908Z" fill="#676666"/>
<rect x="159.088" y="145.132" width="132.756" height="32.6907" rx="4.38533" stroke="#E3E3E3" stroke-width="0.797333"/>
<path d="M32.3119 197.421C29.9868 197.421 28.3252 198.806 28.3252 201.408C28.3252 204.01 29.9868 205.394 32.3119 205.394H34.7039C37.0289 205.394 38.6905 204.01 38.6905 201.408C38.6905 201.331 38.6905 200.709 38.6905 200.61C38.6905 199.548 37.0959 199.548 37.0959 200.61C37.0959 200.716 37.0959 201.458 37.0959 201.458C37.0759 203.069 36.1893 203.8 34.7039 203.8H32.3119C30.8097 203.8 29.9199 203.058 29.9199 201.408C29.9199 199.757 30.8097 199.016 32.3119 199.016H33.1092C33.5493 199.016 33.9065 198.659 33.9065 198.218C33.9065 197.778 33.5493 197.421 33.1092 197.421H32.3119ZM37.8932 197.421C36.7602 197.421 35.8377 197.742 35.152 198.343C34.3116 199.08 33.9065 200.173 33.9065 201.408C33.9065 201.511 33.9065 201.644 33.9065 202.205C33.9065 202.645 34.2637 203.002 34.7039 203.002C35.144 203.002 35.5012 202.645 35.5012 202.205C35.5012 201.644 35.5012 201.511 35.5012 201.408C35.5012 200.597 35.7412 199.941 36.1989 199.539C36.5776 199.206 37.1301 199.016 37.8932 199.016H40.2852C41.9357 199.016 42.6772 199.906 42.6772 201.408C42.6772 202.91 41.9357 203.8 40.2852 203.8H39.4879C39.0477 203.8 38.6905 204.157 38.6905 204.597C38.6905 205.037 39.0477 205.394 39.4879 205.394H40.2852C42.8869 205.394 44.2719 203.733 44.2719 201.408C44.2719 199.083 42.8869 197.421 40.2852 197.421H37.8932Z" fill="#2F3030"/>
<path d="M54.4594 197.086V198.124H51.1664V200.413H53.7338V201.451H51.1664V204.844H49.8938V197.086H54.4594ZM56.2861 197.879C56.0554 197.879 55.8619 197.801 55.7057 197.644C55.5494 197.488 55.4712 197.295 55.4712 197.064C55.4712 196.833 55.5494 196.64 55.7057 196.483C55.8619 196.327 56.0554 196.249 56.2861 196.249C56.5094 196.249 56.6991 196.327 56.8554 196.483C57.0117 196.64 57.0898 196.833 57.0898 197.064C57.0898 197.295 57.0117 197.488 56.8554 197.644C56.6991 197.801 56.5094 197.879 56.2861 197.879ZM56.9112 198.694V204.844H55.6387V198.694H56.9112ZM59.8545 196.584V204.844H58.582V196.584H59.8545ZM67.1624 201.618C67.1624 201.849 67.1475 202.057 67.1177 202.243H62.4183C62.4555 202.734 62.6378 203.129 62.9652 203.427C63.2927 203.724 63.6945 203.873 64.1708 203.873C64.8554 203.873 65.3392 203.587 65.622 203.014H66.995C66.8089 203.579 66.4703 204.044 65.9792 204.409C65.4954 204.766 64.8927 204.945 64.1708 204.945C63.5829 204.945 63.0545 204.814 62.5857 204.554C62.1243 204.286 61.7597 203.914 61.4918 203.438C61.2313 202.954 61.1011 202.396 61.1011 201.763C61.1011 201.131 61.2276 200.576 61.4806 200.1C61.7411 199.616 62.102 199.244 62.5634 198.984C63.0322 198.723 63.568 198.593 64.1708 198.593C64.7513 198.593 65.2685 198.72 65.7224 198.973C66.1764 199.226 66.5298 199.583 66.7829 200.044C67.0359 200.498 67.1624 201.023 67.1624 201.618ZM65.834 201.216C65.8266 200.748 65.6592 200.372 65.3317 200.089C65.0043 199.806 64.5987 199.665 64.115 199.665C63.6759 199.665 63.3001 199.806 62.9876 200.089C62.675 200.364 62.489 200.74 62.4294 201.216H65.834ZM70.6472 204.945C70.1635 204.945 69.7282 204.859 69.3412 204.688C68.9617 204.509 68.6603 204.271 68.437 203.974C68.2138 203.668 68.0947 203.33 68.0798 202.958H69.397C69.4194 203.218 69.5421 203.438 69.7654 203.616C69.9961 203.788 70.2826 203.873 70.6249 203.873C70.9821 203.873 71.2575 203.806 71.451 203.672C71.6519 203.531 71.7523 203.352 71.7523 203.136C71.7523 202.906 71.6407 202.734 71.4175 202.623C71.2017 202.511 70.8556 202.388 70.3793 202.254C69.918 202.128 69.5421 202.005 69.2519 201.886C68.9617 201.767 68.7087 201.585 68.4928 201.339C68.2845 201.094 68.1803 200.77 68.1803 200.368C68.1803 200.041 68.277 199.743 68.4705 199.475C68.664 199.2 68.9394 198.984 69.2966 198.828C69.6612 198.671 70.0779 198.593 70.5468 198.593C71.2463 198.593 71.8082 198.772 72.2323 199.129C72.664 199.479 72.8947 199.959 72.9244 200.569H71.6519C71.6296 200.294 71.5179 200.074 71.317 199.91C71.1161 199.747 70.8445 199.665 70.5021 199.665C70.1672 199.665 69.9105 199.728 69.7319 199.855C69.5533 199.981 69.464 200.148 69.464 200.357C69.464 200.521 69.5235 200.658 69.6426 200.77C69.7617 200.881 69.9068 200.971 70.0779 201.038C70.2491 201.097 70.5021 201.175 70.837 201.272C71.2835 201.391 71.6482 201.514 71.931 201.641C72.2212 201.76 72.4705 201.938 72.6788 202.176C72.8872 202.414 72.9951 202.731 73.0026 203.125C73.0026 203.475 72.9058 203.788 72.7123 204.063C72.5189 204.338 72.2435 204.554 71.8863 204.71C71.5365 204.867 71.1235 204.945 70.6472 204.945ZM83.2716 204.844L82.3116 203.884C81.9395 204.256 81.534 204.535 81.0949 204.721C80.6558 204.9 80.1647 204.989 79.6214 204.989C79.0707 204.989 78.5833 204.893 78.1591 204.699C77.7349 204.506 77.4075 204.23 77.1768 203.873C76.9461 203.508 76.8308 203.088 76.8308 202.612C76.8308 202.076 76.9833 201.6 77.2884 201.183C77.5935 200.759 78.0475 200.424 78.6503 200.178C78.4345 199.918 78.2819 199.676 78.1926 199.453C78.1033 199.222 78.0586 198.969 78.0586 198.694C78.0586 198.351 78.1442 198.046 78.3154 197.778C78.494 197.51 78.747 197.298 79.0744 197.142C79.4019 196.986 79.7814 196.908 80.213 196.908C80.6521 196.908 81.0242 196.993 81.3293 197.164C81.6419 197.328 81.8726 197.555 82.0214 197.845C82.1777 198.135 82.2409 198.459 82.2112 198.816H80.9386C80.9461 198.541 80.8791 198.329 80.7377 198.18C80.5963 198.024 80.4028 197.946 80.1572 197.946C79.9116 197.946 79.7107 198.02 79.5544 198.169C79.4056 198.31 79.3312 198.485 79.3312 198.694C79.3312 198.895 79.387 199.095 79.4986 199.296C79.6177 199.49 79.8223 199.743 80.1126 200.055L82.1665 202.098L82.9591 200.792H84.3321L83.3274 202.511L83.0484 202.969L84.9348 204.844H83.2716ZM79.6214 203.907C80.3209 203.907 80.9386 203.62 81.4744 203.047L79.4205 200.982C78.5424 201.332 78.1033 201.86 78.1033 202.567C78.1033 202.947 78.2447 203.267 78.5275 203.527C78.8103 203.78 79.1749 203.907 79.6214 203.907ZM89.9414 203.817H92.5646V204.844H88.6688V197.086H89.9414V203.817ZM94.2763 197.879C94.0456 197.879 93.8521 197.801 93.6958 197.644C93.5395 197.488 93.4614 197.295 93.4614 197.064C93.4614 196.833 93.5395 196.64 93.6958 196.483C93.8521 196.327 94.0456 196.249 94.2763 196.249C94.4995 196.249 94.6893 196.327 94.8456 196.483C95.0018 196.64 95.08 196.833 95.08 197.064C95.08 197.295 95.0018 197.488 94.8456 197.644C94.6893 197.801 94.4995 197.879 94.2763 197.879ZM94.9014 198.694V204.844H93.6288V198.694H94.9014ZM99.6753 198.593C100.159 198.593 100.591 198.694 100.97 198.895C101.357 199.095 101.659 199.393 101.874 199.788C102.09 200.182 102.198 200.658 102.198 201.216V204.844H100.937V201.406C100.937 200.855 100.799 200.435 100.524 200.145C100.248 199.847 99.8725 199.698 99.3963 199.698C98.92 199.698 98.5405 199.847 98.2577 200.145C97.9823 200.435 97.8446 200.855 97.8446 201.406V204.844H96.5721V198.694H97.8446V199.397C98.053 199.144 98.3172 198.947 98.6372 198.805C98.9646 198.664 99.3107 198.593 99.6753 198.593ZM106.255 201.775L109.09 204.844H107.371L105.094 202.199V204.844H103.821V196.584H105.094V201.384L107.326 198.694H109.09L106.255 201.775ZM112.235 204.945C111.751 204.945 111.316 204.859 110.929 204.688C110.549 204.509 110.248 204.271 110.025 203.974C109.801 203.668 109.682 203.33 109.667 202.958H110.985C111.007 203.218 111.13 203.438 111.353 203.616C111.584 203.788 111.87 203.873 112.212 203.873C112.57 203.873 112.845 203.806 113.038 203.672C113.239 203.531 113.34 203.352 113.34 203.136C113.34 202.906 113.228 202.734 113.005 202.623C112.789 202.511 112.443 202.388 111.967 202.254C111.505 202.128 111.13 202.005 110.839 201.886C110.549 201.767 110.296 201.585 110.08 201.339C109.872 201.094 109.768 200.77 109.768 200.368C109.768 200.041 109.865 199.743 110.058 199.475C110.251 199.2 110.527 198.984 110.884 198.828C111.249 198.671 111.665 198.593 112.134 198.593C112.834 198.593 113.396 198.772 113.82 199.129C114.251 199.479 114.482 199.959 114.512 200.569H113.239C113.217 200.294 113.105 200.074 112.904 199.91C112.704 199.747 112.432 199.665 112.09 199.665C111.755 199.665 111.498 199.728 111.319 199.855C111.141 199.981 111.051 200.148 111.051 200.357C111.051 200.521 111.111 200.658 111.23 200.77C111.349 200.881 111.494 200.971 111.665 201.038C111.837 201.097 112.09 201.175 112.424 201.272C112.871 201.391 113.236 201.514 113.518 201.641C113.809 201.76 114.058 201.938 114.266 202.176C114.475 202.414 114.583 202.731 114.59 203.125C114.59 203.475 114.493 203.788 114.3 204.063C114.106 204.338 113.831 204.554 113.474 204.71C113.124 204.867 112.711 204.945 112.235 204.945Z" fill="#676666"/>
<path d="M273.241 195.78C273.042 195.739 272.827 195.757 272.645 195.88C272.28 196.124 272.178 196.634 272.421 197.001L275.301 201.336L272.421 205.672C272.178 206.038 272.28 206.549 272.645 206.793C273.01 207.037 273.519 206.935 273.762 206.569L276.94 201.785C277.118 201.517 277.118 201.156 276.94 200.888L273.762 196.104C273.641 195.92 273.44 195.82 273.241 195.78Z" fill="#2F3030"/>
<rect x="19.1565" y="184.999" width="272.688" height="32.6907" rx="4.38533" stroke="#E3E3E3" stroke-width="0.797333"/>
</g>
<rect x="5.5" y="5.5" width="300" height="232.227" rx="14.5" stroke="#9327FF" stroke-opacity="0.2"/>
<rect x="0.5" y="0.5" width="310" height="242" rx="19.5" stroke="#9327FF" stroke-opacity="0.2"/>
<defs>
<filter id="filter0_d_1182_65896" x="-17.3387" y="-24.704" width="348.272" height="86.1121" filterUnits="userSpaceOnUse" color-interpolation-filters="sRGB">
<feFlood flood-opacity="0" result="BackgroundImageFix"/>
<feColorMatrix in="SourceAlpha" type="matrix" values="0 0 0 0 0 0 0 0 0 0 0 0 0 0 0 0 0 0 127 0" result="hardAlpha"/>
<feOffset dx="0.797333" dy="-9.568"/>
<feGaussianBlur stdDeviation="9.568"/>
<feComposite in2="hardAlpha" operator="out"/>
<feColorMatrix type="matrix" values="0 0 0 0 0.796078 0 0 0 0 0.835294 0 0 0 0 0.878431 0 0 0 0.25 0"/>
<feBlend mode="normal" in2="BackgroundImageFix" result="effect1_dropShadow_1182_65896"/>
<feBlend mode="normal" in="SourceGraphic" in2="effect1_dropShadow_1182_65896" result="shape"/>
</filter>
<clipPath id="clip0_1182_65896">
<rect x="6" y="6" width="299" height="231.227" rx="14" fill="white"/>
</clipPath>
</defs>
</svg>
