<svg width="311" height="243" viewBox="0 0 311 243" fill="none" xmlns="http://www.w3.org/2000/svg">
<g clip-path="url(#clip0_1182_174382)">
<rect x="6" y="6" width="299" height="231.227" rx="14" fill="#26203C"/>
<g filter="url(#filter0_d_1182_174382)">
<rect width="310" height="47.84" transform="translate(1 4)" fill="#39324F"/>
<path d="M31.7815 23.7676C27.745 23.7676 24.4727 27.0398 24.4727 31.0765C24.4727 35.1132 27.745 38.3854 31.7815 38.3854C35.8181 38.3854 39.0904 35.1132 39.0904 31.0765C39.0904 27.0398 35.8181 23.7676 31.7815 23.7676ZM31.7815 27.422C32.1852 27.422 32.5124 27.7495 32.5124 28.1529V30.3456H34.7051C35.1088 30.3456 35.436 30.673 35.436 31.0765C35.436 31.4799 35.1088 31.8074 34.7051 31.8074H32.5124V34C32.5124 34.4035 32.1852 34.7309 31.7815 34.7309C31.3779 34.7309 31.0507 34.4035 31.0507 34V31.8074H28.858C28.4543 31.8074 28.1271 31.4799 28.1271 31.0765C28.1271 30.673 28.4543 30.3456 28.858 30.3456H31.0507V28.1529C31.0507 27.7495 31.3779 27.422 31.7815 27.422Z" fill="#F1F1F2"/>
<path d="M58.4203 24.6563C58.1005 24.657 57.7656 24.8348 57.6484 25.2048L54.1099 36.3675C53.9767 36.7869 54.1888 37.2302 54.6082 37.3641C55.0276 37.4973 55.4717 37.2852 55.6049 36.8658L56.7012 33.4269H60.1648L61.2859 36.8658C61.4222 37.2844 61.8639 37.4997 62.2825 37.3641C62.7011 37.2278 62.9164 36.7861 62.7809 36.3675L59.1682 25.2048C59.0486 24.8356 58.7408 24.6555 58.4203 24.6563ZM66.4685 27.8456C65.2502 27.8456 64.0837 28.7761 63.6779 29.9888C63.5383 30.4058 63.7584 30.8451 64.1762 30.9855C64.594 31.125 65.0333 30.9041 65.1729 30.4871C65.369 29.9011 65.9638 29.4402 66.4685 29.4402H67.1662C67.8288 29.4402 68.4124 30.1291 68.4124 31.0349V31.8322C67.706 31.8322 66.8321 31.8322 66.4685 31.8322C64.901 31.8322 63.6284 33.0769 63.6284 34.6229C63.6284 36.1697 64.901 37.416 66.4685 37.4136C66.5084 37.4136 66.7636 37.4144 66.8425 37.4136C67.454 37.4072 68.0138 37.2031 68.5121 36.8905C68.6293 37.1847 68.8733 37.4136 69.2098 37.4136C69.6499 37.4136 70.0071 37.0564 70.0071 36.6162V34.2242C70.0087 34.0584 70.0071 32.691 70.0071 32.6296V31.0349C70.0071 29.2983 68.7688 27.8456 67.1662 27.8456H66.4685ZM58.4203 28.0696L59.6418 31.8322H57.2243L58.4203 28.0696ZM66.4685 33.4269C66.8321 33.4269 67.7084 33.4269 68.4124 33.4269C68.4124 33.7889 68.4132 34.1222 68.4124 34.1995C68.3989 35.1842 67.6653 35.8101 66.8178 35.8189C66.7627 35.8197 66.5347 35.8189 66.4685 35.8189C65.7733 35.8197 65.2231 35.2791 65.2231 34.6229C65.2231 33.9675 65.7717 33.4269 66.4685 33.4269Z" fill="#2DA2F6"/>
<g opacity="0.3">
<path d="M86.7026 24.6685C86.2622 24.6685 85.9053 25.0257 85.9053 25.4659V36.6285C85.9053 37.0686 86.2622 37.4258 86.7026 37.4258C87.143 37.4258 87.4999 37.0686 87.4999 36.6285V31.8445H92.2839V36.6285C92.2839 37.0686 92.6409 37.4258 93.0813 37.4258C93.5216 37.4258 93.8786 37.0686 93.8786 36.6285V25.4659C93.8786 25.0257 93.5216 24.6685 93.0813 24.6685C92.6409 24.6685 92.2839 25.0257 92.2839 25.4659V30.2499H87.4999V25.4659C87.4999 25.0257 87.143 24.6685 86.7026 24.6685ZM99.7589 24.718C99.4815 24.6032 99.1381 24.6414 98.8868 24.8926L95.6975 28.0819C95.3861 28.3937 95.3861 28.9167 95.6975 29.2285C96.0089 29.5394 96.5323 29.5394 96.8437 29.2285L98.6626 27.409V36.6285C98.6626 37.0686 99.0196 37.4258 99.4599 37.4258C99.9003 37.4258 100.257 37.0686 100.257 36.6285V25.4659C100.257 25.1111 100.036 24.8336 99.7589 24.718Z" fill="white"/>
</g>
<g opacity="0.3">
<path d="M116.982 24.7285C116.542 24.7285 116.185 25.0855 116.185 25.5258V36.6885C116.185 37.1289 116.542 37.4858 116.982 37.4858C117.422 37.4858 117.779 37.1289 117.779 36.6885V25.5258C117.779 25.0855 117.422 24.7285 116.982 24.7285ZM120.171 28.7152C119.731 28.7152 119.374 29.0721 119.374 29.5125C119.374 29.9529 119.731 30.3098 120.171 30.3098H126.55C126.99 30.3098 127.347 29.9529 127.347 29.5125C127.347 29.0721 126.99 28.7152 126.55 28.7152H120.171ZM120.171 31.9045C119.731 31.9045 119.374 32.2615 119.374 32.7018C119.374 33.1422 119.731 33.4992 120.171 33.4992H131.334C131.774 33.4992 132.131 33.1422 132.131 32.7018C132.131 32.2615 131.774 31.9045 131.334 31.9045H120.171Z" fill="white"/>
</g>
<g opacity="0.3">
<path d="M151.216 23.9258C149.454 23.9258 148.026 25.3538 148.026 27.1151V34.2911V35.0884C148.026 36.8498 149.454 38.2778 151.216 38.2778H159.189C160.95 38.2778 162.378 36.8498 162.378 35.0884V34.2911V27.1151C162.378 25.3538 160.95 23.9258 159.189 23.9258H151.216ZM151.216 25.5204H159.189C160.07 25.5204 160.784 26.2341 160.784 27.1151L160.787 32.0554C160.167 31.4797 159.534 31.1193 158.84 31.1018C158.815 31.101 158.816 31.1018 158.79 31.1018C157.884 31.1018 156.876 31.7986 156.199 32.6717C156.026 32.281 155.851 31.8951 155.65 31.5252C154.71 29.7878 153.682 28.7122 152.412 28.7098C151.332 28.7074 150.406 29.59 149.615 30.7988L149.621 27.1151C149.621 26.2341 150.335 25.5204 151.216 25.5204ZM158.392 27.1151C157.952 27.1151 157.594 27.4723 157.594 27.9124C157.594 28.3526 157.952 28.7098 158.392 28.7098C158.832 28.7098 159.189 28.3526 159.189 27.9124C159.189 27.4723 158.832 27.1151 158.392 27.1151ZM152.412 30.3044C152.876 30.3052 153.581 31.0276 154.255 32.2731C154.523 32.7658 154.763 33.3088 154.978 33.843C155.107 34.1619 155.207 34.4059 155.252 34.5399C155.469 35.1913 156.353 35.2838 156.697 34.6898C156.732 34.6308 156.794 34.5176 156.897 34.3661C157.069 34.1109 157.265 33.8526 157.47 33.6182C157.982 33.0313 158.475 32.6964 158.79 32.6964C159.109 32.7044 159.6 33.0385 160.111 33.6182C160.318 33.8534 160.509 34.1109 160.684 34.3661C160.739 34.4458 160.747 34.4833 160.784 34.5399V35.0884C160.784 35.9695 160.07 36.6831 159.189 36.6831H151.216C150.335 36.6831 149.621 35.9695 149.621 35.0884V34.4155C149.671 34.2736 149.738 34.1053 149.845 33.843C150.063 33.3088 150.299 32.7666 150.568 32.2731C151.248 31.0252 151.948 30.3037 152.412 30.3044Z" fill="white"/>
</g>
<g opacity="0.3">
<path d="M179.084 26.4082C178.644 26.4082 178.287 26.7654 178.287 27.2055C178.287 27.6457 178.644 28.0029 179.084 28.0029H193.436C193.877 28.0029 194.234 27.6457 194.234 27.2055C194.234 26.7654 193.877 26.4082 193.436 26.4082H179.084ZM179.084 30.3949C178.644 30.3949 178.287 30.7521 178.287 31.1922C178.287 31.6323 178.644 31.9895 179.084 31.9895H193.436C193.877 31.9895 194.234 31.6323 194.234 31.1922C194.234 30.7521 193.877 30.3949 193.436 30.3949H179.084ZM179.084 34.3815C178.644 34.3815 178.287 34.7387 178.287 35.1789C178.287 35.619 178.644 35.9762 179.084 35.9762H193.436C193.877 35.9762 194.234 35.619 194.234 35.1789C194.234 34.7387 193.877 34.3815 193.436 34.3815H179.084Z" fill="white"/>
</g>
<g opacity="0.3">
<path d="M216.691 24.7469C216.26 24.6552 215.836 24.9144 215.744 25.3449L215.196 27.9115H213.327C212.887 27.9115 212.53 28.2687 212.53 28.7089C212.53 29.149 212.887 29.5062 213.327 29.5062H214.847L214.174 32.6955H212.53C212.09 32.6955 211.732 33.0527 211.732 33.4929C211.732 33.933 212.09 34.2902 212.53 34.2902H213.825L213.352 36.5076C213.26 36.9381 213.519 37.3623 213.95 37.4548C214.38 37.5473 214.805 37.2874 214.897 36.8568L215.445 34.2902H217.812L217.338 36.5076C217.247 36.9381 217.506 37.3623 217.936 37.4548C218.367 37.5473 218.791 37.2874 218.884 36.8568L219.431 34.2902H221.3C221.741 34.2902 222.098 33.933 222.098 33.4929C222.098 33.0527 221.741 32.6955 221.3 32.6955H219.781L220.454 29.5062H222.098C222.538 29.5062 222.895 29.149 222.895 28.7089C222.895 28.2687 222.538 27.9115 222.098 27.9115H220.802L221.276 25.6941C221.367 25.2636 221.108 24.8394 220.678 24.7469C220.247 24.6552 219.823 24.9144 219.73 25.3449L219.183 27.9115H216.815L217.289 25.6941C217.381 25.2636 217.122 24.8394 216.691 24.7469ZM216.467 29.5062H218.833L218.161 32.6955H215.794L216.467 29.5062Z" fill="white"/>
</g>
<g opacity="0.3">
<path d="M243.603 24.7285C241.842 24.7285 240.414 26.1565 240.414 27.9178V37.4859C240.414 38.1429 241.159 38.5033 241.685 38.1086L244.65 35.8912H253.171C254.933 35.8912 256.361 34.4632 256.361 32.7019V27.9178C256.361 26.1565 254.933 24.7285 253.171 24.7285H243.603ZM243.603 26.3232H253.171C254.052 26.3232 254.766 27.0368 254.766 27.9178V32.7019C254.766 33.5829 254.052 34.2965 253.171 34.2965H244.401C244.229 34.2965 244.065 34.3428 243.927 34.4464L242.009 35.8912V27.9178C242.009 27.0368 242.722 26.3232 243.603 26.3232Z" fill="white"/>
</g>
<g opacity="0.3">
<path d="M277.016 23.4984C275.885 23.8572 274.91 24.4425 274.05 25.243C273.785 25.4902 273.703 25.8952 273.876 26.2142C274.514 27.395 273.846 28.6588 272.405 28.7313C272.053 28.7489 271.741 29.0104 271.658 29.3541C271.516 29.9481 271.459 30.4456 271.459 31.0978C271.459 31.6456 271.518 32.2659 271.634 32.8177C271.705 33.1621 272.005 33.4101 272.356 33.4404C273.806 33.5656 274.523 34.6715 273.876 36.0812C273.732 36.3945 273.798 36.7693 274.05 37.0037C274.897 37.7867 275.87 38.3392 277.016 38.698C277.343 38.8001 277.712 38.6765 277.913 38.399C278.799 37.1719 280.085 37.1679 280.927 38.399C281.126 38.6884 281.489 38.828 281.824 38.7227C282.93 38.3743 283.96 37.7819 284.814 37.0037C285.077 36.7637 285.147 36.3754 284.989 36.0564C284.326 34.7177 285.089 33.489 286.458 33.4651C286.822 33.4587 287.146 33.2203 287.231 32.8671C287.369 32.2954 287.406 31.7979 287.406 31.0978C287.406 30.4966 287.335 29.9042 287.206 29.3293C287.125 28.965 286.807 28.7066 286.434 28.7058C285.085 28.7034 284.33 27.3783 284.989 26.2142C285.172 25.8904 285.115 25.4934 284.839 25.243C283.97 24.4536 282.91 23.8365 281.8 23.4984C281.458 23.3948 281.096 23.5224 280.903 23.8222C280.132 25.019 278.694 25.0397 277.937 23.8477C277.744 23.5415 277.36 23.3892 277.016 23.4984ZM281.862 25.192C282.406 25.42 282.836 25.6584 283.33 26.0324C282.751 27.8638 283.732 29.7663 285.766 30.2295C285.816 30.5588 285.811 30.7582 285.811 31.0978C285.811 31.5037 285.817 31.6464 285.77 31.9398C283.746 32.3592 282.744 34.2082 283.308 36.1625C282.823 36.5141 282.477 36.7581 281.868 36.9933C280.439 35.539 278.456 35.4752 276.996 37.0029C276.427 36.7525 275.989 36.5301 275.547 36.1561C276.095 34.1715 275.168 32.4581 273.109 31.9382C273.018 31.5746 273.054 30.5477 273.107 30.2359C275.236 29.7256 276.075 27.8415 275.546 26.0268C276.013 25.6752 276.434 25.4192 276.98 25.1976C278.355 26.5969 280.42 26.7364 281.862 25.192ZM279.432 27.9085C277.671 27.9085 276.243 29.3365 276.243 31.0978C276.243 32.8599 277.671 34.2872 279.432 34.2872C281.194 34.2872 282.622 32.8599 282.622 31.0978C282.622 29.3365 281.194 27.9085 279.432 27.9085ZM279.432 29.5032C280.313 29.5032 281.027 30.2176 281.027 31.0978C281.027 31.9789 280.313 32.6925 279.432 32.6925C278.551 32.6925 277.838 31.9789 277.838 31.0978C277.838 30.2176 278.551 29.5032 279.432 29.5032Z" fill="white"/>
</g>
</g>
<path d="M33.4997 75.291C32.8392 75.291 32.3037 75.7949 32.3037 76.4168C32.3037 76.9798 32.3037 80.3565 32.3037 80.9194V86.9225C32.3037 87.5444 32.8392 88.0483 33.4997 88.0483C33.6782 88.0483 35.4096 88.0483 36.689 88.0483C39.111 88.0483 41.0744 86.2001 41.0744 83.9213C41.0744 82.6344 40.4422 81.4942 39.5043 80.7687C40.011 80.1858 40.277 79.4794 40.277 78.6677C40.277 76.8027 38.6706 75.291 36.689 75.291C36.0883 75.291 33.9246 75.291 33.4997 75.291ZM34.6957 77.5427C35.4861 77.5427 36.3136 77.5427 36.689 77.5427C37.3496 77.5427 37.885 78.0466 37.885 78.6677C37.885 79.2896 37.3496 79.7935 36.689 79.7935C36.3236 79.7935 35.4868 79.7935 34.6957 79.7935C34.6957 78.9842 34.6957 78.3511 34.6957 77.5427ZM34.6957 82.0452C35.4881 82.0452 36.3189 82.0452 36.689 82.0452C37.7899 82.0452 38.6824 82.8848 38.6824 83.9213C38.6824 84.957 37.7899 85.7967 36.689 85.7967C35.8894 85.7967 35.359 85.7967 34.6957 85.7967V82.0452Z" fill="#F1F1F2"/>
<path d="M54.0464 81.2591C54.4631 81.3335 54.8166 81.553 55.1068 81.9177C55.397 82.2823 55.5422 82.6953 55.5422 83.1567C55.5422 83.5511 55.438 83.9083 55.2296 84.2283C55.0287 84.5409 54.7347 84.7902 54.3477 84.9762C53.9608 85.1548 53.5105 85.2441 52.9971 85.2441H49.8938V77.4861H52.8519C53.3803 77.4861 53.8343 77.5754 54.2138 77.754C54.5933 77.9326 54.8798 78.1745 55.0733 78.4796C55.2668 78.7772 55.3635 79.1121 55.3635 79.4842C55.3635 79.9307 55.2445 80.3028 55.0063 80.6005C54.7682 80.8981 54.4482 81.1177 54.0464 81.2591ZM51.1664 80.7456H52.7403C53.1571 80.7456 53.4808 80.6526 53.7115 80.4665C53.9496 80.273 54.0687 79.9977 54.0687 79.6405C54.0687 79.2907 53.9496 79.0191 53.7115 78.8256C53.4808 78.6247 53.1571 78.5242 52.7403 78.5242H51.1664V80.7456ZM52.8854 84.206C53.3171 84.206 53.6557 84.1018 53.9012 83.8935C54.1468 83.6851 54.2696 83.3949 54.2696 83.0228C54.2696 82.6432 54.1394 82.3418 53.8789 82.1186C53.6185 81.8953 53.2724 81.7837 52.8408 81.7837H51.1664V84.206H52.8854ZM59.5929 85.3446C59.0124 85.3446 58.4878 85.2144 58.019 84.9539C57.5501 84.686 57.1818 84.3139 56.9139 83.8376C56.6459 83.3539 56.512 82.7958 56.512 82.1632C56.512 81.5381 56.6497 80.9837 56.925 80.5C57.2004 80.0163 57.5762 79.6442 58.0524 79.3837C58.5287 79.1233 59.0608 78.993 59.6487 78.993C60.2366 78.993 60.7687 79.1233 61.245 79.3837C61.7212 79.6442 62.097 80.0163 62.3724 80.5C62.6477 80.9837 62.7854 81.5381 62.7854 82.1632C62.7854 82.7884 62.644 83.3428 62.3612 83.8265C62.0784 84.3102 61.6915 84.686 61.2003 84.9539C60.7166 85.2144 60.1808 85.3446 59.5929 85.3446ZM59.5929 84.2395C59.9203 84.2395 60.2254 84.1614 60.5082 84.0051C60.7985 83.8488 61.0329 83.6144 61.2115 83.3018C61.3901 82.9893 61.4794 82.6098 61.4794 82.1632C61.4794 81.7167 61.3938 81.3409 61.2226 81.0358C61.0515 80.7233 60.8245 80.4888 60.5417 80.3326C60.2589 80.1763 59.9538 80.0982 59.6264 80.0982C59.2989 80.0982 58.9938 80.1763 58.711 80.3326C58.4357 80.4888 58.2162 80.7233 58.0524 81.0358C57.8887 81.3409 57.8069 81.7167 57.8069 82.1632C57.8069 82.8256 57.9743 83.339 58.3092 83.7037C58.6515 84.0609 59.0794 84.2395 59.5929 84.2395ZM65.3159 76.9838V85.2441H64.0434V76.9838H65.3159ZM66.5625 82.1409C66.5625 81.5233 66.689 80.9763 66.942 80.5C67.2025 80.0237 67.5523 79.6554 67.9913 79.3949C68.4378 79.127 68.9327 78.993 69.476 78.993C69.8778 78.993 70.2722 79.0823 70.6592 79.261C71.0536 79.4321 71.3662 79.6628 71.5969 79.953V76.9838H72.8806V85.2441H71.5969V84.3176C71.3885 84.6153 71.0983 84.8609 70.7262 85.0544C70.3615 85.2479 69.9411 85.3446 69.4648 85.3446C68.929 85.3446 68.4378 85.2107 67.9913 84.9427C67.5523 84.6674 67.2025 84.2879 66.942 83.8042C66.689 83.313 66.5625 82.7586 66.5625 82.1409ZM71.5969 82.1632C71.5969 81.7391 71.5076 81.3707 71.329 81.0581C71.1578 80.7456 70.9308 80.5074 70.648 80.3437C70.3652 80.18 70.0601 80.0982 69.7327 80.0982C69.4053 80.0982 69.1001 80.18 68.8174 80.3437C68.5346 80.5 68.3039 80.7344 68.1253 81.047C67.9541 81.3521 67.8685 81.7167 67.8685 82.1409C67.8685 82.5651 67.9541 82.9372 68.1253 83.2572C68.3039 83.5772 68.5346 83.8228 68.8174 83.9939C69.1076 84.1576 69.4127 84.2395 69.7327 84.2395C70.0601 84.2395 70.3652 84.1576 70.648 83.9939C70.9308 83.8302 71.1578 83.5921 71.329 83.2795C71.5076 82.9595 71.5969 82.5874 71.5969 82.1632Z" fill="#F1F1F2"/>
<rect x="19.1565" y="65.3987" width="132.756" height="32.6907" rx="4.38533" stroke="#7D26D8" stroke-opacity="0.5" stroke-width="0.797333"/>
<path d="M173.033 75.291C172.593 75.291 172.235 75.6482 172.235 76.0883V80.8723C172.235 83.0738 174.021 84.859 176.222 84.859C178.423 84.859 180.209 83.0738 180.209 80.8723V76.0883C180.209 75.6482 179.851 75.291 179.411 75.291C178.971 75.291 178.614 75.6482 178.614 76.0883V80.8723C178.614 82.1935 177.543 83.2643 176.222 83.2643C174.901 83.2643 173.83 82.1935 173.83 80.8723V76.0883C173.83 75.6482 173.473 75.291 173.033 75.291ZM173.033 86.4536C172.593 86.4536 172.235 86.8108 172.235 87.251C172.235 87.6911 172.593 88.0483 173.033 88.0483H179.411C179.851 88.0483 180.209 87.6911 180.209 87.251C180.209 86.8108 179.851 86.4536 179.411 86.4536H173.033Z" fill="#F1F1F2"/>
<path d="M191.087 77.4861V82.4311C191.087 83.019 191.239 83.4618 191.545 83.7595C191.857 84.0572 192.289 84.206 192.839 84.206C193.398 84.206 193.829 84.0572 194.134 83.7595C194.447 83.4618 194.603 83.019 194.603 82.4311V77.4861H195.876V82.4088C195.876 83.0414 195.738 83.5772 195.463 84.0162C195.187 84.4553 194.819 84.7828 194.358 84.9986C193.896 85.2144 193.386 85.3223 192.828 85.3223C192.27 85.3223 191.76 85.2144 191.299 84.9986C190.845 84.7828 190.484 84.4553 190.216 84.0162C189.948 83.5772 189.814 83.0414 189.814 82.4088V77.4861H191.087ZM200.636 78.993C201.119 78.993 201.551 79.0935 201.931 79.2944C202.318 79.4954 202.619 79.793 202.835 80.1875C203.051 80.5819 203.159 81.0581 203.159 81.6163V85.2441H201.897V81.806C201.897 81.2553 201.759 80.8349 201.484 80.5447C201.209 80.247 200.833 80.0982 200.357 80.0982C199.88 80.0982 199.501 80.247 199.218 80.5447C198.943 80.8349 198.805 81.2553 198.805 81.806V85.2441H197.533V79.0935H198.805V79.7968C199.013 79.5437 199.278 79.3465 199.598 79.2051C199.925 79.0637 200.271 78.993 200.636 78.993ZM204.358 82.1409C204.358 81.5233 204.484 80.9763 204.737 80.5C204.998 80.0237 205.347 79.6554 205.786 79.3949C206.233 79.127 206.728 78.993 207.271 78.993C207.673 78.993 208.067 79.0823 208.454 79.261C208.849 79.4321 209.161 79.6628 209.392 79.953V76.9838H210.676V85.2441H209.392V84.3176C209.184 84.6153 208.893 84.8609 208.521 85.0544C208.157 85.2479 207.736 85.3446 207.26 85.3446C206.724 85.3446 206.233 85.2107 205.786 84.9427C205.347 84.6674 204.998 84.2879 204.737 83.8042C204.484 83.313 204.358 82.7586 204.358 82.1409ZM209.392 82.1632C209.392 81.7391 209.303 81.3707 209.124 81.0581C208.953 80.7456 208.726 80.5074 208.443 80.3437C208.16 80.18 207.855 80.0982 207.528 80.0982C207.2 80.0982 206.895 80.18 206.612 80.3437C206.33 80.5 206.099 80.7344 205.92 81.047C205.749 81.3521 205.664 81.7167 205.664 82.1409C205.664 82.5651 205.749 82.9372 205.92 83.2572C206.099 83.5772 206.33 83.8228 206.612 83.9939C206.903 84.1576 207.208 84.2395 207.528 84.2395C207.855 84.2395 208.16 84.1576 208.443 83.9939C208.726 83.8302 208.953 83.5921 209.124 83.2795C209.303 82.9595 209.392 82.5874 209.392 82.1632ZM217.984 82.0181C217.984 82.2488 217.969 82.4572 217.94 82.6432H213.24C213.277 83.1344 213.46 83.5288 213.787 83.8265C214.114 84.1242 214.516 84.273 214.993 84.273C215.677 84.273 216.161 83.9865 216.444 83.4135H217.817C217.631 83.979 217.292 84.4441 216.801 84.8088C216.317 85.166 215.714 85.3446 214.993 85.3446C214.405 85.3446 213.876 85.2144 213.407 84.9539C212.946 84.686 212.581 84.3139 212.314 83.8376C212.053 83.3539 211.923 82.7958 211.923 82.1632C211.923 81.5307 212.049 80.9763 212.302 80.5C212.563 80.0163 212.924 79.6442 213.385 79.3837C213.854 79.1233 214.39 78.993 214.993 78.993C215.573 78.993 216.09 79.1196 216.544 79.3726C216.998 79.6256 217.352 79.9828 217.605 80.4442C217.858 80.8981 217.984 81.4228 217.984 82.0181ZM216.656 81.6163C216.648 81.1474 216.481 80.7716 216.154 80.4888C215.826 80.2061 215.42 80.0647 214.937 80.0647C214.498 80.0647 214.122 80.2061 213.809 80.4888C213.497 80.7642 213.311 81.14 213.251 81.6163H216.656ZM220.509 79.9865C220.695 79.674 220.941 79.4321 221.246 79.261C221.558 79.0823 221.927 78.993 222.351 78.993V80.3102H222.027C221.529 80.3102 221.149 80.4368 220.889 80.6898C220.636 80.9428 220.509 81.3819 220.509 82.007V85.2441H219.236V79.0935H220.509V79.9865ZM224.793 76.9838V85.2441H223.521V76.9838H224.793ZM227.111 78.2786C226.881 78.2786 226.687 78.2005 226.531 78.0442C226.375 77.8879 226.296 77.6945 226.296 77.4638C226.296 77.2331 226.375 77.0396 226.531 76.8833C226.687 76.727 226.881 76.6489 227.111 76.6489C227.335 76.6489 227.524 76.727 227.681 76.8833C227.837 77.0396 227.915 77.2331 227.915 77.4638C227.915 77.6945 227.837 77.8879 227.681 78.0442C227.524 78.2005 227.335 78.2786 227.111 78.2786ZM227.736 79.0935V85.2441H226.464V79.0935H227.736ZM232.51 78.993C232.994 78.993 233.426 79.0935 233.805 79.2944C234.192 79.4954 234.494 79.793 234.709 80.1875C234.925 80.5819 235.033 81.0581 235.033 81.6163V85.2441H233.772V81.806C233.772 81.2553 233.634 80.8349 233.359 80.5447C233.083 80.247 232.708 80.0982 232.231 80.0982C231.755 80.0982 231.376 80.247 231.093 80.5447C230.817 80.8349 230.68 81.2553 230.68 81.806V85.2441H229.407V79.0935H230.68V79.7968C230.888 79.5437 231.152 79.3465 231.472 79.2051C231.8 79.0637 232.146 78.993 232.51 78.993ZM242.294 82.0181C242.294 82.2488 242.279 82.4572 242.249 82.6432H237.549C237.587 83.1344 237.769 83.5288 238.096 83.8265C238.424 84.1242 238.826 84.273 239.302 84.273C239.987 84.273 240.47 83.9865 240.753 83.4135H242.126C241.94 83.979 241.601 84.4441 241.11 84.8088C240.627 85.166 240.024 85.3446 239.302 85.3446C238.714 85.3446 238.186 85.2144 237.717 84.9539C237.255 84.686 236.891 84.3139 236.623 83.8376C236.362 83.3539 236.232 82.7958 236.232 82.1632C236.232 81.5307 236.359 80.9763 236.612 80.5C236.872 80.0163 237.233 79.6442 237.694 79.3837C238.163 79.1233 238.699 78.993 239.302 78.993C239.882 78.993 240.4 79.1196 240.854 79.3726C241.307 79.6256 241.661 79.9828 241.914 80.4442C242.167 80.8981 242.294 81.4228 242.294 82.0181ZM240.965 81.6163C240.958 81.1474 240.79 80.7716 240.463 80.4888C240.135 80.2061 239.73 80.0647 239.246 80.0647C238.807 80.0647 238.431 80.2061 238.119 80.4888C237.806 80.7642 237.62 81.14 237.561 81.6163H240.965Z" fill="#F1F1F2"/>
<rect x="159.088" y="65.3987" width="132.756" height="32.6907" rx="4.38533" stroke="#7D26D8" stroke-opacity="0.5" stroke-width="0.797333"/>
<path d="M35.5121 115.158C35.0719 115.158 34.7147 115.515 34.7147 115.956C34.7147 116.396 35.0719 116.753 35.5121 116.753H36.8324L34.1167 126.321H32.3227C31.8826 126.321 31.5254 126.678 31.5254 127.118C31.5254 127.558 31.8826 127.915 32.3227 127.915H37.1067C37.5468 127.915 37.904 127.558 37.904 127.118C37.904 126.678 37.5468 126.321 37.1067 126.321H35.7863L38.502 116.753H40.296C40.7362 116.753 41.0934 116.396 41.0934 115.956C41.0934 115.515 40.7362 115.158 40.296 115.158H35.5121Z" fill="#00BCF0"/>
<path d="M51.3896 117.32V125.111H49.8269V117.32H51.3896ZM54.7532 120.211V123.203C54.7532 123.411 54.8015 123.563 54.8983 123.66C55.0025 123.749 55.1736 123.794 55.4118 123.794H56.1373V125.111H55.155C53.8378 125.111 53.1792 124.471 53.1792 123.191V120.211H52.4425V118.927H53.1792V117.398H54.7532V118.927H56.1373V120.211H54.7532ZM56.8595 121.997C56.8595 121.372 56.9823 120.817 57.2279 120.334C57.4809 119.85 57.8195 119.478 58.2437 119.217C58.6753 118.957 59.1553 118.827 59.6837 118.827C60.1451 118.827 60.5469 118.92 60.8892 119.106C61.239 119.292 61.5181 119.526 61.7264 119.809V118.927H63.3004V125.111H61.7264V124.207C61.5255 124.497 61.2464 124.739 60.8892 124.933C60.5395 125.119 60.1339 125.212 59.6725 125.212C59.1516 125.212 58.6753 125.078 58.2437 124.81C57.8195 124.542 57.4809 124.166 57.2279 123.683C56.9823 123.191 56.8595 122.629 56.8595 121.997ZM61.7264 122.019C61.7264 121.64 61.652 121.316 61.5032 121.048C61.3544 120.773 61.1534 120.564 60.9004 120.423C60.6474 120.274 60.3758 120.2 60.0855 120.2C59.7953 120.2 59.5274 120.27 59.2818 120.412C59.0362 120.553 58.8353 120.762 58.679 121.037C58.5302 121.305 58.4558 121.625 58.4558 121.997C58.4558 122.369 58.5302 122.696 58.679 122.979C58.8353 123.255 59.0362 123.467 59.2818 123.616C59.5348 123.764 59.8027 123.839 60.0855 123.839C60.3758 123.839 60.6474 123.768 60.9004 123.627C61.1534 123.478 61.3544 123.269 61.5032 123.002C61.652 122.726 61.7264 122.399 61.7264 122.019ZM66.3895 116.851V125.111H64.8267V116.851H66.3895ZM68.726 118.19C68.4507 118.19 68.22 118.105 68.034 117.934C67.8554 117.755 67.7661 117.536 67.7661 117.275C67.7661 117.015 67.8554 116.799 68.034 116.628C68.22 116.449 68.4507 116.36 68.726 116.36C69.0014 116.36 69.2284 116.449 69.407 116.628C69.593 116.799 69.686 117.015 69.686 117.275C69.686 117.536 69.593 117.755 69.407 117.934C69.2284 118.105 69.0014 118.19 68.726 118.19ZM69.4963 118.927V125.111H67.9335V118.927H69.4963ZM70.6384 122.019C70.6384 121.379 70.7687 120.821 71.0291 120.345C71.2896 119.861 71.6505 119.489 72.1119 119.229C72.5733 118.961 73.1017 118.827 73.697 118.827C74.4635 118.827 75.0961 119.02 75.5947 119.407C76.1007 119.787 76.4393 120.323 76.6105 121.015H74.9249C74.8356 120.747 74.683 120.538 74.4672 120.39C74.2589 120.233 73.9984 120.155 73.6858 120.155C73.2393 120.155 72.8859 120.319 72.6254 120.646C72.3649 120.966 72.2347 121.424 72.2347 122.019C72.2347 122.607 72.3649 123.065 72.6254 123.392C72.8859 123.712 73.2393 123.872 73.6858 123.872C74.3184 123.872 74.7314 123.589 74.9249 123.024H76.6105C76.4393 123.694 76.1007 124.226 75.5947 124.62C75.0886 125.015 74.4561 125.212 73.697 125.212C73.1017 125.212 72.5733 125.082 72.1119 124.821C71.6505 124.553 71.2896 124.181 71.0291 123.705C70.7687 123.221 70.6384 122.659 70.6384 122.019Z" fill="#F1F1F2"/>
<rect x="19.5551" y="105.665" width="131.959" height="31.8933" rx="3.98667" stroke="#00BCF0" stroke-width="1.59467"/>
<path d="M176.235 115.158C174.473 115.158 173.045 116.586 173.045 118.348C173.045 118.851 173.171 119.351 173.395 119.792C173.542 120.086 173.783 120.394 174.117 120.74H171.451C171.011 120.74 170.653 121.097 170.653 121.537C170.653 121.977 171.011 122.334 171.451 122.334H175.96C176.005 122.373 176.028 122.388 176.085 122.434C176.338 122.64 176.6 122.864 176.833 123.081C176.998 123.236 177.127 123.366 177.256 123.505C177.486 123.753 177.652 123.983 177.705 124.103C177.791 124.301 177.829 124.504 177.829 124.726C177.829 125.607 177.116 126.321 176.235 126.321C175.354 126.321 174.64 125.607 174.64 124.726C174.64 124.286 174.283 123.929 173.843 123.929C173.403 123.929 173.045 124.286 173.045 124.726C173.045 126.487 174.473 127.915 176.235 127.915C177.996 127.915 179.424 126.487 179.424 124.726C179.424 124.284 179.323 123.853 179.15 123.455C179.01 123.133 178.769 122.802 178.427 122.434C178.398 122.402 178.359 122.367 178.328 122.334H181.019C181.459 122.334 181.816 121.977 181.816 121.537C181.816 121.097 181.459 120.74 181.019 120.74H176.509C176.463 120.7 176.44 120.685 176.385 120.64C176.136 120.437 175.891 120.228 175.661 120.017C175.522 119.888 175.402 119.76 175.287 119.643C175.043 119.392 174.876 119.193 174.815 119.07C174.704 118.85 174.64 118.601 174.64 118.348C174.64 117.466 175.354 116.753 176.235 116.753C177.116 116.753 177.829 117.466 177.829 118.348C177.829 118.788 178.187 119.145 178.627 119.145C179.067 119.145 179.424 118.788 179.424 118.348C179.424 116.586 177.996 115.158 176.235 115.158Z" fill="#F1F1F2"/>
<path d="M192.382 125.189C191.861 125.189 191.392 125.1 190.975 124.922C190.558 124.736 190.231 124.475 189.993 124.14C189.755 123.805 189.636 123.415 189.636 122.968H190.998C191.027 123.303 191.158 123.578 191.388 123.794C191.626 124.01 191.958 124.118 192.382 124.118C192.821 124.118 193.163 124.014 193.409 123.805C193.654 123.589 193.777 123.314 193.777 122.979C193.777 122.719 193.699 122.507 193.543 122.343C193.394 122.179 193.204 122.053 192.973 121.963C192.75 121.874 192.438 121.777 192.036 121.673C191.53 121.539 191.117 121.405 190.797 121.271C190.484 121.13 190.216 120.914 189.993 120.624C189.77 120.334 189.658 119.947 189.658 119.463C189.658 119.017 189.77 118.626 189.993 118.291C190.216 117.956 190.529 117.699 190.931 117.521C191.332 117.342 191.798 117.253 192.326 117.253C193.078 117.253 193.691 117.443 194.168 117.822C194.651 118.194 194.919 118.708 194.971 119.363H193.565C193.543 119.08 193.409 118.838 193.163 118.637C192.918 118.436 192.594 118.336 192.192 118.336C191.827 118.336 191.53 118.429 191.299 118.615C191.068 118.801 190.953 119.069 190.953 119.418C190.953 119.657 191.024 119.854 191.165 120.01C191.314 120.159 191.5 120.278 191.723 120.367C191.946 120.456 192.252 120.553 192.638 120.657C193.152 120.799 193.569 120.94 193.889 121.082C194.216 121.223 194.491 121.443 194.715 121.74C194.945 122.03 195.061 122.421 195.061 122.912C195.061 123.307 194.953 123.679 194.737 124.029C194.529 124.378 194.22 124.661 193.811 124.877C193.409 125.085 192.932 125.189 192.382 125.189ZM198.047 119.999V123.403C198.047 123.634 198.099 123.802 198.203 123.906C198.315 124.003 198.501 124.051 198.761 124.051H199.543V125.111H198.538C197.965 125.111 197.526 124.977 197.221 124.709C196.916 124.442 196.763 124.006 196.763 123.403V119.999H196.038V118.961H196.763V117.431H198.047V118.961H199.543V119.999H198.047ZM201.988 119.854C202.174 119.541 202.42 119.299 202.725 119.128C203.037 118.95 203.406 118.86 203.83 118.86V120.177H203.506C203.008 120.177 202.628 120.304 202.368 120.557C202.115 120.81 201.988 121.249 201.988 121.874V125.111H200.716V118.961H201.988V119.854ZM205.647 118.146C205.416 118.146 205.223 118.068 205.067 117.911C204.91 117.755 204.832 117.562 204.832 117.331C204.832 117.1 204.91 116.907 205.067 116.75C205.223 116.594 205.416 116.516 205.647 116.516C205.87 116.516 206.06 116.594 206.216 116.75C206.373 116.907 206.451 117.1 206.451 117.331C206.451 117.562 206.373 117.755 206.216 117.911C206.06 118.068 205.87 118.146 205.647 118.146ZM206.272 118.961V125.111H205V118.961H206.272ZM210.376 122.042L213.212 125.111H211.493L209.216 122.466V125.111H207.943V116.851H209.216V121.651L211.448 118.961H213.212L210.376 122.042ZM219.761 121.885C219.761 122.116 219.746 122.324 219.716 122.51H215.017C215.054 123.002 215.236 123.396 215.564 123.694C215.891 123.991 216.293 124.14 216.769 124.14C217.454 124.14 217.938 123.854 218.221 123.281H219.594C219.408 123.846 219.069 124.311 218.578 124.676C218.094 125.033 217.491 125.212 216.769 125.212C216.182 125.212 215.653 125.082 215.184 124.821C214.723 124.553 214.358 124.181 214.09 123.705C213.83 123.221 213.7 122.663 213.7 122.03C213.7 121.398 213.826 120.843 214.079 120.367C214.34 119.883 214.701 119.511 215.162 119.251C215.631 118.99 216.167 118.86 216.769 118.86C217.35 118.86 217.867 118.987 218.321 119.24C218.775 119.493 219.129 119.85 219.382 120.311C219.635 120.765 219.761 121.29 219.761 121.885ZM218.433 121.483C218.425 121.015 218.258 120.639 217.93 120.356C217.603 120.073 217.197 119.932 216.714 119.932C216.275 119.932 215.899 120.073 215.586 120.356C215.274 120.631 215.088 121.007 215.028 121.483H218.433ZM222.498 119.999V123.403C222.498 123.634 222.55 123.802 222.654 123.906C222.766 124.003 222.952 124.051 223.212 124.051H223.994V125.111H222.989C222.416 125.111 221.977 124.977 221.672 124.709C221.367 124.442 221.214 124.006 221.214 123.403V119.999H220.489V118.961H221.214V117.431H222.498V118.961H223.994V119.999H222.498ZM228.348 118.86C228.817 118.86 229.234 118.961 229.598 119.162C229.97 119.363 230.261 119.66 230.469 120.055C230.685 120.449 230.793 120.925 230.793 121.483V125.111H229.531V121.673C229.531 121.123 229.394 120.702 229.118 120.412C228.843 120.114 228.467 119.965 227.991 119.965C227.515 119.965 227.135 120.114 226.852 120.412C226.577 120.702 226.439 121.123 226.439 121.673V125.111H225.167V116.851H226.439V119.675C226.655 119.415 226.927 119.214 227.254 119.072C227.589 118.931 227.954 118.86 228.348 118.86ZM233.688 119.854C233.874 119.541 234.12 119.299 234.425 119.128C234.738 118.95 235.106 118.86 235.53 118.86V120.177H235.207C234.708 120.177 234.328 120.304 234.068 120.557C233.815 120.81 233.688 121.249 233.688 121.874V125.111H232.416V118.961H233.688V119.854ZM239.368 125.212C238.787 125.212 238.263 125.082 237.794 124.821C237.325 124.553 236.957 124.181 236.689 123.705C236.421 123.221 236.287 122.663 236.287 122.03C236.287 121.405 236.425 120.851 236.7 120.367C236.975 119.883 237.351 119.511 237.827 119.251C238.304 118.99 238.836 118.86 239.424 118.86C240.012 118.86 240.544 118.99 241.02 119.251C241.496 119.511 241.872 119.883 242.147 120.367C242.423 120.851 242.56 121.405 242.56 122.03C242.56 122.656 242.419 123.21 242.136 123.694C241.853 124.177 241.466 124.553 240.975 124.821C240.492 125.082 239.956 125.212 239.368 125.212ZM239.368 124.107C239.695 124.107 240 124.029 240.283 123.872C240.573 123.716 240.808 123.482 240.986 123.169C241.165 122.856 241.254 122.477 241.254 122.03C241.254 121.584 241.169 121.208 240.998 120.903C240.826 120.59 240.599 120.356 240.317 120.2C240.034 120.043 239.729 119.965 239.401 119.965C239.074 119.965 238.769 120.043 238.486 120.2C238.211 120.356 237.991 120.59 237.827 120.903C237.664 121.208 237.582 121.584 237.582 122.03C237.582 122.693 237.749 123.206 238.084 123.571C238.426 123.928 238.854 124.107 239.368 124.107ZM249.389 118.961V125.111H248.116V124.386C247.915 124.639 247.651 124.84 247.323 124.989C247.003 125.13 246.661 125.201 246.296 125.201C245.813 125.201 245.377 125.1 244.99 124.899C244.611 124.698 244.31 124.401 244.086 124.006C243.87 123.612 243.763 123.136 243.763 122.577V118.961H245.024V122.388C245.024 122.938 245.162 123.363 245.437 123.66C245.712 123.95 246.088 124.096 246.564 124.096C247.041 124.096 247.416 123.95 247.692 123.66C247.975 123.363 248.116 122.938 248.116 122.388V118.961H249.389ZM253.546 118.86C254.022 118.86 254.442 118.957 254.807 119.15C255.179 119.337 255.469 119.571 255.678 119.854V118.961H256.961V125.212C256.961 125.777 256.842 126.28 256.604 126.719C256.366 127.165 256.02 127.515 255.566 127.768C255.12 128.021 254.584 128.148 253.959 128.148C253.125 128.148 252.433 127.95 251.882 127.556C251.332 127.169 251.019 126.641 250.945 125.971H252.206C252.303 126.291 252.508 126.548 252.82 126.741C253.14 126.942 253.52 127.042 253.959 127.042C254.472 127.042 254.885 126.886 255.198 126.574C255.518 126.261 255.678 125.807 255.678 125.212V124.185C255.462 124.475 255.168 124.721 254.796 124.922C254.431 125.115 254.014 125.212 253.546 125.212C253.01 125.212 252.519 125.078 252.072 124.81C251.633 124.535 251.283 124.155 251.023 123.671C250.77 123.18 250.643 122.626 250.643 122.008C250.643 121.39 250.77 120.843 251.023 120.367C251.283 119.891 251.633 119.523 252.072 119.262C252.519 118.994 253.01 118.86 253.546 118.86ZM255.678 122.03C255.678 121.606 255.588 121.238 255.41 120.925C255.239 120.613 255.012 120.375 254.729 120.211C254.446 120.047 254.141 119.965 253.814 119.965C253.486 119.965 253.181 120.047 252.898 120.211C252.615 120.367 252.385 120.602 252.206 120.914C252.035 121.219 251.949 121.584 251.949 122.008C251.949 122.432 252.035 122.804 252.206 123.124C252.385 123.444 252.615 123.69 252.898 123.861C253.188 124.025 253.494 124.107 253.814 124.107C254.141 124.107 254.446 124.025 254.729 123.861C255.012 123.697 255.239 123.459 255.41 123.147C255.588 122.827 255.678 122.455 255.678 122.03ZM261.814 118.86C262.283 118.86 262.7 118.961 263.064 119.162C263.437 119.363 263.727 119.66 263.935 120.055C264.151 120.449 264.259 120.925 264.259 121.483V125.111H262.997V121.673C262.997 121.123 262.86 120.702 262.584 120.412C262.309 120.114 261.933 119.965 261.457 119.965C260.981 119.965 260.601 120.114 260.318 120.412C260.043 120.702 259.905 121.123 259.905 121.673V125.111H258.633V116.851H259.905V119.675C260.121 119.415 260.393 119.214 260.72 119.072C261.055 118.931 261.42 118.86 261.814 118.86Z" fill="#F1F1F2"/>
<rect x="159.088" y="105.266" width="132.756" height="32.6907" rx="4.38533" stroke="#7D26D8" stroke-opacity="0.5" stroke-width="0.797333"/>
<path d="M29.1362 155.898C28.6961 155.898 28.3389 156.256 28.3389 156.696C28.3389 157.136 28.6961 157.493 29.1362 157.493H43.4882C43.9283 157.493 44.2855 157.136 44.2855 156.696C44.2855 156.256 43.9283 155.898 43.4882 155.898H29.1362ZM37.1095 159.088C36.6694 159.088 36.3122 159.445 36.3122 159.885C36.3122 160.325 36.6694 160.682 37.1095 160.682H43.4882C43.9283 160.682 44.2855 160.325 44.2855 159.885C44.2855 159.445 43.9283 159.088 43.4882 159.088H37.1095ZM30.8553 159.163C29.7812 159.988 29.1362 161.27 29.1362 162.651C29.1362 162.659 29.1362 162.668 29.1362 162.676C29.1362 163.337 29.6712 163.872 30.3322 163.872C30.9932 163.872 31.5282 163.337 31.5282 162.676C31.5282 162.015 30.9932 161.48 30.3322 161.48C30.2756 161.48 30.1879 161.473 30.1329 161.48C30.3561 160.803 30.758 160.224 31.3289 159.785C31.5035 159.651 31.5378 159.412 31.4038 159.238C31.2691 159.062 31.0299 159.028 30.8553 159.163ZM34.0446 159.163C32.9706 159.988 32.3255 161.27 32.3255 162.651C32.3255 162.659 32.3255 162.668 32.3255 162.676C32.3255 163.337 32.8605 163.872 33.5215 163.872C34.1825 163.872 34.7175 163.337 34.7175 162.676C34.7175 162.015 34.1825 161.48 33.5215 161.48C33.4649 161.48 33.3772 161.497 33.3222 161.504C33.5455 160.828 33.9473 160.224 34.5182 159.785C34.6928 159.651 34.7271 159.412 34.5931 159.238C34.4584 159.062 34.2192 159.028 34.0446 159.163ZM37.1095 162.277C36.6694 162.277 36.3122 162.634 36.3122 163.074C36.3122 163.515 36.6694 163.872 37.1095 163.872H43.4882C43.9283 163.872 44.2855 163.515 44.2855 163.074C44.2855 162.634 43.9283 162.277 43.4882 162.277H37.1095ZM29.1362 165.466C28.6961 165.466 28.3389 165.824 28.3389 166.264C28.3389 166.704 28.6961 167.061 29.1362 167.061H43.4882C43.9283 167.061 44.2855 166.704 44.2855 166.264C44.2855 165.824 43.9283 165.466 43.4882 165.466H29.1362Z" fill="#F1F1F2"/>
<path d="M54.0464 160.991C54.4631 161.066 54.8166 161.285 55.1068 161.65C55.397 162.015 55.5422 162.428 55.5422 162.889C55.5422 163.284 55.438 163.641 55.2296 163.961C55.0287 164.273 54.7347 164.523 54.3477 164.709C53.9608 164.887 53.5105 164.977 52.9971 164.977H49.8938V157.219H52.8519C53.3803 157.219 53.8343 157.308 54.2138 157.486C54.5933 157.665 54.8798 157.907 55.0733 158.212C55.2668 158.51 55.3635 158.845 55.3635 159.217C55.3635 159.663 55.2445 160.035 55.0063 160.333C54.7682 160.631 54.4482 160.85 54.0464 160.991ZM51.1664 160.478H52.7403C53.1571 160.478 53.4808 160.385 53.7115 160.199C53.9496 160.005 54.0687 159.73 54.0687 159.373C54.0687 159.023 53.9496 158.752 53.7115 158.558C53.4808 158.357 53.1571 158.257 52.7403 158.257H51.1664V160.478ZM52.8854 163.938C53.3171 163.938 53.6557 163.834 53.9012 163.626C54.1468 163.418 54.2696 163.127 54.2696 162.755C54.2696 162.376 54.1394 162.074 53.8789 161.851C53.6185 161.628 53.2724 161.516 52.8408 161.516H51.1664V163.938H52.8854ZM58.1976 156.716V164.977H56.925V156.716H58.1976ZM62.5362 165.077C61.9557 165.077 61.4311 164.947 60.9622 164.686C60.4934 164.418 60.125 164.046 59.8571 163.57C59.5892 163.086 59.4553 162.528 59.4553 161.896C59.4553 161.271 59.5929 160.716 59.8683 160.232C60.1436 159.749 60.5195 159.377 60.9957 159.116C61.472 158.856 62.0041 158.725 62.592 158.725C63.1799 158.725 63.712 158.856 64.1882 159.116C64.6645 159.377 65.0403 159.749 65.3157 160.232C65.591 160.716 65.7287 161.271 65.7287 161.896C65.7287 162.521 65.5873 163.075 65.3045 163.559C65.0217 164.043 64.6348 164.418 64.1436 164.686C63.6599 164.947 63.1241 165.077 62.5362 165.077ZM62.5362 163.972C62.8636 163.972 63.1687 163.894 63.4515 163.738C63.7417 163.581 63.9762 163.347 64.1548 163.034C64.3334 162.722 64.4227 162.342 64.4227 161.896C64.4227 161.449 64.3371 161.073 64.1659 160.768C63.9948 160.456 63.7678 160.221 63.485 160.065C63.2022 159.909 62.8971 159.831 62.5697 159.831C62.2422 159.831 61.9371 159.909 61.6543 160.065C61.379 160.221 61.1594 160.456 60.9957 160.768C60.832 161.073 60.7501 161.449 60.7501 161.896C60.7501 162.558 60.9176 163.071 61.2525 163.436C61.5948 163.793 62.0227 163.972 62.5362 163.972ZM66.5625 161.896C66.5625 161.263 66.689 160.709 66.942 160.232C67.2025 159.749 67.5597 159.377 68.0136 159.116C68.4676 158.856 68.9885 158.725 69.5764 158.725C70.3206 158.725 70.9345 158.904 71.4183 159.261C71.9094 159.611 72.2406 160.113 72.4117 160.768H71.0387C70.9271 160.463 70.7485 160.225 70.5029 160.054C70.2573 159.883 69.9485 159.797 69.5764 159.797C69.0555 159.797 68.6388 159.983 68.3262 160.355C68.0211 160.72 67.8685 161.233 67.8685 161.896C67.8685 162.558 68.0211 163.075 68.3262 163.447C68.6388 163.819 69.0555 164.005 69.5764 164.005C70.3132 164.005 70.8006 163.682 71.0387 163.034H72.4117C72.2331 163.659 71.8982 164.158 71.4071 164.53C70.9159 164.895 70.3057 165.077 69.5764 165.077C68.9885 165.077 68.4676 164.947 68.0136 164.686C67.5597 164.418 67.2025 164.046 66.942 163.57C66.689 163.086 66.5625 162.528 66.5625 161.896ZM76.1134 161.907L78.9487 164.977H77.2296L74.9525 162.331V164.977H73.6799V156.716H74.9525V161.516L77.185 158.826H78.9487L76.1134 161.907ZM79.4366 161.873C79.4366 161.256 79.5631 160.709 79.8162 160.232C80.0766 159.756 80.4264 159.388 80.8654 159.127C81.312 158.859 81.8068 158.725 82.3501 158.725C82.8264 158.725 83.2468 158.822 83.6115 159.016C83.9836 159.209 84.2701 159.444 84.471 159.719V158.826H85.7547V167.901H84.471V164.084C84.2701 164.359 83.9798 164.593 83.6003 164.787C83.2208 164.98 82.7891 165.077 82.3054 165.077C81.7771 165.077 81.2933 164.943 80.8543 164.675C80.4227 164.4 80.0766 164.02 79.8162 163.537C79.5631 163.045 79.4366 162.491 79.4366 161.873ZM84.471 161.896C84.471 161.471 84.3817 161.103 84.2031 160.791C84.0319 160.478 83.8049 160.24 83.5222 160.076C83.2394 159.912 82.9343 159.831 82.6068 159.831C82.2794 159.831 81.9743 159.912 81.6915 160.076C81.4087 160.232 81.178 160.467 80.9994 160.779C80.8282 161.085 80.7427 161.449 80.7427 161.873C80.7427 162.298 80.8282 162.67 80.9994 162.99C81.178 163.31 81.4087 163.555 81.6915 163.726C81.9817 163.89 82.2868 163.972 82.6068 163.972C82.9343 163.972 83.2394 163.89 83.5222 163.726C83.8049 163.563 84.0319 163.324 84.2031 163.012C84.3817 162.692 84.471 162.32 84.471 161.896ZM92.9963 158.826V164.977H91.7238V164.251C91.5228 164.504 91.2586 164.705 90.9312 164.854C90.6112 164.995 90.2689 165.066 89.9042 165.066C89.4205 165.066 88.9852 164.965 88.5982 164.764C88.2187 164.564 87.9173 164.266 87.694 163.871C87.4782 163.477 87.3703 163.001 87.3703 162.443V158.826H88.6317V162.253C88.6317 162.804 88.7694 163.228 89.0447 163.525C89.3201 163.816 89.6959 163.961 90.1721 163.961C90.6484 163.961 91.0242 163.816 91.2996 163.525C91.5824 163.228 91.7238 162.804 91.7238 162.253V158.826H92.9963ZM97.3432 165.077C96.7627 165.077 96.2381 164.947 95.7693 164.686C95.3004 164.418 94.9321 164.046 94.6642 163.57C94.3963 163.086 94.2623 162.528 94.2623 161.896C94.2623 161.271 94.4 160.716 94.6753 160.232C94.9507 159.749 95.3265 159.377 95.8028 159.116C96.279 158.856 96.8111 158.725 97.399 158.725C97.9869 158.725 98.519 158.856 98.9953 159.116C99.4715 159.377 99.8474 159.749 100.123 160.232C100.398 160.716 100.536 161.271 100.536 161.896C100.536 162.521 100.394 163.075 100.112 163.559C99.8288 164.043 99.4418 164.418 98.9506 164.686C98.4669 164.947 97.9311 165.077 97.3432 165.077ZM97.3432 163.972C97.6706 163.972 97.9758 163.894 98.2585 163.738C98.5488 163.581 98.7832 163.347 98.9618 163.034C99.1404 162.722 99.2297 162.342 99.2297 161.896C99.2297 161.449 99.1441 161.073 98.973 160.768C98.8018 160.456 98.5748 160.221 98.292 160.065C98.0092 159.909 97.7041 159.831 97.3767 159.831C97.0493 159.831 96.7441 159.909 96.4614 160.065C96.186 160.221 95.9665 160.456 95.8028 160.768C95.639 161.073 95.5572 161.449 95.5572 161.896C95.5572 162.558 95.7246 163.071 96.0595 163.436C96.4018 163.793 96.8297 163.972 97.3432 163.972ZM103.278 159.864V163.269C103.278 163.499 103.33 163.667 103.435 163.771C103.546 163.868 103.732 163.916 103.993 163.916H104.774V164.977H103.769C103.196 164.977 102.757 164.843 102.452 164.575C102.147 164.307 101.995 163.871 101.995 163.269V159.864H101.269V158.826H101.995V157.297H103.278V158.826H104.774V159.864H103.278ZM111.584 161.751C111.584 161.981 111.569 162.19 111.539 162.376H106.84C106.877 162.867 107.06 163.261 107.387 163.559C107.714 163.857 108.116 164.005 108.593 164.005C109.277 164.005 109.761 163.719 110.044 163.146H111.417C111.231 163.711 110.892 164.177 110.401 164.541C109.917 164.898 109.314 165.077 108.593 165.077C108.005 165.077 107.476 164.947 107.007 164.686C106.546 164.418 106.181 164.046 105.914 163.57C105.653 163.086 105.523 162.528 105.523 161.896C105.523 161.263 105.649 160.709 105.902 160.232C106.163 159.749 106.524 159.377 106.985 159.116C107.454 158.856 107.99 158.725 108.593 158.725C109.173 158.725 109.69 158.852 110.144 159.105C110.598 159.358 110.952 159.715 111.205 160.177C111.458 160.631 111.584 161.155 111.584 161.751ZM110.256 161.349C110.248 160.88 110.081 160.504 109.753 160.221C109.426 159.938 109.02 159.797 108.537 159.797C108.098 159.797 107.722 159.938 107.409 160.221C107.097 160.497 106.911 160.872 106.851 161.349H110.256Z" fill="#F1F1F2"/>
<rect x="19.1565" y="145.131" width="132.756" height="32.6907" rx="4.38533" stroke="#7D26D8" stroke-opacity="0.5" stroke-width="0.797333"/>
<path d="M175.795 156.02L171.011 159.209C170.645 159.453 170.542 159.966 170.786 160.33C171.03 160.696 171.542 160.798 171.907 160.555L176.243 157.665L180.579 160.555C180.944 160.798 181.456 160.696 181.7 160.33C181.944 159.966 181.841 159.453 181.475 159.209L176.691 156.02C176.424 155.842 176.062 155.842 175.795 156.02ZM171.309 162.299C171.11 162.339 170.908 162.441 170.786 162.624C170.542 162.988 170.645 163.501 171.011 163.745L175.795 166.934C176.062 167.112 176.424 167.112 176.691 166.934L181.475 163.745C181.841 163.501 181.944 162.988 181.7 162.624C181.456 162.258 180.944 162.156 180.579 162.399L176.243 165.289L171.907 162.399C171.724 162.278 171.509 162.259 171.309 162.299Z" fill="#F1F1F2"/>
<path d="M191.098 158.245V160.523H193.777V161.561H191.098V163.938H194.112V164.977H189.825V157.207H194.112V158.245H191.098ZM203.125 158.725C203.609 158.725 204.04 158.826 204.42 159.027C204.807 159.228 205.108 159.525 205.324 159.92C205.547 160.314 205.659 160.791 205.659 161.349V164.977H204.397V161.538C204.397 160.988 204.26 160.567 203.984 160.277C203.709 159.979 203.333 159.831 202.857 159.831C202.381 159.831 202.001 159.979 201.718 160.277C201.443 160.567 201.305 160.988 201.305 161.538V164.977H200.044V161.538C200.044 160.988 199.906 160.567 199.631 160.277C199.356 159.979 198.98 159.831 198.503 159.831C198.027 159.831 197.648 159.979 197.365 160.277C197.09 160.567 196.952 160.988 196.952 161.538V164.977H195.679V158.826H196.952V159.529C197.16 159.276 197.424 159.079 197.744 158.938C198.064 158.796 198.407 158.725 198.771 158.725C199.263 158.725 199.702 158.83 200.089 159.038C200.476 159.246 200.773 159.548 200.982 159.942C201.168 159.57 201.458 159.276 201.852 159.06C202.247 158.837 202.671 158.725 203.125 158.725ZM208.551 159.741C208.766 159.444 209.06 159.202 209.432 159.016C209.812 158.822 210.232 158.725 210.694 158.725C211.237 158.725 211.728 158.856 212.167 159.116C212.606 159.377 212.952 159.749 213.205 160.232C213.458 160.709 213.585 161.256 213.585 161.873C213.585 162.491 213.458 163.045 213.205 163.537C212.952 164.02 212.603 164.4 212.156 164.675C211.717 164.943 211.23 165.077 210.694 165.077C210.218 165.077 209.793 164.984 209.421 164.798C209.057 164.612 208.766 164.374 208.551 164.084V164.977H207.278V156.716H208.551V159.741ZM212.29 161.873C212.29 161.449 212.201 161.085 212.022 160.779C211.851 160.467 211.62 160.232 211.33 160.076C211.047 159.912 210.742 159.831 210.415 159.831C210.095 159.831 209.79 159.912 209.499 160.076C209.217 160.24 208.986 160.478 208.807 160.791C208.636 161.103 208.551 161.471 208.551 161.896C208.551 162.32 208.636 162.692 208.807 163.012C208.986 163.324 209.217 163.563 209.499 163.726C209.79 163.89 210.095 163.972 210.415 163.972C210.742 163.972 211.047 163.89 211.33 163.726C211.62 163.555 211.851 163.31 212.022 162.99C212.201 162.67 212.29 162.298 212.29 161.873ZM220.481 161.751C220.481 161.981 220.466 162.19 220.436 162.376H215.736C215.774 162.867 215.956 163.261 216.283 163.559C216.611 163.857 217.013 164.005 217.489 164.005C218.174 164.005 218.657 163.719 218.94 163.146H220.313C220.127 163.711 219.788 164.177 219.297 164.541C218.814 164.898 218.211 165.077 217.489 165.077C216.901 165.077 216.373 164.947 215.904 164.686C215.442 164.418 215.078 164.046 214.81 163.57C214.549 163.086 214.419 162.528 214.419 161.896C214.419 161.263 214.546 160.709 214.799 160.232C215.059 159.749 215.42 159.377 215.882 159.116C216.35 158.856 216.886 158.725 217.489 158.725C218.069 158.725 218.587 158.852 219.041 159.105C219.494 159.358 219.848 159.715 220.101 160.177C220.354 160.631 220.481 161.155 220.481 161.751ZM219.152 161.349C219.145 160.88 218.977 160.504 218.65 160.221C218.322 159.938 217.917 159.797 217.433 159.797C216.994 159.797 216.618 159.938 216.306 160.221C215.993 160.497 215.807 160.872 215.748 161.349H219.152ZM221.309 161.873C221.309 161.256 221.435 160.709 221.688 160.232C221.949 159.756 222.298 159.388 222.737 159.127C223.184 158.859 223.679 158.725 224.222 158.725C224.624 158.725 225.018 158.815 225.405 158.993C225.8 159.165 226.112 159.395 226.343 159.685V156.716H227.627V164.977H226.343V164.05C226.135 164.348 225.844 164.593 225.472 164.787C225.108 164.98 224.687 165.077 224.211 165.077C223.675 165.077 223.184 164.943 222.737 164.675C222.298 164.4 221.949 164.02 221.688 163.537C221.435 163.045 221.309 162.491 221.309 161.873ZM226.343 161.896C226.343 161.471 226.254 161.103 226.075 160.791C225.904 160.478 225.677 160.24 225.394 160.076C225.111 159.912 224.806 159.831 224.479 159.831C224.151 159.831 223.846 159.912 223.564 160.076C223.281 160.232 223.05 160.467 222.871 160.779C222.7 161.085 222.615 161.449 222.615 161.873C222.615 162.298 222.7 162.67 222.871 162.99C223.05 163.31 223.281 163.555 223.564 163.726C223.854 163.89 224.159 163.972 224.479 163.972C224.806 163.972 225.111 163.89 225.394 163.726C225.677 163.563 225.904 163.324 226.075 163.012C226.254 162.692 226.343 162.32 226.343 161.896ZM233.47 163.95H236.094V164.977H232.198V157.219H233.47V163.95ZM237.805 158.011C237.575 158.011 237.381 157.933 237.225 157.777C237.069 157.62 236.99 157.427 236.99 157.196C236.99 156.965 237.069 156.772 237.225 156.616C237.381 156.459 237.575 156.381 237.805 156.381C238.028 156.381 238.218 156.459 238.375 156.616C238.531 156.772 238.609 156.965 238.609 157.196C238.609 157.427 238.531 157.62 238.375 157.777C238.218 157.933 238.028 158.011 237.805 158.011ZM238.43 158.826V164.977H237.158V158.826H238.43ZM243.204 158.725C243.688 158.725 244.12 158.826 244.499 159.027C244.886 159.228 245.188 159.525 245.403 159.92C245.619 160.314 245.727 160.791 245.727 161.349V164.977H244.466V161.538C244.466 160.988 244.328 160.567 244.053 160.277C243.777 159.979 243.402 159.831 242.925 159.831C242.449 159.831 242.069 159.979 241.787 160.277C241.511 160.567 241.374 160.988 241.374 161.538V164.977H240.101V158.826H241.374V159.529C241.582 159.276 241.846 159.079 242.166 158.938C242.494 158.796 242.84 158.725 243.204 158.725ZM249.784 161.907L252.619 164.977H250.9L248.623 162.331V164.977H247.35V156.716H248.623V161.516L250.855 158.826H252.619L249.784 161.907Z" fill="#F1F1F2"/>
<rect x="159.088" y="145.131" width="132.756" height="32.6907" rx="4.38533" stroke="#7D26D8" stroke-opacity="0.5" stroke-width="0.797333"/>
<path d="M32.3138 197.42C29.9888 197.42 28.3271 198.805 28.3271 201.407C28.3271 204.008 29.9888 205.393 32.3138 205.393H34.7058C37.0308 205.393 38.6925 204.008 38.6925 201.407C38.6925 201.33 38.6925 200.708 38.6925 200.609C38.6925 199.546 37.0978 199.546 37.0978 200.609C37.0978 200.715 37.0978 201.457 37.0978 201.457C37.0779 203.067 36.1912 203.799 34.7058 203.799H32.3138C30.8116 203.799 29.9218 203.057 29.9218 201.407C29.9218 199.756 30.8116 199.015 32.3138 199.015H33.1111C33.5513 199.015 33.9085 198.657 33.9085 198.217C33.9085 197.777 33.5513 197.42 33.1111 197.42H32.3138ZM37.8951 197.42C36.7621 197.42 35.8396 197.74 35.1539 198.342C34.3135 199.079 33.9085 200.172 33.9085 201.407C33.9085 201.509 33.9085 201.643 33.9085 202.204C33.9085 202.644 34.2657 203.001 34.7058 203.001C35.1459 203.001 35.5031 202.644 35.5031 202.204C35.5031 201.643 35.5031 201.509 35.5031 201.407C35.5031 200.596 35.7431 199.939 36.2008 199.538C36.5795 199.205 37.1321 199.015 37.8951 199.015H40.2871C41.9376 199.015 42.6791 199.904 42.6791 201.407C42.6791 202.909 41.9376 203.799 40.2871 203.799H39.4898C39.0497 203.799 38.6925 204.156 38.6925 204.596C38.6925 205.036 39.0497 205.393 39.4898 205.393H40.2871C42.8888 205.393 44.2738 203.732 44.2738 201.407C44.2738 199.082 42.8888 197.42 40.2871 197.42H37.8951Z" fill="#F1F1F2"/>
<path d="M54.4594 197.086V198.124H51.1664V200.412H53.7338V201.45H51.1664V204.844H49.8938V197.086H54.4594ZM56.2861 197.878C56.0554 197.878 55.8619 197.8 55.7057 197.644C55.5494 197.488 55.4712 197.294 55.4712 197.063C55.4712 196.833 55.5494 196.639 55.7057 196.483C55.8619 196.327 56.0554 196.248 56.2861 196.248C56.5094 196.248 56.6991 196.327 56.8554 196.483C57.0117 196.639 57.0898 196.833 57.0898 197.063C57.0898 197.294 57.0117 197.488 56.8554 197.644C56.6991 197.8 56.5094 197.878 56.2861 197.878ZM56.9112 198.693V204.844H55.6387V198.693H56.9112ZM59.8545 196.583V204.844H58.582V196.583H59.8545ZM67.1624 201.618C67.1624 201.848 67.1475 202.057 67.1177 202.243H62.4183C62.4555 202.734 62.6378 203.128 62.9652 203.426C63.2927 203.724 63.6945 203.873 64.1708 203.873C64.8554 203.873 65.3392 203.586 65.622 203.013H66.995C66.8089 203.579 66.4703 204.044 65.9792 204.408C65.4954 204.766 64.8927 204.944 64.1708 204.944C63.5829 204.944 63.0545 204.814 62.5857 204.554C62.1243 204.286 61.7597 203.914 61.4918 203.437C61.2313 202.954 61.1011 202.395 61.1011 201.763C61.1011 201.13 61.2276 200.576 61.4806 200.1C61.7411 199.616 62.102 199.244 62.5634 198.983C63.0322 198.723 63.568 198.593 64.1708 198.593C64.7513 198.593 65.2685 198.719 65.7224 198.972C66.1764 199.225 66.5298 199.582 66.7829 200.044C67.0359 200.498 67.1624 201.022 67.1624 201.618ZM65.834 201.216C65.8266 200.747 65.6592 200.371 65.3317 200.088C65.0043 199.806 64.5987 199.664 64.115 199.664C63.6759 199.664 63.3001 199.806 62.9876 200.088C62.675 200.364 62.489 200.74 62.4294 201.216H65.834ZM70.6472 204.944C70.1635 204.944 69.7282 204.859 69.3412 204.687C68.9617 204.509 68.6603 204.271 68.437 203.973C68.2138 203.668 68.0947 203.329 68.0798 202.957H69.397C69.4194 203.218 69.5421 203.437 69.7654 203.616C69.9961 203.787 70.2826 203.873 70.6249 203.873C70.9821 203.873 71.2575 203.806 71.451 203.672C71.6519 203.53 71.7523 203.352 71.7523 203.136C71.7523 202.905 71.6407 202.734 71.4175 202.622C71.2017 202.511 70.8556 202.388 70.3793 202.254C69.918 202.128 69.5421 202.005 69.2519 201.886C68.9617 201.767 68.7087 201.584 68.4928 201.339C68.2845 201.093 68.1803 200.769 68.1803 200.368C68.1803 200.04 68.277 199.742 68.4705 199.475C68.664 199.199 68.9394 198.983 69.2966 198.827C69.6612 198.671 70.0779 198.593 70.5468 198.593C71.2463 198.593 71.8082 198.771 72.2323 199.128C72.664 199.478 72.8947 199.958 72.9244 200.568H71.6519C71.6296 200.293 71.5179 200.074 71.317 199.91C71.1161 199.746 70.8445 199.664 70.5021 199.664C70.1672 199.664 69.9105 199.728 69.7319 199.854C69.5533 199.981 69.464 200.148 69.464 200.356C69.464 200.52 69.5235 200.658 69.6426 200.769C69.7617 200.881 69.9068 200.97 70.0779 201.037C70.2491 201.097 70.5021 201.175 70.837 201.272C71.2835 201.391 71.6482 201.514 71.931 201.64C72.2212 201.759 72.4705 201.938 72.6788 202.176C72.8872 202.414 72.9951 202.73 73.0026 203.125C73.0026 203.474 72.9058 203.787 72.7123 204.062C72.5189 204.338 72.2435 204.554 71.8863 204.71C71.5365 204.866 71.1235 204.944 70.6472 204.944ZM83.2716 204.844L82.3116 203.884C81.9395 204.256 81.534 204.535 81.0949 204.721C80.6558 204.9 80.1647 204.989 79.6214 204.989C79.0707 204.989 78.5833 204.892 78.1591 204.699C77.7349 204.505 77.4075 204.23 77.1768 203.873C76.9461 203.508 76.8308 203.087 76.8308 202.611C76.8308 202.075 76.9833 201.599 77.2884 201.182C77.5935 200.758 78.0475 200.423 78.6503 200.178C78.4345 199.917 78.2819 199.675 78.1926 199.452C78.1033 199.221 78.0586 198.968 78.0586 198.693C78.0586 198.351 78.1442 198.046 78.3154 197.778C78.494 197.51 78.747 197.298 79.0744 197.142C79.4019 196.985 79.7814 196.907 80.213 196.907C80.6521 196.907 81.0242 196.993 81.3293 197.164C81.6419 197.328 81.8726 197.555 82.0214 197.845C82.1777 198.135 82.2409 198.459 82.2112 198.816H80.9386C80.9461 198.541 80.8791 198.328 80.7377 198.18C80.5963 198.023 80.4028 197.945 80.1572 197.945C79.9116 197.945 79.7107 198.02 79.5544 198.168C79.4056 198.31 79.3312 198.485 79.3312 198.693C79.3312 198.894 79.387 199.095 79.4986 199.296C79.6177 199.489 79.8223 199.742 80.1126 200.055L82.1665 202.098L82.9591 200.792H84.3321L83.3274 202.511L83.0484 202.968L84.9348 204.844H83.2716ZM79.6214 203.906C80.3209 203.906 80.9386 203.62 81.4744 203.047L79.4205 200.981C78.5424 201.331 78.1033 201.86 78.1033 202.567C78.1033 202.946 78.2447 203.266 78.5275 203.527C78.8103 203.78 79.1749 203.906 79.6214 203.906ZM89.9414 203.817H92.5646V204.844H88.6688V197.086H89.9414V203.817ZM94.2763 197.878C94.0456 197.878 93.8521 197.8 93.6958 197.644C93.5395 197.488 93.4614 197.294 93.4614 197.063C93.4614 196.833 93.5395 196.639 93.6958 196.483C93.8521 196.327 94.0456 196.248 94.2763 196.248C94.4995 196.248 94.6893 196.327 94.8456 196.483C95.0018 196.639 95.08 196.833 95.08 197.063C95.08 197.294 95.0018 197.488 94.8456 197.644C94.6893 197.8 94.4995 197.878 94.2763 197.878ZM94.9014 198.693V204.844H93.6288V198.693H94.9014ZM99.6753 198.593C100.159 198.593 100.591 198.693 100.97 198.894C101.357 199.095 101.659 199.393 101.874 199.787C102.09 200.181 102.198 200.658 102.198 201.216V204.844H100.937V201.406C100.937 200.855 100.799 200.434 100.524 200.144C100.248 199.847 99.8725 199.698 99.3963 199.698C98.92 199.698 98.5405 199.847 98.2577 200.144C97.9823 200.434 97.8446 200.855 97.8446 201.406V204.844H96.5721V198.693H97.8446V199.396C98.053 199.143 98.3172 198.946 98.6372 198.805C98.9646 198.663 99.3107 198.593 99.6753 198.593ZM106.255 201.774L109.09 204.844H107.371L105.094 202.198V204.844H103.821V196.583H105.094V201.383L107.326 198.693H109.09L106.255 201.774ZM112.235 204.944C111.751 204.944 111.316 204.859 110.929 204.687C110.549 204.509 110.248 204.271 110.025 203.973C109.801 203.668 109.682 203.329 109.667 202.957H110.985C111.007 203.218 111.13 203.437 111.353 203.616C111.584 203.787 111.87 203.873 112.212 203.873C112.57 203.873 112.845 203.806 113.038 203.672C113.239 203.53 113.34 203.352 113.34 203.136C113.34 202.905 113.228 202.734 113.005 202.622C112.789 202.511 112.443 202.388 111.967 202.254C111.505 202.128 111.13 202.005 110.839 201.886C110.549 201.767 110.296 201.584 110.08 201.339C109.872 201.093 109.768 200.769 109.768 200.368C109.768 200.04 109.865 199.742 110.058 199.475C110.251 199.199 110.527 198.983 110.884 198.827C111.249 198.671 111.665 198.593 112.134 198.593C112.834 198.593 113.396 198.771 113.82 199.128C114.251 199.478 114.482 199.958 114.512 200.568H113.239C113.217 200.293 113.105 200.074 112.904 199.91C112.704 199.746 112.432 199.664 112.09 199.664C111.755 199.664 111.498 199.728 111.319 199.854C111.141 199.981 111.051 200.148 111.051 200.356C111.051 200.52 111.111 200.658 111.23 200.769C111.349 200.881 111.494 200.97 111.665 201.037C111.837 201.097 112.09 201.175 112.424 201.272C112.871 201.391 113.236 201.514 113.518 201.64C113.809 201.759 114.058 201.938 114.266 202.176C114.475 202.414 114.583 202.73 114.59 203.125C114.59 203.474 114.493 203.787 114.3 204.062C114.106 204.338 113.831 204.554 113.474 204.71C113.124 204.866 112.711 204.944 112.235 204.944Z" fill="#F1F1F2"/>
<path d="M273.239 195.779C273.04 195.739 272.825 195.756 272.643 195.879C272.278 196.123 272.176 196.633 272.419 197L275.299 201.335L272.419 205.671C272.176 206.037 272.278 206.548 272.643 206.792C273.008 207.036 273.517 206.934 273.76 206.568L276.938 201.784C277.116 201.516 277.116 201.155 276.938 200.887L273.76 196.103C273.639 195.92 273.438 195.819 273.239 195.779Z" fill="#F1F1F2"/>
<rect x="19.1565" y="184.998" width="272.688" height="32.6907" rx="4.38533" stroke="#7D26D8" stroke-opacity="0.5" stroke-width="0.797333"/>
</g>
<rect x="5.5" y="5.5" width="300" height="232.227" rx="14.5" stroke="#492472"/>
<rect opacity="0.7" x="0.5" y="0.5" width="310" height="242" rx="19.5" stroke="#492472"/>
<defs>
<filter id="filter0_d_1182_174382" x="-17.3387" y="-24.704" width="348.272" height="86.1118" filterUnits="userSpaceOnUse" color-interpolation-filters="sRGB">
<feFlood flood-opacity="0" result="BackgroundImageFix"/>
<feColorMatrix in="SourceAlpha" type="matrix" values="0 0 0 0 0 0 0 0 0 0 0 0 0 0 0 0 0 0 127 0" result="hardAlpha"/>
<feOffset dx="0.797333" dy="-9.568"/>
<feGaussianBlur stdDeviation="9.568"/>
<feComposite in2="hardAlpha" operator="out"/>
<feColorMatrix type="matrix" values="0 0 0 0 0.796078 0 0 0 0 0.835294 0 0 0 0 0.878431 0 0 0 0.25 0"/>
<feBlend mode="normal" in2="BackgroundImageFix" result="effect1_dropShadow_1182_174382"/>
<feBlend mode="normal" in="SourceGraphic" in2="effect1_dropShadow_1182_174382" result="shape"/>
</filter>
<clipPath id="clip0_1182_174382">
<rect x="6" y="6" width="299" height="231.227" rx="14" fill="white"/>
</clipPath>
</defs>
</svg>
