<svg width="299" height="97" viewBox="0 0 299 97" fill="none" xmlns="http://www.w3.org/2000/svg">
<rect x="6.5" y="6.5" width="277" height="83.7859" rx="13.5" fill="#26203B"/>
<rect x="19.0439" y="19.0449" width="83.871" height="26.088" rx="4.8915" fill="#593388"/>
<path d="M34.3868 28.1575V36.0898H33.0856V32.6201H29.3534V36.0898H28.0523V28.1575H29.3534V31.5587H33.0856V28.1575H34.3868ZM36.7617 28.9678C36.5258 28.9678 36.328 28.8879 36.1682 28.7281C36.0084 28.5684 35.9285 28.3705 35.9285 28.1346C35.9285 27.8988 36.0084 27.7009 36.1682 27.5411C36.328 27.3814 36.5258 27.3015 36.7617 27.3015C36.99 27.3015 37.184 27.3814 37.3438 27.5411C37.5036 27.7009 37.5835 27.8988 37.5835 28.1346C37.5835 28.3705 37.5036 28.5684 37.3438 28.7281C37.184 28.8879 36.99 28.9678 36.7617 28.9678ZM37.4008 29.801V36.0898H36.0997V29.801H37.4008ZM41.6429 29.6983C42.1299 29.6983 42.5598 29.7972 42.9326 29.995C43.3131 30.1853 43.6098 30.4249 43.8229 30.7141V29.801H45.1354V36.1926C45.1354 36.7708 45.0137 37.2845 44.7702 37.7334C44.5267 38.1899 44.1729 38.5475 43.7088 38.8063C43.2522 39.065 42.7044 39.1943 42.0652 39.1943C41.213 39.1943 40.5054 38.9927 39.9423 38.5894C39.3792 38.1937 39.0597 37.6535 38.9836 36.9687H40.2733C40.3722 37.2959 40.5815 37.5584 40.901 37.7562C41.2282 37.9617 41.6163 38.0644 42.0652 38.0644C42.5902 38.0644 43.0125 37.9046 43.3321 37.585C43.6593 37.2654 43.8229 36.8013 43.8229 36.1926V35.1425C43.6022 35.4393 43.3017 35.6904 42.9212 35.8958C42.5484 36.0936 42.1223 36.1926 41.6429 36.1926C41.0951 36.1926 40.5929 36.0556 40.1363 35.7817C39.6874 35.5001 39.3298 35.1121 39.0635 34.6175C38.8048 34.1153 38.6754 33.5484 38.6754 32.9169C38.6754 32.2853 38.8048 31.7261 39.0635 31.2391C39.3298 30.7521 39.6874 30.3755 40.1363 30.1092C40.5929 29.8353 41.0951 29.6983 41.6429 29.6983ZM43.8229 32.9397C43.8229 32.506 43.7316 32.1294 43.549 31.8098C43.374 31.4902 43.1419 31.2467 42.8527 31.0793C42.5636 30.9119 42.2516 30.8282 41.9168 30.8282C41.582 30.8282 41.2701 30.9119 40.9809 31.0793C40.6918 31.2391 40.4559 31.4788 40.2733 31.7984C40.0983 32.1103 40.0108 32.4832 40.0108 32.9169C40.0108 33.3506 40.0983 33.7311 40.2733 34.0582C40.4559 34.3854 40.6918 34.6365 40.9809 34.8115C41.2777 34.9789 41.5897 35.0626 41.9168 35.0626C42.2516 35.0626 42.5636 34.9789 42.8527 34.8115C43.1419 34.6441 43.374 34.4006 43.549 34.0811C43.7316 33.7539 43.8229 33.3734 43.8229 32.9397ZM50.0973 29.6983C50.5766 29.6983 51.0027 29.801 51.3756 30.0065C51.756 30.2119 52.0528 30.5163 52.2658 30.9195C52.4865 31.3228 52.5968 31.8098 52.5968 32.3805V36.0898H51.3071V32.5745C51.3071 32.0114 51.1663 31.5815 50.8848 31.2848C50.6033 30.9804 50.219 30.8282 49.732 30.8282C49.2451 30.8282 48.857 30.9804 48.5679 31.2848C48.2863 31.5815 48.1456 32.0114 48.1456 32.5745V36.0898H46.8444V27.6439H48.1456V30.5315C48.3662 30.2652 48.644 30.0597 48.9788 29.9151C49.3212 29.7706 49.694 29.6983 50.0973 29.6983ZM55.5577 27.6439V36.0898H54.2565V27.6439H55.5577ZM57.9279 28.9678C57.692 28.9678 57.4942 28.8879 57.3344 28.7281C57.1746 28.5684 57.0947 28.3705 57.0947 28.1346C57.0947 27.8988 57.1746 27.7009 57.3344 27.5411C57.4942 27.3814 57.692 27.3015 57.9279 27.3015C58.1562 27.3015 58.3502 27.3814 58.51 27.5411C58.6698 27.7009 58.7497 27.8988 58.7497 28.1346C58.7497 28.3705 58.6698 28.5684 58.51 28.7281C58.3502 28.8879 58.1562 28.9678 57.9279 28.9678ZM58.5671 29.801V36.0898H57.2659V29.801H58.5671ZM62.8091 29.6983C63.2961 29.6983 63.726 29.7972 64.0989 29.995C64.4793 30.1853 64.7761 30.4249 64.9891 30.7141V29.801H66.3017V36.1926C66.3017 36.7708 66.1799 37.2845 65.9364 37.7334C65.6929 38.1899 65.3391 38.5475 64.875 38.8063C64.4184 39.065 63.8706 39.1943 63.2314 39.1943C62.3792 39.1943 61.6716 38.9927 61.1085 38.5894C60.5455 38.1937 60.2259 37.6535 60.1498 36.9687H61.4395C61.5384 37.2959 61.7477 37.5584 62.0673 37.7562C62.3945 37.9617 62.7825 38.0644 63.2314 38.0644C63.7565 38.0644 64.1788 37.9046 64.4983 37.585C64.8255 37.2654 64.9891 36.8013 64.9891 36.1926V35.1425C64.7685 35.4393 64.4679 35.6904 64.0875 35.8958C63.7146 36.0936 63.2885 36.1926 62.8091 36.1926C62.2613 36.1926 61.7591 36.0556 61.3026 35.7817C60.8536 35.5001 60.496 35.1121 60.2297 34.6175C59.971 34.1153 59.8416 33.5484 59.8416 32.9169C59.8416 32.2853 59.971 31.7261 60.2297 31.2391C60.496 30.7521 60.8536 30.3755 61.3026 30.1092C61.7591 29.8353 62.2613 29.6983 62.8091 29.6983ZM64.9891 32.9397C64.9891 32.506 64.8978 32.1294 64.7152 31.8098C64.5402 31.4902 64.3081 31.2467 64.019 31.0793C63.7298 30.9119 63.4179 30.8282 63.0831 30.8282C62.7483 30.8282 62.4363 30.9119 62.1472 31.0793C61.858 31.2391 61.6221 31.4788 61.4395 31.7984C61.2645 32.1103 61.177 32.4832 61.177 32.9169C61.177 33.3506 61.2645 33.7311 61.4395 34.0582C61.6221 34.3854 61.858 34.6365 62.1472 34.8115C62.4439 34.9789 62.7559 35.0626 63.0831 35.0626C63.4179 35.0626 63.7298 34.9789 64.019 34.8115C64.3081 34.6441 64.5402 34.4006 64.7152 34.0811C64.8978 33.7539 64.9891 33.3734 64.9891 32.9397ZM71.2635 29.6983C71.7429 29.6983 72.169 29.801 72.5418 30.0065C72.9223 30.2119 73.219 30.5163 73.4321 30.9195C73.6527 31.3228 73.7631 31.8098 73.7631 32.3805V36.0898H72.4733V32.5745C72.4733 32.0114 72.3326 31.5815 72.051 31.2848C71.7695 30.9804 71.3852 30.8282 70.8983 30.8282C70.4113 30.8282 70.0232 30.9804 69.7341 31.2848C69.4526 31.5815 69.3118 32.0114 69.3118 32.5745V36.0898H68.0107V27.6439H69.3118V30.5315C69.5325 30.2652 69.8102 30.0597 70.145 29.9151C70.4874 29.7706 70.8602 29.6983 71.2635 29.6983Z" fill="#B9C3CE"/>
<circle cx="86.6115" cy="30.255" r="0.917155" fill="#B9C3CE"/>
<circle cx="86.6115" cy="33.923" r="0.917155" fill="#B9C3CE"/>
<rect x="109.437" y="19.0449" width="94.871" height="26.088" rx="4.8915" fill="#7F1B4F"/>
<path d="M121.036 28.1575C121.88 28.1575 122.618 28.3211 123.25 28.6482C123.889 28.9678 124.38 29.432 124.722 30.0407C125.072 30.6418 125.247 31.3456 125.247 32.1522C125.247 32.9587 125.072 33.6588 124.722 34.2523C124.38 34.8458 123.889 35.3023 123.25 35.6219C122.618 35.9339 121.88 36.0898 121.036 36.0898H118.445V28.1575H121.036ZM121.036 35.0284C121.964 35.0284 122.675 34.7773 123.17 34.2751C123.665 33.7729 123.912 33.0653 123.912 32.1522C123.912 31.2315 123.665 30.5125 123.17 29.995C122.675 29.4776 121.964 29.2189 121.036 29.2189H119.746V35.0284H121.036ZM126.103 32.9169C126.103 32.2853 126.233 31.7261 126.491 31.2391C126.758 30.7521 127.115 30.3755 127.564 30.1092C128.021 29.8353 128.523 29.6983 129.071 29.6983C129.565 29.6983 129.995 29.7972 130.36 29.995C130.733 30.1853 131.03 30.4249 131.251 30.7141V29.801H132.563V36.0898H131.251V35.1539C131.03 35.4507 130.729 35.698 130.349 35.8958C129.969 36.0936 129.535 36.1926 129.048 36.1926C128.508 36.1926 128.013 36.0556 127.564 35.7817C127.115 35.5001 126.758 35.1121 126.491 34.6175C126.233 34.1153 126.103 33.5484 126.103 32.9169ZM131.251 32.9397C131.251 32.506 131.159 32.1294 130.977 31.8098C130.802 31.4902 130.57 31.2467 130.28 31.0793C129.991 30.9119 129.679 30.8282 129.345 30.8282C129.01 30.8282 128.698 30.9119 128.409 31.0793C128.12 31.2391 127.884 31.4788 127.701 31.7984C127.526 32.1103 127.439 32.4832 127.439 32.9169C127.439 33.3506 127.526 33.7311 127.701 34.0582C127.884 34.3854 128.12 34.6365 128.409 34.8115C128.705 34.9789 129.017 35.0626 129.345 35.0626C129.679 35.0626 129.991 34.9789 130.28 34.8115C130.57 34.6441 130.802 34.4006 130.977 34.0811C131.159 33.7539 131.251 33.3734 131.251 32.9397ZM136.555 36.1926C136.06 36.1926 135.615 36.1051 135.219 35.9301C134.831 35.7474 134.523 35.504 134.295 35.1996C134.067 34.8876 133.945 34.5414 133.93 34.161H135.277C135.299 34.4273 135.425 34.6517 135.653 34.8344C135.889 35.0094 136.182 35.0969 136.532 35.0969C136.897 35.0969 137.179 35.0284 137.377 34.8914C137.582 34.7469 137.685 34.5642 137.685 34.3436C137.685 34.1077 137.571 33.9327 137.342 33.8186C137.122 33.7044 136.768 33.5789 136.281 33.4419C135.809 33.3126 135.425 33.187 135.128 33.0653C134.831 32.9435 134.573 32.7571 134.352 32.506C134.139 32.2549 134.032 31.9239 134.032 31.513C134.032 31.1782 134.131 30.8739 134.329 30.6C134.527 30.3184 134.809 30.0978 135.174 29.938C135.547 29.7782 135.973 29.6983 136.452 29.6983C137.167 29.6983 137.742 29.8809 138.176 30.2461C138.617 30.6038 138.853 31.0945 138.883 31.7185H137.582C137.559 31.4369 137.445 31.2125 137.24 31.0451C137.034 30.8777 136.757 30.794 136.407 30.794C136.064 30.794 135.802 30.8587 135.619 30.988C135.436 31.1174 135.345 31.2886 135.345 31.5016C135.345 31.669 135.406 31.8098 135.528 31.9239C135.649 32.0381 135.798 32.1294 135.973 32.1978C136.148 32.2587 136.407 32.3386 136.749 32.4375C137.205 32.5593 137.578 32.6848 137.867 32.8142C138.164 32.9359 138.419 33.1185 138.632 33.362C138.845 33.6055 138.956 33.9289 138.963 34.3322C138.963 34.6898 138.864 35.0094 138.666 35.2909C138.469 35.5724 138.187 35.7931 137.822 35.9529C137.464 36.1127 137.042 36.1926 136.555 36.1926ZM143.622 29.6983C144.101 29.6983 144.527 29.801 144.9 30.0065C145.281 30.2119 145.577 30.5163 145.79 30.9195C146.011 31.3228 146.121 31.8098 146.121 32.3805V36.0898H144.832V32.5745C144.832 32.0114 144.691 31.5815 144.409 31.2848C144.128 30.9804 143.744 30.8282 143.257 30.8282C142.77 30.8282 142.382 30.9804 142.092 31.2848C141.811 31.5815 141.67 32.0114 141.67 32.5745V36.0898H140.369V27.6439H141.67V30.5315C141.891 30.2652 142.169 30.0597 142.503 29.9151C142.846 29.7706 143.219 29.6983 143.622 29.6983ZM152.047 28.1575V36.0898H150.746V28.1575H152.047ZM155.273 30.8625V34.3436C155.273 34.5795 155.327 34.7507 155.433 34.8572C155.547 34.9561 155.738 35.0056 156.004 35.0056H156.803V36.0898H155.776C155.19 36.0898 154.741 35.9529 154.429 35.679C154.117 35.405 153.961 34.9599 153.961 34.3436V30.8625H153.219V29.801H153.961V28.2374H155.273V29.801H156.803V30.8625H155.273ZM163.766 32.7913C163.766 33.0272 163.751 33.2403 163.72 33.4305H158.915C158.953 33.9327 159.14 34.336 159.474 34.6403C159.809 34.9447 160.22 35.0969 160.707 35.0969C161.407 35.0969 161.902 34.8039 162.191 34.218H163.595C163.404 34.7963 163.058 35.2719 162.556 35.6447C162.061 36.0099 161.445 36.1926 160.707 36.1926C160.106 36.1926 159.566 36.0594 159.086 35.7931C158.615 35.5192 158.242 35.1387 157.968 34.6517C157.701 34.1572 157.568 33.5865 157.568 32.9397C157.568 32.293 157.698 31.7261 157.956 31.2391C158.223 30.7445 158.592 30.3641 159.063 30.0978C159.543 29.8314 160.091 29.6983 160.707 29.6983C161.3 29.6983 161.829 29.8276 162.293 30.0863C162.758 30.3451 163.119 30.7103 163.378 31.182C163.636 31.6462 163.766 32.1826 163.766 32.7913ZM162.408 32.3805C162.4 31.9011 162.229 31.5168 161.894 31.2277C161.559 30.9386 161.144 30.794 160.65 30.794C160.201 30.794 159.817 30.9386 159.497 31.2277C159.178 31.5092 158.987 31.8935 158.926 32.3805H162.408ZM172.659 29.6983C173.154 29.6983 173.595 29.801 173.983 30.0065C174.379 30.2119 174.687 30.5163 174.907 30.9195C175.136 31.3228 175.25 31.8098 175.25 32.3805V36.0898H173.96V32.5745C173.96 32.0114 173.819 31.5815 173.538 31.2848C173.256 30.9804 172.872 30.8282 172.385 30.8282C171.898 30.8282 171.51 30.9804 171.221 31.2848C170.939 31.5815 170.799 32.0114 170.799 32.5745V36.0898H169.509V32.5745C169.509 32.0114 169.368 31.5815 169.087 31.2848C168.805 30.9804 168.421 30.8282 167.934 30.8282C167.447 30.8282 167.059 30.9804 166.77 31.2848C166.488 31.5815 166.347 32.0114 166.347 32.5745V36.0898H165.046V29.801H166.347V30.5201C166.56 30.2614 166.831 30.0597 167.158 29.9151C167.485 29.7706 167.835 29.6983 168.208 29.6983C168.71 29.6983 169.159 29.8048 169.555 30.0179C169.95 30.2309 170.255 30.5391 170.468 30.9424C170.658 30.5619 170.955 30.2614 171.358 30.0407C171.761 29.8124 172.195 29.6983 172.659 29.6983Z" fill="#B9C3CE"/>
<circle cx="188.004" cy="30.255" r="0.917155" fill="#B9C3CE"/>
<circle cx="188.004" cy="33.923" r="0.917155" fill="#B9C3CE"/>
<rect x="210.83" y="19.0449" width="59.871" height="26.088" rx="4.8915" fill="#007297"/>
<path d="M224.963 28.1575V29.2189H222.852V36.0898H221.55V29.2189H219.428V28.1575H224.963ZM226.943 28.9678C226.707 28.9678 226.509 28.8879 226.349 28.7281C226.19 28.5684 226.11 28.3705 226.11 28.1346C226.11 27.8988 226.19 27.7009 226.349 27.5411C226.509 27.3814 226.707 27.3015 226.943 27.3015C227.171 27.3015 227.365 27.3814 227.525 27.5411C227.685 27.7009 227.765 27.8988 227.765 28.1346C227.765 28.3705 227.685 28.5684 227.525 28.7281C227.365 28.8879 227.171 28.9678 226.943 28.9678ZM227.582 29.801V36.0898H226.281V29.801H227.582ZM230.808 30.8625V34.3436C230.808 34.5795 230.861 34.7507 230.968 34.8572C231.082 34.9561 231.272 35.0056 231.539 35.0056H232.338V36.0898H231.31C230.725 36.0898 230.276 35.9529 229.964 35.679C229.652 35.405 229.496 34.9599 229.496 34.3436V30.8625H228.754V29.801H229.496V28.2374H230.808V29.801H232.338V30.8625H230.808ZM234.838 27.6439V36.0898H233.537V27.6439H234.838ZM242.31 32.7913C242.31 33.0272 242.295 33.2403 242.264 33.4305H237.459C237.497 33.9327 237.684 34.336 238.019 34.6403C238.353 34.9447 238.764 35.0969 239.251 35.0969C239.951 35.0969 240.446 34.8039 240.735 34.218H242.139C241.949 34.7963 241.602 35.2719 241.1 35.6447C240.606 36.0099 239.989 36.1926 239.251 36.1926C238.65 36.1926 238.11 36.0594 237.631 35.7931C237.159 35.5192 236.786 35.1387 236.512 34.6517C236.246 34.1572 236.113 33.5865 236.113 32.9397C236.113 32.293 236.242 31.7261 236.501 31.2391C236.767 30.7445 237.136 30.3641 237.608 30.0978C238.087 29.8314 238.635 29.6983 239.251 29.6983C239.845 29.6983 240.374 29.8276 240.838 30.0863C241.302 30.3451 241.663 30.7103 241.922 31.182C242.181 31.6462 242.31 32.1826 242.31 32.7913ZM240.952 32.3805C240.944 31.9011 240.773 31.5168 240.438 31.2277C240.103 30.9386 239.689 30.794 239.194 30.794C238.745 30.794 238.361 30.9386 238.041 31.2277C237.722 31.5092 237.532 31.8935 237.471 32.3805H240.952Z" fill="#B9C3CE"/>
<circle cx="254.398" cy="30.255" r="0.917155" fill="#B9C3CE"/>
<circle cx="254.398" cy="33.923" r="0.917155" fill="#B9C3CE"/>
<rect x="19.0439" y="51.6543" width="51.871" height="26.088" rx="4.8915" fill="#7E4523"/>
<path d="M34.3868 60.7668V68.6992H33.0856V65.2295H29.3534V68.6992H28.0523V60.7668H29.3534V64.1681H33.0856V60.7668H34.3868ZM36.7617 61.5772C36.5258 61.5772 36.328 61.4973 36.1682 61.3375C36.0084 61.1777 35.9285 60.9799 35.9285 60.744C35.9285 60.5081 36.0084 60.3103 36.1682 60.1505C36.328 59.9907 36.5258 59.9108 36.7617 59.9108C36.99 59.9108 37.184 59.9907 37.3438 60.1505C37.5036 60.3103 37.5835 60.5081 37.5835 60.744C37.5835 60.9799 37.5036 61.1777 37.3438 61.3375C37.184 61.4973 36.99 61.5772 36.7617 61.5772ZM37.4008 62.4104V68.6992H36.0997V62.4104H37.4008ZM40.6271 63.4718V66.953C40.6271 67.1888 40.6804 67.36 40.7869 67.4666C40.901 67.5655 41.0913 67.6149 41.3576 67.6149H42.1565V68.6992H41.1293C40.5434 68.6992 40.0945 68.5623 39.7825 68.2883C39.4705 68.0144 39.3146 67.5693 39.3146 66.953V63.4718H38.5727V62.4104H39.3146V60.8467H40.6271V62.4104H42.1565V63.4718H40.6271Z" fill="#B9C3CE"/>
<circle cx="54.6115" cy="62.8644" r="0.917155" fill="#B9C3CE"/>
<circle cx="54.6115" cy="66.5324" r="0.917155" fill="#B9C3CE"/>
<rect x="76.6221" y="51.6543" width="78.871" height="26.088" rx="4.8915" fill="#605D0B"/>
<path d="M89.8762 64.6246C90.3023 64.7007 90.6638 64.9252 90.9605 65.298C91.2573 65.6708 91.4057 66.0931 91.4057 66.5649C91.4057 66.9682 91.2991 67.3334 91.0861 67.6606C90.8806 67.9802 90.5801 68.2351 90.1844 68.4253C89.7887 68.6079 89.3284 68.6992 88.8034 68.6992H85.6304V60.7668H88.655C89.1952 60.7668 89.6594 60.8582 90.0474 61.0408C90.4355 61.2234 90.7285 61.4707 90.9263 61.7826C91.1241 62.087 91.223 62.4294 91.223 62.8099C91.223 63.2664 91.1013 63.6468 90.8578 63.9512C90.6143 64.2556 90.2871 64.48 89.8762 64.6246ZM86.9316 64.0996H88.5409C88.967 64.0996 89.298 64.0045 89.5338 63.8142C89.7773 63.6164 89.8991 63.3349 89.8991 62.9696C89.8991 62.612 89.7773 62.3343 89.5338 62.1365C89.298 61.931 88.967 61.8283 88.5409 61.8283H86.9316V64.0996ZM88.6892 67.6378C89.1306 67.6378 89.4768 67.5312 89.7279 67.3182C89.979 67.1051 90.1045 66.8084 90.1045 66.4279C90.1045 66.0399 89.9714 65.7317 89.705 65.5034C89.4387 65.2752 89.0849 65.161 88.6436 65.161H86.9316V67.6378H88.6892ZM95.5474 68.8019C94.9539 68.8019 94.4175 68.6688 93.9381 68.4025C93.4587 68.1285 93.0821 67.7481 92.8082 67.2611C92.5342 66.7665 92.3973 66.1959 92.3973 65.5491C92.3973 64.9099 92.5381 64.3431 92.8196 63.8485C93.1011 63.3539 93.4854 62.9735 93.9723 62.7071C94.4593 62.4408 95.0034 62.3077 95.6045 62.3077C96.2056 62.3077 96.7496 62.4408 97.2366 62.7071C97.7236 62.9735 98.1078 63.3539 98.3894 63.8485C98.6709 64.3431 98.8117 64.9099 98.8117 65.5491C98.8117 66.1883 98.6671 66.7551 98.378 67.2497C98.0888 67.7443 97.6931 68.1285 97.191 68.4025C96.6964 68.6688 96.1485 68.8019 95.5474 68.8019ZM95.5474 67.672C95.8822 67.672 96.1942 67.5921 96.4833 67.4323C96.7801 67.2725 97.0198 67.0328 97.2024 66.7133C97.385 66.3937 97.4763 66.0056 97.4763 65.5491C97.4763 65.0926 97.3888 64.7083 97.2138 64.3963C97.0388 64.0768 96.8067 63.8371 96.5176 63.6773C96.2284 63.5175 95.9164 63.4376 95.5817 63.4376C95.2469 63.4376 94.9349 63.5175 94.6457 63.6773C94.3642 63.8371 94.1397 64.0768 93.9723 64.3963C93.805 64.7083 93.7213 65.0926 93.7213 65.5491C93.7213 66.2263 93.8925 66.7513 94.2349 67.1242C94.5849 67.4894 95.0224 67.672 95.5474 67.672ZM102.826 68.8019C102.232 68.8019 101.696 68.6688 101.216 68.4025C100.737 68.1285 100.36 67.7481 100.087 67.2611C99.8126 66.7665 99.6756 66.1959 99.6756 65.5491C99.6756 64.9099 99.8164 64.3431 100.098 63.8485C100.379 63.3539 100.764 62.9735 101.251 62.7071C101.738 62.4408 102.282 62.3077 102.883 62.3077C103.484 62.3077 104.028 62.4408 104.515 62.7071C105.002 62.9735 105.386 63.3539 105.668 63.8485C105.949 64.3431 106.09 64.9099 106.09 65.5491C106.09 66.1883 105.945 66.7551 105.656 67.2497C105.367 67.7443 104.971 68.1285 104.469 68.4025C103.975 68.6688 103.427 68.8019 102.826 68.8019ZM102.826 67.672C103.161 67.672 103.473 67.5921 103.762 67.4323C104.058 67.2725 104.298 67.0328 104.481 66.7133C104.663 66.3937 104.755 66.0056 104.755 65.5491C104.755 65.0926 104.667 64.7083 104.492 64.3963C104.317 64.0768 104.085 63.8371 103.796 63.6773C103.507 63.5175 103.195 63.4376 102.86 63.4376C102.525 63.4376 102.213 63.5175 101.924 63.6773C101.643 63.8371 101.418 64.0768 101.251 64.3963C101.083 64.7083 101 65.0926 101 65.5491C101 66.2263 101.171 66.7513 101.513 67.1242C101.863 67.4894 102.301 67.672 102.826 67.672ZM109.864 65.5605L112.763 68.6992H111.006L108.677 65.9942V68.6992H107.376V60.2532H108.677V65.161L110.96 62.4104H112.763L109.864 65.5605ZM119.46 65.4007C119.46 65.6366 119.445 65.8497 119.414 66.0399H114.609C114.647 66.5421 114.834 66.9453 115.168 67.2497C115.503 67.5541 115.914 67.7062 116.401 67.7062C117.101 67.7062 117.596 67.4133 117.885 66.8274H119.289C119.098 67.4057 118.752 67.8813 118.25 68.2541C117.755 68.6193 117.139 68.8019 116.401 68.8019C115.8 68.8019 115.26 68.6688 114.78 68.4025C114.309 68.1285 113.936 67.7481 113.662 67.2611C113.395 66.7665 113.262 66.1959 113.262 65.5491C113.262 64.9023 113.392 64.3355 113.65 63.8485C113.917 63.3539 114.286 62.9735 114.757 62.7071C115.237 62.4408 115.785 62.3077 116.401 62.3077C116.995 62.3077 117.523 62.437 117.987 62.6957C118.452 62.9544 118.813 63.3197 119.072 63.7914C119.33 64.2556 119.46 64.792 119.46 65.4007ZM118.102 64.9898C118.094 64.5105 117.923 64.1262 117.588 63.8371C117.253 63.5479 116.839 63.4034 116.344 63.4034C115.895 63.4034 115.511 63.5479 115.191 63.8371C114.872 64.1186 114.681 64.5029 114.621 64.9898H118.102ZM120.307 65.5263C120.307 64.8947 120.436 64.3355 120.695 63.8485C120.961 63.3615 121.319 62.9849 121.767 62.7185C122.224 62.4446 122.73 62.3077 123.285 62.3077C123.696 62.3077 124.1 62.399 124.495 62.5816C124.899 62.7566 125.218 62.9925 125.454 63.2892V60.2532H126.767V68.6992H125.454V67.7519C125.241 68.0563 124.944 68.3074 124.564 68.5052C124.191 68.703 123.761 68.8019 123.274 68.8019C122.726 68.8019 122.224 68.665 121.767 68.3911C121.319 68.1095 120.961 67.7215 120.695 67.2269C120.436 66.7247 120.307 66.1578 120.307 65.5263ZM125.454 65.5491C125.454 65.1154 125.363 64.7387 125.18 64.4192C125.005 64.0996 124.773 63.8561 124.484 63.6887C124.195 63.5213 123.883 63.4376 123.548 63.4376C123.213 63.4376 122.901 63.5213 122.612 63.6887C122.323 63.8485 122.087 64.0882 121.904 64.4077C121.729 64.7197 121.642 65.0926 121.642 65.5263C121.642 65.96 121.729 66.3404 121.904 66.6676C122.087 66.9948 122.323 67.2459 122.612 67.4209C122.909 67.5883 123.221 67.672 123.548 67.672C123.883 67.672 124.195 67.5883 124.484 67.4209C124.773 67.2535 125.005 67.01 125.18 66.6904C125.363 66.3633 125.454 65.9828 125.454 65.5491Z" fill="#B9C3CE"/>
<circle cx="139.19" cy="62.8644" r="0.917155" fill="#B9C3CE"/>
<circle cx="139.19" cy="66.5324" r="0.917155" fill="#B9C3CE"/>
<rect x="161.199" y="51.6543" width="100.871" height="26.088" rx="4.8915" fill="#10672E"/>
<path d="M171.509 60.7668V68.6992H170.208V60.7668H171.509ZM176.39 62.3077C176.885 62.3077 177.326 62.4104 177.714 62.6158C178.11 62.8213 178.418 63.1256 178.638 63.5289C178.859 63.9322 178.969 64.4192 178.969 64.9898V68.6992H177.68V65.1839C177.68 64.6208 177.539 64.1909 177.257 63.8941C176.976 63.5898 176.592 63.4376 176.105 63.4376C175.618 63.4376 175.23 63.5898 174.94 63.8941C174.659 64.1909 174.518 64.6208 174.518 65.1839V68.6992H173.217V62.4104H174.518V63.1294C174.731 62.8707 175.001 62.6691 175.328 62.5245C175.663 62.38 176.017 62.3077 176.39 62.3077ZM184.895 63.3349C185.116 63.0457 185.416 62.8022 185.797 62.6044C186.177 62.4066 186.607 62.3077 187.086 62.3077C187.634 62.3077 188.133 62.4446 188.582 62.7185C189.038 62.9849 189.396 63.3615 189.654 63.8485C189.913 64.3355 190.043 64.8947 190.043 65.5263C190.043 66.1578 189.913 66.7247 189.654 67.2269C189.396 67.7215 189.038 68.1095 188.582 68.3911C188.133 68.665 187.634 68.8019 187.086 68.8019C186.607 68.8019 186.181 68.7068 185.808 68.5166C185.435 68.3188 185.131 68.0753 184.895 67.7861V71.6896H183.594V62.4104H184.895V63.3349ZM188.719 65.5263C188.719 65.0926 188.627 64.7197 188.445 64.4077C188.27 64.0882 188.034 63.8485 187.737 63.6887C187.448 63.5213 187.136 63.4376 186.801 63.4376C186.474 63.4376 186.162 63.5213 185.865 63.6887C185.576 63.8561 185.34 64.0996 185.158 64.4192C184.983 64.7387 184.895 65.1154 184.895 65.5491C184.895 65.9828 184.983 66.3633 185.158 66.6904C185.34 67.01 185.576 67.2535 185.865 67.4209C186.162 67.5883 186.474 67.672 186.801 67.672C187.136 67.672 187.448 67.5883 187.737 67.4209C188.034 67.2459 188.27 66.9948 188.445 66.6676C188.627 66.3404 188.719 65.96 188.719 65.5263ZM192.63 63.3235C192.821 63.0039 193.072 62.7566 193.384 62.5816C193.703 62.399 194.08 62.3077 194.514 62.3077V63.6545H194.183C193.673 63.6545 193.285 63.7838 193.018 64.0425C192.76 64.3012 192.63 64.7502 192.63 65.3893V68.6992H191.329V62.4104H192.63V63.3235ZM198.437 68.8019C197.844 68.8019 197.307 68.6688 196.828 68.4025C196.349 68.1285 195.972 67.7481 195.698 67.2611C195.424 66.7665 195.287 66.1959 195.287 65.5491C195.287 64.9099 195.428 64.3431 195.71 63.8485C195.991 63.3539 196.375 62.9735 196.862 62.7071C197.349 62.4408 197.893 62.3077 198.494 62.3077C199.096 62.3077 199.64 62.4408 200.127 62.7071C200.614 62.9735 200.998 63.3539 201.279 63.8485C201.561 64.3431 201.702 64.9099 201.702 65.5491C201.702 66.1883 201.557 66.7551 201.268 67.2497C200.979 67.7443 200.583 68.1285 200.081 68.4025C199.586 68.6688 199.039 68.8019 198.437 68.8019ZM198.437 67.672C198.772 67.672 199.084 67.5921 199.373 67.4323C199.67 67.2725 199.91 67.0328 200.092 66.7133C200.275 66.3937 200.366 66.0056 200.366 65.5491C200.366 65.0926 200.279 64.7083 200.104 64.3963C199.929 64.0768 199.697 63.8371 199.408 63.6773C199.118 63.5175 198.806 63.4376 198.472 63.4376C198.137 63.4376 197.825 63.5175 197.536 63.6773C197.254 63.8371 197.03 64.0768 196.862 64.3963C196.695 64.7083 196.611 65.0926 196.611 65.5491C196.611 66.2263 196.782 66.7513 197.125 67.1242C197.475 67.4894 197.912 67.672 198.437 67.672ZM205.522 62.3077C206.009 62.3077 206.439 62.4066 206.811 62.6044C207.192 62.7946 207.489 63.0343 207.702 63.3235V62.4104H209.014V68.8019C209.014 69.3802 208.892 69.8938 208.649 70.3428C208.406 70.7993 208.052 71.1569 207.588 71.4156C207.131 71.6743 206.583 71.8037 205.944 71.8037C205.092 71.8037 204.384 71.602 203.821 71.1988C203.258 70.8031 202.938 70.2629 202.862 69.5781H204.152C204.251 69.9052 204.46 70.1678 204.78 70.3656C205.107 70.571 205.495 70.6738 205.944 70.6738C206.469 70.6738 206.891 70.514 207.211 70.1944C207.538 69.8748 207.702 69.4107 207.702 68.8019V67.7519C207.481 68.0486 207.18 68.2997 206.8 68.5052C206.427 68.703 206.001 68.8019 205.522 68.8019C204.974 68.8019 204.472 68.665 204.015 68.3911C203.566 68.1095 203.209 67.7215 202.942 67.2269C202.684 66.7247 202.554 66.1578 202.554 65.5263C202.554 64.8947 202.684 64.3355 202.942 63.8485C203.209 63.3615 203.566 62.9849 204.015 62.7185C204.472 62.4446 204.974 62.3077 205.522 62.3077ZM207.702 65.5491C207.702 65.1154 207.61 64.7387 207.428 64.4192C207.253 64.0996 207.021 63.8561 206.732 63.6887C206.442 63.5213 206.13 63.4376 205.796 63.4376C205.461 63.4376 205.149 63.5213 204.86 63.6887C204.571 63.8485 204.335 64.0882 204.152 64.4077C203.977 64.7197 203.89 65.0926 203.89 65.5263C203.89 65.96 203.977 66.3404 204.152 66.6676C204.335 66.9948 204.571 67.2459 204.86 67.4209C205.156 67.5883 205.468 67.672 205.796 67.672C206.13 67.672 206.442 67.5883 206.732 67.4209C207.021 67.2535 207.253 67.01 207.428 66.6904C207.61 66.3633 207.702 65.9828 207.702 65.5491ZM212.024 63.3235C212.215 63.0039 212.466 62.7566 212.778 62.5816C213.097 62.399 213.474 62.3077 213.908 62.3077V63.6545H213.577C213.067 63.6545 212.679 63.7838 212.412 64.0425C212.154 64.3012 212.024 64.7502 212.024 65.3893V68.6992H210.723V62.4104H212.024V63.3235ZM220.867 65.4007C220.867 65.6366 220.852 65.8497 220.822 66.0399H216.017C216.055 66.5421 216.241 66.9453 216.576 67.2497C216.911 67.5541 217.322 67.7062 217.809 67.7062C218.509 67.7062 219.003 67.4133 219.292 66.8274H220.696C220.506 67.4057 220.16 67.8813 219.658 68.2541C219.163 68.6193 218.547 68.8019 217.809 68.8019C217.207 68.8019 216.667 68.6688 216.188 68.4025C215.716 68.1285 215.343 67.7481 215.069 67.2611C214.803 66.7665 214.67 66.1959 214.67 65.5491C214.67 64.9023 214.799 64.3355 215.058 63.8485C215.324 63.3539 215.693 62.9735 216.165 62.7071C216.644 62.4408 217.192 62.3077 217.809 62.3077C218.402 62.3077 218.931 62.437 219.395 62.6957C219.859 62.9544 220.221 63.3197 220.479 63.7914C220.738 64.2556 220.867 64.792 220.867 65.4007ZM219.509 64.9898C219.502 64.5105 219.33 64.1262 218.996 63.8371C218.661 63.5479 218.246 63.4034 217.752 63.4034C217.303 63.4034 216.918 63.5479 216.599 63.8371C216.279 64.1186 216.089 64.5029 216.028 64.9898H219.509ZM224.431 68.8019C223.936 68.8019 223.491 68.7144 223.095 68.5394C222.707 68.3568 222.399 68.1133 222.171 67.809C221.942 67.497 221.821 67.1508 221.805 66.7703H223.152C223.175 67.0367 223.301 67.2611 223.529 67.4437C223.765 67.6187 224.058 67.7062 224.408 67.7062C224.773 67.7062 225.055 67.6378 225.252 67.5008C225.458 67.3562 225.561 67.1736 225.561 66.953C225.561 66.7171 225.446 66.5421 225.218 66.4279C224.997 66.3138 224.644 66.1883 224.157 66.0513C223.685 65.9219 223.301 65.7964 223.004 65.6746C222.707 65.5529 222.448 65.3665 222.228 65.1154C222.015 64.8643 221.908 64.5333 221.908 64.1224C221.908 63.7876 222.007 63.4833 222.205 63.2093C222.403 62.9278 222.684 62.7071 223.05 62.5473C223.422 62.3876 223.848 62.3077 224.328 62.3077C225.043 62.3077 225.618 62.4903 226.051 62.8555C226.493 63.2131 226.728 63.7039 226.759 64.3279H225.458C225.435 64.0463 225.321 63.8219 225.115 63.6545C224.91 63.4871 224.632 63.4034 224.282 63.4034C223.94 63.4034 223.677 63.468 223.495 63.5974C223.312 63.7267 223.221 63.8979 223.221 64.111C223.221 64.2784 223.282 64.4192 223.403 64.5333C223.525 64.6474 223.673 64.7387 223.848 64.8072C224.023 64.8681 224.282 64.948 224.625 65.0469C225.081 65.1686 225.454 65.2942 225.743 65.4235C226.04 65.5453 226.295 65.7279 226.508 65.9714C226.721 66.2149 226.831 66.5383 226.839 66.9415C226.839 67.2992 226.74 67.6187 226.542 67.9003C226.344 68.1818 226.063 68.4025 225.697 68.5623C225.34 68.722 224.918 68.8019 224.431 68.8019ZM230.527 68.8019C230.033 68.8019 229.588 68.7144 229.192 68.5394C228.804 68.3568 228.496 68.1133 228.268 67.809C228.039 67.497 227.918 67.1508 227.902 66.7703H229.249C229.272 67.0367 229.397 67.2611 229.626 67.4437C229.862 67.6187 230.155 67.7062 230.505 67.7062C230.87 67.7062 231.151 67.6378 231.349 67.5008C231.555 67.3562 231.657 67.1736 231.657 66.953C231.657 66.7171 231.543 66.5421 231.315 66.4279C231.094 66.3138 230.74 66.1883 230.253 66.0513C229.782 65.9219 229.397 65.7964 229.101 65.6746C228.804 65.5529 228.545 65.3665 228.325 65.1154C228.112 64.8643 228.005 64.5333 228.005 64.1224C228.005 63.7876 228.104 63.4833 228.302 63.2093C228.5 62.9278 228.781 62.7071 229.146 62.5473C229.519 62.3876 229.945 62.3077 230.425 62.3077C231.14 62.3077 231.714 62.4903 232.148 62.8555C232.589 63.2131 232.825 63.7039 232.856 64.3279H231.555C231.532 64.0463 231.418 63.8219 231.212 63.6545C231.007 63.4871 230.729 63.4034 230.379 63.4034C230.037 63.4034 229.774 63.468 229.592 63.5974C229.409 63.7267 229.318 63.8979 229.318 64.111C229.318 64.2784 229.378 64.4192 229.5 64.5333C229.622 64.6474 229.77 64.7387 229.945 64.8072C230.12 64.8681 230.379 64.948 230.721 65.0469C231.178 65.1686 231.551 65.2942 231.84 65.4235C232.137 65.5453 232.392 65.7279 232.605 65.9714C232.818 66.2149 232.928 66.5383 232.936 66.9415C232.936 67.2992 232.837 67.6187 232.639 67.9003C232.441 68.1818 232.16 68.4025 231.794 68.5623C231.437 68.722 231.014 68.8019 230.527 68.8019Z" fill="#B9C3CE"/>
<circle cx="245.767" cy="62.8644" r="0.917155" fill="#B9C3CE"/>
<circle cx="245.767" cy="66.5324" r="0.917155" fill="#B9C3CE"/>
<rect x="6.5" y="6.5" width="277" height="83.7859" rx="13.5" stroke="#020415"/>
<rect opacity="0.4" x="0.5" y="0.5" width="289" height="96" rx="19.5" stroke="#492472"/>
</svg>
